G04 #@! TF.GenerationSoftware,KiCad,Pcbnew,(5.1.6)-1*
G04 #@! TF.CreationDate,2020-07-07T21:46:09+02:00*
G04 #@! TF.ProjectId,ToF_camera_VGA,546f465f-6361-46d6-9572-615f5647412e,rev?*
G04 #@! TF.SameCoordinates,Original*
G04 #@! TF.FileFunction,Paste,Top*
G04 #@! TF.FilePolarity,Positive*
%FSLAX46Y46*%
G04 Gerber Fmt 4.6, Leading zero omitted, Abs format (unit mm)*
G04 Created by KiCad (PCBNEW (5.1.6)-1) date 2020-07-07 21:46:09*
%MOMM*%
%LPD*%
G01*
G04 APERTURE LIST*
%ADD10R,1.600000X0.300000*%
%ADD11R,1.300000X1.650000*%
%ADD12R,1.000000X0.300000*%
%ADD13R,0.700000X0.800000*%
%ADD14R,2.750000X1.000000*%
%ADD15R,1.060000X0.650000*%
%ADD16R,0.650000X1.060000*%
G04 APERTURE END LIST*
D10*
X103150000Y-123355000D03*
X103150000Y-122705000D03*
X103150000Y-122055000D03*
X103150000Y-121405000D03*
X106550000Y-121405000D03*
X106550000Y-122055000D03*
X106550000Y-122705000D03*
X106550000Y-123355000D03*
D11*
X99140000Y-115515000D03*
X99140000Y-100465000D03*
D12*
X101040000Y-113240000D03*
X101040000Y-112740000D03*
X101040000Y-112240000D03*
X101040000Y-111740000D03*
X101040000Y-111240000D03*
X101040000Y-110740000D03*
X101040000Y-110240000D03*
X101040000Y-109740000D03*
X101040000Y-109240000D03*
X101040000Y-108740000D03*
X101040000Y-108240000D03*
X101040000Y-107740000D03*
X101040000Y-107240000D03*
X101040000Y-106740000D03*
X101040000Y-106240000D03*
X101040000Y-105740000D03*
X101040000Y-105240000D03*
X101040000Y-104740000D03*
X101040000Y-104240000D03*
X101040000Y-103740000D03*
X101040000Y-103240000D03*
X101040000Y-102740000D03*
D13*
X105475000Y-113865000D03*
X107125000Y-113865000D03*
X107125000Y-115115000D03*
X105475000Y-115115000D03*
G36*
G01*
X99512500Y-118343750D02*
X99512500Y-119256250D01*
G75*
G02*
X99268750Y-119500000I-243750J0D01*
G01*
X98781250Y-119500000D01*
G75*
G02*
X98537500Y-119256250I0J243750D01*
G01*
X98537500Y-118343750D01*
G75*
G02*
X98781250Y-118100000I243750J0D01*
G01*
X99268750Y-118100000D01*
G75*
G02*
X99512500Y-118343750I0J-243750D01*
G01*
G37*
G36*
G01*
X101387500Y-118343750D02*
X101387500Y-119256250D01*
G75*
G02*
X101143750Y-119500000I-243750J0D01*
G01*
X100656250Y-119500000D01*
G75*
G02*
X100412500Y-119256250I0J243750D01*
G01*
X100412500Y-118343750D01*
G75*
G02*
X100656250Y-118100000I243750J0D01*
G01*
X101143750Y-118100000D01*
G75*
G02*
X101387500Y-118343750I0J-243750D01*
G01*
G37*
G36*
G01*
X112610000Y-94243750D02*
X112610000Y-95156250D01*
G75*
G02*
X112366250Y-95400000I-243750J0D01*
G01*
X111878750Y-95400000D01*
G75*
G02*
X111635000Y-95156250I0J243750D01*
G01*
X111635000Y-94243750D01*
G75*
G02*
X111878750Y-94000000I243750J0D01*
G01*
X112366250Y-94000000D01*
G75*
G02*
X112610000Y-94243750I0J-243750D01*
G01*
G37*
G36*
G01*
X114485000Y-94243750D02*
X114485000Y-95156250D01*
G75*
G02*
X114241250Y-95400000I-243750J0D01*
G01*
X113753750Y-95400000D01*
G75*
G02*
X113510000Y-95156250I0J243750D01*
G01*
X113510000Y-94243750D01*
G75*
G02*
X113753750Y-94000000I243750J0D01*
G01*
X114241250Y-94000000D01*
G75*
G02*
X114485000Y-94243750I0J-243750D01*
G01*
G37*
G36*
G01*
X104985000Y-120186250D02*
X104985000Y-119273750D01*
G75*
G02*
X105228750Y-119030000I243750J0D01*
G01*
X105716250Y-119030000D01*
G75*
G02*
X105960000Y-119273750I0J-243750D01*
G01*
X105960000Y-120186250D01*
G75*
G02*
X105716250Y-120430000I-243750J0D01*
G01*
X105228750Y-120430000D01*
G75*
G02*
X104985000Y-120186250I0J243750D01*
G01*
G37*
G36*
G01*
X106860000Y-120186250D02*
X106860000Y-119273750D01*
G75*
G02*
X107103750Y-119030000I243750J0D01*
G01*
X107591250Y-119030000D01*
G75*
G02*
X107835000Y-119273750I0J-243750D01*
G01*
X107835000Y-120186250D01*
G75*
G02*
X107591250Y-120430000I-243750J0D01*
G01*
X107103750Y-120430000D01*
G75*
G02*
X106860000Y-120186250I0J243750D01*
G01*
G37*
D14*
X129910000Y-126370000D03*
X124150000Y-126370000D03*
X124150000Y-122370000D03*
X129910000Y-122370000D03*
D15*
X107060000Y-94850000D03*
X107060000Y-96750000D03*
X104860000Y-96750000D03*
X104860000Y-95800000D03*
X104860000Y-94850000D03*
G36*
G01*
X117925000Y-94267500D02*
X117925000Y-93992500D01*
G75*
G02*
X118062500Y-93855000I137500J0D01*
G01*
X118737500Y-93855000D01*
G75*
G02*
X118875000Y-93992500I0J-137500D01*
G01*
X118875000Y-94267500D01*
G75*
G02*
X118737500Y-94405000I-137500J0D01*
G01*
X118062500Y-94405000D01*
G75*
G02*
X117925000Y-94267500I0J137500D01*
G01*
G37*
G36*
G01*
X117925000Y-93637500D02*
X117925000Y-93362500D01*
G75*
G02*
X118062500Y-93225000I137500J0D01*
G01*
X118737500Y-93225000D01*
G75*
G02*
X118875000Y-93362500I0J-137500D01*
G01*
X118875000Y-93637500D01*
G75*
G02*
X118737500Y-93775000I-137500J0D01*
G01*
X118062500Y-93775000D01*
G75*
G02*
X117925000Y-93637500I0J137500D01*
G01*
G37*
G36*
G01*
X117925000Y-93007500D02*
X117925000Y-92732500D01*
G75*
G02*
X118062500Y-92595000I137500J0D01*
G01*
X118737500Y-92595000D01*
G75*
G02*
X118875000Y-92732500I0J-137500D01*
G01*
X118875000Y-93007500D01*
G75*
G02*
X118737500Y-93145000I-137500J0D01*
G01*
X118062500Y-93145000D01*
G75*
G02*
X117925000Y-93007500I0J137500D01*
G01*
G37*
G36*
G01*
X119282500Y-93287000D02*
X119282500Y-93063000D01*
G75*
G02*
X119310500Y-93035000I28000J0D01*
G01*
X119614500Y-93035000D01*
G75*
G02*
X119642500Y-93063000I0J-28000D01*
G01*
X119642500Y-93287000D01*
G75*
G02*
X119614500Y-93315000I-28000J0D01*
G01*
X119310500Y-93315000D01*
G75*
G02*
X119282500Y-93287000I0J28000D01*
G01*
G37*
G36*
G01*
X119262500Y-93953000D02*
X119262500Y-93697000D01*
G75*
G02*
X119294500Y-93665000I32000J0D01*
G01*
X119630500Y-93665000D01*
G75*
G02*
X119662500Y-93697000I0J-32000D01*
G01*
X119662500Y-93953000D01*
G75*
G02*
X119630500Y-93985000I-32000J0D01*
G01*
X119294500Y-93985000D01*
G75*
G02*
X119262500Y-93953000I0J32000D01*
G01*
G37*
G36*
G01*
X119262500Y-94603000D02*
X119262500Y-94347000D01*
G75*
G02*
X119294500Y-94315000I32000J0D01*
G01*
X119630500Y-94315000D01*
G75*
G02*
X119662500Y-94347000I0J-32000D01*
G01*
X119662500Y-94603000D01*
G75*
G02*
X119630500Y-94635000I-32000J0D01*
G01*
X119294500Y-94635000D01*
G75*
G02*
X119262500Y-94603000I0J32000D01*
G01*
G37*
G36*
G01*
X117137500Y-94603000D02*
X117137500Y-94347000D01*
G75*
G02*
X117169500Y-94315000I32000J0D01*
G01*
X117505500Y-94315000D01*
G75*
G02*
X117537500Y-94347000I0J-32000D01*
G01*
X117537500Y-94603000D01*
G75*
G02*
X117505500Y-94635000I-32000J0D01*
G01*
X117169500Y-94635000D01*
G75*
G02*
X117137500Y-94603000I0J32000D01*
G01*
G37*
G36*
G01*
X117157500Y-93937000D02*
X117157500Y-93713000D01*
G75*
G02*
X117185500Y-93685000I28000J0D01*
G01*
X117489500Y-93685000D01*
G75*
G02*
X117517500Y-93713000I0J-28000D01*
G01*
X117517500Y-93937000D01*
G75*
G02*
X117489500Y-93965000I-28000J0D01*
G01*
X117185500Y-93965000D01*
G75*
G02*
X117157500Y-93937000I0J28000D01*
G01*
G37*
G36*
G01*
X117137500Y-93303000D02*
X117137500Y-93047000D01*
G75*
G02*
X117169500Y-93015000I32000J0D01*
G01*
X117505500Y-93015000D01*
G75*
G02*
X117537500Y-93047000I0J-32000D01*
G01*
X117537500Y-93303000D01*
G75*
G02*
X117505500Y-93335000I-32000J0D01*
G01*
X117169500Y-93335000D01*
G75*
G02*
X117137500Y-93303000I0J32000D01*
G01*
G37*
G36*
G01*
X119262500Y-92653000D02*
X119262500Y-92397000D01*
G75*
G02*
X119294500Y-92365000I32000J0D01*
G01*
X119630500Y-92365000D01*
G75*
G02*
X119662500Y-92397000I0J-32000D01*
G01*
X119662500Y-92653000D01*
G75*
G02*
X119630500Y-92685000I-32000J0D01*
G01*
X119294500Y-92685000D01*
G75*
G02*
X119262500Y-92653000I0J32000D01*
G01*
G37*
G36*
G01*
X117137500Y-92653000D02*
X117137500Y-92397000D01*
G75*
G02*
X117169500Y-92365000I32000J0D01*
G01*
X117505500Y-92365000D01*
G75*
G02*
X117537500Y-92397000I0J-32000D01*
G01*
X117537500Y-92653000D01*
G75*
G02*
X117505500Y-92685000I-32000J0D01*
G01*
X117169500Y-92685000D01*
G75*
G02*
X117137500Y-92653000I0J32000D01*
G01*
G37*
D16*
X130510000Y-116870000D03*
X132410000Y-116870000D03*
X132410000Y-119070000D03*
X131460000Y-119070000D03*
X130510000Y-119070000D03*
X119570000Y-121410000D03*
X121470000Y-121410000D03*
X121470000Y-123610000D03*
X120520000Y-123610000D03*
X119570000Y-123610000D03*
G36*
G01*
X112323750Y-122712500D02*
X113236250Y-122712500D01*
G75*
G02*
X113480000Y-122956250I0J-243750D01*
G01*
X113480000Y-123443750D01*
G75*
G02*
X113236250Y-123687500I-243750J0D01*
G01*
X112323750Y-123687500D01*
G75*
G02*
X112080000Y-123443750I0J243750D01*
G01*
X112080000Y-122956250D01*
G75*
G02*
X112323750Y-122712500I243750J0D01*
G01*
G37*
G36*
G01*
X112323750Y-120837500D02*
X113236250Y-120837500D01*
G75*
G02*
X113480000Y-121081250I0J-243750D01*
G01*
X113480000Y-121568750D01*
G75*
G02*
X113236250Y-121812500I-243750J0D01*
G01*
X112323750Y-121812500D01*
G75*
G02*
X112080000Y-121568750I0J243750D01*
G01*
X112080000Y-121081250D01*
G75*
G02*
X112323750Y-120837500I243750J0D01*
G01*
G37*
G36*
G01*
X120543750Y-94087500D02*
X121456250Y-94087500D01*
G75*
G02*
X121700000Y-94331250I0J-243750D01*
G01*
X121700000Y-94818750D01*
G75*
G02*
X121456250Y-95062500I-243750J0D01*
G01*
X120543750Y-95062500D01*
G75*
G02*
X120300000Y-94818750I0J243750D01*
G01*
X120300000Y-94331250D01*
G75*
G02*
X120543750Y-94087500I243750J0D01*
G01*
G37*
G36*
G01*
X120543750Y-92212500D02*
X121456250Y-92212500D01*
G75*
G02*
X121700000Y-92456250I0J-243750D01*
G01*
X121700000Y-92943750D01*
G75*
G02*
X121456250Y-93187500I-243750J0D01*
G01*
X120543750Y-93187500D01*
G75*
G02*
X120300000Y-92943750I0J243750D01*
G01*
X120300000Y-92456250D01*
G75*
G02*
X120543750Y-92212500I243750J0D01*
G01*
G37*
G36*
G01*
X123487500Y-92293750D02*
X123487500Y-93206250D01*
G75*
G02*
X123243750Y-93450000I-243750J0D01*
G01*
X122756250Y-93450000D01*
G75*
G02*
X122512500Y-93206250I0J243750D01*
G01*
X122512500Y-92293750D01*
G75*
G02*
X122756250Y-92050000I243750J0D01*
G01*
X123243750Y-92050000D01*
G75*
G02*
X123487500Y-92293750I0J-243750D01*
G01*
G37*
G36*
G01*
X125362500Y-92293750D02*
X125362500Y-93206250D01*
G75*
G02*
X125118750Y-93450000I-243750J0D01*
G01*
X124631250Y-93450000D01*
G75*
G02*
X124387500Y-93206250I0J243750D01*
G01*
X124387500Y-92293750D01*
G75*
G02*
X124631250Y-92050000I243750J0D01*
G01*
X125118750Y-92050000D01*
G75*
G02*
X125362500Y-92293750I0J-243750D01*
G01*
G37*
G36*
G01*
X101057500Y-124573750D02*
X101057500Y-125486250D01*
G75*
G02*
X100813750Y-125730000I-243750J0D01*
G01*
X100326250Y-125730000D01*
G75*
G02*
X100082500Y-125486250I0J243750D01*
G01*
X100082500Y-124573750D01*
G75*
G02*
X100326250Y-124330000I243750J0D01*
G01*
X100813750Y-124330000D01*
G75*
G02*
X101057500Y-124573750I0J-243750D01*
G01*
G37*
G36*
G01*
X102932500Y-124573750D02*
X102932500Y-125486250D01*
G75*
G02*
X102688750Y-125730000I-243750J0D01*
G01*
X102201250Y-125730000D01*
G75*
G02*
X101957500Y-125486250I0J243750D01*
G01*
X101957500Y-124573750D01*
G75*
G02*
X102201250Y-124330000I243750J0D01*
G01*
X102688750Y-124330000D01*
G75*
G02*
X102932500Y-124573750I0J-243750D01*
G01*
G37*
G36*
G01*
X111286250Y-121807500D02*
X110373750Y-121807500D01*
G75*
G02*
X110130000Y-121563750I0J243750D01*
G01*
X110130000Y-121076250D01*
G75*
G02*
X110373750Y-120832500I243750J0D01*
G01*
X111286250Y-120832500D01*
G75*
G02*
X111530000Y-121076250I0J-243750D01*
G01*
X111530000Y-121563750D01*
G75*
G02*
X111286250Y-121807500I-243750J0D01*
G01*
G37*
G36*
G01*
X111286250Y-123682500D02*
X110373750Y-123682500D01*
G75*
G02*
X110130000Y-123438750I0J243750D01*
G01*
X110130000Y-122951250D01*
G75*
G02*
X110373750Y-122707500I243750J0D01*
G01*
X111286250Y-122707500D01*
G75*
G02*
X111530000Y-122951250I0J-243750D01*
G01*
X111530000Y-123438750D01*
G75*
G02*
X111286250Y-123682500I-243750J0D01*
G01*
G37*
G36*
G01*
X135075000Y-98275000D02*
X137225000Y-98275000D01*
G75*
G02*
X137475000Y-98525000I0J-250000D01*
G01*
X137475000Y-99275000D01*
G75*
G02*
X137225000Y-99525000I-250000J0D01*
G01*
X135075000Y-99525000D01*
G75*
G02*
X134825000Y-99275000I0J250000D01*
G01*
X134825000Y-98525000D01*
G75*
G02*
X135075000Y-98275000I250000J0D01*
G01*
G37*
G36*
G01*
X135075000Y-95475000D02*
X137225000Y-95475000D01*
G75*
G02*
X137475000Y-95725000I0J-250000D01*
G01*
X137475000Y-96475000D01*
G75*
G02*
X137225000Y-96725000I-250000J0D01*
G01*
X135075000Y-96725000D01*
G75*
G02*
X134825000Y-96475000I0J250000D01*
G01*
X134825000Y-95725000D01*
G75*
G02*
X135075000Y-95475000I250000J0D01*
G01*
G37*
G36*
G01*
X100275000Y-121825000D02*
X100275000Y-120575000D01*
G75*
G02*
X100525000Y-120325000I250000J0D01*
G01*
X101275000Y-120325000D01*
G75*
G02*
X101525000Y-120575000I0J-250000D01*
G01*
X101525000Y-121825000D01*
G75*
G02*
X101275000Y-122075000I-250000J0D01*
G01*
X100525000Y-122075000D01*
G75*
G02*
X100275000Y-121825000I0J250000D01*
G01*
G37*
G36*
G01*
X97475000Y-121825000D02*
X97475000Y-120575000D01*
G75*
G02*
X97725000Y-120325000I250000J0D01*
G01*
X98475000Y-120325000D01*
G75*
G02*
X98725000Y-120575000I0J-250000D01*
G01*
X98725000Y-121825000D01*
G75*
G02*
X98475000Y-122075000I-250000J0D01*
G01*
X97725000Y-122075000D01*
G75*
G02*
X97475000Y-121825000I0J250000D01*
G01*
G37*
G36*
G01*
X124387500Y-95156250D02*
X124387500Y-94243750D01*
G75*
G02*
X124631250Y-94000000I243750J0D01*
G01*
X125118750Y-94000000D01*
G75*
G02*
X125362500Y-94243750I0J-243750D01*
G01*
X125362500Y-95156250D01*
G75*
G02*
X125118750Y-95400000I-243750J0D01*
G01*
X124631250Y-95400000D01*
G75*
G02*
X124387500Y-95156250I0J243750D01*
G01*
G37*
G36*
G01*
X122512500Y-95156250D02*
X122512500Y-94243750D01*
G75*
G02*
X122756250Y-94000000I243750J0D01*
G01*
X123243750Y-94000000D01*
G75*
G02*
X123487500Y-94243750I0J-243750D01*
G01*
X123487500Y-95156250D01*
G75*
G02*
X123243750Y-95400000I-243750J0D01*
G01*
X122756250Y-95400000D01*
G75*
G02*
X122512500Y-95156250I0J243750D01*
G01*
G37*
G36*
G01*
X112610000Y-96193750D02*
X112610000Y-97106250D01*
G75*
G02*
X112366250Y-97350000I-243750J0D01*
G01*
X111878750Y-97350000D01*
G75*
G02*
X111635000Y-97106250I0J243750D01*
G01*
X111635000Y-96193750D01*
G75*
G02*
X111878750Y-95950000I243750J0D01*
G01*
X112366250Y-95950000D01*
G75*
G02*
X112610000Y-96193750I0J-243750D01*
G01*
G37*
G36*
G01*
X114485000Y-96193750D02*
X114485000Y-97106250D01*
G75*
G02*
X114241250Y-97350000I-243750J0D01*
G01*
X113753750Y-97350000D01*
G75*
G02*
X113510000Y-97106250I0J243750D01*
G01*
X113510000Y-96193750D01*
G75*
G02*
X113753750Y-95950000I243750J0D01*
G01*
X114241250Y-95950000D01*
G75*
G02*
X114485000Y-96193750I0J-243750D01*
G01*
G37*
G36*
G01*
X124387500Y-97106250D02*
X124387500Y-96193750D01*
G75*
G02*
X124631250Y-95950000I243750J0D01*
G01*
X125118750Y-95950000D01*
G75*
G02*
X125362500Y-96193750I0J-243750D01*
G01*
X125362500Y-97106250D01*
G75*
G02*
X125118750Y-97350000I-243750J0D01*
G01*
X124631250Y-97350000D01*
G75*
G02*
X124387500Y-97106250I0J243750D01*
G01*
G37*
G36*
G01*
X122512500Y-97106250D02*
X122512500Y-96193750D01*
G75*
G02*
X122756250Y-95950000I243750J0D01*
G01*
X123243750Y-95950000D01*
G75*
G02*
X123487500Y-96193750I0J-243750D01*
G01*
X123487500Y-97106250D01*
G75*
G02*
X123243750Y-97350000I-243750J0D01*
G01*
X122756250Y-97350000D01*
G75*
G02*
X122512500Y-97106250I0J243750D01*
G01*
G37*
G36*
G01*
X105640000Y-116643750D02*
X105640000Y-117556250D01*
G75*
G02*
X105396250Y-117800000I-243750J0D01*
G01*
X104908750Y-117800000D01*
G75*
G02*
X104665000Y-117556250I0J243750D01*
G01*
X104665000Y-116643750D01*
G75*
G02*
X104908750Y-116400000I243750J0D01*
G01*
X105396250Y-116400000D01*
G75*
G02*
X105640000Y-116643750I0J-243750D01*
G01*
G37*
G36*
G01*
X107515000Y-116643750D02*
X107515000Y-117556250D01*
G75*
G02*
X107271250Y-117800000I-243750J0D01*
G01*
X106783750Y-117800000D01*
G75*
G02*
X106540000Y-117556250I0J243750D01*
G01*
X106540000Y-116643750D01*
G75*
G02*
X106783750Y-116400000I243750J0D01*
G01*
X107271250Y-116400000D01*
G75*
G02*
X107515000Y-116643750I0J-243750D01*
G01*
G37*
G36*
G01*
X129837500Y-102706250D02*
X129837500Y-101793750D01*
G75*
G02*
X130081250Y-101550000I243750J0D01*
G01*
X130568750Y-101550000D01*
G75*
G02*
X130812500Y-101793750I0J-243750D01*
G01*
X130812500Y-102706250D01*
G75*
G02*
X130568750Y-102950000I-243750J0D01*
G01*
X130081250Y-102950000D01*
G75*
G02*
X129837500Y-102706250I0J243750D01*
G01*
G37*
G36*
G01*
X127962500Y-102706250D02*
X127962500Y-101793750D01*
G75*
G02*
X128206250Y-101550000I243750J0D01*
G01*
X128693750Y-101550000D01*
G75*
G02*
X128937500Y-101793750I0J-243750D01*
G01*
X128937500Y-102706250D01*
G75*
G02*
X128693750Y-102950000I-243750J0D01*
G01*
X128206250Y-102950000D01*
G75*
G02*
X127962500Y-102706250I0J243750D01*
G01*
G37*
G36*
G01*
X109336250Y-123690000D02*
X108423750Y-123690000D01*
G75*
G02*
X108180000Y-123446250I0J243750D01*
G01*
X108180000Y-122958750D01*
G75*
G02*
X108423750Y-122715000I243750J0D01*
G01*
X109336250Y-122715000D01*
G75*
G02*
X109580000Y-122958750I0J-243750D01*
G01*
X109580000Y-123446250D01*
G75*
G02*
X109336250Y-123690000I-243750J0D01*
G01*
G37*
G36*
G01*
X109336250Y-125565000D02*
X108423750Y-125565000D01*
G75*
G02*
X108180000Y-125321250I0J243750D01*
G01*
X108180000Y-124833750D01*
G75*
G02*
X108423750Y-124590000I243750J0D01*
G01*
X109336250Y-124590000D01*
G75*
G02*
X109580000Y-124833750I0J-243750D01*
G01*
X109580000Y-125321250D01*
G75*
G02*
X109336250Y-125565000I-243750J0D01*
G01*
G37*
G36*
G01*
X128203750Y-118220000D02*
X129116250Y-118220000D01*
G75*
G02*
X129360000Y-118463750I0J-243750D01*
G01*
X129360000Y-118951250D01*
G75*
G02*
X129116250Y-119195000I-243750J0D01*
G01*
X128203750Y-119195000D01*
G75*
G02*
X127960000Y-118951250I0J243750D01*
G01*
X127960000Y-118463750D01*
G75*
G02*
X128203750Y-118220000I243750J0D01*
G01*
G37*
G36*
G01*
X128203750Y-116345000D02*
X129116250Y-116345000D01*
G75*
G02*
X129360000Y-116588750I0J-243750D01*
G01*
X129360000Y-117076250D01*
G75*
G02*
X129116250Y-117320000I-243750J0D01*
G01*
X128203750Y-117320000D01*
G75*
G02*
X127960000Y-117076250I0J243750D01*
G01*
X127960000Y-116588750D01*
G75*
G02*
X128203750Y-116345000I243750J0D01*
G01*
G37*
G36*
G01*
X105370000Y-125486250D02*
X105370000Y-124573750D01*
G75*
G02*
X105613750Y-124330000I243750J0D01*
G01*
X106101250Y-124330000D01*
G75*
G02*
X106345000Y-124573750I0J-243750D01*
G01*
X106345000Y-125486250D01*
G75*
G02*
X106101250Y-125730000I-243750J0D01*
G01*
X105613750Y-125730000D01*
G75*
G02*
X105370000Y-125486250I0J243750D01*
G01*
G37*
G36*
G01*
X103495000Y-125486250D02*
X103495000Y-124573750D01*
G75*
G02*
X103738750Y-124330000I243750J0D01*
G01*
X104226250Y-124330000D01*
G75*
G02*
X104470000Y-124573750I0J-243750D01*
G01*
X104470000Y-125486250D01*
G75*
G02*
X104226250Y-125730000I-243750J0D01*
G01*
X103738750Y-125730000D01*
G75*
G02*
X103495000Y-125486250I0J243750D01*
G01*
G37*
G36*
G01*
X129837500Y-100806250D02*
X129837500Y-99893750D01*
G75*
G02*
X130081250Y-99650000I243750J0D01*
G01*
X130568750Y-99650000D01*
G75*
G02*
X130812500Y-99893750I0J-243750D01*
G01*
X130812500Y-100806250D01*
G75*
G02*
X130568750Y-101050000I-243750J0D01*
G01*
X130081250Y-101050000D01*
G75*
G02*
X129837500Y-100806250I0J243750D01*
G01*
G37*
G36*
G01*
X127962500Y-100806250D02*
X127962500Y-99893750D01*
G75*
G02*
X128206250Y-99650000I243750J0D01*
G01*
X128693750Y-99650000D01*
G75*
G02*
X128937500Y-99893750I0J-243750D01*
G01*
X128937500Y-100806250D01*
G75*
G02*
X128693750Y-101050000I-243750J0D01*
G01*
X128206250Y-101050000D01*
G75*
G02*
X127962500Y-100806250I0J243750D01*
G01*
G37*
G36*
G01*
X110050000Y-93206250D02*
X110050000Y-92293750D01*
G75*
G02*
X110293750Y-92050000I243750J0D01*
G01*
X110781250Y-92050000D01*
G75*
G02*
X111025000Y-92293750I0J-243750D01*
G01*
X111025000Y-93206250D01*
G75*
G02*
X110781250Y-93450000I-243750J0D01*
G01*
X110293750Y-93450000D01*
G75*
G02*
X110050000Y-93206250I0J243750D01*
G01*
G37*
G36*
G01*
X108175000Y-93206250D02*
X108175000Y-92293750D01*
G75*
G02*
X108418750Y-92050000I243750J0D01*
G01*
X108906250Y-92050000D01*
G75*
G02*
X109150000Y-92293750I0J-243750D01*
G01*
X109150000Y-93206250D01*
G75*
G02*
X108906250Y-93450000I-243750J0D01*
G01*
X108418750Y-93450000D01*
G75*
G02*
X108175000Y-93206250I0J243750D01*
G01*
G37*
G36*
G01*
X130950000Y-113656250D02*
X130950000Y-112743750D01*
G75*
G02*
X131193750Y-112500000I243750J0D01*
G01*
X131681250Y-112500000D01*
G75*
G02*
X131925000Y-112743750I0J-243750D01*
G01*
X131925000Y-113656250D01*
G75*
G02*
X131681250Y-113900000I-243750J0D01*
G01*
X131193750Y-113900000D01*
G75*
G02*
X130950000Y-113656250I0J243750D01*
G01*
G37*
G36*
G01*
X129075000Y-113656250D02*
X129075000Y-112743750D01*
G75*
G02*
X129318750Y-112500000I243750J0D01*
G01*
X129806250Y-112500000D01*
G75*
G02*
X130050000Y-112743750I0J-243750D01*
G01*
X130050000Y-113656250D01*
G75*
G02*
X129806250Y-113900000I-243750J0D01*
G01*
X129318750Y-113900000D01*
G75*
G02*
X129075000Y-113656250I0J243750D01*
G01*
G37*
G36*
G01*
X110052500Y-95156250D02*
X110052500Y-94243750D01*
G75*
G02*
X110296250Y-94000000I243750J0D01*
G01*
X110783750Y-94000000D01*
G75*
G02*
X111027500Y-94243750I0J-243750D01*
G01*
X111027500Y-95156250D01*
G75*
G02*
X110783750Y-95400000I-243750J0D01*
G01*
X110296250Y-95400000D01*
G75*
G02*
X110052500Y-95156250I0J243750D01*
G01*
G37*
G36*
G01*
X108177500Y-95156250D02*
X108177500Y-94243750D01*
G75*
G02*
X108421250Y-94000000I243750J0D01*
G01*
X108908750Y-94000000D01*
G75*
G02*
X109152500Y-94243750I0J-243750D01*
G01*
X109152500Y-95156250D01*
G75*
G02*
X108908750Y-95400000I-243750J0D01*
G01*
X108421250Y-95400000D01*
G75*
G02*
X108177500Y-95156250I0J243750D01*
G01*
G37*
G36*
G01*
X129075000Y-115546250D02*
X129075000Y-114633750D01*
G75*
G02*
X129318750Y-114390000I243750J0D01*
G01*
X129806250Y-114390000D01*
G75*
G02*
X130050000Y-114633750I0J-243750D01*
G01*
X130050000Y-115546250D01*
G75*
G02*
X129806250Y-115790000I-243750J0D01*
G01*
X129318750Y-115790000D01*
G75*
G02*
X129075000Y-115546250I0J243750D01*
G01*
G37*
G36*
G01*
X130950000Y-115546250D02*
X130950000Y-114633750D01*
G75*
G02*
X131193750Y-114390000I243750J0D01*
G01*
X131681250Y-114390000D01*
G75*
G02*
X131925000Y-114633750I0J-243750D01*
G01*
X131925000Y-115546250D01*
G75*
G02*
X131681250Y-115790000I-243750J0D01*
G01*
X131193750Y-115790000D01*
G75*
G02*
X130950000Y-115546250I0J243750D01*
G01*
G37*
G36*
G01*
X110050000Y-97106250D02*
X110050000Y-96193750D01*
G75*
G02*
X110293750Y-95950000I243750J0D01*
G01*
X110781250Y-95950000D01*
G75*
G02*
X111025000Y-96193750I0J-243750D01*
G01*
X111025000Y-97106250D01*
G75*
G02*
X110781250Y-97350000I-243750J0D01*
G01*
X110293750Y-97350000D01*
G75*
G02*
X110050000Y-97106250I0J243750D01*
G01*
G37*
G36*
G01*
X108175000Y-97106250D02*
X108175000Y-96193750D01*
G75*
G02*
X108418750Y-95950000I243750J0D01*
G01*
X108906250Y-95950000D01*
G75*
G02*
X109150000Y-96193750I0J-243750D01*
G01*
X109150000Y-97106250D01*
G75*
G02*
X108906250Y-97350000I-243750J0D01*
G01*
X108418750Y-97350000D01*
G75*
G02*
X108175000Y-97106250I0J243750D01*
G01*
G37*
G36*
G01*
X133890000Y-121326250D02*
X133890000Y-120413750D01*
G75*
G02*
X134133750Y-120170000I243750J0D01*
G01*
X134621250Y-120170000D01*
G75*
G02*
X134865000Y-120413750I0J-243750D01*
G01*
X134865000Y-121326250D01*
G75*
G02*
X134621250Y-121570000I-243750J0D01*
G01*
X134133750Y-121570000D01*
G75*
G02*
X133890000Y-121326250I0J243750D01*
G01*
G37*
G36*
G01*
X132015000Y-121326250D02*
X132015000Y-120413750D01*
G75*
G02*
X132258750Y-120170000I243750J0D01*
G01*
X132746250Y-120170000D01*
G75*
G02*
X132990000Y-120413750I0J-243750D01*
G01*
X132990000Y-121326250D01*
G75*
G02*
X132746250Y-121570000I-243750J0D01*
G01*
X132258750Y-121570000D01*
G75*
G02*
X132015000Y-121326250I0J243750D01*
G01*
G37*
G36*
G01*
X102603750Y-96247500D02*
X103516250Y-96247500D01*
G75*
G02*
X103760000Y-96491250I0J-243750D01*
G01*
X103760000Y-96978750D01*
G75*
G02*
X103516250Y-97222500I-243750J0D01*
G01*
X102603750Y-97222500D01*
G75*
G02*
X102360000Y-96978750I0J243750D01*
G01*
X102360000Y-96491250D01*
G75*
G02*
X102603750Y-96247500I243750J0D01*
G01*
G37*
G36*
G01*
X102603750Y-94372500D02*
X103516250Y-94372500D01*
G75*
G02*
X103760000Y-94616250I0J-243750D01*
G01*
X103760000Y-95103750D01*
G75*
G02*
X103516250Y-95347500I-243750J0D01*
G01*
X102603750Y-95347500D01*
G75*
G02*
X102360000Y-95103750I0J243750D01*
G01*
X102360000Y-94616250D01*
G75*
G02*
X102603750Y-94372500I243750J0D01*
G01*
G37*
G36*
G01*
X129850000Y-98856250D02*
X129850000Y-97943750D01*
G75*
G02*
X130093750Y-97700000I243750J0D01*
G01*
X130581250Y-97700000D01*
G75*
G02*
X130825000Y-97943750I0J-243750D01*
G01*
X130825000Y-98856250D01*
G75*
G02*
X130581250Y-99100000I-243750J0D01*
G01*
X130093750Y-99100000D01*
G75*
G02*
X129850000Y-98856250I0J243750D01*
G01*
G37*
G36*
G01*
X127975000Y-98856250D02*
X127975000Y-97943750D01*
G75*
G02*
X128218750Y-97700000I243750J0D01*
G01*
X128706250Y-97700000D01*
G75*
G02*
X128950000Y-97943750I0J-243750D01*
G01*
X128950000Y-98856250D01*
G75*
G02*
X128706250Y-99100000I-243750J0D01*
G01*
X128218750Y-99100000D01*
G75*
G02*
X127975000Y-98856250I0J243750D01*
G01*
G37*
G36*
G01*
X120950000Y-120066250D02*
X120950000Y-119153750D01*
G75*
G02*
X121193750Y-118910000I243750J0D01*
G01*
X121681250Y-118910000D01*
G75*
G02*
X121925000Y-119153750I0J-243750D01*
G01*
X121925000Y-120066250D01*
G75*
G02*
X121681250Y-120310000I-243750J0D01*
G01*
X121193750Y-120310000D01*
G75*
G02*
X120950000Y-120066250I0J243750D01*
G01*
G37*
G36*
G01*
X119075000Y-120066250D02*
X119075000Y-119153750D01*
G75*
G02*
X119318750Y-118910000I243750J0D01*
G01*
X119806250Y-118910000D01*
G75*
G02*
X120050000Y-119153750I0J-243750D01*
G01*
X120050000Y-120066250D01*
G75*
G02*
X119806250Y-120310000I-243750J0D01*
G01*
X119318750Y-120310000D01*
G75*
G02*
X119075000Y-120066250I0J243750D01*
G01*
G37*
G36*
G01*
X122067500Y-91206250D02*
X122067500Y-90293750D01*
G75*
G02*
X122311250Y-90050000I243750J0D01*
G01*
X122798750Y-90050000D01*
G75*
G02*
X123042500Y-90293750I0J-243750D01*
G01*
X123042500Y-91206250D01*
G75*
G02*
X122798750Y-91450000I-243750J0D01*
G01*
X122311250Y-91450000D01*
G75*
G02*
X122067500Y-91206250I0J243750D01*
G01*
G37*
G36*
G01*
X120192500Y-91206250D02*
X120192500Y-90293750D01*
G75*
G02*
X120436250Y-90050000I243750J0D01*
G01*
X120923750Y-90050000D01*
G75*
G02*
X121167500Y-90293750I0J-243750D01*
G01*
X121167500Y-91206250D01*
G75*
G02*
X120923750Y-91450000I-243750J0D01*
G01*
X120436250Y-91450000D01*
G75*
G02*
X120192500Y-91206250I0J243750D01*
G01*
G37*
G36*
G01*
X114612500Y-92243750D02*
X114612500Y-93156250D01*
G75*
G02*
X114368750Y-93400000I-243750J0D01*
G01*
X113881250Y-93400000D01*
G75*
G02*
X113637500Y-93156250I0J243750D01*
G01*
X113637500Y-92243750D01*
G75*
G02*
X113881250Y-92000000I243750J0D01*
G01*
X114368750Y-92000000D01*
G75*
G02*
X114612500Y-92243750I0J-243750D01*
G01*
G37*
G36*
G01*
X116487500Y-92243750D02*
X116487500Y-93156250D01*
G75*
G02*
X116243750Y-93400000I-243750J0D01*
G01*
X115756250Y-93400000D01*
G75*
G02*
X115512500Y-93156250I0J243750D01*
G01*
X115512500Y-92243750D01*
G75*
G02*
X115756250Y-92000000I243750J0D01*
G01*
X116243750Y-92000000D01*
G75*
G02*
X116487500Y-92243750I0J-243750D01*
G01*
G37*
G36*
G01*
X129850000Y-96916250D02*
X129850000Y-96003750D01*
G75*
G02*
X130093750Y-95760000I243750J0D01*
G01*
X130581250Y-95760000D01*
G75*
G02*
X130825000Y-96003750I0J-243750D01*
G01*
X130825000Y-96916250D01*
G75*
G02*
X130581250Y-97160000I-243750J0D01*
G01*
X130093750Y-97160000D01*
G75*
G02*
X129850000Y-96916250I0J243750D01*
G01*
G37*
G36*
G01*
X127975000Y-96916250D02*
X127975000Y-96003750D01*
G75*
G02*
X128218750Y-95760000I243750J0D01*
G01*
X128706250Y-95760000D01*
G75*
G02*
X128950000Y-96003750I0J-243750D01*
G01*
X128950000Y-96916250D01*
G75*
G02*
X128706250Y-97160000I-243750J0D01*
G01*
X128218750Y-97160000D01*
G75*
G02*
X127975000Y-96916250I0J243750D01*
G01*
G37*
G36*
G01*
X129850000Y-109956250D02*
X129850000Y-109043750D01*
G75*
G02*
X130093750Y-108800000I243750J0D01*
G01*
X130581250Y-108800000D01*
G75*
G02*
X130825000Y-109043750I0J-243750D01*
G01*
X130825000Y-109956250D01*
G75*
G02*
X130581250Y-110200000I-243750J0D01*
G01*
X130093750Y-110200000D01*
G75*
G02*
X129850000Y-109956250I0J243750D01*
G01*
G37*
G36*
G01*
X127975000Y-109956250D02*
X127975000Y-109043750D01*
G75*
G02*
X128218750Y-108800000I243750J0D01*
G01*
X128706250Y-108800000D01*
G75*
G02*
X128950000Y-109043750I0J-243750D01*
G01*
X128950000Y-109956250D01*
G75*
G02*
X128706250Y-110200000I-243750J0D01*
G01*
X128218750Y-110200000D01*
G75*
G02*
X127975000Y-109956250I0J243750D01*
G01*
G37*
G36*
G01*
X129850000Y-104556250D02*
X129850000Y-103643750D01*
G75*
G02*
X130093750Y-103400000I243750J0D01*
G01*
X130581250Y-103400000D01*
G75*
G02*
X130825000Y-103643750I0J-243750D01*
G01*
X130825000Y-104556250D01*
G75*
G02*
X130581250Y-104800000I-243750J0D01*
G01*
X130093750Y-104800000D01*
G75*
G02*
X129850000Y-104556250I0J243750D01*
G01*
G37*
G36*
G01*
X127975000Y-104556250D02*
X127975000Y-103643750D01*
G75*
G02*
X128218750Y-103400000I243750J0D01*
G01*
X128706250Y-103400000D01*
G75*
G02*
X128950000Y-103643750I0J-243750D01*
G01*
X128950000Y-104556250D01*
G75*
G02*
X128706250Y-104800000I-243750J0D01*
G01*
X128218750Y-104800000D01*
G75*
G02*
X127975000Y-104556250I0J243750D01*
G01*
G37*
G36*
G01*
X129850000Y-108156250D02*
X129850000Y-107243750D01*
G75*
G02*
X130093750Y-107000000I243750J0D01*
G01*
X130581250Y-107000000D01*
G75*
G02*
X130825000Y-107243750I0J-243750D01*
G01*
X130825000Y-108156250D01*
G75*
G02*
X130581250Y-108400000I-243750J0D01*
G01*
X130093750Y-108400000D01*
G75*
G02*
X129850000Y-108156250I0J243750D01*
G01*
G37*
G36*
G01*
X127975000Y-108156250D02*
X127975000Y-107243750D01*
G75*
G02*
X128218750Y-107000000I243750J0D01*
G01*
X128706250Y-107000000D01*
G75*
G02*
X128950000Y-107243750I0J-243750D01*
G01*
X128950000Y-108156250D01*
G75*
G02*
X128706250Y-108400000I-243750J0D01*
G01*
X128218750Y-108400000D01*
G75*
G02*
X127975000Y-108156250I0J243750D01*
G01*
G37*
G36*
G01*
X129850000Y-111756250D02*
X129850000Y-110843750D01*
G75*
G02*
X130093750Y-110600000I243750J0D01*
G01*
X130581250Y-110600000D01*
G75*
G02*
X130825000Y-110843750I0J-243750D01*
G01*
X130825000Y-111756250D01*
G75*
G02*
X130581250Y-112000000I-243750J0D01*
G01*
X130093750Y-112000000D01*
G75*
G02*
X129850000Y-111756250I0J243750D01*
G01*
G37*
G36*
G01*
X127975000Y-111756250D02*
X127975000Y-110843750D01*
G75*
G02*
X128218750Y-110600000I243750J0D01*
G01*
X128706250Y-110600000D01*
G75*
G02*
X128950000Y-110843750I0J-243750D01*
G01*
X128950000Y-111756250D01*
G75*
G02*
X128706250Y-112000000I-243750J0D01*
G01*
X128218750Y-112000000D01*
G75*
G02*
X127975000Y-111756250I0J243750D01*
G01*
G37*
G36*
G01*
X116542500Y-121103750D02*
X116542500Y-122016250D01*
G75*
G02*
X116298750Y-122260000I-243750J0D01*
G01*
X115811250Y-122260000D01*
G75*
G02*
X115567500Y-122016250I0J243750D01*
G01*
X115567500Y-121103750D01*
G75*
G02*
X115811250Y-120860000I243750J0D01*
G01*
X116298750Y-120860000D01*
G75*
G02*
X116542500Y-121103750I0J-243750D01*
G01*
G37*
G36*
G01*
X118417500Y-121103750D02*
X118417500Y-122016250D01*
G75*
G02*
X118173750Y-122260000I-243750J0D01*
G01*
X117686250Y-122260000D01*
G75*
G02*
X117442500Y-122016250I0J243750D01*
G01*
X117442500Y-121103750D01*
G75*
G02*
X117686250Y-120860000I243750J0D01*
G01*
X118173750Y-120860000D01*
G75*
G02*
X118417500Y-121103750I0J-243750D01*
G01*
G37*
G36*
G01*
X129850000Y-106356250D02*
X129850000Y-105443750D01*
G75*
G02*
X130093750Y-105200000I243750J0D01*
G01*
X130581250Y-105200000D01*
G75*
G02*
X130825000Y-105443750I0J-243750D01*
G01*
X130825000Y-106356250D01*
G75*
G02*
X130581250Y-106600000I-243750J0D01*
G01*
X130093750Y-106600000D01*
G75*
G02*
X129850000Y-106356250I0J243750D01*
G01*
G37*
G36*
G01*
X127975000Y-106356250D02*
X127975000Y-105443750D01*
G75*
G02*
X128218750Y-105200000I243750J0D01*
G01*
X128706250Y-105200000D01*
G75*
G02*
X128950000Y-105443750I0J-243750D01*
G01*
X128950000Y-106356250D01*
G75*
G02*
X128706250Y-106600000I-243750J0D01*
G01*
X128218750Y-106600000D01*
G75*
G02*
X127975000Y-106356250I0J243750D01*
G01*
G37*
G36*
G01*
X116582500Y-123153750D02*
X116582500Y-124066250D01*
G75*
G02*
X116338750Y-124310000I-243750J0D01*
G01*
X115851250Y-124310000D01*
G75*
G02*
X115607500Y-124066250I0J243750D01*
G01*
X115607500Y-123153750D01*
G75*
G02*
X115851250Y-122910000I243750J0D01*
G01*
X116338750Y-122910000D01*
G75*
G02*
X116582500Y-123153750I0J-243750D01*
G01*
G37*
G36*
G01*
X118457500Y-123153750D02*
X118457500Y-124066250D01*
G75*
G02*
X118213750Y-124310000I-243750J0D01*
G01*
X117726250Y-124310000D01*
G75*
G02*
X117482500Y-124066250I0J243750D01*
G01*
X117482500Y-123153750D01*
G75*
G02*
X117726250Y-122910000I243750J0D01*
G01*
X118213750Y-122910000D01*
G75*
G02*
X118457500Y-123153750I0J-243750D01*
G01*
G37*
M02*
