G04 #@! TF.GenerationSoftware,KiCad,Pcbnew,(5.1.6)-1*
G04 #@! TF.CreationDate,2020-07-07T21:46:09+02:00*
G04 #@! TF.ProjectId,ToF_camera_VGA,546f465f-6361-46d6-9572-615f5647412e,rev?*
G04 #@! TF.SameCoordinates,Original*
G04 #@! TF.FileFunction,Copper,L4,Bot*
G04 #@! TF.FilePolarity,Positive*
%FSLAX46Y46*%
G04 Gerber Fmt 4.6, Leading zero omitted, Abs format (unit mm)*
G04 Created by KiCad (PCBNEW (5.1.6)-1) date 2020-07-07 21:46:09*
%MOMM*%
%LPD*%
G01*
G04 APERTURE LIST*
G04 #@! TA.AperFunction,NonConductor*
%ADD10C,0.300000*%
G04 #@! TD*
G04 #@! TA.AperFunction,SMDPad,CuDef*
%ADD11R,2.000000X2.000000*%
G04 #@! TD*
G04 #@! TA.AperFunction,ComponentPad*
%ADD12O,1.700000X1.700000*%
G04 #@! TD*
G04 #@! TA.AperFunction,ComponentPad*
%ADD13R,1.700000X1.700000*%
G04 #@! TD*
G04 #@! TA.AperFunction,SMDPad,CuDef*
%ADD14C,1.500000*%
G04 #@! TD*
G04 #@! TA.AperFunction,Conductor*
%ADD15R,2.000000X3.000000*%
G04 #@! TD*
G04 #@! TA.AperFunction,ViaPad*
%ADD16C,0.500000*%
G04 #@! TD*
G04 #@! TA.AperFunction,ViaPad*
%ADD17C,0.800000*%
G04 #@! TD*
G04 #@! TA.AperFunction,ViaPad*
%ADD18C,0.350000*%
G04 #@! TD*
G04 #@! TA.AperFunction,Conductor*
%ADD19C,1.000000*%
G04 #@! TD*
G04 #@! TA.AperFunction,Conductor*
%ADD20C,0.250000*%
G04 #@! TD*
G04 #@! TA.AperFunction,Conductor*
%ADD21C,0.100000*%
G04 #@! TD*
G04 #@! TA.AperFunction,Conductor*
%ADD22C,0.200000*%
G04 #@! TD*
G04 #@! TA.AperFunction,Conductor*
%ADD23C,0.254000*%
G04 #@! TD*
G04 APERTURE END LIST*
D10*
X129607142Y-125678571D02*
X130107142Y-124964285D01*
X130464285Y-125678571D02*
X130464285Y-124178571D01*
X129892857Y-124178571D01*
X129750000Y-124250000D01*
X129678571Y-124321428D01*
X129607142Y-124464285D01*
X129607142Y-124678571D01*
X129678571Y-124821428D01*
X129750000Y-124892857D01*
X129892857Y-124964285D01*
X130464285Y-124964285D01*
X129035714Y-125607142D02*
X128821428Y-125678571D01*
X128464285Y-125678571D01*
X128321428Y-125607142D01*
X128250000Y-125535714D01*
X128178571Y-125392857D01*
X128178571Y-125250000D01*
X128250000Y-125107142D01*
X128321428Y-125035714D01*
X128464285Y-124964285D01*
X128750000Y-124892857D01*
X128892857Y-124821428D01*
X128964285Y-124750000D01*
X129035714Y-124607142D01*
X129035714Y-124464285D01*
X128964285Y-124321428D01*
X128892857Y-124250000D01*
X128750000Y-124178571D01*
X128392857Y-124178571D01*
X128178571Y-124250000D01*
X127750000Y-124178571D02*
X126892857Y-124178571D01*
X127321428Y-125678571D02*
X127321428Y-124178571D01*
X126392857Y-125678571D02*
X126392857Y-124178571D01*
X125535714Y-125678571D01*
X125535714Y-124178571D01*
X101678571Y-121607142D02*
X101464285Y-121678571D01*
X101107142Y-121678571D01*
X100964285Y-121607142D01*
X100892857Y-121535714D01*
X100821428Y-121392857D01*
X100821428Y-121250000D01*
X100892857Y-121107142D01*
X100964285Y-121035714D01*
X101107142Y-120964285D01*
X101392857Y-120892857D01*
X101535714Y-120821428D01*
X101607142Y-120750000D01*
X101678571Y-120607142D01*
X101678571Y-120464285D01*
X101607142Y-120321428D01*
X101535714Y-120250000D01*
X101392857Y-120178571D01*
X101035714Y-120178571D01*
X100821428Y-120250000D01*
X99321428Y-121535714D02*
X99392857Y-121607142D01*
X99607142Y-121678571D01*
X99750000Y-121678571D01*
X99964285Y-121607142D01*
X100107142Y-121464285D01*
X100178571Y-121321428D01*
X100250000Y-121035714D01*
X100250000Y-120821428D01*
X100178571Y-120535714D01*
X100107142Y-120392857D01*
X99964285Y-120250000D01*
X99750000Y-120178571D01*
X99607142Y-120178571D01*
X99392857Y-120250000D01*
X99321428Y-120321428D01*
X97964285Y-121678571D02*
X98678571Y-121678571D01*
X98678571Y-120178571D01*
X96392857Y-120107142D02*
X97678571Y-122035714D01*
X95964285Y-121607142D02*
X95750000Y-121678571D01*
X95392857Y-121678571D01*
X95250000Y-121607142D01*
X95178571Y-121535714D01*
X95107142Y-121392857D01*
X95107142Y-121250000D01*
X95178571Y-121107142D01*
X95250000Y-121035714D01*
X95392857Y-120964285D01*
X95678571Y-120892857D01*
X95821428Y-120821428D01*
X95892857Y-120750000D01*
X95964285Y-120607142D01*
X95964285Y-120464285D01*
X95892857Y-120321428D01*
X95821428Y-120250000D01*
X95678571Y-120178571D01*
X95321428Y-120178571D01*
X95107142Y-120250000D01*
X94464285Y-121678571D02*
X94464285Y-120178571D01*
X94107142Y-120178571D01*
X93892857Y-120250000D01*
X93750000Y-120392857D01*
X93678571Y-120535714D01*
X93607142Y-120821428D01*
X93607142Y-121035714D01*
X93678571Y-121321428D01*
X93750000Y-121464285D01*
X93892857Y-121607142D01*
X94107142Y-121678571D01*
X94464285Y-121678571D01*
X93035714Y-121250000D02*
X92321428Y-121250000D01*
X93178571Y-121678571D02*
X92678571Y-120178571D01*
X92178571Y-121678571D01*
X110357142Y-126107142D02*
X109214285Y-126107142D01*
X109785714Y-126678571D02*
X109785714Y-125535714D01*
X107714285Y-126678571D02*
X108571428Y-126678571D01*
X108142857Y-126678571D02*
X108142857Y-125178571D01*
X108285714Y-125392857D01*
X108428571Y-125535714D01*
X108571428Y-125607142D01*
X107071428Y-126535714D02*
X107000000Y-126607142D01*
X107071428Y-126678571D01*
X107142857Y-126607142D01*
X107071428Y-126535714D01*
X107071428Y-126678571D01*
X106142857Y-125821428D02*
X106285714Y-125750000D01*
X106357142Y-125678571D01*
X106428571Y-125535714D01*
X106428571Y-125464285D01*
X106357142Y-125321428D01*
X106285714Y-125250000D01*
X106142857Y-125178571D01*
X105857142Y-125178571D01*
X105714285Y-125250000D01*
X105642857Y-125321428D01*
X105571428Y-125464285D01*
X105571428Y-125535714D01*
X105642857Y-125678571D01*
X105714285Y-125750000D01*
X105857142Y-125821428D01*
X106142857Y-125821428D01*
X106285714Y-125892857D01*
X106357142Y-125964285D01*
X106428571Y-126107142D01*
X106428571Y-126392857D01*
X106357142Y-126535714D01*
X106285714Y-126607142D01*
X106142857Y-126678571D01*
X105857142Y-126678571D01*
X105714285Y-126607142D01*
X105642857Y-126535714D01*
X105571428Y-126392857D01*
X105571428Y-126107142D01*
X105642857Y-125964285D01*
X105714285Y-125892857D01*
X105857142Y-125821428D01*
D11*
X118900000Y-98020000D03*
X107760000Y-120600000D03*
X111210000Y-120260000D03*
X111880000Y-125510000D03*
G04 #@! TA.AperFunction,SMDPad,CuDef*
G36*
G01*
X98386250Y-110562500D02*
X97873750Y-110562500D01*
G75*
G02*
X97655000Y-110343750I0J218750D01*
G01*
X97655000Y-109906250D01*
G75*
G02*
X97873750Y-109687500I218750J0D01*
G01*
X98386250Y-109687500D01*
G75*
G02*
X98605000Y-109906250I0J-218750D01*
G01*
X98605000Y-110343750D01*
G75*
G02*
X98386250Y-110562500I-218750J0D01*
G01*
G37*
G04 #@! TD.AperFunction*
G04 #@! TA.AperFunction,SMDPad,CuDef*
G36*
G01*
X98386250Y-112137500D02*
X97873750Y-112137500D01*
G75*
G02*
X97655000Y-111918750I0J218750D01*
G01*
X97655000Y-111481250D01*
G75*
G02*
X97873750Y-111262500I218750J0D01*
G01*
X98386250Y-111262500D01*
G75*
G02*
X98605000Y-111481250I0J-218750D01*
G01*
X98605000Y-111918750D01*
G75*
G02*
X98386250Y-112137500I-218750J0D01*
G01*
G37*
G04 #@! TD.AperFunction*
D12*
X127680000Y-86490000D03*
X127680000Y-89030000D03*
X125140000Y-86490000D03*
D13*
X125140000Y-89030000D03*
D12*
X108890000Y-88890000D03*
X108890000Y-86350000D03*
X111430000Y-88890000D03*
D13*
X111430000Y-86350000D03*
D14*
X129910000Y-122400000D03*
D13*
X134700000Y-92600000D03*
D15*
X118400000Y-93500000D03*
D16*
X118400000Y-94250000D03*
X118400000Y-93500000D03*
X118400000Y-92750000D03*
D12*
X100310000Y-91770000D03*
X100310000Y-89230000D03*
X100310000Y-86690000D03*
D13*
X100310000Y-84150000D03*
G04 #@! TA.AperFunction,SMDPad,CuDef*
G36*
G01*
X120315000Y-88685000D02*
X120315000Y-86635000D01*
G75*
G02*
X120565000Y-86385000I250000J0D01*
G01*
X122140000Y-86385000D01*
G75*
G02*
X122390000Y-86635000I0J-250000D01*
G01*
X122390000Y-88685000D01*
G75*
G02*
X122140000Y-88935000I-250000J0D01*
G01*
X120565000Y-88935000D01*
G75*
G02*
X120315000Y-88685000I0J250000D01*
G01*
G37*
G04 #@! TD.AperFunction*
G04 #@! TA.AperFunction,SMDPad,CuDef*
G36*
G01*
X114090000Y-88685000D02*
X114090000Y-86635000D01*
G75*
G02*
X114340000Y-86385000I250000J0D01*
G01*
X115915000Y-86385000D01*
G75*
G02*
X116165000Y-86635000I0J-250000D01*
G01*
X116165000Y-88685000D01*
G75*
G02*
X115915000Y-88935000I-250000J0D01*
G01*
X114340000Y-88935000D01*
G75*
G02*
X114090000Y-88685000I0J250000D01*
G01*
G37*
G04 #@! TD.AperFunction*
D17*
X133500000Y-113100000D03*
X131400000Y-111300000D03*
X131400000Y-109500000D03*
X131400000Y-107700000D03*
X131400000Y-105900000D03*
X131400000Y-104100000D03*
D18*
X131310000Y-99340000D03*
X131310000Y-99920000D03*
X121660000Y-111130000D03*
X119660000Y-111130000D03*
D17*
X111240000Y-115980000D03*
X123825464Y-100793255D03*
X124090000Y-109900000D03*
D18*
X122660000Y-107130000D03*
D17*
X126190000Y-105900000D03*
D18*
X122660000Y-111130000D03*
D17*
X126140000Y-111300000D03*
X124170000Y-107630000D03*
X126410000Y-107640000D03*
D18*
X122660000Y-106130000D03*
D17*
X126100000Y-104100000D03*
D18*
X122660000Y-109130000D03*
D17*
X126330000Y-109500000D03*
D18*
X113660000Y-112130000D03*
D17*
X118150000Y-114210000D03*
D18*
X114660000Y-109130000D03*
X115660000Y-109130000D03*
X115660000Y-110130000D03*
X116660000Y-110130000D03*
X117660000Y-110130000D03*
X118660000Y-110130000D03*
X119660000Y-110130000D03*
X120660000Y-110130000D03*
X120660000Y-112130000D03*
X119660000Y-112130000D03*
X120660000Y-109130000D03*
X119660000Y-109130000D03*
X118660000Y-109130000D03*
X117660000Y-109130000D03*
X116660000Y-109130000D03*
X116660000Y-108130000D03*
X115660000Y-108130000D03*
X114660000Y-108130000D03*
X114660000Y-107130000D03*
X115660000Y-107130000D03*
X116660000Y-107130000D03*
X117660000Y-107130000D03*
X120660000Y-108130000D03*
X119660000Y-108130000D03*
X118660000Y-108130000D03*
X117660000Y-108130000D03*
X120660000Y-107130000D03*
X119660000Y-107130000D03*
X120660000Y-106130000D03*
X119660000Y-106130000D03*
X118660000Y-107130000D03*
X118660000Y-106130000D03*
X120660000Y-104130000D03*
X119660000Y-104130000D03*
X120660000Y-105130000D03*
X119660000Y-105130000D03*
X118660000Y-104130000D03*
X118660000Y-105130000D03*
X117660000Y-104130000D03*
X117660000Y-105130000D03*
X116660000Y-104130000D03*
X116660000Y-105130000D03*
X117660000Y-106130000D03*
X116660000Y-106130000D03*
X115660000Y-106130000D03*
X114660000Y-106130000D03*
X114660000Y-105130000D03*
X115660000Y-105130000D03*
X115660000Y-104130000D03*
X121660000Y-112130000D03*
D17*
X122700000Y-119610000D03*
X109890000Y-116510000D03*
D18*
X112660000Y-111130000D03*
X108170000Y-102920000D03*
X107000000Y-104280000D03*
X109360000Y-103810000D03*
X102090000Y-105790000D03*
X102120000Y-104170000D03*
X105220000Y-105590000D03*
X105470000Y-107240000D03*
X102380000Y-108670000D03*
X102350000Y-110420000D03*
D17*
X106100000Y-110830000D03*
D18*
X110150000Y-106000000D03*
D17*
X124100000Y-112570000D03*
D18*
X117660000Y-112130000D03*
D17*
X119560000Y-116680000D03*
X126900000Y-98440000D03*
X114160000Y-113800000D03*
X112780000Y-124610000D03*
X118910000Y-122430000D03*
D18*
X122660000Y-104130000D03*
X115660000Y-102130000D03*
X116660000Y-102130000D03*
X117660000Y-102130000D03*
X118660000Y-102130000D03*
X119660000Y-102130000D03*
X120660000Y-102130000D03*
X121660000Y-102130000D03*
D17*
X115500000Y-95700000D03*
X116400000Y-95700000D03*
X117300000Y-95700000D03*
X118200000Y-95700000D03*
X119100000Y-95700000D03*
X120000000Y-95700000D03*
X120900000Y-95700000D03*
X121800000Y-95700000D03*
D18*
X112660000Y-109130000D03*
X102390000Y-109790000D03*
X111360000Y-108630000D03*
X102390000Y-109190000D03*
X111410000Y-104630000D03*
X110282133Y-104712133D03*
X112660000Y-104130000D03*
X109857867Y-104287867D03*
X112660000Y-108130000D03*
X102114792Y-105290000D03*
X111390000Y-107630000D03*
X102114792Y-104690000D03*
X111390000Y-105630000D03*
X107367867Y-103812133D03*
X112660000Y-105130000D03*
X107792133Y-103387867D03*
X112660000Y-107130000D03*
X105200000Y-106790000D03*
X111390000Y-106630000D03*
X105200000Y-106190000D03*
D17*
X101480000Y-94860000D03*
X99690000Y-113240000D03*
X116840000Y-125870000D03*
X101450000Y-123140000D03*
D18*
X112660000Y-102130000D03*
D17*
X103120000Y-91520000D03*
D18*
X114660000Y-102130000D03*
X113660000Y-102130000D03*
X113660000Y-103130000D03*
D17*
X126390000Y-122370000D03*
X113400000Y-120000000D03*
D18*
X115660000Y-112130000D03*
D17*
X112090000Y-119370000D03*
X108660000Y-119730000D03*
X116160000Y-116605000D03*
X110790000Y-111120000D03*
D18*
X113660000Y-111130000D03*
D17*
X99760344Y-111419943D03*
X99750000Y-110520000D03*
D19*
X111430000Y-86350000D02*
X111430000Y-87430000D01*
X111660000Y-87660000D02*
X111430000Y-87430000D01*
X115127500Y-87660000D02*
X111660000Y-87660000D01*
X111430000Y-87430000D02*
X111430000Y-88890000D01*
D20*
X114660000Y-109130000D02*
X115660000Y-109130000D01*
X115660000Y-110130000D02*
X116660000Y-110130000D01*
X117660000Y-110130000D02*
X118660000Y-110130000D01*
X119660000Y-110130000D02*
X120660000Y-110130000D01*
X120660000Y-112130000D02*
X119660000Y-112130000D01*
X120660000Y-109130000D02*
X119660000Y-109130000D01*
X118660000Y-109130000D02*
X117660000Y-109130000D01*
X116660000Y-109130000D02*
X116660000Y-108130000D01*
X115660000Y-108130000D02*
X114660000Y-108130000D01*
X114660000Y-107130000D02*
X115660000Y-107130000D01*
X116660000Y-107130000D02*
X117660000Y-107130000D01*
X120660000Y-108130000D02*
X119660000Y-108130000D01*
X118660000Y-108130000D02*
X117660000Y-108130000D01*
X120660000Y-107130000D02*
X119660000Y-107130000D01*
X120660000Y-106130000D02*
X119660000Y-106130000D01*
X118660000Y-107130000D02*
X118660000Y-106130000D01*
X120660000Y-104130000D02*
X119660000Y-104130000D01*
X120660000Y-105130000D02*
X119660000Y-105130000D01*
X118660000Y-104130000D02*
X118660000Y-105130000D01*
X117660000Y-104130000D02*
X117660000Y-105130000D01*
X116660000Y-104130000D02*
X116660000Y-105130000D01*
X117660000Y-106130000D02*
X116660000Y-106130000D01*
X115660000Y-106130000D02*
X114660000Y-106130000D01*
X114660000Y-105130000D02*
X115660000Y-105130000D01*
X115660000Y-104130000D02*
X115660000Y-105130000D01*
X122480000Y-112130000D02*
X122980000Y-112630000D01*
X121660000Y-112130000D02*
X122480000Y-112130000D01*
X109890000Y-117200000D02*
X109890000Y-116510000D01*
X112660000Y-111130000D02*
X112485001Y-111304999D01*
D21*
X108370000Y-102790000D02*
X108580000Y-102580000D01*
X108580000Y-102580000D02*
X109030000Y-102580000D01*
X106830000Y-104550000D02*
X107040000Y-104760000D01*
X108370000Y-102790000D02*
X109010000Y-102790000D01*
X109010000Y-102790000D02*
X109310000Y-103090000D01*
X109310000Y-103090000D02*
X109310000Y-103670000D01*
X105270000Y-105430000D02*
X105300000Y-105460000D01*
X105300000Y-105460000D02*
X105540000Y-105460000D01*
X102350000Y-110420000D02*
X102420000Y-110490000D01*
D20*
X106100000Y-110830000D02*
X105800000Y-111130000D01*
X122660000Y-104130000D02*
X123570000Y-104130000D01*
X123570000Y-104130000D02*
X124300000Y-103400000D01*
X124300000Y-103400000D02*
X124300000Y-101200000D01*
X124300000Y-101200000D02*
X125600000Y-99900000D01*
X127400000Y-99900000D02*
X134700000Y-92600000D01*
X125600000Y-99900000D02*
X127400000Y-99900000D01*
X115660000Y-100830000D02*
X115660000Y-102130000D01*
X116660000Y-102130000D02*
X116660000Y-100830000D01*
X116660000Y-100830000D02*
X115660000Y-100830000D01*
X117660000Y-102130000D02*
X117660000Y-100790000D01*
X117620000Y-100830000D02*
X116660000Y-100830000D01*
X117660000Y-100790000D02*
X117620000Y-100830000D01*
X118660000Y-102130000D02*
X118660000Y-100820000D01*
X118630000Y-100790000D02*
X117660000Y-100790000D01*
X118660000Y-100820000D02*
X118630000Y-100790000D01*
X120660000Y-102130000D02*
X120660000Y-100950000D01*
X120660000Y-100950000D02*
X120530000Y-100820000D01*
X119660000Y-100850000D02*
X119630000Y-100820000D01*
X119660000Y-102130000D02*
X119660000Y-100850000D01*
X120530000Y-100820000D02*
X119630000Y-100820000D01*
X119630000Y-100820000D02*
X118660000Y-100820000D01*
X121660000Y-102130000D02*
X121660000Y-100860000D01*
X121570000Y-100950000D02*
X120660000Y-100950000D01*
X121660000Y-100860000D02*
X121570000Y-100950000D01*
X115400000Y-95700000D02*
X116400000Y-95700000D01*
X117300000Y-95700000D02*
X118300000Y-95700000D01*
X119200000Y-95700000D02*
X120200000Y-95700000D01*
D22*
X103486800Y-109715000D02*
X102465000Y-109715000D01*
X105123200Y-110525000D02*
X104296800Y-110525000D01*
X105863200Y-109785000D02*
X105123200Y-110525000D01*
X109501934Y-110287793D02*
X109499022Y-110288812D01*
X109460631Y-110459127D02*
X109446574Y-110473184D01*
X109492588Y-110295246D02*
X109491569Y-110298158D01*
X109505000Y-110287448D02*
X109501934Y-110287793D01*
X109880513Y-110287793D02*
X109877448Y-110287448D01*
X109130257Y-110483761D02*
X109113425Y-110473184D01*
X109496410Y-110290453D02*
X109494229Y-110292634D01*
X109480000Y-110403776D02*
X109477774Y-110423531D01*
X109883425Y-110288812D02*
X109880513Y-110287793D01*
X106266800Y-109785000D02*
X105863200Y-109785000D01*
X109905000Y-110315000D02*
X109901934Y-110314654D01*
X109168776Y-110492552D02*
X109149021Y-110490327D01*
X109010978Y-110317226D02*
X108991224Y-110315000D01*
X109886037Y-110290453D02*
X109883425Y-110288812D01*
X108991224Y-110315000D02*
X106796800Y-110315000D01*
X110493199Y-110315000D02*
X109905000Y-110315000D01*
X109888218Y-110292634D02*
X109886037Y-110290453D01*
X109077774Y-110384022D02*
X109071208Y-110365258D01*
X109899022Y-110313635D02*
X109896410Y-110311994D01*
X109896410Y-110311994D02*
X109894229Y-110309813D01*
X109889859Y-110295246D02*
X109888218Y-110292634D01*
X112660000Y-109130000D02*
X111678199Y-109130000D01*
X109391224Y-110492552D02*
X109168776Y-110492552D01*
X109877448Y-110287448D02*
X109505000Y-110287448D01*
X102465000Y-109715000D02*
X102390000Y-109790000D01*
X109901934Y-110314654D02*
X109899022Y-110313635D01*
X109149021Y-110490327D02*
X109130257Y-110483761D01*
X109494229Y-110292634D02*
X109492588Y-110295246D01*
X109029742Y-110323792D02*
X109010978Y-110317226D01*
X109891569Y-110304289D02*
X109890878Y-110298158D01*
X106796800Y-110315000D02*
X106266800Y-109785000D01*
X109892588Y-110307201D02*
X109891569Y-110304289D01*
X109099368Y-110459127D02*
X109088791Y-110442295D01*
X109499022Y-110288812D02*
X109496410Y-110290453D01*
X111678199Y-109130000D02*
X110493199Y-110315000D01*
X109471208Y-110442295D02*
X109460631Y-110459127D01*
X109894229Y-110309813D02*
X109892588Y-110307201D01*
X109082225Y-110423531D02*
X109077774Y-110384022D01*
X109890878Y-110298158D02*
X109889859Y-110295246D01*
X109491569Y-110298158D02*
X109491224Y-110301224D01*
X109491224Y-110301224D02*
X109491224Y-110315000D01*
X109491224Y-110315000D02*
X109480000Y-110315000D01*
X109480000Y-110315000D02*
X109480000Y-110403776D01*
X109429742Y-110483761D02*
X109410978Y-110490327D01*
X104296800Y-110525000D02*
X103486800Y-109715000D01*
X109446574Y-110473184D02*
X109429742Y-110483761D01*
X109410978Y-110490327D02*
X109391224Y-110492552D01*
X109113425Y-110473184D02*
X109099368Y-110459127D01*
X109088791Y-110442295D02*
X109082225Y-110423531D01*
X109071208Y-110365258D02*
X109060631Y-110348426D01*
X109477774Y-110423531D02*
X109471208Y-110442295D01*
X109060631Y-110348426D02*
X109046574Y-110334369D01*
X109046574Y-110334369D02*
X109029742Y-110323792D01*
X111360000Y-108811801D02*
X111360000Y-108630000D01*
X110306801Y-109865000D02*
X111360000Y-108811801D01*
X109839907Y-109865000D02*
X110306801Y-109865000D01*
X109819900Y-109862746D02*
X109839907Y-109865000D01*
X109783850Y-109845386D02*
X109800897Y-109856097D01*
X109769614Y-109831150D02*
X109783850Y-109845386D01*
X109758903Y-109814103D02*
X109769614Y-109831150D01*
X109752254Y-109795100D02*
X109758903Y-109814103D01*
X109747745Y-109755086D02*
X109752254Y-109795100D01*
X109741096Y-109736083D02*
X109747745Y-109755086D01*
X109730385Y-109719036D02*
X109741096Y-109736083D01*
X109716149Y-109704800D02*
X109730385Y-109719036D01*
X109699102Y-109694089D02*
X109716149Y-109704800D01*
X109680099Y-109687440D02*
X109699102Y-109694089D01*
X109660093Y-109685185D02*
X109680099Y-109687440D01*
X109419900Y-109687440D02*
X109439907Y-109685185D01*
X109383850Y-109704800D02*
X109400897Y-109694089D01*
X109358903Y-109736083D02*
X109369614Y-109719036D01*
X109352254Y-109755086D02*
X109358903Y-109736083D01*
X108141096Y-109736083D02*
X108147745Y-109755086D01*
X107839907Y-109685185D02*
X108060093Y-109685185D01*
X107769614Y-109719036D02*
X107783850Y-109704800D01*
X108639907Y-109685185D02*
X108860093Y-109685185D01*
X109369614Y-109719036D02*
X109383850Y-109704800D01*
X107750000Y-109775092D02*
X107752254Y-109755086D01*
X108569614Y-109719036D02*
X108583850Y-109704800D01*
X107750000Y-109865000D02*
X107750000Y-109775092D01*
X108116149Y-109704800D02*
X108130385Y-109719036D01*
X109350000Y-109775092D02*
X109352254Y-109755086D01*
X108130385Y-109719036D02*
X108141096Y-109736083D01*
X107739907Y-109865000D02*
X107750000Y-109865000D01*
X108080099Y-109687440D02*
X108099102Y-109694089D01*
X107739907Y-109929907D02*
X107739907Y-109865000D01*
X108099102Y-109694089D02*
X108116149Y-109704800D01*
X107800897Y-109694089D02*
X107819900Y-109687440D01*
X107733479Y-109958070D02*
X107738279Y-109944351D01*
X108060093Y-109685185D02*
X108080099Y-109687440D01*
X109439907Y-109685185D02*
X109660093Y-109685185D01*
X107725746Y-109970376D02*
X107733479Y-109958070D01*
X107752254Y-109755086D02*
X107758903Y-109736083D01*
X108916149Y-109704800D02*
X108930385Y-109719036D01*
X107783850Y-109704800D02*
X107800897Y-109694089D01*
X107819900Y-109687440D02*
X107839907Y-109685185D01*
X107738279Y-109944351D02*
X107739907Y-109929907D01*
X107354067Y-109970376D02*
X107364345Y-109980654D01*
X108550000Y-109775092D02*
X108552254Y-109755086D01*
X105676800Y-109335000D02*
X106453200Y-109335000D01*
X109335839Y-109970376D02*
X109343572Y-109958070D01*
X102465000Y-109265000D02*
X103673200Y-109265000D01*
X109800897Y-109856097D02*
X109819900Y-109862746D01*
X107390370Y-109993187D02*
X107404814Y-109994815D01*
X108951627Y-109944351D02*
X108956427Y-109958070D01*
X102390000Y-109190000D02*
X102465000Y-109265000D01*
X109348372Y-109944351D02*
X109350000Y-109929908D01*
X107333479Y-109901744D02*
X107338279Y-109915463D01*
X108583850Y-109704800D02*
X108600897Y-109694089D01*
X109400897Y-109694089D02*
X109419900Y-109687440D01*
X107715468Y-109980654D02*
X107725746Y-109970376D01*
X108485093Y-109994815D02*
X108499536Y-109993187D01*
X107289443Y-109866627D02*
X107303162Y-109871427D01*
X108151627Y-109944351D02*
X108156427Y-109958070D01*
X108147745Y-109755086D02*
X108150000Y-109775092D01*
X108950000Y-109929908D02*
X108951627Y-109944351D01*
X104936800Y-110075000D02*
X105676800Y-109335000D01*
X107315468Y-109879160D02*
X107325746Y-109889438D01*
X108525561Y-109980654D02*
X108535839Y-109970376D01*
X108941096Y-109736083D02*
X108947745Y-109755086D01*
X107364345Y-109980654D02*
X107376651Y-109988387D01*
X108543572Y-109958070D02*
X108548372Y-109944351D01*
X106453200Y-109335000D02*
X106983200Y-109865000D01*
X108947745Y-109755086D02*
X108950000Y-109775092D01*
X109000463Y-109993187D02*
X109014907Y-109994815D01*
X107376651Y-109988387D02*
X107390370Y-109993187D01*
X109285093Y-109994815D02*
X109299536Y-109993187D01*
X107325746Y-109889438D02*
X107333479Y-109901744D01*
X108930385Y-109719036D02*
X108941096Y-109736083D01*
X107404814Y-109994815D02*
X107675000Y-109994815D01*
X108150000Y-109775092D02*
X108150000Y-109929908D01*
X107758903Y-109736083D02*
X107769614Y-109719036D01*
X106983200Y-109865000D02*
X107275000Y-109865000D01*
X109313255Y-109988387D02*
X109325561Y-109980654D01*
X107675000Y-109994815D02*
X107689443Y-109993187D01*
X108550000Y-109929908D02*
X108550000Y-109775092D01*
X108150000Y-109929908D02*
X108151627Y-109944351D01*
X108156427Y-109958070D02*
X108164160Y-109970376D01*
X108164160Y-109970376D02*
X108174438Y-109980654D01*
X108174438Y-109980654D02*
X108186744Y-109988387D01*
X108186744Y-109988387D02*
X108200463Y-109993187D01*
X108200463Y-109993187D02*
X108214907Y-109994815D01*
X108214907Y-109994815D02*
X108485093Y-109994815D01*
X107275000Y-109865000D02*
X107289443Y-109866627D01*
X108600897Y-109694089D02*
X108619900Y-109687440D01*
X108499536Y-109993187D02*
X108513255Y-109988387D01*
X109014907Y-109994815D02*
X109285093Y-109994815D01*
X108513255Y-109988387D02*
X108525561Y-109980654D01*
X107341534Y-109944351D02*
X107346334Y-109958070D01*
X108880099Y-109687440D02*
X108899102Y-109694089D01*
X108535839Y-109970376D02*
X108543572Y-109958070D01*
X108548372Y-109944351D02*
X108550000Y-109929908D01*
X107346334Y-109958070D02*
X107354067Y-109970376D01*
X108552254Y-109755086D02*
X108558903Y-109736083D01*
X108558903Y-109736083D02*
X108569614Y-109719036D01*
X108619900Y-109687440D02*
X108639907Y-109685185D01*
X104483200Y-110075000D02*
X104936800Y-110075000D01*
X108860093Y-109685185D02*
X108880099Y-109687440D01*
X108899102Y-109694089D02*
X108916149Y-109704800D01*
X108950000Y-109775092D02*
X108950000Y-109929908D01*
X108956427Y-109958070D02*
X108964160Y-109970376D01*
X103673200Y-109265000D02*
X104483200Y-110075000D01*
X108964160Y-109970376D02*
X108974438Y-109980654D01*
X108974438Y-109980654D02*
X108986744Y-109988387D01*
X107303162Y-109871427D02*
X107315468Y-109879160D01*
X108986744Y-109988387D02*
X109000463Y-109993187D01*
X107689443Y-109993187D02*
X107703162Y-109988387D01*
X109299536Y-109993187D02*
X109313255Y-109988387D01*
X109325561Y-109980654D02*
X109335839Y-109970376D01*
X107338279Y-109915463D02*
X107341534Y-109944351D01*
X109343572Y-109958070D02*
X109348372Y-109944351D01*
X107703162Y-109988387D02*
X107715468Y-109980654D01*
X109350000Y-109929908D02*
X109350000Y-109775092D01*
X110282133Y-104606066D02*
X110282133Y-104712133D01*
X111410000Y-104630000D02*
X111360000Y-104580000D01*
X110308199Y-104580000D02*
X110282133Y-104606066D01*
X111360000Y-104580000D02*
X110308199Y-104580000D01*
X109963934Y-104287867D02*
X109857867Y-104287867D01*
X110121801Y-104130000D02*
X109963934Y-104287867D01*
X110121801Y-104130000D02*
X110121801Y-104128199D01*
X110121801Y-104128199D02*
X110240000Y-104010000D01*
X110240000Y-104010000D02*
X110620000Y-104010000D01*
X110740000Y-104130000D02*
X112660000Y-104130000D01*
X110620000Y-104010000D02*
X110740000Y-104130000D01*
X107441801Y-108130000D02*
X112660000Y-108130000D01*
X105121800Y-108130000D02*
X107441801Y-108130000D01*
X104328260Y-107336460D02*
X105121800Y-108130000D01*
X104319183Y-107325079D02*
X104328260Y-107336460D01*
X103835370Y-107085543D02*
X103855020Y-107090028D01*
X103667211Y-106747471D02*
X103658466Y-106765631D01*
X103624588Y-106874760D02*
X103633333Y-106892920D01*
X104125970Y-106952607D02*
X104137351Y-106961684D01*
X104346891Y-107205838D02*
X104343653Y-107220031D01*
X103894825Y-107085543D02*
X103912984Y-107076798D01*
X103928742Y-107064231D02*
X103992386Y-107000586D01*
X103658466Y-106669857D02*
X103667211Y-106688017D01*
X103817211Y-107076798D02*
X103835370Y-107085543D01*
X103645900Y-106654100D02*
X103658466Y-106669857D01*
X103855020Y-107090028D02*
X103875175Y-107090028D01*
X104137351Y-106961684D02*
X104328259Y-107152592D01*
X103801453Y-107064231D02*
X103817211Y-107076798D01*
X104309627Y-107283214D02*
X104309628Y-107297772D01*
X103671696Y-106727822D02*
X103667211Y-106747471D01*
X104346892Y-107191282D02*
X104346891Y-107205838D01*
X102206800Y-105215000D02*
X103645900Y-106654100D01*
X102114792Y-105290000D02*
X102189792Y-105215000D01*
X103875175Y-107090028D02*
X103894825Y-107085543D01*
X102189792Y-105215000D02*
X102206800Y-105215000D01*
X104112856Y-106946292D02*
X104125970Y-106952607D01*
X104343652Y-107177089D02*
X104346892Y-107191282D01*
X103633333Y-106892920D02*
X103645900Y-106908678D01*
X103671696Y-106707666D02*
X103671696Y-106727822D01*
X103624588Y-106815306D02*
X103620103Y-106834955D01*
X104337336Y-107233145D02*
X104319182Y-107255907D01*
X103620103Y-106834955D02*
X103620103Y-106855111D01*
X104337337Y-107163975D02*
X104343652Y-107177089D01*
X103633333Y-106797146D02*
X103624588Y-106815306D01*
X103667211Y-106688017D02*
X103671696Y-106707666D01*
X104319182Y-107255907D02*
X104312867Y-107269023D01*
X103912984Y-107076798D02*
X103928742Y-107064231D01*
X103992386Y-107000586D02*
X103999452Y-107007652D01*
X103658466Y-106765631D02*
X103633333Y-106797146D01*
X104312867Y-107269023D02*
X104309627Y-107283214D01*
X103999452Y-107007652D02*
X104045419Y-106961686D01*
X104045419Y-106961686D02*
X104056798Y-106952607D01*
X104069914Y-106946291D02*
X104084107Y-106943053D01*
X103645900Y-106908678D02*
X103801453Y-107064231D01*
X104309628Y-107297772D02*
X104312866Y-107311963D01*
X104056798Y-106952607D02*
X104069914Y-106946291D01*
X104098663Y-106943052D02*
X104112856Y-106946292D01*
X104084107Y-106943053D02*
X104098663Y-106943052D01*
X104328259Y-107152592D02*
X104337337Y-107163975D01*
X103620103Y-106855111D02*
X103624588Y-106874760D01*
X104343653Y-107220031D02*
X104337336Y-107233145D01*
X104312866Y-107311963D02*
X104319183Y-107325079D01*
X104300926Y-106669179D02*
X104314888Y-106686687D01*
X104291211Y-106649005D02*
X104300926Y-106669179D01*
X104286228Y-106627174D02*
X104291211Y-106649005D01*
X104291211Y-106582949D02*
X104286227Y-106604780D01*
X104300926Y-106562773D02*
X104291211Y-106582949D01*
X104328850Y-106527759D02*
X104314889Y-106545267D01*
X104338566Y-106507583D02*
X104328850Y-106527759D01*
X104343549Y-106485753D02*
X104338566Y-106507583D01*
X104328851Y-106421353D02*
X104338567Y-106441529D01*
X104314888Y-106403845D02*
X104328851Y-106421353D01*
X103042022Y-105615450D02*
X103049309Y-105630582D01*
X103038285Y-105599077D02*
X103042022Y-105615450D01*
X103049309Y-105550777D02*
X103042022Y-105565909D01*
X103059780Y-105537647D02*
X103049309Y-105550777D01*
X103570104Y-105673066D02*
X103590278Y-105682781D01*
X103183527Y-105413905D02*
X103059780Y-105537647D01*
X103197488Y-105396397D02*
X103183527Y-105413905D01*
X103207205Y-105310167D02*
X103212186Y-105331997D01*
X103038285Y-105582282D02*
X103038285Y-105599077D01*
X103183526Y-105272483D02*
X103197489Y-105289991D01*
X104338567Y-106441529D02*
X104343548Y-106463359D01*
X103880041Y-106403928D02*
X103895173Y-106396642D01*
X102982590Y-105102401D02*
X103004423Y-105107385D01*
X103042022Y-105565909D02*
X103038285Y-105582282D01*
X104343548Y-106463359D02*
X104343549Y-106485753D01*
X102715512Y-105276304D02*
X102732307Y-105276304D01*
X102918191Y-105117100D02*
X102938367Y-105107385D01*
X103212187Y-105354391D02*
X103207204Y-105376221D01*
X102515595Y-104927330D02*
X102511858Y-104943703D01*
X102900685Y-105131064D02*
X102918191Y-105117100D01*
X102763812Y-105265280D02*
X102776942Y-105254808D01*
X103603966Y-106164758D02*
X103607703Y-106181131D01*
X104135785Y-106238747D02*
X104155959Y-106248462D01*
X102483628Y-104985096D02*
X102476341Y-105000228D01*
X103625461Y-106103328D02*
X103614990Y-106116458D01*
X102776942Y-105254808D02*
X102900685Y-105131064D01*
X102504571Y-104879030D02*
X102511858Y-104894162D01*
X105308200Y-107680000D02*
X111340000Y-107680000D01*
X102515595Y-104910535D02*
X102515595Y-104927330D01*
X103042105Y-105131062D02*
X103183526Y-105272483D01*
X102189792Y-104765000D02*
X102393200Y-104765000D01*
X103297987Y-105841985D02*
X103314360Y-105838247D01*
X103212186Y-105331997D02*
X103212187Y-105354391D01*
X102511858Y-104943703D02*
X102504571Y-104958835D01*
X102114792Y-104690000D02*
X102189792Y-104765000D01*
X102699138Y-105272566D02*
X102715512Y-105276304D01*
X103749207Y-105838164D02*
X103763170Y-105855672D01*
X102393200Y-104765000D02*
X102494100Y-104865900D01*
X103004423Y-105107385D02*
X103024597Y-105117100D01*
X111340000Y-107680000D02*
X111390000Y-107630000D01*
X103772886Y-105875848D02*
X103777867Y-105897678D01*
X102504571Y-104958835D02*
X102483628Y-104985096D01*
X102494100Y-104865900D02*
X102504571Y-104879030D01*
X103049309Y-105630582D02*
X103059780Y-105643713D01*
X102938367Y-105107385D02*
X102960198Y-105102402D01*
X103772885Y-105941902D02*
X103763169Y-105962078D01*
X103895173Y-106396642D02*
X103908303Y-106386170D01*
X102476341Y-105000228D02*
X102472604Y-105016601D01*
X103236556Y-105820489D02*
X103249687Y-105830961D01*
X102472604Y-105016601D02*
X102472604Y-105033396D01*
X103777867Y-105897678D02*
X103777868Y-105920072D01*
X102960198Y-105102402D02*
X102982590Y-105102401D01*
X103525879Y-105668083D02*
X103548271Y-105668082D01*
X102472604Y-105033396D02*
X102476341Y-105049769D01*
X103863668Y-106407666D02*
X103880041Y-106403928D01*
X102476341Y-105049769D02*
X102483628Y-105064901D01*
X102483628Y-105064901D02*
X102494100Y-105078032D01*
X103763170Y-105855672D02*
X103772886Y-105875848D01*
X102494100Y-105078032D02*
X102670876Y-105254808D01*
X103763169Y-105962078D02*
X103749208Y-105979586D01*
X103024597Y-105117100D02*
X103042105Y-105131062D01*
X102670876Y-105254808D02*
X102684007Y-105265280D01*
X103207204Y-105376221D02*
X103197488Y-105396397D01*
X103607703Y-106131590D02*
X103603966Y-106147963D01*
X103197489Y-105289991D02*
X103207205Y-105310167D01*
X104113952Y-106233763D02*
X104135785Y-106238747D01*
X102748680Y-105272566D02*
X102763812Y-105265280D01*
X102684007Y-105265280D02*
X102699138Y-105272566D01*
X103846873Y-106407666D02*
X103863668Y-106407666D01*
X102732307Y-105276304D02*
X102748680Y-105272566D01*
X103059780Y-105643713D02*
X103236556Y-105820489D01*
X103249687Y-105830961D02*
X103264818Y-105838247D01*
X103264818Y-105838247D02*
X103281192Y-105841985D01*
X103281192Y-105841985D02*
X103297987Y-105841985D01*
X103314360Y-105838247D02*
X103329492Y-105830961D01*
X103329492Y-105830961D02*
X103342622Y-105820489D01*
X103342622Y-105820489D02*
X103466366Y-105696745D01*
X104091560Y-106233764D02*
X104113952Y-106233763D01*
X103548271Y-105668082D02*
X103570104Y-105673066D01*
X103466366Y-105696745D02*
X103483872Y-105682781D01*
X103483872Y-105682781D02*
X103504048Y-105673066D01*
X102511858Y-104894162D02*
X102515595Y-104910535D01*
X104155959Y-106248462D02*
X104173467Y-106262424D01*
X103504048Y-105673066D02*
X103525879Y-105668083D01*
X104032047Y-106262426D02*
X104049553Y-106248462D01*
X103590278Y-105682781D02*
X103607786Y-105696743D01*
X103607786Y-105696743D02*
X103749207Y-105838164D01*
X103777868Y-105920072D02*
X103772885Y-105941902D01*
X103749208Y-105979586D02*
X103625461Y-106103328D01*
X103614990Y-106116458D02*
X103607703Y-106131590D01*
X103603966Y-106147963D02*
X103603966Y-106164758D01*
X103607703Y-106181131D02*
X103614990Y-106196263D01*
X104314889Y-106545267D02*
X104300926Y-106562773D01*
X103614990Y-106196263D02*
X103625461Y-106209394D01*
X103625461Y-106209394D02*
X103802237Y-106386170D01*
X104286227Y-106604780D02*
X104286228Y-106627174D01*
X103802237Y-106386170D02*
X103815368Y-106396642D01*
X103815368Y-106396642D02*
X103830499Y-106403928D01*
X103830499Y-106403928D02*
X103846873Y-106407666D01*
X103908303Y-106386170D02*
X104032047Y-106262426D01*
X104049553Y-106248462D02*
X104069729Y-106238747D01*
X104069729Y-106238747D02*
X104091560Y-106233764D01*
X104173467Y-106262424D02*
X104314888Y-106403845D01*
X104314888Y-106686687D02*
X105308200Y-107680000D01*
X107473934Y-103812133D02*
X107367867Y-103812133D01*
X109241801Y-105580000D02*
X107473934Y-103812133D01*
X111340000Y-105580000D02*
X109241801Y-105580000D01*
X111390000Y-105630000D02*
X111340000Y-105580000D01*
X109428199Y-105130000D02*
X107792133Y-103493934D01*
X112660000Y-105130000D02*
X109428199Y-105130000D01*
X107792133Y-103493934D02*
X107792133Y-103387867D01*
X112660000Y-107130000D02*
X110241800Y-107130000D01*
X105200000Y-106790000D02*
X105275000Y-106715000D01*
X105275000Y-106715000D02*
X105516800Y-106715000D01*
X105931800Y-107130000D02*
X110241800Y-107130000D01*
X105516800Y-106715000D02*
X105931800Y-107130000D01*
X111340000Y-106680000D02*
X111390000Y-106630000D01*
X107625000Y-106746901D02*
X107626677Y-106761787D01*
X107625000Y-106588099D02*
X107625000Y-106746901D01*
X108045049Y-106530801D02*
X108059601Y-106516249D01*
X107622695Y-106567650D02*
X107625000Y-106588099D01*
X107999811Y-106799205D02*
X108010404Y-106788612D01*
X108027304Y-106567650D02*
X108034100Y-106548226D01*
X107604950Y-106530801D02*
X107615899Y-106548226D01*
X107639595Y-106788612D02*
X107650188Y-106799205D01*
X108839595Y-106705188D02*
X108850188Y-106694595D01*
X107590398Y-106516249D02*
X107604950Y-106530801D01*
X108023322Y-106761787D02*
X108025000Y-106746901D01*
X108826677Y-106732013D02*
X108831625Y-106717873D01*
X108426677Y-106761787D02*
X108431625Y-106775927D01*
X107626677Y-106761787D02*
X107631625Y-106775927D01*
X107277026Y-106505300D02*
X107296450Y-106498504D01*
X107245049Y-106530801D02*
X107259601Y-106516249D01*
X107225000Y-106588099D02*
X107227304Y-106567650D01*
X107215222Y-106761787D02*
X107216900Y-106746900D01*
X107972986Y-106812123D02*
X107987126Y-106807175D01*
X108422695Y-106567650D02*
X108425000Y-106588099D01*
X107216900Y-106746900D02*
X107216900Y-106680000D01*
X106815222Y-106732013D02*
X106818577Y-106761787D01*
X108333100Y-106496199D02*
X108353549Y-106498504D01*
X107210274Y-106775927D02*
X107215222Y-106761787D01*
X107615899Y-106548226D02*
X107622695Y-106567650D01*
X108877013Y-106681677D02*
X108891900Y-106680000D01*
X107191711Y-106799205D02*
X107202304Y-106788612D01*
X107533100Y-106496199D02*
X107553549Y-106498504D01*
X107316900Y-106496199D02*
X107533100Y-106496199D01*
X108850188Y-106694595D02*
X108862873Y-106686625D01*
X106791711Y-106694595D02*
X106802304Y-106705188D01*
X108425000Y-106588099D02*
X108425000Y-106746901D01*
X108891900Y-106680000D02*
X111340000Y-106680000D01*
X106779026Y-106686625D02*
X106791711Y-106694595D01*
X108096450Y-106498504D02*
X108116900Y-106496199D01*
X106831495Y-106788612D02*
X106842088Y-106799205D01*
X106764886Y-106681677D02*
X106779026Y-106686625D01*
X106868913Y-106812123D02*
X106883800Y-106813801D01*
X108025000Y-106746901D02*
X108025000Y-106588099D01*
X108025000Y-106588099D02*
X108027304Y-106567650D01*
X105275000Y-106265000D02*
X105703200Y-106265000D01*
X106810274Y-106717873D02*
X106815222Y-106732013D01*
X108450188Y-106799205D02*
X108462873Y-106807175D01*
X106823525Y-106775927D02*
X106831495Y-106788612D01*
X108353549Y-106498504D02*
X108372973Y-106505300D01*
X106842088Y-106799205D02*
X106854773Y-106807175D01*
X107553549Y-106498504D02*
X107572973Y-106505300D01*
X108787126Y-106807175D02*
X108799811Y-106799205D01*
X107227304Y-106567650D02*
X107234100Y-106548226D01*
X105703200Y-106265000D02*
X106118200Y-106680000D01*
X107631625Y-106775927D02*
X107639595Y-106788612D01*
X107202304Y-106788612D02*
X107210274Y-106775927D01*
X108390398Y-106516249D02*
X108404950Y-106530801D01*
X107216900Y-106680000D02*
X107225000Y-106680000D01*
X107225000Y-106680000D02*
X107225000Y-106588099D01*
X108862873Y-106686625D02*
X108877013Y-106681677D01*
X106883800Y-106813801D02*
X107150000Y-106813801D01*
X107296450Y-106498504D02*
X107316900Y-106496199D01*
X108477013Y-106812123D02*
X108491900Y-106813801D01*
X106818577Y-106761787D02*
X106823525Y-106775927D01*
X107234100Y-106548226D02*
X107245049Y-106530801D01*
X107650188Y-106799205D02*
X107662873Y-106807175D01*
X106854773Y-106807175D02*
X106868913Y-106812123D01*
X108810404Y-106788612D02*
X108818374Y-106775927D01*
X106750000Y-106680000D02*
X106764886Y-106681677D01*
X108818374Y-106775927D02*
X108823322Y-106761787D01*
X107150000Y-106813801D02*
X107164886Y-106812123D01*
X107164886Y-106812123D02*
X107179026Y-106807175D01*
X108404950Y-106530801D02*
X108415899Y-106548226D01*
X107179026Y-106807175D02*
X107191711Y-106799205D01*
X107662873Y-106807175D02*
X107677013Y-106812123D01*
X107677013Y-106812123D02*
X107691900Y-106813801D01*
X107691900Y-106813801D02*
X107958100Y-106813801D01*
X107572973Y-106505300D02*
X107590398Y-106516249D01*
X107958100Y-106813801D02*
X107972986Y-106812123D01*
X107987126Y-106807175D02*
X107999811Y-106799205D01*
X108010404Y-106788612D02*
X108018374Y-106775927D01*
X108018374Y-106775927D02*
X108023322Y-106761787D01*
X108034100Y-106548226D02*
X108045049Y-106530801D01*
X108059601Y-106516249D02*
X108077026Y-106505300D01*
X105200000Y-106190000D02*
X105275000Y-106265000D01*
X108077026Y-106505300D02*
X108096450Y-106498504D01*
X108116900Y-106496199D02*
X108333100Y-106496199D01*
X108372973Y-106505300D02*
X108390398Y-106516249D01*
X108415899Y-106548226D02*
X108422695Y-106567650D01*
X108425000Y-106746901D02*
X108426677Y-106761787D01*
X108431625Y-106775927D02*
X108439595Y-106788612D01*
X108439595Y-106788612D02*
X108450188Y-106799205D01*
X106118200Y-106680000D02*
X106750000Y-106680000D01*
X108462873Y-106807175D02*
X108477013Y-106812123D01*
X106802304Y-106705188D02*
X106810274Y-106717873D01*
X108491900Y-106813801D02*
X108758100Y-106813801D01*
X108758100Y-106813801D02*
X108772986Y-106812123D01*
X108772986Y-106812123D02*
X108787126Y-106807175D01*
X107259601Y-106516249D02*
X107277026Y-106505300D01*
X108799811Y-106799205D02*
X108810404Y-106788612D01*
X108823322Y-106761787D02*
X108826677Y-106732013D01*
X108831625Y-106717873D02*
X108839595Y-106705188D01*
D20*
X112660000Y-102130000D02*
X112660000Y-97560000D01*
X104090000Y-92490000D02*
X103120000Y-91520000D01*
X107590000Y-92490000D02*
X104090000Y-92490000D01*
X112660000Y-97560000D02*
X107590000Y-92490000D01*
X105680000Y-90820000D02*
X102620000Y-87760000D01*
X114660000Y-102130000D02*
X114660000Y-101630000D01*
X102620000Y-87760000D02*
X101380000Y-87760000D01*
X114190000Y-101160000D02*
X114190000Y-96840000D01*
X101159999Y-87539999D02*
X100310000Y-86690000D01*
X114660000Y-101630000D02*
X114190000Y-101160000D01*
X101380000Y-87760000D02*
X101159999Y-87539999D01*
X114190000Y-96840000D02*
X108170000Y-90820000D01*
X108170000Y-90820000D02*
X105680000Y-90820000D01*
X113660000Y-102130000D02*
X113485001Y-101955001D01*
X113485001Y-101955001D02*
X113460000Y-101930000D01*
X113485001Y-101955001D02*
X113485001Y-97075001D01*
X113485001Y-97075001D02*
X108050000Y-91640000D01*
X103730000Y-90390000D02*
X101470000Y-90390000D01*
X108050000Y-91640000D02*
X104980000Y-91640000D01*
X101470000Y-90390000D02*
X100310000Y-89230000D01*
X104980000Y-91640000D02*
X103730000Y-90390000D01*
X112750000Y-103130000D02*
X113660000Y-103130000D01*
X111730000Y-102110000D02*
X112750000Y-103130000D01*
X111730000Y-97810000D02*
X111730000Y-102110000D01*
X100310000Y-91770000D02*
X100910000Y-92370000D01*
X101770000Y-93230000D02*
X107150000Y-93230000D01*
X100310000Y-91770000D02*
X101770000Y-93230000D01*
X107150000Y-93230000D02*
X111730000Y-97810000D01*
X129880000Y-122370000D02*
X129910000Y-122400000D01*
X126390000Y-122370000D02*
X129880000Y-122370000D01*
X120770000Y-122370000D02*
X126390000Y-122370000D01*
X118400000Y-120000000D02*
X120770000Y-122370000D01*
X113400000Y-120000000D02*
X118400000Y-120000000D01*
X115660000Y-114280000D02*
X115660000Y-112130000D01*
X117090000Y-115710000D02*
X115660000Y-114280000D01*
X117090000Y-117210000D02*
X117090000Y-115710000D01*
X112350000Y-119110000D02*
X113110000Y-119110000D01*
X114680000Y-117540000D02*
X116760000Y-117540000D01*
X116760000Y-117540000D02*
X117090000Y-117210000D01*
X112090000Y-119370000D02*
X112350000Y-119110000D01*
X113110000Y-119110000D02*
X114680000Y-117540000D01*
X112335012Y-118510000D02*
X114240012Y-116605000D01*
X114240012Y-116605000D02*
X116160000Y-116605000D01*
X109880000Y-118510000D02*
X112335012Y-118510000D01*
X108660000Y-119730000D02*
X109880000Y-118510000D01*
X110790000Y-111120000D02*
X111189999Y-110720001D01*
X111189999Y-110720001D02*
X113250001Y-110720001D01*
X113485001Y-110955001D02*
X113660000Y-111130000D01*
X113250001Y-110720001D02*
X113485001Y-110955001D01*
X99760344Y-111419943D02*
X99760057Y-111419943D01*
X99480000Y-111700000D02*
X98130000Y-111700000D01*
X99760057Y-111419943D02*
X99480000Y-111700000D01*
X99750000Y-110520000D02*
X99280000Y-110050000D01*
X98205000Y-110050000D02*
X98130000Y-110125000D01*
X99280000Y-110050000D02*
X98205000Y-110050000D01*
D23*
G36*
X116761928Y-95000000D02*
G01*
X116774188Y-95124482D01*
X116810498Y-95244180D01*
X116869463Y-95354494D01*
X116948815Y-95451185D01*
X117045506Y-95530537D01*
X117155820Y-95589502D01*
X117275518Y-95625812D01*
X117400000Y-95638072D01*
X119400000Y-95638072D01*
X119524482Y-95625812D01*
X119644180Y-95589502D01*
X119754494Y-95530537D01*
X119851185Y-95451185D01*
X119930537Y-95354494D01*
X119989502Y-95244180D01*
X120025812Y-95124482D01*
X120038072Y-95000000D01*
X120038072Y-93827000D01*
X122773000Y-93827000D01*
X122773000Y-101160711D01*
X121533013Y-102973000D01*
X115769998Y-102973000D01*
X115418247Y-102416061D01*
X115438872Y-102366268D01*
X115470000Y-102209778D01*
X115470000Y-102050222D01*
X115438872Y-101893732D01*
X115420000Y-101848171D01*
X115420000Y-101667322D01*
X115423676Y-101629999D01*
X115420000Y-101592676D01*
X115420000Y-101592667D01*
X115409003Y-101481014D01*
X115365546Y-101337753D01*
X115294974Y-101205724D01*
X115200001Y-101089999D01*
X115171002Y-101066200D01*
X114950000Y-100845199D01*
X114950000Y-96877325D01*
X114953676Y-96840000D01*
X114950000Y-96802675D01*
X114950000Y-96802667D01*
X114939003Y-96691014D01*
X114895546Y-96547753D01*
X114824974Y-96415724D01*
X114730001Y-96299999D01*
X114701003Y-96276201D01*
X114627000Y-96202198D01*
X114627000Y-93827000D01*
X116761928Y-93827000D01*
X116761928Y-95000000D01*
G37*
X116761928Y-95000000D02*
X116774188Y-95124482D01*
X116810498Y-95244180D01*
X116869463Y-95354494D01*
X116948815Y-95451185D01*
X117045506Y-95530537D01*
X117155820Y-95589502D01*
X117275518Y-95625812D01*
X117400000Y-95638072D01*
X119400000Y-95638072D01*
X119524482Y-95625812D01*
X119644180Y-95589502D01*
X119754494Y-95530537D01*
X119851185Y-95451185D01*
X119930537Y-95354494D01*
X119989502Y-95244180D01*
X120025812Y-95124482D01*
X120038072Y-95000000D01*
X120038072Y-93827000D01*
X122773000Y-93827000D01*
X122773000Y-101160711D01*
X121533013Y-102973000D01*
X115769998Y-102973000D01*
X115418247Y-102416061D01*
X115438872Y-102366268D01*
X115470000Y-102209778D01*
X115470000Y-102050222D01*
X115438872Y-101893732D01*
X115420000Y-101848171D01*
X115420000Y-101667322D01*
X115423676Y-101629999D01*
X115420000Y-101592676D01*
X115420000Y-101592667D01*
X115409003Y-101481014D01*
X115365546Y-101337753D01*
X115294974Y-101205724D01*
X115200001Y-101089999D01*
X115171002Y-101066200D01*
X114950000Y-100845199D01*
X114950000Y-96877325D01*
X114953676Y-96840000D01*
X114950000Y-96802675D01*
X114950000Y-96802667D01*
X114939003Y-96691014D01*
X114895546Y-96547753D01*
X114824974Y-96415724D01*
X114730001Y-96299999D01*
X114701003Y-96276201D01*
X114627000Y-96202198D01*
X114627000Y-93827000D01*
X116761928Y-93827000D01*
X116761928Y-95000000D01*
G36*
X138290000Y-129290000D02*
G01*
X91710000Y-129290000D01*
X91710000Y-124210000D01*
X104500715Y-124210000D01*
X104500715Y-128030000D01*
X111499286Y-128030000D01*
X111499286Y-127148072D01*
X112880000Y-127148072D01*
X113004482Y-127135812D01*
X113124180Y-127099502D01*
X113234494Y-127040537D01*
X113331185Y-126961185D01*
X113410537Y-126864494D01*
X113469502Y-126754180D01*
X113505812Y-126634482D01*
X113518072Y-126510000D01*
X113518072Y-125768061D01*
X115805000Y-125768061D01*
X115805000Y-125971939D01*
X115844774Y-126171898D01*
X115922795Y-126360256D01*
X116036063Y-126529774D01*
X116180226Y-126673937D01*
X116349744Y-126787205D01*
X116538102Y-126865226D01*
X116738061Y-126905000D01*
X116941939Y-126905000D01*
X117141898Y-126865226D01*
X117330256Y-126787205D01*
X117499774Y-126673937D01*
X117643937Y-126529774D01*
X117757205Y-126360256D01*
X117835226Y-126171898D01*
X117875000Y-125971939D01*
X117875000Y-125768061D01*
X117835226Y-125568102D01*
X117757205Y-125379744D01*
X117643937Y-125210226D01*
X117499774Y-125066063D01*
X117330256Y-124952795D01*
X117141898Y-124874774D01*
X116941939Y-124835000D01*
X116738061Y-124835000D01*
X116538102Y-124874774D01*
X116349744Y-124952795D01*
X116180226Y-125066063D01*
X116036063Y-125210226D01*
X115922795Y-125379744D01*
X115844774Y-125568102D01*
X115805000Y-125768061D01*
X113518072Y-125768061D01*
X113518072Y-125335639D01*
X113583937Y-125269774D01*
X113697205Y-125100256D01*
X113775226Y-124911898D01*
X113815000Y-124711939D01*
X113815000Y-124508061D01*
X113775226Y-124308102D01*
X113697205Y-124119744D01*
X113583937Y-123950226D01*
X113439774Y-123806063D01*
X113270256Y-123692795D01*
X113081898Y-123614774D01*
X112881939Y-123575000D01*
X112678061Y-123575000D01*
X112478102Y-123614774D01*
X112289744Y-123692795D01*
X112120226Y-123806063D01*
X112054361Y-123871928D01*
X110880000Y-123871928D01*
X110755518Y-123884188D01*
X110635820Y-123920498D01*
X110525506Y-123979463D01*
X110428815Y-124058815D01*
X110349463Y-124155506D01*
X110320335Y-124210000D01*
X104500715Y-124210000D01*
X91710000Y-124210000D01*
X91710000Y-123030000D01*
X100416603Y-123030000D01*
X100415000Y-123038061D01*
X100415000Y-123241939D01*
X100454774Y-123441898D01*
X100532795Y-123630256D01*
X100646063Y-123799774D01*
X100790226Y-123943937D01*
X100959744Y-124057205D01*
X101148102Y-124135226D01*
X101348061Y-124175000D01*
X101551939Y-124175000D01*
X101751898Y-124135226D01*
X101940256Y-124057205D01*
X102109774Y-123943937D01*
X102253937Y-123799774D01*
X102367205Y-123630256D01*
X102445226Y-123441898D01*
X102485000Y-123241939D01*
X102485000Y-123038061D01*
X102483397Y-123030000D01*
X102749286Y-123030000D01*
X102749286Y-119210000D01*
X91710000Y-119210000D01*
X91710000Y-115878061D01*
X110205000Y-115878061D01*
X110205000Y-116081939D01*
X110244774Y-116281898D01*
X110322795Y-116470256D01*
X110436063Y-116639774D01*
X110580226Y-116783937D01*
X110749744Y-116897205D01*
X110938102Y-116975226D01*
X111138061Y-117015000D01*
X111341939Y-117015000D01*
X111541898Y-116975226D01*
X111730256Y-116897205D01*
X111899774Y-116783937D01*
X112043937Y-116639774D01*
X112157205Y-116470256D01*
X112235226Y-116281898D01*
X112275000Y-116081939D01*
X112275000Y-115878061D01*
X112235226Y-115678102D01*
X112157205Y-115489744D01*
X112043937Y-115320226D01*
X111899774Y-115176063D01*
X111730256Y-115062795D01*
X111541898Y-114984774D01*
X111341939Y-114945000D01*
X111138061Y-114945000D01*
X110938102Y-114984774D01*
X110749744Y-115062795D01*
X110580226Y-115176063D01*
X110436063Y-115320226D01*
X110322795Y-115489744D01*
X110244774Y-115678102D01*
X110205000Y-115878061D01*
X91710000Y-115878061D01*
X91710000Y-109906250D01*
X97016928Y-109906250D01*
X97016928Y-110343750D01*
X97033392Y-110510908D01*
X97082150Y-110671642D01*
X97161329Y-110819775D01*
X97237426Y-110912500D01*
X97161329Y-111005225D01*
X97082150Y-111153358D01*
X97033392Y-111314092D01*
X97016928Y-111481250D01*
X97016928Y-111918750D01*
X97033392Y-112085908D01*
X97082150Y-112246642D01*
X97161329Y-112394775D01*
X97267885Y-112524615D01*
X97397725Y-112631171D01*
X97545858Y-112710350D01*
X97706592Y-112759108D01*
X97873750Y-112775572D01*
X98386250Y-112775572D01*
X98553408Y-112759108D01*
X98714142Y-112710350D01*
X98846327Y-112639695D01*
X98772795Y-112749744D01*
X98694774Y-112938102D01*
X98655000Y-113138061D01*
X98655000Y-113341939D01*
X98694774Y-113541898D01*
X98772795Y-113730256D01*
X98886063Y-113899774D01*
X99030226Y-114043937D01*
X99199744Y-114157205D01*
X99388102Y-114235226D01*
X99588061Y-114275000D01*
X99791939Y-114275000D01*
X99991898Y-114235226D01*
X100180256Y-114157205D01*
X100349774Y-114043937D01*
X100493937Y-113899774D01*
X100607205Y-113730256D01*
X100685226Y-113541898D01*
X100725000Y-113341939D01*
X100725000Y-113138061D01*
X100685226Y-112938102D01*
X100607205Y-112749744D01*
X100493937Y-112580226D01*
X100349774Y-112436063D01*
X100220436Y-112349642D01*
X100250600Y-112337148D01*
X100420118Y-112223880D01*
X100564281Y-112079717D01*
X100677549Y-111910199D01*
X100755570Y-111721841D01*
X100795344Y-111521882D01*
X100795344Y-111318004D01*
X100755570Y-111118045D01*
X100689064Y-110957485D01*
X100745226Y-110821898D01*
X100785000Y-110621939D01*
X100785000Y-110418061D01*
X100745226Y-110218102D01*
X100667205Y-110029744D01*
X100553937Y-109860226D01*
X100409774Y-109716063D01*
X100240256Y-109602795D01*
X100051898Y-109524774D01*
X99851939Y-109485000D01*
X99789540Y-109485000D01*
X99704276Y-109415026D01*
X99572247Y-109344454D01*
X99428986Y-109300997D01*
X99317333Y-109290000D01*
X99317322Y-109290000D01*
X99280000Y-109286324D01*
X99242678Y-109290000D01*
X98979461Y-109290000D01*
X98862275Y-109193829D01*
X98714142Y-109114650D01*
X98553408Y-109065892D01*
X98386250Y-109049428D01*
X97873750Y-109049428D01*
X97706592Y-109065892D01*
X97545858Y-109114650D01*
X97397725Y-109193829D01*
X97267885Y-109300385D01*
X97161329Y-109430225D01*
X97082150Y-109578358D01*
X97033392Y-109739092D01*
X97016928Y-109906250D01*
X91710000Y-109906250D01*
X91710000Y-99793589D01*
X107075000Y-99793589D01*
X107075000Y-100066411D01*
X107128225Y-100333989D01*
X107232629Y-100586043D01*
X107384201Y-100812886D01*
X107577114Y-101005799D01*
X107803957Y-101157371D01*
X108056011Y-101261775D01*
X108323589Y-101315000D01*
X108596411Y-101315000D01*
X108863989Y-101261775D01*
X109116043Y-101157371D01*
X109342886Y-101005799D01*
X109535799Y-100812886D01*
X109687371Y-100586043D01*
X109791775Y-100333989D01*
X109845000Y-100066411D01*
X109845000Y-99793589D01*
X109791775Y-99526011D01*
X109687371Y-99273957D01*
X109535799Y-99047114D01*
X109342886Y-98854201D01*
X109116043Y-98702629D01*
X108863989Y-98598225D01*
X108596411Y-98545000D01*
X108323589Y-98545000D01*
X108056011Y-98598225D01*
X107803957Y-98702629D01*
X107577114Y-98854201D01*
X107384201Y-99047114D01*
X107232629Y-99273957D01*
X107128225Y-99526011D01*
X107075000Y-99793589D01*
X91710000Y-99793589D01*
X91710000Y-83300000D01*
X98821928Y-83300000D01*
X98821928Y-85000000D01*
X98834188Y-85124482D01*
X98870498Y-85244180D01*
X98929463Y-85354494D01*
X99008815Y-85451185D01*
X99105506Y-85530537D01*
X99215820Y-85589502D01*
X99288380Y-85611513D01*
X99156525Y-85743368D01*
X98994010Y-85986589D01*
X98882068Y-86256842D01*
X98825000Y-86543740D01*
X98825000Y-86836260D01*
X98882068Y-87123158D01*
X98994010Y-87393411D01*
X99156525Y-87636632D01*
X99363368Y-87843475D01*
X99537760Y-87960000D01*
X99363368Y-88076525D01*
X99156525Y-88283368D01*
X98994010Y-88526589D01*
X98882068Y-88796842D01*
X98825000Y-89083740D01*
X98825000Y-89376260D01*
X98882068Y-89663158D01*
X98994010Y-89933411D01*
X99156525Y-90176632D01*
X99363368Y-90383475D01*
X99537760Y-90500000D01*
X99363368Y-90616525D01*
X99156525Y-90823368D01*
X98994010Y-91066589D01*
X98882068Y-91336842D01*
X98825000Y-91623740D01*
X98825000Y-91916260D01*
X98882068Y-92203158D01*
X98994010Y-92473411D01*
X99156525Y-92716632D01*
X99363368Y-92923475D01*
X99606589Y-93085990D01*
X99876842Y-93197932D01*
X100163740Y-93255000D01*
X100456260Y-93255000D01*
X100676408Y-93211210D01*
X101206200Y-93741002D01*
X101229999Y-93770001D01*
X101312827Y-93837976D01*
X101178102Y-93864774D01*
X100989744Y-93942795D01*
X100820226Y-94056063D01*
X100676063Y-94200226D01*
X100562795Y-94369744D01*
X100484774Y-94558102D01*
X100445000Y-94758061D01*
X100445000Y-94961939D01*
X100484774Y-95161898D01*
X100562795Y-95350256D01*
X100676063Y-95519774D01*
X100820226Y-95663937D01*
X100989744Y-95777205D01*
X101178102Y-95855226D01*
X101378061Y-95895000D01*
X101581939Y-95895000D01*
X101781898Y-95855226D01*
X101970256Y-95777205D01*
X102139774Y-95663937D01*
X102283937Y-95519774D01*
X102397205Y-95350256D01*
X102475226Y-95161898D01*
X102515000Y-94961939D01*
X102515000Y-94758061D01*
X102475226Y-94558102D01*
X102397205Y-94369744D01*
X102283937Y-94200226D01*
X102139774Y-94056063D01*
X102040903Y-93990000D01*
X106835199Y-93990000D01*
X110970000Y-98124802D01*
X110970001Y-102072668D01*
X110966324Y-102110000D01*
X110980998Y-102258985D01*
X111024454Y-102402246D01*
X111095026Y-102534276D01*
X111164556Y-102618997D01*
X111190000Y-102650001D01*
X111218998Y-102673799D01*
X111940198Y-103395000D01*
X111028612Y-103395000D01*
X110902633Y-103327663D01*
X110764085Y-103285635D01*
X110656105Y-103275000D01*
X110620000Y-103271444D01*
X110583895Y-103275000D01*
X110276105Y-103275000D01*
X110240000Y-103271444D01*
X110203895Y-103275000D01*
X110095915Y-103285635D01*
X109957367Y-103327663D01*
X109829680Y-103395913D01*
X109717762Y-103487762D01*
X109715698Y-103490278D01*
X109621599Y-103508995D01*
X109474188Y-103570055D01*
X109341522Y-103658699D01*
X109228699Y-103771522D01*
X109180822Y-103843176D01*
X108591307Y-103253661D01*
X108571005Y-103151599D01*
X108509945Y-103004188D01*
X108421301Y-102871522D01*
X108308478Y-102758699D01*
X108175812Y-102670055D01*
X108028401Y-102608995D01*
X107871911Y-102577867D01*
X107712355Y-102577867D01*
X107555865Y-102608995D01*
X107408454Y-102670055D01*
X107275788Y-102758699D01*
X107162965Y-102871522D01*
X107074321Y-103004188D01*
X107047922Y-103067922D01*
X106984188Y-103094321D01*
X106851522Y-103182965D01*
X106738699Y-103295788D01*
X106650055Y-103428454D01*
X106588995Y-103575865D01*
X106557867Y-103732355D01*
X106557867Y-103891911D01*
X106588995Y-104048401D01*
X106650055Y-104195812D01*
X106738699Y-104328478D01*
X106851522Y-104441301D01*
X106984188Y-104529945D01*
X107131599Y-104591005D01*
X107233661Y-104611307D01*
X108384718Y-105762364D01*
X108379549Y-105761781D01*
X108374375Y-105761708D01*
X108369205Y-105761199D01*
X108338199Y-105761199D01*
X108271058Y-105760254D01*
X108265931Y-105761199D01*
X108184072Y-105761199D01*
X108178945Y-105760254D01*
X108111760Y-105761199D01*
X108080795Y-105761199D01*
X108075636Y-105761707D01*
X108070454Y-105761780D01*
X108039769Y-105765239D01*
X107993233Y-105767196D01*
X107975056Y-105771613D01*
X107972815Y-105771834D01*
X107967447Y-105773462D01*
X107932868Y-105781866D01*
X107872140Y-105794836D01*
X107843617Y-105807123D01*
X107825000Y-105812205D01*
X107806382Y-105807123D01*
X107777862Y-105794837D01*
X107717129Y-105781865D01*
X107682570Y-105773467D01*
X107677185Y-105771834D01*
X107674937Y-105771613D01*
X107656766Y-105767197D01*
X107610232Y-105765239D01*
X107579549Y-105761781D01*
X107574375Y-105761708D01*
X107569205Y-105761199D01*
X107538199Y-105761199D01*
X107471058Y-105760254D01*
X107465931Y-105761199D01*
X107384072Y-105761199D01*
X107378945Y-105760254D01*
X107311760Y-105761199D01*
X107280795Y-105761199D01*
X107275636Y-105761707D01*
X107270454Y-105761780D01*
X107239769Y-105765239D01*
X107193233Y-105767196D01*
X107175056Y-105771613D01*
X107172815Y-105771834D01*
X107167447Y-105773462D01*
X107132868Y-105781866D01*
X107072140Y-105794836D01*
X107043617Y-105807123D01*
X107013637Y-105815307D01*
X106958117Y-105843011D01*
X106901806Y-105869160D01*
X106876702Y-105887506D01*
X106849282Y-105902162D01*
X106801285Y-105941553D01*
X106796094Y-105945575D01*
X106791251Y-105945507D01*
X106786105Y-105945000D01*
X106755076Y-105945000D01*
X106733251Y-105944694D01*
X106723485Y-105944283D01*
X106721866Y-105944535D01*
X106687912Y-105944059D01*
X106682809Y-105945000D01*
X106422646Y-105945000D01*
X106248459Y-105770813D01*
X106225438Y-105742762D01*
X106113520Y-105650913D01*
X105985833Y-105582663D01*
X105847285Y-105540635D01*
X105805819Y-105536551D01*
X105703200Y-105526444D01*
X105669802Y-105529733D01*
X105583679Y-105472188D01*
X105436268Y-105411128D01*
X105279778Y-105380000D01*
X105120222Y-105380000D01*
X104963732Y-105411128D01*
X104816321Y-105472188D01*
X104683655Y-105560832D01*
X104591410Y-105653077D01*
X104584242Y-105648712D01*
X104583786Y-105648338D01*
X104582488Y-105647644D01*
X104547032Y-105626054D01*
X104494939Y-105592294D01*
X104465228Y-105580473D01*
X104443534Y-105568082D01*
X104431164Y-105546420D01*
X104419326Y-105516669D01*
X104385574Y-105464592D01*
X104363985Y-105429139D01*
X104363293Y-105427844D01*
X104362919Y-105427389D01*
X104353288Y-105411572D01*
X104322034Y-105377570D01*
X104320640Y-105375872D01*
X104301327Y-105351655D01*
X104297732Y-105347958D01*
X104294460Y-105343971D01*
X104272557Y-105322068D01*
X104225686Y-105273866D01*
X104221412Y-105270923D01*
X104175018Y-105224529D01*
X104172067Y-105220244D01*
X104123867Y-105173378D01*
X104101979Y-105151490D01*
X104097984Y-105148212D01*
X104094275Y-105144605D01*
X104070044Y-105125282D01*
X104068374Y-105123912D01*
X104034377Y-105092662D01*
X104018561Y-105083031D01*
X104018105Y-105082657D01*
X104016807Y-105081963D01*
X103981351Y-105060373D01*
X103929258Y-105026613D01*
X103899547Y-105014792D01*
X103877853Y-105002401D01*
X103865483Y-104980739D01*
X103853645Y-104950988D01*
X103819893Y-104898911D01*
X103798304Y-104863458D01*
X103797612Y-104862163D01*
X103797238Y-104861708D01*
X103787607Y-104845891D01*
X103756353Y-104811889D01*
X103754959Y-104810191D01*
X103735646Y-104785974D01*
X103732051Y-104782277D01*
X103728779Y-104778290D01*
X103706876Y-104756387D01*
X103660005Y-104708185D01*
X103655731Y-104705242D01*
X103609337Y-104658848D01*
X103606386Y-104654563D01*
X103558186Y-104607697D01*
X103536298Y-104585809D01*
X103532303Y-104582531D01*
X103528594Y-104578924D01*
X103504363Y-104559601D01*
X103502693Y-104558231D01*
X103468696Y-104526981D01*
X103452880Y-104517350D01*
X103452424Y-104516976D01*
X103451126Y-104516282D01*
X103415670Y-104494692D01*
X103363577Y-104460932D01*
X103333866Y-104449111D01*
X103306104Y-104433254D01*
X103247198Y-104413563D01*
X103188888Y-104392237D01*
X103157277Y-104387322D01*
X103126642Y-104378030D01*
X103064876Y-104371949D01*
X103035920Y-104368274D01*
X103017466Y-104349820D01*
X102999027Y-104330857D01*
X102996711Y-104328337D01*
X102996248Y-104327999D01*
X102970591Y-104301612D01*
X102966310Y-104298664D01*
X102938459Y-104270813D01*
X102915438Y-104242762D01*
X102803520Y-104150913D01*
X102675833Y-104082663D01*
X102643012Y-104072707D01*
X102631137Y-104060832D01*
X102498471Y-103972188D01*
X102351060Y-103911128D01*
X102194570Y-103880000D01*
X102035014Y-103880000D01*
X101878524Y-103911128D01*
X101731113Y-103972188D01*
X101598447Y-104060832D01*
X101485624Y-104173655D01*
X101396980Y-104306321D01*
X101335920Y-104453732D01*
X101304792Y-104610222D01*
X101304792Y-104769778D01*
X101335920Y-104926268D01*
X101362319Y-104990000D01*
X101335920Y-105053732D01*
X101304792Y-105210222D01*
X101304792Y-105369778D01*
X101335920Y-105526268D01*
X101396980Y-105673679D01*
X101485624Y-105806345D01*
X101598447Y-105919168D01*
X101731113Y-106007812D01*
X101878524Y-106068872D01*
X102035014Y-106100000D01*
X102052354Y-106100000D01*
X102889637Y-106937284D01*
X102889651Y-106937397D01*
X102895738Y-106999196D01*
X102904699Y-107028736D01*
X102909439Y-107059221D01*
X102930766Y-107117536D01*
X102950450Y-107176426D01*
X102965757Y-107203227D01*
X102977172Y-107231914D01*
X103010941Y-107284019D01*
X103028751Y-107313267D01*
X103031814Y-107318997D01*
X103033467Y-107321011D01*
X103043212Y-107337015D01*
X103074756Y-107371333D01*
X103093773Y-107395179D01*
X103097372Y-107398880D01*
X103100647Y-107402871D01*
X103122551Y-107424775D01*
X103169413Y-107472969D01*
X103173691Y-107475915D01*
X103234215Y-107536439D01*
X103237161Y-107540717D01*
X103285355Y-107587579D01*
X103307260Y-107609484D01*
X103311251Y-107612760D01*
X103314952Y-107616358D01*
X103338786Y-107635366D01*
X103373103Y-107666910D01*
X103389114Y-107676660D01*
X103391133Y-107678317D01*
X103396876Y-107681387D01*
X103426123Y-107699197D01*
X103478217Y-107732959D01*
X103506902Y-107744373D01*
X103533711Y-107759684D01*
X103592592Y-107779365D01*
X103650894Y-107800688D01*
X103681391Y-107805431D01*
X103710935Y-107814393D01*
X103772750Y-107820481D01*
X103774315Y-107820680D01*
X103776150Y-107822981D01*
X103779743Y-107826676D01*
X103783007Y-107830653D01*
X103804905Y-107852551D01*
X103819493Y-107867553D01*
X103827072Y-107875797D01*
X103828587Y-107876904D01*
X103851793Y-107900768D01*
X103856060Y-107903706D01*
X104576546Y-108624193D01*
X104599562Y-108652238D01*
X104711480Y-108744087D01*
X104839167Y-108812337D01*
X104931105Y-108840226D01*
X104977714Y-108854365D01*
X105105411Y-108866942D01*
X104710000Y-109262353D01*
X104218458Y-108770812D01*
X104195438Y-108742762D01*
X104083520Y-108650913D01*
X103955833Y-108582663D01*
X103817285Y-108540635D01*
X103709305Y-108530000D01*
X103673200Y-108526444D01*
X103637095Y-108530000D01*
X102860201Y-108530000D01*
X102773679Y-108472188D01*
X102626268Y-108411128D01*
X102469778Y-108380000D01*
X102310222Y-108380000D01*
X102153732Y-108411128D01*
X102006321Y-108472188D01*
X101873655Y-108560832D01*
X101760832Y-108673655D01*
X101672188Y-108806321D01*
X101611128Y-108953732D01*
X101580000Y-109110222D01*
X101580000Y-109269778D01*
X101611128Y-109426268D01*
X101637527Y-109490000D01*
X101611128Y-109553732D01*
X101580000Y-109710222D01*
X101580000Y-109869778D01*
X101611128Y-110026268D01*
X101672188Y-110173679D01*
X101760832Y-110306345D01*
X101873655Y-110419168D01*
X102006321Y-110507812D01*
X102153732Y-110568872D01*
X102310222Y-110600000D01*
X102469778Y-110600000D01*
X102626268Y-110568872D01*
X102773679Y-110507812D01*
X102860201Y-110450000D01*
X103182354Y-110450000D01*
X103751546Y-111019193D01*
X103774562Y-111047238D01*
X103886480Y-111139087D01*
X104014167Y-111207337D01*
X104110686Y-111236616D01*
X104152714Y-111249365D01*
X104296800Y-111263556D01*
X104332905Y-111260000D01*
X105087095Y-111260000D01*
X105123200Y-111263556D01*
X105159305Y-111260000D01*
X105267285Y-111249365D01*
X105405833Y-111207337D01*
X105533520Y-111139087D01*
X105645438Y-111047238D01*
X105668458Y-111019188D01*
X106065000Y-110622647D01*
X106251546Y-110809192D01*
X106274562Y-110837238D01*
X106386480Y-110929087D01*
X106514167Y-110997337D01*
X106596624Y-111022350D01*
X106652714Y-111039365D01*
X106661528Y-111040233D01*
X106760695Y-111050000D01*
X106760702Y-111050000D01*
X106796799Y-111053555D01*
X106832896Y-111050000D01*
X108657691Y-111050000D01*
X108703106Y-111087271D01*
X108730202Y-111101754D01*
X108755010Y-111119885D01*
X108811305Y-111146029D01*
X108866850Y-111173747D01*
X108896516Y-111181846D01*
X108924769Y-111194014D01*
X108985464Y-111206972D01*
X109017877Y-111214850D01*
X109024691Y-111216917D01*
X109027533Y-111217197D01*
X109045772Y-111221630D01*
X109092359Y-111223592D01*
X109122392Y-111226974D01*
X109127533Y-111227046D01*
X109132671Y-111227552D01*
X109163701Y-111227552D01*
X109230883Y-111228492D01*
X109235980Y-111227552D01*
X109324024Y-111227552D01*
X109329121Y-111228492D01*
X109396303Y-111227552D01*
X109427329Y-111227552D01*
X109432467Y-111227046D01*
X109437612Y-111226974D01*
X109467643Y-111223592D01*
X109514227Y-111221630D01*
X109532465Y-111217197D01*
X109535309Y-111216917D01*
X109542127Y-111214849D01*
X109574535Y-111206972D01*
X109635234Y-111194013D01*
X109663483Y-111181846D01*
X109693149Y-111173747D01*
X109748688Y-111146032D01*
X109755000Y-111143101D01*
X109755000Y-111221939D01*
X109794774Y-111421898D01*
X109872795Y-111610256D01*
X109986063Y-111779774D01*
X110130226Y-111923937D01*
X110299744Y-112037205D01*
X110488102Y-112115226D01*
X110688061Y-112155000D01*
X110891939Y-112155000D01*
X111091898Y-112115226D01*
X111280256Y-112037205D01*
X111449774Y-111923937D01*
X111593937Y-111779774D01*
X111707205Y-111610256D01*
X111761159Y-111480001D01*
X112928238Y-111480001D01*
X112942188Y-111513679D01*
X113019911Y-111630000D01*
X112942188Y-111746321D01*
X112881128Y-111893732D01*
X112850000Y-112050222D01*
X112850000Y-112209778D01*
X112881128Y-112366268D01*
X112942188Y-112513679D01*
X113030832Y-112646345D01*
X113143655Y-112759168D01*
X113276321Y-112847812D01*
X113423732Y-112908872D01*
X113580222Y-112940000D01*
X113584130Y-112940000D01*
X113500226Y-112996063D01*
X113356063Y-113140226D01*
X113242795Y-113309744D01*
X113164774Y-113498102D01*
X113125000Y-113698061D01*
X113125000Y-113901939D01*
X113164774Y-114101898D01*
X113242795Y-114290256D01*
X113356063Y-114459774D01*
X113500226Y-114603937D01*
X113669744Y-114717205D01*
X113858102Y-114795226D01*
X114058061Y-114835000D01*
X114261939Y-114835000D01*
X114461898Y-114795226D01*
X114650256Y-114717205D01*
X114819774Y-114603937D01*
X114930484Y-114493227D01*
X114936148Y-114511898D01*
X114954454Y-114572246D01*
X115025026Y-114704276D01*
X115035637Y-114717205D01*
X115119999Y-114820001D01*
X115149002Y-114843803D01*
X115905537Y-115600339D01*
X115858102Y-115609774D01*
X115669744Y-115687795D01*
X115500226Y-115801063D01*
X115456289Y-115845000D01*
X114277335Y-115845000D01*
X114240012Y-115841324D01*
X114202689Y-115845000D01*
X114202679Y-115845000D01*
X114091026Y-115855997D01*
X113947765Y-115899454D01*
X113815736Y-115970026D01*
X113700011Y-116064999D01*
X113676213Y-116093997D01*
X112020211Y-117750000D01*
X109917333Y-117750000D01*
X109880000Y-117746323D01*
X109842667Y-117750000D01*
X109731014Y-117760997D01*
X109587753Y-117804454D01*
X109455724Y-117875026D01*
X109339999Y-117969999D01*
X109316201Y-117998997D01*
X108620199Y-118695000D01*
X108558061Y-118695000D01*
X108358102Y-118734774D01*
X108169744Y-118812795D01*
X108000226Y-118926063D01*
X107964361Y-118961928D01*
X106760000Y-118961928D01*
X106635518Y-118974188D01*
X106515820Y-119010498D01*
X106405506Y-119069463D01*
X106308815Y-119148815D01*
X106229463Y-119245506D01*
X106170498Y-119355820D01*
X106134188Y-119475518D01*
X106121928Y-119600000D01*
X106121928Y-121600000D01*
X106134188Y-121724482D01*
X106170498Y-121844180D01*
X106229463Y-121954494D01*
X106308815Y-122051185D01*
X106405506Y-122130537D01*
X106515820Y-122189502D01*
X106635518Y-122225812D01*
X106760000Y-122238072D01*
X108760000Y-122238072D01*
X108884482Y-122225812D01*
X109004180Y-122189502D01*
X109114494Y-122130537D01*
X109211185Y-122051185D01*
X109290537Y-121954494D01*
X109349502Y-121844180D01*
X109385812Y-121724482D01*
X109398072Y-121600000D01*
X109398072Y-120455639D01*
X109463937Y-120389774D01*
X109571928Y-120228154D01*
X109571928Y-121260000D01*
X109584188Y-121384482D01*
X109620498Y-121504180D01*
X109679463Y-121614494D01*
X109758815Y-121711185D01*
X109855506Y-121790537D01*
X109965820Y-121849502D01*
X110085518Y-121885812D01*
X110210000Y-121898072D01*
X112210000Y-121898072D01*
X112334482Y-121885812D01*
X112454180Y-121849502D01*
X112564494Y-121790537D01*
X112661185Y-121711185D01*
X112740537Y-121614494D01*
X112799502Y-121504180D01*
X112835812Y-121384482D01*
X112848072Y-121260000D01*
X112848072Y-120875997D01*
X112909744Y-120917205D01*
X113098102Y-120995226D01*
X113298061Y-121035000D01*
X113501939Y-121035000D01*
X113701898Y-120995226D01*
X113890256Y-120917205D01*
X114059774Y-120803937D01*
X114103711Y-120760000D01*
X118085199Y-120760000D01*
X118734776Y-121409577D01*
X118608102Y-121434774D01*
X118419744Y-121512795D01*
X118250226Y-121626063D01*
X118106063Y-121770226D01*
X117992795Y-121939744D01*
X117914774Y-122128102D01*
X117875000Y-122328061D01*
X117875000Y-122531939D01*
X117914774Y-122731898D01*
X117992795Y-122920256D01*
X118106063Y-123089774D01*
X118250226Y-123233937D01*
X118419744Y-123347205D01*
X118608102Y-123425226D01*
X118808061Y-123465000D01*
X119011939Y-123465000D01*
X119211898Y-123425226D01*
X119400256Y-123347205D01*
X119569774Y-123233937D01*
X119713937Y-123089774D01*
X119827205Y-122920256D01*
X119905226Y-122731898D01*
X119930423Y-122605225D01*
X120206200Y-122881002D01*
X120229999Y-122910001D01*
X120258997Y-122933799D01*
X120345723Y-123004974D01*
X120441266Y-123056043D01*
X120477753Y-123075546D01*
X120621014Y-123119003D01*
X120732667Y-123130000D01*
X120732676Y-123130000D01*
X120769999Y-123133676D01*
X120807322Y-123130000D01*
X125686289Y-123130000D01*
X125730226Y-123173937D01*
X125784198Y-123210000D01*
X124393572Y-123210000D01*
X124393572Y-127030000D01*
X131606429Y-127030000D01*
X131606429Y-123210000D01*
X131034500Y-123210000D01*
X131137371Y-123056043D01*
X131241775Y-122803989D01*
X131295000Y-122536411D01*
X131295000Y-122263589D01*
X131241775Y-121996011D01*
X131137371Y-121743957D01*
X130985799Y-121517114D01*
X130792886Y-121324201D01*
X130566043Y-121172629D01*
X130313989Y-121068225D01*
X130046411Y-121015000D01*
X129773589Y-121015000D01*
X129506011Y-121068225D01*
X129253957Y-121172629D01*
X129027114Y-121324201D01*
X128834201Y-121517114D01*
X128772136Y-121610000D01*
X127093711Y-121610000D01*
X127049774Y-121566063D01*
X126880256Y-121452795D01*
X126691898Y-121374774D01*
X126491939Y-121335000D01*
X126288061Y-121335000D01*
X126088102Y-121374774D01*
X125899744Y-121452795D01*
X125730226Y-121566063D01*
X125686289Y-121610000D01*
X121084802Y-121610000D01*
X118963804Y-119489003D01*
X118940001Y-119459999D01*
X118824276Y-119365026D01*
X118692247Y-119294454D01*
X118548986Y-119250997D01*
X118437333Y-119240000D01*
X118437322Y-119240000D01*
X118400000Y-119236324D01*
X118362678Y-119240000D01*
X114103711Y-119240000D01*
X114079256Y-119215545D01*
X114994802Y-118300000D01*
X116722678Y-118300000D01*
X116760000Y-118303676D01*
X116797322Y-118300000D01*
X116797333Y-118300000D01*
X116908986Y-118289003D01*
X117052247Y-118245546D01*
X117184276Y-118174974D01*
X117300001Y-118080001D01*
X117323803Y-118050998D01*
X117601003Y-117773799D01*
X117630001Y-117750001D01*
X117724974Y-117634276D01*
X117795546Y-117502247D01*
X117839003Y-117358986D01*
X117850000Y-117247333D01*
X117850000Y-117247324D01*
X117853676Y-117210001D01*
X117850000Y-117172678D01*
X117850000Y-116578061D01*
X118525000Y-116578061D01*
X118525000Y-116781939D01*
X118564774Y-116981898D01*
X118642795Y-117170256D01*
X118756063Y-117339774D01*
X118900226Y-117483937D01*
X119069744Y-117597205D01*
X119258102Y-117675226D01*
X119458061Y-117715000D01*
X119661939Y-117715000D01*
X119861898Y-117675226D01*
X120050256Y-117597205D01*
X120219774Y-117483937D01*
X120363937Y-117339774D01*
X120477205Y-117170256D01*
X120555226Y-116981898D01*
X120595000Y-116781939D01*
X120595000Y-116578061D01*
X120555226Y-116378102D01*
X120477205Y-116189744D01*
X120363937Y-116020226D01*
X120219774Y-115876063D01*
X120050256Y-115762795D01*
X119861898Y-115684774D01*
X119661939Y-115645000D01*
X119458061Y-115645000D01*
X119258102Y-115684774D01*
X119069744Y-115762795D01*
X118900226Y-115876063D01*
X118756063Y-116020226D01*
X118642795Y-116189744D01*
X118564774Y-116378102D01*
X118525000Y-116578061D01*
X117850000Y-116578061D01*
X117850000Y-115747322D01*
X117853676Y-115709999D01*
X117850000Y-115672676D01*
X117850000Y-115672667D01*
X117839003Y-115561014D01*
X117795546Y-115417753D01*
X117724974Y-115285724D01*
X117691553Y-115245000D01*
X117653799Y-115198996D01*
X117653795Y-115198992D01*
X117630001Y-115169999D01*
X117601008Y-115146205D01*
X116562863Y-114108061D01*
X117115000Y-114108061D01*
X117115000Y-114311939D01*
X117154774Y-114511898D01*
X117232795Y-114700256D01*
X117346063Y-114869774D01*
X117490226Y-115013937D01*
X117659744Y-115127205D01*
X117848102Y-115205226D01*
X118048061Y-115245000D01*
X118251939Y-115245000D01*
X118451898Y-115205226D01*
X118640256Y-115127205D01*
X118809774Y-115013937D01*
X118953937Y-114869774D01*
X119067205Y-114700256D01*
X119145226Y-114511898D01*
X119185000Y-114311939D01*
X119185000Y-114193589D01*
X125475000Y-114193589D01*
X125475000Y-114466411D01*
X125528225Y-114733989D01*
X125632629Y-114986043D01*
X125784201Y-115212886D01*
X125977114Y-115405799D01*
X126203957Y-115557371D01*
X126456011Y-115661775D01*
X126723589Y-115715000D01*
X126996411Y-115715000D01*
X127263989Y-115661775D01*
X127516043Y-115557371D01*
X127742886Y-115405799D01*
X127935799Y-115212886D01*
X128087371Y-114986043D01*
X128191775Y-114733989D01*
X128245000Y-114466411D01*
X128245000Y-114193589D01*
X128191775Y-113926011D01*
X128087371Y-113673957D01*
X127935799Y-113447114D01*
X127742886Y-113254201D01*
X127516043Y-113102629D01*
X127263989Y-112998225D01*
X127263165Y-112998061D01*
X132465000Y-112998061D01*
X132465000Y-113201939D01*
X132504774Y-113401898D01*
X132582795Y-113590256D01*
X132696063Y-113759774D01*
X132840226Y-113903937D01*
X133009744Y-114017205D01*
X133198102Y-114095226D01*
X133398061Y-114135000D01*
X133601939Y-114135000D01*
X133801898Y-114095226D01*
X133990256Y-114017205D01*
X134159774Y-113903937D01*
X134303937Y-113759774D01*
X134417205Y-113590256D01*
X134495226Y-113401898D01*
X134535000Y-113201939D01*
X134535000Y-112998061D01*
X134495226Y-112798102D01*
X134417205Y-112609744D01*
X134303937Y-112440226D01*
X134159774Y-112296063D01*
X133990256Y-112182795D01*
X133801898Y-112104774D01*
X133601939Y-112065000D01*
X133398061Y-112065000D01*
X133198102Y-112104774D01*
X133009744Y-112182795D01*
X132840226Y-112296063D01*
X132696063Y-112440226D01*
X132582795Y-112609744D01*
X132504774Y-112798102D01*
X132465000Y-112998061D01*
X127263165Y-112998061D01*
X126996411Y-112945000D01*
X126723589Y-112945000D01*
X126456011Y-112998225D01*
X126203957Y-113102629D01*
X125977114Y-113254201D01*
X125784201Y-113447114D01*
X125632629Y-113673957D01*
X125528225Y-113926011D01*
X125475000Y-114193589D01*
X119185000Y-114193589D01*
X119185000Y-114108061D01*
X119145226Y-113908102D01*
X119067205Y-113719744D01*
X118953937Y-113550226D01*
X118809774Y-113406063D01*
X118640256Y-113292795D01*
X118451898Y-113214774D01*
X118251939Y-113175000D01*
X118048061Y-113175000D01*
X117848102Y-113214774D01*
X117659744Y-113292795D01*
X117490226Y-113406063D01*
X117346063Y-113550226D01*
X117232795Y-113719744D01*
X117154774Y-113908102D01*
X117115000Y-114108061D01*
X116562863Y-114108061D01*
X116420000Y-113965199D01*
X116420000Y-112411829D01*
X116438872Y-112366268D01*
X116470000Y-112209778D01*
X116470000Y-112050222D01*
X116850000Y-112050222D01*
X116850000Y-112209778D01*
X116881128Y-112366268D01*
X116942188Y-112513679D01*
X117030832Y-112646345D01*
X117143655Y-112759168D01*
X117276321Y-112847812D01*
X117423732Y-112908872D01*
X117580222Y-112940000D01*
X117739778Y-112940000D01*
X117896268Y-112908872D01*
X118043679Y-112847812D01*
X118176345Y-112759168D01*
X118289168Y-112646345D01*
X118377812Y-112513679D01*
X118396707Y-112468061D01*
X123065000Y-112468061D01*
X123065000Y-112671939D01*
X123104774Y-112871898D01*
X123182795Y-113060256D01*
X123296063Y-113229774D01*
X123440226Y-113373937D01*
X123609744Y-113487205D01*
X123798102Y-113565226D01*
X123998061Y-113605000D01*
X124201939Y-113605000D01*
X124401898Y-113565226D01*
X124590256Y-113487205D01*
X124759774Y-113373937D01*
X124903937Y-113229774D01*
X125017205Y-113060256D01*
X125095226Y-112871898D01*
X125135000Y-112671939D01*
X125135000Y-112468061D01*
X125095226Y-112268102D01*
X125017205Y-112079744D01*
X124903937Y-111910226D01*
X124759774Y-111766063D01*
X124590256Y-111652795D01*
X124401898Y-111574774D01*
X124201939Y-111535000D01*
X123998061Y-111535000D01*
X123798102Y-111574774D01*
X123609744Y-111652795D01*
X123440226Y-111766063D01*
X123296063Y-111910226D01*
X123182795Y-112079744D01*
X123104774Y-112268102D01*
X123065000Y-112468061D01*
X118396707Y-112468061D01*
X118438872Y-112366268D01*
X118470000Y-112209778D01*
X118470000Y-112050222D01*
X118438872Y-111893732D01*
X118377812Y-111746321D01*
X118289168Y-111613655D01*
X118176345Y-111500832D01*
X118043679Y-111412188D01*
X117896268Y-111351128D01*
X117739778Y-111320000D01*
X117580222Y-111320000D01*
X117423732Y-111351128D01*
X117276321Y-111412188D01*
X117143655Y-111500832D01*
X117030832Y-111613655D01*
X116942188Y-111746321D01*
X116881128Y-111893732D01*
X116850000Y-112050222D01*
X116470000Y-112050222D01*
X116438872Y-111893732D01*
X116377812Y-111746321D01*
X116289168Y-111613655D01*
X116176345Y-111500832D01*
X116043679Y-111412188D01*
X115896268Y-111351128D01*
X115739778Y-111320000D01*
X115580222Y-111320000D01*
X115423732Y-111351128D01*
X115276321Y-111412188D01*
X115143655Y-111500832D01*
X115030832Y-111613655D01*
X114942188Y-111746321D01*
X114881128Y-111893732D01*
X114850000Y-112050222D01*
X114850000Y-112209778D01*
X114881128Y-112366268D01*
X114900001Y-112411831D01*
X114900001Y-113076290D01*
X114819774Y-112996063D01*
X114650256Y-112882795D01*
X114461898Y-112804774D01*
X114261939Y-112765000D01*
X114167617Y-112765000D01*
X114176345Y-112759168D01*
X114289168Y-112646345D01*
X114377812Y-112513679D01*
X114438872Y-112366268D01*
X114470000Y-112209778D01*
X114470000Y-112050222D01*
X114438872Y-111893732D01*
X114377812Y-111746321D01*
X114300089Y-111630000D01*
X114377812Y-111513679D01*
X114438872Y-111366268D01*
X114470000Y-111209778D01*
X114470000Y-111050222D01*
X118850000Y-111050222D01*
X118850000Y-111209778D01*
X118881128Y-111366268D01*
X118942188Y-111513679D01*
X119030832Y-111646345D01*
X119143655Y-111759168D01*
X119276321Y-111847812D01*
X119423732Y-111908872D01*
X119580222Y-111940000D01*
X119739778Y-111940000D01*
X119896268Y-111908872D01*
X120043679Y-111847812D01*
X120176345Y-111759168D01*
X120289168Y-111646345D01*
X120377812Y-111513679D01*
X120438872Y-111366268D01*
X120470000Y-111209778D01*
X120470000Y-111050222D01*
X120850000Y-111050222D01*
X120850000Y-111209778D01*
X120881128Y-111366268D01*
X120942188Y-111513679D01*
X121030832Y-111646345D01*
X121143655Y-111759168D01*
X121276321Y-111847812D01*
X121423732Y-111908872D01*
X121580222Y-111940000D01*
X121739778Y-111940000D01*
X121896268Y-111908872D01*
X122043679Y-111847812D01*
X122160000Y-111770089D01*
X122276321Y-111847812D01*
X122423732Y-111908872D01*
X122580222Y-111940000D01*
X122739778Y-111940000D01*
X122896268Y-111908872D01*
X123043679Y-111847812D01*
X123176345Y-111759168D01*
X123289168Y-111646345D01*
X123377812Y-111513679D01*
X123438872Y-111366268D01*
X123470000Y-111209778D01*
X123470000Y-111050222D01*
X123438872Y-110893732D01*
X123377812Y-110746321D01*
X123289168Y-110613655D01*
X123176345Y-110500832D01*
X123043679Y-110412188D01*
X122896268Y-110351128D01*
X122739778Y-110320000D01*
X122580222Y-110320000D01*
X122423732Y-110351128D01*
X122276321Y-110412188D01*
X122160000Y-110489911D01*
X122043679Y-110412188D01*
X121896268Y-110351128D01*
X121739778Y-110320000D01*
X121580222Y-110320000D01*
X121423732Y-110351128D01*
X121276321Y-110412188D01*
X121143655Y-110500832D01*
X121030832Y-110613655D01*
X120942188Y-110746321D01*
X120881128Y-110893732D01*
X120850000Y-111050222D01*
X120470000Y-111050222D01*
X120438872Y-110893732D01*
X120377812Y-110746321D01*
X120289168Y-110613655D01*
X120176345Y-110500832D01*
X120043679Y-110412188D01*
X119896268Y-110351128D01*
X119739778Y-110320000D01*
X119580222Y-110320000D01*
X119423732Y-110351128D01*
X119276321Y-110412188D01*
X119143655Y-110500832D01*
X119030832Y-110613655D01*
X118942188Y-110746321D01*
X118881128Y-110893732D01*
X118850000Y-111050222D01*
X114470000Y-111050222D01*
X114438872Y-110893732D01*
X114377812Y-110746321D01*
X114289168Y-110613655D01*
X114176345Y-110500832D01*
X114043679Y-110412188D01*
X113998116Y-110393315D01*
X113813805Y-110209004D01*
X113790002Y-110180000D01*
X113674277Y-110085027D01*
X113542248Y-110014455D01*
X113398987Y-109970998D01*
X113287334Y-109960001D01*
X113287323Y-109960001D01*
X113250001Y-109956325D01*
X113212679Y-109960001D01*
X111887645Y-109960001D01*
X111982646Y-109865000D01*
X112317816Y-109865000D01*
X112423732Y-109908872D01*
X112580222Y-109940000D01*
X112739778Y-109940000D01*
X112896268Y-109908872D01*
X113043679Y-109847812D01*
X113176345Y-109759168D01*
X113289168Y-109646345D01*
X113377812Y-109513679D01*
X113438872Y-109366268D01*
X113470000Y-109209778D01*
X113470000Y-109050222D01*
X121850000Y-109050222D01*
X121850000Y-109209778D01*
X121881128Y-109366268D01*
X121942188Y-109513679D01*
X122030832Y-109646345D01*
X122143655Y-109759168D01*
X122276321Y-109847812D01*
X122423732Y-109908872D01*
X122580222Y-109940000D01*
X122739778Y-109940000D01*
X122896268Y-109908872D01*
X123043679Y-109847812D01*
X123055000Y-109840248D01*
X123055000Y-110001939D01*
X123094774Y-110201898D01*
X123172795Y-110390256D01*
X123286063Y-110559774D01*
X123430226Y-110703937D01*
X123599744Y-110817205D01*
X123788102Y-110895226D01*
X123988061Y-110935000D01*
X124191939Y-110935000D01*
X124391898Y-110895226D01*
X124580256Y-110817205D01*
X124749774Y-110703937D01*
X124893937Y-110559774D01*
X125007205Y-110390256D01*
X125085226Y-110201898D01*
X125125000Y-110001939D01*
X125125000Y-109798061D01*
X125085226Y-109598102D01*
X125007205Y-109409744D01*
X124893937Y-109240226D01*
X124749774Y-109096063D01*
X124580256Y-108982795D01*
X124391898Y-108904774D01*
X124191939Y-108865000D01*
X123988061Y-108865000D01*
X123788102Y-108904774D01*
X123599744Y-108982795D01*
X123470000Y-109069487D01*
X123470000Y-109050222D01*
X123438872Y-108893732D01*
X123377812Y-108746321D01*
X123289168Y-108613655D01*
X123176345Y-108500832D01*
X123043679Y-108412188D01*
X122896268Y-108351128D01*
X122739778Y-108320000D01*
X122580222Y-108320000D01*
X122423732Y-108351128D01*
X122276321Y-108412188D01*
X122143655Y-108500832D01*
X122030832Y-108613655D01*
X121942188Y-108746321D01*
X121881128Y-108893732D01*
X121850000Y-109050222D01*
X113470000Y-109050222D01*
X113438872Y-108893732D01*
X113377812Y-108746321D01*
X113300089Y-108630000D01*
X113377812Y-108513679D01*
X113438872Y-108366268D01*
X113470000Y-108209778D01*
X113470000Y-108050222D01*
X113438872Y-107893732D01*
X113377812Y-107746321D01*
X113300089Y-107630000D01*
X113377812Y-107513679D01*
X113438872Y-107366268D01*
X113470000Y-107209778D01*
X113470000Y-107050222D01*
X113438872Y-106893732D01*
X113377812Y-106746321D01*
X113289168Y-106613655D01*
X113176345Y-106500832D01*
X113043679Y-106412188D01*
X112896268Y-106351128D01*
X112739778Y-106320000D01*
X112580222Y-106320000D01*
X112423732Y-106351128D01*
X112317816Y-106395000D01*
X112169124Y-106395000D01*
X112168872Y-106393732D01*
X112107812Y-106246321D01*
X112030089Y-106130000D01*
X112083394Y-106050222D01*
X121850000Y-106050222D01*
X121850000Y-106209778D01*
X121881128Y-106366268D01*
X121942188Y-106513679D01*
X122019911Y-106630000D01*
X121942188Y-106746321D01*
X121881128Y-106893732D01*
X121850000Y-107050222D01*
X121850000Y-107209778D01*
X121881128Y-107366268D01*
X121942188Y-107513679D01*
X122030832Y-107646345D01*
X122143655Y-107759168D01*
X122276321Y-107847812D01*
X122423732Y-107908872D01*
X122580222Y-107940000D01*
X122739778Y-107940000D01*
X122896268Y-107908872D01*
X123043679Y-107847812D01*
X123144631Y-107780358D01*
X123174774Y-107931898D01*
X123252795Y-108120256D01*
X123366063Y-108289774D01*
X123510226Y-108433937D01*
X123679744Y-108547205D01*
X123868102Y-108625226D01*
X124068061Y-108665000D01*
X124271939Y-108665000D01*
X124471898Y-108625226D01*
X124660256Y-108547205D01*
X124829774Y-108433937D01*
X124973937Y-108289774D01*
X125087205Y-108120256D01*
X125165226Y-107931898D01*
X125205000Y-107731939D01*
X125205000Y-107528061D01*
X125165226Y-107328102D01*
X125087205Y-107139744D01*
X124973937Y-106970226D01*
X124829774Y-106826063D01*
X124660256Y-106712795D01*
X124471898Y-106634774D01*
X124271939Y-106595000D01*
X124068061Y-106595000D01*
X123868102Y-106634774D01*
X123679744Y-106712795D01*
X123510226Y-106826063D01*
X123439483Y-106896806D01*
X123438872Y-106893732D01*
X123377812Y-106746321D01*
X123300089Y-106630000D01*
X123377812Y-106513679D01*
X123438872Y-106366268D01*
X123470000Y-106209778D01*
X123470000Y-106050222D01*
X123438872Y-105893732D01*
X123377812Y-105746321D01*
X123289168Y-105613655D01*
X123176345Y-105500832D01*
X123043679Y-105412188D01*
X122896268Y-105351128D01*
X122739778Y-105320000D01*
X122580222Y-105320000D01*
X122423732Y-105351128D01*
X122276321Y-105412188D01*
X122143655Y-105500832D01*
X122030832Y-105613655D01*
X121942188Y-105746321D01*
X121881128Y-105893732D01*
X121850000Y-106050222D01*
X112083394Y-106050222D01*
X112107812Y-106013679D01*
X112168872Y-105866268D01*
X112169124Y-105865000D01*
X112317816Y-105865000D01*
X112423732Y-105908872D01*
X112580222Y-105940000D01*
X112739778Y-105940000D01*
X112896268Y-105908872D01*
X113043679Y-105847812D01*
X113176345Y-105759168D01*
X113289168Y-105646345D01*
X113377812Y-105513679D01*
X113438872Y-105366268D01*
X113470000Y-105209778D01*
X113470000Y-105050222D01*
X113438872Y-104893732D01*
X113377812Y-104746321D01*
X113300089Y-104630000D01*
X113377812Y-104513679D01*
X113438872Y-104366268D01*
X113470000Y-104209778D01*
X113470000Y-104050222D01*
X113442631Y-103912631D01*
X113580222Y-103940000D01*
X113739778Y-103940000D01*
X113896268Y-103908872D01*
X114043679Y-103847812D01*
X114176345Y-103759168D01*
X114289168Y-103646345D01*
X114377812Y-103513679D01*
X114438872Y-103366268D01*
X114470000Y-103209778D01*
X114470000Y-103050222D01*
X114442631Y-102912631D01*
X114580222Y-102940000D01*
X114739778Y-102940000D01*
X114835835Y-102920893D01*
X115163115Y-103439086D01*
X115250987Y-103549013D01*
X115347213Y-103627983D01*
X115456996Y-103686664D01*
X115576118Y-103722799D01*
X115700000Y-103735000D01*
X121600000Y-103735000D01*
X121717023Y-103724124D01*
X121836535Y-103689301D01*
X121946957Y-103631832D01*
X122044046Y-103553925D01*
X122124070Y-103458574D01*
X123324873Y-101703554D01*
X123335208Y-101710460D01*
X123523566Y-101788481D01*
X123540001Y-101791750D01*
X123540000Y-103085198D01*
X123255199Y-103370000D01*
X122941829Y-103370000D01*
X122896268Y-103351128D01*
X122739778Y-103320000D01*
X122580222Y-103320000D01*
X122423732Y-103351128D01*
X122276321Y-103412188D01*
X122143655Y-103500832D01*
X122030832Y-103613655D01*
X121942188Y-103746321D01*
X121881128Y-103893732D01*
X121850000Y-104050222D01*
X121850000Y-104209778D01*
X121881128Y-104366268D01*
X121942188Y-104513679D01*
X122030832Y-104646345D01*
X122143655Y-104759168D01*
X122276321Y-104847812D01*
X122423732Y-104908872D01*
X122580222Y-104940000D01*
X122739778Y-104940000D01*
X122896268Y-104908872D01*
X122941829Y-104890000D01*
X123532678Y-104890000D01*
X123570000Y-104893676D01*
X123607322Y-104890000D01*
X123607333Y-104890000D01*
X123718986Y-104879003D01*
X123862247Y-104835546D01*
X123994276Y-104764974D01*
X124110001Y-104670001D01*
X124133803Y-104640998D01*
X124776740Y-103998061D01*
X125065000Y-103998061D01*
X125065000Y-104201939D01*
X125104774Y-104401898D01*
X125182795Y-104590256D01*
X125296063Y-104759774D01*
X125440226Y-104903937D01*
X125609744Y-105017205D01*
X125633512Y-105027050D01*
X125530226Y-105096063D01*
X125386063Y-105240226D01*
X125272795Y-105409744D01*
X125194774Y-105598102D01*
X125155000Y-105798061D01*
X125155000Y-106001939D01*
X125194774Y-106201898D01*
X125272795Y-106390256D01*
X125386063Y-106559774D01*
X125530226Y-106703937D01*
X125699744Y-106817205D01*
X125748775Y-106837514D01*
X125606063Y-106980226D01*
X125492795Y-107149744D01*
X125414774Y-107338102D01*
X125375000Y-107538061D01*
X125375000Y-107741939D01*
X125414774Y-107941898D01*
X125492795Y-108130256D01*
X125606063Y-108299774D01*
X125750226Y-108443937D01*
X125912771Y-108552546D01*
X125839744Y-108582795D01*
X125670226Y-108696063D01*
X125526063Y-108840226D01*
X125412795Y-109009744D01*
X125334774Y-109198102D01*
X125295000Y-109398061D01*
X125295000Y-109601939D01*
X125334774Y-109801898D01*
X125412795Y-109990256D01*
X125526063Y-110159774D01*
X125670226Y-110303937D01*
X125735243Y-110347380D01*
X125649744Y-110382795D01*
X125480226Y-110496063D01*
X125336063Y-110640226D01*
X125222795Y-110809744D01*
X125144774Y-110998102D01*
X125105000Y-111198061D01*
X125105000Y-111401939D01*
X125144774Y-111601898D01*
X125222795Y-111790256D01*
X125336063Y-111959774D01*
X125480226Y-112103937D01*
X125649744Y-112217205D01*
X125838102Y-112295226D01*
X126038061Y-112335000D01*
X126241939Y-112335000D01*
X126441898Y-112295226D01*
X126630256Y-112217205D01*
X126799774Y-112103937D01*
X126943937Y-111959774D01*
X127057205Y-111790256D01*
X127135226Y-111601898D01*
X127175000Y-111401939D01*
X127175000Y-111198061D01*
X127135226Y-110998102D01*
X127057205Y-110809744D01*
X126943937Y-110640226D01*
X126799774Y-110496063D01*
X126734757Y-110452620D01*
X126820256Y-110417205D01*
X126989774Y-110303937D01*
X127133937Y-110159774D01*
X127247205Y-109990256D01*
X127325226Y-109801898D01*
X127365000Y-109601939D01*
X127365000Y-109398061D01*
X127325226Y-109198102D01*
X127247205Y-109009744D01*
X127133937Y-108840226D01*
X126989774Y-108696063D01*
X126827229Y-108587454D01*
X126900256Y-108557205D01*
X127069774Y-108443937D01*
X127213937Y-108299774D01*
X127327205Y-108130256D01*
X127405226Y-107941898D01*
X127445000Y-107741939D01*
X127445000Y-107538061D01*
X127405226Y-107338102D01*
X127327205Y-107149744D01*
X127213937Y-106980226D01*
X127069774Y-106836063D01*
X126900256Y-106722795D01*
X126851225Y-106702486D01*
X126993937Y-106559774D01*
X127107205Y-106390256D01*
X127185226Y-106201898D01*
X127225000Y-106001939D01*
X127225000Y-105798061D01*
X127185226Y-105598102D01*
X127107205Y-105409744D01*
X126993937Y-105240226D01*
X126849774Y-105096063D01*
X126680256Y-104982795D01*
X126656488Y-104972950D01*
X126759774Y-104903937D01*
X126903937Y-104759774D01*
X127017205Y-104590256D01*
X127095226Y-104401898D01*
X127135000Y-104201939D01*
X127135000Y-103998061D01*
X130365000Y-103998061D01*
X130365000Y-104201939D01*
X130404774Y-104401898D01*
X130482795Y-104590256D01*
X130596063Y-104759774D01*
X130740226Y-104903937D01*
X130883995Y-105000000D01*
X130740226Y-105096063D01*
X130596063Y-105240226D01*
X130482795Y-105409744D01*
X130404774Y-105598102D01*
X130365000Y-105798061D01*
X130365000Y-106001939D01*
X130404774Y-106201898D01*
X130482795Y-106390256D01*
X130596063Y-106559774D01*
X130740226Y-106703937D01*
X130883995Y-106800000D01*
X130740226Y-106896063D01*
X130596063Y-107040226D01*
X130482795Y-107209744D01*
X130404774Y-107398102D01*
X130365000Y-107598061D01*
X130365000Y-107801939D01*
X130404774Y-108001898D01*
X130482795Y-108190256D01*
X130596063Y-108359774D01*
X130740226Y-108503937D01*
X130883995Y-108600000D01*
X130740226Y-108696063D01*
X130596063Y-108840226D01*
X130482795Y-109009744D01*
X130404774Y-109198102D01*
X130365000Y-109398061D01*
X130365000Y-109601939D01*
X130404774Y-109801898D01*
X130482795Y-109990256D01*
X130596063Y-110159774D01*
X130740226Y-110303937D01*
X130883995Y-110400000D01*
X130740226Y-110496063D01*
X130596063Y-110640226D01*
X130482795Y-110809744D01*
X130404774Y-110998102D01*
X130365000Y-111198061D01*
X130365000Y-111401939D01*
X130404774Y-111601898D01*
X130482795Y-111790256D01*
X130596063Y-111959774D01*
X130740226Y-112103937D01*
X130909744Y-112217205D01*
X131098102Y-112295226D01*
X131298061Y-112335000D01*
X131501939Y-112335000D01*
X131701898Y-112295226D01*
X131890256Y-112217205D01*
X132059774Y-112103937D01*
X132203937Y-111959774D01*
X132317205Y-111790256D01*
X132395226Y-111601898D01*
X132435000Y-111401939D01*
X132435000Y-111198061D01*
X132395226Y-110998102D01*
X132317205Y-110809744D01*
X132203937Y-110640226D01*
X132059774Y-110496063D01*
X131916005Y-110400000D01*
X132059774Y-110303937D01*
X132203937Y-110159774D01*
X132317205Y-109990256D01*
X132395226Y-109801898D01*
X132435000Y-109601939D01*
X132435000Y-109398061D01*
X132395226Y-109198102D01*
X132317205Y-109009744D01*
X132203937Y-108840226D01*
X132059774Y-108696063D01*
X131916005Y-108600000D01*
X132059774Y-108503937D01*
X132203937Y-108359774D01*
X132317205Y-108190256D01*
X132395226Y-108001898D01*
X132435000Y-107801939D01*
X132435000Y-107598061D01*
X132395226Y-107398102D01*
X132317205Y-107209744D01*
X132203937Y-107040226D01*
X132059774Y-106896063D01*
X131916005Y-106800000D01*
X132059774Y-106703937D01*
X132203937Y-106559774D01*
X132317205Y-106390256D01*
X132395226Y-106201898D01*
X132435000Y-106001939D01*
X132435000Y-105798061D01*
X132395226Y-105598102D01*
X132317205Y-105409744D01*
X132203937Y-105240226D01*
X132059774Y-105096063D01*
X131916005Y-105000000D01*
X132059774Y-104903937D01*
X132203937Y-104759774D01*
X132317205Y-104590256D01*
X132395226Y-104401898D01*
X132435000Y-104201939D01*
X132435000Y-103998061D01*
X132395226Y-103798102D01*
X132317205Y-103609744D01*
X132203937Y-103440226D01*
X132059774Y-103296063D01*
X131890256Y-103182795D01*
X131701898Y-103104774D01*
X131501939Y-103065000D01*
X131298061Y-103065000D01*
X131098102Y-103104774D01*
X130909744Y-103182795D01*
X130740226Y-103296063D01*
X130596063Y-103440226D01*
X130482795Y-103609744D01*
X130404774Y-103798102D01*
X130365000Y-103998061D01*
X127135000Y-103998061D01*
X127095226Y-103798102D01*
X127017205Y-103609744D01*
X126903937Y-103440226D01*
X126759774Y-103296063D01*
X126590256Y-103182795D01*
X126401898Y-103104774D01*
X126201939Y-103065000D01*
X125998061Y-103065000D01*
X125798102Y-103104774D01*
X125609744Y-103182795D01*
X125440226Y-103296063D01*
X125296063Y-103440226D01*
X125182795Y-103609744D01*
X125104774Y-103798102D01*
X125065000Y-103998061D01*
X124776740Y-103998061D01*
X124811004Y-103963798D01*
X124840001Y-103940001D01*
X124869392Y-103904188D01*
X124934974Y-103824277D01*
X125005546Y-103692247D01*
X125012294Y-103670001D01*
X125049003Y-103548986D01*
X125060000Y-103437333D01*
X125060000Y-103437323D01*
X125063676Y-103400000D01*
X125060000Y-103362677D01*
X125060000Y-101514801D01*
X125914802Y-100660000D01*
X127362678Y-100660000D01*
X127400000Y-100663676D01*
X127437322Y-100660000D01*
X127437333Y-100660000D01*
X127548986Y-100649003D01*
X127692247Y-100605546D01*
X127824276Y-100534974D01*
X127940001Y-100440001D01*
X127963804Y-100410997D01*
X129114579Y-99260222D01*
X130500000Y-99260222D01*
X130500000Y-99419778D01*
X130531128Y-99576268D01*
X130553385Y-99630000D01*
X130531128Y-99683732D01*
X130500000Y-99840222D01*
X130500000Y-99999778D01*
X130531128Y-100156268D01*
X130592188Y-100303679D01*
X130680832Y-100436345D01*
X130793655Y-100549168D01*
X130926321Y-100637812D01*
X131073732Y-100698872D01*
X131230222Y-100730000D01*
X131389778Y-100730000D01*
X131546268Y-100698872D01*
X131693679Y-100637812D01*
X131826345Y-100549168D01*
X131939168Y-100436345D01*
X132027812Y-100303679D01*
X132088872Y-100156268D01*
X132120000Y-99999778D01*
X132120000Y-99840222D01*
X132088872Y-99683732D01*
X132066615Y-99630000D01*
X132088872Y-99576268D01*
X132120000Y-99419778D01*
X132120000Y-99260222D01*
X132088872Y-99103732D01*
X132027812Y-98956321D01*
X131939168Y-98823655D01*
X131826345Y-98710832D01*
X131693679Y-98622188D01*
X131546268Y-98561128D01*
X131389778Y-98530000D01*
X131230222Y-98530000D01*
X131073732Y-98561128D01*
X130926321Y-98622188D01*
X130793655Y-98710832D01*
X130680832Y-98823655D01*
X130592188Y-98956321D01*
X130531128Y-99103732D01*
X130500000Y-99260222D01*
X129114579Y-99260222D01*
X134286730Y-94088072D01*
X135550000Y-94088072D01*
X135674482Y-94075812D01*
X135794180Y-94039502D01*
X135904494Y-93980537D01*
X136001185Y-93901185D01*
X136080537Y-93804494D01*
X136139502Y-93694180D01*
X136175812Y-93574482D01*
X136188072Y-93450000D01*
X136188072Y-91750000D01*
X136175812Y-91625518D01*
X136139502Y-91505820D01*
X136080537Y-91395506D01*
X136001185Y-91298815D01*
X135904494Y-91219463D01*
X135794180Y-91160498D01*
X135674482Y-91124188D01*
X135550000Y-91111928D01*
X133850000Y-91111928D01*
X133725518Y-91124188D01*
X133605820Y-91160498D01*
X133495506Y-91219463D01*
X133398815Y-91298815D01*
X133319463Y-91395506D01*
X133260498Y-91505820D01*
X133224188Y-91625518D01*
X133211928Y-91750000D01*
X133211928Y-93013270D01*
X127927059Y-98298140D01*
X127895226Y-98138102D01*
X127817205Y-97949744D01*
X127703937Y-97780226D01*
X127559774Y-97636063D01*
X127390256Y-97522795D01*
X127201898Y-97444774D01*
X127001939Y-97405000D01*
X126798061Y-97405000D01*
X126598102Y-97444774D01*
X126409744Y-97522795D01*
X126240226Y-97636063D01*
X126096063Y-97780226D01*
X125982795Y-97949744D01*
X125904774Y-98138102D01*
X125865000Y-98338061D01*
X125865000Y-98541939D01*
X125904774Y-98741898D01*
X125982795Y-98930256D01*
X126096063Y-99099774D01*
X126136289Y-99140000D01*
X125637325Y-99140000D01*
X125600000Y-99136324D01*
X125562675Y-99140000D01*
X125562667Y-99140000D01*
X125451014Y-99150997D01*
X125307753Y-99194454D01*
X125175724Y-99265026D01*
X125059999Y-99359999D01*
X125036201Y-99388997D01*
X124455650Y-99969548D01*
X124315720Y-99876050D01*
X124127362Y-99798029D01*
X123927403Y-99758255D01*
X123723525Y-99758255D01*
X123535000Y-99795755D01*
X123535000Y-93700000D01*
X123522799Y-93576118D01*
X123486664Y-93456996D01*
X123427983Y-93347213D01*
X123349013Y-93250987D01*
X123252787Y-93172017D01*
X123143004Y-93113336D01*
X123023882Y-93077201D01*
X122900000Y-93065000D01*
X114500000Y-93065000D01*
X114376118Y-93077201D01*
X114256996Y-93113336D01*
X114147213Y-93172017D01*
X114050987Y-93250987D01*
X113972017Y-93347213D01*
X113913336Y-93456996D01*
X113877201Y-93576118D01*
X113865000Y-93700000D01*
X113865000Y-95440198D01*
X108799801Y-90375000D01*
X109036260Y-90375000D01*
X109323158Y-90317932D01*
X109593411Y-90205990D01*
X109836632Y-90043475D01*
X110043475Y-89836632D01*
X110160000Y-89662240D01*
X110276525Y-89836632D01*
X110483368Y-90043475D01*
X110726589Y-90205990D01*
X110996842Y-90317932D01*
X111283740Y-90375000D01*
X111576260Y-90375000D01*
X111863158Y-90317932D01*
X112133411Y-90205990D01*
X112376632Y-90043475D01*
X112583475Y-89836632D01*
X112745990Y-89593411D01*
X112857932Y-89323158D01*
X112915000Y-89036260D01*
X112915000Y-88795000D01*
X113462762Y-88795000D01*
X113468992Y-88858254D01*
X113519528Y-89024850D01*
X113601595Y-89178386D01*
X113712038Y-89312962D01*
X113846614Y-89423405D01*
X114000150Y-89505472D01*
X114166746Y-89556008D01*
X114340000Y-89573072D01*
X115915000Y-89573072D01*
X116088254Y-89556008D01*
X116254850Y-89505472D01*
X116408386Y-89423405D01*
X116542962Y-89312962D01*
X116653405Y-89178386D01*
X116735472Y-89024850D01*
X116786008Y-88858254D01*
X116803072Y-88685000D01*
X116803072Y-86635000D01*
X116786008Y-86461746D01*
X116735472Y-86295150D01*
X116653405Y-86141614D01*
X116542962Y-86007038D01*
X116408386Y-85896595D01*
X116254850Y-85814528D01*
X116088254Y-85763992D01*
X115915000Y-85746928D01*
X114340000Y-85746928D01*
X114166746Y-85763992D01*
X114000150Y-85814528D01*
X113846614Y-85896595D01*
X113712038Y-86007038D01*
X113601595Y-86141614D01*
X113519528Y-86295150D01*
X113468992Y-86461746D01*
X113462762Y-86525000D01*
X112918072Y-86525000D01*
X112918072Y-85500000D01*
X112905812Y-85375518D01*
X112869502Y-85255820D01*
X112810537Y-85145506D01*
X112731185Y-85048815D01*
X112634494Y-84969463D01*
X112524180Y-84910498D01*
X112404482Y-84874188D01*
X112280000Y-84861928D01*
X110580000Y-84861928D01*
X110455518Y-84874188D01*
X110335820Y-84910498D01*
X110225506Y-84969463D01*
X110128815Y-85048815D01*
X110049463Y-85145506D01*
X109990498Y-85255820D01*
X109968487Y-85328380D01*
X109836632Y-85196525D01*
X109593411Y-85034010D01*
X109323158Y-84922068D01*
X109036260Y-84865000D01*
X108743740Y-84865000D01*
X108456842Y-84922068D01*
X108186589Y-85034010D01*
X107943368Y-85196525D01*
X107736525Y-85403368D01*
X107574010Y-85646589D01*
X107462068Y-85916842D01*
X107405000Y-86203740D01*
X107405000Y-86496260D01*
X107462068Y-86783158D01*
X107574010Y-87053411D01*
X107736525Y-87296632D01*
X107943368Y-87503475D01*
X108117760Y-87620000D01*
X107943368Y-87736525D01*
X107736525Y-87943368D01*
X107574010Y-88186589D01*
X107462068Y-88456842D01*
X107405000Y-88743740D01*
X107405000Y-89036260D01*
X107462068Y-89323158D01*
X107574010Y-89593411D01*
X107736525Y-89836632D01*
X107943368Y-90043475D01*
X107968099Y-90060000D01*
X105994802Y-90060000D01*
X103183804Y-87249003D01*
X103160001Y-87219999D01*
X103044276Y-87125026D01*
X102912247Y-87054454D01*
X102768986Y-87010997D01*
X102657333Y-87000000D01*
X102657322Y-87000000D01*
X102620000Y-86996324D01*
X102582678Y-87000000D01*
X101762430Y-87000000D01*
X101795000Y-86836260D01*
X101795000Y-86543740D01*
X101737932Y-86256842D01*
X101625990Y-85986589D01*
X101463475Y-85743368D01*
X101331620Y-85611513D01*
X101404180Y-85589502D01*
X101514494Y-85530537D01*
X101611185Y-85451185D01*
X101690537Y-85354494D01*
X101749502Y-85244180D01*
X101785812Y-85124482D01*
X101798072Y-85000000D01*
X101798072Y-83300000D01*
X101785812Y-83175518D01*
X101749502Y-83055820D01*
X101690537Y-82945506D01*
X101611185Y-82848815D01*
X101514494Y-82769463D01*
X101404180Y-82710498D01*
X101284482Y-82674188D01*
X101160000Y-82661928D01*
X99460000Y-82661928D01*
X99335518Y-82674188D01*
X99215820Y-82710498D01*
X99105506Y-82769463D01*
X99008815Y-82848815D01*
X98929463Y-82945506D01*
X98870498Y-83055820D01*
X98834188Y-83175518D01*
X98821928Y-83300000D01*
X91710000Y-83300000D01*
X91710000Y-81710000D01*
X138290001Y-81710000D01*
X138290000Y-129290000D01*
G37*
X138290000Y-129290000D02*
X91710000Y-129290000D01*
X91710000Y-124210000D01*
X104500715Y-124210000D01*
X104500715Y-128030000D01*
X111499286Y-128030000D01*
X111499286Y-127148072D01*
X112880000Y-127148072D01*
X113004482Y-127135812D01*
X113124180Y-127099502D01*
X113234494Y-127040537D01*
X113331185Y-126961185D01*
X113410537Y-126864494D01*
X113469502Y-126754180D01*
X113505812Y-126634482D01*
X113518072Y-126510000D01*
X113518072Y-125768061D01*
X115805000Y-125768061D01*
X115805000Y-125971939D01*
X115844774Y-126171898D01*
X115922795Y-126360256D01*
X116036063Y-126529774D01*
X116180226Y-126673937D01*
X116349744Y-126787205D01*
X116538102Y-126865226D01*
X116738061Y-126905000D01*
X116941939Y-126905000D01*
X117141898Y-126865226D01*
X117330256Y-126787205D01*
X117499774Y-126673937D01*
X117643937Y-126529774D01*
X117757205Y-126360256D01*
X117835226Y-126171898D01*
X117875000Y-125971939D01*
X117875000Y-125768061D01*
X117835226Y-125568102D01*
X117757205Y-125379744D01*
X117643937Y-125210226D01*
X117499774Y-125066063D01*
X117330256Y-124952795D01*
X117141898Y-124874774D01*
X116941939Y-124835000D01*
X116738061Y-124835000D01*
X116538102Y-124874774D01*
X116349744Y-124952795D01*
X116180226Y-125066063D01*
X116036063Y-125210226D01*
X115922795Y-125379744D01*
X115844774Y-125568102D01*
X115805000Y-125768061D01*
X113518072Y-125768061D01*
X113518072Y-125335639D01*
X113583937Y-125269774D01*
X113697205Y-125100256D01*
X113775226Y-124911898D01*
X113815000Y-124711939D01*
X113815000Y-124508061D01*
X113775226Y-124308102D01*
X113697205Y-124119744D01*
X113583937Y-123950226D01*
X113439774Y-123806063D01*
X113270256Y-123692795D01*
X113081898Y-123614774D01*
X112881939Y-123575000D01*
X112678061Y-123575000D01*
X112478102Y-123614774D01*
X112289744Y-123692795D01*
X112120226Y-123806063D01*
X112054361Y-123871928D01*
X110880000Y-123871928D01*
X110755518Y-123884188D01*
X110635820Y-123920498D01*
X110525506Y-123979463D01*
X110428815Y-124058815D01*
X110349463Y-124155506D01*
X110320335Y-124210000D01*
X104500715Y-124210000D01*
X91710000Y-124210000D01*
X91710000Y-123030000D01*
X100416603Y-123030000D01*
X100415000Y-123038061D01*
X100415000Y-123241939D01*
X100454774Y-123441898D01*
X100532795Y-123630256D01*
X100646063Y-123799774D01*
X100790226Y-123943937D01*
X100959744Y-124057205D01*
X101148102Y-124135226D01*
X101348061Y-124175000D01*
X101551939Y-124175000D01*
X101751898Y-124135226D01*
X101940256Y-124057205D01*
X102109774Y-123943937D01*
X102253937Y-123799774D01*
X102367205Y-123630256D01*
X102445226Y-123441898D01*
X102485000Y-123241939D01*
X102485000Y-123038061D01*
X102483397Y-123030000D01*
X102749286Y-123030000D01*
X102749286Y-119210000D01*
X91710000Y-119210000D01*
X91710000Y-115878061D01*
X110205000Y-115878061D01*
X110205000Y-116081939D01*
X110244774Y-116281898D01*
X110322795Y-116470256D01*
X110436063Y-116639774D01*
X110580226Y-116783937D01*
X110749744Y-116897205D01*
X110938102Y-116975226D01*
X111138061Y-117015000D01*
X111341939Y-117015000D01*
X111541898Y-116975226D01*
X111730256Y-116897205D01*
X111899774Y-116783937D01*
X112043937Y-116639774D01*
X112157205Y-116470256D01*
X112235226Y-116281898D01*
X112275000Y-116081939D01*
X112275000Y-115878061D01*
X112235226Y-115678102D01*
X112157205Y-115489744D01*
X112043937Y-115320226D01*
X111899774Y-115176063D01*
X111730256Y-115062795D01*
X111541898Y-114984774D01*
X111341939Y-114945000D01*
X111138061Y-114945000D01*
X110938102Y-114984774D01*
X110749744Y-115062795D01*
X110580226Y-115176063D01*
X110436063Y-115320226D01*
X110322795Y-115489744D01*
X110244774Y-115678102D01*
X110205000Y-115878061D01*
X91710000Y-115878061D01*
X91710000Y-109906250D01*
X97016928Y-109906250D01*
X97016928Y-110343750D01*
X97033392Y-110510908D01*
X97082150Y-110671642D01*
X97161329Y-110819775D01*
X97237426Y-110912500D01*
X97161329Y-111005225D01*
X97082150Y-111153358D01*
X97033392Y-111314092D01*
X97016928Y-111481250D01*
X97016928Y-111918750D01*
X97033392Y-112085908D01*
X97082150Y-112246642D01*
X97161329Y-112394775D01*
X97267885Y-112524615D01*
X97397725Y-112631171D01*
X97545858Y-112710350D01*
X97706592Y-112759108D01*
X97873750Y-112775572D01*
X98386250Y-112775572D01*
X98553408Y-112759108D01*
X98714142Y-112710350D01*
X98846327Y-112639695D01*
X98772795Y-112749744D01*
X98694774Y-112938102D01*
X98655000Y-113138061D01*
X98655000Y-113341939D01*
X98694774Y-113541898D01*
X98772795Y-113730256D01*
X98886063Y-113899774D01*
X99030226Y-114043937D01*
X99199744Y-114157205D01*
X99388102Y-114235226D01*
X99588061Y-114275000D01*
X99791939Y-114275000D01*
X99991898Y-114235226D01*
X100180256Y-114157205D01*
X100349774Y-114043937D01*
X100493937Y-113899774D01*
X100607205Y-113730256D01*
X100685226Y-113541898D01*
X100725000Y-113341939D01*
X100725000Y-113138061D01*
X100685226Y-112938102D01*
X100607205Y-112749744D01*
X100493937Y-112580226D01*
X100349774Y-112436063D01*
X100220436Y-112349642D01*
X100250600Y-112337148D01*
X100420118Y-112223880D01*
X100564281Y-112079717D01*
X100677549Y-111910199D01*
X100755570Y-111721841D01*
X100795344Y-111521882D01*
X100795344Y-111318004D01*
X100755570Y-111118045D01*
X100689064Y-110957485D01*
X100745226Y-110821898D01*
X100785000Y-110621939D01*
X100785000Y-110418061D01*
X100745226Y-110218102D01*
X100667205Y-110029744D01*
X100553937Y-109860226D01*
X100409774Y-109716063D01*
X100240256Y-109602795D01*
X100051898Y-109524774D01*
X99851939Y-109485000D01*
X99789540Y-109485000D01*
X99704276Y-109415026D01*
X99572247Y-109344454D01*
X99428986Y-109300997D01*
X99317333Y-109290000D01*
X99317322Y-109290000D01*
X99280000Y-109286324D01*
X99242678Y-109290000D01*
X98979461Y-109290000D01*
X98862275Y-109193829D01*
X98714142Y-109114650D01*
X98553408Y-109065892D01*
X98386250Y-109049428D01*
X97873750Y-109049428D01*
X97706592Y-109065892D01*
X97545858Y-109114650D01*
X97397725Y-109193829D01*
X97267885Y-109300385D01*
X97161329Y-109430225D01*
X97082150Y-109578358D01*
X97033392Y-109739092D01*
X97016928Y-109906250D01*
X91710000Y-109906250D01*
X91710000Y-99793589D01*
X107075000Y-99793589D01*
X107075000Y-100066411D01*
X107128225Y-100333989D01*
X107232629Y-100586043D01*
X107384201Y-100812886D01*
X107577114Y-101005799D01*
X107803957Y-101157371D01*
X108056011Y-101261775D01*
X108323589Y-101315000D01*
X108596411Y-101315000D01*
X108863989Y-101261775D01*
X109116043Y-101157371D01*
X109342886Y-101005799D01*
X109535799Y-100812886D01*
X109687371Y-100586043D01*
X109791775Y-100333989D01*
X109845000Y-100066411D01*
X109845000Y-99793589D01*
X109791775Y-99526011D01*
X109687371Y-99273957D01*
X109535799Y-99047114D01*
X109342886Y-98854201D01*
X109116043Y-98702629D01*
X108863989Y-98598225D01*
X108596411Y-98545000D01*
X108323589Y-98545000D01*
X108056011Y-98598225D01*
X107803957Y-98702629D01*
X107577114Y-98854201D01*
X107384201Y-99047114D01*
X107232629Y-99273957D01*
X107128225Y-99526011D01*
X107075000Y-99793589D01*
X91710000Y-99793589D01*
X91710000Y-83300000D01*
X98821928Y-83300000D01*
X98821928Y-85000000D01*
X98834188Y-85124482D01*
X98870498Y-85244180D01*
X98929463Y-85354494D01*
X99008815Y-85451185D01*
X99105506Y-85530537D01*
X99215820Y-85589502D01*
X99288380Y-85611513D01*
X99156525Y-85743368D01*
X98994010Y-85986589D01*
X98882068Y-86256842D01*
X98825000Y-86543740D01*
X98825000Y-86836260D01*
X98882068Y-87123158D01*
X98994010Y-87393411D01*
X99156525Y-87636632D01*
X99363368Y-87843475D01*
X99537760Y-87960000D01*
X99363368Y-88076525D01*
X99156525Y-88283368D01*
X98994010Y-88526589D01*
X98882068Y-88796842D01*
X98825000Y-89083740D01*
X98825000Y-89376260D01*
X98882068Y-89663158D01*
X98994010Y-89933411D01*
X99156525Y-90176632D01*
X99363368Y-90383475D01*
X99537760Y-90500000D01*
X99363368Y-90616525D01*
X99156525Y-90823368D01*
X98994010Y-91066589D01*
X98882068Y-91336842D01*
X98825000Y-91623740D01*
X98825000Y-91916260D01*
X98882068Y-92203158D01*
X98994010Y-92473411D01*
X99156525Y-92716632D01*
X99363368Y-92923475D01*
X99606589Y-93085990D01*
X99876842Y-93197932D01*
X100163740Y-93255000D01*
X100456260Y-93255000D01*
X100676408Y-93211210D01*
X101206200Y-93741002D01*
X101229999Y-93770001D01*
X101312827Y-93837976D01*
X101178102Y-93864774D01*
X100989744Y-93942795D01*
X100820226Y-94056063D01*
X100676063Y-94200226D01*
X100562795Y-94369744D01*
X100484774Y-94558102D01*
X100445000Y-94758061D01*
X100445000Y-94961939D01*
X100484774Y-95161898D01*
X100562795Y-95350256D01*
X100676063Y-95519774D01*
X100820226Y-95663937D01*
X100989744Y-95777205D01*
X101178102Y-95855226D01*
X101378061Y-95895000D01*
X101581939Y-95895000D01*
X101781898Y-95855226D01*
X101970256Y-95777205D01*
X102139774Y-95663937D01*
X102283937Y-95519774D01*
X102397205Y-95350256D01*
X102475226Y-95161898D01*
X102515000Y-94961939D01*
X102515000Y-94758061D01*
X102475226Y-94558102D01*
X102397205Y-94369744D01*
X102283937Y-94200226D01*
X102139774Y-94056063D01*
X102040903Y-93990000D01*
X106835199Y-93990000D01*
X110970000Y-98124802D01*
X110970001Y-102072668D01*
X110966324Y-102110000D01*
X110980998Y-102258985D01*
X111024454Y-102402246D01*
X111095026Y-102534276D01*
X111164556Y-102618997D01*
X111190000Y-102650001D01*
X111218998Y-102673799D01*
X111940198Y-103395000D01*
X111028612Y-103395000D01*
X110902633Y-103327663D01*
X110764085Y-103285635D01*
X110656105Y-103275000D01*
X110620000Y-103271444D01*
X110583895Y-103275000D01*
X110276105Y-103275000D01*
X110240000Y-103271444D01*
X110203895Y-103275000D01*
X110095915Y-103285635D01*
X109957367Y-103327663D01*
X109829680Y-103395913D01*
X109717762Y-103487762D01*
X109715698Y-103490278D01*
X109621599Y-103508995D01*
X109474188Y-103570055D01*
X109341522Y-103658699D01*
X109228699Y-103771522D01*
X109180822Y-103843176D01*
X108591307Y-103253661D01*
X108571005Y-103151599D01*
X108509945Y-103004188D01*
X108421301Y-102871522D01*
X108308478Y-102758699D01*
X108175812Y-102670055D01*
X108028401Y-102608995D01*
X107871911Y-102577867D01*
X107712355Y-102577867D01*
X107555865Y-102608995D01*
X107408454Y-102670055D01*
X107275788Y-102758699D01*
X107162965Y-102871522D01*
X107074321Y-103004188D01*
X107047922Y-103067922D01*
X106984188Y-103094321D01*
X106851522Y-103182965D01*
X106738699Y-103295788D01*
X106650055Y-103428454D01*
X106588995Y-103575865D01*
X106557867Y-103732355D01*
X106557867Y-103891911D01*
X106588995Y-104048401D01*
X106650055Y-104195812D01*
X106738699Y-104328478D01*
X106851522Y-104441301D01*
X106984188Y-104529945D01*
X107131599Y-104591005D01*
X107233661Y-104611307D01*
X108384718Y-105762364D01*
X108379549Y-105761781D01*
X108374375Y-105761708D01*
X108369205Y-105761199D01*
X108338199Y-105761199D01*
X108271058Y-105760254D01*
X108265931Y-105761199D01*
X108184072Y-105761199D01*
X108178945Y-105760254D01*
X108111760Y-105761199D01*
X108080795Y-105761199D01*
X108075636Y-105761707D01*
X108070454Y-105761780D01*
X108039769Y-105765239D01*
X107993233Y-105767196D01*
X107975056Y-105771613D01*
X107972815Y-105771834D01*
X107967447Y-105773462D01*
X107932868Y-105781866D01*
X107872140Y-105794836D01*
X107843617Y-105807123D01*
X107825000Y-105812205D01*
X107806382Y-105807123D01*
X107777862Y-105794837D01*
X107717129Y-105781865D01*
X107682570Y-105773467D01*
X107677185Y-105771834D01*
X107674937Y-105771613D01*
X107656766Y-105767197D01*
X107610232Y-105765239D01*
X107579549Y-105761781D01*
X107574375Y-105761708D01*
X107569205Y-105761199D01*
X107538199Y-105761199D01*
X107471058Y-105760254D01*
X107465931Y-105761199D01*
X107384072Y-105761199D01*
X107378945Y-105760254D01*
X107311760Y-105761199D01*
X107280795Y-105761199D01*
X107275636Y-105761707D01*
X107270454Y-105761780D01*
X107239769Y-105765239D01*
X107193233Y-105767196D01*
X107175056Y-105771613D01*
X107172815Y-105771834D01*
X107167447Y-105773462D01*
X107132868Y-105781866D01*
X107072140Y-105794836D01*
X107043617Y-105807123D01*
X107013637Y-105815307D01*
X106958117Y-105843011D01*
X106901806Y-105869160D01*
X106876702Y-105887506D01*
X106849282Y-105902162D01*
X106801285Y-105941553D01*
X106796094Y-105945575D01*
X106791251Y-105945507D01*
X106786105Y-105945000D01*
X106755076Y-105945000D01*
X106733251Y-105944694D01*
X106723485Y-105944283D01*
X106721866Y-105944535D01*
X106687912Y-105944059D01*
X106682809Y-105945000D01*
X106422646Y-105945000D01*
X106248459Y-105770813D01*
X106225438Y-105742762D01*
X106113520Y-105650913D01*
X105985833Y-105582663D01*
X105847285Y-105540635D01*
X105805819Y-105536551D01*
X105703200Y-105526444D01*
X105669802Y-105529733D01*
X105583679Y-105472188D01*
X105436268Y-105411128D01*
X105279778Y-105380000D01*
X105120222Y-105380000D01*
X104963732Y-105411128D01*
X104816321Y-105472188D01*
X104683655Y-105560832D01*
X104591410Y-105653077D01*
X104584242Y-105648712D01*
X104583786Y-105648338D01*
X104582488Y-105647644D01*
X104547032Y-105626054D01*
X104494939Y-105592294D01*
X104465228Y-105580473D01*
X104443534Y-105568082D01*
X104431164Y-105546420D01*
X104419326Y-105516669D01*
X104385574Y-105464592D01*
X104363985Y-105429139D01*
X104363293Y-105427844D01*
X104362919Y-105427389D01*
X104353288Y-105411572D01*
X104322034Y-105377570D01*
X104320640Y-105375872D01*
X104301327Y-105351655D01*
X104297732Y-105347958D01*
X104294460Y-105343971D01*
X104272557Y-105322068D01*
X104225686Y-105273866D01*
X104221412Y-105270923D01*
X104175018Y-105224529D01*
X104172067Y-105220244D01*
X104123867Y-105173378D01*
X104101979Y-105151490D01*
X104097984Y-105148212D01*
X104094275Y-105144605D01*
X104070044Y-105125282D01*
X104068374Y-105123912D01*
X104034377Y-105092662D01*
X104018561Y-105083031D01*
X104018105Y-105082657D01*
X104016807Y-105081963D01*
X103981351Y-105060373D01*
X103929258Y-105026613D01*
X103899547Y-105014792D01*
X103877853Y-105002401D01*
X103865483Y-104980739D01*
X103853645Y-104950988D01*
X103819893Y-104898911D01*
X103798304Y-104863458D01*
X103797612Y-104862163D01*
X103797238Y-104861708D01*
X103787607Y-104845891D01*
X103756353Y-104811889D01*
X103754959Y-104810191D01*
X103735646Y-104785974D01*
X103732051Y-104782277D01*
X103728779Y-104778290D01*
X103706876Y-104756387D01*
X103660005Y-104708185D01*
X103655731Y-104705242D01*
X103609337Y-104658848D01*
X103606386Y-104654563D01*
X103558186Y-104607697D01*
X103536298Y-104585809D01*
X103532303Y-104582531D01*
X103528594Y-104578924D01*
X103504363Y-104559601D01*
X103502693Y-104558231D01*
X103468696Y-104526981D01*
X103452880Y-104517350D01*
X103452424Y-104516976D01*
X103451126Y-104516282D01*
X103415670Y-104494692D01*
X103363577Y-104460932D01*
X103333866Y-104449111D01*
X103306104Y-104433254D01*
X103247198Y-104413563D01*
X103188888Y-104392237D01*
X103157277Y-104387322D01*
X103126642Y-104378030D01*
X103064876Y-104371949D01*
X103035920Y-104368274D01*
X103017466Y-104349820D01*
X102999027Y-104330857D01*
X102996711Y-104328337D01*
X102996248Y-104327999D01*
X102970591Y-104301612D01*
X102966310Y-104298664D01*
X102938459Y-104270813D01*
X102915438Y-104242762D01*
X102803520Y-104150913D01*
X102675833Y-104082663D01*
X102643012Y-104072707D01*
X102631137Y-104060832D01*
X102498471Y-103972188D01*
X102351060Y-103911128D01*
X102194570Y-103880000D01*
X102035014Y-103880000D01*
X101878524Y-103911128D01*
X101731113Y-103972188D01*
X101598447Y-104060832D01*
X101485624Y-104173655D01*
X101396980Y-104306321D01*
X101335920Y-104453732D01*
X101304792Y-104610222D01*
X101304792Y-104769778D01*
X101335920Y-104926268D01*
X101362319Y-104990000D01*
X101335920Y-105053732D01*
X101304792Y-105210222D01*
X101304792Y-105369778D01*
X101335920Y-105526268D01*
X101396980Y-105673679D01*
X101485624Y-105806345D01*
X101598447Y-105919168D01*
X101731113Y-106007812D01*
X101878524Y-106068872D01*
X102035014Y-106100000D01*
X102052354Y-106100000D01*
X102889637Y-106937284D01*
X102889651Y-106937397D01*
X102895738Y-106999196D01*
X102904699Y-107028736D01*
X102909439Y-107059221D01*
X102930766Y-107117536D01*
X102950450Y-107176426D01*
X102965757Y-107203227D01*
X102977172Y-107231914D01*
X103010941Y-107284019D01*
X103028751Y-107313267D01*
X103031814Y-107318997D01*
X103033467Y-107321011D01*
X103043212Y-107337015D01*
X103074756Y-107371333D01*
X103093773Y-107395179D01*
X103097372Y-107398880D01*
X103100647Y-107402871D01*
X103122551Y-107424775D01*
X103169413Y-107472969D01*
X103173691Y-107475915D01*
X103234215Y-107536439D01*
X103237161Y-107540717D01*
X103285355Y-107587579D01*
X103307260Y-107609484D01*
X103311251Y-107612760D01*
X103314952Y-107616358D01*
X103338786Y-107635366D01*
X103373103Y-107666910D01*
X103389114Y-107676660D01*
X103391133Y-107678317D01*
X103396876Y-107681387D01*
X103426123Y-107699197D01*
X103478217Y-107732959D01*
X103506902Y-107744373D01*
X103533711Y-107759684D01*
X103592592Y-107779365D01*
X103650894Y-107800688D01*
X103681391Y-107805431D01*
X103710935Y-107814393D01*
X103772750Y-107820481D01*
X103774315Y-107820680D01*
X103776150Y-107822981D01*
X103779743Y-107826676D01*
X103783007Y-107830653D01*
X103804905Y-107852551D01*
X103819493Y-107867553D01*
X103827072Y-107875797D01*
X103828587Y-107876904D01*
X103851793Y-107900768D01*
X103856060Y-107903706D01*
X104576546Y-108624193D01*
X104599562Y-108652238D01*
X104711480Y-108744087D01*
X104839167Y-108812337D01*
X104931105Y-108840226D01*
X104977714Y-108854365D01*
X105105411Y-108866942D01*
X104710000Y-109262353D01*
X104218458Y-108770812D01*
X104195438Y-108742762D01*
X104083520Y-108650913D01*
X103955833Y-108582663D01*
X103817285Y-108540635D01*
X103709305Y-108530000D01*
X103673200Y-108526444D01*
X103637095Y-108530000D01*
X102860201Y-108530000D01*
X102773679Y-108472188D01*
X102626268Y-108411128D01*
X102469778Y-108380000D01*
X102310222Y-108380000D01*
X102153732Y-108411128D01*
X102006321Y-108472188D01*
X101873655Y-108560832D01*
X101760832Y-108673655D01*
X101672188Y-108806321D01*
X101611128Y-108953732D01*
X101580000Y-109110222D01*
X101580000Y-109269778D01*
X101611128Y-109426268D01*
X101637527Y-109490000D01*
X101611128Y-109553732D01*
X101580000Y-109710222D01*
X101580000Y-109869778D01*
X101611128Y-110026268D01*
X101672188Y-110173679D01*
X101760832Y-110306345D01*
X101873655Y-110419168D01*
X102006321Y-110507812D01*
X102153732Y-110568872D01*
X102310222Y-110600000D01*
X102469778Y-110600000D01*
X102626268Y-110568872D01*
X102773679Y-110507812D01*
X102860201Y-110450000D01*
X103182354Y-110450000D01*
X103751546Y-111019193D01*
X103774562Y-111047238D01*
X103886480Y-111139087D01*
X104014167Y-111207337D01*
X104110686Y-111236616D01*
X104152714Y-111249365D01*
X104296800Y-111263556D01*
X104332905Y-111260000D01*
X105087095Y-111260000D01*
X105123200Y-111263556D01*
X105159305Y-111260000D01*
X105267285Y-111249365D01*
X105405833Y-111207337D01*
X105533520Y-111139087D01*
X105645438Y-111047238D01*
X105668458Y-111019188D01*
X106065000Y-110622647D01*
X106251546Y-110809192D01*
X106274562Y-110837238D01*
X106386480Y-110929087D01*
X106514167Y-110997337D01*
X106596624Y-111022350D01*
X106652714Y-111039365D01*
X106661528Y-111040233D01*
X106760695Y-111050000D01*
X106760702Y-111050000D01*
X106796799Y-111053555D01*
X106832896Y-111050000D01*
X108657691Y-111050000D01*
X108703106Y-111087271D01*
X108730202Y-111101754D01*
X108755010Y-111119885D01*
X108811305Y-111146029D01*
X108866850Y-111173747D01*
X108896516Y-111181846D01*
X108924769Y-111194014D01*
X108985464Y-111206972D01*
X109017877Y-111214850D01*
X109024691Y-111216917D01*
X109027533Y-111217197D01*
X109045772Y-111221630D01*
X109092359Y-111223592D01*
X109122392Y-111226974D01*
X109127533Y-111227046D01*
X109132671Y-111227552D01*
X109163701Y-111227552D01*
X109230883Y-111228492D01*
X109235980Y-111227552D01*
X109324024Y-111227552D01*
X109329121Y-111228492D01*
X109396303Y-111227552D01*
X109427329Y-111227552D01*
X109432467Y-111227046D01*
X109437612Y-111226974D01*
X109467643Y-111223592D01*
X109514227Y-111221630D01*
X109532465Y-111217197D01*
X109535309Y-111216917D01*
X109542127Y-111214849D01*
X109574535Y-111206972D01*
X109635234Y-111194013D01*
X109663483Y-111181846D01*
X109693149Y-111173747D01*
X109748688Y-111146032D01*
X109755000Y-111143101D01*
X109755000Y-111221939D01*
X109794774Y-111421898D01*
X109872795Y-111610256D01*
X109986063Y-111779774D01*
X110130226Y-111923937D01*
X110299744Y-112037205D01*
X110488102Y-112115226D01*
X110688061Y-112155000D01*
X110891939Y-112155000D01*
X111091898Y-112115226D01*
X111280256Y-112037205D01*
X111449774Y-111923937D01*
X111593937Y-111779774D01*
X111707205Y-111610256D01*
X111761159Y-111480001D01*
X112928238Y-111480001D01*
X112942188Y-111513679D01*
X113019911Y-111630000D01*
X112942188Y-111746321D01*
X112881128Y-111893732D01*
X112850000Y-112050222D01*
X112850000Y-112209778D01*
X112881128Y-112366268D01*
X112942188Y-112513679D01*
X113030832Y-112646345D01*
X113143655Y-112759168D01*
X113276321Y-112847812D01*
X113423732Y-112908872D01*
X113580222Y-112940000D01*
X113584130Y-112940000D01*
X113500226Y-112996063D01*
X113356063Y-113140226D01*
X113242795Y-113309744D01*
X113164774Y-113498102D01*
X113125000Y-113698061D01*
X113125000Y-113901939D01*
X113164774Y-114101898D01*
X113242795Y-114290256D01*
X113356063Y-114459774D01*
X113500226Y-114603937D01*
X113669744Y-114717205D01*
X113858102Y-114795226D01*
X114058061Y-114835000D01*
X114261939Y-114835000D01*
X114461898Y-114795226D01*
X114650256Y-114717205D01*
X114819774Y-114603937D01*
X114930484Y-114493227D01*
X114936148Y-114511898D01*
X114954454Y-114572246D01*
X115025026Y-114704276D01*
X115035637Y-114717205D01*
X115119999Y-114820001D01*
X115149002Y-114843803D01*
X115905537Y-115600339D01*
X115858102Y-115609774D01*
X115669744Y-115687795D01*
X115500226Y-115801063D01*
X115456289Y-115845000D01*
X114277335Y-115845000D01*
X114240012Y-115841324D01*
X114202689Y-115845000D01*
X114202679Y-115845000D01*
X114091026Y-115855997D01*
X113947765Y-115899454D01*
X113815736Y-115970026D01*
X113700011Y-116064999D01*
X113676213Y-116093997D01*
X112020211Y-117750000D01*
X109917333Y-117750000D01*
X109880000Y-117746323D01*
X109842667Y-117750000D01*
X109731014Y-117760997D01*
X109587753Y-117804454D01*
X109455724Y-117875026D01*
X109339999Y-117969999D01*
X109316201Y-117998997D01*
X108620199Y-118695000D01*
X108558061Y-118695000D01*
X108358102Y-118734774D01*
X108169744Y-118812795D01*
X108000226Y-118926063D01*
X107964361Y-118961928D01*
X106760000Y-118961928D01*
X106635518Y-118974188D01*
X106515820Y-119010498D01*
X106405506Y-119069463D01*
X106308815Y-119148815D01*
X106229463Y-119245506D01*
X106170498Y-119355820D01*
X106134188Y-119475518D01*
X106121928Y-119600000D01*
X106121928Y-121600000D01*
X106134188Y-121724482D01*
X106170498Y-121844180D01*
X106229463Y-121954494D01*
X106308815Y-122051185D01*
X106405506Y-122130537D01*
X106515820Y-122189502D01*
X106635518Y-122225812D01*
X106760000Y-122238072D01*
X108760000Y-122238072D01*
X108884482Y-122225812D01*
X109004180Y-122189502D01*
X109114494Y-122130537D01*
X109211185Y-122051185D01*
X109290537Y-121954494D01*
X109349502Y-121844180D01*
X109385812Y-121724482D01*
X109398072Y-121600000D01*
X109398072Y-120455639D01*
X109463937Y-120389774D01*
X109571928Y-120228154D01*
X109571928Y-121260000D01*
X109584188Y-121384482D01*
X109620498Y-121504180D01*
X109679463Y-121614494D01*
X109758815Y-121711185D01*
X109855506Y-121790537D01*
X109965820Y-121849502D01*
X110085518Y-121885812D01*
X110210000Y-121898072D01*
X112210000Y-121898072D01*
X112334482Y-121885812D01*
X112454180Y-121849502D01*
X112564494Y-121790537D01*
X112661185Y-121711185D01*
X112740537Y-121614494D01*
X112799502Y-121504180D01*
X112835812Y-121384482D01*
X112848072Y-121260000D01*
X112848072Y-120875997D01*
X112909744Y-120917205D01*
X113098102Y-120995226D01*
X113298061Y-121035000D01*
X113501939Y-121035000D01*
X113701898Y-120995226D01*
X113890256Y-120917205D01*
X114059774Y-120803937D01*
X114103711Y-120760000D01*
X118085199Y-120760000D01*
X118734776Y-121409577D01*
X118608102Y-121434774D01*
X118419744Y-121512795D01*
X118250226Y-121626063D01*
X118106063Y-121770226D01*
X117992795Y-121939744D01*
X117914774Y-122128102D01*
X117875000Y-122328061D01*
X117875000Y-122531939D01*
X117914774Y-122731898D01*
X117992795Y-122920256D01*
X118106063Y-123089774D01*
X118250226Y-123233937D01*
X118419744Y-123347205D01*
X118608102Y-123425226D01*
X118808061Y-123465000D01*
X119011939Y-123465000D01*
X119211898Y-123425226D01*
X119400256Y-123347205D01*
X119569774Y-123233937D01*
X119713937Y-123089774D01*
X119827205Y-122920256D01*
X119905226Y-122731898D01*
X119930423Y-122605225D01*
X120206200Y-122881002D01*
X120229999Y-122910001D01*
X120258997Y-122933799D01*
X120345723Y-123004974D01*
X120441266Y-123056043D01*
X120477753Y-123075546D01*
X120621014Y-123119003D01*
X120732667Y-123130000D01*
X120732676Y-123130000D01*
X120769999Y-123133676D01*
X120807322Y-123130000D01*
X125686289Y-123130000D01*
X125730226Y-123173937D01*
X125784198Y-123210000D01*
X124393572Y-123210000D01*
X124393572Y-127030000D01*
X131606429Y-127030000D01*
X131606429Y-123210000D01*
X131034500Y-123210000D01*
X131137371Y-123056043D01*
X131241775Y-122803989D01*
X131295000Y-122536411D01*
X131295000Y-122263589D01*
X131241775Y-121996011D01*
X131137371Y-121743957D01*
X130985799Y-121517114D01*
X130792886Y-121324201D01*
X130566043Y-121172629D01*
X130313989Y-121068225D01*
X130046411Y-121015000D01*
X129773589Y-121015000D01*
X129506011Y-121068225D01*
X129253957Y-121172629D01*
X129027114Y-121324201D01*
X128834201Y-121517114D01*
X128772136Y-121610000D01*
X127093711Y-121610000D01*
X127049774Y-121566063D01*
X126880256Y-121452795D01*
X126691898Y-121374774D01*
X126491939Y-121335000D01*
X126288061Y-121335000D01*
X126088102Y-121374774D01*
X125899744Y-121452795D01*
X125730226Y-121566063D01*
X125686289Y-121610000D01*
X121084802Y-121610000D01*
X118963804Y-119489003D01*
X118940001Y-119459999D01*
X118824276Y-119365026D01*
X118692247Y-119294454D01*
X118548986Y-119250997D01*
X118437333Y-119240000D01*
X118437322Y-119240000D01*
X118400000Y-119236324D01*
X118362678Y-119240000D01*
X114103711Y-119240000D01*
X114079256Y-119215545D01*
X114994802Y-118300000D01*
X116722678Y-118300000D01*
X116760000Y-118303676D01*
X116797322Y-118300000D01*
X116797333Y-118300000D01*
X116908986Y-118289003D01*
X117052247Y-118245546D01*
X117184276Y-118174974D01*
X117300001Y-118080001D01*
X117323803Y-118050998D01*
X117601003Y-117773799D01*
X117630001Y-117750001D01*
X117724974Y-117634276D01*
X117795546Y-117502247D01*
X117839003Y-117358986D01*
X117850000Y-117247333D01*
X117850000Y-117247324D01*
X117853676Y-117210001D01*
X117850000Y-117172678D01*
X117850000Y-116578061D01*
X118525000Y-116578061D01*
X118525000Y-116781939D01*
X118564774Y-116981898D01*
X118642795Y-117170256D01*
X118756063Y-117339774D01*
X118900226Y-117483937D01*
X119069744Y-117597205D01*
X119258102Y-117675226D01*
X119458061Y-117715000D01*
X119661939Y-117715000D01*
X119861898Y-117675226D01*
X120050256Y-117597205D01*
X120219774Y-117483937D01*
X120363937Y-117339774D01*
X120477205Y-117170256D01*
X120555226Y-116981898D01*
X120595000Y-116781939D01*
X120595000Y-116578061D01*
X120555226Y-116378102D01*
X120477205Y-116189744D01*
X120363937Y-116020226D01*
X120219774Y-115876063D01*
X120050256Y-115762795D01*
X119861898Y-115684774D01*
X119661939Y-115645000D01*
X119458061Y-115645000D01*
X119258102Y-115684774D01*
X119069744Y-115762795D01*
X118900226Y-115876063D01*
X118756063Y-116020226D01*
X118642795Y-116189744D01*
X118564774Y-116378102D01*
X118525000Y-116578061D01*
X117850000Y-116578061D01*
X117850000Y-115747322D01*
X117853676Y-115709999D01*
X117850000Y-115672676D01*
X117850000Y-115672667D01*
X117839003Y-115561014D01*
X117795546Y-115417753D01*
X117724974Y-115285724D01*
X117691553Y-115245000D01*
X117653799Y-115198996D01*
X117653795Y-115198992D01*
X117630001Y-115169999D01*
X117601008Y-115146205D01*
X116562863Y-114108061D01*
X117115000Y-114108061D01*
X117115000Y-114311939D01*
X117154774Y-114511898D01*
X117232795Y-114700256D01*
X117346063Y-114869774D01*
X117490226Y-115013937D01*
X117659744Y-115127205D01*
X117848102Y-115205226D01*
X118048061Y-115245000D01*
X118251939Y-115245000D01*
X118451898Y-115205226D01*
X118640256Y-115127205D01*
X118809774Y-115013937D01*
X118953937Y-114869774D01*
X119067205Y-114700256D01*
X119145226Y-114511898D01*
X119185000Y-114311939D01*
X119185000Y-114193589D01*
X125475000Y-114193589D01*
X125475000Y-114466411D01*
X125528225Y-114733989D01*
X125632629Y-114986043D01*
X125784201Y-115212886D01*
X125977114Y-115405799D01*
X126203957Y-115557371D01*
X126456011Y-115661775D01*
X126723589Y-115715000D01*
X126996411Y-115715000D01*
X127263989Y-115661775D01*
X127516043Y-115557371D01*
X127742886Y-115405799D01*
X127935799Y-115212886D01*
X128087371Y-114986043D01*
X128191775Y-114733989D01*
X128245000Y-114466411D01*
X128245000Y-114193589D01*
X128191775Y-113926011D01*
X128087371Y-113673957D01*
X127935799Y-113447114D01*
X127742886Y-113254201D01*
X127516043Y-113102629D01*
X127263989Y-112998225D01*
X127263165Y-112998061D01*
X132465000Y-112998061D01*
X132465000Y-113201939D01*
X132504774Y-113401898D01*
X132582795Y-113590256D01*
X132696063Y-113759774D01*
X132840226Y-113903937D01*
X133009744Y-114017205D01*
X133198102Y-114095226D01*
X133398061Y-114135000D01*
X133601939Y-114135000D01*
X133801898Y-114095226D01*
X133990256Y-114017205D01*
X134159774Y-113903937D01*
X134303937Y-113759774D01*
X134417205Y-113590256D01*
X134495226Y-113401898D01*
X134535000Y-113201939D01*
X134535000Y-112998061D01*
X134495226Y-112798102D01*
X134417205Y-112609744D01*
X134303937Y-112440226D01*
X134159774Y-112296063D01*
X133990256Y-112182795D01*
X133801898Y-112104774D01*
X133601939Y-112065000D01*
X133398061Y-112065000D01*
X133198102Y-112104774D01*
X133009744Y-112182795D01*
X132840226Y-112296063D01*
X132696063Y-112440226D01*
X132582795Y-112609744D01*
X132504774Y-112798102D01*
X132465000Y-112998061D01*
X127263165Y-112998061D01*
X126996411Y-112945000D01*
X126723589Y-112945000D01*
X126456011Y-112998225D01*
X126203957Y-113102629D01*
X125977114Y-113254201D01*
X125784201Y-113447114D01*
X125632629Y-113673957D01*
X125528225Y-113926011D01*
X125475000Y-114193589D01*
X119185000Y-114193589D01*
X119185000Y-114108061D01*
X119145226Y-113908102D01*
X119067205Y-113719744D01*
X118953937Y-113550226D01*
X118809774Y-113406063D01*
X118640256Y-113292795D01*
X118451898Y-113214774D01*
X118251939Y-113175000D01*
X118048061Y-113175000D01*
X117848102Y-113214774D01*
X117659744Y-113292795D01*
X117490226Y-113406063D01*
X117346063Y-113550226D01*
X117232795Y-113719744D01*
X117154774Y-113908102D01*
X117115000Y-114108061D01*
X116562863Y-114108061D01*
X116420000Y-113965199D01*
X116420000Y-112411829D01*
X116438872Y-112366268D01*
X116470000Y-112209778D01*
X116470000Y-112050222D01*
X116850000Y-112050222D01*
X116850000Y-112209778D01*
X116881128Y-112366268D01*
X116942188Y-112513679D01*
X117030832Y-112646345D01*
X117143655Y-112759168D01*
X117276321Y-112847812D01*
X117423732Y-112908872D01*
X117580222Y-112940000D01*
X117739778Y-112940000D01*
X117896268Y-112908872D01*
X118043679Y-112847812D01*
X118176345Y-112759168D01*
X118289168Y-112646345D01*
X118377812Y-112513679D01*
X118396707Y-112468061D01*
X123065000Y-112468061D01*
X123065000Y-112671939D01*
X123104774Y-112871898D01*
X123182795Y-113060256D01*
X123296063Y-113229774D01*
X123440226Y-113373937D01*
X123609744Y-113487205D01*
X123798102Y-113565226D01*
X123998061Y-113605000D01*
X124201939Y-113605000D01*
X124401898Y-113565226D01*
X124590256Y-113487205D01*
X124759774Y-113373937D01*
X124903937Y-113229774D01*
X125017205Y-113060256D01*
X125095226Y-112871898D01*
X125135000Y-112671939D01*
X125135000Y-112468061D01*
X125095226Y-112268102D01*
X125017205Y-112079744D01*
X124903937Y-111910226D01*
X124759774Y-111766063D01*
X124590256Y-111652795D01*
X124401898Y-111574774D01*
X124201939Y-111535000D01*
X123998061Y-111535000D01*
X123798102Y-111574774D01*
X123609744Y-111652795D01*
X123440226Y-111766063D01*
X123296063Y-111910226D01*
X123182795Y-112079744D01*
X123104774Y-112268102D01*
X123065000Y-112468061D01*
X118396707Y-112468061D01*
X118438872Y-112366268D01*
X118470000Y-112209778D01*
X118470000Y-112050222D01*
X118438872Y-111893732D01*
X118377812Y-111746321D01*
X118289168Y-111613655D01*
X118176345Y-111500832D01*
X118043679Y-111412188D01*
X117896268Y-111351128D01*
X117739778Y-111320000D01*
X117580222Y-111320000D01*
X117423732Y-111351128D01*
X117276321Y-111412188D01*
X117143655Y-111500832D01*
X117030832Y-111613655D01*
X116942188Y-111746321D01*
X116881128Y-111893732D01*
X116850000Y-112050222D01*
X116470000Y-112050222D01*
X116438872Y-111893732D01*
X116377812Y-111746321D01*
X116289168Y-111613655D01*
X116176345Y-111500832D01*
X116043679Y-111412188D01*
X115896268Y-111351128D01*
X115739778Y-111320000D01*
X115580222Y-111320000D01*
X115423732Y-111351128D01*
X115276321Y-111412188D01*
X115143655Y-111500832D01*
X115030832Y-111613655D01*
X114942188Y-111746321D01*
X114881128Y-111893732D01*
X114850000Y-112050222D01*
X114850000Y-112209778D01*
X114881128Y-112366268D01*
X114900001Y-112411831D01*
X114900001Y-113076290D01*
X114819774Y-112996063D01*
X114650256Y-112882795D01*
X114461898Y-112804774D01*
X114261939Y-112765000D01*
X114167617Y-112765000D01*
X114176345Y-112759168D01*
X114289168Y-112646345D01*
X114377812Y-112513679D01*
X114438872Y-112366268D01*
X114470000Y-112209778D01*
X114470000Y-112050222D01*
X114438872Y-111893732D01*
X114377812Y-111746321D01*
X114300089Y-111630000D01*
X114377812Y-111513679D01*
X114438872Y-111366268D01*
X114470000Y-111209778D01*
X114470000Y-111050222D01*
X118850000Y-111050222D01*
X118850000Y-111209778D01*
X118881128Y-111366268D01*
X118942188Y-111513679D01*
X119030832Y-111646345D01*
X119143655Y-111759168D01*
X119276321Y-111847812D01*
X119423732Y-111908872D01*
X119580222Y-111940000D01*
X119739778Y-111940000D01*
X119896268Y-111908872D01*
X120043679Y-111847812D01*
X120176345Y-111759168D01*
X120289168Y-111646345D01*
X120377812Y-111513679D01*
X120438872Y-111366268D01*
X120470000Y-111209778D01*
X120470000Y-111050222D01*
X120850000Y-111050222D01*
X120850000Y-111209778D01*
X120881128Y-111366268D01*
X120942188Y-111513679D01*
X121030832Y-111646345D01*
X121143655Y-111759168D01*
X121276321Y-111847812D01*
X121423732Y-111908872D01*
X121580222Y-111940000D01*
X121739778Y-111940000D01*
X121896268Y-111908872D01*
X122043679Y-111847812D01*
X122160000Y-111770089D01*
X122276321Y-111847812D01*
X122423732Y-111908872D01*
X122580222Y-111940000D01*
X122739778Y-111940000D01*
X122896268Y-111908872D01*
X123043679Y-111847812D01*
X123176345Y-111759168D01*
X123289168Y-111646345D01*
X123377812Y-111513679D01*
X123438872Y-111366268D01*
X123470000Y-111209778D01*
X123470000Y-111050222D01*
X123438872Y-110893732D01*
X123377812Y-110746321D01*
X123289168Y-110613655D01*
X123176345Y-110500832D01*
X123043679Y-110412188D01*
X122896268Y-110351128D01*
X122739778Y-110320000D01*
X122580222Y-110320000D01*
X122423732Y-110351128D01*
X122276321Y-110412188D01*
X122160000Y-110489911D01*
X122043679Y-110412188D01*
X121896268Y-110351128D01*
X121739778Y-110320000D01*
X121580222Y-110320000D01*
X121423732Y-110351128D01*
X121276321Y-110412188D01*
X121143655Y-110500832D01*
X121030832Y-110613655D01*
X120942188Y-110746321D01*
X120881128Y-110893732D01*
X120850000Y-111050222D01*
X120470000Y-111050222D01*
X120438872Y-110893732D01*
X120377812Y-110746321D01*
X120289168Y-110613655D01*
X120176345Y-110500832D01*
X120043679Y-110412188D01*
X119896268Y-110351128D01*
X119739778Y-110320000D01*
X119580222Y-110320000D01*
X119423732Y-110351128D01*
X119276321Y-110412188D01*
X119143655Y-110500832D01*
X119030832Y-110613655D01*
X118942188Y-110746321D01*
X118881128Y-110893732D01*
X118850000Y-111050222D01*
X114470000Y-111050222D01*
X114438872Y-110893732D01*
X114377812Y-110746321D01*
X114289168Y-110613655D01*
X114176345Y-110500832D01*
X114043679Y-110412188D01*
X113998116Y-110393315D01*
X113813805Y-110209004D01*
X113790002Y-110180000D01*
X113674277Y-110085027D01*
X113542248Y-110014455D01*
X113398987Y-109970998D01*
X113287334Y-109960001D01*
X113287323Y-109960001D01*
X113250001Y-109956325D01*
X113212679Y-109960001D01*
X111887645Y-109960001D01*
X111982646Y-109865000D01*
X112317816Y-109865000D01*
X112423732Y-109908872D01*
X112580222Y-109940000D01*
X112739778Y-109940000D01*
X112896268Y-109908872D01*
X113043679Y-109847812D01*
X113176345Y-109759168D01*
X113289168Y-109646345D01*
X113377812Y-109513679D01*
X113438872Y-109366268D01*
X113470000Y-109209778D01*
X113470000Y-109050222D01*
X121850000Y-109050222D01*
X121850000Y-109209778D01*
X121881128Y-109366268D01*
X121942188Y-109513679D01*
X122030832Y-109646345D01*
X122143655Y-109759168D01*
X122276321Y-109847812D01*
X122423732Y-109908872D01*
X122580222Y-109940000D01*
X122739778Y-109940000D01*
X122896268Y-109908872D01*
X123043679Y-109847812D01*
X123055000Y-109840248D01*
X123055000Y-110001939D01*
X123094774Y-110201898D01*
X123172795Y-110390256D01*
X123286063Y-110559774D01*
X123430226Y-110703937D01*
X123599744Y-110817205D01*
X123788102Y-110895226D01*
X123988061Y-110935000D01*
X124191939Y-110935000D01*
X124391898Y-110895226D01*
X124580256Y-110817205D01*
X124749774Y-110703937D01*
X124893937Y-110559774D01*
X125007205Y-110390256D01*
X125085226Y-110201898D01*
X125125000Y-110001939D01*
X125125000Y-109798061D01*
X125085226Y-109598102D01*
X125007205Y-109409744D01*
X124893937Y-109240226D01*
X124749774Y-109096063D01*
X124580256Y-108982795D01*
X124391898Y-108904774D01*
X124191939Y-108865000D01*
X123988061Y-108865000D01*
X123788102Y-108904774D01*
X123599744Y-108982795D01*
X123470000Y-109069487D01*
X123470000Y-109050222D01*
X123438872Y-108893732D01*
X123377812Y-108746321D01*
X123289168Y-108613655D01*
X123176345Y-108500832D01*
X123043679Y-108412188D01*
X122896268Y-108351128D01*
X122739778Y-108320000D01*
X122580222Y-108320000D01*
X122423732Y-108351128D01*
X122276321Y-108412188D01*
X122143655Y-108500832D01*
X122030832Y-108613655D01*
X121942188Y-108746321D01*
X121881128Y-108893732D01*
X121850000Y-109050222D01*
X113470000Y-109050222D01*
X113438872Y-108893732D01*
X113377812Y-108746321D01*
X113300089Y-108630000D01*
X113377812Y-108513679D01*
X113438872Y-108366268D01*
X113470000Y-108209778D01*
X113470000Y-108050222D01*
X113438872Y-107893732D01*
X113377812Y-107746321D01*
X113300089Y-107630000D01*
X113377812Y-107513679D01*
X113438872Y-107366268D01*
X113470000Y-107209778D01*
X113470000Y-107050222D01*
X113438872Y-106893732D01*
X113377812Y-106746321D01*
X113289168Y-106613655D01*
X113176345Y-106500832D01*
X113043679Y-106412188D01*
X112896268Y-106351128D01*
X112739778Y-106320000D01*
X112580222Y-106320000D01*
X112423732Y-106351128D01*
X112317816Y-106395000D01*
X112169124Y-106395000D01*
X112168872Y-106393732D01*
X112107812Y-106246321D01*
X112030089Y-106130000D01*
X112083394Y-106050222D01*
X121850000Y-106050222D01*
X121850000Y-106209778D01*
X121881128Y-106366268D01*
X121942188Y-106513679D01*
X122019911Y-106630000D01*
X121942188Y-106746321D01*
X121881128Y-106893732D01*
X121850000Y-107050222D01*
X121850000Y-107209778D01*
X121881128Y-107366268D01*
X121942188Y-107513679D01*
X122030832Y-107646345D01*
X122143655Y-107759168D01*
X122276321Y-107847812D01*
X122423732Y-107908872D01*
X122580222Y-107940000D01*
X122739778Y-107940000D01*
X122896268Y-107908872D01*
X123043679Y-107847812D01*
X123144631Y-107780358D01*
X123174774Y-107931898D01*
X123252795Y-108120256D01*
X123366063Y-108289774D01*
X123510226Y-108433937D01*
X123679744Y-108547205D01*
X123868102Y-108625226D01*
X124068061Y-108665000D01*
X124271939Y-108665000D01*
X124471898Y-108625226D01*
X124660256Y-108547205D01*
X124829774Y-108433937D01*
X124973937Y-108289774D01*
X125087205Y-108120256D01*
X125165226Y-107931898D01*
X125205000Y-107731939D01*
X125205000Y-107528061D01*
X125165226Y-107328102D01*
X125087205Y-107139744D01*
X124973937Y-106970226D01*
X124829774Y-106826063D01*
X124660256Y-106712795D01*
X124471898Y-106634774D01*
X124271939Y-106595000D01*
X124068061Y-106595000D01*
X123868102Y-106634774D01*
X123679744Y-106712795D01*
X123510226Y-106826063D01*
X123439483Y-106896806D01*
X123438872Y-106893732D01*
X123377812Y-106746321D01*
X123300089Y-106630000D01*
X123377812Y-106513679D01*
X123438872Y-106366268D01*
X123470000Y-106209778D01*
X123470000Y-106050222D01*
X123438872Y-105893732D01*
X123377812Y-105746321D01*
X123289168Y-105613655D01*
X123176345Y-105500832D01*
X123043679Y-105412188D01*
X122896268Y-105351128D01*
X122739778Y-105320000D01*
X122580222Y-105320000D01*
X122423732Y-105351128D01*
X122276321Y-105412188D01*
X122143655Y-105500832D01*
X122030832Y-105613655D01*
X121942188Y-105746321D01*
X121881128Y-105893732D01*
X121850000Y-106050222D01*
X112083394Y-106050222D01*
X112107812Y-106013679D01*
X112168872Y-105866268D01*
X112169124Y-105865000D01*
X112317816Y-105865000D01*
X112423732Y-105908872D01*
X112580222Y-105940000D01*
X112739778Y-105940000D01*
X112896268Y-105908872D01*
X113043679Y-105847812D01*
X113176345Y-105759168D01*
X113289168Y-105646345D01*
X113377812Y-105513679D01*
X113438872Y-105366268D01*
X113470000Y-105209778D01*
X113470000Y-105050222D01*
X113438872Y-104893732D01*
X113377812Y-104746321D01*
X113300089Y-104630000D01*
X113377812Y-104513679D01*
X113438872Y-104366268D01*
X113470000Y-104209778D01*
X113470000Y-104050222D01*
X113442631Y-103912631D01*
X113580222Y-103940000D01*
X113739778Y-103940000D01*
X113896268Y-103908872D01*
X114043679Y-103847812D01*
X114176345Y-103759168D01*
X114289168Y-103646345D01*
X114377812Y-103513679D01*
X114438872Y-103366268D01*
X114470000Y-103209778D01*
X114470000Y-103050222D01*
X114442631Y-102912631D01*
X114580222Y-102940000D01*
X114739778Y-102940000D01*
X114835835Y-102920893D01*
X115163115Y-103439086D01*
X115250987Y-103549013D01*
X115347213Y-103627983D01*
X115456996Y-103686664D01*
X115576118Y-103722799D01*
X115700000Y-103735000D01*
X121600000Y-103735000D01*
X121717023Y-103724124D01*
X121836535Y-103689301D01*
X121946957Y-103631832D01*
X122044046Y-103553925D01*
X122124070Y-103458574D01*
X123324873Y-101703554D01*
X123335208Y-101710460D01*
X123523566Y-101788481D01*
X123540001Y-101791750D01*
X123540000Y-103085198D01*
X123255199Y-103370000D01*
X122941829Y-103370000D01*
X122896268Y-103351128D01*
X122739778Y-103320000D01*
X122580222Y-103320000D01*
X122423732Y-103351128D01*
X122276321Y-103412188D01*
X122143655Y-103500832D01*
X122030832Y-103613655D01*
X121942188Y-103746321D01*
X121881128Y-103893732D01*
X121850000Y-104050222D01*
X121850000Y-104209778D01*
X121881128Y-104366268D01*
X121942188Y-104513679D01*
X122030832Y-104646345D01*
X122143655Y-104759168D01*
X122276321Y-104847812D01*
X122423732Y-104908872D01*
X122580222Y-104940000D01*
X122739778Y-104940000D01*
X122896268Y-104908872D01*
X122941829Y-104890000D01*
X123532678Y-104890000D01*
X123570000Y-104893676D01*
X123607322Y-104890000D01*
X123607333Y-104890000D01*
X123718986Y-104879003D01*
X123862247Y-104835546D01*
X123994276Y-104764974D01*
X124110001Y-104670001D01*
X124133803Y-104640998D01*
X124776740Y-103998061D01*
X125065000Y-103998061D01*
X125065000Y-104201939D01*
X125104774Y-104401898D01*
X125182795Y-104590256D01*
X125296063Y-104759774D01*
X125440226Y-104903937D01*
X125609744Y-105017205D01*
X125633512Y-105027050D01*
X125530226Y-105096063D01*
X125386063Y-105240226D01*
X125272795Y-105409744D01*
X125194774Y-105598102D01*
X125155000Y-105798061D01*
X125155000Y-106001939D01*
X125194774Y-106201898D01*
X125272795Y-106390256D01*
X125386063Y-106559774D01*
X125530226Y-106703937D01*
X125699744Y-106817205D01*
X125748775Y-106837514D01*
X125606063Y-106980226D01*
X125492795Y-107149744D01*
X125414774Y-107338102D01*
X125375000Y-107538061D01*
X125375000Y-107741939D01*
X125414774Y-107941898D01*
X125492795Y-108130256D01*
X125606063Y-108299774D01*
X125750226Y-108443937D01*
X125912771Y-108552546D01*
X125839744Y-108582795D01*
X125670226Y-108696063D01*
X125526063Y-108840226D01*
X125412795Y-109009744D01*
X125334774Y-109198102D01*
X125295000Y-109398061D01*
X125295000Y-109601939D01*
X125334774Y-109801898D01*
X125412795Y-109990256D01*
X125526063Y-110159774D01*
X125670226Y-110303937D01*
X125735243Y-110347380D01*
X125649744Y-110382795D01*
X125480226Y-110496063D01*
X125336063Y-110640226D01*
X125222795Y-110809744D01*
X125144774Y-110998102D01*
X125105000Y-111198061D01*
X125105000Y-111401939D01*
X125144774Y-111601898D01*
X125222795Y-111790256D01*
X125336063Y-111959774D01*
X125480226Y-112103937D01*
X125649744Y-112217205D01*
X125838102Y-112295226D01*
X126038061Y-112335000D01*
X126241939Y-112335000D01*
X126441898Y-112295226D01*
X126630256Y-112217205D01*
X126799774Y-112103937D01*
X126943937Y-111959774D01*
X127057205Y-111790256D01*
X127135226Y-111601898D01*
X127175000Y-111401939D01*
X127175000Y-111198061D01*
X127135226Y-110998102D01*
X127057205Y-110809744D01*
X126943937Y-110640226D01*
X126799774Y-110496063D01*
X126734757Y-110452620D01*
X126820256Y-110417205D01*
X126989774Y-110303937D01*
X127133937Y-110159774D01*
X127247205Y-109990256D01*
X127325226Y-109801898D01*
X127365000Y-109601939D01*
X127365000Y-109398061D01*
X127325226Y-109198102D01*
X127247205Y-109009744D01*
X127133937Y-108840226D01*
X126989774Y-108696063D01*
X126827229Y-108587454D01*
X126900256Y-108557205D01*
X127069774Y-108443937D01*
X127213937Y-108299774D01*
X127327205Y-108130256D01*
X127405226Y-107941898D01*
X127445000Y-107741939D01*
X127445000Y-107538061D01*
X127405226Y-107338102D01*
X127327205Y-107149744D01*
X127213937Y-106980226D01*
X127069774Y-106836063D01*
X126900256Y-106722795D01*
X126851225Y-106702486D01*
X126993937Y-106559774D01*
X127107205Y-106390256D01*
X127185226Y-106201898D01*
X127225000Y-106001939D01*
X127225000Y-105798061D01*
X127185226Y-105598102D01*
X127107205Y-105409744D01*
X126993937Y-105240226D01*
X126849774Y-105096063D01*
X126680256Y-104982795D01*
X126656488Y-104972950D01*
X126759774Y-104903937D01*
X126903937Y-104759774D01*
X127017205Y-104590256D01*
X127095226Y-104401898D01*
X127135000Y-104201939D01*
X127135000Y-103998061D01*
X130365000Y-103998061D01*
X130365000Y-104201939D01*
X130404774Y-104401898D01*
X130482795Y-104590256D01*
X130596063Y-104759774D01*
X130740226Y-104903937D01*
X130883995Y-105000000D01*
X130740226Y-105096063D01*
X130596063Y-105240226D01*
X130482795Y-105409744D01*
X130404774Y-105598102D01*
X130365000Y-105798061D01*
X130365000Y-106001939D01*
X130404774Y-106201898D01*
X130482795Y-106390256D01*
X130596063Y-106559774D01*
X130740226Y-106703937D01*
X130883995Y-106800000D01*
X130740226Y-106896063D01*
X130596063Y-107040226D01*
X130482795Y-107209744D01*
X130404774Y-107398102D01*
X130365000Y-107598061D01*
X130365000Y-107801939D01*
X130404774Y-108001898D01*
X130482795Y-108190256D01*
X130596063Y-108359774D01*
X130740226Y-108503937D01*
X130883995Y-108600000D01*
X130740226Y-108696063D01*
X130596063Y-108840226D01*
X130482795Y-109009744D01*
X130404774Y-109198102D01*
X130365000Y-109398061D01*
X130365000Y-109601939D01*
X130404774Y-109801898D01*
X130482795Y-109990256D01*
X130596063Y-110159774D01*
X130740226Y-110303937D01*
X130883995Y-110400000D01*
X130740226Y-110496063D01*
X130596063Y-110640226D01*
X130482795Y-110809744D01*
X130404774Y-110998102D01*
X130365000Y-111198061D01*
X130365000Y-111401939D01*
X130404774Y-111601898D01*
X130482795Y-111790256D01*
X130596063Y-111959774D01*
X130740226Y-112103937D01*
X130909744Y-112217205D01*
X131098102Y-112295226D01*
X131298061Y-112335000D01*
X131501939Y-112335000D01*
X131701898Y-112295226D01*
X131890256Y-112217205D01*
X132059774Y-112103937D01*
X132203937Y-111959774D01*
X132317205Y-111790256D01*
X132395226Y-111601898D01*
X132435000Y-111401939D01*
X132435000Y-111198061D01*
X132395226Y-110998102D01*
X132317205Y-110809744D01*
X132203937Y-110640226D01*
X132059774Y-110496063D01*
X131916005Y-110400000D01*
X132059774Y-110303937D01*
X132203937Y-110159774D01*
X132317205Y-109990256D01*
X132395226Y-109801898D01*
X132435000Y-109601939D01*
X132435000Y-109398061D01*
X132395226Y-109198102D01*
X132317205Y-109009744D01*
X132203937Y-108840226D01*
X132059774Y-108696063D01*
X131916005Y-108600000D01*
X132059774Y-108503937D01*
X132203937Y-108359774D01*
X132317205Y-108190256D01*
X132395226Y-108001898D01*
X132435000Y-107801939D01*
X132435000Y-107598061D01*
X132395226Y-107398102D01*
X132317205Y-107209744D01*
X132203937Y-107040226D01*
X132059774Y-106896063D01*
X131916005Y-106800000D01*
X132059774Y-106703937D01*
X132203937Y-106559774D01*
X132317205Y-106390256D01*
X132395226Y-106201898D01*
X132435000Y-106001939D01*
X132435000Y-105798061D01*
X132395226Y-105598102D01*
X132317205Y-105409744D01*
X132203937Y-105240226D01*
X132059774Y-105096063D01*
X131916005Y-105000000D01*
X132059774Y-104903937D01*
X132203937Y-104759774D01*
X132317205Y-104590256D01*
X132395226Y-104401898D01*
X132435000Y-104201939D01*
X132435000Y-103998061D01*
X132395226Y-103798102D01*
X132317205Y-103609744D01*
X132203937Y-103440226D01*
X132059774Y-103296063D01*
X131890256Y-103182795D01*
X131701898Y-103104774D01*
X131501939Y-103065000D01*
X131298061Y-103065000D01*
X131098102Y-103104774D01*
X130909744Y-103182795D01*
X130740226Y-103296063D01*
X130596063Y-103440226D01*
X130482795Y-103609744D01*
X130404774Y-103798102D01*
X130365000Y-103998061D01*
X127135000Y-103998061D01*
X127095226Y-103798102D01*
X127017205Y-103609744D01*
X126903937Y-103440226D01*
X126759774Y-103296063D01*
X126590256Y-103182795D01*
X126401898Y-103104774D01*
X126201939Y-103065000D01*
X125998061Y-103065000D01*
X125798102Y-103104774D01*
X125609744Y-103182795D01*
X125440226Y-103296063D01*
X125296063Y-103440226D01*
X125182795Y-103609744D01*
X125104774Y-103798102D01*
X125065000Y-103998061D01*
X124776740Y-103998061D01*
X124811004Y-103963798D01*
X124840001Y-103940001D01*
X124869392Y-103904188D01*
X124934974Y-103824277D01*
X125005546Y-103692247D01*
X125012294Y-103670001D01*
X125049003Y-103548986D01*
X125060000Y-103437333D01*
X125060000Y-103437323D01*
X125063676Y-103400000D01*
X125060000Y-103362677D01*
X125060000Y-101514801D01*
X125914802Y-100660000D01*
X127362678Y-100660000D01*
X127400000Y-100663676D01*
X127437322Y-100660000D01*
X127437333Y-100660000D01*
X127548986Y-100649003D01*
X127692247Y-100605546D01*
X127824276Y-100534974D01*
X127940001Y-100440001D01*
X127963804Y-100410997D01*
X129114579Y-99260222D01*
X130500000Y-99260222D01*
X130500000Y-99419778D01*
X130531128Y-99576268D01*
X130553385Y-99630000D01*
X130531128Y-99683732D01*
X130500000Y-99840222D01*
X130500000Y-99999778D01*
X130531128Y-100156268D01*
X130592188Y-100303679D01*
X130680832Y-100436345D01*
X130793655Y-100549168D01*
X130926321Y-100637812D01*
X131073732Y-100698872D01*
X131230222Y-100730000D01*
X131389778Y-100730000D01*
X131546268Y-100698872D01*
X131693679Y-100637812D01*
X131826345Y-100549168D01*
X131939168Y-100436345D01*
X132027812Y-100303679D01*
X132088872Y-100156268D01*
X132120000Y-99999778D01*
X132120000Y-99840222D01*
X132088872Y-99683732D01*
X132066615Y-99630000D01*
X132088872Y-99576268D01*
X132120000Y-99419778D01*
X132120000Y-99260222D01*
X132088872Y-99103732D01*
X132027812Y-98956321D01*
X131939168Y-98823655D01*
X131826345Y-98710832D01*
X131693679Y-98622188D01*
X131546268Y-98561128D01*
X131389778Y-98530000D01*
X131230222Y-98530000D01*
X131073732Y-98561128D01*
X130926321Y-98622188D01*
X130793655Y-98710832D01*
X130680832Y-98823655D01*
X130592188Y-98956321D01*
X130531128Y-99103732D01*
X130500000Y-99260222D01*
X129114579Y-99260222D01*
X134286730Y-94088072D01*
X135550000Y-94088072D01*
X135674482Y-94075812D01*
X135794180Y-94039502D01*
X135904494Y-93980537D01*
X136001185Y-93901185D01*
X136080537Y-93804494D01*
X136139502Y-93694180D01*
X136175812Y-93574482D01*
X136188072Y-93450000D01*
X136188072Y-91750000D01*
X136175812Y-91625518D01*
X136139502Y-91505820D01*
X136080537Y-91395506D01*
X136001185Y-91298815D01*
X135904494Y-91219463D01*
X135794180Y-91160498D01*
X135674482Y-91124188D01*
X135550000Y-91111928D01*
X133850000Y-91111928D01*
X133725518Y-91124188D01*
X133605820Y-91160498D01*
X133495506Y-91219463D01*
X133398815Y-91298815D01*
X133319463Y-91395506D01*
X133260498Y-91505820D01*
X133224188Y-91625518D01*
X133211928Y-91750000D01*
X133211928Y-93013270D01*
X127927059Y-98298140D01*
X127895226Y-98138102D01*
X127817205Y-97949744D01*
X127703937Y-97780226D01*
X127559774Y-97636063D01*
X127390256Y-97522795D01*
X127201898Y-97444774D01*
X127001939Y-97405000D01*
X126798061Y-97405000D01*
X126598102Y-97444774D01*
X126409744Y-97522795D01*
X126240226Y-97636063D01*
X126096063Y-97780226D01*
X125982795Y-97949744D01*
X125904774Y-98138102D01*
X125865000Y-98338061D01*
X125865000Y-98541939D01*
X125904774Y-98741898D01*
X125982795Y-98930256D01*
X126096063Y-99099774D01*
X126136289Y-99140000D01*
X125637325Y-99140000D01*
X125600000Y-99136324D01*
X125562675Y-99140000D01*
X125562667Y-99140000D01*
X125451014Y-99150997D01*
X125307753Y-99194454D01*
X125175724Y-99265026D01*
X125059999Y-99359999D01*
X125036201Y-99388997D01*
X124455650Y-99969548D01*
X124315720Y-99876050D01*
X124127362Y-99798029D01*
X123927403Y-99758255D01*
X123723525Y-99758255D01*
X123535000Y-99795755D01*
X123535000Y-93700000D01*
X123522799Y-93576118D01*
X123486664Y-93456996D01*
X123427983Y-93347213D01*
X123349013Y-93250987D01*
X123252787Y-93172017D01*
X123143004Y-93113336D01*
X123023882Y-93077201D01*
X122900000Y-93065000D01*
X114500000Y-93065000D01*
X114376118Y-93077201D01*
X114256996Y-93113336D01*
X114147213Y-93172017D01*
X114050987Y-93250987D01*
X113972017Y-93347213D01*
X113913336Y-93456996D01*
X113877201Y-93576118D01*
X113865000Y-93700000D01*
X113865000Y-95440198D01*
X108799801Y-90375000D01*
X109036260Y-90375000D01*
X109323158Y-90317932D01*
X109593411Y-90205990D01*
X109836632Y-90043475D01*
X110043475Y-89836632D01*
X110160000Y-89662240D01*
X110276525Y-89836632D01*
X110483368Y-90043475D01*
X110726589Y-90205990D01*
X110996842Y-90317932D01*
X111283740Y-90375000D01*
X111576260Y-90375000D01*
X111863158Y-90317932D01*
X112133411Y-90205990D01*
X112376632Y-90043475D01*
X112583475Y-89836632D01*
X112745990Y-89593411D01*
X112857932Y-89323158D01*
X112915000Y-89036260D01*
X112915000Y-88795000D01*
X113462762Y-88795000D01*
X113468992Y-88858254D01*
X113519528Y-89024850D01*
X113601595Y-89178386D01*
X113712038Y-89312962D01*
X113846614Y-89423405D01*
X114000150Y-89505472D01*
X114166746Y-89556008D01*
X114340000Y-89573072D01*
X115915000Y-89573072D01*
X116088254Y-89556008D01*
X116254850Y-89505472D01*
X116408386Y-89423405D01*
X116542962Y-89312962D01*
X116653405Y-89178386D01*
X116735472Y-89024850D01*
X116786008Y-88858254D01*
X116803072Y-88685000D01*
X116803072Y-86635000D01*
X116786008Y-86461746D01*
X116735472Y-86295150D01*
X116653405Y-86141614D01*
X116542962Y-86007038D01*
X116408386Y-85896595D01*
X116254850Y-85814528D01*
X116088254Y-85763992D01*
X115915000Y-85746928D01*
X114340000Y-85746928D01*
X114166746Y-85763992D01*
X114000150Y-85814528D01*
X113846614Y-85896595D01*
X113712038Y-86007038D01*
X113601595Y-86141614D01*
X113519528Y-86295150D01*
X113468992Y-86461746D01*
X113462762Y-86525000D01*
X112918072Y-86525000D01*
X112918072Y-85500000D01*
X112905812Y-85375518D01*
X112869502Y-85255820D01*
X112810537Y-85145506D01*
X112731185Y-85048815D01*
X112634494Y-84969463D01*
X112524180Y-84910498D01*
X112404482Y-84874188D01*
X112280000Y-84861928D01*
X110580000Y-84861928D01*
X110455518Y-84874188D01*
X110335820Y-84910498D01*
X110225506Y-84969463D01*
X110128815Y-85048815D01*
X110049463Y-85145506D01*
X109990498Y-85255820D01*
X109968487Y-85328380D01*
X109836632Y-85196525D01*
X109593411Y-85034010D01*
X109323158Y-84922068D01*
X109036260Y-84865000D01*
X108743740Y-84865000D01*
X108456842Y-84922068D01*
X108186589Y-85034010D01*
X107943368Y-85196525D01*
X107736525Y-85403368D01*
X107574010Y-85646589D01*
X107462068Y-85916842D01*
X107405000Y-86203740D01*
X107405000Y-86496260D01*
X107462068Y-86783158D01*
X107574010Y-87053411D01*
X107736525Y-87296632D01*
X107943368Y-87503475D01*
X108117760Y-87620000D01*
X107943368Y-87736525D01*
X107736525Y-87943368D01*
X107574010Y-88186589D01*
X107462068Y-88456842D01*
X107405000Y-88743740D01*
X107405000Y-89036260D01*
X107462068Y-89323158D01*
X107574010Y-89593411D01*
X107736525Y-89836632D01*
X107943368Y-90043475D01*
X107968099Y-90060000D01*
X105994802Y-90060000D01*
X103183804Y-87249003D01*
X103160001Y-87219999D01*
X103044276Y-87125026D01*
X102912247Y-87054454D01*
X102768986Y-87010997D01*
X102657333Y-87000000D01*
X102657322Y-87000000D01*
X102620000Y-86996324D01*
X102582678Y-87000000D01*
X101762430Y-87000000D01*
X101795000Y-86836260D01*
X101795000Y-86543740D01*
X101737932Y-86256842D01*
X101625990Y-85986589D01*
X101463475Y-85743368D01*
X101331620Y-85611513D01*
X101404180Y-85589502D01*
X101514494Y-85530537D01*
X101611185Y-85451185D01*
X101690537Y-85354494D01*
X101749502Y-85244180D01*
X101785812Y-85124482D01*
X101798072Y-85000000D01*
X101798072Y-83300000D01*
X101785812Y-83175518D01*
X101749502Y-83055820D01*
X101690537Y-82945506D01*
X101611185Y-82848815D01*
X101514494Y-82769463D01*
X101404180Y-82710498D01*
X101284482Y-82674188D01*
X101160000Y-82661928D01*
X99460000Y-82661928D01*
X99335518Y-82674188D01*
X99215820Y-82710498D01*
X99105506Y-82769463D01*
X99008815Y-82848815D01*
X98929463Y-82945506D01*
X98870498Y-83055820D01*
X98834188Y-83175518D01*
X98821928Y-83300000D01*
X91710000Y-83300000D01*
X91710000Y-81710000D01*
X138290001Y-81710000D01*
X138290000Y-129290000D01*
M02*
