M48
; DRILL file {KiCad (5.1.6)-1} date 07/10/20 10:30:21
; FORMAT={2:4/ absolute / inch / suppress leading zeros}
; #@! TF.CreationDate,2020-07-10T10:30:21+02:00
; #@! TF.GenerationSoftware,Kicad,Pcbnew,(5.1.6)-1
FMAT,2
INCH,TZ
T1C0.0059
T2C0.0079
T3C0.0157
T4C0.0394
T5C0.0591
T6C0.1260
%
G90
G05
T1
X40193Y-41650
X40203Y-41217
X40203Y-41453
X40205Y-41012
X40295Y-43472
X40307Y-42783
X40311Y-42988
X40311Y-43224
X41417Y-41807
X41417Y-42043
X41425Y-41571
X41524Y-42220
X42126Y-41055
X42271Y-40871
X42438Y-40704
X42587Y-40520
X43055Y-40870
X43251Y-41058
X43366Y-41732
X43418Y-41225
X43843Y-42768
X43854Y-41587
X43854Y-41980
X43854Y-42374
X43862Y-41193
X44354Y-40209
X44354Y-40996
X44354Y-41390
X44354Y-42177
X44354Y-42571
X44354Y-42965
X44354Y-43752
X44748Y-40209
X44748Y-40602
X44748Y-43752
X44748Y-44146
X45142Y-40209
X45142Y-41390
X45142Y-41783
X45142Y-42177
X45142Y-42571
X45142Y-42965
X45535Y-40209
X45535Y-40996
X45535Y-41390
X45535Y-41783
X45535Y-42177
X45535Y-42571
X45535Y-42965
X45535Y-43358
X45535Y-44146
X45929Y-40209
X45929Y-40996
X45929Y-41390
X45929Y-41783
X45929Y-42177
X45929Y-42571
X45929Y-42965
X45929Y-43358
X46323Y-40209
X46323Y-40996
X46323Y-41390
X46323Y-41783
X46323Y-42177
X46323Y-42571
X46323Y-42965
X46323Y-43358
X46323Y-44146
X46717Y-40209
X46717Y-40996
X46717Y-41390
X46717Y-41783
X46717Y-42177
X46717Y-42571
X46717Y-42965
X46717Y-43358
X47110Y-40209
X47110Y-40996
X47110Y-41390
X47110Y-41783
X47110Y-42177
X47110Y-42571
X47110Y-42965
X47110Y-43358
X47110Y-43752
X47110Y-44146
X47504Y-40209
X47504Y-40996
X47504Y-41390
X47504Y-41783
X47504Y-42177
X47504Y-42571
X47504Y-42965
X47504Y-43358
X47504Y-44146
X47898Y-40209
X47898Y-43752
X47898Y-44146
X48291Y-40996
X48291Y-41783
X48291Y-42177
X48291Y-42965
X48291Y-43752
X51697Y-39110
X51697Y-39339
T2
X46614Y-36516
X46614Y-36811
X46614Y-37106
T3
X39248Y-44583
X39272Y-43512
X39276Y-43866
X39941Y-48480
X39953Y-37346
X40598Y-36031
X41772Y-43634
X42780Y-47138
X43264Y-45870
X43618Y-43748
X43795Y-45661
X44130Y-46996
X44402Y-49059
X44646Y-47244
X44945Y-44803
X45472Y-37677
X45732Y-45907
X45827Y-37677
X46000Y-49555
X46181Y-37677
X46516Y-44965
X46535Y-37677
X46815Y-48201
X46890Y-37677
X47071Y-45937
X47244Y-37677
X47598Y-37677
X47953Y-37677
X48307Y-47091
X48750Y-39682
X48854Y-43268
X48858Y-44319
X48886Y-42374
X49646Y-40984
X49661Y-43819
X49681Y-41693
X49736Y-43110
X49760Y-48177
X49768Y-42378
X49961Y-38756
X51732Y-40984
X51732Y-41693
X51732Y-42402
X51732Y-43110
X51732Y-43819
X52559Y-44528
T4
X53031Y-36457
X49268Y-34051
X49268Y-35051
X50268Y-34051
X50268Y-35051
X39492Y-33130
X39492Y-34130
X39492Y-35130
X39492Y-36130
X42870Y-33996
X42870Y-34996
X43870Y-33996
X43870Y-34996
T5
X42701Y-39343
X49945Y-45012
T6
X37008Y-50000
X53543Y-50000
X37008Y-33071
X53543Y-33071
T0
M30
