G04 #@! TF.GenerationSoftware,KiCad,Pcbnew,(5.1.6)-1*
G04 #@! TF.CreationDate,2020-07-07T21:46:09+02:00*
G04 #@! TF.ProjectId,ToF_camera_VGA,546f465f-6361-46d6-9572-615f5647412e,rev?*
G04 #@! TF.SameCoordinates,Original*
G04 #@! TF.FileFunction,Copper,L3,Inr*
G04 #@! TF.FilePolarity,Positive*
%FSLAX46Y46*%
G04 Gerber Fmt 4.6, Leading zero omitted, Abs format (unit mm)*
G04 Created by KiCad (PCBNEW (5.1.6)-1) date 2020-07-07 21:46:09*
%MOMM*%
%LPD*%
G01*
G04 APERTURE LIST*
G04 #@! TA.AperFunction,ViaPad*
%ADD10O,1.700000X1.700000*%
G04 #@! TD*
G04 #@! TA.AperFunction,ViaPad*
%ADD11R,1.700000X1.700000*%
G04 #@! TD*
G04 #@! TA.AperFunction,ViaPad*
%ADD12C,0.500000*%
G04 #@! TD*
G04 #@! TA.AperFunction,ViaPad*
%ADD13C,0.800000*%
G04 #@! TD*
G04 #@! TA.AperFunction,ViaPad*
%ADD14C,0.350000*%
G04 #@! TD*
G04 #@! TA.AperFunction,Conductor*
%ADD15C,0.250000*%
G04 #@! TD*
G04 #@! TA.AperFunction,Conductor*
%ADD16C,0.500000*%
G04 #@! TD*
G04 #@! TA.AperFunction,Conductor*
%ADD17C,0.254000*%
G04 #@! TD*
G04 APERTURE END LIST*
D10*
X127680000Y-86490000D03*
X127680000Y-89030000D03*
X125140000Y-86490000D03*
D11*
X125140000Y-89030000D03*
D10*
X108890000Y-88890000D03*
X108890000Y-86350000D03*
X111430000Y-88890000D03*
D11*
X111430000Y-86350000D03*
X134700000Y-92600000D03*
D12*
X118400000Y-94250000D03*
X118400000Y-93500000D03*
X118400000Y-92750000D03*
D10*
X100310000Y-91770000D03*
X100310000Y-89230000D03*
X100310000Y-86690000D03*
D11*
X100310000Y-84150000D03*
D13*
X133500000Y-113100000D03*
X131400000Y-111300000D03*
X131400000Y-109500000D03*
X131400000Y-107700000D03*
X131400000Y-105900000D03*
X131400000Y-104100000D03*
D14*
X131310000Y-99340000D03*
X131310000Y-99920000D03*
X121660000Y-111130000D03*
X119660000Y-111130000D03*
D13*
X111240000Y-115980000D03*
X123825464Y-100793255D03*
X124090000Y-109900000D03*
D14*
X122660000Y-107130000D03*
D13*
X126190000Y-105900000D03*
D14*
X122660000Y-111130000D03*
D13*
X126140000Y-111300000D03*
X124170000Y-107630000D03*
X126410000Y-107640000D03*
D14*
X122660000Y-106130000D03*
D13*
X126100000Y-104100000D03*
D14*
X122660000Y-109130000D03*
D13*
X126330000Y-109500000D03*
D14*
X113660000Y-112130000D03*
D13*
X118150000Y-114210000D03*
D14*
X114660000Y-109130000D03*
X115660000Y-109130000D03*
X115660000Y-110130000D03*
X116660000Y-110130000D03*
X117660000Y-110130000D03*
X118660000Y-110130000D03*
X119660000Y-110130000D03*
X120660000Y-110130000D03*
X120660000Y-112130000D03*
X119660000Y-112130000D03*
X120660000Y-109130000D03*
X119660000Y-109130000D03*
X118660000Y-109130000D03*
X117660000Y-109130000D03*
X116660000Y-109130000D03*
X116660000Y-108130000D03*
X115660000Y-108130000D03*
X114660000Y-108130000D03*
X114660000Y-107130000D03*
X115660000Y-107130000D03*
X116660000Y-107130000D03*
X117660000Y-107130000D03*
X120660000Y-108130000D03*
X119660000Y-108130000D03*
X118660000Y-108130000D03*
X117660000Y-108130000D03*
X120660000Y-107130000D03*
X119660000Y-107130000D03*
X120660000Y-106130000D03*
X119660000Y-106130000D03*
X118660000Y-107130000D03*
X118660000Y-106130000D03*
X120660000Y-104130000D03*
X119660000Y-104130000D03*
X120660000Y-105130000D03*
X119660000Y-105130000D03*
X118660000Y-104130000D03*
X118660000Y-105130000D03*
X117660000Y-104130000D03*
X117660000Y-105130000D03*
X116660000Y-104130000D03*
X116660000Y-105130000D03*
X117660000Y-106130000D03*
X116660000Y-106130000D03*
X115660000Y-106130000D03*
X114660000Y-106130000D03*
X114660000Y-105130000D03*
X115660000Y-105130000D03*
X115660000Y-104130000D03*
X121660000Y-112130000D03*
D13*
X122700000Y-119610000D03*
X109890000Y-116510000D03*
D14*
X112660000Y-111130000D03*
X108170000Y-102920000D03*
X107000000Y-104280000D03*
X109360000Y-103810000D03*
X102090000Y-105790000D03*
X102120000Y-104170000D03*
X105220000Y-105590000D03*
X105470000Y-107240000D03*
X102380000Y-108670000D03*
X102350000Y-110420000D03*
D13*
X106100000Y-110830000D03*
D14*
X110150000Y-106000000D03*
D13*
X124100000Y-112570000D03*
D14*
X117660000Y-112130000D03*
D13*
X119560000Y-116680000D03*
X126900000Y-98440000D03*
X114160000Y-113800000D03*
X112780000Y-124610000D03*
X118910000Y-122430000D03*
D14*
X122660000Y-104130000D03*
X115660000Y-102130000D03*
X116660000Y-102130000D03*
X117660000Y-102130000D03*
X118660000Y-102130000D03*
X119660000Y-102130000D03*
X120660000Y-102130000D03*
X121660000Y-102130000D03*
D13*
X115500000Y-95700000D03*
X116400000Y-95700000D03*
X117300000Y-95700000D03*
X118200000Y-95700000D03*
X119100000Y-95700000D03*
X120000000Y-95700000D03*
X120900000Y-95700000D03*
X121800000Y-95700000D03*
D14*
X112660000Y-109130000D03*
X102390000Y-109790000D03*
X111360000Y-108630000D03*
X102390000Y-109190000D03*
X111410000Y-104630000D03*
X110282133Y-104712133D03*
X112660000Y-104130000D03*
X109857867Y-104287867D03*
X112660000Y-108130000D03*
X102114792Y-105290000D03*
X111390000Y-107630000D03*
X102114792Y-104690000D03*
X111390000Y-105630000D03*
X107367867Y-103812133D03*
X112660000Y-105130000D03*
X107792133Y-103387867D03*
X112660000Y-107130000D03*
X105200000Y-106790000D03*
X111390000Y-106630000D03*
X105200000Y-106190000D03*
D13*
X101480000Y-94860000D03*
X99690000Y-113240000D03*
X116840000Y-125870000D03*
X101450000Y-123140000D03*
D14*
X112660000Y-102130000D03*
D13*
X103120000Y-91520000D03*
D14*
X114660000Y-102130000D03*
X113660000Y-102130000D03*
X113660000Y-103130000D03*
D13*
X126390000Y-122370000D03*
X113400000Y-120000000D03*
D14*
X115660000Y-112130000D03*
D13*
X112090000Y-119370000D03*
X108660000Y-119730000D03*
X116160000Y-116605000D03*
X110790000Y-111120000D03*
D14*
X113660000Y-111130000D03*
D13*
X99760344Y-111419943D03*
X99750000Y-110520000D03*
D15*
X122660000Y-107130000D02*
X123040000Y-106750000D01*
X125340000Y-106750000D02*
X126190000Y-105900000D01*
X123040000Y-106750000D02*
X125340000Y-106750000D01*
X122830000Y-111300000D02*
X122660000Y-111130000D01*
X126140000Y-111300000D02*
X122830000Y-111300000D01*
X126400000Y-107630000D02*
X126410000Y-107640000D01*
X124170000Y-107630000D02*
X126400000Y-107630000D01*
X122660000Y-106130000D02*
X124850000Y-106130000D01*
X126100000Y-104880000D02*
X126100000Y-104100000D01*
X124850000Y-106130000D02*
X126100000Y-104880000D01*
X125960000Y-109130000D02*
X126330000Y-109500000D01*
X122660000Y-109130000D02*
X125960000Y-109130000D01*
X105370000Y-116430000D02*
X104650000Y-116430000D01*
X104650000Y-116430000D02*
X104630000Y-116410000D01*
X122700000Y-119610000D02*
X123460000Y-119610000D01*
X119560000Y-114030000D02*
X117660000Y-112130000D01*
X119560000Y-116680000D02*
X119560000Y-114030000D01*
X122640000Y-114030000D02*
X124100000Y-112570000D01*
X119560000Y-114030000D02*
X122640000Y-114030000D01*
X124100000Y-112570000D02*
X126830000Y-112570000D01*
X126830000Y-112570000D02*
X128170000Y-111230000D01*
X128170000Y-99710000D02*
X128170000Y-99750000D01*
X126900000Y-98440000D02*
X128170000Y-99710000D01*
X128170000Y-111230000D02*
X128170000Y-99750000D01*
X114160000Y-113800000D02*
X115960000Y-115600000D01*
X115960000Y-115600000D02*
X116960000Y-115600000D01*
X118040000Y-116680000D02*
X119560000Y-116680000D01*
X116960000Y-115600000D02*
X118040000Y-116680000D01*
D16*
X112780000Y-124610000D02*
X116730000Y-124610000D01*
X116730000Y-124610000D02*
X118910000Y-122430000D01*
X100190000Y-94860000D02*
X99690000Y-95360000D01*
X101480000Y-94860000D02*
X100190000Y-94860000D01*
X104180000Y-125870000D02*
X101450000Y-123140000D01*
X116840000Y-125870000D02*
X104180000Y-125870000D01*
D17*
G36*
X117549010Y-93241855D02*
G01*
X117515000Y-93412835D01*
X117515000Y-93587165D01*
X117549010Y-93758145D01*
X117597413Y-93875000D01*
X117549010Y-93991855D01*
X117515000Y-94162835D01*
X117515000Y-94337165D01*
X117549010Y-94508145D01*
X117615723Y-94669205D01*
X117712576Y-94814155D01*
X117835845Y-94937424D01*
X117980795Y-95034277D01*
X118141855Y-95100990D01*
X118312835Y-95135000D01*
X118487165Y-95135000D01*
X118658145Y-95100990D01*
X118819205Y-95034277D01*
X118964155Y-94937424D01*
X119087424Y-94814155D01*
X119184277Y-94669205D01*
X119250990Y-94508145D01*
X119285000Y-94337165D01*
X119285000Y-94162835D01*
X119250990Y-93991855D01*
X119202587Y-93875000D01*
X119250990Y-93758145D01*
X119285000Y-93587165D01*
X119285000Y-93412835D01*
X119250990Y-93241855D01*
X119203415Y-93127000D01*
X121773000Y-93127000D01*
X121773000Y-103460711D01*
X121447397Y-103936592D01*
X121438872Y-103893732D01*
X121377812Y-103746321D01*
X121289168Y-103613655D01*
X121176345Y-103500832D01*
X121043679Y-103412188D01*
X120896268Y-103351128D01*
X120739778Y-103320000D01*
X120580222Y-103320000D01*
X120423732Y-103351128D01*
X120276321Y-103412188D01*
X120160000Y-103489911D01*
X120043679Y-103412188D01*
X119896268Y-103351128D01*
X119739778Y-103320000D01*
X119580222Y-103320000D01*
X119423732Y-103351128D01*
X119276321Y-103412188D01*
X119160000Y-103489911D01*
X119043679Y-103412188D01*
X118896268Y-103351128D01*
X118739778Y-103320000D01*
X118580222Y-103320000D01*
X118423732Y-103351128D01*
X118276321Y-103412188D01*
X118160000Y-103489911D01*
X118043679Y-103412188D01*
X117896268Y-103351128D01*
X117739778Y-103320000D01*
X117580222Y-103320000D01*
X117423732Y-103351128D01*
X117276321Y-103412188D01*
X117160000Y-103489911D01*
X117043679Y-103412188D01*
X116896268Y-103351128D01*
X116739778Y-103320000D01*
X116580222Y-103320000D01*
X116423732Y-103351128D01*
X116276321Y-103412188D01*
X116160000Y-103489911D01*
X116043679Y-103412188D01*
X115896268Y-103351128D01*
X115739778Y-103320000D01*
X115580222Y-103320000D01*
X115423732Y-103351128D01*
X115276321Y-103412188D01*
X115143655Y-103500832D01*
X115030832Y-103613655D01*
X114942188Y-103746321D01*
X114881128Y-103893732D01*
X114850000Y-104050222D01*
X114850000Y-104209778D01*
X114877369Y-104347369D01*
X114739778Y-104320000D01*
X114580222Y-104320000D01*
X114423732Y-104351128D01*
X114276321Y-104412188D01*
X114241164Y-104435679D01*
X113905919Y-103904874D01*
X114043679Y-103847812D01*
X114176345Y-103759168D01*
X114289168Y-103646345D01*
X114377812Y-103513679D01*
X114438872Y-103366268D01*
X114470000Y-103209778D01*
X114470000Y-103050222D01*
X114442631Y-102912631D01*
X114580222Y-102940000D01*
X114739778Y-102940000D01*
X114896268Y-102908872D01*
X115043679Y-102847812D01*
X115176345Y-102759168D01*
X115289168Y-102646345D01*
X115377812Y-102513679D01*
X115438872Y-102366268D01*
X115470000Y-102209778D01*
X115470000Y-102050222D01*
X115438872Y-101893732D01*
X115377812Y-101746321D01*
X115289168Y-101613655D01*
X115176345Y-101500832D01*
X115043679Y-101412188D01*
X114896268Y-101351128D01*
X114739778Y-101320000D01*
X114580222Y-101320000D01*
X114423732Y-101351128D01*
X114276321Y-101412188D01*
X114160000Y-101489911D01*
X114043679Y-101412188D01*
X113896268Y-101351128D01*
X113739778Y-101320000D01*
X113627000Y-101320000D01*
X113627000Y-93127000D01*
X117596585Y-93127000D01*
X117549010Y-93241855D01*
G37*
X117549010Y-93241855D02*
X117515000Y-93412835D01*
X117515000Y-93587165D01*
X117549010Y-93758145D01*
X117597413Y-93875000D01*
X117549010Y-93991855D01*
X117515000Y-94162835D01*
X117515000Y-94337165D01*
X117549010Y-94508145D01*
X117615723Y-94669205D01*
X117712576Y-94814155D01*
X117835845Y-94937424D01*
X117980795Y-95034277D01*
X118141855Y-95100990D01*
X118312835Y-95135000D01*
X118487165Y-95135000D01*
X118658145Y-95100990D01*
X118819205Y-95034277D01*
X118964155Y-94937424D01*
X119087424Y-94814155D01*
X119184277Y-94669205D01*
X119250990Y-94508145D01*
X119285000Y-94337165D01*
X119285000Y-94162835D01*
X119250990Y-93991855D01*
X119202587Y-93875000D01*
X119250990Y-93758145D01*
X119285000Y-93587165D01*
X119285000Y-93412835D01*
X119250990Y-93241855D01*
X119203415Y-93127000D01*
X121773000Y-93127000D01*
X121773000Y-103460711D01*
X121447397Y-103936592D01*
X121438872Y-103893732D01*
X121377812Y-103746321D01*
X121289168Y-103613655D01*
X121176345Y-103500832D01*
X121043679Y-103412188D01*
X120896268Y-103351128D01*
X120739778Y-103320000D01*
X120580222Y-103320000D01*
X120423732Y-103351128D01*
X120276321Y-103412188D01*
X120160000Y-103489911D01*
X120043679Y-103412188D01*
X119896268Y-103351128D01*
X119739778Y-103320000D01*
X119580222Y-103320000D01*
X119423732Y-103351128D01*
X119276321Y-103412188D01*
X119160000Y-103489911D01*
X119043679Y-103412188D01*
X118896268Y-103351128D01*
X118739778Y-103320000D01*
X118580222Y-103320000D01*
X118423732Y-103351128D01*
X118276321Y-103412188D01*
X118160000Y-103489911D01*
X118043679Y-103412188D01*
X117896268Y-103351128D01*
X117739778Y-103320000D01*
X117580222Y-103320000D01*
X117423732Y-103351128D01*
X117276321Y-103412188D01*
X117160000Y-103489911D01*
X117043679Y-103412188D01*
X116896268Y-103351128D01*
X116739778Y-103320000D01*
X116580222Y-103320000D01*
X116423732Y-103351128D01*
X116276321Y-103412188D01*
X116160000Y-103489911D01*
X116043679Y-103412188D01*
X115896268Y-103351128D01*
X115739778Y-103320000D01*
X115580222Y-103320000D01*
X115423732Y-103351128D01*
X115276321Y-103412188D01*
X115143655Y-103500832D01*
X115030832Y-103613655D01*
X114942188Y-103746321D01*
X114881128Y-103893732D01*
X114850000Y-104050222D01*
X114850000Y-104209778D01*
X114877369Y-104347369D01*
X114739778Y-104320000D01*
X114580222Y-104320000D01*
X114423732Y-104351128D01*
X114276321Y-104412188D01*
X114241164Y-104435679D01*
X113905919Y-103904874D01*
X114043679Y-103847812D01*
X114176345Y-103759168D01*
X114289168Y-103646345D01*
X114377812Y-103513679D01*
X114438872Y-103366268D01*
X114470000Y-103209778D01*
X114470000Y-103050222D01*
X114442631Y-102912631D01*
X114580222Y-102940000D01*
X114739778Y-102940000D01*
X114896268Y-102908872D01*
X115043679Y-102847812D01*
X115176345Y-102759168D01*
X115289168Y-102646345D01*
X115377812Y-102513679D01*
X115438872Y-102366268D01*
X115470000Y-102209778D01*
X115470000Y-102050222D01*
X115438872Y-101893732D01*
X115377812Y-101746321D01*
X115289168Y-101613655D01*
X115176345Y-101500832D01*
X115043679Y-101412188D01*
X114896268Y-101351128D01*
X114739778Y-101320000D01*
X114580222Y-101320000D01*
X114423732Y-101351128D01*
X114276321Y-101412188D01*
X114160000Y-101489911D01*
X114043679Y-101412188D01*
X113896268Y-101351128D01*
X113739778Y-101320000D01*
X113627000Y-101320000D01*
X113627000Y-93127000D01*
X117596585Y-93127000D01*
X117549010Y-93241855D01*
G36*
X138290000Y-129290000D02*
G01*
X91710000Y-129290000D01*
X91710000Y-123038061D01*
X100415000Y-123038061D01*
X100415000Y-123241939D01*
X100454774Y-123441898D01*
X100532795Y-123630256D01*
X100646063Y-123799774D01*
X100790226Y-123943937D01*
X100959744Y-124057205D01*
X101148102Y-124135226D01*
X101204957Y-124146535D01*
X103523470Y-126465049D01*
X103551183Y-126498817D01*
X103584951Y-126526530D01*
X103584953Y-126526532D01*
X103656452Y-126585210D01*
X103685941Y-126609411D01*
X103839687Y-126691589D01*
X104006510Y-126742195D01*
X104136523Y-126755000D01*
X104136533Y-126755000D01*
X104179999Y-126759281D01*
X104223466Y-126755000D01*
X116301546Y-126755000D01*
X116349744Y-126787205D01*
X116538102Y-126865226D01*
X116738061Y-126905000D01*
X116941939Y-126905000D01*
X117141898Y-126865226D01*
X117330256Y-126787205D01*
X117499774Y-126673937D01*
X117643937Y-126529774D01*
X117757205Y-126360256D01*
X117835226Y-126171898D01*
X117875000Y-125971939D01*
X117875000Y-125768061D01*
X117835226Y-125568102D01*
X117757205Y-125379744D01*
X117643937Y-125210226D01*
X117512645Y-125078934D01*
X119155044Y-123436535D01*
X119211898Y-123425226D01*
X119400256Y-123347205D01*
X119569774Y-123233937D01*
X119713937Y-123089774D01*
X119827205Y-122920256D01*
X119905226Y-122731898D01*
X119945000Y-122531939D01*
X119945000Y-122328061D01*
X119933066Y-122268061D01*
X125355000Y-122268061D01*
X125355000Y-122471939D01*
X125394774Y-122671898D01*
X125472795Y-122860256D01*
X125586063Y-123029774D01*
X125730226Y-123173937D01*
X125899744Y-123287205D01*
X126088102Y-123365226D01*
X126288061Y-123405000D01*
X126491939Y-123405000D01*
X126691898Y-123365226D01*
X126880256Y-123287205D01*
X127049774Y-123173937D01*
X127193937Y-123029774D01*
X127307205Y-122860256D01*
X127385226Y-122671898D01*
X127425000Y-122471939D01*
X127425000Y-122268061D01*
X127385226Y-122068102D01*
X127307205Y-121879744D01*
X127193937Y-121710226D01*
X127049774Y-121566063D01*
X126880256Y-121452795D01*
X126691898Y-121374774D01*
X126491939Y-121335000D01*
X126288061Y-121335000D01*
X126088102Y-121374774D01*
X125899744Y-121452795D01*
X125730226Y-121566063D01*
X125586063Y-121710226D01*
X125472795Y-121879744D01*
X125394774Y-122068102D01*
X125355000Y-122268061D01*
X119933066Y-122268061D01*
X119905226Y-122128102D01*
X119827205Y-121939744D01*
X119713937Y-121770226D01*
X119569774Y-121626063D01*
X119400256Y-121512795D01*
X119211898Y-121434774D01*
X119011939Y-121395000D01*
X118808061Y-121395000D01*
X118608102Y-121434774D01*
X118419744Y-121512795D01*
X118250226Y-121626063D01*
X118106063Y-121770226D01*
X117992795Y-121939744D01*
X117914774Y-122128102D01*
X117903465Y-122184956D01*
X116363422Y-123725000D01*
X113318454Y-123725000D01*
X113270256Y-123692795D01*
X113081898Y-123614774D01*
X112881939Y-123575000D01*
X112678061Y-123575000D01*
X112478102Y-123614774D01*
X112289744Y-123692795D01*
X112120226Y-123806063D01*
X111976063Y-123950226D01*
X111862795Y-124119744D01*
X111784774Y-124308102D01*
X111745000Y-124508061D01*
X111745000Y-124711939D01*
X111784774Y-124911898D01*
X111815054Y-124985000D01*
X104546579Y-124985000D01*
X102456535Y-122894957D01*
X102445226Y-122838102D01*
X102367205Y-122649744D01*
X102253937Y-122480226D01*
X102109774Y-122336063D01*
X101940256Y-122222795D01*
X101751898Y-122144774D01*
X101551939Y-122105000D01*
X101348061Y-122105000D01*
X101148102Y-122144774D01*
X100959744Y-122222795D01*
X100790226Y-122336063D01*
X100646063Y-122480226D01*
X100532795Y-122649744D01*
X100454774Y-122838102D01*
X100415000Y-123038061D01*
X91710000Y-123038061D01*
X91710000Y-119628061D01*
X107625000Y-119628061D01*
X107625000Y-119831939D01*
X107664774Y-120031898D01*
X107742795Y-120220256D01*
X107856063Y-120389774D01*
X108000226Y-120533937D01*
X108169744Y-120647205D01*
X108358102Y-120725226D01*
X108558061Y-120765000D01*
X108761939Y-120765000D01*
X108961898Y-120725226D01*
X109150256Y-120647205D01*
X109319774Y-120533937D01*
X109463937Y-120389774D01*
X109577205Y-120220256D01*
X109655226Y-120031898D01*
X109695000Y-119831939D01*
X109695000Y-119628061D01*
X109655226Y-119428102D01*
X109588935Y-119268061D01*
X111055000Y-119268061D01*
X111055000Y-119471939D01*
X111094774Y-119671898D01*
X111172795Y-119860256D01*
X111286063Y-120029774D01*
X111430226Y-120173937D01*
X111599744Y-120287205D01*
X111788102Y-120365226D01*
X111988061Y-120405000D01*
X112191939Y-120405000D01*
X112391898Y-120365226D01*
X112425278Y-120351399D01*
X112482795Y-120490256D01*
X112596063Y-120659774D01*
X112740226Y-120803937D01*
X112909744Y-120917205D01*
X113098102Y-120995226D01*
X113298061Y-121035000D01*
X113501939Y-121035000D01*
X113701898Y-120995226D01*
X113890256Y-120917205D01*
X114059774Y-120803937D01*
X114203937Y-120659774D01*
X114317205Y-120490256D01*
X114395226Y-120301898D01*
X114435000Y-120101939D01*
X114435000Y-119898061D01*
X114395226Y-119698102D01*
X114317205Y-119509744D01*
X114203937Y-119340226D01*
X114059774Y-119196063D01*
X113890256Y-119082795D01*
X113701898Y-119004774D01*
X113501939Y-118965000D01*
X113298061Y-118965000D01*
X113098102Y-119004774D01*
X113064722Y-119018601D01*
X113007205Y-118879744D01*
X112893937Y-118710226D01*
X112749774Y-118566063D01*
X112580256Y-118452795D01*
X112391898Y-118374774D01*
X112191939Y-118335000D01*
X111988061Y-118335000D01*
X111788102Y-118374774D01*
X111599744Y-118452795D01*
X111430226Y-118566063D01*
X111286063Y-118710226D01*
X111172795Y-118879744D01*
X111094774Y-119068102D01*
X111055000Y-119268061D01*
X109588935Y-119268061D01*
X109577205Y-119239744D01*
X109463937Y-119070226D01*
X109319774Y-118926063D01*
X109150256Y-118812795D01*
X108961898Y-118734774D01*
X108761939Y-118695000D01*
X108558061Y-118695000D01*
X108358102Y-118734774D01*
X108169744Y-118812795D01*
X108000226Y-118926063D01*
X107856063Y-119070226D01*
X107742795Y-119239744D01*
X107664774Y-119428102D01*
X107625000Y-119628061D01*
X91710000Y-119628061D01*
X91710000Y-115878061D01*
X110205000Y-115878061D01*
X110205000Y-116081939D01*
X110244774Y-116281898D01*
X110322795Y-116470256D01*
X110436063Y-116639774D01*
X110580226Y-116783937D01*
X110749744Y-116897205D01*
X110938102Y-116975226D01*
X111138061Y-117015000D01*
X111341939Y-117015000D01*
X111541898Y-116975226D01*
X111730256Y-116897205D01*
X111899774Y-116783937D01*
X112043937Y-116639774D01*
X112157205Y-116470256D01*
X112235226Y-116281898D01*
X112275000Y-116081939D01*
X112275000Y-115878061D01*
X112235226Y-115678102D01*
X112157205Y-115489744D01*
X112043937Y-115320226D01*
X111899774Y-115176063D01*
X111730256Y-115062795D01*
X111541898Y-114984774D01*
X111341939Y-114945000D01*
X111138061Y-114945000D01*
X110938102Y-114984774D01*
X110749744Y-115062795D01*
X110580226Y-115176063D01*
X110436063Y-115320226D01*
X110322795Y-115489744D01*
X110244774Y-115678102D01*
X110205000Y-115878061D01*
X91710000Y-115878061D01*
X91710000Y-113138061D01*
X98655000Y-113138061D01*
X98655000Y-113341939D01*
X98694774Y-113541898D01*
X98772795Y-113730256D01*
X98886063Y-113899774D01*
X99030226Y-114043937D01*
X99199744Y-114157205D01*
X99388102Y-114235226D01*
X99588061Y-114275000D01*
X99791939Y-114275000D01*
X99991898Y-114235226D01*
X100180256Y-114157205D01*
X100349774Y-114043937D01*
X100493937Y-113899774D01*
X100607205Y-113730256D01*
X100685226Y-113541898D01*
X100725000Y-113341939D01*
X100725000Y-113138061D01*
X100685226Y-112938102D01*
X100607205Y-112749744D01*
X100493937Y-112580226D01*
X100349774Y-112436063D01*
X100220436Y-112349642D01*
X100250600Y-112337148D01*
X100420118Y-112223880D01*
X100564281Y-112079717D01*
X100677549Y-111910199D01*
X100755570Y-111721841D01*
X100795344Y-111521882D01*
X100795344Y-111318004D01*
X100755570Y-111118045D01*
X100714156Y-111018061D01*
X109755000Y-111018061D01*
X109755000Y-111221939D01*
X109794774Y-111421898D01*
X109872795Y-111610256D01*
X109986063Y-111779774D01*
X110130226Y-111923937D01*
X110299744Y-112037205D01*
X110488102Y-112115226D01*
X110688061Y-112155000D01*
X110891939Y-112155000D01*
X111091898Y-112115226D01*
X111280256Y-112037205D01*
X111449774Y-111923937D01*
X111593937Y-111779774D01*
X111707205Y-111610256D01*
X111785226Y-111421898D01*
X111825000Y-111221939D01*
X111825000Y-111050222D01*
X112850000Y-111050222D01*
X112850000Y-111209778D01*
X112881128Y-111366268D01*
X112942188Y-111513679D01*
X113019911Y-111630000D01*
X112942188Y-111746321D01*
X112881128Y-111893732D01*
X112850000Y-112050222D01*
X112850000Y-112209778D01*
X112881128Y-112366268D01*
X112942188Y-112513679D01*
X113030832Y-112646345D01*
X113143655Y-112759168D01*
X113276321Y-112847812D01*
X113423732Y-112908872D01*
X113580222Y-112940000D01*
X113584130Y-112940000D01*
X113500226Y-112996063D01*
X113356063Y-113140226D01*
X113242795Y-113309744D01*
X113164774Y-113498102D01*
X113125000Y-113698061D01*
X113125000Y-113901939D01*
X113164774Y-114101898D01*
X113242795Y-114290256D01*
X113356063Y-114459774D01*
X113500226Y-114603937D01*
X113669744Y-114717205D01*
X113858102Y-114795226D01*
X114058061Y-114835000D01*
X114120198Y-114835000D01*
X115305739Y-116020542D01*
X115242795Y-116114744D01*
X115164774Y-116303102D01*
X115125000Y-116503061D01*
X115125000Y-116706939D01*
X115164774Y-116906898D01*
X115242795Y-117095256D01*
X115356063Y-117264774D01*
X115500226Y-117408937D01*
X115669744Y-117522205D01*
X115858102Y-117600226D01*
X116058061Y-117640000D01*
X116261939Y-117640000D01*
X116461898Y-117600226D01*
X116650256Y-117522205D01*
X116819774Y-117408937D01*
X116963937Y-117264774D01*
X117077205Y-117095256D01*
X117155226Y-116906898D01*
X117161343Y-116876145D01*
X117476201Y-117191003D01*
X117499999Y-117220001D01*
X117615724Y-117314974D01*
X117747753Y-117385546D01*
X117891014Y-117429003D01*
X118002667Y-117440000D01*
X118002675Y-117440000D01*
X118040000Y-117443676D01*
X118077325Y-117440000D01*
X118856289Y-117440000D01*
X118900226Y-117483937D01*
X119069744Y-117597205D01*
X119258102Y-117675226D01*
X119458061Y-117715000D01*
X119661939Y-117715000D01*
X119861898Y-117675226D01*
X120050256Y-117597205D01*
X120219774Y-117483937D01*
X120363937Y-117339774D01*
X120477205Y-117170256D01*
X120555226Y-116981898D01*
X120595000Y-116781939D01*
X120595000Y-116578061D01*
X120555226Y-116378102D01*
X120477205Y-116189744D01*
X120363937Y-116020226D01*
X120320000Y-115976289D01*
X120320000Y-114790000D01*
X122602678Y-114790000D01*
X122640000Y-114793676D01*
X122677322Y-114790000D01*
X122677333Y-114790000D01*
X122788986Y-114779003D01*
X122932247Y-114735546D01*
X123064276Y-114664974D01*
X123180001Y-114570001D01*
X123203804Y-114540997D01*
X124139802Y-113605000D01*
X124201939Y-113605000D01*
X124401898Y-113565226D01*
X124590256Y-113487205D01*
X124759774Y-113373937D01*
X124803711Y-113330000D01*
X125901315Y-113330000D01*
X125784201Y-113447114D01*
X125632629Y-113673957D01*
X125528225Y-113926011D01*
X125475000Y-114193589D01*
X125475000Y-114466411D01*
X125528225Y-114733989D01*
X125632629Y-114986043D01*
X125784201Y-115212886D01*
X125977114Y-115405799D01*
X126203957Y-115557371D01*
X126456011Y-115661775D01*
X126723589Y-115715000D01*
X126996411Y-115715000D01*
X127263989Y-115661775D01*
X127516043Y-115557371D01*
X127742886Y-115405799D01*
X127935799Y-115212886D01*
X128087371Y-114986043D01*
X128191775Y-114733989D01*
X128245000Y-114466411D01*
X128245000Y-114193589D01*
X128191775Y-113926011D01*
X128087371Y-113673957D01*
X127935799Y-113447114D01*
X127742886Y-113254201D01*
X127516043Y-113102629D01*
X127414311Y-113060490D01*
X127476740Y-112998061D01*
X132465000Y-112998061D01*
X132465000Y-113201939D01*
X132504774Y-113401898D01*
X132582795Y-113590256D01*
X132696063Y-113759774D01*
X132840226Y-113903937D01*
X133009744Y-114017205D01*
X133198102Y-114095226D01*
X133398061Y-114135000D01*
X133601939Y-114135000D01*
X133801898Y-114095226D01*
X133990256Y-114017205D01*
X134159774Y-113903937D01*
X134303937Y-113759774D01*
X134417205Y-113590256D01*
X134495226Y-113401898D01*
X134535000Y-113201939D01*
X134535000Y-112998061D01*
X134495226Y-112798102D01*
X134417205Y-112609744D01*
X134303937Y-112440226D01*
X134159774Y-112296063D01*
X133990256Y-112182795D01*
X133801898Y-112104774D01*
X133601939Y-112065000D01*
X133398061Y-112065000D01*
X133198102Y-112104774D01*
X133009744Y-112182795D01*
X132840226Y-112296063D01*
X132696063Y-112440226D01*
X132582795Y-112609744D01*
X132504774Y-112798102D01*
X132465000Y-112998061D01*
X127476740Y-112998061D01*
X128681004Y-111793798D01*
X128710001Y-111770001D01*
X128804974Y-111654276D01*
X128875546Y-111522247D01*
X128919003Y-111378986D01*
X128930000Y-111267333D01*
X128930000Y-111267324D01*
X128933676Y-111230001D01*
X128930000Y-111192678D01*
X128930000Y-103998061D01*
X130365000Y-103998061D01*
X130365000Y-104201939D01*
X130404774Y-104401898D01*
X130482795Y-104590256D01*
X130596063Y-104759774D01*
X130740226Y-104903937D01*
X130883995Y-105000000D01*
X130740226Y-105096063D01*
X130596063Y-105240226D01*
X130482795Y-105409744D01*
X130404774Y-105598102D01*
X130365000Y-105798061D01*
X130365000Y-106001939D01*
X130404774Y-106201898D01*
X130482795Y-106390256D01*
X130596063Y-106559774D01*
X130740226Y-106703937D01*
X130883995Y-106800000D01*
X130740226Y-106896063D01*
X130596063Y-107040226D01*
X130482795Y-107209744D01*
X130404774Y-107398102D01*
X130365000Y-107598061D01*
X130365000Y-107801939D01*
X130404774Y-108001898D01*
X130482795Y-108190256D01*
X130596063Y-108359774D01*
X130740226Y-108503937D01*
X130883995Y-108600000D01*
X130740226Y-108696063D01*
X130596063Y-108840226D01*
X130482795Y-109009744D01*
X130404774Y-109198102D01*
X130365000Y-109398061D01*
X130365000Y-109601939D01*
X130404774Y-109801898D01*
X130482795Y-109990256D01*
X130596063Y-110159774D01*
X130740226Y-110303937D01*
X130883995Y-110400000D01*
X130740226Y-110496063D01*
X130596063Y-110640226D01*
X130482795Y-110809744D01*
X130404774Y-110998102D01*
X130365000Y-111198061D01*
X130365000Y-111401939D01*
X130404774Y-111601898D01*
X130482795Y-111790256D01*
X130596063Y-111959774D01*
X130740226Y-112103937D01*
X130909744Y-112217205D01*
X131098102Y-112295226D01*
X131298061Y-112335000D01*
X131501939Y-112335000D01*
X131701898Y-112295226D01*
X131890256Y-112217205D01*
X132059774Y-112103937D01*
X132203937Y-111959774D01*
X132317205Y-111790256D01*
X132395226Y-111601898D01*
X132435000Y-111401939D01*
X132435000Y-111198061D01*
X132395226Y-110998102D01*
X132317205Y-110809744D01*
X132203937Y-110640226D01*
X132059774Y-110496063D01*
X131916005Y-110400000D01*
X132059774Y-110303937D01*
X132203937Y-110159774D01*
X132317205Y-109990256D01*
X132395226Y-109801898D01*
X132435000Y-109601939D01*
X132435000Y-109398061D01*
X132395226Y-109198102D01*
X132317205Y-109009744D01*
X132203937Y-108840226D01*
X132059774Y-108696063D01*
X131916005Y-108600000D01*
X132059774Y-108503937D01*
X132203937Y-108359774D01*
X132317205Y-108190256D01*
X132395226Y-108001898D01*
X132435000Y-107801939D01*
X132435000Y-107598061D01*
X132395226Y-107398102D01*
X132317205Y-107209744D01*
X132203937Y-107040226D01*
X132059774Y-106896063D01*
X131916005Y-106800000D01*
X132059774Y-106703937D01*
X132203937Y-106559774D01*
X132317205Y-106390256D01*
X132395226Y-106201898D01*
X132435000Y-106001939D01*
X132435000Y-105798061D01*
X132395226Y-105598102D01*
X132317205Y-105409744D01*
X132203937Y-105240226D01*
X132059774Y-105096063D01*
X131916005Y-105000000D01*
X132059774Y-104903937D01*
X132203937Y-104759774D01*
X132317205Y-104590256D01*
X132395226Y-104401898D01*
X132435000Y-104201939D01*
X132435000Y-103998061D01*
X132395226Y-103798102D01*
X132317205Y-103609744D01*
X132203937Y-103440226D01*
X132059774Y-103296063D01*
X131890256Y-103182795D01*
X131701898Y-103104774D01*
X131501939Y-103065000D01*
X131298061Y-103065000D01*
X131098102Y-103104774D01*
X130909744Y-103182795D01*
X130740226Y-103296063D01*
X130596063Y-103440226D01*
X130482795Y-103609744D01*
X130404774Y-103798102D01*
X130365000Y-103998061D01*
X128930000Y-103998061D01*
X128930000Y-99747322D01*
X128933676Y-99709999D01*
X128930000Y-99672676D01*
X128930000Y-99672667D01*
X128919003Y-99561014D01*
X128875546Y-99417753D01*
X128804974Y-99285724D01*
X128784046Y-99260222D01*
X130500000Y-99260222D01*
X130500000Y-99419778D01*
X130531128Y-99576268D01*
X130553385Y-99630000D01*
X130531128Y-99683732D01*
X130500000Y-99840222D01*
X130500000Y-99999778D01*
X130531128Y-100156268D01*
X130592188Y-100303679D01*
X130680832Y-100436345D01*
X130793655Y-100549168D01*
X130926321Y-100637812D01*
X131073732Y-100698872D01*
X131230222Y-100730000D01*
X131389778Y-100730000D01*
X131546268Y-100698872D01*
X131693679Y-100637812D01*
X131826345Y-100549168D01*
X131939168Y-100436345D01*
X132027812Y-100303679D01*
X132088872Y-100156268D01*
X132120000Y-99999778D01*
X132120000Y-99840222D01*
X132088872Y-99683732D01*
X132066615Y-99630000D01*
X132088872Y-99576268D01*
X132120000Y-99419778D01*
X132120000Y-99260222D01*
X132088872Y-99103732D01*
X132027812Y-98956321D01*
X131939168Y-98823655D01*
X131826345Y-98710832D01*
X131693679Y-98622188D01*
X131546268Y-98561128D01*
X131389778Y-98530000D01*
X131230222Y-98530000D01*
X131073732Y-98561128D01*
X130926321Y-98622188D01*
X130793655Y-98710832D01*
X130680832Y-98823655D01*
X130592188Y-98956321D01*
X130531128Y-99103732D01*
X130500000Y-99260222D01*
X128784046Y-99260222D01*
X128710001Y-99169999D01*
X128681004Y-99146202D01*
X127935000Y-98400199D01*
X127935000Y-98338061D01*
X127895226Y-98138102D01*
X127817205Y-97949744D01*
X127703937Y-97780226D01*
X127559774Y-97636063D01*
X127390256Y-97522795D01*
X127201898Y-97444774D01*
X127001939Y-97405000D01*
X126798061Y-97405000D01*
X126598102Y-97444774D01*
X126409744Y-97522795D01*
X126240226Y-97636063D01*
X126096063Y-97780226D01*
X125982795Y-97949744D01*
X125904774Y-98138102D01*
X125865000Y-98338061D01*
X125865000Y-98541939D01*
X125904774Y-98741898D01*
X125982795Y-98930256D01*
X126096063Y-99099774D01*
X126240226Y-99243937D01*
X126409744Y-99357205D01*
X126598102Y-99435226D01*
X126798061Y-99475000D01*
X126860199Y-99475000D01*
X127410001Y-100024803D01*
X127410000Y-107362104D01*
X127405226Y-107338102D01*
X127327205Y-107149744D01*
X127213937Y-106980226D01*
X127069774Y-106836063D01*
X126900256Y-106722795D01*
X126851225Y-106702486D01*
X126993937Y-106559774D01*
X127107205Y-106390256D01*
X127185226Y-106201898D01*
X127225000Y-106001939D01*
X127225000Y-105798061D01*
X127185226Y-105598102D01*
X127107205Y-105409744D01*
X126993937Y-105240226D01*
X126849774Y-105096063D01*
X126832215Y-105084330D01*
X126849003Y-105028986D01*
X126860000Y-104917333D01*
X126860000Y-104917323D01*
X126863676Y-104880000D01*
X126860000Y-104842677D01*
X126860000Y-104803711D01*
X126903937Y-104759774D01*
X127017205Y-104590256D01*
X127095226Y-104401898D01*
X127135000Y-104201939D01*
X127135000Y-103998061D01*
X127095226Y-103798102D01*
X127017205Y-103609744D01*
X126903937Y-103440226D01*
X126759774Y-103296063D01*
X126590256Y-103182795D01*
X126401898Y-103104774D01*
X126201939Y-103065000D01*
X125998061Y-103065000D01*
X125798102Y-103104774D01*
X125609744Y-103182795D01*
X125440226Y-103296063D01*
X125296063Y-103440226D01*
X125182795Y-103609744D01*
X125104774Y-103798102D01*
X125065000Y-103998061D01*
X125065000Y-104201939D01*
X125104774Y-104401898D01*
X125182795Y-104590256D01*
X125235726Y-104669473D01*
X124535199Y-105370000D01*
X122941829Y-105370000D01*
X122896268Y-105351128D01*
X122739778Y-105320000D01*
X122580222Y-105320000D01*
X122423732Y-105351128D01*
X122276321Y-105412188D01*
X122143655Y-105500832D01*
X122030832Y-105613655D01*
X121942188Y-105746321D01*
X121881128Y-105893732D01*
X121850000Y-106050222D01*
X121850000Y-106209778D01*
X121881128Y-106366268D01*
X121942188Y-106513679D01*
X122019911Y-106630000D01*
X121942188Y-106746321D01*
X121881128Y-106893732D01*
X121850000Y-107050222D01*
X121850000Y-107209778D01*
X121881128Y-107366268D01*
X121942188Y-107513679D01*
X122030832Y-107646345D01*
X122143655Y-107759168D01*
X122276321Y-107847812D01*
X122423732Y-107908872D01*
X122580222Y-107940000D01*
X122739778Y-107940000D01*
X122896268Y-107908872D01*
X123043679Y-107847812D01*
X123144631Y-107780358D01*
X123174774Y-107931898D01*
X123252795Y-108120256D01*
X123366063Y-108289774D01*
X123446289Y-108370000D01*
X122941829Y-108370000D01*
X122896268Y-108351128D01*
X122739778Y-108320000D01*
X122580222Y-108320000D01*
X122423732Y-108351128D01*
X122276321Y-108412188D01*
X122143655Y-108500832D01*
X122030832Y-108613655D01*
X121942188Y-108746321D01*
X121881128Y-108893732D01*
X121850000Y-109050222D01*
X121850000Y-109209778D01*
X121881128Y-109366268D01*
X121942188Y-109513679D01*
X122030832Y-109646345D01*
X122143655Y-109759168D01*
X122276321Y-109847812D01*
X122423732Y-109908872D01*
X122580222Y-109940000D01*
X122739778Y-109940000D01*
X122896268Y-109908872D01*
X122941829Y-109890000D01*
X123055000Y-109890000D01*
X123055000Y-110001939D01*
X123094774Y-110201898D01*
X123172795Y-110390256D01*
X123272850Y-110540000D01*
X123215513Y-110540000D01*
X123176345Y-110500832D01*
X123043679Y-110412188D01*
X122896268Y-110351128D01*
X122739778Y-110320000D01*
X122580222Y-110320000D01*
X122423732Y-110351128D01*
X122276321Y-110412188D01*
X122160000Y-110489911D01*
X122043679Y-110412188D01*
X121896268Y-110351128D01*
X121739778Y-110320000D01*
X121580222Y-110320000D01*
X121423732Y-110351128D01*
X121276321Y-110412188D01*
X121143655Y-110500832D01*
X121030832Y-110613655D01*
X120942188Y-110746321D01*
X120881128Y-110893732D01*
X120850000Y-111050222D01*
X120850000Y-111209778D01*
X120881128Y-111366268D01*
X120942188Y-111513679D01*
X121030832Y-111646345D01*
X121143655Y-111759168D01*
X121276321Y-111847812D01*
X121423732Y-111908872D01*
X121580222Y-111940000D01*
X121739778Y-111940000D01*
X121896268Y-111908872D01*
X122043679Y-111847812D01*
X122160000Y-111770089D01*
X122276321Y-111847812D01*
X122323155Y-111867211D01*
X122405724Y-111934974D01*
X122537753Y-112005546D01*
X122681014Y-112049003D01*
X122792667Y-112060000D01*
X122792676Y-112060000D01*
X122829999Y-112063676D01*
X122867322Y-112060000D01*
X123195987Y-112060000D01*
X123182795Y-112079744D01*
X123104774Y-112268102D01*
X123065000Y-112468061D01*
X123065000Y-112530198D01*
X122325199Y-113270000D01*
X119874802Y-113270000D01*
X118396685Y-111791884D01*
X118377812Y-111746321D01*
X118289168Y-111613655D01*
X118176345Y-111500832D01*
X118043679Y-111412188D01*
X117896268Y-111351128D01*
X117739778Y-111320000D01*
X117580222Y-111320000D01*
X117423732Y-111351128D01*
X117276321Y-111412188D01*
X117143655Y-111500832D01*
X117030832Y-111613655D01*
X116942188Y-111746321D01*
X116881128Y-111893732D01*
X116850000Y-112050222D01*
X116850000Y-112209778D01*
X116881128Y-112366268D01*
X116942188Y-112513679D01*
X117030832Y-112646345D01*
X117143655Y-112759168D01*
X117276321Y-112847812D01*
X117321884Y-112866685D01*
X117722146Y-113266947D01*
X117659744Y-113292795D01*
X117490226Y-113406063D01*
X117346063Y-113550226D01*
X117232795Y-113719744D01*
X117154774Y-113908102D01*
X117115000Y-114108061D01*
X117115000Y-114311939D01*
X117154774Y-114511898D01*
X117232795Y-114700256D01*
X117346063Y-114869774D01*
X117490226Y-115013937D01*
X117659744Y-115127205D01*
X117848102Y-115205226D01*
X118048061Y-115245000D01*
X118251939Y-115245000D01*
X118451898Y-115205226D01*
X118640256Y-115127205D01*
X118800001Y-115020467D01*
X118800000Y-115920000D01*
X118354802Y-115920000D01*
X117523804Y-115089002D01*
X117500001Y-115059999D01*
X117384276Y-114965026D01*
X117252247Y-114894454D01*
X117108986Y-114850997D01*
X116997333Y-114840000D01*
X116997322Y-114840000D01*
X116960000Y-114836324D01*
X116922678Y-114840000D01*
X116274803Y-114840000D01*
X115195000Y-113760198D01*
X115195000Y-113698061D01*
X115155226Y-113498102D01*
X115077205Y-113309744D01*
X114963937Y-113140226D01*
X114819774Y-112996063D01*
X114650256Y-112882795D01*
X114461898Y-112804774D01*
X114261939Y-112765000D01*
X114167617Y-112765000D01*
X114176345Y-112759168D01*
X114289168Y-112646345D01*
X114377812Y-112513679D01*
X114438872Y-112366268D01*
X114470000Y-112209778D01*
X114470000Y-112050222D01*
X114850000Y-112050222D01*
X114850000Y-112209778D01*
X114881128Y-112366268D01*
X114942188Y-112513679D01*
X115030832Y-112646345D01*
X115143655Y-112759168D01*
X115276321Y-112847812D01*
X115423732Y-112908872D01*
X115580222Y-112940000D01*
X115739778Y-112940000D01*
X115896268Y-112908872D01*
X116043679Y-112847812D01*
X116176345Y-112759168D01*
X116289168Y-112646345D01*
X116377812Y-112513679D01*
X116438872Y-112366268D01*
X116470000Y-112209778D01*
X116470000Y-112050222D01*
X116438872Y-111893732D01*
X116377812Y-111746321D01*
X116289168Y-111613655D01*
X116176345Y-111500832D01*
X116043679Y-111412188D01*
X115896268Y-111351128D01*
X115739778Y-111320000D01*
X115580222Y-111320000D01*
X115423732Y-111351128D01*
X115276321Y-111412188D01*
X115143655Y-111500832D01*
X115030832Y-111613655D01*
X114942188Y-111746321D01*
X114881128Y-111893732D01*
X114850000Y-112050222D01*
X114470000Y-112050222D01*
X114438872Y-111893732D01*
X114377812Y-111746321D01*
X114300089Y-111630000D01*
X114377812Y-111513679D01*
X114438872Y-111366268D01*
X114470000Y-111209778D01*
X114470000Y-111050222D01*
X118850000Y-111050222D01*
X118850000Y-111209778D01*
X118881128Y-111366268D01*
X118942188Y-111513679D01*
X119030832Y-111646345D01*
X119143655Y-111759168D01*
X119276321Y-111847812D01*
X119423732Y-111908872D01*
X119580222Y-111940000D01*
X119739778Y-111940000D01*
X119896268Y-111908872D01*
X120043679Y-111847812D01*
X120176345Y-111759168D01*
X120289168Y-111646345D01*
X120377812Y-111513679D01*
X120438872Y-111366268D01*
X120470000Y-111209778D01*
X120470000Y-111050222D01*
X120438872Y-110893732D01*
X120377812Y-110746321D01*
X120289168Y-110613655D01*
X120176345Y-110500832D01*
X120043679Y-110412188D01*
X119896268Y-110351128D01*
X119739778Y-110320000D01*
X119580222Y-110320000D01*
X119423732Y-110351128D01*
X119276321Y-110412188D01*
X119143655Y-110500832D01*
X119030832Y-110613655D01*
X118942188Y-110746321D01*
X118881128Y-110893732D01*
X118850000Y-111050222D01*
X114470000Y-111050222D01*
X114438872Y-110893732D01*
X114377812Y-110746321D01*
X114289168Y-110613655D01*
X114176345Y-110500832D01*
X114043679Y-110412188D01*
X113896268Y-110351128D01*
X113739778Y-110320000D01*
X113580222Y-110320000D01*
X113423732Y-110351128D01*
X113276321Y-110412188D01*
X113143655Y-110500832D01*
X113030832Y-110613655D01*
X112942188Y-110746321D01*
X112881128Y-110893732D01*
X112850000Y-111050222D01*
X111825000Y-111050222D01*
X111825000Y-111018061D01*
X111785226Y-110818102D01*
X111707205Y-110629744D01*
X111593937Y-110460226D01*
X111449774Y-110316063D01*
X111280256Y-110202795D01*
X111091898Y-110124774D01*
X110891939Y-110085000D01*
X110688061Y-110085000D01*
X110488102Y-110124774D01*
X110299744Y-110202795D01*
X110130226Y-110316063D01*
X109986063Y-110460226D01*
X109872795Y-110629744D01*
X109794774Y-110818102D01*
X109755000Y-111018061D01*
X100714156Y-111018061D01*
X100689064Y-110957485D01*
X100745226Y-110821898D01*
X100785000Y-110621939D01*
X100785000Y-110418061D01*
X100745226Y-110218102D01*
X100667205Y-110029744D01*
X100553937Y-109860226D01*
X100409774Y-109716063D01*
X100240256Y-109602795D01*
X100051898Y-109524774D01*
X99851939Y-109485000D01*
X99648061Y-109485000D01*
X99448102Y-109524774D01*
X99259744Y-109602795D01*
X99090226Y-109716063D01*
X98946063Y-109860226D01*
X98832795Y-110029744D01*
X98754774Y-110218102D01*
X98715000Y-110418061D01*
X98715000Y-110621939D01*
X98754774Y-110821898D01*
X98821280Y-110982458D01*
X98765118Y-111118045D01*
X98725344Y-111318004D01*
X98725344Y-111521882D01*
X98765118Y-111721841D01*
X98843139Y-111910199D01*
X98956407Y-112079717D01*
X99100570Y-112223880D01*
X99229908Y-112310301D01*
X99199744Y-112322795D01*
X99030226Y-112436063D01*
X98886063Y-112580226D01*
X98772795Y-112749744D01*
X98694774Y-112938102D01*
X98655000Y-113138061D01*
X91710000Y-113138061D01*
X91710000Y-109110222D01*
X101580000Y-109110222D01*
X101580000Y-109269778D01*
X101611128Y-109426268D01*
X101637527Y-109490000D01*
X101611128Y-109553732D01*
X101580000Y-109710222D01*
X101580000Y-109869778D01*
X101611128Y-110026268D01*
X101672188Y-110173679D01*
X101760832Y-110306345D01*
X101873655Y-110419168D01*
X102006321Y-110507812D01*
X102153732Y-110568872D01*
X102310222Y-110600000D01*
X102469778Y-110600000D01*
X102626268Y-110568872D01*
X102773679Y-110507812D01*
X102906345Y-110419168D01*
X103019168Y-110306345D01*
X103107812Y-110173679D01*
X103168872Y-110026268D01*
X103200000Y-109869778D01*
X103200000Y-109710222D01*
X103168872Y-109553732D01*
X103142473Y-109490000D01*
X103168872Y-109426268D01*
X103200000Y-109269778D01*
X103200000Y-109110222D01*
X103168872Y-108953732D01*
X103107812Y-108806321D01*
X103019168Y-108673655D01*
X102906345Y-108560832D01*
X102773679Y-108472188D01*
X102626268Y-108411128D01*
X102469778Y-108380000D01*
X102310222Y-108380000D01*
X102153732Y-108411128D01*
X102006321Y-108472188D01*
X101873655Y-108560832D01*
X101760832Y-108673655D01*
X101672188Y-108806321D01*
X101611128Y-108953732D01*
X101580000Y-109110222D01*
X91710000Y-109110222D01*
X91710000Y-106110222D01*
X104390000Y-106110222D01*
X104390000Y-106269778D01*
X104421128Y-106426268D01*
X104447527Y-106490000D01*
X104421128Y-106553732D01*
X104390000Y-106710222D01*
X104390000Y-106869778D01*
X104421128Y-107026268D01*
X104482188Y-107173679D01*
X104570832Y-107306345D01*
X104683655Y-107419168D01*
X104816321Y-107507812D01*
X104963732Y-107568872D01*
X105120222Y-107600000D01*
X105279778Y-107600000D01*
X105436268Y-107568872D01*
X105583679Y-107507812D01*
X105716345Y-107419168D01*
X105829168Y-107306345D01*
X105917812Y-107173679D01*
X105978872Y-107026268D01*
X106010000Y-106869778D01*
X106010000Y-106710222D01*
X105978872Y-106553732D01*
X105952473Y-106490000D01*
X105978872Y-106426268D01*
X106010000Y-106269778D01*
X106010000Y-106110222D01*
X105978872Y-105953732D01*
X105917812Y-105806321D01*
X105829168Y-105673655D01*
X105716345Y-105560832D01*
X105583679Y-105472188D01*
X105436268Y-105411128D01*
X105279778Y-105380000D01*
X105120222Y-105380000D01*
X104963732Y-105411128D01*
X104816321Y-105472188D01*
X104683655Y-105560832D01*
X104570832Y-105673655D01*
X104482188Y-105806321D01*
X104421128Y-105953732D01*
X104390000Y-106110222D01*
X91710000Y-106110222D01*
X91710000Y-104610222D01*
X101304792Y-104610222D01*
X101304792Y-104769778D01*
X101335920Y-104926268D01*
X101362319Y-104990000D01*
X101335920Y-105053732D01*
X101304792Y-105210222D01*
X101304792Y-105369778D01*
X101335920Y-105526268D01*
X101396980Y-105673679D01*
X101485624Y-105806345D01*
X101598447Y-105919168D01*
X101731113Y-106007812D01*
X101878524Y-106068872D01*
X102035014Y-106100000D01*
X102194570Y-106100000D01*
X102351060Y-106068872D01*
X102498471Y-106007812D01*
X102631137Y-105919168D01*
X102743960Y-105806345D01*
X102832604Y-105673679D01*
X102893664Y-105526268D01*
X102924792Y-105369778D01*
X102924792Y-105210222D01*
X102893664Y-105053732D01*
X102867265Y-104990000D01*
X102893664Y-104926268D01*
X102924792Y-104769778D01*
X102924792Y-104610222D01*
X102893664Y-104453732D01*
X102832604Y-104306321D01*
X102743960Y-104173655D01*
X102631137Y-104060832D01*
X102498471Y-103972188D01*
X102351060Y-103911128D01*
X102194570Y-103880000D01*
X102035014Y-103880000D01*
X101878524Y-103911128D01*
X101731113Y-103972188D01*
X101598447Y-104060832D01*
X101485624Y-104173655D01*
X101396980Y-104306321D01*
X101335920Y-104453732D01*
X101304792Y-104610222D01*
X91710000Y-104610222D01*
X91710000Y-103732355D01*
X106557867Y-103732355D01*
X106557867Y-103891911D01*
X106588995Y-104048401D01*
X106650055Y-104195812D01*
X106738699Y-104328478D01*
X106851522Y-104441301D01*
X106984188Y-104529945D01*
X107131599Y-104591005D01*
X107288089Y-104622133D01*
X107447645Y-104622133D01*
X107604135Y-104591005D01*
X107751546Y-104529945D01*
X107884212Y-104441301D01*
X107997035Y-104328478D01*
X108077475Y-104208089D01*
X109047867Y-104208089D01*
X109047867Y-104367645D01*
X109078995Y-104524135D01*
X109140055Y-104671546D01*
X109228699Y-104804212D01*
X109341522Y-104917035D01*
X109474188Y-105005679D01*
X109537922Y-105032078D01*
X109564321Y-105095812D01*
X109652965Y-105228478D01*
X109765788Y-105341301D01*
X109898454Y-105429945D01*
X110045865Y-105491005D01*
X110202355Y-105522133D01*
X110361911Y-105522133D01*
X110518401Y-105491005D01*
X110598368Y-105457881D01*
X110580000Y-105550222D01*
X110580000Y-105709778D01*
X110611128Y-105866268D01*
X110672188Y-106013679D01*
X110749911Y-106130000D01*
X110672188Y-106246321D01*
X110611128Y-106393732D01*
X110580000Y-106550222D01*
X110580000Y-106709778D01*
X110611128Y-106866268D01*
X110672188Y-107013679D01*
X110749911Y-107130000D01*
X110672188Y-107246321D01*
X110611128Y-107393732D01*
X110580000Y-107550222D01*
X110580000Y-107709778D01*
X110611128Y-107866268D01*
X110672188Y-108013679D01*
X110735722Y-108108765D01*
X110730832Y-108113655D01*
X110642188Y-108246321D01*
X110581128Y-108393732D01*
X110550000Y-108550222D01*
X110550000Y-108709778D01*
X110581128Y-108866268D01*
X110642188Y-109013679D01*
X110730832Y-109146345D01*
X110843655Y-109259168D01*
X110976321Y-109347812D01*
X111123732Y-109408872D01*
X111280222Y-109440000D01*
X111439778Y-109440000D01*
X111596268Y-109408872D01*
X111743679Y-109347812D01*
X111861762Y-109268912D01*
X111881128Y-109366268D01*
X111942188Y-109513679D01*
X112030832Y-109646345D01*
X112143655Y-109759168D01*
X112276321Y-109847812D01*
X112423732Y-109908872D01*
X112580222Y-109940000D01*
X112739778Y-109940000D01*
X112896268Y-109908872D01*
X113043679Y-109847812D01*
X113176345Y-109759168D01*
X113289168Y-109646345D01*
X113377812Y-109513679D01*
X113438872Y-109366268D01*
X113470000Y-109209778D01*
X113470000Y-109050222D01*
X113438872Y-108893732D01*
X113377812Y-108746321D01*
X113300089Y-108630000D01*
X113377812Y-108513679D01*
X113438872Y-108366268D01*
X113470000Y-108209778D01*
X113470000Y-108050222D01*
X113438872Y-107893732D01*
X113377812Y-107746321D01*
X113300089Y-107630000D01*
X113377812Y-107513679D01*
X113438872Y-107366268D01*
X113470000Y-107209778D01*
X113470000Y-107050222D01*
X113438872Y-106893732D01*
X113377812Y-106746321D01*
X113289168Y-106613655D01*
X113176345Y-106500832D01*
X113043679Y-106412188D01*
X112896268Y-106351128D01*
X112739778Y-106320000D01*
X112580222Y-106320000D01*
X112423732Y-106351128D01*
X112276321Y-106412188D01*
X112184718Y-106473395D01*
X112168872Y-106393732D01*
X112107812Y-106246321D01*
X112030089Y-106130000D01*
X112107812Y-106013679D01*
X112168872Y-105866268D01*
X112184718Y-105786605D01*
X112276321Y-105847812D01*
X112423732Y-105908872D01*
X112580222Y-105940000D01*
X112739778Y-105940000D01*
X112896268Y-105908872D01*
X113043679Y-105847812D01*
X113176345Y-105759168D01*
X113289168Y-105646345D01*
X113377812Y-105513679D01*
X113438872Y-105366268D01*
X113470000Y-105209778D01*
X113470000Y-105050222D01*
X113438872Y-104893732D01*
X113377812Y-104746321D01*
X113300089Y-104630000D01*
X113377812Y-104513679D01*
X113382312Y-104502815D01*
X114163115Y-105739086D01*
X114250987Y-105849013D01*
X114347213Y-105927983D01*
X114456996Y-105986664D01*
X114576118Y-106022799D01*
X114700000Y-106035000D01*
X120600000Y-106035000D01*
X120717023Y-106024124D01*
X120836535Y-105989301D01*
X120946957Y-105931832D01*
X121044046Y-105853925D01*
X121124070Y-105758574D01*
X121958815Y-104538563D01*
X122030832Y-104646345D01*
X122143655Y-104759168D01*
X122276321Y-104847812D01*
X122423732Y-104908872D01*
X122580222Y-104940000D01*
X122739778Y-104940000D01*
X122896268Y-104908872D01*
X123043679Y-104847812D01*
X123176345Y-104759168D01*
X123289168Y-104646345D01*
X123377812Y-104513679D01*
X123438872Y-104366268D01*
X123470000Y-104209778D01*
X123470000Y-104050222D01*
X123438872Y-103893732D01*
X123377812Y-103746321D01*
X123289168Y-103613655D01*
X123176345Y-103500832D01*
X123043679Y-103412188D01*
X122896268Y-103351128D01*
X122739778Y-103320000D01*
X122580222Y-103320000D01*
X122535000Y-103328995D01*
X122535000Y-100691316D01*
X122790464Y-100691316D01*
X122790464Y-100895194D01*
X122830238Y-101095153D01*
X122908259Y-101283511D01*
X123021527Y-101453029D01*
X123165690Y-101597192D01*
X123335208Y-101710460D01*
X123523566Y-101788481D01*
X123723525Y-101828255D01*
X123927403Y-101828255D01*
X124127362Y-101788481D01*
X124315720Y-101710460D01*
X124485238Y-101597192D01*
X124629401Y-101453029D01*
X124742669Y-101283511D01*
X124820690Y-101095153D01*
X124860464Y-100895194D01*
X124860464Y-100691316D01*
X124820690Y-100491357D01*
X124742669Y-100302999D01*
X124629401Y-100133481D01*
X124485238Y-99989318D01*
X124315720Y-99876050D01*
X124127362Y-99798029D01*
X123927403Y-99758255D01*
X123723525Y-99758255D01*
X123523566Y-99798029D01*
X123335208Y-99876050D01*
X123165690Y-99989318D01*
X123021527Y-100133481D01*
X122908259Y-100302999D01*
X122830238Y-100491357D01*
X122790464Y-100691316D01*
X122535000Y-100691316D01*
X122535000Y-96428711D01*
X122603937Y-96359774D01*
X122717205Y-96190256D01*
X122795226Y-96001898D01*
X122835000Y-95801939D01*
X122835000Y-95598061D01*
X122795226Y-95398102D01*
X122717205Y-95209744D01*
X122603937Y-95040226D01*
X122535000Y-94971289D01*
X122535000Y-93000000D01*
X122522799Y-92876118D01*
X122486664Y-92756996D01*
X122427983Y-92647213D01*
X122349013Y-92550987D01*
X122252787Y-92472017D01*
X122143004Y-92413336D01*
X122023882Y-92377201D01*
X121900000Y-92365000D01*
X113500000Y-92365000D01*
X113376118Y-92377201D01*
X113256996Y-92413336D01*
X113147213Y-92472017D01*
X113050987Y-92550987D01*
X112972017Y-92647213D01*
X112913336Y-92756996D01*
X112877201Y-92876118D01*
X112865000Y-93000000D01*
X112865000Y-101344908D01*
X112739778Y-101320000D01*
X112580222Y-101320000D01*
X112423732Y-101351128D01*
X112276321Y-101412188D01*
X112143655Y-101500832D01*
X112030832Y-101613655D01*
X111942188Y-101746321D01*
X111881128Y-101893732D01*
X111850000Y-102050222D01*
X111850000Y-102209778D01*
X111881128Y-102366268D01*
X111942188Y-102513679D01*
X112030832Y-102646345D01*
X112143655Y-102759168D01*
X112276321Y-102847812D01*
X112423732Y-102908872D01*
X112580222Y-102940000D01*
X112739778Y-102940000D01*
X112865000Y-102915092D01*
X112865000Y-102974812D01*
X112850000Y-103050222D01*
X112850000Y-103209778D01*
X112865000Y-103285188D01*
X112865000Y-103344908D01*
X112739778Y-103320000D01*
X112580222Y-103320000D01*
X112423732Y-103351128D01*
X112276321Y-103412188D01*
X112143655Y-103500832D01*
X112030832Y-103613655D01*
X111942188Y-103746321D01*
X111881128Y-103893732D01*
X111867628Y-103961599D01*
X111793679Y-103912188D01*
X111646268Y-103851128D01*
X111489778Y-103820000D01*
X111330222Y-103820000D01*
X111173732Y-103851128D01*
X111026321Y-103912188D01*
X110893655Y-104000832D01*
X110805000Y-104089487D01*
X110798478Y-104082965D01*
X110665812Y-103994321D01*
X110602078Y-103967922D01*
X110575679Y-103904188D01*
X110487035Y-103771522D01*
X110374212Y-103658699D01*
X110241546Y-103570055D01*
X110094135Y-103508995D01*
X109937645Y-103477867D01*
X109778089Y-103477867D01*
X109621599Y-103508995D01*
X109474188Y-103570055D01*
X109341522Y-103658699D01*
X109228699Y-103771522D01*
X109140055Y-103904188D01*
X109078995Y-104051599D01*
X109047867Y-104208089D01*
X108077475Y-104208089D01*
X108085679Y-104195812D01*
X108112078Y-104132078D01*
X108175812Y-104105679D01*
X108308478Y-104017035D01*
X108421301Y-103904212D01*
X108509945Y-103771546D01*
X108571005Y-103624135D01*
X108602133Y-103467645D01*
X108602133Y-103308089D01*
X108571005Y-103151599D01*
X108509945Y-103004188D01*
X108421301Y-102871522D01*
X108308478Y-102758699D01*
X108175812Y-102670055D01*
X108028401Y-102608995D01*
X107871911Y-102577867D01*
X107712355Y-102577867D01*
X107555865Y-102608995D01*
X107408454Y-102670055D01*
X107275788Y-102758699D01*
X107162965Y-102871522D01*
X107074321Y-103004188D01*
X107047922Y-103067922D01*
X106984188Y-103094321D01*
X106851522Y-103182965D01*
X106738699Y-103295788D01*
X106650055Y-103428454D01*
X106588995Y-103575865D01*
X106557867Y-103732355D01*
X91710000Y-103732355D01*
X91710000Y-99793589D01*
X107075000Y-99793589D01*
X107075000Y-100066411D01*
X107128225Y-100333989D01*
X107232629Y-100586043D01*
X107384201Y-100812886D01*
X107577114Y-101005799D01*
X107803957Y-101157371D01*
X108056011Y-101261775D01*
X108323589Y-101315000D01*
X108596411Y-101315000D01*
X108863989Y-101261775D01*
X109116043Y-101157371D01*
X109342886Y-101005799D01*
X109535799Y-100812886D01*
X109687371Y-100586043D01*
X109791775Y-100333989D01*
X109845000Y-100066411D01*
X109845000Y-99793589D01*
X109791775Y-99526011D01*
X109687371Y-99273957D01*
X109535799Y-99047114D01*
X109342886Y-98854201D01*
X109116043Y-98702629D01*
X108863989Y-98598225D01*
X108596411Y-98545000D01*
X108323589Y-98545000D01*
X108056011Y-98598225D01*
X107803957Y-98702629D01*
X107577114Y-98854201D01*
X107384201Y-99047114D01*
X107232629Y-99273957D01*
X107128225Y-99526011D01*
X107075000Y-99793589D01*
X91710000Y-99793589D01*
X91710000Y-95360000D01*
X98800719Y-95360000D01*
X98817805Y-95533490D01*
X98868412Y-95700313D01*
X98950590Y-95854059D01*
X99061183Y-95988817D01*
X99195941Y-96099410D01*
X99349687Y-96181588D01*
X99516510Y-96232195D01*
X99690000Y-96249281D01*
X99863490Y-96232195D01*
X100030313Y-96181588D01*
X100184059Y-96099410D01*
X100285046Y-96016532D01*
X100556578Y-95745000D01*
X100941546Y-95745000D01*
X100989744Y-95777205D01*
X101178102Y-95855226D01*
X101378061Y-95895000D01*
X101581939Y-95895000D01*
X101781898Y-95855226D01*
X101970256Y-95777205D01*
X102139774Y-95663937D01*
X102283937Y-95519774D01*
X102397205Y-95350256D01*
X102475226Y-95161898D01*
X102515000Y-94961939D01*
X102515000Y-94758061D01*
X102475226Y-94558102D01*
X102397205Y-94369744D01*
X102283937Y-94200226D01*
X102139774Y-94056063D01*
X101970256Y-93942795D01*
X101781898Y-93864774D01*
X101581939Y-93825000D01*
X101378061Y-93825000D01*
X101178102Y-93864774D01*
X100989744Y-93942795D01*
X100941546Y-93975000D01*
X100233469Y-93975000D01*
X100190000Y-93970719D01*
X100146531Y-93975000D01*
X100146523Y-93975000D01*
X100016510Y-93987805D01*
X99849687Y-94038411D01*
X99695941Y-94120589D01*
X99561183Y-94231183D01*
X99533466Y-94264956D01*
X99033468Y-94764954D01*
X98950590Y-94865941D01*
X98868412Y-95019687D01*
X98817805Y-95186510D01*
X98800719Y-95360000D01*
X91710000Y-95360000D01*
X91710000Y-83300000D01*
X98821928Y-83300000D01*
X98821928Y-85000000D01*
X98834188Y-85124482D01*
X98870498Y-85244180D01*
X98929463Y-85354494D01*
X99008815Y-85451185D01*
X99105506Y-85530537D01*
X99215820Y-85589502D01*
X99288380Y-85611513D01*
X99156525Y-85743368D01*
X98994010Y-85986589D01*
X98882068Y-86256842D01*
X98825000Y-86543740D01*
X98825000Y-86836260D01*
X98882068Y-87123158D01*
X98994010Y-87393411D01*
X99156525Y-87636632D01*
X99363368Y-87843475D01*
X99537760Y-87960000D01*
X99363368Y-88076525D01*
X99156525Y-88283368D01*
X98994010Y-88526589D01*
X98882068Y-88796842D01*
X98825000Y-89083740D01*
X98825000Y-89376260D01*
X98882068Y-89663158D01*
X98994010Y-89933411D01*
X99156525Y-90176632D01*
X99363368Y-90383475D01*
X99537760Y-90500000D01*
X99363368Y-90616525D01*
X99156525Y-90823368D01*
X98994010Y-91066589D01*
X98882068Y-91336842D01*
X98825000Y-91623740D01*
X98825000Y-91916260D01*
X98882068Y-92203158D01*
X98994010Y-92473411D01*
X99156525Y-92716632D01*
X99363368Y-92923475D01*
X99606589Y-93085990D01*
X99876842Y-93197932D01*
X100163740Y-93255000D01*
X100456260Y-93255000D01*
X100743158Y-93197932D01*
X101013411Y-93085990D01*
X101256632Y-92923475D01*
X101463475Y-92716632D01*
X101625990Y-92473411D01*
X101737932Y-92203158D01*
X101795000Y-91916260D01*
X101795000Y-91623740D01*
X101754088Y-91418061D01*
X102085000Y-91418061D01*
X102085000Y-91621939D01*
X102124774Y-91821898D01*
X102202795Y-92010256D01*
X102316063Y-92179774D01*
X102460226Y-92323937D01*
X102629744Y-92437205D01*
X102818102Y-92515226D01*
X103018061Y-92555000D01*
X103221939Y-92555000D01*
X103421898Y-92515226D01*
X103610256Y-92437205D01*
X103779774Y-92323937D01*
X103923937Y-92179774D01*
X104037205Y-92010256D01*
X104115226Y-91821898D01*
X104129527Y-91750000D01*
X133211928Y-91750000D01*
X133211928Y-93450000D01*
X133224188Y-93574482D01*
X133260498Y-93694180D01*
X133319463Y-93804494D01*
X133398815Y-93901185D01*
X133495506Y-93980537D01*
X133605820Y-94039502D01*
X133725518Y-94075812D01*
X133850000Y-94088072D01*
X135550000Y-94088072D01*
X135674482Y-94075812D01*
X135794180Y-94039502D01*
X135904494Y-93980537D01*
X136001185Y-93901185D01*
X136080537Y-93804494D01*
X136139502Y-93694180D01*
X136175812Y-93574482D01*
X136188072Y-93450000D01*
X136188072Y-91750000D01*
X136175812Y-91625518D01*
X136139502Y-91505820D01*
X136080537Y-91395506D01*
X136001185Y-91298815D01*
X135904494Y-91219463D01*
X135794180Y-91160498D01*
X135674482Y-91124188D01*
X135550000Y-91111928D01*
X133850000Y-91111928D01*
X133725518Y-91124188D01*
X133605820Y-91160498D01*
X133495506Y-91219463D01*
X133398815Y-91298815D01*
X133319463Y-91395506D01*
X133260498Y-91505820D01*
X133224188Y-91625518D01*
X133211928Y-91750000D01*
X104129527Y-91750000D01*
X104155000Y-91621939D01*
X104155000Y-91418061D01*
X104115226Y-91218102D01*
X104037205Y-91029744D01*
X103923937Y-90860226D01*
X103779774Y-90716063D01*
X103610256Y-90602795D01*
X103421898Y-90524774D01*
X103221939Y-90485000D01*
X103018061Y-90485000D01*
X102818102Y-90524774D01*
X102629744Y-90602795D01*
X102460226Y-90716063D01*
X102316063Y-90860226D01*
X102202795Y-91029744D01*
X102124774Y-91218102D01*
X102085000Y-91418061D01*
X101754088Y-91418061D01*
X101737932Y-91336842D01*
X101625990Y-91066589D01*
X101463475Y-90823368D01*
X101256632Y-90616525D01*
X101082240Y-90500000D01*
X101256632Y-90383475D01*
X101463475Y-90176632D01*
X101625990Y-89933411D01*
X101737932Y-89663158D01*
X101795000Y-89376260D01*
X101795000Y-89083740D01*
X101737932Y-88796842D01*
X101625990Y-88526589D01*
X101463475Y-88283368D01*
X101256632Y-88076525D01*
X101082240Y-87960000D01*
X101256632Y-87843475D01*
X101463475Y-87636632D01*
X101625990Y-87393411D01*
X101737932Y-87123158D01*
X101795000Y-86836260D01*
X101795000Y-86543740D01*
X101737932Y-86256842D01*
X101715937Y-86203740D01*
X107405000Y-86203740D01*
X107405000Y-86496260D01*
X107462068Y-86783158D01*
X107574010Y-87053411D01*
X107736525Y-87296632D01*
X107943368Y-87503475D01*
X108117760Y-87620000D01*
X107943368Y-87736525D01*
X107736525Y-87943368D01*
X107574010Y-88186589D01*
X107462068Y-88456842D01*
X107405000Y-88743740D01*
X107405000Y-89036260D01*
X107462068Y-89323158D01*
X107574010Y-89593411D01*
X107736525Y-89836632D01*
X107943368Y-90043475D01*
X108186589Y-90205990D01*
X108456842Y-90317932D01*
X108743740Y-90375000D01*
X109036260Y-90375000D01*
X109323158Y-90317932D01*
X109593411Y-90205990D01*
X109836632Y-90043475D01*
X110043475Y-89836632D01*
X110160000Y-89662240D01*
X110276525Y-89836632D01*
X110483368Y-90043475D01*
X110726589Y-90205990D01*
X110996842Y-90317932D01*
X111283740Y-90375000D01*
X111576260Y-90375000D01*
X111863158Y-90317932D01*
X112133411Y-90205990D01*
X112376632Y-90043475D01*
X112583475Y-89836632D01*
X112745990Y-89593411D01*
X112857932Y-89323158D01*
X112915000Y-89036260D01*
X112915000Y-88743740D01*
X112857932Y-88456842D01*
X112745990Y-88186589D01*
X112583475Y-87943368D01*
X112451620Y-87811513D01*
X112524180Y-87789502D01*
X112634494Y-87730537D01*
X112731185Y-87651185D01*
X112810537Y-87554494D01*
X112869502Y-87444180D01*
X112905812Y-87324482D01*
X112918072Y-87200000D01*
X112918072Y-85500000D01*
X112905812Y-85375518D01*
X112869502Y-85255820D01*
X112810537Y-85145506D01*
X112731185Y-85048815D01*
X112634494Y-84969463D01*
X112524180Y-84910498D01*
X112404482Y-84874188D01*
X112280000Y-84861928D01*
X110580000Y-84861928D01*
X110455518Y-84874188D01*
X110335820Y-84910498D01*
X110225506Y-84969463D01*
X110128815Y-85048815D01*
X110049463Y-85145506D01*
X109990498Y-85255820D01*
X109968487Y-85328380D01*
X109836632Y-85196525D01*
X109593411Y-85034010D01*
X109323158Y-84922068D01*
X109036260Y-84865000D01*
X108743740Y-84865000D01*
X108456842Y-84922068D01*
X108186589Y-85034010D01*
X107943368Y-85196525D01*
X107736525Y-85403368D01*
X107574010Y-85646589D01*
X107462068Y-85916842D01*
X107405000Y-86203740D01*
X101715937Y-86203740D01*
X101625990Y-85986589D01*
X101463475Y-85743368D01*
X101331620Y-85611513D01*
X101404180Y-85589502D01*
X101514494Y-85530537D01*
X101611185Y-85451185D01*
X101690537Y-85354494D01*
X101749502Y-85244180D01*
X101785812Y-85124482D01*
X101798072Y-85000000D01*
X101798072Y-83300000D01*
X101785812Y-83175518D01*
X101749502Y-83055820D01*
X101690537Y-82945506D01*
X101611185Y-82848815D01*
X101514494Y-82769463D01*
X101404180Y-82710498D01*
X101284482Y-82674188D01*
X101160000Y-82661928D01*
X99460000Y-82661928D01*
X99335518Y-82674188D01*
X99215820Y-82710498D01*
X99105506Y-82769463D01*
X99008815Y-82848815D01*
X98929463Y-82945506D01*
X98870498Y-83055820D01*
X98834188Y-83175518D01*
X98821928Y-83300000D01*
X91710000Y-83300000D01*
X91710000Y-81710000D01*
X138290001Y-81710000D01*
X138290000Y-129290000D01*
G37*
X138290000Y-129290000D02*
X91710000Y-129290000D01*
X91710000Y-123038061D01*
X100415000Y-123038061D01*
X100415000Y-123241939D01*
X100454774Y-123441898D01*
X100532795Y-123630256D01*
X100646063Y-123799774D01*
X100790226Y-123943937D01*
X100959744Y-124057205D01*
X101148102Y-124135226D01*
X101204957Y-124146535D01*
X103523470Y-126465049D01*
X103551183Y-126498817D01*
X103584951Y-126526530D01*
X103584953Y-126526532D01*
X103656452Y-126585210D01*
X103685941Y-126609411D01*
X103839687Y-126691589D01*
X104006510Y-126742195D01*
X104136523Y-126755000D01*
X104136533Y-126755000D01*
X104179999Y-126759281D01*
X104223466Y-126755000D01*
X116301546Y-126755000D01*
X116349744Y-126787205D01*
X116538102Y-126865226D01*
X116738061Y-126905000D01*
X116941939Y-126905000D01*
X117141898Y-126865226D01*
X117330256Y-126787205D01*
X117499774Y-126673937D01*
X117643937Y-126529774D01*
X117757205Y-126360256D01*
X117835226Y-126171898D01*
X117875000Y-125971939D01*
X117875000Y-125768061D01*
X117835226Y-125568102D01*
X117757205Y-125379744D01*
X117643937Y-125210226D01*
X117512645Y-125078934D01*
X119155044Y-123436535D01*
X119211898Y-123425226D01*
X119400256Y-123347205D01*
X119569774Y-123233937D01*
X119713937Y-123089774D01*
X119827205Y-122920256D01*
X119905226Y-122731898D01*
X119945000Y-122531939D01*
X119945000Y-122328061D01*
X119933066Y-122268061D01*
X125355000Y-122268061D01*
X125355000Y-122471939D01*
X125394774Y-122671898D01*
X125472795Y-122860256D01*
X125586063Y-123029774D01*
X125730226Y-123173937D01*
X125899744Y-123287205D01*
X126088102Y-123365226D01*
X126288061Y-123405000D01*
X126491939Y-123405000D01*
X126691898Y-123365226D01*
X126880256Y-123287205D01*
X127049774Y-123173937D01*
X127193937Y-123029774D01*
X127307205Y-122860256D01*
X127385226Y-122671898D01*
X127425000Y-122471939D01*
X127425000Y-122268061D01*
X127385226Y-122068102D01*
X127307205Y-121879744D01*
X127193937Y-121710226D01*
X127049774Y-121566063D01*
X126880256Y-121452795D01*
X126691898Y-121374774D01*
X126491939Y-121335000D01*
X126288061Y-121335000D01*
X126088102Y-121374774D01*
X125899744Y-121452795D01*
X125730226Y-121566063D01*
X125586063Y-121710226D01*
X125472795Y-121879744D01*
X125394774Y-122068102D01*
X125355000Y-122268061D01*
X119933066Y-122268061D01*
X119905226Y-122128102D01*
X119827205Y-121939744D01*
X119713937Y-121770226D01*
X119569774Y-121626063D01*
X119400256Y-121512795D01*
X119211898Y-121434774D01*
X119011939Y-121395000D01*
X118808061Y-121395000D01*
X118608102Y-121434774D01*
X118419744Y-121512795D01*
X118250226Y-121626063D01*
X118106063Y-121770226D01*
X117992795Y-121939744D01*
X117914774Y-122128102D01*
X117903465Y-122184956D01*
X116363422Y-123725000D01*
X113318454Y-123725000D01*
X113270256Y-123692795D01*
X113081898Y-123614774D01*
X112881939Y-123575000D01*
X112678061Y-123575000D01*
X112478102Y-123614774D01*
X112289744Y-123692795D01*
X112120226Y-123806063D01*
X111976063Y-123950226D01*
X111862795Y-124119744D01*
X111784774Y-124308102D01*
X111745000Y-124508061D01*
X111745000Y-124711939D01*
X111784774Y-124911898D01*
X111815054Y-124985000D01*
X104546579Y-124985000D01*
X102456535Y-122894957D01*
X102445226Y-122838102D01*
X102367205Y-122649744D01*
X102253937Y-122480226D01*
X102109774Y-122336063D01*
X101940256Y-122222795D01*
X101751898Y-122144774D01*
X101551939Y-122105000D01*
X101348061Y-122105000D01*
X101148102Y-122144774D01*
X100959744Y-122222795D01*
X100790226Y-122336063D01*
X100646063Y-122480226D01*
X100532795Y-122649744D01*
X100454774Y-122838102D01*
X100415000Y-123038061D01*
X91710000Y-123038061D01*
X91710000Y-119628061D01*
X107625000Y-119628061D01*
X107625000Y-119831939D01*
X107664774Y-120031898D01*
X107742795Y-120220256D01*
X107856063Y-120389774D01*
X108000226Y-120533937D01*
X108169744Y-120647205D01*
X108358102Y-120725226D01*
X108558061Y-120765000D01*
X108761939Y-120765000D01*
X108961898Y-120725226D01*
X109150256Y-120647205D01*
X109319774Y-120533937D01*
X109463937Y-120389774D01*
X109577205Y-120220256D01*
X109655226Y-120031898D01*
X109695000Y-119831939D01*
X109695000Y-119628061D01*
X109655226Y-119428102D01*
X109588935Y-119268061D01*
X111055000Y-119268061D01*
X111055000Y-119471939D01*
X111094774Y-119671898D01*
X111172795Y-119860256D01*
X111286063Y-120029774D01*
X111430226Y-120173937D01*
X111599744Y-120287205D01*
X111788102Y-120365226D01*
X111988061Y-120405000D01*
X112191939Y-120405000D01*
X112391898Y-120365226D01*
X112425278Y-120351399D01*
X112482795Y-120490256D01*
X112596063Y-120659774D01*
X112740226Y-120803937D01*
X112909744Y-120917205D01*
X113098102Y-120995226D01*
X113298061Y-121035000D01*
X113501939Y-121035000D01*
X113701898Y-120995226D01*
X113890256Y-120917205D01*
X114059774Y-120803937D01*
X114203937Y-120659774D01*
X114317205Y-120490256D01*
X114395226Y-120301898D01*
X114435000Y-120101939D01*
X114435000Y-119898061D01*
X114395226Y-119698102D01*
X114317205Y-119509744D01*
X114203937Y-119340226D01*
X114059774Y-119196063D01*
X113890256Y-119082795D01*
X113701898Y-119004774D01*
X113501939Y-118965000D01*
X113298061Y-118965000D01*
X113098102Y-119004774D01*
X113064722Y-119018601D01*
X113007205Y-118879744D01*
X112893937Y-118710226D01*
X112749774Y-118566063D01*
X112580256Y-118452795D01*
X112391898Y-118374774D01*
X112191939Y-118335000D01*
X111988061Y-118335000D01*
X111788102Y-118374774D01*
X111599744Y-118452795D01*
X111430226Y-118566063D01*
X111286063Y-118710226D01*
X111172795Y-118879744D01*
X111094774Y-119068102D01*
X111055000Y-119268061D01*
X109588935Y-119268061D01*
X109577205Y-119239744D01*
X109463937Y-119070226D01*
X109319774Y-118926063D01*
X109150256Y-118812795D01*
X108961898Y-118734774D01*
X108761939Y-118695000D01*
X108558061Y-118695000D01*
X108358102Y-118734774D01*
X108169744Y-118812795D01*
X108000226Y-118926063D01*
X107856063Y-119070226D01*
X107742795Y-119239744D01*
X107664774Y-119428102D01*
X107625000Y-119628061D01*
X91710000Y-119628061D01*
X91710000Y-115878061D01*
X110205000Y-115878061D01*
X110205000Y-116081939D01*
X110244774Y-116281898D01*
X110322795Y-116470256D01*
X110436063Y-116639774D01*
X110580226Y-116783937D01*
X110749744Y-116897205D01*
X110938102Y-116975226D01*
X111138061Y-117015000D01*
X111341939Y-117015000D01*
X111541898Y-116975226D01*
X111730256Y-116897205D01*
X111899774Y-116783937D01*
X112043937Y-116639774D01*
X112157205Y-116470256D01*
X112235226Y-116281898D01*
X112275000Y-116081939D01*
X112275000Y-115878061D01*
X112235226Y-115678102D01*
X112157205Y-115489744D01*
X112043937Y-115320226D01*
X111899774Y-115176063D01*
X111730256Y-115062795D01*
X111541898Y-114984774D01*
X111341939Y-114945000D01*
X111138061Y-114945000D01*
X110938102Y-114984774D01*
X110749744Y-115062795D01*
X110580226Y-115176063D01*
X110436063Y-115320226D01*
X110322795Y-115489744D01*
X110244774Y-115678102D01*
X110205000Y-115878061D01*
X91710000Y-115878061D01*
X91710000Y-113138061D01*
X98655000Y-113138061D01*
X98655000Y-113341939D01*
X98694774Y-113541898D01*
X98772795Y-113730256D01*
X98886063Y-113899774D01*
X99030226Y-114043937D01*
X99199744Y-114157205D01*
X99388102Y-114235226D01*
X99588061Y-114275000D01*
X99791939Y-114275000D01*
X99991898Y-114235226D01*
X100180256Y-114157205D01*
X100349774Y-114043937D01*
X100493937Y-113899774D01*
X100607205Y-113730256D01*
X100685226Y-113541898D01*
X100725000Y-113341939D01*
X100725000Y-113138061D01*
X100685226Y-112938102D01*
X100607205Y-112749744D01*
X100493937Y-112580226D01*
X100349774Y-112436063D01*
X100220436Y-112349642D01*
X100250600Y-112337148D01*
X100420118Y-112223880D01*
X100564281Y-112079717D01*
X100677549Y-111910199D01*
X100755570Y-111721841D01*
X100795344Y-111521882D01*
X100795344Y-111318004D01*
X100755570Y-111118045D01*
X100714156Y-111018061D01*
X109755000Y-111018061D01*
X109755000Y-111221939D01*
X109794774Y-111421898D01*
X109872795Y-111610256D01*
X109986063Y-111779774D01*
X110130226Y-111923937D01*
X110299744Y-112037205D01*
X110488102Y-112115226D01*
X110688061Y-112155000D01*
X110891939Y-112155000D01*
X111091898Y-112115226D01*
X111280256Y-112037205D01*
X111449774Y-111923937D01*
X111593937Y-111779774D01*
X111707205Y-111610256D01*
X111785226Y-111421898D01*
X111825000Y-111221939D01*
X111825000Y-111050222D01*
X112850000Y-111050222D01*
X112850000Y-111209778D01*
X112881128Y-111366268D01*
X112942188Y-111513679D01*
X113019911Y-111630000D01*
X112942188Y-111746321D01*
X112881128Y-111893732D01*
X112850000Y-112050222D01*
X112850000Y-112209778D01*
X112881128Y-112366268D01*
X112942188Y-112513679D01*
X113030832Y-112646345D01*
X113143655Y-112759168D01*
X113276321Y-112847812D01*
X113423732Y-112908872D01*
X113580222Y-112940000D01*
X113584130Y-112940000D01*
X113500226Y-112996063D01*
X113356063Y-113140226D01*
X113242795Y-113309744D01*
X113164774Y-113498102D01*
X113125000Y-113698061D01*
X113125000Y-113901939D01*
X113164774Y-114101898D01*
X113242795Y-114290256D01*
X113356063Y-114459774D01*
X113500226Y-114603937D01*
X113669744Y-114717205D01*
X113858102Y-114795226D01*
X114058061Y-114835000D01*
X114120198Y-114835000D01*
X115305739Y-116020542D01*
X115242795Y-116114744D01*
X115164774Y-116303102D01*
X115125000Y-116503061D01*
X115125000Y-116706939D01*
X115164774Y-116906898D01*
X115242795Y-117095256D01*
X115356063Y-117264774D01*
X115500226Y-117408937D01*
X115669744Y-117522205D01*
X115858102Y-117600226D01*
X116058061Y-117640000D01*
X116261939Y-117640000D01*
X116461898Y-117600226D01*
X116650256Y-117522205D01*
X116819774Y-117408937D01*
X116963937Y-117264774D01*
X117077205Y-117095256D01*
X117155226Y-116906898D01*
X117161343Y-116876145D01*
X117476201Y-117191003D01*
X117499999Y-117220001D01*
X117615724Y-117314974D01*
X117747753Y-117385546D01*
X117891014Y-117429003D01*
X118002667Y-117440000D01*
X118002675Y-117440000D01*
X118040000Y-117443676D01*
X118077325Y-117440000D01*
X118856289Y-117440000D01*
X118900226Y-117483937D01*
X119069744Y-117597205D01*
X119258102Y-117675226D01*
X119458061Y-117715000D01*
X119661939Y-117715000D01*
X119861898Y-117675226D01*
X120050256Y-117597205D01*
X120219774Y-117483937D01*
X120363937Y-117339774D01*
X120477205Y-117170256D01*
X120555226Y-116981898D01*
X120595000Y-116781939D01*
X120595000Y-116578061D01*
X120555226Y-116378102D01*
X120477205Y-116189744D01*
X120363937Y-116020226D01*
X120320000Y-115976289D01*
X120320000Y-114790000D01*
X122602678Y-114790000D01*
X122640000Y-114793676D01*
X122677322Y-114790000D01*
X122677333Y-114790000D01*
X122788986Y-114779003D01*
X122932247Y-114735546D01*
X123064276Y-114664974D01*
X123180001Y-114570001D01*
X123203804Y-114540997D01*
X124139802Y-113605000D01*
X124201939Y-113605000D01*
X124401898Y-113565226D01*
X124590256Y-113487205D01*
X124759774Y-113373937D01*
X124803711Y-113330000D01*
X125901315Y-113330000D01*
X125784201Y-113447114D01*
X125632629Y-113673957D01*
X125528225Y-113926011D01*
X125475000Y-114193589D01*
X125475000Y-114466411D01*
X125528225Y-114733989D01*
X125632629Y-114986043D01*
X125784201Y-115212886D01*
X125977114Y-115405799D01*
X126203957Y-115557371D01*
X126456011Y-115661775D01*
X126723589Y-115715000D01*
X126996411Y-115715000D01*
X127263989Y-115661775D01*
X127516043Y-115557371D01*
X127742886Y-115405799D01*
X127935799Y-115212886D01*
X128087371Y-114986043D01*
X128191775Y-114733989D01*
X128245000Y-114466411D01*
X128245000Y-114193589D01*
X128191775Y-113926011D01*
X128087371Y-113673957D01*
X127935799Y-113447114D01*
X127742886Y-113254201D01*
X127516043Y-113102629D01*
X127414311Y-113060490D01*
X127476740Y-112998061D01*
X132465000Y-112998061D01*
X132465000Y-113201939D01*
X132504774Y-113401898D01*
X132582795Y-113590256D01*
X132696063Y-113759774D01*
X132840226Y-113903937D01*
X133009744Y-114017205D01*
X133198102Y-114095226D01*
X133398061Y-114135000D01*
X133601939Y-114135000D01*
X133801898Y-114095226D01*
X133990256Y-114017205D01*
X134159774Y-113903937D01*
X134303937Y-113759774D01*
X134417205Y-113590256D01*
X134495226Y-113401898D01*
X134535000Y-113201939D01*
X134535000Y-112998061D01*
X134495226Y-112798102D01*
X134417205Y-112609744D01*
X134303937Y-112440226D01*
X134159774Y-112296063D01*
X133990256Y-112182795D01*
X133801898Y-112104774D01*
X133601939Y-112065000D01*
X133398061Y-112065000D01*
X133198102Y-112104774D01*
X133009744Y-112182795D01*
X132840226Y-112296063D01*
X132696063Y-112440226D01*
X132582795Y-112609744D01*
X132504774Y-112798102D01*
X132465000Y-112998061D01*
X127476740Y-112998061D01*
X128681004Y-111793798D01*
X128710001Y-111770001D01*
X128804974Y-111654276D01*
X128875546Y-111522247D01*
X128919003Y-111378986D01*
X128930000Y-111267333D01*
X128930000Y-111267324D01*
X128933676Y-111230001D01*
X128930000Y-111192678D01*
X128930000Y-103998061D01*
X130365000Y-103998061D01*
X130365000Y-104201939D01*
X130404774Y-104401898D01*
X130482795Y-104590256D01*
X130596063Y-104759774D01*
X130740226Y-104903937D01*
X130883995Y-105000000D01*
X130740226Y-105096063D01*
X130596063Y-105240226D01*
X130482795Y-105409744D01*
X130404774Y-105598102D01*
X130365000Y-105798061D01*
X130365000Y-106001939D01*
X130404774Y-106201898D01*
X130482795Y-106390256D01*
X130596063Y-106559774D01*
X130740226Y-106703937D01*
X130883995Y-106800000D01*
X130740226Y-106896063D01*
X130596063Y-107040226D01*
X130482795Y-107209744D01*
X130404774Y-107398102D01*
X130365000Y-107598061D01*
X130365000Y-107801939D01*
X130404774Y-108001898D01*
X130482795Y-108190256D01*
X130596063Y-108359774D01*
X130740226Y-108503937D01*
X130883995Y-108600000D01*
X130740226Y-108696063D01*
X130596063Y-108840226D01*
X130482795Y-109009744D01*
X130404774Y-109198102D01*
X130365000Y-109398061D01*
X130365000Y-109601939D01*
X130404774Y-109801898D01*
X130482795Y-109990256D01*
X130596063Y-110159774D01*
X130740226Y-110303937D01*
X130883995Y-110400000D01*
X130740226Y-110496063D01*
X130596063Y-110640226D01*
X130482795Y-110809744D01*
X130404774Y-110998102D01*
X130365000Y-111198061D01*
X130365000Y-111401939D01*
X130404774Y-111601898D01*
X130482795Y-111790256D01*
X130596063Y-111959774D01*
X130740226Y-112103937D01*
X130909744Y-112217205D01*
X131098102Y-112295226D01*
X131298061Y-112335000D01*
X131501939Y-112335000D01*
X131701898Y-112295226D01*
X131890256Y-112217205D01*
X132059774Y-112103937D01*
X132203937Y-111959774D01*
X132317205Y-111790256D01*
X132395226Y-111601898D01*
X132435000Y-111401939D01*
X132435000Y-111198061D01*
X132395226Y-110998102D01*
X132317205Y-110809744D01*
X132203937Y-110640226D01*
X132059774Y-110496063D01*
X131916005Y-110400000D01*
X132059774Y-110303937D01*
X132203937Y-110159774D01*
X132317205Y-109990256D01*
X132395226Y-109801898D01*
X132435000Y-109601939D01*
X132435000Y-109398061D01*
X132395226Y-109198102D01*
X132317205Y-109009744D01*
X132203937Y-108840226D01*
X132059774Y-108696063D01*
X131916005Y-108600000D01*
X132059774Y-108503937D01*
X132203937Y-108359774D01*
X132317205Y-108190256D01*
X132395226Y-108001898D01*
X132435000Y-107801939D01*
X132435000Y-107598061D01*
X132395226Y-107398102D01*
X132317205Y-107209744D01*
X132203937Y-107040226D01*
X132059774Y-106896063D01*
X131916005Y-106800000D01*
X132059774Y-106703937D01*
X132203937Y-106559774D01*
X132317205Y-106390256D01*
X132395226Y-106201898D01*
X132435000Y-106001939D01*
X132435000Y-105798061D01*
X132395226Y-105598102D01*
X132317205Y-105409744D01*
X132203937Y-105240226D01*
X132059774Y-105096063D01*
X131916005Y-105000000D01*
X132059774Y-104903937D01*
X132203937Y-104759774D01*
X132317205Y-104590256D01*
X132395226Y-104401898D01*
X132435000Y-104201939D01*
X132435000Y-103998061D01*
X132395226Y-103798102D01*
X132317205Y-103609744D01*
X132203937Y-103440226D01*
X132059774Y-103296063D01*
X131890256Y-103182795D01*
X131701898Y-103104774D01*
X131501939Y-103065000D01*
X131298061Y-103065000D01*
X131098102Y-103104774D01*
X130909744Y-103182795D01*
X130740226Y-103296063D01*
X130596063Y-103440226D01*
X130482795Y-103609744D01*
X130404774Y-103798102D01*
X130365000Y-103998061D01*
X128930000Y-103998061D01*
X128930000Y-99747322D01*
X128933676Y-99709999D01*
X128930000Y-99672676D01*
X128930000Y-99672667D01*
X128919003Y-99561014D01*
X128875546Y-99417753D01*
X128804974Y-99285724D01*
X128784046Y-99260222D01*
X130500000Y-99260222D01*
X130500000Y-99419778D01*
X130531128Y-99576268D01*
X130553385Y-99630000D01*
X130531128Y-99683732D01*
X130500000Y-99840222D01*
X130500000Y-99999778D01*
X130531128Y-100156268D01*
X130592188Y-100303679D01*
X130680832Y-100436345D01*
X130793655Y-100549168D01*
X130926321Y-100637812D01*
X131073732Y-100698872D01*
X131230222Y-100730000D01*
X131389778Y-100730000D01*
X131546268Y-100698872D01*
X131693679Y-100637812D01*
X131826345Y-100549168D01*
X131939168Y-100436345D01*
X132027812Y-100303679D01*
X132088872Y-100156268D01*
X132120000Y-99999778D01*
X132120000Y-99840222D01*
X132088872Y-99683732D01*
X132066615Y-99630000D01*
X132088872Y-99576268D01*
X132120000Y-99419778D01*
X132120000Y-99260222D01*
X132088872Y-99103732D01*
X132027812Y-98956321D01*
X131939168Y-98823655D01*
X131826345Y-98710832D01*
X131693679Y-98622188D01*
X131546268Y-98561128D01*
X131389778Y-98530000D01*
X131230222Y-98530000D01*
X131073732Y-98561128D01*
X130926321Y-98622188D01*
X130793655Y-98710832D01*
X130680832Y-98823655D01*
X130592188Y-98956321D01*
X130531128Y-99103732D01*
X130500000Y-99260222D01*
X128784046Y-99260222D01*
X128710001Y-99169999D01*
X128681004Y-99146202D01*
X127935000Y-98400199D01*
X127935000Y-98338061D01*
X127895226Y-98138102D01*
X127817205Y-97949744D01*
X127703937Y-97780226D01*
X127559774Y-97636063D01*
X127390256Y-97522795D01*
X127201898Y-97444774D01*
X127001939Y-97405000D01*
X126798061Y-97405000D01*
X126598102Y-97444774D01*
X126409744Y-97522795D01*
X126240226Y-97636063D01*
X126096063Y-97780226D01*
X125982795Y-97949744D01*
X125904774Y-98138102D01*
X125865000Y-98338061D01*
X125865000Y-98541939D01*
X125904774Y-98741898D01*
X125982795Y-98930256D01*
X126096063Y-99099774D01*
X126240226Y-99243937D01*
X126409744Y-99357205D01*
X126598102Y-99435226D01*
X126798061Y-99475000D01*
X126860199Y-99475000D01*
X127410001Y-100024803D01*
X127410000Y-107362104D01*
X127405226Y-107338102D01*
X127327205Y-107149744D01*
X127213937Y-106980226D01*
X127069774Y-106836063D01*
X126900256Y-106722795D01*
X126851225Y-106702486D01*
X126993937Y-106559774D01*
X127107205Y-106390256D01*
X127185226Y-106201898D01*
X127225000Y-106001939D01*
X127225000Y-105798061D01*
X127185226Y-105598102D01*
X127107205Y-105409744D01*
X126993937Y-105240226D01*
X126849774Y-105096063D01*
X126832215Y-105084330D01*
X126849003Y-105028986D01*
X126860000Y-104917333D01*
X126860000Y-104917323D01*
X126863676Y-104880000D01*
X126860000Y-104842677D01*
X126860000Y-104803711D01*
X126903937Y-104759774D01*
X127017205Y-104590256D01*
X127095226Y-104401898D01*
X127135000Y-104201939D01*
X127135000Y-103998061D01*
X127095226Y-103798102D01*
X127017205Y-103609744D01*
X126903937Y-103440226D01*
X126759774Y-103296063D01*
X126590256Y-103182795D01*
X126401898Y-103104774D01*
X126201939Y-103065000D01*
X125998061Y-103065000D01*
X125798102Y-103104774D01*
X125609744Y-103182795D01*
X125440226Y-103296063D01*
X125296063Y-103440226D01*
X125182795Y-103609744D01*
X125104774Y-103798102D01*
X125065000Y-103998061D01*
X125065000Y-104201939D01*
X125104774Y-104401898D01*
X125182795Y-104590256D01*
X125235726Y-104669473D01*
X124535199Y-105370000D01*
X122941829Y-105370000D01*
X122896268Y-105351128D01*
X122739778Y-105320000D01*
X122580222Y-105320000D01*
X122423732Y-105351128D01*
X122276321Y-105412188D01*
X122143655Y-105500832D01*
X122030832Y-105613655D01*
X121942188Y-105746321D01*
X121881128Y-105893732D01*
X121850000Y-106050222D01*
X121850000Y-106209778D01*
X121881128Y-106366268D01*
X121942188Y-106513679D01*
X122019911Y-106630000D01*
X121942188Y-106746321D01*
X121881128Y-106893732D01*
X121850000Y-107050222D01*
X121850000Y-107209778D01*
X121881128Y-107366268D01*
X121942188Y-107513679D01*
X122030832Y-107646345D01*
X122143655Y-107759168D01*
X122276321Y-107847812D01*
X122423732Y-107908872D01*
X122580222Y-107940000D01*
X122739778Y-107940000D01*
X122896268Y-107908872D01*
X123043679Y-107847812D01*
X123144631Y-107780358D01*
X123174774Y-107931898D01*
X123252795Y-108120256D01*
X123366063Y-108289774D01*
X123446289Y-108370000D01*
X122941829Y-108370000D01*
X122896268Y-108351128D01*
X122739778Y-108320000D01*
X122580222Y-108320000D01*
X122423732Y-108351128D01*
X122276321Y-108412188D01*
X122143655Y-108500832D01*
X122030832Y-108613655D01*
X121942188Y-108746321D01*
X121881128Y-108893732D01*
X121850000Y-109050222D01*
X121850000Y-109209778D01*
X121881128Y-109366268D01*
X121942188Y-109513679D01*
X122030832Y-109646345D01*
X122143655Y-109759168D01*
X122276321Y-109847812D01*
X122423732Y-109908872D01*
X122580222Y-109940000D01*
X122739778Y-109940000D01*
X122896268Y-109908872D01*
X122941829Y-109890000D01*
X123055000Y-109890000D01*
X123055000Y-110001939D01*
X123094774Y-110201898D01*
X123172795Y-110390256D01*
X123272850Y-110540000D01*
X123215513Y-110540000D01*
X123176345Y-110500832D01*
X123043679Y-110412188D01*
X122896268Y-110351128D01*
X122739778Y-110320000D01*
X122580222Y-110320000D01*
X122423732Y-110351128D01*
X122276321Y-110412188D01*
X122160000Y-110489911D01*
X122043679Y-110412188D01*
X121896268Y-110351128D01*
X121739778Y-110320000D01*
X121580222Y-110320000D01*
X121423732Y-110351128D01*
X121276321Y-110412188D01*
X121143655Y-110500832D01*
X121030832Y-110613655D01*
X120942188Y-110746321D01*
X120881128Y-110893732D01*
X120850000Y-111050222D01*
X120850000Y-111209778D01*
X120881128Y-111366268D01*
X120942188Y-111513679D01*
X121030832Y-111646345D01*
X121143655Y-111759168D01*
X121276321Y-111847812D01*
X121423732Y-111908872D01*
X121580222Y-111940000D01*
X121739778Y-111940000D01*
X121896268Y-111908872D01*
X122043679Y-111847812D01*
X122160000Y-111770089D01*
X122276321Y-111847812D01*
X122323155Y-111867211D01*
X122405724Y-111934974D01*
X122537753Y-112005546D01*
X122681014Y-112049003D01*
X122792667Y-112060000D01*
X122792676Y-112060000D01*
X122829999Y-112063676D01*
X122867322Y-112060000D01*
X123195987Y-112060000D01*
X123182795Y-112079744D01*
X123104774Y-112268102D01*
X123065000Y-112468061D01*
X123065000Y-112530198D01*
X122325199Y-113270000D01*
X119874802Y-113270000D01*
X118396685Y-111791884D01*
X118377812Y-111746321D01*
X118289168Y-111613655D01*
X118176345Y-111500832D01*
X118043679Y-111412188D01*
X117896268Y-111351128D01*
X117739778Y-111320000D01*
X117580222Y-111320000D01*
X117423732Y-111351128D01*
X117276321Y-111412188D01*
X117143655Y-111500832D01*
X117030832Y-111613655D01*
X116942188Y-111746321D01*
X116881128Y-111893732D01*
X116850000Y-112050222D01*
X116850000Y-112209778D01*
X116881128Y-112366268D01*
X116942188Y-112513679D01*
X117030832Y-112646345D01*
X117143655Y-112759168D01*
X117276321Y-112847812D01*
X117321884Y-112866685D01*
X117722146Y-113266947D01*
X117659744Y-113292795D01*
X117490226Y-113406063D01*
X117346063Y-113550226D01*
X117232795Y-113719744D01*
X117154774Y-113908102D01*
X117115000Y-114108061D01*
X117115000Y-114311939D01*
X117154774Y-114511898D01*
X117232795Y-114700256D01*
X117346063Y-114869774D01*
X117490226Y-115013937D01*
X117659744Y-115127205D01*
X117848102Y-115205226D01*
X118048061Y-115245000D01*
X118251939Y-115245000D01*
X118451898Y-115205226D01*
X118640256Y-115127205D01*
X118800001Y-115020467D01*
X118800000Y-115920000D01*
X118354802Y-115920000D01*
X117523804Y-115089002D01*
X117500001Y-115059999D01*
X117384276Y-114965026D01*
X117252247Y-114894454D01*
X117108986Y-114850997D01*
X116997333Y-114840000D01*
X116997322Y-114840000D01*
X116960000Y-114836324D01*
X116922678Y-114840000D01*
X116274803Y-114840000D01*
X115195000Y-113760198D01*
X115195000Y-113698061D01*
X115155226Y-113498102D01*
X115077205Y-113309744D01*
X114963937Y-113140226D01*
X114819774Y-112996063D01*
X114650256Y-112882795D01*
X114461898Y-112804774D01*
X114261939Y-112765000D01*
X114167617Y-112765000D01*
X114176345Y-112759168D01*
X114289168Y-112646345D01*
X114377812Y-112513679D01*
X114438872Y-112366268D01*
X114470000Y-112209778D01*
X114470000Y-112050222D01*
X114850000Y-112050222D01*
X114850000Y-112209778D01*
X114881128Y-112366268D01*
X114942188Y-112513679D01*
X115030832Y-112646345D01*
X115143655Y-112759168D01*
X115276321Y-112847812D01*
X115423732Y-112908872D01*
X115580222Y-112940000D01*
X115739778Y-112940000D01*
X115896268Y-112908872D01*
X116043679Y-112847812D01*
X116176345Y-112759168D01*
X116289168Y-112646345D01*
X116377812Y-112513679D01*
X116438872Y-112366268D01*
X116470000Y-112209778D01*
X116470000Y-112050222D01*
X116438872Y-111893732D01*
X116377812Y-111746321D01*
X116289168Y-111613655D01*
X116176345Y-111500832D01*
X116043679Y-111412188D01*
X115896268Y-111351128D01*
X115739778Y-111320000D01*
X115580222Y-111320000D01*
X115423732Y-111351128D01*
X115276321Y-111412188D01*
X115143655Y-111500832D01*
X115030832Y-111613655D01*
X114942188Y-111746321D01*
X114881128Y-111893732D01*
X114850000Y-112050222D01*
X114470000Y-112050222D01*
X114438872Y-111893732D01*
X114377812Y-111746321D01*
X114300089Y-111630000D01*
X114377812Y-111513679D01*
X114438872Y-111366268D01*
X114470000Y-111209778D01*
X114470000Y-111050222D01*
X118850000Y-111050222D01*
X118850000Y-111209778D01*
X118881128Y-111366268D01*
X118942188Y-111513679D01*
X119030832Y-111646345D01*
X119143655Y-111759168D01*
X119276321Y-111847812D01*
X119423732Y-111908872D01*
X119580222Y-111940000D01*
X119739778Y-111940000D01*
X119896268Y-111908872D01*
X120043679Y-111847812D01*
X120176345Y-111759168D01*
X120289168Y-111646345D01*
X120377812Y-111513679D01*
X120438872Y-111366268D01*
X120470000Y-111209778D01*
X120470000Y-111050222D01*
X120438872Y-110893732D01*
X120377812Y-110746321D01*
X120289168Y-110613655D01*
X120176345Y-110500832D01*
X120043679Y-110412188D01*
X119896268Y-110351128D01*
X119739778Y-110320000D01*
X119580222Y-110320000D01*
X119423732Y-110351128D01*
X119276321Y-110412188D01*
X119143655Y-110500832D01*
X119030832Y-110613655D01*
X118942188Y-110746321D01*
X118881128Y-110893732D01*
X118850000Y-111050222D01*
X114470000Y-111050222D01*
X114438872Y-110893732D01*
X114377812Y-110746321D01*
X114289168Y-110613655D01*
X114176345Y-110500832D01*
X114043679Y-110412188D01*
X113896268Y-110351128D01*
X113739778Y-110320000D01*
X113580222Y-110320000D01*
X113423732Y-110351128D01*
X113276321Y-110412188D01*
X113143655Y-110500832D01*
X113030832Y-110613655D01*
X112942188Y-110746321D01*
X112881128Y-110893732D01*
X112850000Y-111050222D01*
X111825000Y-111050222D01*
X111825000Y-111018061D01*
X111785226Y-110818102D01*
X111707205Y-110629744D01*
X111593937Y-110460226D01*
X111449774Y-110316063D01*
X111280256Y-110202795D01*
X111091898Y-110124774D01*
X110891939Y-110085000D01*
X110688061Y-110085000D01*
X110488102Y-110124774D01*
X110299744Y-110202795D01*
X110130226Y-110316063D01*
X109986063Y-110460226D01*
X109872795Y-110629744D01*
X109794774Y-110818102D01*
X109755000Y-111018061D01*
X100714156Y-111018061D01*
X100689064Y-110957485D01*
X100745226Y-110821898D01*
X100785000Y-110621939D01*
X100785000Y-110418061D01*
X100745226Y-110218102D01*
X100667205Y-110029744D01*
X100553937Y-109860226D01*
X100409774Y-109716063D01*
X100240256Y-109602795D01*
X100051898Y-109524774D01*
X99851939Y-109485000D01*
X99648061Y-109485000D01*
X99448102Y-109524774D01*
X99259744Y-109602795D01*
X99090226Y-109716063D01*
X98946063Y-109860226D01*
X98832795Y-110029744D01*
X98754774Y-110218102D01*
X98715000Y-110418061D01*
X98715000Y-110621939D01*
X98754774Y-110821898D01*
X98821280Y-110982458D01*
X98765118Y-111118045D01*
X98725344Y-111318004D01*
X98725344Y-111521882D01*
X98765118Y-111721841D01*
X98843139Y-111910199D01*
X98956407Y-112079717D01*
X99100570Y-112223880D01*
X99229908Y-112310301D01*
X99199744Y-112322795D01*
X99030226Y-112436063D01*
X98886063Y-112580226D01*
X98772795Y-112749744D01*
X98694774Y-112938102D01*
X98655000Y-113138061D01*
X91710000Y-113138061D01*
X91710000Y-109110222D01*
X101580000Y-109110222D01*
X101580000Y-109269778D01*
X101611128Y-109426268D01*
X101637527Y-109490000D01*
X101611128Y-109553732D01*
X101580000Y-109710222D01*
X101580000Y-109869778D01*
X101611128Y-110026268D01*
X101672188Y-110173679D01*
X101760832Y-110306345D01*
X101873655Y-110419168D01*
X102006321Y-110507812D01*
X102153732Y-110568872D01*
X102310222Y-110600000D01*
X102469778Y-110600000D01*
X102626268Y-110568872D01*
X102773679Y-110507812D01*
X102906345Y-110419168D01*
X103019168Y-110306345D01*
X103107812Y-110173679D01*
X103168872Y-110026268D01*
X103200000Y-109869778D01*
X103200000Y-109710222D01*
X103168872Y-109553732D01*
X103142473Y-109490000D01*
X103168872Y-109426268D01*
X103200000Y-109269778D01*
X103200000Y-109110222D01*
X103168872Y-108953732D01*
X103107812Y-108806321D01*
X103019168Y-108673655D01*
X102906345Y-108560832D01*
X102773679Y-108472188D01*
X102626268Y-108411128D01*
X102469778Y-108380000D01*
X102310222Y-108380000D01*
X102153732Y-108411128D01*
X102006321Y-108472188D01*
X101873655Y-108560832D01*
X101760832Y-108673655D01*
X101672188Y-108806321D01*
X101611128Y-108953732D01*
X101580000Y-109110222D01*
X91710000Y-109110222D01*
X91710000Y-106110222D01*
X104390000Y-106110222D01*
X104390000Y-106269778D01*
X104421128Y-106426268D01*
X104447527Y-106490000D01*
X104421128Y-106553732D01*
X104390000Y-106710222D01*
X104390000Y-106869778D01*
X104421128Y-107026268D01*
X104482188Y-107173679D01*
X104570832Y-107306345D01*
X104683655Y-107419168D01*
X104816321Y-107507812D01*
X104963732Y-107568872D01*
X105120222Y-107600000D01*
X105279778Y-107600000D01*
X105436268Y-107568872D01*
X105583679Y-107507812D01*
X105716345Y-107419168D01*
X105829168Y-107306345D01*
X105917812Y-107173679D01*
X105978872Y-107026268D01*
X106010000Y-106869778D01*
X106010000Y-106710222D01*
X105978872Y-106553732D01*
X105952473Y-106490000D01*
X105978872Y-106426268D01*
X106010000Y-106269778D01*
X106010000Y-106110222D01*
X105978872Y-105953732D01*
X105917812Y-105806321D01*
X105829168Y-105673655D01*
X105716345Y-105560832D01*
X105583679Y-105472188D01*
X105436268Y-105411128D01*
X105279778Y-105380000D01*
X105120222Y-105380000D01*
X104963732Y-105411128D01*
X104816321Y-105472188D01*
X104683655Y-105560832D01*
X104570832Y-105673655D01*
X104482188Y-105806321D01*
X104421128Y-105953732D01*
X104390000Y-106110222D01*
X91710000Y-106110222D01*
X91710000Y-104610222D01*
X101304792Y-104610222D01*
X101304792Y-104769778D01*
X101335920Y-104926268D01*
X101362319Y-104990000D01*
X101335920Y-105053732D01*
X101304792Y-105210222D01*
X101304792Y-105369778D01*
X101335920Y-105526268D01*
X101396980Y-105673679D01*
X101485624Y-105806345D01*
X101598447Y-105919168D01*
X101731113Y-106007812D01*
X101878524Y-106068872D01*
X102035014Y-106100000D01*
X102194570Y-106100000D01*
X102351060Y-106068872D01*
X102498471Y-106007812D01*
X102631137Y-105919168D01*
X102743960Y-105806345D01*
X102832604Y-105673679D01*
X102893664Y-105526268D01*
X102924792Y-105369778D01*
X102924792Y-105210222D01*
X102893664Y-105053732D01*
X102867265Y-104990000D01*
X102893664Y-104926268D01*
X102924792Y-104769778D01*
X102924792Y-104610222D01*
X102893664Y-104453732D01*
X102832604Y-104306321D01*
X102743960Y-104173655D01*
X102631137Y-104060832D01*
X102498471Y-103972188D01*
X102351060Y-103911128D01*
X102194570Y-103880000D01*
X102035014Y-103880000D01*
X101878524Y-103911128D01*
X101731113Y-103972188D01*
X101598447Y-104060832D01*
X101485624Y-104173655D01*
X101396980Y-104306321D01*
X101335920Y-104453732D01*
X101304792Y-104610222D01*
X91710000Y-104610222D01*
X91710000Y-103732355D01*
X106557867Y-103732355D01*
X106557867Y-103891911D01*
X106588995Y-104048401D01*
X106650055Y-104195812D01*
X106738699Y-104328478D01*
X106851522Y-104441301D01*
X106984188Y-104529945D01*
X107131599Y-104591005D01*
X107288089Y-104622133D01*
X107447645Y-104622133D01*
X107604135Y-104591005D01*
X107751546Y-104529945D01*
X107884212Y-104441301D01*
X107997035Y-104328478D01*
X108077475Y-104208089D01*
X109047867Y-104208089D01*
X109047867Y-104367645D01*
X109078995Y-104524135D01*
X109140055Y-104671546D01*
X109228699Y-104804212D01*
X109341522Y-104917035D01*
X109474188Y-105005679D01*
X109537922Y-105032078D01*
X109564321Y-105095812D01*
X109652965Y-105228478D01*
X109765788Y-105341301D01*
X109898454Y-105429945D01*
X110045865Y-105491005D01*
X110202355Y-105522133D01*
X110361911Y-105522133D01*
X110518401Y-105491005D01*
X110598368Y-105457881D01*
X110580000Y-105550222D01*
X110580000Y-105709778D01*
X110611128Y-105866268D01*
X110672188Y-106013679D01*
X110749911Y-106130000D01*
X110672188Y-106246321D01*
X110611128Y-106393732D01*
X110580000Y-106550222D01*
X110580000Y-106709778D01*
X110611128Y-106866268D01*
X110672188Y-107013679D01*
X110749911Y-107130000D01*
X110672188Y-107246321D01*
X110611128Y-107393732D01*
X110580000Y-107550222D01*
X110580000Y-107709778D01*
X110611128Y-107866268D01*
X110672188Y-108013679D01*
X110735722Y-108108765D01*
X110730832Y-108113655D01*
X110642188Y-108246321D01*
X110581128Y-108393732D01*
X110550000Y-108550222D01*
X110550000Y-108709778D01*
X110581128Y-108866268D01*
X110642188Y-109013679D01*
X110730832Y-109146345D01*
X110843655Y-109259168D01*
X110976321Y-109347812D01*
X111123732Y-109408872D01*
X111280222Y-109440000D01*
X111439778Y-109440000D01*
X111596268Y-109408872D01*
X111743679Y-109347812D01*
X111861762Y-109268912D01*
X111881128Y-109366268D01*
X111942188Y-109513679D01*
X112030832Y-109646345D01*
X112143655Y-109759168D01*
X112276321Y-109847812D01*
X112423732Y-109908872D01*
X112580222Y-109940000D01*
X112739778Y-109940000D01*
X112896268Y-109908872D01*
X113043679Y-109847812D01*
X113176345Y-109759168D01*
X113289168Y-109646345D01*
X113377812Y-109513679D01*
X113438872Y-109366268D01*
X113470000Y-109209778D01*
X113470000Y-109050222D01*
X113438872Y-108893732D01*
X113377812Y-108746321D01*
X113300089Y-108630000D01*
X113377812Y-108513679D01*
X113438872Y-108366268D01*
X113470000Y-108209778D01*
X113470000Y-108050222D01*
X113438872Y-107893732D01*
X113377812Y-107746321D01*
X113300089Y-107630000D01*
X113377812Y-107513679D01*
X113438872Y-107366268D01*
X113470000Y-107209778D01*
X113470000Y-107050222D01*
X113438872Y-106893732D01*
X113377812Y-106746321D01*
X113289168Y-106613655D01*
X113176345Y-106500832D01*
X113043679Y-106412188D01*
X112896268Y-106351128D01*
X112739778Y-106320000D01*
X112580222Y-106320000D01*
X112423732Y-106351128D01*
X112276321Y-106412188D01*
X112184718Y-106473395D01*
X112168872Y-106393732D01*
X112107812Y-106246321D01*
X112030089Y-106130000D01*
X112107812Y-106013679D01*
X112168872Y-105866268D01*
X112184718Y-105786605D01*
X112276321Y-105847812D01*
X112423732Y-105908872D01*
X112580222Y-105940000D01*
X112739778Y-105940000D01*
X112896268Y-105908872D01*
X113043679Y-105847812D01*
X113176345Y-105759168D01*
X113289168Y-105646345D01*
X113377812Y-105513679D01*
X113438872Y-105366268D01*
X113470000Y-105209778D01*
X113470000Y-105050222D01*
X113438872Y-104893732D01*
X113377812Y-104746321D01*
X113300089Y-104630000D01*
X113377812Y-104513679D01*
X113382312Y-104502815D01*
X114163115Y-105739086D01*
X114250987Y-105849013D01*
X114347213Y-105927983D01*
X114456996Y-105986664D01*
X114576118Y-106022799D01*
X114700000Y-106035000D01*
X120600000Y-106035000D01*
X120717023Y-106024124D01*
X120836535Y-105989301D01*
X120946957Y-105931832D01*
X121044046Y-105853925D01*
X121124070Y-105758574D01*
X121958815Y-104538563D01*
X122030832Y-104646345D01*
X122143655Y-104759168D01*
X122276321Y-104847812D01*
X122423732Y-104908872D01*
X122580222Y-104940000D01*
X122739778Y-104940000D01*
X122896268Y-104908872D01*
X123043679Y-104847812D01*
X123176345Y-104759168D01*
X123289168Y-104646345D01*
X123377812Y-104513679D01*
X123438872Y-104366268D01*
X123470000Y-104209778D01*
X123470000Y-104050222D01*
X123438872Y-103893732D01*
X123377812Y-103746321D01*
X123289168Y-103613655D01*
X123176345Y-103500832D01*
X123043679Y-103412188D01*
X122896268Y-103351128D01*
X122739778Y-103320000D01*
X122580222Y-103320000D01*
X122535000Y-103328995D01*
X122535000Y-100691316D01*
X122790464Y-100691316D01*
X122790464Y-100895194D01*
X122830238Y-101095153D01*
X122908259Y-101283511D01*
X123021527Y-101453029D01*
X123165690Y-101597192D01*
X123335208Y-101710460D01*
X123523566Y-101788481D01*
X123723525Y-101828255D01*
X123927403Y-101828255D01*
X124127362Y-101788481D01*
X124315720Y-101710460D01*
X124485238Y-101597192D01*
X124629401Y-101453029D01*
X124742669Y-101283511D01*
X124820690Y-101095153D01*
X124860464Y-100895194D01*
X124860464Y-100691316D01*
X124820690Y-100491357D01*
X124742669Y-100302999D01*
X124629401Y-100133481D01*
X124485238Y-99989318D01*
X124315720Y-99876050D01*
X124127362Y-99798029D01*
X123927403Y-99758255D01*
X123723525Y-99758255D01*
X123523566Y-99798029D01*
X123335208Y-99876050D01*
X123165690Y-99989318D01*
X123021527Y-100133481D01*
X122908259Y-100302999D01*
X122830238Y-100491357D01*
X122790464Y-100691316D01*
X122535000Y-100691316D01*
X122535000Y-96428711D01*
X122603937Y-96359774D01*
X122717205Y-96190256D01*
X122795226Y-96001898D01*
X122835000Y-95801939D01*
X122835000Y-95598061D01*
X122795226Y-95398102D01*
X122717205Y-95209744D01*
X122603937Y-95040226D01*
X122535000Y-94971289D01*
X122535000Y-93000000D01*
X122522799Y-92876118D01*
X122486664Y-92756996D01*
X122427983Y-92647213D01*
X122349013Y-92550987D01*
X122252787Y-92472017D01*
X122143004Y-92413336D01*
X122023882Y-92377201D01*
X121900000Y-92365000D01*
X113500000Y-92365000D01*
X113376118Y-92377201D01*
X113256996Y-92413336D01*
X113147213Y-92472017D01*
X113050987Y-92550987D01*
X112972017Y-92647213D01*
X112913336Y-92756996D01*
X112877201Y-92876118D01*
X112865000Y-93000000D01*
X112865000Y-101344908D01*
X112739778Y-101320000D01*
X112580222Y-101320000D01*
X112423732Y-101351128D01*
X112276321Y-101412188D01*
X112143655Y-101500832D01*
X112030832Y-101613655D01*
X111942188Y-101746321D01*
X111881128Y-101893732D01*
X111850000Y-102050222D01*
X111850000Y-102209778D01*
X111881128Y-102366268D01*
X111942188Y-102513679D01*
X112030832Y-102646345D01*
X112143655Y-102759168D01*
X112276321Y-102847812D01*
X112423732Y-102908872D01*
X112580222Y-102940000D01*
X112739778Y-102940000D01*
X112865000Y-102915092D01*
X112865000Y-102974812D01*
X112850000Y-103050222D01*
X112850000Y-103209778D01*
X112865000Y-103285188D01*
X112865000Y-103344908D01*
X112739778Y-103320000D01*
X112580222Y-103320000D01*
X112423732Y-103351128D01*
X112276321Y-103412188D01*
X112143655Y-103500832D01*
X112030832Y-103613655D01*
X111942188Y-103746321D01*
X111881128Y-103893732D01*
X111867628Y-103961599D01*
X111793679Y-103912188D01*
X111646268Y-103851128D01*
X111489778Y-103820000D01*
X111330222Y-103820000D01*
X111173732Y-103851128D01*
X111026321Y-103912188D01*
X110893655Y-104000832D01*
X110805000Y-104089487D01*
X110798478Y-104082965D01*
X110665812Y-103994321D01*
X110602078Y-103967922D01*
X110575679Y-103904188D01*
X110487035Y-103771522D01*
X110374212Y-103658699D01*
X110241546Y-103570055D01*
X110094135Y-103508995D01*
X109937645Y-103477867D01*
X109778089Y-103477867D01*
X109621599Y-103508995D01*
X109474188Y-103570055D01*
X109341522Y-103658699D01*
X109228699Y-103771522D01*
X109140055Y-103904188D01*
X109078995Y-104051599D01*
X109047867Y-104208089D01*
X108077475Y-104208089D01*
X108085679Y-104195812D01*
X108112078Y-104132078D01*
X108175812Y-104105679D01*
X108308478Y-104017035D01*
X108421301Y-103904212D01*
X108509945Y-103771546D01*
X108571005Y-103624135D01*
X108602133Y-103467645D01*
X108602133Y-103308089D01*
X108571005Y-103151599D01*
X108509945Y-103004188D01*
X108421301Y-102871522D01*
X108308478Y-102758699D01*
X108175812Y-102670055D01*
X108028401Y-102608995D01*
X107871911Y-102577867D01*
X107712355Y-102577867D01*
X107555865Y-102608995D01*
X107408454Y-102670055D01*
X107275788Y-102758699D01*
X107162965Y-102871522D01*
X107074321Y-103004188D01*
X107047922Y-103067922D01*
X106984188Y-103094321D01*
X106851522Y-103182965D01*
X106738699Y-103295788D01*
X106650055Y-103428454D01*
X106588995Y-103575865D01*
X106557867Y-103732355D01*
X91710000Y-103732355D01*
X91710000Y-99793589D01*
X107075000Y-99793589D01*
X107075000Y-100066411D01*
X107128225Y-100333989D01*
X107232629Y-100586043D01*
X107384201Y-100812886D01*
X107577114Y-101005799D01*
X107803957Y-101157371D01*
X108056011Y-101261775D01*
X108323589Y-101315000D01*
X108596411Y-101315000D01*
X108863989Y-101261775D01*
X109116043Y-101157371D01*
X109342886Y-101005799D01*
X109535799Y-100812886D01*
X109687371Y-100586043D01*
X109791775Y-100333989D01*
X109845000Y-100066411D01*
X109845000Y-99793589D01*
X109791775Y-99526011D01*
X109687371Y-99273957D01*
X109535799Y-99047114D01*
X109342886Y-98854201D01*
X109116043Y-98702629D01*
X108863989Y-98598225D01*
X108596411Y-98545000D01*
X108323589Y-98545000D01*
X108056011Y-98598225D01*
X107803957Y-98702629D01*
X107577114Y-98854201D01*
X107384201Y-99047114D01*
X107232629Y-99273957D01*
X107128225Y-99526011D01*
X107075000Y-99793589D01*
X91710000Y-99793589D01*
X91710000Y-95360000D01*
X98800719Y-95360000D01*
X98817805Y-95533490D01*
X98868412Y-95700313D01*
X98950590Y-95854059D01*
X99061183Y-95988817D01*
X99195941Y-96099410D01*
X99349687Y-96181588D01*
X99516510Y-96232195D01*
X99690000Y-96249281D01*
X99863490Y-96232195D01*
X100030313Y-96181588D01*
X100184059Y-96099410D01*
X100285046Y-96016532D01*
X100556578Y-95745000D01*
X100941546Y-95745000D01*
X100989744Y-95777205D01*
X101178102Y-95855226D01*
X101378061Y-95895000D01*
X101581939Y-95895000D01*
X101781898Y-95855226D01*
X101970256Y-95777205D01*
X102139774Y-95663937D01*
X102283937Y-95519774D01*
X102397205Y-95350256D01*
X102475226Y-95161898D01*
X102515000Y-94961939D01*
X102515000Y-94758061D01*
X102475226Y-94558102D01*
X102397205Y-94369744D01*
X102283937Y-94200226D01*
X102139774Y-94056063D01*
X101970256Y-93942795D01*
X101781898Y-93864774D01*
X101581939Y-93825000D01*
X101378061Y-93825000D01*
X101178102Y-93864774D01*
X100989744Y-93942795D01*
X100941546Y-93975000D01*
X100233469Y-93975000D01*
X100190000Y-93970719D01*
X100146531Y-93975000D01*
X100146523Y-93975000D01*
X100016510Y-93987805D01*
X99849687Y-94038411D01*
X99695941Y-94120589D01*
X99561183Y-94231183D01*
X99533466Y-94264956D01*
X99033468Y-94764954D01*
X98950590Y-94865941D01*
X98868412Y-95019687D01*
X98817805Y-95186510D01*
X98800719Y-95360000D01*
X91710000Y-95360000D01*
X91710000Y-83300000D01*
X98821928Y-83300000D01*
X98821928Y-85000000D01*
X98834188Y-85124482D01*
X98870498Y-85244180D01*
X98929463Y-85354494D01*
X99008815Y-85451185D01*
X99105506Y-85530537D01*
X99215820Y-85589502D01*
X99288380Y-85611513D01*
X99156525Y-85743368D01*
X98994010Y-85986589D01*
X98882068Y-86256842D01*
X98825000Y-86543740D01*
X98825000Y-86836260D01*
X98882068Y-87123158D01*
X98994010Y-87393411D01*
X99156525Y-87636632D01*
X99363368Y-87843475D01*
X99537760Y-87960000D01*
X99363368Y-88076525D01*
X99156525Y-88283368D01*
X98994010Y-88526589D01*
X98882068Y-88796842D01*
X98825000Y-89083740D01*
X98825000Y-89376260D01*
X98882068Y-89663158D01*
X98994010Y-89933411D01*
X99156525Y-90176632D01*
X99363368Y-90383475D01*
X99537760Y-90500000D01*
X99363368Y-90616525D01*
X99156525Y-90823368D01*
X98994010Y-91066589D01*
X98882068Y-91336842D01*
X98825000Y-91623740D01*
X98825000Y-91916260D01*
X98882068Y-92203158D01*
X98994010Y-92473411D01*
X99156525Y-92716632D01*
X99363368Y-92923475D01*
X99606589Y-93085990D01*
X99876842Y-93197932D01*
X100163740Y-93255000D01*
X100456260Y-93255000D01*
X100743158Y-93197932D01*
X101013411Y-93085990D01*
X101256632Y-92923475D01*
X101463475Y-92716632D01*
X101625990Y-92473411D01*
X101737932Y-92203158D01*
X101795000Y-91916260D01*
X101795000Y-91623740D01*
X101754088Y-91418061D01*
X102085000Y-91418061D01*
X102085000Y-91621939D01*
X102124774Y-91821898D01*
X102202795Y-92010256D01*
X102316063Y-92179774D01*
X102460226Y-92323937D01*
X102629744Y-92437205D01*
X102818102Y-92515226D01*
X103018061Y-92555000D01*
X103221939Y-92555000D01*
X103421898Y-92515226D01*
X103610256Y-92437205D01*
X103779774Y-92323937D01*
X103923937Y-92179774D01*
X104037205Y-92010256D01*
X104115226Y-91821898D01*
X104129527Y-91750000D01*
X133211928Y-91750000D01*
X133211928Y-93450000D01*
X133224188Y-93574482D01*
X133260498Y-93694180D01*
X133319463Y-93804494D01*
X133398815Y-93901185D01*
X133495506Y-93980537D01*
X133605820Y-94039502D01*
X133725518Y-94075812D01*
X133850000Y-94088072D01*
X135550000Y-94088072D01*
X135674482Y-94075812D01*
X135794180Y-94039502D01*
X135904494Y-93980537D01*
X136001185Y-93901185D01*
X136080537Y-93804494D01*
X136139502Y-93694180D01*
X136175812Y-93574482D01*
X136188072Y-93450000D01*
X136188072Y-91750000D01*
X136175812Y-91625518D01*
X136139502Y-91505820D01*
X136080537Y-91395506D01*
X136001185Y-91298815D01*
X135904494Y-91219463D01*
X135794180Y-91160498D01*
X135674482Y-91124188D01*
X135550000Y-91111928D01*
X133850000Y-91111928D01*
X133725518Y-91124188D01*
X133605820Y-91160498D01*
X133495506Y-91219463D01*
X133398815Y-91298815D01*
X133319463Y-91395506D01*
X133260498Y-91505820D01*
X133224188Y-91625518D01*
X133211928Y-91750000D01*
X104129527Y-91750000D01*
X104155000Y-91621939D01*
X104155000Y-91418061D01*
X104115226Y-91218102D01*
X104037205Y-91029744D01*
X103923937Y-90860226D01*
X103779774Y-90716063D01*
X103610256Y-90602795D01*
X103421898Y-90524774D01*
X103221939Y-90485000D01*
X103018061Y-90485000D01*
X102818102Y-90524774D01*
X102629744Y-90602795D01*
X102460226Y-90716063D01*
X102316063Y-90860226D01*
X102202795Y-91029744D01*
X102124774Y-91218102D01*
X102085000Y-91418061D01*
X101754088Y-91418061D01*
X101737932Y-91336842D01*
X101625990Y-91066589D01*
X101463475Y-90823368D01*
X101256632Y-90616525D01*
X101082240Y-90500000D01*
X101256632Y-90383475D01*
X101463475Y-90176632D01*
X101625990Y-89933411D01*
X101737932Y-89663158D01*
X101795000Y-89376260D01*
X101795000Y-89083740D01*
X101737932Y-88796842D01*
X101625990Y-88526589D01*
X101463475Y-88283368D01*
X101256632Y-88076525D01*
X101082240Y-87960000D01*
X101256632Y-87843475D01*
X101463475Y-87636632D01*
X101625990Y-87393411D01*
X101737932Y-87123158D01*
X101795000Y-86836260D01*
X101795000Y-86543740D01*
X101737932Y-86256842D01*
X101715937Y-86203740D01*
X107405000Y-86203740D01*
X107405000Y-86496260D01*
X107462068Y-86783158D01*
X107574010Y-87053411D01*
X107736525Y-87296632D01*
X107943368Y-87503475D01*
X108117760Y-87620000D01*
X107943368Y-87736525D01*
X107736525Y-87943368D01*
X107574010Y-88186589D01*
X107462068Y-88456842D01*
X107405000Y-88743740D01*
X107405000Y-89036260D01*
X107462068Y-89323158D01*
X107574010Y-89593411D01*
X107736525Y-89836632D01*
X107943368Y-90043475D01*
X108186589Y-90205990D01*
X108456842Y-90317932D01*
X108743740Y-90375000D01*
X109036260Y-90375000D01*
X109323158Y-90317932D01*
X109593411Y-90205990D01*
X109836632Y-90043475D01*
X110043475Y-89836632D01*
X110160000Y-89662240D01*
X110276525Y-89836632D01*
X110483368Y-90043475D01*
X110726589Y-90205990D01*
X110996842Y-90317932D01*
X111283740Y-90375000D01*
X111576260Y-90375000D01*
X111863158Y-90317932D01*
X112133411Y-90205990D01*
X112376632Y-90043475D01*
X112583475Y-89836632D01*
X112745990Y-89593411D01*
X112857932Y-89323158D01*
X112915000Y-89036260D01*
X112915000Y-88743740D01*
X112857932Y-88456842D01*
X112745990Y-88186589D01*
X112583475Y-87943368D01*
X112451620Y-87811513D01*
X112524180Y-87789502D01*
X112634494Y-87730537D01*
X112731185Y-87651185D01*
X112810537Y-87554494D01*
X112869502Y-87444180D01*
X112905812Y-87324482D01*
X112918072Y-87200000D01*
X112918072Y-85500000D01*
X112905812Y-85375518D01*
X112869502Y-85255820D01*
X112810537Y-85145506D01*
X112731185Y-85048815D01*
X112634494Y-84969463D01*
X112524180Y-84910498D01*
X112404482Y-84874188D01*
X112280000Y-84861928D01*
X110580000Y-84861928D01*
X110455518Y-84874188D01*
X110335820Y-84910498D01*
X110225506Y-84969463D01*
X110128815Y-85048815D01*
X110049463Y-85145506D01*
X109990498Y-85255820D01*
X109968487Y-85328380D01*
X109836632Y-85196525D01*
X109593411Y-85034010D01*
X109323158Y-84922068D01*
X109036260Y-84865000D01*
X108743740Y-84865000D01*
X108456842Y-84922068D01*
X108186589Y-85034010D01*
X107943368Y-85196525D01*
X107736525Y-85403368D01*
X107574010Y-85646589D01*
X107462068Y-85916842D01*
X107405000Y-86203740D01*
X101715937Y-86203740D01*
X101625990Y-85986589D01*
X101463475Y-85743368D01*
X101331620Y-85611513D01*
X101404180Y-85589502D01*
X101514494Y-85530537D01*
X101611185Y-85451185D01*
X101690537Y-85354494D01*
X101749502Y-85244180D01*
X101785812Y-85124482D01*
X101798072Y-85000000D01*
X101798072Y-83300000D01*
X101785812Y-83175518D01*
X101749502Y-83055820D01*
X101690537Y-82945506D01*
X101611185Y-82848815D01*
X101514494Y-82769463D01*
X101404180Y-82710498D01*
X101284482Y-82674188D01*
X101160000Y-82661928D01*
X99460000Y-82661928D01*
X99335518Y-82674188D01*
X99215820Y-82710498D01*
X99105506Y-82769463D01*
X99008815Y-82848815D01*
X98929463Y-82945506D01*
X98870498Y-83055820D01*
X98834188Y-83175518D01*
X98821928Y-83300000D01*
X91710000Y-83300000D01*
X91710000Y-81710000D01*
X138290001Y-81710000D01*
X138290000Y-129290000D01*
M02*
