G04 #@! TF.GenerationSoftware,KiCad,Pcbnew,(5.1.6)-1*
G04 #@! TF.CreationDate,2020-07-07T21:46:09+02:00*
G04 #@! TF.ProjectId,ToF_camera_VGA,546f465f-6361-46d6-9572-615f5647412e,rev?*
G04 #@! TF.SameCoordinates,Original*
G04 #@! TF.FileFunction,Other,Fab,Top*
%FSLAX46Y46*%
G04 Gerber Fmt 4.6, Leading zero omitted, Abs format (unit mm)*
G04 Created by KiCad (PCBNEW (5.1.6)-1) date 2020-07-07 21:46:09*
%MOMM*%
%LPD*%
G01*
G04 APERTURE LIST*
%ADD10C,0.100000*%
%ADD11C,0.200000*%
%ADD12C,0.150000*%
%ADD13C,0.254000*%
%ADD14C,0.080000*%
%ADD15C,0.075000*%
%ADD16C,0.120000*%
G04 APERTURE END LIST*
D10*
X103375000Y-123780000D02*
X103375000Y-120980000D01*
X103375000Y-120980000D02*
X106325000Y-120980000D01*
X106325000Y-120980000D02*
X106325000Y-123080000D01*
X105325000Y-123780000D02*
X103375000Y-123780000D01*
X105325000Y-123780000D02*
X106325000Y-123080000D01*
X124660000Y-114130000D02*
X111660000Y-114130000D01*
X124660000Y-100130000D02*
X124660000Y-114130000D01*
X110660000Y-100130000D02*
X124660000Y-100130000D01*
X110660000Y-113130000D02*
X110660000Y-100130000D01*
X111660000Y-114130000D02*
X110660000Y-113130000D01*
D11*
X96190000Y-99890000D02*
X100740000Y-99890000D01*
X96190000Y-116090000D02*
X96190000Y-99890000D01*
X100740000Y-116090000D02*
X96190000Y-116090000D01*
X100740000Y-99890000D02*
X100740000Y-116090000D01*
X105050000Y-115490000D02*
X105050000Y-113490000D01*
X107550000Y-115490000D02*
X105050000Y-115490000D01*
X107550000Y-113490000D02*
X107550000Y-115490000D01*
X105050000Y-113490000D02*
X107550000Y-113490000D01*
D10*
X98962500Y-118200000D02*
X100962500Y-118200000D01*
X98962500Y-119400000D02*
X98962500Y-118200000D01*
X100962500Y-119400000D02*
X98962500Y-119400000D01*
X100962500Y-118200000D02*
X100962500Y-119400000D01*
X112060000Y-94100000D02*
X114060000Y-94100000D01*
X112060000Y-95300000D02*
X112060000Y-94100000D01*
X114060000Y-95300000D02*
X112060000Y-95300000D01*
X114060000Y-94100000D02*
X114060000Y-95300000D01*
X105410000Y-120330000D02*
X105410000Y-119130000D01*
X105410000Y-119130000D02*
X107410000Y-119130000D01*
X107410000Y-119130000D02*
X107410000Y-120330000D01*
X107410000Y-120330000D02*
X105410000Y-120330000D01*
X128730000Y-124370000D02*
G75*
G03*
X128730000Y-124370000I-1700000J0D01*
G01*
X124030000Y-127370000D02*
X124030000Y-121370000D01*
X130030000Y-127370000D02*
X124030000Y-127370000D01*
X130030000Y-121370000D02*
X130030000Y-127370000D01*
X124030000Y-121370000D02*
X130030000Y-121370000D01*
X106860000Y-94250000D02*
X106860000Y-97350000D01*
X106860000Y-97350000D02*
X105060000Y-97350000D01*
X105060000Y-94900000D02*
X105060000Y-97350000D01*
X106860000Y-94250000D02*
X105710000Y-94250000D01*
X105060000Y-94900000D02*
X105710000Y-94250000D01*
X125140000Y-90300000D02*
X123870000Y-89030000D01*
X128950000Y-90300000D02*
X125140000Y-90300000D01*
X128950000Y-85220000D02*
X128950000Y-90300000D01*
X123870000Y-85220000D02*
X128950000Y-85220000D01*
X123870000Y-89030000D02*
X123870000Y-85220000D01*
X111430000Y-85080000D02*
X112700000Y-86350000D01*
X107620000Y-85080000D02*
X111430000Y-85080000D01*
X107620000Y-90160000D02*
X107620000Y-85080000D01*
X112700000Y-90160000D02*
X107620000Y-90160000D01*
X112700000Y-86350000D02*
X112700000Y-90160000D01*
X133430000Y-91965000D02*
X134065000Y-91330000D01*
X133430000Y-93870000D02*
X133430000Y-91965000D01*
X135970000Y-93870000D02*
X133430000Y-93870000D01*
X135970000Y-91330000D02*
X135970000Y-93870000D01*
X134065000Y-91330000D02*
X135970000Y-91330000D01*
X117000000Y-92700000D02*
X117700000Y-92000000D01*
X117000000Y-95000000D02*
X117000000Y-92700000D01*
X119800000Y-95000000D02*
X117000000Y-95000000D01*
X119800000Y-92000000D02*
X119800000Y-95000000D01*
X117700000Y-92000000D02*
X119800000Y-92000000D01*
X129910000Y-117070000D02*
X133010000Y-117070000D01*
X133010000Y-117070000D02*
X133010000Y-118870000D01*
X130560000Y-118870000D02*
X133010000Y-118870000D01*
X129910000Y-117070000D02*
X129910000Y-118220000D01*
X130560000Y-118870000D02*
X129910000Y-118220000D01*
X118970000Y-121610000D02*
X122070000Y-121610000D01*
X122070000Y-121610000D02*
X122070000Y-123410000D01*
X119620000Y-123410000D02*
X122070000Y-123410000D01*
X118970000Y-121610000D02*
X118970000Y-122760000D01*
X119620000Y-123410000D02*
X118970000Y-122760000D01*
X112180000Y-123262500D02*
X112180000Y-121262500D01*
X113380000Y-123262500D02*
X112180000Y-123262500D01*
X113380000Y-121262500D02*
X113380000Y-123262500D01*
X112180000Y-121262500D02*
X113380000Y-121262500D01*
X120400000Y-94637500D02*
X120400000Y-92637500D01*
X121600000Y-94637500D02*
X120400000Y-94637500D01*
X121600000Y-92637500D02*
X121600000Y-94637500D01*
X120400000Y-92637500D02*
X121600000Y-92637500D01*
X122937500Y-92150000D02*
X124937500Y-92150000D01*
X122937500Y-93350000D02*
X122937500Y-92150000D01*
X124937500Y-93350000D02*
X122937500Y-93350000D01*
X124937500Y-92150000D02*
X124937500Y-93350000D01*
X100507500Y-124430000D02*
X102507500Y-124430000D01*
X100507500Y-125630000D02*
X100507500Y-124430000D01*
X102507500Y-125630000D02*
X100507500Y-125630000D01*
X102507500Y-124430000D02*
X102507500Y-125630000D01*
X111430000Y-121257500D02*
X111430000Y-123257500D01*
X110230000Y-121257500D02*
X111430000Y-121257500D01*
X110230000Y-123257500D02*
X110230000Y-121257500D01*
X111430000Y-123257500D02*
X110230000Y-123257500D01*
X134900000Y-99100000D02*
X134900000Y-95900000D01*
X137400000Y-99100000D02*
X134900000Y-99100000D01*
X137400000Y-95900000D02*
X137400000Y-99100000D01*
X134900000Y-95900000D02*
X137400000Y-95900000D01*
X99040000Y-83515000D02*
X99675000Y-82880000D01*
X99040000Y-93040000D02*
X99040000Y-83515000D01*
X101580000Y-93040000D02*
X99040000Y-93040000D01*
X101580000Y-82880000D02*
X101580000Y-93040000D01*
X99675000Y-82880000D02*
X101580000Y-82880000D01*
X101100000Y-122000000D02*
X101100000Y-120400000D01*
X97900000Y-122000000D02*
X101100000Y-122000000D01*
X97900000Y-120800000D02*
X97900000Y-122000000D01*
X98300000Y-120400000D02*
X97900000Y-120800000D01*
X101100000Y-120400000D02*
X98300000Y-120400000D01*
X124937500Y-95300000D02*
X122937500Y-95300000D01*
X124937500Y-94100000D02*
X124937500Y-95300000D01*
X122937500Y-94100000D02*
X124937500Y-94100000D01*
X122937500Y-95300000D02*
X122937500Y-94100000D01*
X112060000Y-96050000D02*
X114060000Y-96050000D01*
X112060000Y-97250000D02*
X112060000Y-96050000D01*
X114060000Y-97250000D02*
X112060000Y-97250000D01*
X114060000Y-96050000D02*
X114060000Y-97250000D01*
X124937500Y-97250000D02*
X122937500Y-97250000D01*
X124937500Y-96050000D02*
X124937500Y-97250000D01*
X122937500Y-96050000D02*
X124937500Y-96050000D01*
X122937500Y-97250000D02*
X122937500Y-96050000D01*
X105090000Y-116500000D02*
X107090000Y-116500000D01*
X105090000Y-117700000D02*
X105090000Y-116500000D01*
X107090000Y-117700000D02*
X105090000Y-117700000D01*
X107090000Y-116500000D02*
X107090000Y-117700000D01*
X130387500Y-102850000D02*
X128387500Y-102850000D01*
X130387500Y-101650000D02*
X130387500Y-102850000D01*
X128387500Y-101650000D02*
X130387500Y-101650000D01*
X128387500Y-102850000D02*
X128387500Y-101650000D01*
X109480000Y-123140000D02*
X109480000Y-125140000D01*
X108280000Y-123140000D02*
X109480000Y-123140000D01*
X108280000Y-125140000D02*
X108280000Y-123140000D01*
X109480000Y-125140000D02*
X108280000Y-125140000D01*
X128060000Y-118770000D02*
X128060000Y-116770000D01*
X129260000Y-118770000D02*
X128060000Y-118770000D01*
X129260000Y-116770000D02*
X129260000Y-118770000D01*
X128060000Y-116770000D02*
X129260000Y-116770000D01*
X105920000Y-125630000D02*
X103920000Y-125630000D01*
X105920000Y-124430000D02*
X105920000Y-125630000D01*
X103920000Y-124430000D02*
X105920000Y-124430000D01*
X103920000Y-125630000D02*
X103920000Y-124430000D01*
X130387500Y-100950000D02*
X128387500Y-100950000D01*
X130387500Y-99750000D02*
X130387500Y-100950000D01*
X128387500Y-99750000D02*
X130387500Y-99750000D01*
X128387500Y-100950000D02*
X128387500Y-99750000D01*
X110600000Y-93350000D02*
X108600000Y-93350000D01*
X110600000Y-92150000D02*
X110600000Y-93350000D01*
X108600000Y-92150000D02*
X110600000Y-92150000D01*
X108600000Y-93350000D02*
X108600000Y-92150000D01*
X131500000Y-113800000D02*
X129500000Y-113800000D01*
X131500000Y-112600000D02*
X131500000Y-113800000D01*
X129500000Y-112600000D02*
X131500000Y-112600000D01*
X129500000Y-113800000D02*
X129500000Y-112600000D01*
X110602500Y-95300000D02*
X108602500Y-95300000D01*
X110602500Y-94100000D02*
X110602500Y-95300000D01*
X108602500Y-94100000D02*
X110602500Y-94100000D01*
X108602500Y-95300000D02*
X108602500Y-94100000D01*
X129500000Y-115690000D02*
X129500000Y-114490000D01*
X129500000Y-114490000D02*
X131500000Y-114490000D01*
X131500000Y-114490000D02*
X131500000Y-115690000D01*
X131500000Y-115690000D02*
X129500000Y-115690000D01*
X110600000Y-97250000D02*
X108600000Y-97250000D01*
X110600000Y-96050000D02*
X110600000Y-97250000D01*
X108600000Y-96050000D02*
X110600000Y-96050000D01*
X108600000Y-97250000D02*
X108600000Y-96050000D01*
X134440000Y-121470000D02*
X132440000Y-121470000D01*
X134440000Y-120270000D02*
X134440000Y-121470000D01*
X132440000Y-120270000D02*
X134440000Y-120270000D01*
X132440000Y-121470000D02*
X132440000Y-120270000D01*
X102460000Y-96797500D02*
X102460000Y-94797500D01*
X103660000Y-96797500D02*
X102460000Y-96797500D01*
X103660000Y-94797500D02*
X103660000Y-96797500D01*
X102460000Y-94797500D02*
X103660000Y-94797500D01*
X130400000Y-99000000D02*
X128400000Y-99000000D01*
X130400000Y-97800000D02*
X130400000Y-99000000D01*
X128400000Y-97800000D02*
X130400000Y-97800000D01*
X128400000Y-99000000D02*
X128400000Y-97800000D01*
X121500000Y-120210000D02*
X119500000Y-120210000D01*
X121500000Y-119010000D02*
X121500000Y-120210000D01*
X119500000Y-119010000D02*
X121500000Y-119010000D01*
X119500000Y-120210000D02*
X119500000Y-119010000D01*
X122617500Y-91350000D02*
X120617500Y-91350000D01*
X122617500Y-90150000D02*
X122617500Y-91350000D01*
X120617500Y-90150000D02*
X122617500Y-90150000D01*
X120617500Y-91350000D02*
X120617500Y-90150000D01*
X114062500Y-92100000D02*
X116062500Y-92100000D01*
X114062500Y-93300000D02*
X114062500Y-92100000D01*
X116062500Y-93300000D02*
X114062500Y-93300000D01*
X116062500Y-92100000D02*
X116062500Y-93300000D01*
X130400000Y-97060000D02*
X128400000Y-97060000D01*
X130400000Y-95860000D02*
X130400000Y-97060000D01*
X128400000Y-95860000D02*
X130400000Y-95860000D01*
X128400000Y-97060000D02*
X128400000Y-95860000D01*
X130400000Y-110100000D02*
X128400000Y-110100000D01*
X130400000Y-108900000D02*
X130400000Y-110100000D01*
X128400000Y-108900000D02*
X130400000Y-108900000D01*
X128400000Y-110100000D02*
X128400000Y-108900000D01*
X130400000Y-104700000D02*
X128400000Y-104700000D01*
X130400000Y-103500000D02*
X130400000Y-104700000D01*
X128400000Y-103500000D02*
X130400000Y-103500000D01*
X128400000Y-104700000D02*
X128400000Y-103500000D01*
X130400000Y-108300000D02*
X128400000Y-108300000D01*
X130400000Y-107100000D02*
X130400000Y-108300000D01*
X128400000Y-107100000D02*
X130400000Y-107100000D01*
X128400000Y-108300000D02*
X128400000Y-107100000D01*
X130400000Y-111900000D02*
X128400000Y-111900000D01*
X130400000Y-110700000D02*
X130400000Y-111900000D01*
X128400000Y-110700000D02*
X130400000Y-110700000D01*
X128400000Y-111900000D02*
X128400000Y-110700000D01*
X115992500Y-120960000D02*
X117992500Y-120960000D01*
X115992500Y-122160000D02*
X115992500Y-120960000D01*
X117992500Y-122160000D02*
X115992500Y-122160000D01*
X117992500Y-120960000D02*
X117992500Y-122160000D01*
X130400000Y-106500000D02*
X128400000Y-106500000D01*
X130400000Y-105300000D02*
X130400000Y-106500000D01*
X128400000Y-105300000D02*
X130400000Y-105300000D01*
X128400000Y-106500000D02*
X128400000Y-105300000D01*
X116032500Y-123010000D02*
X118032500Y-123010000D01*
X116032500Y-124210000D02*
X116032500Y-123010000D01*
X118032500Y-124210000D02*
X116032500Y-124210000D01*
X118032500Y-123010000D02*
X118032500Y-124210000D01*
D12*
X104392857Y-122051428D02*
X104392857Y-122537142D01*
X104421428Y-122594285D01*
X104450000Y-122622857D01*
X104507142Y-122651428D01*
X104621428Y-122651428D01*
X104678571Y-122622857D01*
X104707142Y-122594285D01*
X104735714Y-122537142D01*
X104735714Y-122051428D01*
X105307142Y-122051428D02*
X105021428Y-122051428D01*
X104992857Y-122337142D01*
X105021428Y-122308571D01*
X105078571Y-122280000D01*
X105221428Y-122280000D01*
X105278571Y-122308571D01*
X105307142Y-122337142D01*
X105335714Y-122394285D01*
X105335714Y-122537142D01*
X105307142Y-122594285D01*
X105278571Y-122622857D01*
X105221428Y-122651428D01*
X105078571Y-122651428D01*
X105021428Y-122622857D01*
X104992857Y-122594285D01*
D13*
X98294523Y-108413333D02*
X99201666Y-108413333D01*
X99383095Y-108473809D01*
X99504047Y-108594761D01*
X99564523Y-108776190D01*
X99564523Y-108897142D01*
X99564523Y-107143333D02*
X99564523Y-107869047D01*
X99564523Y-107506190D02*
X98294523Y-107506190D01*
X98475952Y-107627142D01*
X98596904Y-107748095D01*
X98657380Y-107869047D01*
X105695238Y-114622761D02*
X105695238Y-115227523D01*
X105271904Y-113957523D02*
X105695238Y-114622761D01*
X106118571Y-113957523D01*
X107207142Y-115227523D02*
X106481428Y-115227523D01*
X106844285Y-115227523D02*
X106844285Y-113957523D01*
X106723333Y-114138952D01*
X106602380Y-114259904D01*
X106481428Y-114320380D01*
D12*
X92720476Y-101552380D02*
X92720476Y-102266666D01*
X92672857Y-102409523D01*
X92577619Y-102504761D01*
X92434761Y-102552380D01*
X92339523Y-102552380D01*
X93720476Y-102552380D02*
X93149047Y-102552380D01*
X93434761Y-102552380D02*
X93434761Y-101552380D01*
X93339523Y-101695238D01*
X93244285Y-101790476D01*
X93149047Y-101838095D01*
X94291904Y-101980952D02*
X94196666Y-101933333D01*
X94149047Y-101885714D01*
X94101428Y-101790476D01*
X94101428Y-101742857D01*
X94149047Y-101647619D01*
X94196666Y-101600000D01*
X94291904Y-101552380D01*
X94482380Y-101552380D01*
X94577619Y-101600000D01*
X94625238Y-101647619D01*
X94672857Y-101742857D01*
X94672857Y-101790476D01*
X94625238Y-101885714D01*
X94577619Y-101933333D01*
X94482380Y-101980952D01*
X94291904Y-101980952D01*
X94196666Y-102028571D01*
X94149047Y-102076190D01*
X94101428Y-102171428D01*
X94101428Y-102361904D01*
X94149047Y-102457142D01*
X94196666Y-102504761D01*
X94291904Y-102552380D01*
X94482380Y-102552380D01*
X94577619Y-102504761D01*
X94625238Y-102457142D01*
X94672857Y-102361904D01*
X94672857Y-102171428D01*
X94625238Y-102076190D01*
X94577619Y-102028571D01*
X94482380Y-101980952D01*
X117190476Y-80082380D02*
X117190476Y-80796666D01*
X117142857Y-80939523D01*
X117047619Y-81034761D01*
X116904761Y-81082380D01*
X116809523Y-81082380D01*
X118190476Y-81082380D02*
X117619047Y-81082380D01*
X117904761Y-81082380D02*
X117904761Y-80082380D01*
X117809523Y-80225238D01*
X117714285Y-80320476D01*
X117619047Y-80368095D01*
X118523809Y-80082380D02*
X119190476Y-80082380D01*
X118761904Y-81082380D01*
X126000476Y-114822380D02*
X126000476Y-115536666D01*
X125952857Y-115679523D01*
X125857619Y-115774761D01*
X125714761Y-115822380D01*
X125619523Y-115822380D01*
X127000476Y-115822380D02*
X126429047Y-115822380D01*
X126714761Y-115822380D02*
X126714761Y-114822380D01*
X126619523Y-114965238D01*
X126524285Y-115060476D01*
X126429047Y-115108095D01*
X127333809Y-114822380D02*
X127952857Y-114822380D01*
X127619523Y-115203333D01*
X127762380Y-115203333D01*
X127857619Y-115250952D01*
X127905238Y-115298571D01*
X127952857Y-115393809D01*
X127952857Y-115631904D01*
X127905238Y-115727142D01*
X127857619Y-115774761D01*
X127762380Y-115822380D01*
X127476666Y-115822380D01*
X127381428Y-115774761D01*
X127333809Y-115727142D01*
X109010476Y-96552380D02*
X109010476Y-97266666D01*
X108962857Y-97409523D01*
X108867619Y-97504761D01*
X108724761Y-97552380D01*
X108629523Y-97552380D01*
X110010476Y-97552380D02*
X109439047Y-97552380D01*
X109724761Y-97552380D02*
X109724761Y-96552380D01*
X109629523Y-96695238D01*
X109534285Y-96790476D01*
X109439047Y-96838095D01*
X110962857Y-97552380D02*
X110391428Y-97552380D01*
X110677142Y-97552380D02*
X110677142Y-96552380D01*
X110581904Y-96695238D01*
X110486666Y-96790476D01*
X110391428Y-96838095D01*
X126398095Y-114782380D02*
X126398095Y-113782380D01*
X126398095Y-114258571D02*
X126969523Y-114258571D01*
X126969523Y-114782380D02*
X126969523Y-113782380D01*
X127398095Y-113877619D02*
X127445714Y-113830000D01*
X127540952Y-113782380D01*
X127779047Y-113782380D01*
X127874285Y-113830000D01*
X127921904Y-113877619D01*
X127969523Y-113972857D01*
X127969523Y-114068095D01*
X127921904Y-114210952D01*
X127350476Y-114782380D01*
X127969523Y-114782380D01*
X107998095Y-100382380D02*
X107998095Y-99382380D01*
X107998095Y-99858571D02*
X108569523Y-99858571D01*
X108569523Y-100382380D02*
X108569523Y-99382380D01*
X109569523Y-100382380D02*
X108998095Y-100382380D01*
X109283809Y-100382380D02*
X109283809Y-99382380D01*
X109188571Y-99525238D01*
X109093333Y-99620476D01*
X108998095Y-99668095D01*
X106460476Y-111762380D02*
X106460476Y-112476666D01*
X106412857Y-112619523D01*
X106317619Y-112714761D01*
X106174761Y-112762380D01*
X106079523Y-112762380D01*
X107460476Y-112762380D02*
X106889047Y-112762380D01*
X107174761Y-112762380D02*
X107174761Y-111762380D01*
X107079523Y-111905238D01*
X106984285Y-112000476D01*
X106889047Y-112048095D01*
X108365238Y-111762380D02*
X107889047Y-111762380D01*
X107841428Y-112238571D01*
X107889047Y-112190952D01*
X107984285Y-112143333D01*
X108222380Y-112143333D01*
X108317619Y-112190952D01*
X108365238Y-112238571D01*
X108412857Y-112333809D01*
X108412857Y-112571904D01*
X108365238Y-112667142D01*
X108317619Y-112714761D01*
X108222380Y-112762380D01*
X107984285Y-112762380D01*
X107889047Y-112714761D01*
X107841428Y-112667142D01*
D14*
X99641071Y-118978571D02*
X99617261Y-119002380D01*
X99545833Y-119026190D01*
X99498214Y-119026190D01*
X99426785Y-119002380D01*
X99379166Y-118954761D01*
X99355357Y-118907142D01*
X99331547Y-118811904D01*
X99331547Y-118740476D01*
X99355357Y-118645238D01*
X99379166Y-118597619D01*
X99426785Y-118550000D01*
X99498214Y-118526190D01*
X99545833Y-118526190D01*
X99617261Y-118550000D01*
X99641071Y-118573809D01*
X100117261Y-119026190D02*
X99831547Y-119026190D01*
X99974404Y-119026190D02*
X99974404Y-118526190D01*
X99926785Y-118597619D01*
X99879166Y-118645238D01*
X99831547Y-118669047D01*
X100283928Y-118526190D02*
X100593452Y-118526190D01*
X100426785Y-118716666D01*
X100498214Y-118716666D01*
X100545833Y-118740476D01*
X100569642Y-118764285D01*
X100593452Y-118811904D01*
X100593452Y-118930952D01*
X100569642Y-118978571D01*
X100545833Y-119002380D01*
X100498214Y-119026190D01*
X100355357Y-119026190D01*
X100307738Y-119002380D01*
X100283928Y-118978571D01*
X112738571Y-94878571D02*
X112714761Y-94902380D01*
X112643333Y-94926190D01*
X112595714Y-94926190D01*
X112524285Y-94902380D01*
X112476666Y-94854761D01*
X112452857Y-94807142D01*
X112429047Y-94711904D01*
X112429047Y-94640476D01*
X112452857Y-94545238D01*
X112476666Y-94497619D01*
X112524285Y-94450000D01*
X112595714Y-94426190D01*
X112643333Y-94426190D01*
X112714761Y-94450000D01*
X112738571Y-94473809D01*
X112905238Y-94426190D02*
X113214761Y-94426190D01*
X113048095Y-94616666D01*
X113119523Y-94616666D01*
X113167142Y-94640476D01*
X113190952Y-94664285D01*
X113214761Y-94711904D01*
X113214761Y-94830952D01*
X113190952Y-94878571D01*
X113167142Y-94902380D01*
X113119523Y-94926190D01*
X112976666Y-94926190D01*
X112929047Y-94902380D01*
X112905238Y-94878571D01*
X113690952Y-94926190D02*
X113405238Y-94926190D01*
X113548095Y-94926190D02*
X113548095Y-94426190D01*
X113500476Y-94497619D01*
X113452857Y-94545238D01*
X113405238Y-94569047D01*
X106326666Y-119956190D02*
X106160000Y-119718095D01*
X106040952Y-119956190D02*
X106040952Y-119456190D01*
X106231428Y-119456190D01*
X106279047Y-119480000D01*
X106302857Y-119503809D01*
X106326666Y-119551428D01*
X106326666Y-119622857D01*
X106302857Y-119670476D01*
X106279047Y-119694285D01*
X106231428Y-119718095D01*
X106040952Y-119718095D01*
X106517142Y-119503809D02*
X106540952Y-119480000D01*
X106588571Y-119456190D01*
X106707619Y-119456190D01*
X106755238Y-119480000D01*
X106779047Y-119503809D01*
X106802857Y-119551428D01*
X106802857Y-119599047D01*
X106779047Y-119670476D01*
X106493333Y-119956190D01*
X106802857Y-119956190D01*
D12*
X125696666Y-120874761D02*
X125839523Y-120922380D01*
X126077619Y-120922380D01*
X126172857Y-120874761D01*
X126220476Y-120827142D01*
X126268095Y-120731904D01*
X126268095Y-120636666D01*
X126220476Y-120541428D01*
X126172857Y-120493809D01*
X126077619Y-120446190D01*
X125887142Y-120398571D01*
X125791904Y-120350952D01*
X125744285Y-120303333D01*
X125696666Y-120208095D01*
X125696666Y-120112857D01*
X125744285Y-120017619D01*
X125791904Y-119970000D01*
X125887142Y-119922380D01*
X126125238Y-119922380D01*
X126268095Y-119970000D01*
X126601428Y-119922380D02*
X126839523Y-120922380D01*
X127030000Y-120208095D01*
X127220476Y-120922380D01*
X127458571Y-119922380D01*
X128363333Y-120922380D02*
X127791904Y-120922380D01*
X128077619Y-120922380D02*
X128077619Y-119922380D01*
X127982380Y-120065238D01*
X127887142Y-120160476D01*
X127791904Y-120208095D01*
D15*
X105686190Y-96180952D02*
X106090952Y-96180952D01*
X106138571Y-96157142D01*
X106162380Y-96133333D01*
X106186190Y-96085714D01*
X106186190Y-95990476D01*
X106162380Y-95942857D01*
X106138571Y-95919047D01*
X106090952Y-95895238D01*
X105686190Y-95895238D01*
X105686190Y-95704761D02*
X105686190Y-95395238D01*
X105876666Y-95561904D01*
X105876666Y-95490476D01*
X105900476Y-95442857D01*
X105924285Y-95419047D01*
X105971904Y-95395238D01*
X106090952Y-95395238D01*
X106138571Y-95419047D01*
X106162380Y-95442857D01*
X106186190Y-95490476D01*
X106186190Y-95633333D01*
X106162380Y-95680952D01*
X106138571Y-95704761D01*
D12*
X126076666Y-87212380D02*
X126076666Y-87926666D01*
X126029047Y-88069523D01*
X125933809Y-88164761D01*
X125790952Y-88212380D01*
X125695714Y-88212380D01*
X126981428Y-87212380D02*
X126790952Y-87212380D01*
X126695714Y-87260000D01*
X126648095Y-87307619D01*
X126552857Y-87450476D01*
X126505238Y-87640952D01*
X126505238Y-88021904D01*
X126552857Y-88117142D01*
X126600476Y-88164761D01*
X126695714Y-88212380D01*
X126886190Y-88212380D01*
X126981428Y-88164761D01*
X127029047Y-88117142D01*
X127076666Y-88021904D01*
X127076666Y-87783809D01*
X127029047Y-87688571D01*
X126981428Y-87640952D01*
X126886190Y-87593333D01*
X126695714Y-87593333D01*
X126600476Y-87640952D01*
X126552857Y-87688571D01*
X126505238Y-87783809D01*
X109826666Y-87072380D02*
X109826666Y-87786666D01*
X109779047Y-87929523D01*
X109683809Y-88024761D01*
X109540952Y-88072380D01*
X109445714Y-88072380D01*
X110779047Y-87072380D02*
X110302857Y-87072380D01*
X110255238Y-87548571D01*
X110302857Y-87500952D01*
X110398095Y-87453333D01*
X110636190Y-87453333D01*
X110731428Y-87500952D01*
X110779047Y-87548571D01*
X110826666Y-87643809D01*
X110826666Y-87881904D01*
X110779047Y-87977142D01*
X110731428Y-88024761D01*
X110636190Y-88072380D01*
X110398095Y-88072380D01*
X110302857Y-88024761D01*
X110255238Y-87977142D01*
X134152380Y-92933333D02*
X134866666Y-92933333D01*
X135009523Y-92980952D01*
X135104761Y-93076190D01*
X135152380Y-93219047D01*
X135152380Y-93314285D01*
X134247619Y-92504761D02*
X134200000Y-92457142D01*
X134152380Y-92361904D01*
X134152380Y-92123809D01*
X134200000Y-92028571D01*
X134247619Y-91980952D01*
X134342857Y-91933333D01*
X134438095Y-91933333D01*
X134580952Y-91980952D01*
X135152380Y-92552380D01*
X135152380Y-91933333D01*
D10*
X117866666Y-93116666D02*
X117866666Y-93683333D01*
X117900000Y-93750000D01*
X117933333Y-93783333D01*
X118000000Y-93816666D01*
X118133333Y-93816666D01*
X118200000Y-93783333D01*
X118233333Y-93750000D01*
X118266666Y-93683333D01*
X118266666Y-93116666D01*
X118900000Y-93116666D02*
X118766666Y-93116666D01*
X118700000Y-93150000D01*
X118666666Y-93183333D01*
X118600000Y-93283333D01*
X118566666Y-93416666D01*
X118566666Y-93683333D01*
X118600000Y-93750000D01*
X118633333Y-93783333D01*
X118700000Y-93816666D01*
X118833333Y-93816666D01*
X118900000Y-93783333D01*
X118933333Y-93750000D01*
X118966666Y-93683333D01*
X118966666Y-93516666D01*
X118933333Y-93450000D01*
X118900000Y-93416666D01*
X118833333Y-93383333D01*
X118700000Y-93383333D01*
X118633333Y-93416666D01*
X118600000Y-93450000D01*
X118566666Y-93516666D01*
D15*
X131079047Y-117696190D02*
X131079047Y-118100952D01*
X131102857Y-118148571D01*
X131126666Y-118172380D01*
X131174285Y-118196190D01*
X131269523Y-118196190D01*
X131317142Y-118172380D01*
X131340952Y-118148571D01*
X131364761Y-118100952D01*
X131364761Y-117696190D01*
X131817142Y-117862857D02*
X131817142Y-118196190D01*
X131698095Y-117672380D02*
X131579047Y-118029523D01*
X131888571Y-118029523D01*
X120139047Y-122236190D02*
X120139047Y-122640952D01*
X120162857Y-122688571D01*
X120186666Y-122712380D01*
X120234285Y-122736190D01*
X120329523Y-122736190D01*
X120377142Y-122712380D01*
X120400952Y-122688571D01*
X120424761Y-122640952D01*
X120424761Y-122236190D01*
X120924761Y-122736190D02*
X120639047Y-122736190D01*
X120781904Y-122736190D02*
X120781904Y-122236190D01*
X120734285Y-122307619D01*
X120686666Y-122355238D01*
X120639047Y-122379047D01*
D14*
X113006190Y-122583928D02*
X112768095Y-122750595D01*
X113006190Y-122869642D02*
X112506190Y-122869642D01*
X112506190Y-122679166D01*
X112530000Y-122631547D01*
X112553809Y-122607738D01*
X112601428Y-122583928D01*
X112672857Y-122583928D01*
X112720476Y-122607738D01*
X112744285Y-122631547D01*
X112768095Y-122679166D01*
X112768095Y-122869642D01*
X113006190Y-122107738D02*
X113006190Y-122393452D01*
X113006190Y-122250595D02*
X112506190Y-122250595D01*
X112577619Y-122298214D01*
X112625238Y-122345833D01*
X112649047Y-122393452D01*
X112506190Y-121941071D02*
X112506190Y-121607738D01*
X113006190Y-121822023D01*
X121226190Y-93720833D02*
X120988095Y-93887500D01*
X121226190Y-94006547D02*
X120726190Y-94006547D01*
X120726190Y-93816071D01*
X120750000Y-93768452D01*
X120773809Y-93744642D01*
X120821428Y-93720833D01*
X120892857Y-93720833D01*
X120940476Y-93744642D01*
X120964285Y-93768452D01*
X120988095Y-93816071D01*
X120988095Y-94006547D01*
X120726190Y-93554166D02*
X120726190Y-93220833D01*
X121226190Y-93435119D01*
X123854166Y-92976190D02*
X123687500Y-92738095D01*
X123568452Y-92976190D02*
X123568452Y-92476190D01*
X123758928Y-92476190D01*
X123806547Y-92500000D01*
X123830357Y-92523809D01*
X123854166Y-92571428D01*
X123854166Y-92642857D01*
X123830357Y-92690476D01*
X123806547Y-92714285D01*
X123758928Y-92738095D01*
X123568452Y-92738095D01*
X124282738Y-92476190D02*
X124187500Y-92476190D01*
X124139880Y-92500000D01*
X124116071Y-92523809D01*
X124068452Y-92595238D01*
X124044642Y-92690476D01*
X124044642Y-92880952D01*
X124068452Y-92928571D01*
X124092261Y-92952380D01*
X124139880Y-92976190D01*
X124235119Y-92976190D01*
X124282738Y-92952380D01*
X124306547Y-92928571D01*
X124330357Y-92880952D01*
X124330357Y-92761904D01*
X124306547Y-92714285D01*
X124282738Y-92690476D01*
X124235119Y-92666666D01*
X124139880Y-92666666D01*
X124092261Y-92690476D01*
X124068452Y-92714285D01*
X124044642Y-92761904D01*
X101424166Y-125256190D02*
X101257500Y-125018095D01*
X101138452Y-125256190D02*
X101138452Y-124756190D01*
X101328928Y-124756190D01*
X101376547Y-124780000D01*
X101400357Y-124803809D01*
X101424166Y-124851428D01*
X101424166Y-124922857D01*
X101400357Y-124970476D01*
X101376547Y-124994285D01*
X101328928Y-125018095D01*
X101138452Y-125018095D01*
X101590833Y-124756190D02*
X101900357Y-124756190D01*
X101733690Y-124946666D01*
X101805119Y-124946666D01*
X101852738Y-124970476D01*
X101876547Y-124994285D01*
X101900357Y-125041904D01*
X101900357Y-125160952D01*
X101876547Y-125208571D01*
X101852738Y-125232380D01*
X101805119Y-125256190D01*
X101662261Y-125256190D01*
X101614642Y-125232380D01*
X101590833Y-125208571D01*
X111056190Y-122340833D02*
X110818095Y-122507500D01*
X111056190Y-122626547D02*
X110556190Y-122626547D01*
X110556190Y-122436071D01*
X110580000Y-122388452D01*
X110603809Y-122364642D01*
X110651428Y-122340833D01*
X110722857Y-122340833D01*
X110770476Y-122364642D01*
X110794285Y-122388452D01*
X110818095Y-122436071D01*
X110818095Y-122626547D01*
X111056190Y-121864642D02*
X111056190Y-122150357D01*
X111056190Y-122007500D02*
X110556190Y-122007500D01*
X110627619Y-122055119D01*
X110675238Y-122102738D01*
X110699047Y-122150357D01*
D12*
X134990476Y-127452380D02*
X134990476Y-126452380D01*
X135323809Y-127166666D01*
X135657142Y-126452380D01*
X135657142Y-127452380D01*
X136133333Y-127452380D02*
X136133333Y-126452380D01*
X136704761Y-127452380D02*
X136276190Y-126880952D01*
X136704761Y-126452380D02*
X136133333Y-127023809D01*
X137561904Y-126785714D02*
X137561904Y-127452380D01*
X137323809Y-126404761D02*
X137085714Y-127119047D01*
X137704761Y-127119047D01*
X92990476Y-127452380D02*
X92990476Y-126452380D01*
X93323809Y-127166666D01*
X93657142Y-126452380D01*
X93657142Y-127452380D01*
X94133333Y-127452380D02*
X94133333Y-126452380D01*
X94704761Y-127452380D02*
X94276190Y-126880952D01*
X94704761Y-126452380D02*
X94133333Y-127023809D01*
X95038095Y-126452380D02*
X95657142Y-126452380D01*
X95323809Y-126833333D01*
X95466666Y-126833333D01*
X95561904Y-126880952D01*
X95609523Y-126928571D01*
X95657142Y-127023809D01*
X95657142Y-127261904D01*
X95609523Y-127357142D01*
X95561904Y-127404761D01*
X95466666Y-127452380D01*
X95180952Y-127452380D01*
X95085714Y-127404761D01*
X95038095Y-127357142D01*
X134990476Y-84452380D02*
X134990476Y-83452380D01*
X135323809Y-84166666D01*
X135657142Y-83452380D01*
X135657142Y-84452380D01*
X136133333Y-84452380D02*
X136133333Y-83452380D01*
X136704761Y-84452380D02*
X136276190Y-83880952D01*
X136704761Y-83452380D02*
X136133333Y-84023809D01*
X137085714Y-83547619D02*
X137133333Y-83500000D01*
X137228571Y-83452380D01*
X137466666Y-83452380D01*
X137561904Y-83500000D01*
X137609523Y-83547619D01*
X137657142Y-83642857D01*
X137657142Y-83738095D01*
X137609523Y-83880952D01*
X137038095Y-84452380D01*
X137657142Y-84452380D01*
X92990476Y-84452380D02*
X92990476Y-83452380D01*
X93323809Y-84166666D01*
X93657142Y-83452380D01*
X93657142Y-84452380D01*
X94133333Y-84452380D02*
X94133333Y-83452380D01*
X94704761Y-84452380D02*
X94276190Y-83880952D01*
X94704761Y-83452380D02*
X94133333Y-84023809D01*
X95657142Y-84452380D02*
X95085714Y-84452380D01*
X95371428Y-84452380D02*
X95371428Y-83452380D01*
X95276190Y-83595238D01*
X95180952Y-83690476D01*
X95085714Y-83738095D01*
D16*
X136511904Y-97633333D02*
X136511904Y-98014285D01*
X135711904Y-98014285D01*
X136511904Y-96947619D02*
X136511904Y-97404761D01*
X136511904Y-97176190D02*
X135711904Y-97176190D01*
X135826190Y-97252380D01*
X135902380Y-97328571D01*
X135940476Y-97404761D01*
D12*
X99762380Y-88293333D02*
X100476666Y-88293333D01*
X100619523Y-88340952D01*
X100714761Y-88436190D01*
X100762380Y-88579047D01*
X100762380Y-88674285D01*
X99762380Y-87912380D02*
X99762380Y-87293333D01*
X100143333Y-87626666D01*
X100143333Y-87483809D01*
X100190952Y-87388571D01*
X100238571Y-87340952D01*
X100333809Y-87293333D01*
X100571904Y-87293333D01*
X100667142Y-87340952D01*
X100714761Y-87388571D01*
X100762380Y-87483809D01*
X100762380Y-87769523D01*
X100714761Y-87864761D01*
X100667142Y-87912380D01*
D16*
X98909523Y-121561904D02*
X98909523Y-120761904D01*
X99100000Y-120761904D01*
X99214285Y-120800000D01*
X99290476Y-120876190D01*
X99328571Y-120952380D01*
X99366666Y-121104761D01*
X99366666Y-121219047D01*
X99328571Y-121371428D01*
X99290476Y-121447619D01*
X99214285Y-121523809D01*
X99100000Y-121561904D01*
X98909523Y-121561904D01*
X100128571Y-121561904D02*
X99671428Y-121561904D01*
X99900000Y-121561904D02*
X99900000Y-120761904D01*
X99823809Y-120876190D01*
X99747619Y-120952380D01*
X99671428Y-120990476D01*
D14*
X123616071Y-94878571D02*
X123592261Y-94902380D01*
X123520833Y-94926190D01*
X123473214Y-94926190D01*
X123401785Y-94902380D01*
X123354166Y-94854761D01*
X123330357Y-94807142D01*
X123306547Y-94711904D01*
X123306547Y-94640476D01*
X123330357Y-94545238D01*
X123354166Y-94497619D01*
X123401785Y-94450000D01*
X123473214Y-94426190D01*
X123520833Y-94426190D01*
X123592261Y-94450000D01*
X123616071Y-94473809D01*
X123782738Y-94426190D02*
X124092261Y-94426190D01*
X123925595Y-94616666D01*
X123997023Y-94616666D01*
X124044642Y-94640476D01*
X124068452Y-94664285D01*
X124092261Y-94711904D01*
X124092261Y-94830952D01*
X124068452Y-94878571D01*
X124044642Y-94902380D01*
X123997023Y-94926190D01*
X123854166Y-94926190D01*
X123806547Y-94902380D01*
X123782738Y-94878571D01*
X124258928Y-94426190D02*
X124568452Y-94426190D01*
X124401785Y-94616666D01*
X124473214Y-94616666D01*
X124520833Y-94640476D01*
X124544642Y-94664285D01*
X124568452Y-94711904D01*
X124568452Y-94830952D01*
X124544642Y-94878571D01*
X124520833Y-94902380D01*
X124473214Y-94926190D01*
X124330357Y-94926190D01*
X124282738Y-94902380D01*
X124258928Y-94878571D01*
X112738571Y-96828571D02*
X112714761Y-96852380D01*
X112643333Y-96876190D01*
X112595714Y-96876190D01*
X112524285Y-96852380D01*
X112476666Y-96804761D01*
X112452857Y-96757142D01*
X112429047Y-96661904D01*
X112429047Y-96590476D01*
X112452857Y-96495238D01*
X112476666Y-96447619D01*
X112524285Y-96400000D01*
X112595714Y-96376190D01*
X112643333Y-96376190D01*
X112714761Y-96400000D01*
X112738571Y-96423809D01*
X112905238Y-96376190D02*
X113214761Y-96376190D01*
X113048095Y-96566666D01*
X113119523Y-96566666D01*
X113167142Y-96590476D01*
X113190952Y-96614285D01*
X113214761Y-96661904D01*
X113214761Y-96780952D01*
X113190952Y-96828571D01*
X113167142Y-96852380D01*
X113119523Y-96876190D01*
X112976666Y-96876190D01*
X112929047Y-96852380D01*
X112905238Y-96828571D01*
X113405238Y-96423809D02*
X113429047Y-96400000D01*
X113476666Y-96376190D01*
X113595714Y-96376190D01*
X113643333Y-96400000D01*
X113667142Y-96423809D01*
X113690952Y-96471428D01*
X113690952Y-96519047D01*
X113667142Y-96590476D01*
X113381428Y-96876190D01*
X113690952Y-96876190D01*
X123616071Y-96828571D02*
X123592261Y-96852380D01*
X123520833Y-96876190D01*
X123473214Y-96876190D01*
X123401785Y-96852380D01*
X123354166Y-96804761D01*
X123330357Y-96757142D01*
X123306547Y-96661904D01*
X123306547Y-96590476D01*
X123330357Y-96495238D01*
X123354166Y-96447619D01*
X123401785Y-96400000D01*
X123473214Y-96376190D01*
X123520833Y-96376190D01*
X123592261Y-96400000D01*
X123616071Y-96423809D01*
X123806547Y-96423809D02*
X123830357Y-96400000D01*
X123877976Y-96376190D01*
X123997023Y-96376190D01*
X124044642Y-96400000D01*
X124068452Y-96423809D01*
X124092261Y-96471428D01*
X124092261Y-96519047D01*
X124068452Y-96590476D01*
X123782738Y-96876190D01*
X124092261Y-96876190D01*
X124330357Y-96876190D02*
X124425595Y-96876190D01*
X124473214Y-96852380D01*
X124497023Y-96828571D01*
X124544642Y-96757142D01*
X124568452Y-96661904D01*
X124568452Y-96471428D01*
X124544642Y-96423809D01*
X124520833Y-96400000D01*
X124473214Y-96376190D01*
X124377976Y-96376190D01*
X124330357Y-96400000D01*
X124306547Y-96423809D01*
X124282738Y-96471428D01*
X124282738Y-96590476D01*
X124306547Y-96638095D01*
X124330357Y-96661904D01*
X124377976Y-96685714D01*
X124473214Y-96685714D01*
X124520833Y-96661904D01*
X124544642Y-96638095D01*
X124568452Y-96590476D01*
X105768571Y-117278571D02*
X105744761Y-117302380D01*
X105673333Y-117326190D01*
X105625714Y-117326190D01*
X105554285Y-117302380D01*
X105506666Y-117254761D01*
X105482857Y-117207142D01*
X105459047Y-117111904D01*
X105459047Y-117040476D01*
X105482857Y-116945238D01*
X105506666Y-116897619D01*
X105554285Y-116850000D01*
X105625714Y-116826190D01*
X105673333Y-116826190D01*
X105744761Y-116850000D01*
X105768571Y-116873809D01*
X105959047Y-116873809D02*
X105982857Y-116850000D01*
X106030476Y-116826190D01*
X106149523Y-116826190D01*
X106197142Y-116850000D01*
X106220952Y-116873809D01*
X106244761Y-116921428D01*
X106244761Y-116969047D01*
X106220952Y-117040476D01*
X105935238Y-117326190D01*
X106244761Y-117326190D01*
X106530476Y-117040476D02*
X106482857Y-117016666D01*
X106459047Y-116992857D01*
X106435238Y-116945238D01*
X106435238Y-116921428D01*
X106459047Y-116873809D01*
X106482857Y-116850000D01*
X106530476Y-116826190D01*
X106625714Y-116826190D01*
X106673333Y-116850000D01*
X106697142Y-116873809D01*
X106720952Y-116921428D01*
X106720952Y-116945238D01*
X106697142Y-116992857D01*
X106673333Y-117016666D01*
X106625714Y-117040476D01*
X106530476Y-117040476D01*
X106482857Y-117064285D01*
X106459047Y-117088095D01*
X106435238Y-117135714D01*
X106435238Y-117230952D01*
X106459047Y-117278571D01*
X106482857Y-117302380D01*
X106530476Y-117326190D01*
X106625714Y-117326190D01*
X106673333Y-117302380D01*
X106697142Y-117278571D01*
X106720952Y-117230952D01*
X106720952Y-117135714D01*
X106697142Y-117088095D01*
X106673333Y-117064285D01*
X106625714Y-117040476D01*
X129066071Y-102428571D02*
X129042261Y-102452380D01*
X128970833Y-102476190D01*
X128923214Y-102476190D01*
X128851785Y-102452380D01*
X128804166Y-102404761D01*
X128780357Y-102357142D01*
X128756547Y-102261904D01*
X128756547Y-102190476D01*
X128780357Y-102095238D01*
X128804166Y-102047619D01*
X128851785Y-102000000D01*
X128923214Y-101976190D01*
X128970833Y-101976190D01*
X129042261Y-102000000D01*
X129066071Y-102023809D01*
X129256547Y-102023809D02*
X129280357Y-102000000D01*
X129327976Y-101976190D01*
X129447023Y-101976190D01*
X129494642Y-102000000D01*
X129518452Y-102023809D01*
X129542261Y-102071428D01*
X129542261Y-102119047D01*
X129518452Y-102190476D01*
X129232738Y-102476190D01*
X129542261Y-102476190D01*
X129970833Y-101976190D02*
X129875595Y-101976190D01*
X129827976Y-102000000D01*
X129804166Y-102023809D01*
X129756547Y-102095238D01*
X129732738Y-102190476D01*
X129732738Y-102380952D01*
X129756547Y-102428571D01*
X129780357Y-102452380D01*
X129827976Y-102476190D01*
X129923214Y-102476190D01*
X129970833Y-102452380D01*
X129994642Y-102428571D01*
X130018452Y-102380952D01*
X130018452Y-102261904D01*
X129994642Y-102214285D01*
X129970833Y-102190476D01*
X129923214Y-102166666D01*
X129827976Y-102166666D01*
X129780357Y-102190476D01*
X129756547Y-102214285D01*
X129732738Y-102261904D01*
X109058571Y-124461428D02*
X109082380Y-124485238D01*
X109106190Y-124556666D01*
X109106190Y-124604285D01*
X109082380Y-124675714D01*
X109034761Y-124723333D01*
X108987142Y-124747142D01*
X108891904Y-124770952D01*
X108820476Y-124770952D01*
X108725238Y-124747142D01*
X108677619Y-124723333D01*
X108630000Y-124675714D01*
X108606190Y-124604285D01*
X108606190Y-124556666D01*
X108630000Y-124485238D01*
X108653809Y-124461428D01*
X108653809Y-124270952D02*
X108630000Y-124247142D01*
X108606190Y-124199523D01*
X108606190Y-124080476D01*
X108630000Y-124032857D01*
X108653809Y-124009047D01*
X108701428Y-123985238D01*
X108749047Y-123985238D01*
X108820476Y-124009047D01*
X109106190Y-124294761D01*
X109106190Y-123985238D01*
X108606190Y-123532857D02*
X108606190Y-123770952D01*
X108844285Y-123794761D01*
X108820476Y-123770952D01*
X108796666Y-123723333D01*
X108796666Y-123604285D01*
X108820476Y-123556666D01*
X108844285Y-123532857D01*
X108891904Y-123509047D01*
X109010952Y-123509047D01*
X109058571Y-123532857D01*
X109082380Y-123556666D01*
X109106190Y-123604285D01*
X109106190Y-123723333D01*
X109082380Y-123770952D01*
X109058571Y-123794761D01*
X128838571Y-118091428D02*
X128862380Y-118115238D01*
X128886190Y-118186666D01*
X128886190Y-118234285D01*
X128862380Y-118305714D01*
X128814761Y-118353333D01*
X128767142Y-118377142D01*
X128671904Y-118400952D01*
X128600476Y-118400952D01*
X128505238Y-118377142D01*
X128457619Y-118353333D01*
X128410000Y-118305714D01*
X128386190Y-118234285D01*
X128386190Y-118186666D01*
X128410000Y-118115238D01*
X128433809Y-118091428D01*
X128433809Y-117900952D02*
X128410000Y-117877142D01*
X128386190Y-117829523D01*
X128386190Y-117710476D01*
X128410000Y-117662857D01*
X128433809Y-117639047D01*
X128481428Y-117615238D01*
X128529047Y-117615238D01*
X128600476Y-117639047D01*
X128886190Y-117924761D01*
X128886190Y-117615238D01*
X128386190Y-117448571D02*
X128386190Y-117139047D01*
X128576666Y-117305714D01*
X128576666Y-117234285D01*
X128600476Y-117186666D01*
X128624285Y-117162857D01*
X128671904Y-117139047D01*
X128790952Y-117139047D01*
X128838571Y-117162857D01*
X128862380Y-117186666D01*
X128886190Y-117234285D01*
X128886190Y-117377142D01*
X128862380Y-117424761D01*
X128838571Y-117448571D01*
X104598571Y-125208571D02*
X104574761Y-125232380D01*
X104503333Y-125256190D01*
X104455714Y-125256190D01*
X104384285Y-125232380D01*
X104336666Y-125184761D01*
X104312857Y-125137142D01*
X104289047Y-125041904D01*
X104289047Y-124970476D01*
X104312857Y-124875238D01*
X104336666Y-124827619D01*
X104384285Y-124780000D01*
X104455714Y-124756190D01*
X104503333Y-124756190D01*
X104574761Y-124780000D01*
X104598571Y-124803809D01*
X104789047Y-124803809D02*
X104812857Y-124780000D01*
X104860476Y-124756190D01*
X104979523Y-124756190D01*
X105027142Y-124780000D01*
X105050952Y-124803809D01*
X105074761Y-124851428D01*
X105074761Y-124899047D01*
X105050952Y-124970476D01*
X104765238Y-125256190D01*
X105074761Y-125256190D01*
X105265238Y-124803809D02*
X105289047Y-124780000D01*
X105336666Y-124756190D01*
X105455714Y-124756190D01*
X105503333Y-124780000D01*
X105527142Y-124803809D01*
X105550952Y-124851428D01*
X105550952Y-124899047D01*
X105527142Y-124970476D01*
X105241428Y-125256190D01*
X105550952Y-125256190D01*
X129066071Y-100528571D02*
X129042261Y-100552380D01*
X128970833Y-100576190D01*
X128923214Y-100576190D01*
X128851785Y-100552380D01*
X128804166Y-100504761D01*
X128780357Y-100457142D01*
X128756547Y-100361904D01*
X128756547Y-100290476D01*
X128780357Y-100195238D01*
X128804166Y-100147619D01*
X128851785Y-100100000D01*
X128923214Y-100076190D01*
X128970833Y-100076190D01*
X129042261Y-100100000D01*
X129066071Y-100123809D01*
X129256547Y-100123809D02*
X129280357Y-100100000D01*
X129327976Y-100076190D01*
X129447023Y-100076190D01*
X129494642Y-100100000D01*
X129518452Y-100123809D01*
X129542261Y-100171428D01*
X129542261Y-100219047D01*
X129518452Y-100290476D01*
X129232738Y-100576190D01*
X129542261Y-100576190D01*
X130018452Y-100576190D02*
X129732738Y-100576190D01*
X129875595Y-100576190D02*
X129875595Y-100076190D01*
X129827976Y-100147619D01*
X129780357Y-100195238D01*
X129732738Y-100219047D01*
X109278571Y-92928571D02*
X109254761Y-92952380D01*
X109183333Y-92976190D01*
X109135714Y-92976190D01*
X109064285Y-92952380D01*
X109016666Y-92904761D01*
X108992857Y-92857142D01*
X108969047Y-92761904D01*
X108969047Y-92690476D01*
X108992857Y-92595238D01*
X109016666Y-92547619D01*
X109064285Y-92500000D01*
X109135714Y-92476190D01*
X109183333Y-92476190D01*
X109254761Y-92500000D01*
X109278571Y-92523809D01*
X109469047Y-92523809D02*
X109492857Y-92500000D01*
X109540476Y-92476190D01*
X109659523Y-92476190D01*
X109707142Y-92500000D01*
X109730952Y-92523809D01*
X109754761Y-92571428D01*
X109754761Y-92619047D01*
X109730952Y-92690476D01*
X109445238Y-92976190D01*
X109754761Y-92976190D01*
X110064285Y-92476190D02*
X110111904Y-92476190D01*
X110159523Y-92500000D01*
X110183333Y-92523809D01*
X110207142Y-92571428D01*
X110230952Y-92666666D01*
X110230952Y-92785714D01*
X110207142Y-92880952D01*
X110183333Y-92928571D01*
X110159523Y-92952380D01*
X110111904Y-92976190D01*
X110064285Y-92976190D01*
X110016666Y-92952380D01*
X109992857Y-92928571D01*
X109969047Y-92880952D01*
X109945238Y-92785714D01*
X109945238Y-92666666D01*
X109969047Y-92571428D01*
X109992857Y-92523809D01*
X110016666Y-92500000D01*
X110064285Y-92476190D01*
X130178571Y-113378571D02*
X130154761Y-113402380D01*
X130083333Y-113426190D01*
X130035714Y-113426190D01*
X129964285Y-113402380D01*
X129916666Y-113354761D01*
X129892857Y-113307142D01*
X129869047Y-113211904D01*
X129869047Y-113140476D01*
X129892857Y-113045238D01*
X129916666Y-112997619D01*
X129964285Y-112950000D01*
X130035714Y-112926190D01*
X130083333Y-112926190D01*
X130154761Y-112950000D01*
X130178571Y-112973809D01*
X130654761Y-113426190D02*
X130369047Y-113426190D01*
X130511904Y-113426190D02*
X130511904Y-112926190D01*
X130464285Y-112997619D01*
X130416666Y-113045238D01*
X130369047Y-113069047D01*
X130892857Y-113426190D02*
X130988095Y-113426190D01*
X131035714Y-113402380D01*
X131059523Y-113378571D01*
X131107142Y-113307142D01*
X131130952Y-113211904D01*
X131130952Y-113021428D01*
X131107142Y-112973809D01*
X131083333Y-112950000D01*
X131035714Y-112926190D01*
X130940476Y-112926190D01*
X130892857Y-112950000D01*
X130869047Y-112973809D01*
X130845238Y-113021428D01*
X130845238Y-113140476D01*
X130869047Y-113188095D01*
X130892857Y-113211904D01*
X130940476Y-113235714D01*
X131035714Y-113235714D01*
X131083333Y-113211904D01*
X131107142Y-113188095D01*
X131130952Y-113140476D01*
X109281071Y-94878571D02*
X109257261Y-94902380D01*
X109185833Y-94926190D01*
X109138214Y-94926190D01*
X109066785Y-94902380D01*
X109019166Y-94854761D01*
X108995357Y-94807142D01*
X108971547Y-94711904D01*
X108971547Y-94640476D01*
X108995357Y-94545238D01*
X109019166Y-94497619D01*
X109066785Y-94450000D01*
X109138214Y-94426190D01*
X109185833Y-94426190D01*
X109257261Y-94450000D01*
X109281071Y-94473809D01*
X109757261Y-94926190D02*
X109471547Y-94926190D01*
X109614404Y-94926190D02*
X109614404Y-94426190D01*
X109566785Y-94497619D01*
X109519166Y-94545238D01*
X109471547Y-94569047D01*
X110042976Y-94640476D02*
X109995357Y-94616666D01*
X109971547Y-94592857D01*
X109947738Y-94545238D01*
X109947738Y-94521428D01*
X109971547Y-94473809D01*
X109995357Y-94450000D01*
X110042976Y-94426190D01*
X110138214Y-94426190D01*
X110185833Y-94450000D01*
X110209642Y-94473809D01*
X110233452Y-94521428D01*
X110233452Y-94545238D01*
X110209642Y-94592857D01*
X110185833Y-94616666D01*
X110138214Y-94640476D01*
X110042976Y-94640476D01*
X109995357Y-94664285D01*
X109971547Y-94688095D01*
X109947738Y-94735714D01*
X109947738Y-94830952D01*
X109971547Y-94878571D01*
X109995357Y-94902380D01*
X110042976Y-94926190D01*
X110138214Y-94926190D01*
X110185833Y-94902380D01*
X110209642Y-94878571D01*
X110233452Y-94830952D01*
X110233452Y-94735714D01*
X110209642Y-94688095D01*
X110185833Y-94664285D01*
X110138214Y-94640476D01*
X130178571Y-115268571D02*
X130154761Y-115292380D01*
X130083333Y-115316190D01*
X130035714Y-115316190D01*
X129964285Y-115292380D01*
X129916666Y-115244761D01*
X129892857Y-115197142D01*
X129869047Y-115101904D01*
X129869047Y-115030476D01*
X129892857Y-114935238D01*
X129916666Y-114887619D01*
X129964285Y-114840000D01*
X130035714Y-114816190D01*
X130083333Y-114816190D01*
X130154761Y-114840000D01*
X130178571Y-114863809D01*
X130654761Y-115316190D02*
X130369047Y-115316190D01*
X130511904Y-115316190D02*
X130511904Y-114816190D01*
X130464285Y-114887619D01*
X130416666Y-114935238D01*
X130369047Y-114959047D01*
X130821428Y-114816190D02*
X131154761Y-114816190D01*
X130940476Y-115316190D01*
X109278571Y-96828571D02*
X109254761Y-96852380D01*
X109183333Y-96876190D01*
X109135714Y-96876190D01*
X109064285Y-96852380D01*
X109016666Y-96804761D01*
X108992857Y-96757142D01*
X108969047Y-96661904D01*
X108969047Y-96590476D01*
X108992857Y-96495238D01*
X109016666Y-96447619D01*
X109064285Y-96400000D01*
X109135714Y-96376190D01*
X109183333Y-96376190D01*
X109254761Y-96400000D01*
X109278571Y-96423809D01*
X109754761Y-96876190D02*
X109469047Y-96876190D01*
X109611904Y-96876190D02*
X109611904Y-96376190D01*
X109564285Y-96447619D01*
X109516666Y-96495238D01*
X109469047Y-96519047D01*
X110183333Y-96376190D02*
X110088095Y-96376190D01*
X110040476Y-96400000D01*
X110016666Y-96423809D01*
X109969047Y-96495238D01*
X109945238Y-96590476D01*
X109945238Y-96780952D01*
X109969047Y-96828571D01*
X109992857Y-96852380D01*
X110040476Y-96876190D01*
X110135714Y-96876190D01*
X110183333Y-96852380D01*
X110207142Y-96828571D01*
X110230952Y-96780952D01*
X110230952Y-96661904D01*
X110207142Y-96614285D01*
X110183333Y-96590476D01*
X110135714Y-96566666D01*
X110040476Y-96566666D01*
X109992857Y-96590476D01*
X109969047Y-96614285D01*
X109945238Y-96661904D01*
X133118571Y-121048571D02*
X133094761Y-121072380D01*
X133023333Y-121096190D01*
X132975714Y-121096190D01*
X132904285Y-121072380D01*
X132856666Y-121024761D01*
X132832857Y-120977142D01*
X132809047Y-120881904D01*
X132809047Y-120810476D01*
X132832857Y-120715238D01*
X132856666Y-120667619D01*
X132904285Y-120620000D01*
X132975714Y-120596190D01*
X133023333Y-120596190D01*
X133094761Y-120620000D01*
X133118571Y-120643809D01*
X133594761Y-121096190D02*
X133309047Y-121096190D01*
X133451904Y-121096190D02*
X133451904Y-120596190D01*
X133404285Y-120667619D01*
X133356666Y-120715238D01*
X133309047Y-120739047D01*
X134047142Y-120596190D02*
X133809047Y-120596190D01*
X133785238Y-120834285D01*
X133809047Y-120810476D01*
X133856666Y-120786666D01*
X133975714Y-120786666D01*
X134023333Y-120810476D01*
X134047142Y-120834285D01*
X134070952Y-120881904D01*
X134070952Y-121000952D01*
X134047142Y-121048571D01*
X134023333Y-121072380D01*
X133975714Y-121096190D01*
X133856666Y-121096190D01*
X133809047Y-121072380D01*
X133785238Y-121048571D01*
X103238571Y-96118928D02*
X103262380Y-96142738D01*
X103286190Y-96214166D01*
X103286190Y-96261785D01*
X103262380Y-96333214D01*
X103214761Y-96380833D01*
X103167142Y-96404642D01*
X103071904Y-96428452D01*
X103000476Y-96428452D01*
X102905238Y-96404642D01*
X102857619Y-96380833D01*
X102810000Y-96333214D01*
X102786190Y-96261785D01*
X102786190Y-96214166D01*
X102810000Y-96142738D01*
X102833809Y-96118928D01*
X103286190Y-95642738D02*
X103286190Y-95928452D01*
X103286190Y-95785595D02*
X102786190Y-95785595D01*
X102857619Y-95833214D01*
X102905238Y-95880833D01*
X102929047Y-95928452D01*
X102952857Y-95214166D02*
X103286190Y-95214166D01*
X102762380Y-95333214D02*
X103119523Y-95452261D01*
X103119523Y-95142738D01*
X129078571Y-98578571D02*
X129054761Y-98602380D01*
X128983333Y-98626190D01*
X128935714Y-98626190D01*
X128864285Y-98602380D01*
X128816666Y-98554761D01*
X128792857Y-98507142D01*
X128769047Y-98411904D01*
X128769047Y-98340476D01*
X128792857Y-98245238D01*
X128816666Y-98197619D01*
X128864285Y-98150000D01*
X128935714Y-98126190D01*
X128983333Y-98126190D01*
X129054761Y-98150000D01*
X129078571Y-98173809D01*
X129554761Y-98626190D02*
X129269047Y-98626190D01*
X129411904Y-98626190D02*
X129411904Y-98126190D01*
X129364285Y-98197619D01*
X129316666Y-98245238D01*
X129269047Y-98269047D01*
X129745238Y-98173809D02*
X129769047Y-98150000D01*
X129816666Y-98126190D01*
X129935714Y-98126190D01*
X129983333Y-98150000D01*
X130007142Y-98173809D01*
X130030952Y-98221428D01*
X130030952Y-98269047D01*
X130007142Y-98340476D01*
X129721428Y-98626190D01*
X130030952Y-98626190D01*
X120178571Y-119788571D02*
X120154761Y-119812380D01*
X120083333Y-119836190D01*
X120035714Y-119836190D01*
X119964285Y-119812380D01*
X119916666Y-119764761D01*
X119892857Y-119717142D01*
X119869047Y-119621904D01*
X119869047Y-119550476D01*
X119892857Y-119455238D01*
X119916666Y-119407619D01*
X119964285Y-119360000D01*
X120035714Y-119336190D01*
X120083333Y-119336190D01*
X120154761Y-119360000D01*
X120178571Y-119383809D01*
X120654761Y-119836190D02*
X120369047Y-119836190D01*
X120511904Y-119836190D02*
X120511904Y-119336190D01*
X120464285Y-119407619D01*
X120416666Y-119455238D01*
X120369047Y-119479047D01*
X121130952Y-119836190D02*
X120845238Y-119836190D01*
X120988095Y-119836190D02*
X120988095Y-119336190D01*
X120940476Y-119407619D01*
X120892857Y-119455238D01*
X120845238Y-119479047D01*
X121296071Y-90928571D02*
X121272261Y-90952380D01*
X121200833Y-90976190D01*
X121153214Y-90976190D01*
X121081785Y-90952380D01*
X121034166Y-90904761D01*
X121010357Y-90857142D01*
X120986547Y-90761904D01*
X120986547Y-90690476D01*
X121010357Y-90595238D01*
X121034166Y-90547619D01*
X121081785Y-90500000D01*
X121153214Y-90476190D01*
X121200833Y-90476190D01*
X121272261Y-90500000D01*
X121296071Y-90523809D01*
X121772261Y-90976190D02*
X121486547Y-90976190D01*
X121629404Y-90976190D02*
X121629404Y-90476190D01*
X121581785Y-90547619D01*
X121534166Y-90595238D01*
X121486547Y-90619047D01*
X122081785Y-90476190D02*
X122129404Y-90476190D01*
X122177023Y-90500000D01*
X122200833Y-90523809D01*
X122224642Y-90571428D01*
X122248452Y-90666666D01*
X122248452Y-90785714D01*
X122224642Y-90880952D01*
X122200833Y-90928571D01*
X122177023Y-90952380D01*
X122129404Y-90976190D01*
X122081785Y-90976190D01*
X122034166Y-90952380D01*
X122010357Y-90928571D01*
X121986547Y-90880952D01*
X121962738Y-90785714D01*
X121962738Y-90666666D01*
X121986547Y-90571428D01*
X122010357Y-90523809D01*
X122034166Y-90500000D01*
X122081785Y-90476190D01*
X114979166Y-92878571D02*
X114955357Y-92902380D01*
X114883928Y-92926190D01*
X114836309Y-92926190D01*
X114764880Y-92902380D01*
X114717261Y-92854761D01*
X114693452Y-92807142D01*
X114669642Y-92711904D01*
X114669642Y-92640476D01*
X114693452Y-92545238D01*
X114717261Y-92497619D01*
X114764880Y-92450000D01*
X114836309Y-92426190D01*
X114883928Y-92426190D01*
X114955357Y-92450000D01*
X114979166Y-92473809D01*
X115217261Y-92926190D02*
X115312500Y-92926190D01*
X115360119Y-92902380D01*
X115383928Y-92878571D01*
X115431547Y-92807142D01*
X115455357Y-92711904D01*
X115455357Y-92521428D01*
X115431547Y-92473809D01*
X115407738Y-92450000D01*
X115360119Y-92426190D01*
X115264880Y-92426190D01*
X115217261Y-92450000D01*
X115193452Y-92473809D01*
X115169642Y-92521428D01*
X115169642Y-92640476D01*
X115193452Y-92688095D01*
X115217261Y-92711904D01*
X115264880Y-92735714D01*
X115360119Y-92735714D01*
X115407738Y-92711904D01*
X115431547Y-92688095D01*
X115455357Y-92640476D01*
X129316666Y-96638571D02*
X129292857Y-96662380D01*
X129221428Y-96686190D01*
X129173809Y-96686190D01*
X129102380Y-96662380D01*
X129054761Y-96614761D01*
X129030952Y-96567142D01*
X129007142Y-96471904D01*
X129007142Y-96400476D01*
X129030952Y-96305238D01*
X129054761Y-96257619D01*
X129102380Y-96210000D01*
X129173809Y-96186190D01*
X129221428Y-96186190D01*
X129292857Y-96210000D01*
X129316666Y-96233809D01*
X129602380Y-96400476D02*
X129554761Y-96376666D01*
X129530952Y-96352857D01*
X129507142Y-96305238D01*
X129507142Y-96281428D01*
X129530952Y-96233809D01*
X129554761Y-96210000D01*
X129602380Y-96186190D01*
X129697619Y-96186190D01*
X129745238Y-96210000D01*
X129769047Y-96233809D01*
X129792857Y-96281428D01*
X129792857Y-96305238D01*
X129769047Y-96352857D01*
X129745238Y-96376666D01*
X129697619Y-96400476D01*
X129602380Y-96400476D01*
X129554761Y-96424285D01*
X129530952Y-96448095D01*
X129507142Y-96495714D01*
X129507142Y-96590952D01*
X129530952Y-96638571D01*
X129554761Y-96662380D01*
X129602380Y-96686190D01*
X129697619Y-96686190D01*
X129745238Y-96662380D01*
X129769047Y-96638571D01*
X129792857Y-96590952D01*
X129792857Y-96495714D01*
X129769047Y-96448095D01*
X129745238Y-96424285D01*
X129697619Y-96400476D01*
X129316666Y-109678571D02*
X129292857Y-109702380D01*
X129221428Y-109726190D01*
X129173809Y-109726190D01*
X129102380Y-109702380D01*
X129054761Y-109654761D01*
X129030952Y-109607142D01*
X129007142Y-109511904D01*
X129007142Y-109440476D01*
X129030952Y-109345238D01*
X129054761Y-109297619D01*
X129102380Y-109250000D01*
X129173809Y-109226190D01*
X129221428Y-109226190D01*
X129292857Y-109250000D01*
X129316666Y-109273809D01*
X129483333Y-109226190D02*
X129816666Y-109226190D01*
X129602380Y-109726190D01*
X129316666Y-104278571D02*
X129292857Y-104302380D01*
X129221428Y-104326190D01*
X129173809Y-104326190D01*
X129102380Y-104302380D01*
X129054761Y-104254761D01*
X129030952Y-104207142D01*
X129007142Y-104111904D01*
X129007142Y-104040476D01*
X129030952Y-103945238D01*
X129054761Y-103897619D01*
X129102380Y-103850000D01*
X129173809Y-103826190D01*
X129221428Y-103826190D01*
X129292857Y-103850000D01*
X129316666Y-103873809D01*
X129745238Y-103826190D02*
X129650000Y-103826190D01*
X129602380Y-103850000D01*
X129578571Y-103873809D01*
X129530952Y-103945238D01*
X129507142Y-104040476D01*
X129507142Y-104230952D01*
X129530952Y-104278571D01*
X129554761Y-104302380D01*
X129602380Y-104326190D01*
X129697619Y-104326190D01*
X129745238Y-104302380D01*
X129769047Y-104278571D01*
X129792857Y-104230952D01*
X129792857Y-104111904D01*
X129769047Y-104064285D01*
X129745238Y-104040476D01*
X129697619Y-104016666D01*
X129602380Y-104016666D01*
X129554761Y-104040476D01*
X129530952Y-104064285D01*
X129507142Y-104111904D01*
X129316666Y-107878571D02*
X129292857Y-107902380D01*
X129221428Y-107926190D01*
X129173809Y-107926190D01*
X129102380Y-107902380D01*
X129054761Y-107854761D01*
X129030952Y-107807142D01*
X129007142Y-107711904D01*
X129007142Y-107640476D01*
X129030952Y-107545238D01*
X129054761Y-107497619D01*
X129102380Y-107450000D01*
X129173809Y-107426190D01*
X129221428Y-107426190D01*
X129292857Y-107450000D01*
X129316666Y-107473809D01*
X129769047Y-107426190D02*
X129530952Y-107426190D01*
X129507142Y-107664285D01*
X129530952Y-107640476D01*
X129578571Y-107616666D01*
X129697619Y-107616666D01*
X129745238Y-107640476D01*
X129769047Y-107664285D01*
X129792857Y-107711904D01*
X129792857Y-107830952D01*
X129769047Y-107878571D01*
X129745238Y-107902380D01*
X129697619Y-107926190D01*
X129578571Y-107926190D01*
X129530952Y-107902380D01*
X129507142Y-107878571D01*
X129316666Y-111478571D02*
X129292857Y-111502380D01*
X129221428Y-111526190D01*
X129173809Y-111526190D01*
X129102380Y-111502380D01*
X129054761Y-111454761D01*
X129030952Y-111407142D01*
X129007142Y-111311904D01*
X129007142Y-111240476D01*
X129030952Y-111145238D01*
X129054761Y-111097619D01*
X129102380Y-111050000D01*
X129173809Y-111026190D01*
X129221428Y-111026190D01*
X129292857Y-111050000D01*
X129316666Y-111073809D01*
X129745238Y-111192857D02*
X129745238Y-111526190D01*
X129626190Y-111002380D02*
X129507142Y-111359523D01*
X129816666Y-111359523D01*
X116909166Y-121738571D02*
X116885357Y-121762380D01*
X116813928Y-121786190D01*
X116766309Y-121786190D01*
X116694880Y-121762380D01*
X116647261Y-121714761D01*
X116623452Y-121667142D01*
X116599642Y-121571904D01*
X116599642Y-121500476D01*
X116623452Y-121405238D01*
X116647261Y-121357619D01*
X116694880Y-121310000D01*
X116766309Y-121286190D01*
X116813928Y-121286190D01*
X116885357Y-121310000D01*
X116909166Y-121333809D01*
X117075833Y-121286190D02*
X117385357Y-121286190D01*
X117218690Y-121476666D01*
X117290119Y-121476666D01*
X117337738Y-121500476D01*
X117361547Y-121524285D01*
X117385357Y-121571904D01*
X117385357Y-121690952D01*
X117361547Y-121738571D01*
X117337738Y-121762380D01*
X117290119Y-121786190D01*
X117147261Y-121786190D01*
X117099642Y-121762380D01*
X117075833Y-121738571D01*
X129316666Y-106078571D02*
X129292857Y-106102380D01*
X129221428Y-106126190D01*
X129173809Y-106126190D01*
X129102380Y-106102380D01*
X129054761Y-106054761D01*
X129030952Y-106007142D01*
X129007142Y-105911904D01*
X129007142Y-105840476D01*
X129030952Y-105745238D01*
X129054761Y-105697619D01*
X129102380Y-105650000D01*
X129173809Y-105626190D01*
X129221428Y-105626190D01*
X129292857Y-105650000D01*
X129316666Y-105673809D01*
X129507142Y-105673809D02*
X129530952Y-105650000D01*
X129578571Y-105626190D01*
X129697619Y-105626190D01*
X129745238Y-105650000D01*
X129769047Y-105673809D01*
X129792857Y-105721428D01*
X129792857Y-105769047D01*
X129769047Y-105840476D01*
X129483333Y-106126190D01*
X129792857Y-106126190D01*
X116949166Y-123788571D02*
X116925357Y-123812380D01*
X116853928Y-123836190D01*
X116806309Y-123836190D01*
X116734880Y-123812380D01*
X116687261Y-123764761D01*
X116663452Y-123717142D01*
X116639642Y-123621904D01*
X116639642Y-123550476D01*
X116663452Y-123455238D01*
X116687261Y-123407619D01*
X116734880Y-123360000D01*
X116806309Y-123336190D01*
X116853928Y-123336190D01*
X116925357Y-123360000D01*
X116949166Y-123383809D01*
X117425357Y-123836190D02*
X117139642Y-123836190D01*
X117282500Y-123836190D02*
X117282500Y-123336190D01*
X117234880Y-123407619D01*
X117187261Y-123455238D01*
X117139642Y-123479047D01*
M02*
