G04 #@! TF.GenerationSoftware,KiCad,Pcbnew,(5.1.4)-1*
G04 #@! TF.CreationDate,2019-08-25T20:49:14+02:00*
G04 #@! TF.ProjectId,ToF_camera_VGA,546f465f-6361-46d6-9572-615f5647412e,rev?*
G04 #@! TF.SameCoordinates,Original*
G04 #@! TF.FileFunction,Copper,L2,Inr*
G04 #@! TF.FilePolarity,Positive*
%FSLAX46Y46*%
G04 Gerber Fmt 4.6, Leading zero omitted, Abs format (unit mm)*
G04 Created by KiCad (PCBNEW (5.1.4)-1) date 2019-08-25 20:49:14*
%MOMM*%
%LPD*%
G04 APERTURE LIST*
%ADD10R,1.700000X1.700000*%
%ADD11O,1.700000X1.700000*%
%ADD12C,0.800000*%
%ADD13C,0.350000*%
%ADD14C,0.250000*%
%ADD15C,0.254000*%
G04 APERTURE END LIST*
D10*
X123460000Y-86000000D03*
D11*
X126000000Y-86000000D03*
X128540000Y-86000000D03*
X131080000Y-86000000D03*
D10*
X131080000Y-88900000D03*
D11*
X131080000Y-91440000D03*
X131080000Y-93980000D03*
X131080000Y-96520000D03*
D10*
X98600000Y-123800000D03*
X99310000Y-86450000D03*
D11*
X99310000Y-88990000D03*
X99310000Y-91530000D03*
X99310000Y-94070000D03*
D10*
X130400000Y-123800000D03*
D12*
X107800000Y-87400000D03*
X105800000Y-89000000D03*
X127850000Y-121520000D03*
X128950000Y-121040000D03*
X130400000Y-115400000D03*
X130400000Y-113600000D03*
X130400000Y-111800000D03*
X130400000Y-110000000D03*
X130400000Y-108200000D03*
X130000000Y-106400000D03*
D13*
X130310000Y-101640000D03*
X130310000Y-102220000D03*
D12*
X123230000Y-112250000D03*
X132600000Y-104600000D03*
D13*
X121660000Y-112430000D03*
X120660000Y-113430000D03*
X118660000Y-113430000D03*
D12*
X110240000Y-118280000D03*
D13*
X121660000Y-109430000D03*
D12*
X125190000Y-108200000D03*
D13*
X121660000Y-113430000D03*
D12*
X125140000Y-113600000D03*
X123170000Y-109930000D03*
X125410000Y-109940000D03*
D13*
X121660000Y-108430000D03*
D12*
X125100000Y-106400000D03*
D13*
X121660000Y-111430000D03*
D12*
X125330000Y-111800000D03*
D13*
X112660000Y-114430000D03*
D12*
X117150000Y-116510000D03*
X132000000Y-106980000D03*
X124950000Y-103710000D03*
D13*
X105790000Y-110250000D03*
X105810000Y-112020000D03*
X105120000Y-107370000D03*
X103490000Y-107250000D03*
X106160000Y-104470000D03*
D12*
X107080000Y-122290000D03*
X110430000Y-122210000D03*
X115730000Y-122700000D03*
X99990000Y-103210000D03*
X103710000Y-105370000D03*
X124600000Y-95980000D03*
D13*
X111660000Y-113430000D03*
X113660000Y-111430000D03*
X114660000Y-111430000D03*
X114660000Y-112430000D03*
X115660000Y-112430000D03*
X116660000Y-112430000D03*
X117660000Y-112430000D03*
X118660000Y-112430000D03*
X119660000Y-112430000D03*
X119660000Y-114430000D03*
X118660000Y-114430000D03*
X120660000Y-114430000D03*
X121980000Y-114930000D03*
X119930000Y-115700000D03*
X120680000Y-115700000D03*
X119660000Y-111430000D03*
X118660000Y-111430000D03*
X117660000Y-111430000D03*
X116660000Y-111430000D03*
X115660000Y-111430000D03*
X115660000Y-110430000D03*
X114660000Y-110430000D03*
X113660000Y-110430000D03*
X113660000Y-109430000D03*
X114660000Y-109430000D03*
X115660000Y-109430000D03*
X116660000Y-109430000D03*
X119660000Y-110430000D03*
X118660000Y-110430000D03*
X117660000Y-110430000D03*
X116660000Y-110430000D03*
X119660000Y-109430000D03*
X118660000Y-109430000D03*
X119660000Y-108430000D03*
X118660000Y-108430000D03*
X117660000Y-109430000D03*
X117660000Y-108430000D03*
X119660000Y-106430000D03*
X118660000Y-106430000D03*
X119660000Y-107430000D03*
X118660000Y-107430000D03*
X117660000Y-106430000D03*
X117660000Y-107430000D03*
X116660000Y-106430000D03*
X116660000Y-107430000D03*
X115660000Y-106430000D03*
X115660000Y-107430000D03*
X116660000Y-108430000D03*
X115660000Y-108430000D03*
X114660000Y-108430000D03*
X113660000Y-108430000D03*
X113660000Y-107430000D03*
X114660000Y-107430000D03*
X114660000Y-106430000D03*
D12*
X108890000Y-118810000D03*
X123100000Y-114870000D03*
X124260000Y-116790000D03*
D13*
X116660000Y-114430000D03*
D12*
X118770000Y-116540000D03*
X125780000Y-99930000D03*
D13*
X121660000Y-106430000D03*
D12*
X128240000Y-104530000D03*
X133170000Y-105560000D03*
X111849998Y-94390000D03*
X115703077Y-91855414D03*
X123320000Y-93300000D03*
X118860000Y-91849998D03*
D13*
X114660000Y-104430000D03*
X115660000Y-104430000D03*
X116660000Y-104430000D03*
X117660000Y-104430000D03*
X118660000Y-104430000D03*
X119660000Y-104430000D03*
X120660000Y-104430000D03*
D12*
X114300000Y-98000000D03*
X115300000Y-98000000D03*
X116200000Y-98000000D03*
X117200000Y-98000000D03*
X118100000Y-98000000D03*
X118700000Y-98800000D03*
X116400000Y-94900000D03*
X118300000Y-94900000D03*
X115400000Y-94900000D03*
X119200000Y-94900000D03*
X117300000Y-94900000D03*
X120200000Y-94900000D03*
D13*
X112660000Y-113430000D03*
D12*
X109790000Y-113420000D03*
D13*
X111660000Y-111430000D03*
X109460000Y-111480000D03*
X110360000Y-110930000D03*
X109460000Y-110880000D03*
X110660000Y-106430000D03*
X109832133Y-105497867D03*
X111660000Y-107430000D03*
X109407867Y-105922133D03*
X111660000Y-110430000D03*
X103075002Y-107700000D03*
X110650000Y-110440000D03*
X103075002Y-108300000D03*
X110390000Y-107930000D03*
X109502133Y-107497867D03*
X111670000Y-108430000D03*
X109077867Y-107922133D03*
X111660000Y-109430000D03*
X103190000Y-106200000D03*
X110630000Y-109460000D03*
X103190000Y-106800000D03*
D12*
X98310000Y-103320000D03*
X98320000Y-99930000D03*
D13*
X111660000Y-104430000D03*
D12*
X100940000Y-92800000D03*
D13*
X113660000Y-104430000D03*
X112660000Y-104430000D03*
X112660000Y-105430000D03*
D12*
X115160000Y-116080000D03*
X104610000Y-117510000D03*
D13*
X114660000Y-114430000D03*
D12*
X104630000Y-116410000D03*
D14*
X130400000Y-115400000D02*
X132000000Y-115400000D01*
X132000000Y-115400000D02*
X132600000Y-114800000D01*
X132600000Y-114800000D02*
X132600000Y-114200000D01*
X132600000Y-114200000D02*
X132000000Y-113600000D01*
X132000000Y-113600000D02*
X130400000Y-113600000D01*
X130400000Y-111800000D02*
X132000000Y-111800000D01*
X132000000Y-111800000D02*
X132800000Y-111000000D01*
X132800000Y-111000000D02*
X131400000Y-109600000D01*
X131400000Y-109600000D02*
X131000000Y-110000000D01*
X131000000Y-110000000D02*
X130400000Y-110000000D01*
X133600000Y-104400000D02*
X130840000Y-101640000D01*
X130840000Y-101640000D02*
X130310000Y-101640000D01*
X132490000Y-104400000D02*
X130310000Y-102220000D01*
X133600000Y-104400000D02*
X132490000Y-104400000D01*
X123050000Y-112430000D02*
X123230000Y-112250000D01*
X121660000Y-112430000D02*
X123050000Y-112430000D01*
X120660000Y-113430000D02*
X121660000Y-112430000D01*
X118660000Y-113430000D02*
X120660000Y-113430000D01*
X110240000Y-118845685D02*
X110954315Y-119560000D01*
X110240000Y-118280000D02*
X110240000Y-118845685D01*
X126240000Y-119560000D02*
X130400000Y-115400000D01*
X110954315Y-119560000D02*
X126240000Y-119560000D01*
X130000001Y-107800001D02*
X130400000Y-108200000D01*
X130000000Y-106400000D02*
X130000001Y-107800001D01*
X112660000Y-114677487D02*
X114892512Y-116909999D01*
X114892512Y-116909999D02*
X116750001Y-116909999D01*
X112660000Y-114430000D02*
X112660000Y-114677487D01*
X116750001Y-116909999D02*
X117150000Y-116510000D01*
X100410000Y-86450000D02*
X99310000Y-86450000D01*
X100940000Y-86980000D02*
X100410000Y-86450000D01*
X100940000Y-92800000D02*
X100940000Y-86980000D01*
D15*
G36*
X124976063Y-100589774D02*
G01*
X125120226Y-100733937D01*
X125289744Y-100847205D01*
X125478102Y-100925226D01*
X125678061Y-100965000D01*
X125881939Y-100965000D01*
X126081898Y-100925226D01*
X126270256Y-100847205D01*
X126439774Y-100733937D01*
X126583937Y-100589774D01*
X126625881Y-100527000D01*
X138290001Y-100527000D01*
X138290000Y-115873000D01*
X124750563Y-115873000D01*
X124750256Y-115872795D01*
X124561898Y-115794774D01*
X124361939Y-115755000D01*
X124158061Y-115755000D01*
X123958102Y-115794774D01*
X123769744Y-115872795D01*
X123769437Y-115873000D01*
X123362815Y-115873000D01*
X123401898Y-115865226D01*
X123590256Y-115787205D01*
X123759774Y-115673937D01*
X123903937Y-115529774D01*
X124017205Y-115360256D01*
X124095226Y-115171898D01*
X124135000Y-114971939D01*
X124135000Y-114768061D01*
X124095226Y-114568102D01*
X124017205Y-114379744D01*
X123903937Y-114210226D01*
X123759774Y-114066063D01*
X123590256Y-113952795D01*
X123401898Y-113874774D01*
X123201939Y-113835000D01*
X122998061Y-113835000D01*
X122798102Y-113874774D01*
X122609744Y-113952795D01*
X122440226Y-114066063D01*
X122314480Y-114191809D01*
X122216268Y-114151128D01*
X122079447Y-114123913D01*
X122176345Y-114059168D01*
X122289168Y-113946345D01*
X122377812Y-113813679D01*
X122438872Y-113666268D01*
X122470000Y-113509778D01*
X122470000Y-113350222D01*
X122438872Y-113193732D01*
X122377812Y-113046321D01*
X122289168Y-112913655D01*
X122176345Y-112800832D01*
X122043679Y-112712188D01*
X121896268Y-112651128D01*
X121739778Y-112620000D01*
X121580222Y-112620000D01*
X121423732Y-112651128D01*
X121276321Y-112712188D01*
X121143655Y-112800832D01*
X121030832Y-112913655D01*
X120942188Y-113046321D01*
X120881128Y-113193732D01*
X120850000Y-113350222D01*
X120850000Y-113509778D01*
X120877369Y-113647369D01*
X120739778Y-113620000D01*
X120580222Y-113620000D01*
X120423732Y-113651128D01*
X120276321Y-113712188D01*
X120160000Y-113789911D01*
X120043679Y-113712188D01*
X119896268Y-113651128D01*
X119739778Y-113620000D01*
X119580222Y-113620000D01*
X119423732Y-113651128D01*
X119276321Y-113712188D01*
X119160000Y-113789911D01*
X119043679Y-113712188D01*
X118896268Y-113651128D01*
X118739778Y-113620000D01*
X118580222Y-113620000D01*
X118423732Y-113651128D01*
X118276321Y-113712188D01*
X118143655Y-113800832D01*
X118030832Y-113913655D01*
X117942188Y-114046321D01*
X117881128Y-114193732D01*
X117850000Y-114350222D01*
X117850000Y-114509778D01*
X117881128Y-114666268D01*
X117942188Y-114813679D01*
X118030832Y-114946345D01*
X118143655Y-115059168D01*
X118276321Y-115147812D01*
X118423732Y-115208872D01*
X118580222Y-115240000D01*
X118739778Y-115240000D01*
X118896268Y-115208872D01*
X119043679Y-115147812D01*
X119160000Y-115070089D01*
X119276321Y-115147812D01*
X119318998Y-115165489D01*
X119300832Y-115183655D01*
X119212188Y-115316321D01*
X119151128Y-115463732D01*
X119130204Y-115568925D01*
X119071898Y-115544774D01*
X118871939Y-115505000D01*
X118668061Y-115505000D01*
X118468102Y-115544774D01*
X118279744Y-115622795D01*
X118110226Y-115736063D01*
X117973289Y-115873000D01*
X117969154Y-115873000D01*
X117953937Y-115850226D01*
X117809774Y-115706063D01*
X117640256Y-115592795D01*
X117451898Y-115514774D01*
X117251939Y-115475000D01*
X117125312Y-115475000D01*
X117124087Y-115094085D01*
X117176345Y-115059168D01*
X117289168Y-114946345D01*
X117377812Y-114813679D01*
X117438872Y-114666268D01*
X117470000Y-114509778D01*
X117470000Y-114350222D01*
X117438872Y-114193732D01*
X117377812Y-114046321D01*
X117289168Y-113913655D01*
X117176345Y-113800832D01*
X117119808Y-113763055D01*
X117117670Y-113098373D01*
X117160000Y-113070089D01*
X117276321Y-113147812D01*
X117423732Y-113208872D01*
X117580222Y-113240000D01*
X117739778Y-113240000D01*
X117896268Y-113208872D01*
X118043679Y-113147812D01*
X118160000Y-113070089D01*
X118276321Y-113147812D01*
X118423732Y-113208872D01*
X118580222Y-113240000D01*
X118739778Y-113240000D01*
X118896268Y-113208872D01*
X119043679Y-113147812D01*
X119160000Y-113070089D01*
X119276321Y-113147812D01*
X119423732Y-113208872D01*
X119580222Y-113240000D01*
X119739778Y-113240000D01*
X119896268Y-113208872D01*
X120043679Y-113147812D01*
X120176345Y-113059168D01*
X120289168Y-112946345D01*
X120377812Y-112813679D01*
X120438872Y-112666268D01*
X120470000Y-112509778D01*
X120470000Y-112350222D01*
X120438872Y-112193732D01*
X120377812Y-112046321D01*
X120300089Y-111930000D01*
X120377812Y-111813679D01*
X120438872Y-111666268D01*
X120470000Y-111509778D01*
X120470000Y-111350222D01*
X120850000Y-111350222D01*
X120850000Y-111509778D01*
X120881128Y-111666268D01*
X120942188Y-111813679D01*
X121030832Y-111946345D01*
X121143655Y-112059168D01*
X121276321Y-112147812D01*
X121423732Y-112208872D01*
X121580222Y-112240000D01*
X121739778Y-112240000D01*
X121896268Y-112208872D01*
X122043679Y-112147812D01*
X122176345Y-112059168D01*
X122289168Y-111946345D01*
X122377812Y-111813679D01*
X122438872Y-111666268D01*
X122470000Y-111509778D01*
X122470000Y-111350222D01*
X122438872Y-111193732D01*
X122377812Y-111046321D01*
X122289168Y-110913655D01*
X122176345Y-110800832D01*
X122043679Y-110712188D01*
X121896268Y-110651128D01*
X121739778Y-110620000D01*
X121580222Y-110620000D01*
X121423732Y-110651128D01*
X121276321Y-110712188D01*
X121143655Y-110800832D01*
X121030832Y-110913655D01*
X120942188Y-111046321D01*
X120881128Y-111193732D01*
X120850000Y-111350222D01*
X120470000Y-111350222D01*
X120438872Y-111193732D01*
X120377812Y-111046321D01*
X120300089Y-110930000D01*
X120377812Y-110813679D01*
X120438872Y-110666268D01*
X120470000Y-110509778D01*
X120470000Y-110412821D01*
X121062678Y-109978191D01*
X121143655Y-110059168D01*
X121276321Y-110147812D01*
X121423732Y-110208872D01*
X121580222Y-110240000D01*
X121739778Y-110240000D01*
X121896268Y-110208872D01*
X122043679Y-110147812D01*
X122144631Y-110080358D01*
X122174774Y-110231898D01*
X122252795Y-110420256D01*
X122366063Y-110589774D01*
X122510226Y-110733937D01*
X122679744Y-110847205D01*
X122868102Y-110925226D01*
X123068061Y-110965000D01*
X123271939Y-110965000D01*
X123471898Y-110925226D01*
X123660256Y-110847205D01*
X123829774Y-110733937D01*
X123973937Y-110589774D01*
X124087205Y-110420256D01*
X124165226Y-110231898D01*
X124205000Y-110031939D01*
X124205000Y-109828061D01*
X124165226Y-109628102D01*
X124087205Y-109439744D01*
X123973937Y-109270226D01*
X123829774Y-109126063D01*
X123660256Y-109012795D01*
X123471898Y-108934774D01*
X123271939Y-108895000D01*
X123068061Y-108895000D01*
X122868102Y-108934774D01*
X122679744Y-109012795D01*
X122510226Y-109126063D01*
X122439483Y-109196806D01*
X122438872Y-109193732D01*
X122377812Y-109046321D01*
X122363210Y-109024468D01*
X123075103Y-108502413D01*
X123093640Y-108485794D01*
X123108578Y-108465877D01*
X123119344Y-108443429D01*
X123125523Y-108419311D01*
X123127000Y-108400000D01*
X123127000Y-106298061D01*
X124065000Y-106298061D01*
X124065000Y-106501939D01*
X124104774Y-106701898D01*
X124182795Y-106890256D01*
X124296063Y-107059774D01*
X124440226Y-107203937D01*
X124609744Y-107317205D01*
X124633512Y-107327050D01*
X124530226Y-107396063D01*
X124386063Y-107540226D01*
X124272795Y-107709744D01*
X124194774Y-107898102D01*
X124155000Y-108098061D01*
X124155000Y-108301939D01*
X124194774Y-108501898D01*
X124272795Y-108690256D01*
X124386063Y-108859774D01*
X124530226Y-109003937D01*
X124699744Y-109117205D01*
X124748775Y-109137514D01*
X124606063Y-109280226D01*
X124492795Y-109449744D01*
X124414774Y-109638102D01*
X124375000Y-109838061D01*
X124375000Y-110041939D01*
X124414774Y-110241898D01*
X124492795Y-110430256D01*
X124606063Y-110599774D01*
X124750226Y-110743937D01*
X124912771Y-110852546D01*
X124839744Y-110882795D01*
X124670226Y-110996063D01*
X124526063Y-111140226D01*
X124412795Y-111309744D01*
X124334774Y-111498102D01*
X124295000Y-111698061D01*
X124295000Y-111901939D01*
X124334774Y-112101898D01*
X124412795Y-112290256D01*
X124526063Y-112459774D01*
X124670226Y-112603937D01*
X124735243Y-112647380D01*
X124649744Y-112682795D01*
X124480226Y-112796063D01*
X124336063Y-112940226D01*
X124222795Y-113109744D01*
X124144774Y-113298102D01*
X124105000Y-113498061D01*
X124105000Y-113701939D01*
X124144774Y-113901898D01*
X124222795Y-114090256D01*
X124336063Y-114259774D01*
X124480226Y-114403937D01*
X124649744Y-114517205D01*
X124838102Y-114595226D01*
X125038061Y-114635000D01*
X125241939Y-114635000D01*
X125441898Y-114595226D01*
X125630256Y-114517205D01*
X125799774Y-114403937D01*
X125943937Y-114259774D01*
X126057205Y-114090256D01*
X126135226Y-113901898D01*
X126175000Y-113701939D01*
X126175000Y-113498061D01*
X126135226Y-113298102D01*
X126057205Y-113109744D01*
X125943937Y-112940226D01*
X125799774Y-112796063D01*
X125734757Y-112752620D01*
X125820256Y-112717205D01*
X125989774Y-112603937D01*
X126133937Y-112459774D01*
X126247205Y-112290256D01*
X126325226Y-112101898D01*
X126365000Y-111901939D01*
X126365000Y-111698061D01*
X126325226Y-111498102D01*
X126247205Y-111309744D01*
X126133937Y-111140226D01*
X125989774Y-110996063D01*
X125827229Y-110887454D01*
X125900256Y-110857205D01*
X126069774Y-110743937D01*
X126213937Y-110599774D01*
X126327205Y-110430256D01*
X126405226Y-110241898D01*
X126445000Y-110041939D01*
X126445000Y-109838061D01*
X126405226Y-109638102D01*
X126327205Y-109449744D01*
X126213937Y-109280226D01*
X126069774Y-109136063D01*
X125900256Y-109022795D01*
X125851225Y-109002486D01*
X125993937Y-108859774D01*
X126107205Y-108690256D01*
X126185226Y-108501898D01*
X126225000Y-108301939D01*
X126225000Y-108098061D01*
X126185226Y-107898102D01*
X126107205Y-107709744D01*
X125993937Y-107540226D01*
X125849774Y-107396063D01*
X125680256Y-107282795D01*
X125656488Y-107272950D01*
X125759774Y-107203937D01*
X125903937Y-107059774D01*
X126017205Y-106890256D01*
X126022256Y-106878061D01*
X130965000Y-106878061D01*
X130965000Y-107081939D01*
X131004774Y-107281898D01*
X131082795Y-107470256D01*
X131196063Y-107639774D01*
X131340226Y-107783937D01*
X131509744Y-107897205D01*
X131698102Y-107975226D01*
X131898061Y-108015000D01*
X132101939Y-108015000D01*
X132301898Y-107975226D01*
X132490256Y-107897205D01*
X132659774Y-107783937D01*
X132803937Y-107639774D01*
X132917205Y-107470256D01*
X132995226Y-107281898D01*
X133035000Y-107081939D01*
X133035000Y-106878061D01*
X132995226Y-106678102D01*
X132951173Y-106571750D01*
X133068061Y-106595000D01*
X133271939Y-106595000D01*
X133471898Y-106555226D01*
X133660256Y-106477205D01*
X133829774Y-106363937D01*
X133973937Y-106219774D01*
X134087205Y-106050256D01*
X134165226Y-105861898D01*
X134205000Y-105661939D01*
X134205000Y-105458061D01*
X134165226Y-105258102D01*
X134087205Y-105069744D01*
X133973937Y-104900226D01*
X133829774Y-104756063D01*
X133660256Y-104642795D01*
X133471898Y-104564774D01*
X133271939Y-104525000D01*
X133068061Y-104525000D01*
X132868102Y-104564774D01*
X132679744Y-104642795D01*
X132510226Y-104756063D01*
X132366063Y-104900226D01*
X132252795Y-105069744D01*
X132174774Y-105258102D01*
X132135000Y-105458061D01*
X132135000Y-105661939D01*
X132174774Y-105861898D01*
X132218827Y-105968250D01*
X132101939Y-105945000D01*
X131898061Y-105945000D01*
X131698102Y-105984774D01*
X131509744Y-106062795D01*
X131340226Y-106176063D01*
X131196063Y-106320226D01*
X131082795Y-106489744D01*
X131004774Y-106678102D01*
X130965000Y-106878061D01*
X126022256Y-106878061D01*
X126095226Y-106701898D01*
X126135000Y-106501939D01*
X126135000Y-106298061D01*
X126095226Y-106098102D01*
X126017205Y-105909744D01*
X125903937Y-105740226D01*
X125759774Y-105596063D01*
X125590256Y-105482795D01*
X125401898Y-105404774D01*
X125201939Y-105365000D01*
X124998061Y-105365000D01*
X124798102Y-105404774D01*
X124609744Y-105482795D01*
X124440226Y-105596063D01*
X124296063Y-105740226D01*
X124182795Y-105909744D01*
X124104774Y-106098102D01*
X124065000Y-106298061D01*
X123127000Y-106298061D01*
X123127000Y-103608061D01*
X123915000Y-103608061D01*
X123915000Y-103811939D01*
X123954774Y-104011898D01*
X124032795Y-104200256D01*
X124146063Y-104369774D01*
X124290226Y-104513937D01*
X124459744Y-104627205D01*
X124648102Y-104705226D01*
X124848061Y-104745000D01*
X125051939Y-104745000D01*
X125251898Y-104705226D01*
X125440256Y-104627205D01*
X125609774Y-104513937D01*
X125695650Y-104428061D01*
X127205000Y-104428061D01*
X127205000Y-104631939D01*
X127244774Y-104831898D01*
X127322795Y-105020256D01*
X127436063Y-105189774D01*
X127580226Y-105333937D01*
X127749744Y-105447205D01*
X127938102Y-105525226D01*
X128138061Y-105565000D01*
X128341939Y-105565000D01*
X128541898Y-105525226D01*
X128730256Y-105447205D01*
X128899774Y-105333937D01*
X129043937Y-105189774D01*
X129157205Y-105020256D01*
X129235226Y-104831898D01*
X129275000Y-104631939D01*
X129275000Y-104428061D01*
X129235226Y-104228102D01*
X129157205Y-104039744D01*
X129043937Y-103870226D01*
X128899774Y-103726063D01*
X128730256Y-103612795D01*
X128541898Y-103534774D01*
X128341939Y-103495000D01*
X128138061Y-103495000D01*
X127938102Y-103534774D01*
X127749744Y-103612795D01*
X127580226Y-103726063D01*
X127436063Y-103870226D01*
X127322795Y-104039744D01*
X127244774Y-104228102D01*
X127205000Y-104428061D01*
X125695650Y-104428061D01*
X125753937Y-104369774D01*
X125867205Y-104200256D01*
X125945226Y-104011898D01*
X125985000Y-103811939D01*
X125985000Y-103608061D01*
X125945226Y-103408102D01*
X125867205Y-103219744D01*
X125753937Y-103050226D01*
X125609774Y-102906063D01*
X125440256Y-102792795D01*
X125251898Y-102714774D01*
X125051939Y-102675000D01*
X124848061Y-102675000D01*
X124648102Y-102714774D01*
X124459744Y-102792795D01*
X124290226Y-102906063D01*
X124146063Y-103050226D01*
X124032795Y-103219744D01*
X123954774Y-103408102D01*
X123915000Y-103608061D01*
X123127000Y-103608061D01*
X123127000Y-100527000D01*
X124934119Y-100527000D01*
X124976063Y-100589774D01*
X124976063Y-100589774D01*
G37*
X124976063Y-100589774D02*
X125120226Y-100733937D01*
X125289744Y-100847205D01*
X125478102Y-100925226D01*
X125678061Y-100965000D01*
X125881939Y-100965000D01*
X126081898Y-100925226D01*
X126270256Y-100847205D01*
X126439774Y-100733937D01*
X126583937Y-100589774D01*
X126625881Y-100527000D01*
X138290001Y-100527000D01*
X138290000Y-115873000D01*
X124750563Y-115873000D01*
X124750256Y-115872795D01*
X124561898Y-115794774D01*
X124361939Y-115755000D01*
X124158061Y-115755000D01*
X123958102Y-115794774D01*
X123769744Y-115872795D01*
X123769437Y-115873000D01*
X123362815Y-115873000D01*
X123401898Y-115865226D01*
X123590256Y-115787205D01*
X123759774Y-115673937D01*
X123903937Y-115529774D01*
X124017205Y-115360256D01*
X124095226Y-115171898D01*
X124135000Y-114971939D01*
X124135000Y-114768061D01*
X124095226Y-114568102D01*
X124017205Y-114379744D01*
X123903937Y-114210226D01*
X123759774Y-114066063D01*
X123590256Y-113952795D01*
X123401898Y-113874774D01*
X123201939Y-113835000D01*
X122998061Y-113835000D01*
X122798102Y-113874774D01*
X122609744Y-113952795D01*
X122440226Y-114066063D01*
X122314480Y-114191809D01*
X122216268Y-114151128D01*
X122079447Y-114123913D01*
X122176345Y-114059168D01*
X122289168Y-113946345D01*
X122377812Y-113813679D01*
X122438872Y-113666268D01*
X122470000Y-113509778D01*
X122470000Y-113350222D01*
X122438872Y-113193732D01*
X122377812Y-113046321D01*
X122289168Y-112913655D01*
X122176345Y-112800832D01*
X122043679Y-112712188D01*
X121896268Y-112651128D01*
X121739778Y-112620000D01*
X121580222Y-112620000D01*
X121423732Y-112651128D01*
X121276321Y-112712188D01*
X121143655Y-112800832D01*
X121030832Y-112913655D01*
X120942188Y-113046321D01*
X120881128Y-113193732D01*
X120850000Y-113350222D01*
X120850000Y-113509778D01*
X120877369Y-113647369D01*
X120739778Y-113620000D01*
X120580222Y-113620000D01*
X120423732Y-113651128D01*
X120276321Y-113712188D01*
X120160000Y-113789911D01*
X120043679Y-113712188D01*
X119896268Y-113651128D01*
X119739778Y-113620000D01*
X119580222Y-113620000D01*
X119423732Y-113651128D01*
X119276321Y-113712188D01*
X119160000Y-113789911D01*
X119043679Y-113712188D01*
X118896268Y-113651128D01*
X118739778Y-113620000D01*
X118580222Y-113620000D01*
X118423732Y-113651128D01*
X118276321Y-113712188D01*
X118143655Y-113800832D01*
X118030832Y-113913655D01*
X117942188Y-114046321D01*
X117881128Y-114193732D01*
X117850000Y-114350222D01*
X117850000Y-114509778D01*
X117881128Y-114666268D01*
X117942188Y-114813679D01*
X118030832Y-114946345D01*
X118143655Y-115059168D01*
X118276321Y-115147812D01*
X118423732Y-115208872D01*
X118580222Y-115240000D01*
X118739778Y-115240000D01*
X118896268Y-115208872D01*
X119043679Y-115147812D01*
X119160000Y-115070089D01*
X119276321Y-115147812D01*
X119318998Y-115165489D01*
X119300832Y-115183655D01*
X119212188Y-115316321D01*
X119151128Y-115463732D01*
X119130204Y-115568925D01*
X119071898Y-115544774D01*
X118871939Y-115505000D01*
X118668061Y-115505000D01*
X118468102Y-115544774D01*
X118279744Y-115622795D01*
X118110226Y-115736063D01*
X117973289Y-115873000D01*
X117969154Y-115873000D01*
X117953937Y-115850226D01*
X117809774Y-115706063D01*
X117640256Y-115592795D01*
X117451898Y-115514774D01*
X117251939Y-115475000D01*
X117125312Y-115475000D01*
X117124087Y-115094085D01*
X117176345Y-115059168D01*
X117289168Y-114946345D01*
X117377812Y-114813679D01*
X117438872Y-114666268D01*
X117470000Y-114509778D01*
X117470000Y-114350222D01*
X117438872Y-114193732D01*
X117377812Y-114046321D01*
X117289168Y-113913655D01*
X117176345Y-113800832D01*
X117119808Y-113763055D01*
X117117670Y-113098373D01*
X117160000Y-113070089D01*
X117276321Y-113147812D01*
X117423732Y-113208872D01*
X117580222Y-113240000D01*
X117739778Y-113240000D01*
X117896268Y-113208872D01*
X118043679Y-113147812D01*
X118160000Y-113070089D01*
X118276321Y-113147812D01*
X118423732Y-113208872D01*
X118580222Y-113240000D01*
X118739778Y-113240000D01*
X118896268Y-113208872D01*
X119043679Y-113147812D01*
X119160000Y-113070089D01*
X119276321Y-113147812D01*
X119423732Y-113208872D01*
X119580222Y-113240000D01*
X119739778Y-113240000D01*
X119896268Y-113208872D01*
X120043679Y-113147812D01*
X120176345Y-113059168D01*
X120289168Y-112946345D01*
X120377812Y-112813679D01*
X120438872Y-112666268D01*
X120470000Y-112509778D01*
X120470000Y-112350222D01*
X120438872Y-112193732D01*
X120377812Y-112046321D01*
X120300089Y-111930000D01*
X120377812Y-111813679D01*
X120438872Y-111666268D01*
X120470000Y-111509778D01*
X120470000Y-111350222D01*
X120850000Y-111350222D01*
X120850000Y-111509778D01*
X120881128Y-111666268D01*
X120942188Y-111813679D01*
X121030832Y-111946345D01*
X121143655Y-112059168D01*
X121276321Y-112147812D01*
X121423732Y-112208872D01*
X121580222Y-112240000D01*
X121739778Y-112240000D01*
X121896268Y-112208872D01*
X122043679Y-112147812D01*
X122176345Y-112059168D01*
X122289168Y-111946345D01*
X122377812Y-111813679D01*
X122438872Y-111666268D01*
X122470000Y-111509778D01*
X122470000Y-111350222D01*
X122438872Y-111193732D01*
X122377812Y-111046321D01*
X122289168Y-110913655D01*
X122176345Y-110800832D01*
X122043679Y-110712188D01*
X121896268Y-110651128D01*
X121739778Y-110620000D01*
X121580222Y-110620000D01*
X121423732Y-110651128D01*
X121276321Y-110712188D01*
X121143655Y-110800832D01*
X121030832Y-110913655D01*
X120942188Y-111046321D01*
X120881128Y-111193732D01*
X120850000Y-111350222D01*
X120470000Y-111350222D01*
X120438872Y-111193732D01*
X120377812Y-111046321D01*
X120300089Y-110930000D01*
X120377812Y-110813679D01*
X120438872Y-110666268D01*
X120470000Y-110509778D01*
X120470000Y-110412821D01*
X121062678Y-109978191D01*
X121143655Y-110059168D01*
X121276321Y-110147812D01*
X121423732Y-110208872D01*
X121580222Y-110240000D01*
X121739778Y-110240000D01*
X121896268Y-110208872D01*
X122043679Y-110147812D01*
X122144631Y-110080358D01*
X122174774Y-110231898D01*
X122252795Y-110420256D01*
X122366063Y-110589774D01*
X122510226Y-110733937D01*
X122679744Y-110847205D01*
X122868102Y-110925226D01*
X123068061Y-110965000D01*
X123271939Y-110965000D01*
X123471898Y-110925226D01*
X123660256Y-110847205D01*
X123829774Y-110733937D01*
X123973937Y-110589774D01*
X124087205Y-110420256D01*
X124165226Y-110231898D01*
X124205000Y-110031939D01*
X124205000Y-109828061D01*
X124165226Y-109628102D01*
X124087205Y-109439744D01*
X123973937Y-109270226D01*
X123829774Y-109126063D01*
X123660256Y-109012795D01*
X123471898Y-108934774D01*
X123271939Y-108895000D01*
X123068061Y-108895000D01*
X122868102Y-108934774D01*
X122679744Y-109012795D01*
X122510226Y-109126063D01*
X122439483Y-109196806D01*
X122438872Y-109193732D01*
X122377812Y-109046321D01*
X122363210Y-109024468D01*
X123075103Y-108502413D01*
X123093640Y-108485794D01*
X123108578Y-108465877D01*
X123119344Y-108443429D01*
X123125523Y-108419311D01*
X123127000Y-108400000D01*
X123127000Y-106298061D01*
X124065000Y-106298061D01*
X124065000Y-106501939D01*
X124104774Y-106701898D01*
X124182795Y-106890256D01*
X124296063Y-107059774D01*
X124440226Y-107203937D01*
X124609744Y-107317205D01*
X124633512Y-107327050D01*
X124530226Y-107396063D01*
X124386063Y-107540226D01*
X124272795Y-107709744D01*
X124194774Y-107898102D01*
X124155000Y-108098061D01*
X124155000Y-108301939D01*
X124194774Y-108501898D01*
X124272795Y-108690256D01*
X124386063Y-108859774D01*
X124530226Y-109003937D01*
X124699744Y-109117205D01*
X124748775Y-109137514D01*
X124606063Y-109280226D01*
X124492795Y-109449744D01*
X124414774Y-109638102D01*
X124375000Y-109838061D01*
X124375000Y-110041939D01*
X124414774Y-110241898D01*
X124492795Y-110430256D01*
X124606063Y-110599774D01*
X124750226Y-110743937D01*
X124912771Y-110852546D01*
X124839744Y-110882795D01*
X124670226Y-110996063D01*
X124526063Y-111140226D01*
X124412795Y-111309744D01*
X124334774Y-111498102D01*
X124295000Y-111698061D01*
X124295000Y-111901939D01*
X124334774Y-112101898D01*
X124412795Y-112290256D01*
X124526063Y-112459774D01*
X124670226Y-112603937D01*
X124735243Y-112647380D01*
X124649744Y-112682795D01*
X124480226Y-112796063D01*
X124336063Y-112940226D01*
X124222795Y-113109744D01*
X124144774Y-113298102D01*
X124105000Y-113498061D01*
X124105000Y-113701939D01*
X124144774Y-113901898D01*
X124222795Y-114090256D01*
X124336063Y-114259774D01*
X124480226Y-114403937D01*
X124649744Y-114517205D01*
X124838102Y-114595226D01*
X125038061Y-114635000D01*
X125241939Y-114635000D01*
X125441898Y-114595226D01*
X125630256Y-114517205D01*
X125799774Y-114403937D01*
X125943937Y-114259774D01*
X126057205Y-114090256D01*
X126135226Y-113901898D01*
X126175000Y-113701939D01*
X126175000Y-113498061D01*
X126135226Y-113298102D01*
X126057205Y-113109744D01*
X125943937Y-112940226D01*
X125799774Y-112796063D01*
X125734757Y-112752620D01*
X125820256Y-112717205D01*
X125989774Y-112603937D01*
X126133937Y-112459774D01*
X126247205Y-112290256D01*
X126325226Y-112101898D01*
X126365000Y-111901939D01*
X126365000Y-111698061D01*
X126325226Y-111498102D01*
X126247205Y-111309744D01*
X126133937Y-111140226D01*
X125989774Y-110996063D01*
X125827229Y-110887454D01*
X125900256Y-110857205D01*
X126069774Y-110743937D01*
X126213937Y-110599774D01*
X126327205Y-110430256D01*
X126405226Y-110241898D01*
X126445000Y-110041939D01*
X126445000Y-109838061D01*
X126405226Y-109638102D01*
X126327205Y-109449744D01*
X126213937Y-109280226D01*
X126069774Y-109136063D01*
X125900256Y-109022795D01*
X125851225Y-109002486D01*
X125993937Y-108859774D01*
X126107205Y-108690256D01*
X126185226Y-108501898D01*
X126225000Y-108301939D01*
X126225000Y-108098061D01*
X126185226Y-107898102D01*
X126107205Y-107709744D01*
X125993937Y-107540226D01*
X125849774Y-107396063D01*
X125680256Y-107282795D01*
X125656488Y-107272950D01*
X125759774Y-107203937D01*
X125903937Y-107059774D01*
X126017205Y-106890256D01*
X126022256Y-106878061D01*
X130965000Y-106878061D01*
X130965000Y-107081939D01*
X131004774Y-107281898D01*
X131082795Y-107470256D01*
X131196063Y-107639774D01*
X131340226Y-107783937D01*
X131509744Y-107897205D01*
X131698102Y-107975226D01*
X131898061Y-108015000D01*
X132101939Y-108015000D01*
X132301898Y-107975226D01*
X132490256Y-107897205D01*
X132659774Y-107783937D01*
X132803937Y-107639774D01*
X132917205Y-107470256D01*
X132995226Y-107281898D01*
X133035000Y-107081939D01*
X133035000Y-106878061D01*
X132995226Y-106678102D01*
X132951173Y-106571750D01*
X133068061Y-106595000D01*
X133271939Y-106595000D01*
X133471898Y-106555226D01*
X133660256Y-106477205D01*
X133829774Y-106363937D01*
X133973937Y-106219774D01*
X134087205Y-106050256D01*
X134165226Y-105861898D01*
X134205000Y-105661939D01*
X134205000Y-105458061D01*
X134165226Y-105258102D01*
X134087205Y-105069744D01*
X133973937Y-104900226D01*
X133829774Y-104756063D01*
X133660256Y-104642795D01*
X133471898Y-104564774D01*
X133271939Y-104525000D01*
X133068061Y-104525000D01*
X132868102Y-104564774D01*
X132679744Y-104642795D01*
X132510226Y-104756063D01*
X132366063Y-104900226D01*
X132252795Y-105069744D01*
X132174774Y-105258102D01*
X132135000Y-105458061D01*
X132135000Y-105661939D01*
X132174774Y-105861898D01*
X132218827Y-105968250D01*
X132101939Y-105945000D01*
X131898061Y-105945000D01*
X131698102Y-105984774D01*
X131509744Y-106062795D01*
X131340226Y-106176063D01*
X131196063Y-106320226D01*
X131082795Y-106489744D01*
X131004774Y-106678102D01*
X130965000Y-106878061D01*
X126022256Y-106878061D01*
X126095226Y-106701898D01*
X126135000Y-106501939D01*
X126135000Y-106298061D01*
X126095226Y-106098102D01*
X126017205Y-105909744D01*
X125903937Y-105740226D01*
X125759774Y-105596063D01*
X125590256Y-105482795D01*
X125401898Y-105404774D01*
X125201939Y-105365000D01*
X124998061Y-105365000D01*
X124798102Y-105404774D01*
X124609744Y-105482795D01*
X124440226Y-105596063D01*
X124296063Y-105740226D01*
X124182795Y-105909744D01*
X124104774Y-106098102D01*
X124065000Y-106298061D01*
X123127000Y-106298061D01*
X123127000Y-103608061D01*
X123915000Y-103608061D01*
X123915000Y-103811939D01*
X123954774Y-104011898D01*
X124032795Y-104200256D01*
X124146063Y-104369774D01*
X124290226Y-104513937D01*
X124459744Y-104627205D01*
X124648102Y-104705226D01*
X124848061Y-104745000D01*
X125051939Y-104745000D01*
X125251898Y-104705226D01*
X125440256Y-104627205D01*
X125609774Y-104513937D01*
X125695650Y-104428061D01*
X127205000Y-104428061D01*
X127205000Y-104631939D01*
X127244774Y-104831898D01*
X127322795Y-105020256D01*
X127436063Y-105189774D01*
X127580226Y-105333937D01*
X127749744Y-105447205D01*
X127938102Y-105525226D01*
X128138061Y-105565000D01*
X128341939Y-105565000D01*
X128541898Y-105525226D01*
X128730256Y-105447205D01*
X128899774Y-105333937D01*
X129043937Y-105189774D01*
X129157205Y-105020256D01*
X129235226Y-104831898D01*
X129275000Y-104631939D01*
X129275000Y-104428061D01*
X129235226Y-104228102D01*
X129157205Y-104039744D01*
X129043937Y-103870226D01*
X128899774Y-103726063D01*
X128730256Y-103612795D01*
X128541898Y-103534774D01*
X128341939Y-103495000D01*
X128138061Y-103495000D01*
X127938102Y-103534774D01*
X127749744Y-103612795D01*
X127580226Y-103726063D01*
X127436063Y-103870226D01*
X127322795Y-104039744D01*
X127244774Y-104228102D01*
X127205000Y-104428061D01*
X125695650Y-104428061D01*
X125753937Y-104369774D01*
X125867205Y-104200256D01*
X125945226Y-104011898D01*
X125985000Y-103811939D01*
X125985000Y-103608061D01*
X125945226Y-103408102D01*
X125867205Y-103219744D01*
X125753937Y-103050226D01*
X125609774Y-102906063D01*
X125440256Y-102792795D01*
X125251898Y-102714774D01*
X125051939Y-102675000D01*
X124848061Y-102675000D01*
X124648102Y-102714774D01*
X124459744Y-102792795D01*
X124290226Y-102906063D01*
X124146063Y-103050226D01*
X124032795Y-103219744D01*
X123954774Y-103408102D01*
X123915000Y-103608061D01*
X123127000Y-103608061D01*
X123127000Y-100527000D01*
X124934119Y-100527000D01*
X124976063Y-100589774D01*
G36*
X121773000Y-103460711D02*
G01*
X120533013Y-105273000D01*
X114769998Y-105273000D01*
X114418247Y-104716061D01*
X114438872Y-104666268D01*
X114470000Y-104509778D01*
X114470000Y-104350222D01*
X114438872Y-104193732D01*
X114377812Y-104046321D01*
X114289168Y-103913655D01*
X114176345Y-103800832D01*
X114043679Y-103712188D01*
X113896268Y-103651128D01*
X113739778Y-103620000D01*
X113725998Y-103620000D01*
X113627000Y-103463253D01*
X113627000Y-93127000D01*
X121773000Y-93127000D01*
X121773000Y-103460711D01*
X121773000Y-103460711D01*
G37*
X121773000Y-103460711D02*
X120533013Y-105273000D01*
X114769998Y-105273000D01*
X114418247Y-104716061D01*
X114438872Y-104666268D01*
X114470000Y-104509778D01*
X114470000Y-104350222D01*
X114438872Y-104193732D01*
X114377812Y-104046321D01*
X114289168Y-103913655D01*
X114176345Y-103800832D01*
X114043679Y-103712188D01*
X113896268Y-103651128D01*
X113739778Y-103620000D01*
X113725998Y-103620000D01*
X113627000Y-103463253D01*
X113627000Y-93127000D01*
X121773000Y-93127000D01*
X121773000Y-103460711D01*
G36*
X138290001Y-99765000D02*
G01*
X126802456Y-99765000D01*
X126775226Y-99628102D01*
X126697205Y-99439744D01*
X126583937Y-99270226D01*
X126439774Y-99126063D01*
X126270256Y-99012795D01*
X126081898Y-98934774D01*
X125881939Y-98895000D01*
X125678061Y-98895000D01*
X125478102Y-98934774D01*
X125289744Y-99012795D01*
X125120226Y-99126063D01*
X124976063Y-99270226D01*
X124862795Y-99439744D01*
X124784774Y-99628102D01*
X124757544Y-99765000D01*
X123000000Y-99765000D01*
X122876118Y-99777201D01*
X122756996Y-99813336D01*
X122647213Y-99872017D01*
X122550987Y-99950987D01*
X122535000Y-99970467D01*
X122535000Y-93978711D01*
X122660226Y-94103937D01*
X122829744Y-94217205D01*
X123018102Y-94295226D01*
X123218061Y-94335000D01*
X123421939Y-94335000D01*
X123621898Y-94295226D01*
X123810256Y-94217205D01*
X123979774Y-94103937D01*
X124123937Y-93959774D01*
X124237205Y-93790256D01*
X124315226Y-93601898D01*
X124355000Y-93401939D01*
X124355000Y-93198061D01*
X124315226Y-92998102D01*
X124237205Y-92809744D01*
X124123937Y-92640226D01*
X123979774Y-92496063D01*
X123810256Y-92382795D01*
X123621898Y-92304774D01*
X123421939Y-92265000D01*
X123218061Y-92265000D01*
X123018102Y-92304774D01*
X122829744Y-92382795D01*
X122660226Y-92496063D01*
X122516063Y-92640226D01*
X122465054Y-92716567D01*
X122427983Y-92647213D01*
X122349013Y-92550987D01*
X122252787Y-92472017D01*
X122143004Y-92413336D01*
X122023882Y-92377201D01*
X121900000Y-92365000D01*
X119760670Y-92365000D01*
X119777205Y-92340254D01*
X119855226Y-92151896D01*
X119895000Y-91951937D01*
X119895000Y-91748059D01*
X119855226Y-91548100D01*
X119810450Y-91440000D01*
X129587815Y-91440000D01*
X129616487Y-91731111D01*
X129701401Y-92011034D01*
X129839294Y-92269014D01*
X130024866Y-92495134D01*
X130250986Y-92680706D01*
X130305791Y-92710000D01*
X130250986Y-92739294D01*
X130024866Y-92924866D01*
X129839294Y-93150986D01*
X129701401Y-93408966D01*
X129616487Y-93688889D01*
X129587815Y-93980000D01*
X129616487Y-94271111D01*
X129701401Y-94551034D01*
X129839294Y-94809014D01*
X130024866Y-95035134D01*
X130250986Y-95220706D01*
X130305791Y-95250000D01*
X130250986Y-95279294D01*
X130024866Y-95464866D01*
X129839294Y-95690986D01*
X129701401Y-95948966D01*
X129616487Y-96228889D01*
X129587815Y-96520000D01*
X129616487Y-96811111D01*
X129701401Y-97091034D01*
X129839294Y-97349014D01*
X130024866Y-97575134D01*
X130250986Y-97760706D01*
X130508966Y-97898599D01*
X130788889Y-97983513D01*
X131007050Y-98005000D01*
X131152950Y-98005000D01*
X131371111Y-97983513D01*
X131651034Y-97898599D01*
X131909014Y-97760706D01*
X132135134Y-97575134D01*
X132320706Y-97349014D01*
X132458599Y-97091034D01*
X132543513Y-96811111D01*
X132572185Y-96520000D01*
X132543513Y-96228889D01*
X132458599Y-95948966D01*
X132320706Y-95690986D01*
X132135134Y-95464866D01*
X131909014Y-95279294D01*
X131854209Y-95250000D01*
X131909014Y-95220706D01*
X132135134Y-95035134D01*
X132320706Y-94809014D01*
X132458599Y-94551034D01*
X132543513Y-94271111D01*
X132572185Y-93980000D01*
X132543513Y-93688889D01*
X132458599Y-93408966D01*
X132320706Y-93150986D01*
X132135134Y-92924866D01*
X131909014Y-92739294D01*
X131854209Y-92710000D01*
X131909014Y-92680706D01*
X132135134Y-92495134D01*
X132320706Y-92269014D01*
X132458599Y-92011034D01*
X132543513Y-91731111D01*
X132572185Y-91440000D01*
X132543513Y-91148889D01*
X132458599Y-90868966D01*
X132320706Y-90610986D01*
X132135134Y-90384866D01*
X132105313Y-90360393D01*
X132174180Y-90339502D01*
X132284494Y-90280537D01*
X132381185Y-90201185D01*
X132460537Y-90104494D01*
X132519502Y-89994180D01*
X132555812Y-89874482D01*
X132568072Y-89750000D01*
X132568072Y-88050000D01*
X132555812Y-87925518D01*
X132519502Y-87805820D01*
X132460537Y-87695506D01*
X132381185Y-87598815D01*
X132284494Y-87519463D01*
X132174180Y-87460498D01*
X132054482Y-87424188D01*
X131930000Y-87411928D01*
X130230000Y-87411928D01*
X130105518Y-87424188D01*
X129985820Y-87460498D01*
X129875506Y-87519463D01*
X129778815Y-87598815D01*
X129699463Y-87695506D01*
X129640498Y-87805820D01*
X129604188Y-87925518D01*
X129591928Y-88050000D01*
X129591928Y-89750000D01*
X129604188Y-89874482D01*
X129640498Y-89994180D01*
X129699463Y-90104494D01*
X129778815Y-90201185D01*
X129875506Y-90280537D01*
X129985820Y-90339502D01*
X130054687Y-90360393D01*
X130024866Y-90384866D01*
X129839294Y-90610986D01*
X129701401Y-90868966D01*
X129616487Y-91148889D01*
X129587815Y-91440000D01*
X119810450Y-91440000D01*
X119777205Y-91359742D01*
X119663937Y-91190224D01*
X119519774Y-91046061D01*
X119350256Y-90932793D01*
X119161898Y-90854772D01*
X118961939Y-90814998D01*
X118758061Y-90814998D01*
X118558102Y-90854772D01*
X118369744Y-90932793D01*
X118200226Y-91046061D01*
X118056063Y-91190224D01*
X117942795Y-91359742D01*
X117864774Y-91548100D01*
X117825000Y-91748059D01*
X117825000Y-91951937D01*
X117864774Y-92151896D01*
X117942795Y-92340254D01*
X117959330Y-92365000D01*
X116607366Y-92365000D01*
X116620282Y-92345670D01*
X116698303Y-92157312D01*
X116738077Y-91957353D01*
X116738077Y-91753475D01*
X116698303Y-91553516D01*
X116620282Y-91365158D01*
X116507014Y-91195640D01*
X116362851Y-91051477D01*
X116193333Y-90938209D01*
X116004975Y-90860188D01*
X115805016Y-90820414D01*
X115601138Y-90820414D01*
X115401179Y-90860188D01*
X115212821Y-90938209D01*
X115043303Y-91051477D01*
X114899140Y-91195640D01*
X114785872Y-91365158D01*
X114707851Y-91553516D01*
X114668077Y-91753475D01*
X114668077Y-91957353D01*
X114707851Y-92157312D01*
X114785872Y-92345670D01*
X114798788Y-92365000D01*
X113500000Y-92365000D01*
X113376118Y-92377201D01*
X113256996Y-92413336D01*
X113147213Y-92472017D01*
X113050987Y-92550987D01*
X112972017Y-92647213D01*
X112913336Y-92756996D01*
X112877201Y-92876118D01*
X112865000Y-93000000D01*
X112865000Y-94187523D01*
X112845224Y-94088102D01*
X112767203Y-93899744D01*
X112653935Y-93730226D01*
X112509772Y-93586063D01*
X112340254Y-93472795D01*
X112151896Y-93394774D01*
X111951937Y-93355000D01*
X111748059Y-93355000D01*
X111548100Y-93394774D01*
X111359742Y-93472795D01*
X111190224Y-93586063D01*
X111046061Y-93730226D01*
X110932793Y-93899744D01*
X110854772Y-94088102D01*
X110814998Y-94288061D01*
X110814998Y-94491939D01*
X110854772Y-94691898D01*
X110932793Y-94880256D01*
X111046061Y-95049774D01*
X111190224Y-95193937D01*
X111359742Y-95307205D01*
X111548100Y-95385226D01*
X111748059Y-95425000D01*
X111951937Y-95425000D01*
X112151896Y-95385226D01*
X112340254Y-95307205D01*
X112509772Y-95193937D01*
X112653935Y-95049774D01*
X112767203Y-94880256D01*
X112845224Y-94691898D01*
X112865000Y-94592477D01*
X112865000Y-103500000D01*
X112874220Y-103607817D01*
X112885564Y-103648999D01*
X112739778Y-103620000D01*
X112580222Y-103620000D01*
X112423732Y-103651128D01*
X112276321Y-103712188D01*
X112160000Y-103789911D01*
X112043679Y-103712188D01*
X111896268Y-103651128D01*
X111739778Y-103620000D01*
X111580222Y-103620000D01*
X111423732Y-103651128D01*
X111276321Y-103712188D01*
X111143655Y-103800832D01*
X111030832Y-103913655D01*
X110942188Y-104046321D01*
X110881128Y-104193732D01*
X110850000Y-104350222D01*
X110850000Y-104509778D01*
X110881128Y-104666268D01*
X110942188Y-104813679D01*
X111030832Y-104946345D01*
X111143655Y-105059168D01*
X111276321Y-105147812D01*
X111423732Y-105208872D01*
X111580222Y-105240000D01*
X111739778Y-105240000D01*
X111877369Y-105212631D01*
X111850000Y-105350222D01*
X111850000Y-105509778D01*
X111881128Y-105666268D01*
X111942188Y-105813679D01*
X112030832Y-105946345D01*
X112143655Y-106059168D01*
X112276321Y-106147812D01*
X112423732Y-106208872D01*
X112580222Y-106240000D01*
X112739778Y-106240000D01*
X112896268Y-106208872D01*
X113043679Y-106147812D01*
X113176345Y-106059168D01*
X113289168Y-105946345D01*
X113377812Y-105813679D01*
X113438872Y-105666268D01*
X113470000Y-105509778D01*
X113470000Y-105350222D01*
X113442631Y-105212631D01*
X113580222Y-105240000D01*
X113739778Y-105240000D01*
X113835835Y-105220893D01*
X114163115Y-105739086D01*
X114250987Y-105849013D01*
X114347213Y-105927983D01*
X114456996Y-105986664D01*
X114576118Y-106022799D01*
X114700000Y-106035000D01*
X120600000Y-106035000D01*
X120717023Y-106024124D01*
X120836535Y-105989301D01*
X120946957Y-105931832D01*
X121044046Y-105853925D01*
X121124070Y-105758574D01*
X122365000Y-103944907D01*
X122365000Y-106027146D01*
X122289168Y-105913655D01*
X122176345Y-105800832D01*
X122043679Y-105712188D01*
X121896268Y-105651128D01*
X121739778Y-105620000D01*
X121580222Y-105620000D01*
X121423732Y-105651128D01*
X121276321Y-105712188D01*
X121143655Y-105800832D01*
X121030832Y-105913655D01*
X120942188Y-106046321D01*
X120881128Y-106193732D01*
X120850000Y-106350222D01*
X120850000Y-106509778D01*
X120881128Y-106666268D01*
X120942188Y-106813679D01*
X121030832Y-106946345D01*
X121143655Y-107059168D01*
X121276321Y-107147812D01*
X121423732Y-107208872D01*
X121580222Y-107240000D01*
X121739778Y-107240000D01*
X121896268Y-107208872D01*
X122043679Y-107147812D01*
X122176345Y-107059168D01*
X122289168Y-106946345D01*
X122365000Y-106832854D01*
X122365000Y-108027146D01*
X122289168Y-107913655D01*
X122176345Y-107800832D01*
X122043679Y-107712188D01*
X121896268Y-107651128D01*
X121739778Y-107620000D01*
X121580222Y-107620000D01*
X121423732Y-107651128D01*
X121276321Y-107712188D01*
X121143655Y-107800832D01*
X121030832Y-107913655D01*
X120942188Y-108046321D01*
X120881128Y-108193732D01*
X120850000Y-108350222D01*
X120850000Y-108509778D01*
X120881128Y-108666268D01*
X120942188Y-108813679D01*
X121019911Y-108930000D01*
X120942188Y-109046321D01*
X120897392Y-109154466D01*
X119371305Y-110273597D01*
X119361532Y-110280909D01*
X117226468Y-111910646D01*
X116604711Y-112385245D01*
X116539546Y-112442433D01*
X116460885Y-112538912D01*
X116402558Y-112648884D01*
X116366806Y-112768121D01*
X116355003Y-112892042D01*
X116357532Y-113678549D01*
X116276321Y-113712188D01*
X116143655Y-113800832D01*
X116030832Y-113913655D01*
X115942188Y-114046321D01*
X115881128Y-114193732D01*
X115850000Y-114350222D01*
X115850000Y-114509778D01*
X115881128Y-114666268D01*
X115942188Y-114813679D01*
X116030832Y-114946345D01*
X116143655Y-115059168D01*
X116276321Y-115147812D01*
X116362371Y-115183455D01*
X116364456Y-115831833D01*
X116346063Y-115850226D01*
X116232795Y-116019744D01*
X116195000Y-116110989D01*
X116195000Y-115978061D01*
X116155226Y-115778102D01*
X116077205Y-115589744D01*
X115963937Y-115420226D01*
X115819774Y-115276063D01*
X115650256Y-115162795D01*
X115461898Y-115084774D01*
X115261939Y-115045000D01*
X115190513Y-115045000D01*
X115289168Y-114946345D01*
X115377812Y-114813679D01*
X115438872Y-114666268D01*
X115470000Y-114509778D01*
X115470000Y-114350222D01*
X115438872Y-114193732D01*
X115377812Y-114046321D01*
X115289168Y-113913655D01*
X115176345Y-113800832D01*
X115043679Y-113712188D01*
X114896268Y-113651128D01*
X114739778Y-113620000D01*
X114580222Y-113620000D01*
X114423732Y-113651128D01*
X114276321Y-113712188D01*
X114143655Y-113800832D01*
X114030832Y-113913655D01*
X113942188Y-114046321D01*
X113881128Y-114193732D01*
X113850000Y-114350222D01*
X113850000Y-114509778D01*
X113881128Y-114666268D01*
X113942188Y-114813679D01*
X114030832Y-114946345D01*
X114143655Y-115059168D01*
X114276321Y-115147812D01*
X114423732Y-115208872D01*
X114560168Y-115236011D01*
X114500226Y-115276063D01*
X114416802Y-115359487D01*
X113470000Y-114412686D01*
X113470000Y-114350222D01*
X113438872Y-114193732D01*
X113377812Y-114046321D01*
X113300089Y-113930000D01*
X113377812Y-113813679D01*
X113438872Y-113666268D01*
X113470000Y-113509778D01*
X113470000Y-113350222D01*
X113438872Y-113193732D01*
X113377812Y-113046321D01*
X113289168Y-112913655D01*
X113176345Y-112800832D01*
X113043679Y-112712188D01*
X112896268Y-112651128D01*
X112739778Y-112620000D01*
X112580222Y-112620000D01*
X112423732Y-112651128D01*
X112276321Y-112712188D01*
X112143655Y-112800832D01*
X112030832Y-112913655D01*
X111942188Y-113046321D01*
X111881128Y-113193732D01*
X111850000Y-113350222D01*
X111850000Y-113509778D01*
X111881128Y-113666268D01*
X111942188Y-113813679D01*
X112019911Y-113930000D01*
X111942188Y-114046321D01*
X111881128Y-114193732D01*
X111850000Y-114350222D01*
X111850000Y-114509778D01*
X111881128Y-114666268D01*
X111899615Y-114710899D01*
X111900000Y-114714809D01*
X111900000Y-114714820D01*
X111910997Y-114826473D01*
X111954454Y-114969734D01*
X112025026Y-115101763D01*
X112119999Y-115217488D01*
X112149001Y-115241289D01*
X114328713Y-117421002D01*
X114352511Y-117450000D01*
X114468236Y-117544973D01*
X114600265Y-117615545D01*
X114743526Y-117659002D01*
X114855179Y-117669999D01*
X114855187Y-117669999D01*
X114892512Y-117673675D01*
X114929837Y-117669999D01*
X116712679Y-117669999D01*
X116750001Y-117673675D01*
X116787323Y-117669999D01*
X116787334Y-117669999D01*
X116898987Y-117659002D01*
X117042248Y-117615545D01*
X117174226Y-117545000D01*
X117251939Y-117545000D01*
X117451898Y-117505226D01*
X117640256Y-117427205D01*
X117809774Y-117313937D01*
X117949190Y-117174521D01*
X117966063Y-117199774D01*
X118110226Y-117343937D01*
X118279744Y-117457205D01*
X118468102Y-117535226D01*
X118668061Y-117575000D01*
X118871939Y-117575000D01*
X119071898Y-117535226D01*
X119260256Y-117457205D01*
X119429774Y-117343937D01*
X119573937Y-117199774D01*
X119687205Y-117030256D01*
X119765226Y-116841898D01*
X119805000Y-116641939D01*
X119805000Y-116635000D01*
X123235554Y-116635000D01*
X123225000Y-116688061D01*
X123225000Y-116891939D01*
X123264774Y-117091898D01*
X123342795Y-117280256D01*
X123456063Y-117449774D01*
X123600226Y-117593937D01*
X123769744Y-117707205D01*
X123958102Y-117785226D01*
X124158061Y-117825000D01*
X124361939Y-117825000D01*
X124561898Y-117785226D01*
X124750256Y-117707205D01*
X124919774Y-117593937D01*
X125063937Y-117449774D01*
X125177205Y-117280256D01*
X125255226Y-117091898D01*
X125295000Y-116891939D01*
X125295000Y-116688061D01*
X125284446Y-116635000D01*
X128090198Y-116635000D01*
X125925199Y-118800000D01*
X111269117Y-118800000D01*
X111181271Y-118712155D01*
X111235226Y-118581898D01*
X111275000Y-118381939D01*
X111275000Y-118178061D01*
X111235226Y-117978102D01*
X111157205Y-117789744D01*
X111043937Y-117620226D01*
X110899774Y-117476063D01*
X110730256Y-117362795D01*
X110541898Y-117284774D01*
X110341939Y-117245000D01*
X110138061Y-117245000D01*
X109938102Y-117284774D01*
X109749744Y-117362795D01*
X109580226Y-117476063D01*
X109436063Y-117620226D01*
X109322795Y-117789744D01*
X109244774Y-117978102D01*
X109205000Y-118178061D01*
X109205000Y-118381939D01*
X109244774Y-118581898D01*
X109322795Y-118770256D01*
X109436063Y-118939774D01*
X109491013Y-118994724D01*
X109534454Y-119137932D01*
X109559037Y-119183921D01*
X109605026Y-119269961D01*
X109676201Y-119356687D01*
X109700000Y-119385686D01*
X109728998Y-119409484D01*
X110390516Y-120071002D01*
X110414314Y-120100001D01*
X110443312Y-120123799D01*
X110530038Y-120194974D01*
X110606910Y-120236063D01*
X110662068Y-120265546D01*
X110805329Y-120309003D01*
X110916982Y-120320000D01*
X110916992Y-120320000D01*
X110954315Y-120323676D01*
X110991638Y-120320000D01*
X126202678Y-120320000D01*
X126240000Y-120323676D01*
X126277322Y-120320000D01*
X126277333Y-120320000D01*
X126388986Y-120309003D01*
X126532247Y-120265546D01*
X126664276Y-120194974D01*
X126780001Y-120100001D01*
X126803804Y-120070997D01*
X130239803Y-116635000D01*
X138290000Y-116635000D01*
X138290000Y-129290000D01*
X91710000Y-129290000D01*
X91710000Y-126804495D01*
X92015000Y-126804495D01*
X92015000Y-127195505D01*
X92091282Y-127579003D01*
X92240915Y-127940250D01*
X92458149Y-128265364D01*
X92734636Y-128541851D01*
X93059750Y-128759085D01*
X93420997Y-128908718D01*
X93804495Y-128985000D01*
X94195505Y-128985000D01*
X94579003Y-128908718D01*
X94940250Y-128759085D01*
X95265364Y-128541851D01*
X95541851Y-128265364D01*
X95759085Y-127940250D01*
X95908718Y-127579003D01*
X95985000Y-127195505D01*
X95985000Y-126804495D01*
X134015000Y-126804495D01*
X134015000Y-127195505D01*
X134091282Y-127579003D01*
X134240915Y-127940250D01*
X134458149Y-128265364D01*
X134734636Y-128541851D01*
X135059750Y-128759085D01*
X135420997Y-128908718D01*
X135804495Y-128985000D01*
X136195505Y-128985000D01*
X136579003Y-128908718D01*
X136940250Y-128759085D01*
X137265364Y-128541851D01*
X137541851Y-128265364D01*
X137759085Y-127940250D01*
X137908718Y-127579003D01*
X137985000Y-127195505D01*
X137985000Y-126804495D01*
X137908718Y-126420997D01*
X137759085Y-126059750D01*
X137541851Y-125734636D01*
X137265364Y-125458149D01*
X136940250Y-125240915D01*
X136579003Y-125091282D01*
X136195505Y-125015000D01*
X135804495Y-125015000D01*
X135420997Y-125091282D01*
X135059750Y-125240915D01*
X134734636Y-125458149D01*
X134458149Y-125734636D01*
X134240915Y-126059750D01*
X134091282Y-126420997D01*
X134015000Y-126804495D01*
X95985000Y-126804495D01*
X95908718Y-126420997D01*
X95759085Y-126059750D01*
X95541851Y-125734636D01*
X95265364Y-125458149D01*
X94940250Y-125240915D01*
X94579003Y-125091282D01*
X94195505Y-125015000D01*
X93804495Y-125015000D01*
X93420997Y-125091282D01*
X93059750Y-125240915D01*
X92734636Y-125458149D01*
X92458149Y-125734636D01*
X92240915Y-126059750D01*
X92091282Y-126420997D01*
X92015000Y-126804495D01*
X91710000Y-126804495D01*
X91710000Y-122950000D01*
X97111928Y-122950000D01*
X97111928Y-124650000D01*
X97124188Y-124774482D01*
X97160498Y-124894180D01*
X97219463Y-125004494D01*
X97298815Y-125101185D01*
X97395506Y-125180537D01*
X97505820Y-125239502D01*
X97625518Y-125275812D01*
X97750000Y-125288072D01*
X99450000Y-125288072D01*
X99574482Y-125275812D01*
X99694180Y-125239502D01*
X99804494Y-125180537D01*
X99901185Y-125101185D01*
X99980537Y-125004494D01*
X100039502Y-124894180D01*
X100075812Y-124774482D01*
X100088072Y-124650000D01*
X100088072Y-122950000D01*
X128911928Y-122950000D01*
X128911928Y-124650000D01*
X128924188Y-124774482D01*
X128960498Y-124894180D01*
X129019463Y-125004494D01*
X129098815Y-125101185D01*
X129195506Y-125180537D01*
X129305820Y-125239502D01*
X129425518Y-125275812D01*
X129550000Y-125288072D01*
X131250000Y-125288072D01*
X131374482Y-125275812D01*
X131494180Y-125239502D01*
X131604494Y-125180537D01*
X131701185Y-125101185D01*
X131780537Y-125004494D01*
X131839502Y-124894180D01*
X131875812Y-124774482D01*
X131888072Y-124650000D01*
X131888072Y-122950000D01*
X131875812Y-122825518D01*
X131839502Y-122705820D01*
X131780537Y-122595506D01*
X131701185Y-122498815D01*
X131604494Y-122419463D01*
X131494180Y-122360498D01*
X131374482Y-122324188D01*
X131250000Y-122311928D01*
X129550000Y-122311928D01*
X129425518Y-122324188D01*
X129305820Y-122360498D01*
X129195506Y-122419463D01*
X129098815Y-122498815D01*
X129019463Y-122595506D01*
X128960498Y-122705820D01*
X128924188Y-122825518D01*
X128911928Y-122950000D01*
X100088072Y-122950000D01*
X100075812Y-122825518D01*
X100039502Y-122705820D01*
X99980537Y-122595506D01*
X99901185Y-122498815D01*
X99804494Y-122419463D01*
X99694180Y-122360498D01*
X99574482Y-122324188D01*
X99450000Y-122311928D01*
X97750000Y-122311928D01*
X97625518Y-122324188D01*
X97505820Y-122360498D01*
X97395506Y-122419463D01*
X97298815Y-122498815D01*
X97219463Y-122595506D01*
X97160498Y-122705820D01*
X97124188Y-122825518D01*
X97111928Y-122950000D01*
X91710000Y-122950000D01*
X91710000Y-121418061D01*
X126815000Y-121418061D01*
X126815000Y-121621939D01*
X126854774Y-121821898D01*
X126932795Y-122010256D01*
X127046063Y-122179774D01*
X127190226Y-122323937D01*
X127359744Y-122437205D01*
X127548102Y-122515226D01*
X127748061Y-122555000D01*
X127951939Y-122555000D01*
X128151898Y-122515226D01*
X128340256Y-122437205D01*
X128509774Y-122323937D01*
X128653937Y-122179774D01*
X128738505Y-122053208D01*
X128848061Y-122075000D01*
X129051939Y-122075000D01*
X129251898Y-122035226D01*
X129440256Y-121957205D01*
X129609774Y-121843937D01*
X129753937Y-121699774D01*
X129867205Y-121530256D01*
X129945226Y-121341898D01*
X129985000Y-121141939D01*
X129985000Y-120938061D01*
X129945226Y-120738102D01*
X129867205Y-120549744D01*
X129753937Y-120380226D01*
X129609774Y-120236063D01*
X129440256Y-120122795D01*
X129251898Y-120044774D01*
X129051939Y-120005000D01*
X128848061Y-120005000D01*
X128648102Y-120044774D01*
X128459744Y-120122795D01*
X128290226Y-120236063D01*
X128146063Y-120380226D01*
X128061495Y-120506792D01*
X127951939Y-120485000D01*
X127748061Y-120485000D01*
X127548102Y-120524774D01*
X127359744Y-120602795D01*
X127190226Y-120716063D01*
X127046063Y-120860226D01*
X126932795Y-121029744D01*
X126854774Y-121218102D01*
X126815000Y-121418061D01*
X91710000Y-121418061D01*
X91710000Y-117408061D01*
X103575000Y-117408061D01*
X103575000Y-117611939D01*
X103614774Y-117811898D01*
X103692795Y-118000256D01*
X103806063Y-118169774D01*
X103950226Y-118313937D01*
X104119744Y-118427205D01*
X104308102Y-118505226D01*
X104508061Y-118545000D01*
X104711939Y-118545000D01*
X104911898Y-118505226D01*
X105100256Y-118427205D01*
X105269774Y-118313937D01*
X105413937Y-118169774D01*
X105527205Y-118000256D01*
X105605226Y-117811898D01*
X105645000Y-117611939D01*
X105645000Y-117408061D01*
X105605226Y-117208102D01*
X105527205Y-117019744D01*
X105497285Y-116974966D01*
X105547205Y-116900256D01*
X105625226Y-116711898D01*
X105665000Y-116511939D01*
X105665000Y-116308061D01*
X105625226Y-116108102D01*
X105547205Y-115919744D01*
X105433937Y-115750226D01*
X105289774Y-115606063D01*
X105120256Y-115492795D01*
X104931898Y-115414774D01*
X104731939Y-115375000D01*
X104528061Y-115375000D01*
X104328102Y-115414774D01*
X104139744Y-115492795D01*
X103970226Y-115606063D01*
X103826063Y-115750226D01*
X103712795Y-115919744D01*
X103634774Y-116108102D01*
X103595000Y-116308061D01*
X103595000Y-116511939D01*
X103634774Y-116711898D01*
X103712795Y-116900256D01*
X103742715Y-116945034D01*
X103692795Y-117019744D01*
X103614774Y-117208102D01*
X103575000Y-117408061D01*
X91710000Y-117408061D01*
X91710000Y-113318061D01*
X108755000Y-113318061D01*
X108755000Y-113521939D01*
X108794774Y-113721898D01*
X108872795Y-113910256D01*
X108986063Y-114079774D01*
X109130226Y-114223937D01*
X109299744Y-114337205D01*
X109488102Y-114415226D01*
X109688061Y-114455000D01*
X109891939Y-114455000D01*
X110091898Y-114415226D01*
X110280256Y-114337205D01*
X110449774Y-114223937D01*
X110593937Y-114079774D01*
X110707205Y-113910256D01*
X110785226Y-113721898D01*
X110825000Y-113521939D01*
X110825000Y-113318061D01*
X110785226Y-113118102D01*
X110707205Y-112929744D01*
X110593937Y-112760226D01*
X110449774Y-112616063D01*
X110280256Y-112502795D01*
X110091898Y-112424774D01*
X109891939Y-112385000D01*
X109688061Y-112385000D01*
X109488102Y-112424774D01*
X109299744Y-112502795D01*
X109130226Y-112616063D01*
X108986063Y-112760226D01*
X108872795Y-112929744D01*
X108794774Y-113118102D01*
X108755000Y-113318061D01*
X91710000Y-113318061D01*
X91710000Y-107620222D01*
X102265002Y-107620222D01*
X102265002Y-107779778D01*
X102296130Y-107936268D01*
X102322529Y-108000000D01*
X102296130Y-108063732D01*
X102265002Y-108220222D01*
X102265002Y-108379778D01*
X102296130Y-108536268D01*
X102357190Y-108683679D01*
X102445834Y-108816345D01*
X102558657Y-108929168D01*
X102691323Y-109017812D01*
X102838734Y-109078872D01*
X102995224Y-109110000D01*
X103154780Y-109110000D01*
X103311270Y-109078872D01*
X103458681Y-109017812D01*
X103591347Y-108929168D01*
X103704170Y-108816345D01*
X103792814Y-108683679D01*
X103853874Y-108536268D01*
X103885002Y-108379778D01*
X103885002Y-108220222D01*
X103853874Y-108063732D01*
X103827475Y-108000000D01*
X103853874Y-107936268D01*
X103872554Y-107842355D01*
X108267867Y-107842355D01*
X108267867Y-108001911D01*
X108298995Y-108158401D01*
X108360055Y-108305812D01*
X108448699Y-108438478D01*
X108561522Y-108551301D01*
X108694188Y-108639945D01*
X108841599Y-108701005D01*
X108998089Y-108732133D01*
X109157645Y-108732133D01*
X109314135Y-108701005D01*
X109461546Y-108639945D01*
X109594212Y-108551301D01*
X109707035Y-108438478D01*
X109731305Y-108402155D01*
X109760832Y-108446345D01*
X109873655Y-108559168D01*
X110006321Y-108647812D01*
X110153732Y-108708872D01*
X110270621Y-108732123D01*
X110246321Y-108742188D01*
X110113655Y-108830832D01*
X110000832Y-108943655D01*
X109912188Y-109076321D01*
X109851128Y-109223732D01*
X109820000Y-109380222D01*
X109820000Y-109539778D01*
X109851128Y-109696268D01*
X109912188Y-109843679D01*
X109993229Y-109964966D01*
X109932188Y-110056321D01*
X109878656Y-110185559D01*
X109843679Y-110162188D01*
X109696268Y-110101128D01*
X109539778Y-110070000D01*
X109380222Y-110070000D01*
X109223732Y-110101128D01*
X109076321Y-110162188D01*
X108943655Y-110250832D01*
X108830832Y-110363655D01*
X108742188Y-110496321D01*
X108681128Y-110643732D01*
X108650000Y-110800222D01*
X108650000Y-110959778D01*
X108681128Y-111116268D01*
X108707527Y-111180000D01*
X108681128Y-111243732D01*
X108650000Y-111400222D01*
X108650000Y-111559778D01*
X108681128Y-111716268D01*
X108742188Y-111863679D01*
X108830832Y-111996345D01*
X108943655Y-112109168D01*
X109076321Y-112197812D01*
X109223732Y-112258872D01*
X109380222Y-112290000D01*
X109539778Y-112290000D01*
X109696268Y-112258872D01*
X109843679Y-112197812D01*
X109976345Y-112109168D01*
X110089168Y-111996345D01*
X110177812Y-111863679D01*
X110232938Y-111730595D01*
X110280222Y-111740000D01*
X110439778Y-111740000D01*
X110596268Y-111708872D01*
X110743679Y-111647812D01*
X110861762Y-111568912D01*
X110881128Y-111666268D01*
X110942188Y-111813679D01*
X111030832Y-111946345D01*
X111143655Y-112059168D01*
X111276321Y-112147812D01*
X111423732Y-112208872D01*
X111580222Y-112240000D01*
X111739778Y-112240000D01*
X111896268Y-112208872D01*
X112043679Y-112147812D01*
X112176345Y-112059168D01*
X112289168Y-111946345D01*
X112377812Y-111813679D01*
X112438872Y-111666268D01*
X112470000Y-111509778D01*
X112470000Y-111350222D01*
X112438872Y-111193732D01*
X112377812Y-111046321D01*
X112300089Y-110930000D01*
X112377812Y-110813679D01*
X112438872Y-110666268D01*
X112470000Y-110509778D01*
X112470000Y-110350222D01*
X112438872Y-110193732D01*
X112377812Y-110046321D01*
X112300089Y-109930000D01*
X112377812Y-109813679D01*
X112438872Y-109666268D01*
X112470000Y-109509778D01*
X112470000Y-109350222D01*
X112438872Y-109193732D01*
X112377812Y-109046321D01*
X112305089Y-108937483D01*
X112387812Y-108813679D01*
X112448872Y-108666268D01*
X112480000Y-108509778D01*
X112480000Y-108350222D01*
X112448872Y-108193732D01*
X112387812Y-108046321D01*
X112305089Y-107922517D01*
X112377812Y-107813679D01*
X112438872Y-107666268D01*
X112470000Y-107509778D01*
X112470000Y-107350222D01*
X112438872Y-107193732D01*
X112377812Y-107046321D01*
X112289168Y-106913655D01*
X112176345Y-106800832D01*
X112043679Y-106712188D01*
X111896268Y-106651128D01*
X111739778Y-106620000D01*
X111580222Y-106620000D01*
X111442631Y-106647369D01*
X111470000Y-106509778D01*
X111470000Y-106350222D01*
X111438872Y-106193732D01*
X111377812Y-106046321D01*
X111289168Y-105913655D01*
X111176345Y-105800832D01*
X111043679Y-105712188D01*
X110896268Y-105651128D01*
X110739778Y-105620000D01*
X110633708Y-105620000D01*
X110642133Y-105577645D01*
X110642133Y-105418089D01*
X110611005Y-105261599D01*
X110549945Y-105114188D01*
X110461301Y-104981522D01*
X110348478Y-104868699D01*
X110215812Y-104780055D01*
X110068401Y-104718995D01*
X109911911Y-104687867D01*
X109752355Y-104687867D01*
X109595865Y-104718995D01*
X109448454Y-104780055D01*
X109315788Y-104868699D01*
X109202965Y-104981522D01*
X109114321Y-105114188D01*
X109087922Y-105177922D01*
X109024188Y-105204321D01*
X108891522Y-105292965D01*
X108778699Y-105405788D01*
X108690055Y-105538454D01*
X108628995Y-105685865D01*
X108597867Y-105842355D01*
X108597867Y-106001911D01*
X108628995Y-106158401D01*
X108690055Y-106305812D01*
X108778699Y-106438478D01*
X108891522Y-106551301D01*
X109024188Y-106639945D01*
X109171599Y-106701005D01*
X109264624Y-106719509D01*
X109118454Y-106780055D01*
X108985788Y-106868699D01*
X108872965Y-106981522D01*
X108784321Y-107114188D01*
X108757922Y-107177922D01*
X108694188Y-107204321D01*
X108561522Y-107292965D01*
X108448699Y-107405788D01*
X108360055Y-107538454D01*
X108298995Y-107685865D01*
X108267867Y-107842355D01*
X103872554Y-107842355D01*
X103885002Y-107779778D01*
X103885002Y-107620222D01*
X103853874Y-107463732D01*
X103800540Y-107334973D01*
X103819168Y-107316345D01*
X103907812Y-107183679D01*
X103968872Y-107036268D01*
X104000000Y-106879778D01*
X104000000Y-106720222D01*
X103968872Y-106563732D01*
X103942473Y-106500000D01*
X103968872Y-106436268D01*
X104000000Y-106279778D01*
X104000000Y-106120222D01*
X103968872Y-105963732D01*
X103907812Y-105816321D01*
X103819168Y-105683655D01*
X103706345Y-105570832D01*
X103573679Y-105482188D01*
X103426268Y-105421128D01*
X103269778Y-105390000D01*
X103110222Y-105390000D01*
X102953732Y-105421128D01*
X102806321Y-105482188D01*
X102673655Y-105570832D01*
X102560832Y-105683655D01*
X102472188Y-105816321D01*
X102411128Y-105963732D01*
X102380000Y-106120222D01*
X102380000Y-106279778D01*
X102411128Y-106436268D01*
X102437527Y-106500000D01*
X102411128Y-106563732D01*
X102380000Y-106720222D01*
X102380000Y-106879778D01*
X102411128Y-107036268D01*
X102464462Y-107165027D01*
X102445834Y-107183655D01*
X102357190Y-107316321D01*
X102296130Y-107463732D01*
X102265002Y-107620222D01*
X91710000Y-107620222D01*
X91710000Y-103218061D01*
X97275000Y-103218061D01*
X97275000Y-103421939D01*
X97314774Y-103621898D01*
X97392795Y-103810256D01*
X97506063Y-103979774D01*
X97650226Y-104123937D01*
X97819744Y-104237205D01*
X98008102Y-104315226D01*
X98208061Y-104355000D01*
X98411939Y-104355000D01*
X98611898Y-104315226D01*
X98800256Y-104237205D01*
X98969774Y-104123937D01*
X99113937Y-103979774D01*
X99227205Y-103810256D01*
X99305226Y-103621898D01*
X99345000Y-103421939D01*
X99345000Y-103218061D01*
X99305226Y-103018102D01*
X99227205Y-102829744D01*
X99113937Y-102660226D01*
X98969774Y-102516063D01*
X98800256Y-102402795D01*
X98611898Y-102324774D01*
X98411939Y-102285000D01*
X98208061Y-102285000D01*
X98008102Y-102324774D01*
X97819744Y-102402795D01*
X97650226Y-102516063D01*
X97506063Y-102660226D01*
X97392795Y-102829744D01*
X97314774Y-103018102D01*
X97275000Y-103218061D01*
X91710000Y-103218061D01*
X91710000Y-99828061D01*
X97285000Y-99828061D01*
X97285000Y-100031939D01*
X97324774Y-100231898D01*
X97402795Y-100420256D01*
X97516063Y-100589774D01*
X97660226Y-100733937D01*
X97829744Y-100847205D01*
X98018102Y-100925226D01*
X98218061Y-100965000D01*
X98421939Y-100965000D01*
X98621898Y-100925226D01*
X98810256Y-100847205D01*
X98979774Y-100733937D01*
X99123937Y-100589774D01*
X99237205Y-100420256D01*
X99315226Y-100231898D01*
X99355000Y-100031939D01*
X99355000Y-99828061D01*
X99315226Y-99628102D01*
X99237205Y-99439744D01*
X99123937Y-99270226D01*
X98979774Y-99126063D01*
X98810256Y-99012795D01*
X98621898Y-98934774D01*
X98421939Y-98895000D01*
X98218061Y-98895000D01*
X98018102Y-98934774D01*
X97829744Y-99012795D01*
X97660226Y-99126063D01*
X97516063Y-99270226D01*
X97402795Y-99439744D01*
X97324774Y-99628102D01*
X97285000Y-99828061D01*
X91710000Y-99828061D01*
X91710000Y-88990000D01*
X97817815Y-88990000D01*
X97846487Y-89281111D01*
X97931401Y-89561034D01*
X98069294Y-89819014D01*
X98254866Y-90045134D01*
X98480986Y-90230706D01*
X98535791Y-90260000D01*
X98480986Y-90289294D01*
X98254866Y-90474866D01*
X98069294Y-90700986D01*
X97931401Y-90958966D01*
X97846487Y-91238889D01*
X97817815Y-91530000D01*
X97846487Y-91821111D01*
X97931401Y-92101034D01*
X98069294Y-92359014D01*
X98254866Y-92585134D01*
X98480986Y-92770706D01*
X98535791Y-92800000D01*
X98480986Y-92829294D01*
X98254866Y-93014866D01*
X98069294Y-93240986D01*
X97931401Y-93498966D01*
X97846487Y-93778889D01*
X97817815Y-94070000D01*
X97846487Y-94361111D01*
X97931401Y-94641034D01*
X98069294Y-94899014D01*
X98254866Y-95125134D01*
X98480986Y-95310706D01*
X98738966Y-95448599D01*
X99018889Y-95533513D01*
X99237050Y-95555000D01*
X99382950Y-95555000D01*
X99601111Y-95533513D01*
X99881034Y-95448599D01*
X100139014Y-95310706D01*
X100365134Y-95125134D01*
X100550706Y-94899014D01*
X100688599Y-94641034D01*
X100773513Y-94361111D01*
X100802185Y-94070000D01*
X100777860Y-93823025D01*
X100838061Y-93835000D01*
X101041939Y-93835000D01*
X101241898Y-93795226D01*
X101430256Y-93717205D01*
X101599774Y-93603937D01*
X101743937Y-93459774D01*
X101857205Y-93290256D01*
X101935226Y-93101898D01*
X101975000Y-92901939D01*
X101975000Y-92698061D01*
X101935226Y-92498102D01*
X101857205Y-92309744D01*
X101743937Y-92140226D01*
X101700000Y-92096289D01*
X101700000Y-88898061D01*
X104765000Y-88898061D01*
X104765000Y-89101939D01*
X104804774Y-89301898D01*
X104882795Y-89490256D01*
X104996063Y-89659774D01*
X105140226Y-89803937D01*
X105309744Y-89917205D01*
X105498102Y-89995226D01*
X105698061Y-90035000D01*
X105901939Y-90035000D01*
X106101898Y-89995226D01*
X106290256Y-89917205D01*
X106459774Y-89803937D01*
X106603937Y-89659774D01*
X106717205Y-89490256D01*
X106795226Y-89301898D01*
X106835000Y-89101939D01*
X106835000Y-88898061D01*
X106795226Y-88698102D01*
X106717205Y-88509744D01*
X106603937Y-88340226D01*
X106459774Y-88196063D01*
X106290256Y-88082795D01*
X106101898Y-88004774D01*
X105901939Y-87965000D01*
X105698061Y-87965000D01*
X105498102Y-88004774D01*
X105309744Y-88082795D01*
X105140226Y-88196063D01*
X104996063Y-88340226D01*
X104882795Y-88509744D01*
X104804774Y-88698102D01*
X104765000Y-88898061D01*
X101700000Y-88898061D01*
X101700000Y-87298061D01*
X106765000Y-87298061D01*
X106765000Y-87501939D01*
X106804774Y-87701898D01*
X106882795Y-87890256D01*
X106996063Y-88059774D01*
X107140226Y-88203937D01*
X107309744Y-88317205D01*
X107498102Y-88395226D01*
X107698061Y-88435000D01*
X107901939Y-88435000D01*
X108101898Y-88395226D01*
X108290256Y-88317205D01*
X108459774Y-88203937D01*
X108603937Y-88059774D01*
X108717205Y-87890256D01*
X108795226Y-87701898D01*
X108835000Y-87501939D01*
X108835000Y-87298061D01*
X108795226Y-87098102D01*
X108717205Y-86909744D01*
X108603937Y-86740226D01*
X108459774Y-86596063D01*
X108290256Y-86482795D01*
X108101898Y-86404774D01*
X107901939Y-86365000D01*
X107698061Y-86365000D01*
X107498102Y-86404774D01*
X107309744Y-86482795D01*
X107140226Y-86596063D01*
X106996063Y-86740226D01*
X106882795Y-86909744D01*
X106804774Y-87098102D01*
X106765000Y-87298061D01*
X101700000Y-87298061D01*
X101700000Y-87017322D01*
X101703676Y-86979999D01*
X101700000Y-86942676D01*
X101700000Y-86942667D01*
X101689003Y-86831014D01*
X101645546Y-86687753D01*
X101574974Y-86555724D01*
X101480001Y-86439999D01*
X101451002Y-86416200D01*
X100973803Y-85939002D01*
X100950001Y-85909999D01*
X100834276Y-85815026D01*
X100798072Y-85795674D01*
X100798072Y-85600000D01*
X100785812Y-85475518D01*
X100749502Y-85355820D01*
X100690537Y-85245506D01*
X100611185Y-85148815D01*
X100514494Y-85069463D01*
X100404180Y-85010498D01*
X100284482Y-84974188D01*
X100160000Y-84961928D01*
X98460000Y-84961928D01*
X98335518Y-84974188D01*
X98215820Y-85010498D01*
X98105506Y-85069463D01*
X98008815Y-85148815D01*
X97929463Y-85245506D01*
X97870498Y-85355820D01*
X97834188Y-85475518D01*
X97821928Y-85600000D01*
X97821928Y-87300000D01*
X97834188Y-87424482D01*
X97870498Y-87544180D01*
X97929463Y-87654494D01*
X98008815Y-87751185D01*
X98105506Y-87830537D01*
X98215820Y-87889502D01*
X98284687Y-87910393D01*
X98254866Y-87934866D01*
X98069294Y-88160986D01*
X97931401Y-88418966D01*
X97846487Y-88698889D01*
X97817815Y-88990000D01*
X91710000Y-88990000D01*
X91710000Y-83804495D01*
X92015000Y-83804495D01*
X92015000Y-84195505D01*
X92091282Y-84579003D01*
X92240915Y-84940250D01*
X92458149Y-85265364D01*
X92734636Y-85541851D01*
X93059750Y-85759085D01*
X93420997Y-85908718D01*
X93804495Y-85985000D01*
X94195505Y-85985000D01*
X94579003Y-85908718D01*
X94940250Y-85759085D01*
X95265364Y-85541851D01*
X95541851Y-85265364D01*
X95759085Y-84940250D01*
X95908718Y-84579003D01*
X95985000Y-84195505D01*
X95985000Y-83804495D01*
X134015000Y-83804495D01*
X134015000Y-84195505D01*
X134091282Y-84579003D01*
X134240915Y-84940250D01*
X134458149Y-85265364D01*
X134734636Y-85541851D01*
X135059750Y-85759085D01*
X135420997Y-85908718D01*
X135804495Y-85985000D01*
X136195505Y-85985000D01*
X136579003Y-85908718D01*
X136940250Y-85759085D01*
X137265364Y-85541851D01*
X137541851Y-85265364D01*
X137759085Y-84940250D01*
X137908718Y-84579003D01*
X137985000Y-84195505D01*
X137985000Y-83804495D01*
X137908718Y-83420997D01*
X137759085Y-83059750D01*
X137541851Y-82734636D01*
X137265364Y-82458149D01*
X136940250Y-82240915D01*
X136579003Y-82091282D01*
X136195505Y-82015000D01*
X135804495Y-82015000D01*
X135420997Y-82091282D01*
X135059750Y-82240915D01*
X134734636Y-82458149D01*
X134458149Y-82734636D01*
X134240915Y-83059750D01*
X134091282Y-83420997D01*
X134015000Y-83804495D01*
X95985000Y-83804495D01*
X95908718Y-83420997D01*
X95759085Y-83059750D01*
X95541851Y-82734636D01*
X95265364Y-82458149D01*
X94940250Y-82240915D01*
X94579003Y-82091282D01*
X94195505Y-82015000D01*
X93804495Y-82015000D01*
X93420997Y-82091282D01*
X93059750Y-82240915D01*
X92734636Y-82458149D01*
X92458149Y-82734636D01*
X92240915Y-83059750D01*
X92091282Y-83420997D01*
X92015000Y-83804495D01*
X91710000Y-83804495D01*
X91710000Y-81710000D01*
X138290001Y-81710000D01*
X138290001Y-99765000D01*
X138290001Y-99765000D01*
G37*
X138290001Y-99765000D02*
X126802456Y-99765000D01*
X126775226Y-99628102D01*
X126697205Y-99439744D01*
X126583937Y-99270226D01*
X126439774Y-99126063D01*
X126270256Y-99012795D01*
X126081898Y-98934774D01*
X125881939Y-98895000D01*
X125678061Y-98895000D01*
X125478102Y-98934774D01*
X125289744Y-99012795D01*
X125120226Y-99126063D01*
X124976063Y-99270226D01*
X124862795Y-99439744D01*
X124784774Y-99628102D01*
X124757544Y-99765000D01*
X123000000Y-99765000D01*
X122876118Y-99777201D01*
X122756996Y-99813336D01*
X122647213Y-99872017D01*
X122550987Y-99950987D01*
X122535000Y-99970467D01*
X122535000Y-93978711D01*
X122660226Y-94103937D01*
X122829744Y-94217205D01*
X123018102Y-94295226D01*
X123218061Y-94335000D01*
X123421939Y-94335000D01*
X123621898Y-94295226D01*
X123810256Y-94217205D01*
X123979774Y-94103937D01*
X124123937Y-93959774D01*
X124237205Y-93790256D01*
X124315226Y-93601898D01*
X124355000Y-93401939D01*
X124355000Y-93198061D01*
X124315226Y-92998102D01*
X124237205Y-92809744D01*
X124123937Y-92640226D01*
X123979774Y-92496063D01*
X123810256Y-92382795D01*
X123621898Y-92304774D01*
X123421939Y-92265000D01*
X123218061Y-92265000D01*
X123018102Y-92304774D01*
X122829744Y-92382795D01*
X122660226Y-92496063D01*
X122516063Y-92640226D01*
X122465054Y-92716567D01*
X122427983Y-92647213D01*
X122349013Y-92550987D01*
X122252787Y-92472017D01*
X122143004Y-92413336D01*
X122023882Y-92377201D01*
X121900000Y-92365000D01*
X119760670Y-92365000D01*
X119777205Y-92340254D01*
X119855226Y-92151896D01*
X119895000Y-91951937D01*
X119895000Y-91748059D01*
X119855226Y-91548100D01*
X119810450Y-91440000D01*
X129587815Y-91440000D01*
X129616487Y-91731111D01*
X129701401Y-92011034D01*
X129839294Y-92269014D01*
X130024866Y-92495134D01*
X130250986Y-92680706D01*
X130305791Y-92710000D01*
X130250986Y-92739294D01*
X130024866Y-92924866D01*
X129839294Y-93150986D01*
X129701401Y-93408966D01*
X129616487Y-93688889D01*
X129587815Y-93980000D01*
X129616487Y-94271111D01*
X129701401Y-94551034D01*
X129839294Y-94809014D01*
X130024866Y-95035134D01*
X130250986Y-95220706D01*
X130305791Y-95250000D01*
X130250986Y-95279294D01*
X130024866Y-95464866D01*
X129839294Y-95690986D01*
X129701401Y-95948966D01*
X129616487Y-96228889D01*
X129587815Y-96520000D01*
X129616487Y-96811111D01*
X129701401Y-97091034D01*
X129839294Y-97349014D01*
X130024866Y-97575134D01*
X130250986Y-97760706D01*
X130508966Y-97898599D01*
X130788889Y-97983513D01*
X131007050Y-98005000D01*
X131152950Y-98005000D01*
X131371111Y-97983513D01*
X131651034Y-97898599D01*
X131909014Y-97760706D01*
X132135134Y-97575134D01*
X132320706Y-97349014D01*
X132458599Y-97091034D01*
X132543513Y-96811111D01*
X132572185Y-96520000D01*
X132543513Y-96228889D01*
X132458599Y-95948966D01*
X132320706Y-95690986D01*
X132135134Y-95464866D01*
X131909014Y-95279294D01*
X131854209Y-95250000D01*
X131909014Y-95220706D01*
X132135134Y-95035134D01*
X132320706Y-94809014D01*
X132458599Y-94551034D01*
X132543513Y-94271111D01*
X132572185Y-93980000D01*
X132543513Y-93688889D01*
X132458599Y-93408966D01*
X132320706Y-93150986D01*
X132135134Y-92924866D01*
X131909014Y-92739294D01*
X131854209Y-92710000D01*
X131909014Y-92680706D01*
X132135134Y-92495134D01*
X132320706Y-92269014D01*
X132458599Y-92011034D01*
X132543513Y-91731111D01*
X132572185Y-91440000D01*
X132543513Y-91148889D01*
X132458599Y-90868966D01*
X132320706Y-90610986D01*
X132135134Y-90384866D01*
X132105313Y-90360393D01*
X132174180Y-90339502D01*
X132284494Y-90280537D01*
X132381185Y-90201185D01*
X132460537Y-90104494D01*
X132519502Y-89994180D01*
X132555812Y-89874482D01*
X132568072Y-89750000D01*
X132568072Y-88050000D01*
X132555812Y-87925518D01*
X132519502Y-87805820D01*
X132460537Y-87695506D01*
X132381185Y-87598815D01*
X132284494Y-87519463D01*
X132174180Y-87460498D01*
X132054482Y-87424188D01*
X131930000Y-87411928D01*
X130230000Y-87411928D01*
X130105518Y-87424188D01*
X129985820Y-87460498D01*
X129875506Y-87519463D01*
X129778815Y-87598815D01*
X129699463Y-87695506D01*
X129640498Y-87805820D01*
X129604188Y-87925518D01*
X129591928Y-88050000D01*
X129591928Y-89750000D01*
X129604188Y-89874482D01*
X129640498Y-89994180D01*
X129699463Y-90104494D01*
X129778815Y-90201185D01*
X129875506Y-90280537D01*
X129985820Y-90339502D01*
X130054687Y-90360393D01*
X130024866Y-90384866D01*
X129839294Y-90610986D01*
X129701401Y-90868966D01*
X129616487Y-91148889D01*
X129587815Y-91440000D01*
X119810450Y-91440000D01*
X119777205Y-91359742D01*
X119663937Y-91190224D01*
X119519774Y-91046061D01*
X119350256Y-90932793D01*
X119161898Y-90854772D01*
X118961939Y-90814998D01*
X118758061Y-90814998D01*
X118558102Y-90854772D01*
X118369744Y-90932793D01*
X118200226Y-91046061D01*
X118056063Y-91190224D01*
X117942795Y-91359742D01*
X117864774Y-91548100D01*
X117825000Y-91748059D01*
X117825000Y-91951937D01*
X117864774Y-92151896D01*
X117942795Y-92340254D01*
X117959330Y-92365000D01*
X116607366Y-92365000D01*
X116620282Y-92345670D01*
X116698303Y-92157312D01*
X116738077Y-91957353D01*
X116738077Y-91753475D01*
X116698303Y-91553516D01*
X116620282Y-91365158D01*
X116507014Y-91195640D01*
X116362851Y-91051477D01*
X116193333Y-90938209D01*
X116004975Y-90860188D01*
X115805016Y-90820414D01*
X115601138Y-90820414D01*
X115401179Y-90860188D01*
X115212821Y-90938209D01*
X115043303Y-91051477D01*
X114899140Y-91195640D01*
X114785872Y-91365158D01*
X114707851Y-91553516D01*
X114668077Y-91753475D01*
X114668077Y-91957353D01*
X114707851Y-92157312D01*
X114785872Y-92345670D01*
X114798788Y-92365000D01*
X113500000Y-92365000D01*
X113376118Y-92377201D01*
X113256996Y-92413336D01*
X113147213Y-92472017D01*
X113050987Y-92550987D01*
X112972017Y-92647213D01*
X112913336Y-92756996D01*
X112877201Y-92876118D01*
X112865000Y-93000000D01*
X112865000Y-94187523D01*
X112845224Y-94088102D01*
X112767203Y-93899744D01*
X112653935Y-93730226D01*
X112509772Y-93586063D01*
X112340254Y-93472795D01*
X112151896Y-93394774D01*
X111951937Y-93355000D01*
X111748059Y-93355000D01*
X111548100Y-93394774D01*
X111359742Y-93472795D01*
X111190224Y-93586063D01*
X111046061Y-93730226D01*
X110932793Y-93899744D01*
X110854772Y-94088102D01*
X110814998Y-94288061D01*
X110814998Y-94491939D01*
X110854772Y-94691898D01*
X110932793Y-94880256D01*
X111046061Y-95049774D01*
X111190224Y-95193937D01*
X111359742Y-95307205D01*
X111548100Y-95385226D01*
X111748059Y-95425000D01*
X111951937Y-95425000D01*
X112151896Y-95385226D01*
X112340254Y-95307205D01*
X112509772Y-95193937D01*
X112653935Y-95049774D01*
X112767203Y-94880256D01*
X112845224Y-94691898D01*
X112865000Y-94592477D01*
X112865000Y-103500000D01*
X112874220Y-103607817D01*
X112885564Y-103648999D01*
X112739778Y-103620000D01*
X112580222Y-103620000D01*
X112423732Y-103651128D01*
X112276321Y-103712188D01*
X112160000Y-103789911D01*
X112043679Y-103712188D01*
X111896268Y-103651128D01*
X111739778Y-103620000D01*
X111580222Y-103620000D01*
X111423732Y-103651128D01*
X111276321Y-103712188D01*
X111143655Y-103800832D01*
X111030832Y-103913655D01*
X110942188Y-104046321D01*
X110881128Y-104193732D01*
X110850000Y-104350222D01*
X110850000Y-104509778D01*
X110881128Y-104666268D01*
X110942188Y-104813679D01*
X111030832Y-104946345D01*
X111143655Y-105059168D01*
X111276321Y-105147812D01*
X111423732Y-105208872D01*
X111580222Y-105240000D01*
X111739778Y-105240000D01*
X111877369Y-105212631D01*
X111850000Y-105350222D01*
X111850000Y-105509778D01*
X111881128Y-105666268D01*
X111942188Y-105813679D01*
X112030832Y-105946345D01*
X112143655Y-106059168D01*
X112276321Y-106147812D01*
X112423732Y-106208872D01*
X112580222Y-106240000D01*
X112739778Y-106240000D01*
X112896268Y-106208872D01*
X113043679Y-106147812D01*
X113176345Y-106059168D01*
X113289168Y-105946345D01*
X113377812Y-105813679D01*
X113438872Y-105666268D01*
X113470000Y-105509778D01*
X113470000Y-105350222D01*
X113442631Y-105212631D01*
X113580222Y-105240000D01*
X113739778Y-105240000D01*
X113835835Y-105220893D01*
X114163115Y-105739086D01*
X114250987Y-105849013D01*
X114347213Y-105927983D01*
X114456996Y-105986664D01*
X114576118Y-106022799D01*
X114700000Y-106035000D01*
X120600000Y-106035000D01*
X120717023Y-106024124D01*
X120836535Y-105989301D01*
X120946957Y-105931832D01*
X121044046Y-105853925D01*
X121124070Y-105758574D01*
X122365000Y-103944907D01*
X122365000Y-106027146D01*
X122289168Y-105913655D01*
X122176345Y-105800832D01*
X122043679Y-105712188D01*
X121896268Y-105651128D01*
X121739778Y-105620000D01*
X121580222Y-105620000D01*
X121423732Y-105651128D01*
X121276321Y-105712188D01*
X121143655Y-105800832D01*
X121030832Y-105913655D01*
X120942188Y-106046321D01*
X120881128Y-106193732D01*
X120850000Y-106350222D01*
X120850000Y-106509778D01*
X120881128Y-106666268D01*
X120942188Y-106813679D01*
X121030832Y-106946345D01*
X121143655Y-107059168D01*
X121276321Y-107147812D01*
X121423732Y-107208872D01*
X121580222Y-107240000D01*
X121739778Y-107240000D01*
X121896268Y-107208872D01*
X122043679Y-107147812D01*
X122176345Y-107059168D01*
X122289168Y-106946345D01*
X122365000Y-106832854D01*
X122365000Y-108027146D01*
X122289168Y-107913655D01*
X122176345Y-107800832D01*
X122043679Y-107712188D01*
X121896268Y-107651128D01*
X121739778Y-107620000D01*
X121580222Y-107620000D01*
X121423732Y-107651128D01*
X121276321Y-107712188D01*
X121143655Y-107800832D01*
X121030832Y-107913655D01*
X120942188Y-108046321D01*
X120881128Y-108193732D01*
X120850000Y-108350222D01*
X120850000Y-108509778D01*
X120881128Y-108666268D01*
X120942188Y-108813679D01*
X121019911Y-108930000D01*
X120942188Y-109046321D01*
X120897392Y-109154466D01*
X119371305Y-110273597D01*
X119361532Y-110280909D01*
X117226468Y-111910646D01*
X116604711Y-112385245D01*
X116539546Y-112442433D01*
X116460885Y-112538912D01*
X116402558Y-112648884D01*
X116366806Y-112768121D01*
X116355003Y-112892042D01*
X116357532Y-113678549D01*
X116276321Y-113712188D01*
X116143655Y-113800832D01*
X116030832Y-113913655D01*
X115942188Y-114046321D01*
X115881128Y-114193732D01*
X115850000Y-114350222D01*
X115850000Y-114509778D01*
X115881128Y-114666268D01*
X115942188Y-114813679D01*
X116030832Y-114946345D01*
X116143655Y-115059168D01*
X116276321Y-115147812D01*
X116362371Y-115183455D01*
X116364456Y-115831833D01*
X116346063Y-115850226D01*
X116232795Y-116019744D01*
X116195000Y-116110989D01*
X116195000Y-115978061D01*
X116155226Y-115778102D01*
X116077205Y-115589744D01*
X115963937Y-115420226D01*
X115819774Y-115276063D01*
X115650256Y-115162795D01*
X115461898Y-115084774D01*
X115261939Y-115045000D01*
X115190513Y-115045000D01*
X115289168Y-114946345D01*
X115377812Y-114813679D01*
X115438872Y-114666268D01*
X115470000Y-114509778D01*
X115470000Y-114350222D01*
X115438872Y-114193732D01*
X115377812Y-114046321D01*
X115289168Y-113913655D01*
X115176345Y-113800832D01*
X115043679Y-113712188D01*
X114896268Y-113651128D01*
X114739778Y-113620000D01*
X114580222Y-113620000D01*
X114423732Y-113651128D01*
X114276321Y-113712188D01*
X114143655Y-113800832D01*
X114030832Y-113913655D01*
X113942188Y-114046321D01*
X113881128Y-114193732D01*
X113850000Y-114350222D01*
X113850000Y-114509778D01*
X113881128Y-114666268D01*
X113942188Y-114813679D01*
X114030832Y-114946345D01*
X114143655Y-115059168D01*
X114276321Y-115147812D01*
X114423732Y-115208872D01*
X114560168Y-115236011D01*
X114500226Y-115276063D01*
X114416802Y-115359487D01*
X113470000Y-114412686D01*
X113470000Y-114350222D01*
X113438872Y-114193732D01*
X113377812Y-114046321D01*
X113300089Y-113930000D01*
X113377812Y-113813679D01*
X113438872Y-113666268D01*
X113470000Y-113509778D01*
X113470000Y-113350222D01*
X113438872Y-113193732D01*
X113377812Y-113046321D01*
X113289168Y-112913655D01*
X113176345Y-112800832D01*
X113043679Y-112712188D01*
X112896268Y-112651128D01*
X112739778Y-112620000D01*
X112580222Y-112620000D01*
X112423732Y-112651128D01*
X112276321Y-112712188D01*
X112143655Y-112800832D01*
X112030832Y-112913655D01*
X111942188Y-113046321D01*
X111881128Y-113193732D01*
X111850000Y-113350222D01*
X111850000Y-113509778D01*
X111881128Y-113666268D01*
X111942188Y-113813679D01*
X112019911Y-113930000D01*
X111942188Y-114046321D01*
X111881128Y-114193732D01*
X111850000Y-114350222D01*
X111850000Y-114509778D01*
X111881128Y-114666268D01*
X111899615Y-114710899D01*
X111900000Y-114714809D01*
X111900000Y-114714820D01*
X111910997Y-114826473D01*
X111954454Y-114969734D01*
X112025026Y-115101763D01*
X112119999Y-115217488D01*
X112149001Y-115241289D01*
X114328713Y-117421002D01*
X114352511Y-117450000D01*
X114468236Y-117544973D01*
X114600265Y-117615545D01*
X114743526Y-117659002D01*
X114855179Y-117669999D01*
X114855187Y-117669999D01*
X114892512Y-117673675D01*
X114929837Y-117669999D01*
X116712679Y-117669999D01*
X116750001Y-117673675D01*
X116787323Y-117669999D01*
X116787334Y-117669999D01*
X116898987Y-117659002D01*
X117042248Y-117615545D01*
X117174226Y-117545000D01*
X117251939Y-117545000D01*
X117451898Y-117505226D01*
X117640256Y-117427205D01*
X117809774Y-117313937D01*
X117949190Y-117174521D01*
X117966063Y-117199774D01*
X118110226Y-117343937D01*
X118279744Y-117457205D01*
X118468102Y-117535226D01*
X118668061Y-117575000D01*
X118871939Y-117575000D01*
X119071898Y-117535226D01*
X119260256Y-117457205D01*
X119429774Y-117343937D01*
X119573937Y-117199774D01*
X119687205Y-117030256D01*
X119765226Y-116841898D01*
X119805000Y-116641939D01*
X119805000Y-116635000D01*
X123235554Y-116635000D01*
X123225000Y-116688061D01*
X123225000Y-116891939D01*
X123264774Y-117091898D01*
X123342795Y-117280256D01*
X123456063Y-117449774D01*
X123600226Y-117593937D01*
X123769744Y-117707205D01*
X123958102Y-117785226D01*
X124158061Y-117825000D01*
X124361939Y-117825000D01*
X124561898Y-117785226D01*
X124750256Y-117707205D01*
X124919774Y-117593937D01*
X125063937Y-117449774D01*
X125177205Y-117280256D01*
X125255226Y-117091898D01*
X125295000Y-116891939D01*
X125295000Y-116688061D01*
X125284446Y-116635000D01*
X128090198Y-116635000D01*
X125925199Y-118800000D01*
X111269117Y-118800000D01*
X111181271Y-118712155D01*
X111235226Y-118581898D01*
X111275000Y-118381939D01*
X111275000Y-118178061D01*
X111235226Y-117978102D01*
X111157205Y-117789744D01*
X111043937Y-117620226D01*
X110899774Y-117476063D01*
X110730256Y-117362795D01*
X110541898Y-117284774D01*
X110341939Y-117245000D01*
X110138061Y-117245000D01*
X109938102Y-117284774D01*
X109749744Y-117362795D01*
X109580226Y-117476063D01*
X109436063Y-117620226D01*
X109322795Y-117789744D01*
X109244774Y-117978102D01*
X109205000Y-118178061D01*
X109205000Y-118381939D01*
X109244774Y-118581898D01*
X109322795Y-118770256D01*
X109436063Y-118939774D01*
X109491013Y-118994724D01*
X109534454Y-119137932D01*
X109559037Y-119183921D01*
X109605026Y-119269961D01*
X109676201Y-119356687D01*
X109700000Y-119385686D01*
X109728998Y-119409484D01*
X110390516Y-120071002D01*
X110414314Y-120100001D01*
X110443312Y-120123799D01*
X110530038Y-120194974D01*
X110606910Y-120236063D01*
X110662068Y-120265546D01*
X110805329Y-120309003D01*
X110916982Y-120320000D01*
X110916992Y-120320000D01*
X110954315Y-120323676D01*
X110991638Y-120320000D01*
X126202678Y-120320000D01*
X126240000Y-120323676D01*
X126277322Y-120320000D01*
X126277333Y-120320000D01*
X126388986Y-120309003D01*
X126532247Y-120265546D01*
X126664276Y-120194974D01*
X126780001Y-120100001D01*
X126803804Y-120070997D01*
X130239803Y-116635000D01*
X138290000Y-116635000D01*
X138290000Y-129290000D01*
X91710000Y-129290000D01*
X91710000Y-126804495D01*
X92015000Y-126804495D01*
X92015000Y-127195505D01*
X92091282Y-127579003D01*
X92240915Y-127940250D01*
X92458149Y-128265364D01*
X92734636Y-128541851D01*
X93059750Y-128759085D01*
X93420997Y-128908718D01*
X93804495Y-128985000D01*
X94195505Y-128985000D01*
X94579003Y-128908718D01*
X94940250Y-128759085D01*
X95265364Y-128541851D01*
X95541851Y-128265364D01*
X95759085Y-127940250D01*
X95908718Y-127579003D01*
X95985000Y-127195505D01*
X95985000Y-126804495D01*
X134015000Y-126804495D01*
X134015000Y-127195505D01*
X134091282Y-127579003D01*
X134240915Y-127940250D01*
X134458149Y-128265364D01*
X134734636Y-128541851D01*
X135059750Y-128759085D01*
X135420997Y-128908718D01*
X135804495Y-128985000D01*
X136195505Y-128985000D01*
X136579003Y-128908718D01*
X136940250Y-128759085D01*
X137265364Y-128541851D01*
X137541851Y-128265364D01*
X137759085Y-127940250D01*
X137908718Y-127579003D01*
X137985000Y-127195505D01*
X137985000Y-126804495D01*
X137908718Y-126420997D01*
X137759085Y-126059750D01*
X137541851Y-125734636D01*
X137265364Y-125458149D01*
X136940250Y-125240915D01*
X136579003Y-125091282D01*
X136195505Y-125015000D01*
X135804495Y-125015000D01*
X135420997Y-125091282D01*
X135059750Y-125240915D01*
X134734636Y-125458149D01*
X134458149Y-125734636D01*
X134240915Y-126059750D01*
X134091282Y-126420997D01*
X134015000Y-126804495D01*
X95985000Y-126804495D01*
X95908718Y-126420997D01*
X95759085Y-126059750D01*
X95541851Y-125734636D01*
X95265364Y-125458149D01*
X94940250Y-125240915D01*
X94579003Y-125091282D01*
X94195505Y-125015000D01*
X93804495Y-125015000D01*
X93420997Y-125091282D01*
X93059750Y-125240915D01*
X92734636Y-125458149D01*
X92458149Y-125734636D01*
X92240915Y-126059750D01*
X92091282Y-126420997D01*
X92015000Y-126804495D01*
X91710000Y-126804495D01*
X91710000Y-122950000D01*
X97111928Y-122950000D01*
X97111928Y-124650000D01*
X97124188Y-124774482D01*
X97160498Y-124894180D01*
X97219463Y-125004494D01*
X97298815Y-125101185D01*
X97395506Y-125180537D01*
X97505820Y-125239502D01*
X97625518Y-125275812D01*
X97750000Y-125288072D01*
X99450000Y-125288072D01*
X99574482Y-125275812D01*
X99694180Y-125239502D01*
X99804494Y-125180537D01*
X99901185Y-125101185D01*
X99980537Y-125004494D01*
X100039502Y-124894180D01*
X100075812Y-124774482D01*
X100088072Y-124650000D01*
X100088072Y-122950000D01*
X128911928Y-122950000D01*
X128911928Y-124650000D01*
X128924188Y-124774482D01*
X128960498Y-124894180D01*
X129019463Y-125004494D01*
X129098815Y-125101185D01*
X129195506Y-125180537D01*
X129305820Y-125239502D01*
X129425518Y-125275812D01*
X129550000Y-125288072D01*
X131250000Y-125288072D01*
X131374482Y-125275812D01*
X131494180Y-125239502D01*
X131604494Y-125180537D01*
X131701185Y-125101185D01*
X131780537Y-125004494D01*
X131839502Y-124894180D01*
X131875812Y-124774482D01*
X131888072Y-124650000D01*
X131888072Y-122950000D01*
X131875812Y-122825518D01*
X131839502Y-122705820D01*
X131780537Y-122595506D01*
X131701185Y-122498815D01*
X131604494Y-122419463D01*
X131494180Y-122360498D01*
X131374482Y-122324188D01*
X131250000Y-122311928D01*
X129550000Y-122311928D01*
X129425518Y-122324188D01*
X129305820Y-122360498D01*
X129195506Y-122419463D01*
X129098815Y-122498815D01*
X129019463Y-122595506D01*
X128960498Y-122705820D01*
X128924188Y-122825518D01*
X128911928Y-122950000D01*
X100088072Y-122950000D01*
X100075812Y-122825518D01*
X100039502Y-122705820D01*
X99980537Y-122595506D01*
X99901185Y-122498815D01*
X99804494Y-122419463D01*
X99694180Y-122360498D01*
X99574482Y-122324188D01*
X99450000Y-122311928D01*
X97750000Y-122311928D01*
X97625518Y-122324188D01*
X97505820Y-122360498D01*
X97395506Y-122419463D01*
X97298815Y-122498815D01*
X97219463Y-122595506D01*
X97160498Y-122705820D01*
X97124188Y-122825518D01*
X97111928Y-122950000D01*
X91710000Y-122950000D01*
X91710000Y-121418061D01*
X126815000Y-121418061D01*
X126815000Y-121621939D01*
X126854774Y-121821898D01*
X126932795Y-122010256D01*
X127046063Y-122179774D01*
X127190226Y-122323937D01*
X127359744Y-122437205D01*
X127548102Y-122515226D01*
X127748061Y-122555000D01*
X127951939Y-122555000D01*
X128151898Y-122515226D01*
X128340256Y-122437205D01*
X128509774Y-122323937D01*
X128653937Y-122179774D01*
X128738505Y-122053208D01*
X128848061Y-122075000D01*
X129051939Y-122075000D01*
X129251898Y-122035226D01*
X129440256Y-121957205D01*
X129609774Y-121843937D01*
X129753937Y-121699774D01*
X129867205Y-121530256D01*
X129945226Y-121341898D01*
X129985000Y-121141939D01*
X129985000Y-120938061D01*
X129945226Y-120738102D01*
X129867205Y-120549744D01*
X129753937Y-120380226D01*
X129609774Y-120236063D01*
X129440256Y-120122795D01*
X129251898Y-120044774D01*
X129051939Y-120005000D01*
X128848061Y-120005000D01*
X128648102Y-120044774D01*
X128459744Y-120122795D01*
X128290226Y-120236063D01*
X128146063Y-120380226D01*
X128061495Y-120506792D01*
X127951939Y-120485000D01*
X127748061Y-120485000D01*
X127548102Y-120524774D01*
X127359744Y-120602795D01*
X127190226Y-120716063D01*
X127046063Y-120860226D01*
X126932795Y-121029744D01*
X126854774Y-121218102D01*
X126815000Y-121418061D01*
X91710000Y-121418061D01*
X91710000Y-117408061D01*
X103575000Y-117408061D01*
X103575000Y-117611939D01*
X103614774Y-117811898D01*
X103692795Y-118000256D01*
X103806063Y-118169774D01*
X103950226Y-118313937D01*
X104119744Y-118427205D01*
X104308102Y-118505226D01*
X104508061Y-118545000D01*
X104711939Y-118545000D01*
X104911898Y-118505226D01*
X105100256Y-118427205D01*
X105269774Y-118313937D01*
X105413937Y-118169774D01*
X105527205Y-118000256D01*
X105605226Y-117811898D01*
X105645000Y-117611939D01*
X105645000Y-117408061D01*
X105605226Y-117208102D01*
X105527205Y-117019744D01*
X105497285Y-116974966D01*
X105547205Y-116900256D01*
X105625226Y-116711898D01*
X105665000Y-116511939D01*
X105665000Y-116308061D01*
X105625226Y-116108102D01*
X105547205Y-115919744D01*
X105433937Y-115750226D01*
X105289774Y-115606063D01*
X105120256Y-115492795D01*
X104931898Y-115414774D01*
X104731939Y-115375000D01*
X104528061Y-115375000D01*
X104328102Y-115414774D01*
X104139744Y-115492795D01*
X103970226Y-115606063D01*
X103826063Y-115750226D01*
X103712795Y-115919744D01*
X103634774Y-116108102D01*
X103595000Y-116308061D01*
X103595000Y-116511939D01*
X103634774Y-116711898D01*
X103712795Y-116900256D01*
X103742715Y-116945034D01*
X103692795Y-117019744D01*
X103614774Y-117208102D01*
X103575000Y-117408061D01*
X91710000Y-117408061D01*
X91710000Y-113318061D01*
X108755000Y-113318061D01*
X108755000Y-113521939D01*
X108794774Y-113721898D01*
X108872795Y-113910256D01*
X108986063Y-114079774D01*
X109130226Y-114223937D01*
X109299744Y-114337205D01*
X109488102Y-114415226D01*
X109688061Y-114455000D01*
X109891939Y-114455000D01*
X110091898Y-114415226D01*
X110280256Y-114337205D01*
X110449774Y-114223937D01*
X110593937Y-114079774D01*
X110707205Y-113910256D01*
X110785226Y-113721898D01*
X110825000Y-113521939D01*
X110825000Y-113318061D01*
X110785226Y-113118102D01*
X110707205Y-112929744D01*
X110593937Y-112760226D01*
X110449774Y-112616063D01*
X110280256Y-112502795D01*
X110091898Y-112424774D01*
X109891939Y-112385000D01*
X109688061Y-112385000D01*
X109488102Y-112424774D01*
X109299744Y-112502795D01*
X109130226Y-112616063D01*
X108986063Y-112760226D01*
X108872795Y-112929744D01*
X108794774Y-113118102D01*
X108755000Y-113318061D01*
X91710000Y-113318061D01*
X91710000Y-107620222D01*
X102265002Y-107620222D01*
X102265002Y-107779778D01*
X102296130Y-107936268D01*
X102322529Y-108000000D01*
X102296130Y-108063732D01*
X102265002Y-108220222D01*
X102265002Y-108379778D01*
X102296130Y-108536268D01*
X102357190Y-108683679D01*
X102445834Y-108816345D01*
X102558657Y-108929168D01*
X102691323Y-109017812D01*
X102838734Y-109078872D01*
X102995224Y-109110000D01*
X103154780Y-109110000D01*
X103311270Y-109078872D01*
X103458681Y-109017812D01*
X103591347Y-108929168D01*
X103704170Y-108816345D01*
X103792814Y-108683679D01*
X103853874Y-108536268D01*
X103885002Y-108379778D01*
X103885002Y-108220222D01*
X103853874Y-108063732D01*
X103827475Y-108000000D01*
X103853874Y-107936268D01*
X103872554Y-107842355D01*
X108267867Y-107842355D01*
X108267867Y-108001911D01*
X108298995Y-108158401D01*
X108360055Y-108305812D01*
X108448699Y-108438478D01*
X108561522Y-108551301D01*
X108694188Y-108639945D01*
X108841599Y-108701005D01*
X108998089Y-108732133D01*
X109157645Y-108732133D01*
X109314135Y-108701005D01*
X109461546Y-108639945D01*
X109594212Y-108551301D01*
X109707035Y-108438478D01*
X109731305Y-108402155D01*
X109760832Y-108446345D01*
X109873655Y-108559168D01*
X110006321Y-108647812D01*
X110153732Y-108708872D01*
X110270621Y-108732123D01*
X110246321Y-108742188D01*
X110113655Y-108830832D01*
X110000832Y-108943655D01*
X109912188Y-109076321D01*
X109851128Y-109223732D01*
X109820000Y-109380222D01*
X109820000Y-109539778D01*
X109851128Y-109696268D01*
X109912188Y-109843679D01*
X109993229Y-109964966D01*
X109932188Y-110056321D01*
X109878656Y-110185559D01*
X109843679Y-110162188D01*
X109696268Y-110101128D01*
X109539778Y-110070000D01*
X109380222Y-110070000D01*
X109223732Y-110101128D01*
X109076321Y-110162188D01*
X108943655Y-110250832D01*
X108830832Y-110363655D01*
X108742188Y-110496321D01*
X108681128Y-110643732D01*
X108650000Y-110800222D01*
X108650000Y-110959778D01*
X108681128Y-111116268D01*
X108707527Y-111180000D01*
X108681128Y-111243732D01*
X108650000Y-111400222D01*
X108650000Y-111559778D01*
X108681128Y-111716268D01*
X108742188Y-111863679D01*
X108830832Y-111996345D01*
X108943655Y-112109168D01*
X109076321Y-112197812D01*
X109223732Y-112258872D01*
X109380222Y-112290000D01*
X109539778Y-112290000D01*
X109696268Y-112258872D01*
X109843679Y-112197812D01*
X109976345Y-112109168D01*
X110089168Y-111996345D01*
X110177812Y-111863679D01*
X110232938Y-111730595D01*
X110280222Y-111740000D01*
X110439778Y-111740000D01*
X110596268Y-111708872D01*
X110743679Y-111647812D01*
X110861762Y-111568912D01*
X110881128Y-111666268D01*
X110942188Y-111813679D01*
X111030832Y-111946345D01*
X111143655Y-112059168D01*
X111276321Y-112147812D01*
X111423732Y-112208872D01*
X111580222Y-112240000D01*
X111739778Y-112240000D01*
X111896268Y-112208872D01*
X112043679Y-112147812D01*
X112176345Y-112059168D01*
X112289168Y-111946345D01*
X112377812Y-111813679D01*
X112438872Y-111666268D01*
X112470000Y-111509778D01*
X112470000Y-111350222D01*
X112438872Y-111193732D01*
X112377812Y-111046321D01*
X112300089Y-110930000D01*
X112377812Y-110813679D01*
X112438872Y-110666268D01*
X112470000Y-110509778D01*
X112470000Y-110350222D01*
X112438872Y-110193732D01*
X112377812Y-110046321D01*
X112300089Y-109930000D01*
X112377812Y-109813679D01*
X112438872Y-109666268D01*
X112470000Y-109509778D01*
X112470000Y-109350222D01*
X112438872Y-109193732D01*
X112377812Y-109046321D01*
X112305089Y-108937483D01*
X112387812Y-108813679D01*
X112448872Y-108666268D01*
X112480000Y-108509778D01*
X112480000Y-108350222D01*
X112448872Y-108193732D01*
X112387812Y-108046321D01*
X112305089Y-107922517D01*
X112377812Y-107813679D01*
X112438872Y-107666268D01*
X112470000Y-107509778D01*
X112470000Y-107350222D01*
X112438872Y-107193732D01*
X112377812Y-107046321D01*
X112289168Y-106913655D01*
X112176345Y-106800832D01*
X112043679Y-106712188D01*
X111896268Y-106651128D01*
X111739778Y-106620000D01*
X111580222Y-106620000D01*
X111442631Y-106647369D01*
X111470000Y-106509778D01*
X111470000Y-106350222D01*
X111438872Y-106193732D01*
X111377812Y-106046321D01*
X111289168Y-105913655D01*
X111176345Y-105800832D01*
X111043679Y-105712188D01*
X110896268Y-105651128D01*
X110739778Y-105620000D01*
X110633708Y-105620000D01*
X110642133Y-105577645D01*
X110642133Y-105418089D01*
X110611005Y-105261599D01*
X110549945Y-105114188D01*
X110461301Y-104981522D01*
X110348478Y-104868699D01*
X110215812Y-104780055D01*
X110068401Y-104718995D01*
X109911911Y-104687867D01*
X109752355Y-104687867D01*
X109595865Y-104718995D01*
X109448454Y-104780055D01*
X109315788Y-104868699D01*
X109202965Y-104981522D01*
X109114321Y-105114188D01*
X109087922Y-105177922D01*
X109024188Y-105204321D01*
X108891522Y-105292965D01*
X108778699Y-105405788D01*
X108690055Y-105538454D01*
X108628995Y-105685865D01*
X108597867Y-105842355D01*
X108597867Y-106001911D01*
X108628995Y-106158401D01*
X108690055Y-106305812D01*
X108778699Y-106438478D01*
X108891522Y-106551301D01*
X109024188Y-106639945D01*
X109171599Y-106701005D01*
X109264624Y-106719509D01*
X109118454Y-106780055D01*
X108985788Y-106868699D01*
X108872965Y-106981522D01*
X108784321Y-107114188D01*
X108757922Y-107177922D01*
X108694188Y-107204321D01*
X108561522Y-107292965D01*
X108448699Y-107405788D01*
X108360055Y-107538454D01*
X108298995Y-107685865D01*
X108267867Y-107842355D01*
X103872554Y-107842355D01*
X103885002Y-107779778D01*
X103885002Y-107620222D01*
X103853874Y-107463732D01*
X103800540Y-107334973D01*
X103819168Y-107316345D01*
X103907812Y-107183679D01*
X103968872Y-107036268D01*
X104000000Y-106879778D01*
X104000000Y-106720222D01*
X103968872Y-106563732D01*
X103942473Y-106500000D01*
X103968872Y-106436268D01*
X104000000Y-106279778D01*
X104000000Y-106120222D01*
X103968872Y-105963732D01*
X103907812Y-105816321D01*
X103819168Y-105683655D01*
X103706345Y-105570832D01*
X103573679Y-105482188D01*
X103426268Y-105421128D01*
X103269778Y-105390000D01*
X103110222Y-105390000D01*
X102953732Y-105421128D01*
X102806321Y-105482188D01*
X102673655Y-105570832D01*
X102560832Y-105683655D01*
X102472188Y-105816321D01*
X102411128Y-105963732D01*
X102380000Y-106120222D01*
X102380000Y-106279778D01*
X102411128Y-106436268D01*
X102437527Y-106500000D01*
X102411128Y-106563732D01*
X102380000Y-106720222D01*
X102380000Y-106879778D01*
X102411128Y-107036268D01*
X102464462Y-107165027D01*
X102445834Y-107183655D01*
X102357190Y-107316321D01*
X102296130Y-107463732D01*
X102265002Y-107620222D01*
X91710000Y-107620222D01*
X91710000Y-103218061D01*
X97275000Y-103218061D01*
X97275000Y-103421939D01*
X97314774Y-103621898D01*
X97392795Y-103810256D01*
X97506063Y-103979774D01*
X97650226Y-104123937D01*
X97819744Y-104237205D01*
X98008102Y-104315226D01*
X98208061Y-104355000D01*
X98411939Y-104355000D01*
X98611898Y-104315226D01*
X98800256Y-104237205D01*
X98969774Y-104123937D01*
X99113937Y-103979774D01*
X99227205Y-103810256D01*
X99305226Y-103621898D01*
X99345000Y-103421939D01*
X99345000Y-103218061D01*
X99305226Y-103018102D01*
X99227205Y-102829744D01*
X99113937Y-102660226D01*
X98969774Y-102516063D01*
X98800256Y-102402795D01*
X98611898Y-102324774D01*
X98411939Y-102285000D01*
X98208061Y-102285000D01*
X98008102Y-102324774D01*
X97819744Y-102402795D01*
X97650226Y-102516063D01*
X97506063Y-102660226D01*
X97392795Y-102829744D01*
X97314774Y-103018102D01*
X97275000Y-103218061D01*
X91710000Y-103218061D01*
X91710000Y-99828061D01*
X97285000Y-99828061D01*
X97285000Y-100031939D01*
X97324774Y-100231898D01*
X97402795Y-100420256D01*
X97516063Y-100589774D01*
X97660226Y-100733937D01*
X97829744Y-100847205D01*
X98018102Y-100925226D01*
X98218061Y-100965000D01*
X98421939Y-100965000D01*
X98621898Y-100925226D01*
X98810256Y-100847205D01*
X98979774Y-100733937D01*
X99123937Y-100589774D01*
X99237205Y-100420256D01*
X99315226Y-100231898D01*
X99355000Y-100031939D01*
X99355000Y-99828061D01*
X99315226Y-99628102D01*
X99237205Y-99439744D01*
X99123937Y-99270226D01*
X98979774Y-99126063D01*
X98810256Y-99012795D01*
X98621898Y-98934774D01*
X98421939Y-98895000D01*
X98218061Y-98895000D01*
X98018102Y-98934774D01*
X97829744Y-99012795D01*
X97660226Y-99126063D01*
X97516063Y-99270226D01*
X97402795Y-99439744D01*
X97324774Y-99628102D01*
X97285000Y-99828061D01*
X91710000Y-99828061D01*
X91710000Y-88990000D01*
X97817815Y-88990000D01*
X97846487Y-89281111D01*
X97931401Y-89561034D01*
X98069294Y-89819014D01*
X98254866Y-90045134D01*
X98480986Y-90230706D01*
X98535791Y-90260000D01*
X98480986Y-90289294D01*
X98254866Y-90474866D01*
X98069294Y-90700986D01*
X97931401Y-90958966D01*
X97846487Y-91238889D01*
X97817815Y-91530000D01*
X97846487Y-91821111D01*
X97931401Y-92101034D01*
X98069294Y-92359014D01*
X98254866Y-92585134D01*
X98480986Y-92770706D01*
X98535791Y-92800000D01*
X98480986Y-92829294D01*
X98254866Y-93014866D01*
X98069294Y-93240986D01*
X97931401Y-93498966D01*
X97846487Y-93778889D01*
X97817815Y-94070000D01*
X97846487Y-94361111D01*
X97931401Y-94641034D01*
X98069294Y-94899014D01*
X98254866Y-95125134D01*
X98480986Y-95310706D01*
X98738966Y-95448599D01*
X99018889Y-95533513D01*
X99237050Y-95555000D01*
X99382950Y-95555000D01*
X99601111Y-95533513D01*
X99881034Y-95448599D01*
X100139014Y-95310706D01*
X100365134Y-95125134D01*
X100550706Y-94899014D01*
X100688599Y-94641034D01*
X100773513Y-94361111D01*
X100802185Y-94070000D01*
X100777860Y-93823025D01*
X100838061Y-93835000D01*
X101041939Y-93835000D01*
X101241898Y-93795226D01*
X101430256Y-93717205D01*
X101599774Y-93603937D01*
X101743937Y-93459774D01*
X101857205Y-93290256D01*
X101935226Y-93101898D01*
X101975000Y-92901939D01*
X101975000Y-92698061D01*
X101935226Y-92498102D01*
X101857205Y-92309744D01*
X101743937Y-92140226D01*
X101700000Y-92096289D01*
X101700000Y-88898061D01*
X104765000Y-88898061D01*
X104765000Y-89101939D01*
X104804774Y-89301898D01*
X104882795Y-89490256D01*
X104996063Y-89659774D01*
X105140226Y-89803937D01*
X105309744Y-89917205D01*
X105498102Y-89995226D01*
X105698061Y-90035000D01*
X105901939Y-90035000D01*
X106101898Y-89995226D01*
X106290256Y-89917205D01*
X106459774Y-89803937D01*
X106603937Y-89659774D01*
X106717205Y-89490256D01*
X106795226Y-89301898D01*
X106835000Y-89101939D01*
X106835000Y-88898061D01*
X106795226Y-88698102D01*
X106717205Y-88509744D01*
X106603937Y-88340226D01*
X106459774Y-88196063D01*
X106290256Y-88082795D01*
X106101898Y-88004774D01*
X105901939Y-87965000D01*
X105698061Y-87965000D01*
X105498102Y-88004774D01*
X105309744Y-88082795D01*
X105140226Y-88196063D01*
X104996063Y-88340226D01*
X104882795Y-88509744D01*
X104804774Y-88698102D01*
X104765000Y-88898061D01*
X101700000Y-88898061D01*
X101700000Y-87298061D01*
X106765000Y-87298061D01*
X106765000Y-87501939D01*
X106804774Y-87701898D01*
X106882795Y-87890256D01*
X106996063Y-88059774D01*
X107140226Y-88203937D01*
X107309744Y-88317205D01*
X107498102Y-88395226D01*
X107698061Y-88435000D01*
X107901939Y-88435000D01*
X108101898Y-88395226D01*
X108290256Y-88317205D01*
X108459774Y-88203937D01*
X108603937Y-88059774D01*
X108717205Y-87890256D01*
X108795226Y-87701898D01*
X108835000Y-87501939D01*
X108835000Y-87298061D01*
X108795226Y-87098102D01*
X108717205Y-86909744D01*
X108603937Y-86740226D01*
X108459774Y-86596063D01*
X108290256Y-86482795D01*
X108101898Y-86404774D01*
X107901939Y-86365000D01*
X107698061Y-86365000D01*
X107498102Y-86404774D01*
X107309744Y-86482795D01*
X107140226Y-86596063D01*
X106996063Y-86740226D01*
X106882795Y-86909744D01*
X106804774Y-87098102D01*
X106765000Y-87298061D01*
X101700000Y-87298061D01*
X101700000Y-87017322D01*
X101703676Y-86979999D01*
X101700000Y-86942676D01*
X101700000Y-86942667D01*
X101689003Y-86831014D01*
X101645546Y-86687753D01*
X101574974Y-86555724D01*
X101480001Y-86439999D01*
X101451002Y-86416200D01*
X100973803Y-85939002D01*
X100950001Y-85909999D01*
X100834276Y-85815026D01*
X100798072Y-85795674D01*
X100798072Y-85600000D01*
X100785812Y-85475518D01*
X100749502Y-85355820D01*
X100690537Y-85245506D01*
X100611185Y-85148815D01*
X100514494Y-85069463D01*
X100404180Y-85010498D01*
X100284482Y-84974188D01*
X100160000Y-84961928D01*
X98460000Y-84961928D01*
X98335518Y-84974188D01*
X98215820Y-85010498D01*
X98105506Y-85069463D01*
X98008815Y-85148815D01*
X97929463Y-85245506D01*
X97870498Y-85355820D01*
X97834188Y-85475518D01*
X97821928Y-85600000D01*
X97821928Y-87300000D01*
X97834188Y-87424482D01*
X97870498Y-87544180D01*
X97929463Y-87654494D01*
X98008815Y-87751185D01*
X98105506Y-87830537D01*
X98215820Y-87889502D01*
X98284687Y-87910393D01*
X98254866Y-87934866D01*
X98069294Y-88160986D01*
X97931401Y-88418966D01*
X97846487Y-88698889D01*
X97817815Y-88990000D01*
X91710000Y-88990000D01*
X91710000Y-83804495D01*
X92015000Y-83804495D01*
X92015000Y-84195505D01*
X92091282Y-84579003D01*
X92240915Y-84940250D01*
X92458149Y-85265364D01*
X92734636Y-85541851D01*
X93059750Y-85759085D01*
X93420997Y-85908718D01*
X93804495Y-85985000D01*
X94195505Y-85985000D01*
X94579003Y-85908718D01*
X94940250Y-85759085D01*
X95265364Y-85541851D01*
X95541851Y-85265364D01*
X95759085Y-84940250D01*
X95908718Y-84579003D01*
X95985000Y-84195505D01*
X95985000Y-83804495D01*
X134015000Y-83804495D01*
X134015000Y-84195505D01*
X134091282Y-84579003D01*
X134240915Y-84940250D01*
X134458149Y-85265364D01*
X134734636Y-85541851D01*
X135059750Y-85759085D01*
X135420997Y-85908718D01*
X135804495Y-85985000D01*
X136195505Y-85985000D01*
X136579003Y-85908718D01*
X136940250Y-85759085D01*
X137265364Y-85541851D01*
X137541851Y-85265364D01*
X137759085Y-84940250D01*
X137908718Y-84579003D01*
X137985000Y-84195505D01*
X137985000Y-83804495D01*
X137908718Y-83420997D01*
X137759085Y-83059750D01*
X137541851Y-82734636D01*
X137265364Y-82458149D01*
X136940250Y-82240915D01*
X136579003Y-82091282D01*
X136195505Y-82015000D01*
X135804495Y-82015000D01*
X135420997Y-82091282D01*
X135059750Y-82240915D01*
X134734636Y-82458149D01*
X134458149Y-82734636D01*
X134240915Y-83059750D01*
X134091282Y-83420997D01*
X134015000Y-83804495D01*
X95985000Y-83804495D01*
X95908718Y-83420997D01*
X95759085Y-83059750D01*
X95541851Y-82734636D01*
X95265364Y-82458149D01*
X94940250Y-82240915D01*
X94579003Y-82091282D01*
X94195505Y-82015000D01*
X93804495Y-82015000D01*
X93420997Y-82091282D01*
X93059750Y-82240915D01*
X92734636Y-82458149D01*
X92458149Y-82734636D01*
X92240915Y-83059750D01*
X92091282Y-83420997D01*
X92015000Y-83804495D01*
X91710000Y-83804495D01*
X91710000Y-81710000D01*
X138290001Y-81710000D01*
X138290001Y-99765000D01*
M02*
