M48
; DRILL file {KiCad (5.1.4)-1} date 8/25/2019 8:52:32 PM
; FORMAT={3:3/ absolute / metric / suppress leading zeros}
; #@! TF.CreationDate,2019-08-25T20:52:32+02:00
; #@! TF.GenerationSoftware,Kicad,Pcbnew,(5.1.4)-1
FMAT,2
METRIC,TZ
T1C0.150
T2C0.400
T3C1.000
T4C2.700
%
G90
G05
T1
X103075Y-107700
X103075Y-108300
X103190Y-106200
X103190Y-106800
X103490Y-107250
X105120Y-107370
X105790Y-110250
X105810Y-112020
X106160Y-104470
X109078Y-107922
X109408Y-105922
X109460Y-110880
X109460Y-111480
X109502Y-107498
X109832Y-105498
X110360Y-110930
X110390Y-107930
X110630Y-109460
X110650Y-110440
X110660Y-106430
X111660Y-104430
X111660Y-107430
X111660Y-109430
X111660Y-110430
X111660Y-111430
X111660Y-113430
X111670Y-108430
X112660Y-104430
X112660Y-105430
X112660Y-113430
X112660Y-114430
X113660Y-104430
X113660Y-107430
X113660Y-108430
X113660Y-109430
X113660Y-110430
X113660Y-111430
X114660Y-104430
X114660Y-106430
X114660Y-107430
X114660Y-108430
X114660Y-109430
X114660Y-110430
X114660Y-111430
X114660Y-112430
X114660Y-114430
X115660Y-104430
X115660Y-106430
X115660Y-107430
X115660Y-108430
X115660Y-109430
X115660Y-110430
X115660Y-111430
X115660Y-112430
X116660Y-104430
X116660Y-106430
X116660Y-107430
X116660Y-108430
X116660Y-109430
X116660Y-110430
X116660Y-111430
X116660Y-112430
X116660Y-114430
X117660Y-104430
X117660Y-106430
X117660Y-107430
X117660Y-108430
X117660Y-109430
X117660Y-110430
X117660Y-111430
X117660Y-112430
X118660Y-104430
X118660Y-106430
X118660Y-107430
X118660Y-108430
X118660Y-109430
X118660Y-110430
X118660Y-111430
X118660Y-112430
X118660Y-113430
X118660Y-114430
X119660Y-104430
X119660Y-106430
X119660Y-107430
X119660Y-108430
X119660Y-109430
X119660Y-110430
X119660Y-111430
X119660Y-112430
X119660Y-114430
X119930Y-115700
X120660Y-104430
X120660Y-113430
X120660Y-114430
X120680Y-115700
X121660Y-106430
X121660Y-108430
X121660Y-109430
X121660Y-111430
X121660Y-112430
X121660Y-113430
X121980Y-114930
X130310Y-101640
X130310Y-102220
T2
X98310Y-103320
X98320Y-99930
X99990Y-103210
X100940Y-92800
X103710Y-105370
X104610Y-117510
X104630Y-116410
X105800Y-89000
X107080Y-122290
X107800Y-87400
X108890Y-118810
X109790Y-113420
X110240Y-118280
X110430Y-122210
X111850Y-94390
X114300Y-98000
X115160Y-116080
X115300Y-98000
X115400Y-94900
X115703Y-91855
X115730Y-122700
X116200Y-98000
X116400Y-94900
X117150Y-116510
X117200Y-98000
X117300Y-94900
X118100Y-98000
X118300Y-94900
X118700Y-98800
X118770Y-116540
X118860Y-91850
X119200Y-94900
X120200Y-94900
X123100Y-114870
X123170Y-109930
X123230Y-112250
X123320Y-93300
X124260Y-116790
X124600Y-95980
X124950Y-103710
X125100Y-106400
X125140Y-113600
X125190Y-108200
X125330Y-111800
X125410Y-109940
X125780Y-99930
X127850Y-121520
X128240Y-104530
X128950Y-121040
X130000Y-106400
X130400Y-108200
X130400Y-110000
X130400Y-111800
X130400Y-113600
X130400Y-115400
X132000Y-106980
X132600Y-104600
X133170Y-105560
T3
X99310Y-86450
X99310Y-88990
X99310Y-91530
X99310Y-94070
X123460Y-86000
X126000Y-86000
X128540Y-86000
X131080Y-86000
X131080Y-88900
X131080Y-91440
X131080Y-93980
X131080Y-96520
X98600Y-123800
X130400Y-123800
T4
X94000Y-84000
X94000Y-127000
X136000Y-84000
X136000Y-127000
T0
M30
