G04 #@! TF.GenerationSoftware,KiCad,Pcbnew,(5.1.4)-1*
G04 #@! TF.CreationDate,2019-08-25T20:49:14+02:00*
G04 #@! TF.ProjectId,ToF_camera_VGA,546f465f-6361-46d6-9572-615f5647412e,rev?*
G04 #@! TF.SameCoordinates,Original*
G04 #@! TF.FileFunction,Copper,L4,Bot*
G04 #@! TF.FilePolarity,Positive*
%FSLAX46Y46*%
G04 Gerber Fmt 4.6, Leading zero omitted, Abs format (unit mm)*
G04 Created by KiCad (PCBNEW (5.1.4)-1) date 2019-08-25 20:49:14*
%MOMM*%
%LPD*%
G04 APERTURE LIST*
%ADD10R,1.700000X1.700000*%
%ADD11O,1.700000X1.700000*%
%ADD12C,0.800000*%
%ADD13C,0.350000*%
%ADD14C,0.250000*%
%ADD15C,1.000000*%
%ADD16C,0.152400*%
%ADD17C,0.200000*%
%ADD18C,0.254000*%
G04 APERTURE END LIST*
D10*
X123460000Y-86000000D03*
D11*
X126000000Y-86000000D03*
X128540000Y-86000000D03*
X131080000Y-86000000D03*
D10*
X131080000Y-88900000D03*
D11*
X131080000Y-91440000D03*
X131080000Y-93980000D03*
X131080000Y-96520000D03*
D10*
X98600000Y-123800000D03*
X99310000Y-86450000D03*
D11*
X99310000Y-88990000D03*
X99310000Y-91530000D03*
X99310000Y-94070000D03*
D10*
X130400000Y-123800000D03*
D12*
X107800000Y-87400000D03*
X105800000Y-89000000D03*
X127850000Y-121520000D03*
X128950000Y-121040000D03*
X130400000Y-115400000D03*
X130400000Y-113600000D03*
X130400000Y-111800000D03*
X130400000Y-110000000D03*
X130400000Y-108200000D03*
X130000000Y-106400000D03*
D13*
X130310000Y-101640000D03*
X130310000Y-102220000D03*
D12*
X123230000Y-112250000D03*
X132600000Y-104600000D03*
D13*
X121660000Y-112430000D03*
X120660000Y-113430000D03*
X118660000Y-113430000D03*
D12*
X110240000Y-118280000D03*
D13*
X121660000Y-109430000D03*
D12*
X125190000Y-108200000D03*
D13*
X121660000Y-113430000D03*
D12*
X125140000Y-113600000D03*
X123170000Y-109930000D03*
X125410000Y-109940000D03*
D13*
X121660000Y-108430000D03*
D12*
X125100000Y-106400000D03*
D13*
X121660000Y-111430000D03*
D12*
X125330000Y-111800000D03*
D13*
X112660000Y-114430000D03*
D12*
X117150000Y-116510000D03*
X132000000Y-106980000D03*
X124950000Y-103710000D03*
D13*
X105790000Y-110250000D03*
X105810000Y-112020000D03*
X105120000Y-107370000D03*
X103490000Y-107250000D03*
X106160000Y-104470000D03*
D12*
X107080000Y-122290000D03*
X110430000Y-122210000D03*
X115730000Y-122700000D03*
X99990000Y-103210000D03*
X103710000Y-105370000D03*
X124600000Y-95980000D03*
D13*
X111660000Y-113430000D03*
X113660000Y-111430000D03*
X114660000Y-111430000D03*
X114660000Y-112430000D03*
X115660000Y-112430000D03*
X116660000Y-112430000D03*
X117660000Y-112430000D03*
X118660000Y-112430000D03*
X119660000Y-112430000D03*
X119660000Y-114430000D03*
X118660000Y-114430000D03*
X120660000Y-114430000D03*
X121980000Y-114930000D03*
X119930000Y-115700000D03*
X120680000Y-115700000D03*
X119660000Y-111430000D03*
X118660000Y-111430000D03*
X117660000Y-111430000D03*
X116660000Y-111430000D03*
X115660000Y-111430000D03*
X115660000Y-110430000D03*
X114660000Y-110430000D03*
X113660000Y-110430000D03*
X113660000Y-109430000D03*
X114660000Y-109430000D03*
X115660000Y-109430000D03*
X116660000Y-109430000D03*
X119660000Y-110430000D03*
X118660000Y-110430000D03*
X117660000Y-110430000D03*
X116660000Y-110430000D03*
X119660000Y-109430000D03*
X118660000Y-109430000D03*
X119660000Y-108430000D03*
X118660000Y-108430000D03*
X117660000Y-109430000D03*
X117660000Y-108430000D03*
X119660000Y-106430000D03*
X118660000Y-106430000D03*
X119660000Y-107430000D03*
X118660000Y-107430000D03*
X117660000Y-106430000D03*
X117660000Y-107430000D03*
X116660000Y-106430000D03*
X116660000Y-107430000D03*
X115660000Y-106430000D03*
X115660000Y-107430000D03*
X116660000Y-108430000D03*
X115660000Y-108430000D03*
X114660000Y-108430000D03*
X113660000Y-108430000D03*
X113660000Y-107430000D03*
X114660000Y-107430000D03*
X114660000Y-106430000D03*
D12*
X108890000Y-118810000D03*
X123100000Y-114870000D03*
X124260000Y-116790000D03*
D13*
X116660000Y-114430000D03*
D12*
X118770000Y-116540000D03*
X125780000Y-99930000D03*
D13*
X121660000Y-106430000D03*
D12*
X128240000Y-104530000D03*
X133170000Y-105560000D03*
X111849998Y-94390000D03*
X115703077Y-91855414D03*
X123320000Y-93300000D03*
X118860000Y-91849998D03*
D13*
X114660000Y-104430000D03*
X115660000Y-104430000D03*
X116660000Y-104430000D03*
X117660000Y-104430000D03*
X118660000Y-104430000D03*
X119660000Y-104430000D03*
X120660000Y-104430000D03*
D12*
X114300000Y-98000000D03*
X115300000Y-98000000D03*
X116200000Y-98000000D03*
X117200000Y-98000000D03*
X118100000Y-98000000D03*
X118700000Y-98800000D03*
X116400000Y-94900000D03*
X118300000Y-94900000D03*
X115400000Y-94900000D03*
X119200000Y-94900000D03*
X117300000Y-94900000D03*
X120200000Y-94900000D03*
D13*
X112660000Y-113430000D03*
D12*
X109790000Y-113420000D03*
D13*
X111660000Y-111430000D03*
X109460000Y-111480000D03*
X110360000Y-110930000D03*
X109460000Y-110880000D03*
X110660000Y-106430000D03*
X109832133Y-105497867D03*
X111660000Y-107430000D03*
X109407867Y-105922133D03*
X111660000Y-110430000D03*
X103075002Y-107700000D03*
X110650000Y-110440000D03*
X103075002Y-108300000D03*
X110390000Y-107930000D03*
X109502133Y-107497867D03*
X111670000Y-108430000D03*
X109077867Y-107922133D03*
X111660000Y-109430000D03*
X103190000Y-106200000D03*
X110630000Y-109460000D03*
X103190000Y-106800000D03*
D12*
X98310000Y-103320000D03*
X98320000Y-99930000D03*
D13*
X111660000Y-104430000D03*
D12*
X100940000Y-92800000D03*
D13*
X113660000Y-104430000D03*
X112660000Y-104430000D03*
X112660000Y-105430000D03*
D12*
X115160000Y-116080000D03*
X104610000Y-117510000D03*
D13*
X114660000Y-114430000D03*
D12*
X104630000Y-116410000D03*
D14*
X107800000Y-87400000D02*
X106200000Y-89000000D01*
X106200000Y-89000000D02*
X105800000Y-89000000D01*
X127850000Y-121520000D02*
X128470000Y-121520000D01*
X128470000Y-121520000D02*
X128950000Y-121040000D01*
X127025685Y-105550000D02*
X130380000Y-105550000D01*
X131810000Y-106980000D02*
X132000000Y-106980000D01*
X130380000Y-105550000D02*
X131810000Y-106980000D01*
X127025685Y-105550000D02*
X126790000Y-105550000D01*
X126790000Y-105550000D02*
X124950000Y-103710000D01*
X105790000Y-110250000D02*
X105790000Y-112000000D01*
X105790000Y-112000000D02*
X105810000Y-112020000D01*
X105120000Y-107370000D02*
X103610000Y-107370000D01*
X103610000Y-107370000D02*
X103490000Y-107250000D01*
X107080000Y-122290000D02*
X110350000Y-122290000D01*
X110350000Y-122290000D02*
X110430000Y-122210000D01*
X110920000Y-122700000D02*
X110430000Y-122210000D01*
X115730000Y-122700000D02*
X110920000Y-122700000D01*
X99590001Y-103609999D02*
X99590001Y-104089999D01*
X99990000Y-103210000D02*
X99590001Y-103609999D01*
X99590001Y-104089999D02*
X100870002Y-105370000D01*
X100870002Y-105370000D02*
X103710000Y-105370000D01*
D15*
X124600000Y-87400000D02*
X126000000Y-86000000D01*
X124600000Y-95980000D02*
X124600000Y-87400000D01*
D14*
X111485001Y-121154999D02*
X110430000Y-122210000D01*
X111660000Y-113430000D02*
X111485001Y-113604999D01*
X111485001Y-113604999D02*
X111485001Y-121154999D01*
X113660000Y-111430000D02*
X114660000Y-111430000D01*
X114660000Y-112430000D02*
X115660000Y-112430000D01*
X116660000Y-112430000D02*
X117660000Y-112430000D01*
X118660000Y-112430000D02*
X119660000Y-112430000D01*
X119660000Y-114430000D02*
X118660000Y-114430000D01*
X120660000Y-114430000D02*
X121480000Y-114430000D01*
X121480000Y-114430000D02*
X121980000Y-114930000D01*
X119930000Y-115700000D02*
X120680000Y-115700000D01*
X119660000Y-111430000D02*
X118660000Y-111430000D01*
X117660000Y-111430000D02*
X116660000Y-111430000D01*
X115660000Y-111430000D02*
X115660000Y-110430000D01*
X114660000Y-110430000D02*
X113660000Y-110430000D01*
X113660000Y-109430000D02*
X114660000Y-109430000D01*
X115660000Y-109430000D02*
X116660000Y-109430000D01*
X119660000Y-110430000D02*
X118660000Y-110430000D01*
X117660000Y-110430000D02*
X116660000Y-110430000D01*
X119660000Y-109430000D02*
X118660000Y-109430000D01*
X119660000Y-108430000D02*
X118660000Y-108430000D01*
X117660000Y-109430000D02*
X117660000Y-108430000D01*
X119660000Y-106430000D02*
X118660000Y-106430000D01*
X119660000Y-107430000D02*
X118660000Y-107430000D01*
X117660000Y-106430000D02*
X117660000Y-107430000D01*
X116660000Y-106430000D02*
X116660000Y-107430000D01*
X115660000Y-106430000D02*
X115660000Y-107430000D01*
X116660000Y-108430000D02*
X115660000Y-108430000D01*
X114660000Y-108430000D02*
X113660000Y-108430000D01*
X113660000Y-107430000D02*
X114660000Y-107430000D01*
X114660000Y-106430000D02*
X114660000Y-107430000D01*
X110430000Y-122210000D02*
X110430000Y-121040000D01*
X110430000Y-121040000D02*
X108890000Y-119500000D01*
X108890000Y-119500000D02*
X108890000Y-118810000D01*
X130400000Y-120960000D02*
X130400000Y-123800000D01*
X124240000Y-114800000D02*
X130400000Y-120960000D01*
X121660000Y-106430000D02*
X124240000Y-109010000D01*
X124240000Y-109010000D02*
X124240000Y-114800000D01*
X128639999Y-104929999D02*
X131429999Y-104929999D01*
X128240000Y-104530000D02*
X128639999Y-104929999D01*
X131429999Y-104929999D02*
X132060000Y-105560000D01*
X132060000Y-105560000D02*
X133170000Y-105560000D01*
X115303078Y-92255413D02*
X115703077Y-91855414D01*
X113168491Y-94390000D02*
X115303078Y-92255413D01*
X111849998Y-94390000D02*
X113168491Y-94390000D01*
X122920001Y-92900001D02*
X122910001Y-92900001D01*
X123320000Y-93300000D02*
X122920001Y-92900001D01*
X122910001Y-92900001D02*
X121859998Y-91849998D01*
X121859998Y-91849998D02*
X118860000Y-91849998D01*
X114660000Y-103130000D02*
X114660000Y-104430000D01*
X115660000Y-104430000D02*
X115660000Y-103130000D01*
X115660000Y-103130000D02*
X114660000Y-103130000D01*
X116660000Y-104430000D02*
X116660000Y-103090000D01*
X116620000Y-103130000D02*
X115660000Y-103130000D01*
X116660000Y-103090000D02*
X116620000Y-103130000D01*
X117660000Y-104430000D02*
X117660000Y-103120000D01*
X117630000Y-103090000D02*
X116660000Y-103090000D01*
X117660000Y-103120000D02*
X117630000Y-103090000D01*
X119660000Y-104430000D02*
X119660000Y-103250000D01*
X119660000Y-103250000D02*
X119530000Y-103120000D01*
X118660000Y-103150000D02*
X118630000Y-103120000D01*
X118660000Y-104430000D02*
X118660000Y-103150000D01*
X119530000Y-103120000D02*
X118630000Y-103120000D01*
X118630000Y-103120000D02*
X117660000Y-103120000D01*
X120660000Y-104430000D02*
X120660000Y-103160000D01*
X120570000Y-103250000D02*
X119660000Y-103250000D01*
X120660000Y-103160000D02*
X120570000Y-103250000D01*
X114400000Y-98000000D02*
X115400000Y-98000000D01*
X116300000Y-98000000D02*
X117300000Y-98000000D01*
X118200000Y-98000000D02*
X119200000Y-98000000D01*
X109790000Y-113420000D02*
X110189999Y-113020001D01*
X110189999Y-113020001D02*
X112250001Y-113020001D01*
X112485001Y-113255001D02*
X112660000Y-113430000D01*
X112250001Y-113020001D02*
X112485001Y-113255001D01*
D16*
X111660000Y-111430000D02*
X111412513Y-111430000D01*
D17*
X111412513Y-111430000D02*
X111387513Y-111405000D01*
X111387513Y-111405000D02*
X109535000Y-111405000D01*
X109535000Y-111405000D02*
X109460000Y-111480000D01*
D16*
X110360000Y-110930000D02*
X110180000Y-110930000D01*
D17*
X109535000Y-110955000D02*
X109460000Y-110880000D01*
X110155000Y-110955000D02*
X109535000Y-110955000D01*
X110180000Y-110930000D02*
X110155000Y-110955000D01*
X110538200Y-106310000D02*
X109832133Y-105603934D01*
X109832133Y-105603934D02*
X109832133Y-105497867D01*
X110540000Y-106310000D02*
X110538200Y-106310000D01*
X110660000Y-106430000D02*
X110540000Y-106310000D01*
X111021800Y-107429999D02*
X109513934Y-105922133D01*
X111660000Y-107430000D02*
X111021800Y-107429999D01*
X109513934Y-105922133D02*
X109407867Y-105922133D01*
X108406800Y-109985000D02*
X107405000Y-110986800D01*
X110967512Y-109985000D02*
X108406800Y-109985000D01*
X111412513Y-110430000D02*
X110967512Y-109985000D01*
X111660000Y-110430000D02*
X111412513Y-110430000D01*
X107405000Y-110986800D02*
X107405000Y-114486800D01*
X107405000Y-114486800D02*
X106986800Y-114905000D01*
X104645000Y-108736800D02*
X103683200Y-107775000D01*
X103683200Y-107775000D02*
X103150002Y-107775000D01*
X103150002Y-107775000D02*
X103075002Y-107700000D01*
X106986800Y-114905000D02*
X105093200Y-114905000D01*
X105093200Y-114905000D02*
X104645000Y-114456800D01*
X104645000Y-114456800D02*
X104645000Y-108736800D01*
X103150002Y-108225000D02*
X103075002Y-108300000D01*
X104195000Y-108923200D02*
X103496800Y-108225000D01*
X104195000Y-114643200D02*
X104195000Y-108923200D01*
X103496800Y-108225000D02*
X103150002Y-108225000D01*
X104906800Y-115355000D02*
X104195000Y-114643200D01*
X107173200Y-115355000D02*
X104906800Y-115355000D01*
X107855000Y-114673200D02*
X107173200Y-115355000D01*
X108111465Y-113504863D02*
X108025569Y-113558835D01*
X108207217Y-113471358D02*
X108111465Y-113504863D01*
X108408832Y-113448641D02*
X108207217Y-113471358D01*
X108025569Y-113558835D02*
X107953836Y-113630568D01*
X108504584Y-113415136D02*
X108408832Y-113448641D01*
X108590480Y-113361164D02*
X108504584Y-113415136D01*
X108662213Y-113289431D02*
X108590480Y-113361164D01*
X108716185Y-113203535D02*
X108662213Y-113289431D01*
X108749690Y-113107783D02*
X108716185Y-113203535D01*
X107855000Y-112385000D02*
X107930000Y-112460000D01*
X107855000Y-111173200D02*
X107855000Y-112385000D01*
X107866359Y-113812216D02*
X107855000Y-113913024D01*
X108593200Y-110435000D02*
X107855000Y-111173200D01*
X110440000Y-110440000D02*
X110435000Y-110435000D01*
X107855000Y-113913024D02*
X107855000Y-114673200D01*
X110650000Y-110440000D02*
X110440000Y-110440000D01*
X108716185Y-112716464D02*
X108749690Y-112812216D01*
X107930000Y-112460000D02*
X108308024Y-112460000D01*
X108308024Y-112460000D02*
X108408832Y-112471358D01*
X108761048Y-112913024D02*
X108761048Y-113006976D01*
X108408832Y-112471358D02*
X108504584Y-112504863D01*
X107899864Y-113716464D02*
X107866359Y-113812216D01*
X108504584Y-112504863D02*
X108590480Y-112558835D01*
X110435000Y-110435000D02*
X108593200Y-110435000D01*
X108590480Y-112558835D02*
X108662213Y-112630568D01*
X107953836Y-113630568D02*
X107899864Y-113716464D01*
X108662213Y-112630568D02*
X108716185Y-112716464D01*
X108749690Y-112812216D02*
X108761048Y-112913024D01*
X108761048Y-113006976D02*
X108749690Y-113107783D01*
X110390000Y-107930000D02*
X109828199Y-107930000D01*
X109502133Y-107603934D02*
X109502133Y-107497867D01*
X109828199Y-107930000D02*
X109502133Y-107603934D01*
X111670000Y-108430000D02*
X109691801Y-108430000D01*
X109183934Y-107922133D02*
X109077867Y-107922133D01*
X109691801Y-108430000D02*
X109183934Y-107922133D01*
X110927513Y-108975000D02*
X110942513Y-108960000D01*
X111412513Y-109430000D02*
X111660000Y-109430000D01*
X109023200Y-108975000D02*
X110927513Y-108975000D01*
X107635000Y-107586800D02*
X109023200Y-108975000D01*
X110942513Y-108960000D02*
X111412513Y-109430000D01*
X107635000Y-102036800D02*
X107635000Y-107586800D01*
X104725000Y-101978600D02*
X105253600Y-101450000D01*
X103190000Y-106200000D02*
X103265000Y-106275000D01*
X103265000Y-106275000D02*
X103836800Y-106275000D01*
X103836800Y-106275000D02*
X104725000Y-105386800D01*
X104725000Y-105386800D02*
X104725000Y-101978600D01*
X105253600Y-101450000D02*
X107048200Y-101450000D01*
X107048200Y-101450000D02*
X107635000Y-102036800D01*
X108871800Y-109460000D02*
X110630000Y-109460000D01*
X108033528Y-108621728D02*
X108871800Y-109460000D01*
X107981005Y-108579841D02*
X108033528Y-108621728D01*
X107920479Y-108550694D02*
X107981005Y-108579841D01*
X107185000Y-108197464D02*
X107010044Y-108372419D01*
X107123092Y-108867715D02*
X107188586Y-108882664D01*
X107226885Y-108144941D02*
X107185000Y-108197464D01*
X107256032Y-108084415D02*
X107226885Y-108144941D01*
X105443200Y-101900000D02*
X106861800Y-101900000D01*
X107256032Y-107886248D02*
X107270981Y-107951742D01*
X105175000Y-105573200D02*
X105175000Y-102168200D01*
X107270981Y-107951742D02*
X107270981Y-108018921D01*
X107188586Y-108882664D02*
X107255765Y-108882664D01*
X107226885Y-107825722D02*
X107256032Y-107886248D01*
X107185000Y-107773200D02*
X107226885Y-107825722D01*
X107270981Y-108018921D02*
X107256032Y-108084415D01*
X107185000Y-102223200D02*
X107185000Y-107773200D01*
X106861800Y-101900000D02*
X107185000Y-102223200D01*
X103265000Y-106725000D02*
X104023200Y-106725000D01*
X103190000Y-106800000D02*
X103265000Y-106725000D01*
X107255765Y-108882664D02*
X107321259Y-108867715D01*
X104023200Y-106725000D02*
X105175000Y-105573200D01*
X105175000Y-102168200D02*
X105443200Y-101900000D01*
X107010044Y-108372419D02*
X106968158Y-108424942D01*
X107010044Y-108796683D02*
X107062566Y-108838568D01*
X106968158Y-108424942D02*
X106939011Y-108485468D01*
X106939011Y-108485468D02*
X106924062Y-108550962D01*
X106924062Y-108550962D02*
X106924062Y-108618141D01*
X106924062Y-108618141D02*
X106939011Y-108683635D01*
X106939011Y-108683635D02*
X106968158Y-108744161D01*
X106968158Y-108744161D02*
X107010044Y-108796683D01*
X107062566Y-108838568D02*
X107123092Y-108867715D01*
X107321259Y-108867715D02*
X107381785Y-108838568D01*
X107381785Y-108838568D02*
X107434308Y-108796683D01*
X107434308Y-108796683D02*
X107609263Y-108621727D01*
X107609263Y-108621727D02*
X107661786Y-108579841D01*
X107661786Y-108579841D02*
X107722312Y-108550694D01*
X107722312Y-108550694D02*
X107787806Y-108535745D01*
X107787806Y-108535745D02*
X107854985Y-108535745D01*
X107854985Y-108535745D02*
X107920479Y-108550694D01*
D14*
X98320000Y-103310000D02*
X98310000Y-103320000D01*
X98320000Y-99930000D02*
X98320000Y-103310000D01*
X111660000Y-104430000D02*
X111660000Y-103910000D01*
X111660000Y-96730000D02*
X111660000Y-96720000D01*
X111660000Y-97410000D02*
X111660000Y-97320000D01*
X111660000Y-97410000D02*
X111660000Y-96730000D01*
X111660000Y-97410000D02*
X111660000Y-97360000D01*
X111660000Y-97760000D02*
X111660000Y-97690000D01*
X111660000Y-103910000D02*
X111660000Y-97760000D01*
X111660000Y-97760000D02*
X111660000Y-97410000D01*
X111660000Y-97690000D02*
X107430000Y-93460000D01*
X107430000Y-93460000D02*
X101600000Y-93460000D01*
X101600000Y-93460000D02*
X100940000Y-92800000D01*
X100380000Y-90060000D02*
X100159999Y-89839999D01*
X100159999Y-89839999D02*
X99310000Y-88990000D01*
X106272821Y-90060000D02*
X100380000Y-90060000D01*
X113660000Y-97447179D02*
X106272821Y-90060000D01*
X113660000Y-104430000D02*
X113660000Y-97447179D01*
X112660000Y-104430000D02*
X112485001Y-104255001D01*
X112485001Y-104255001D02*
X112460000Y-104230000D01*
X107106410Y-91530000D02*
X100512081Y-91530000D01*
X112485001Y-104255001D02*
X112485001Y-96908591D01*
X112485001Y-96908591D02*
X107106410Y-91530000D01*
X100512081Y-91530000D02*
X99310000Y-91530000D01*
X112660000Y-105430000D02*
X112300000Y-105070000D01*
X112300000Y-105070000D02*
X111510000Y-105070000D01*
X111510000Y-105070000D02*
X111100000Y-104660000D01*
X111100000Y-104660000D02*
X111100000Y-98070000D01*
X107100000Y-94070000D02*
X99310000Y-94070000D01*
X111100000Y-98070000D02*
X107100000Y-94070000D01*
D18*
G36*
X121773000Y-103460711D02*
G01*
X120533013Y-105273000D01*
X114769998Y-105273000D01*
X114418247Y-104716061D01*
X114438872Y-104666268D01*
X114470000Y-104509778D01*
X114470000Y-104350222D01*
X114438872Y-104193732D01*
X114420000Y-104148171D01*
X114420000Y-97484504D01*
X114423676Y-97447179D01*
X114420000Y-97409854D01*
X114420000Y-97409846D01*
X114409003Y-97298193D01*
X114365546Y-97154932D01*
X114294974Y-97022903D01*
X114200001Y-96907178D01*
X114171003Y-96883380D01*
X113627000Y-96339377D01*
X113627000Y-94996880D01*
X113708492Y-94930001D01*
X113732295Y-94900997D01*
X115506293Y-93127000D01*
X121773000Y-93127000D01*
X121773000Y-103460711D01*
X121773000Y-103460711D01*
G37*
X121773000Y-103460711D02*
X120533013Y-105273000D01*
X114769998Y-105273000D01*
X114418247Y-104716061D01*
X114438872Y-104666268D01*
X114470000Y-104509778D01*
X114470000Y-104350222D01*
X114438872Y-104193732D01*
X114420000Y-104148171D01*
X114420000Y-97484504D01*
X114423676Y-97447179D01*
X114420000Y-97409854D01*
X114420000Y-97409846D01*
X114409003Y-97298193D01*
X114365546Y-97154932D01*
X114294974Y-97022903D01*
X114200001Y-96907178D01*
X114171003Y-96883380D01*
X113627000Y-96339377D01*
X113627000Y-94996880D01*
X113708492Y-94930001D01*
X113732295Y-94900997D01*
X115506293Y-93127000D01*
X121773000Y-93127000D01*
X121773000Y-103460711D01*
G36*
X138290000Y-129290000D02*
G01*
X91710000Y-129290000D01*
X91710000Y-126804495D01*
X92015000Y-126804495D01*
X92015000Y-127195505D01*
X92091282Y-127579003D01*
X92240915Y-127940250D01*
X92458149Y-128265364D01*
X92734636Y-128541851D01*
X93059750Y-128759085D01*
X93420997Y-128908718D01*
X93804495Y-128985000D01*
X94195505Y-128985000D01*
X94579003Y-128908718D01*
X94940250Y-128759085D01*
X95265364Y-128541851D01*
X95541851Y-128265364D01*
X95759085Y-127940250D01*
X95908718Y-127579003D01*
X95985000Y-127195505D01*
X95985000Y-126804495D01*
X134015000Y-126804495D01*
X134015000Y-127195505D01*
X134091282Y-127579003D01*
X134240915Y-127940250D01*
X134458149Y-128265364D01*
X134734636Y-128541851D01*
X135059750Y-128759085D01*
X135420997Y-128908718D01*
X135804495Y-128985000D01*
X136195505Y-128985000D01*
X136579003Y-128908718D01*
X136940250Y-128759085D01*
X137265364Y-128541851D01*
X137541851Y-128265364D01*
X137759085Y-127940250D01*
X137908718Y-127579003D01*
X137985000Y-127195505D01*
X137985000Y-126804495D01*
X137908718Y-126420997D01*
X137759085Y-126059750D01*
X137541851Y-125734636D01*
X137265364Y-125458149D01*
X136940250Y-125240915D01*
X136579003Y-125091282D01*
X136195505Y-125015000D01*
X135804495Y-125015000D01*
X135420997Y-125091282D01*
X135059750Y-125240915D01*
X134734636Y-125458149D01*
X134458149Y-125734636D01*
X134240915Y-126059750D01*
X134091282Y-126420997D01*
X134015000Y-126804495D01*
X95985000Y-126804495D01*
X95908718Y-126420997D01*
X95759085Y-126059750D01*
X95541851Y-125734636D01*
X95265364Y-125458149D01*
X94940250Y-125240915D01*
X94579003Y-125091282D01*
X94195505Y-125015000D01*
X93804495Y-125015000D01*
X93420997Y-125091282D01*
X93059750Y-125240915D01*
X92734636Y-125458149D01*
X92458149Y-125734636D01*
X92240915Y-126059750D01*
X92091282Y-126420997D01*
X92015000Y-126804495D01*
X91710000Y-126804495D01*
X91710000Y-122950000D01*
X97111928Y-122950000D01*
X97111928Y-124650000D01*
X97124188Y-124774482D01*
X97160498Y-124894180D01*
X97219463Y-125004494D01*
X97298815Y-125101185D01*
X97395506Y-125180537D01*
X97505820Y-125239502D01*
X97625518Y-125275812D01*
X97750000Y-125288072D01*
X99450000Y-125288072D01*
X99574482Y-125275812D01*
X99694180Y-125239502D01*
X99804494Y-125180537D01*
X99901185Y-125101185D01*
X99980537Y-125004494D01*
X100039502Y-124894180D01*
X100075812Y-124774482D01*
X100088072Y-124650000D01*
X100088072Y-122950000D01*
X100075812Y-122825518D01*
X100039502Y-122705820D01*
X99980537Y-122595506D01*
X99901185Y-122498815D01*
X99804494Y-122419463D01*
X99694180Y-122360498D01*
X99574482Y-122324188D01*
X99450000Y-122311928D01*
X97750000Y-122311928D01*
X97625518Y-122324188D01*
X97505820Y-122360498D01*
X97395506Y-122419463D01*
X97298815Y-122498815D01*
X97219463Y-122595506D01*
X97160498Y-122705820D01*
X97124188Y-122825518D01*
X97111928Y-122950000D01*
X91710000Y-122950000D01*
X91710000Y-103218061D01*
X97275000Y-103218061D01*
X97275000Y-103421939D01*
X97314774Y-103621898D01*
X97392795Y-103810256D01*
X97506063Y-103979774D01*
X97650226Y-104123937D01*
X97819744Y-104237205D01*
X98008102Y-104315226D01*
X98208061Y-104355000D01*
X98411939Y-104355000D01*
X98611898Y-104315226D01*
X98800256Y-104237205D01*
X98969774Y-104123937D01*
X99113937Y-103979774D01*
X99227205Y-103810256D01*
X99305226Y-103621898D01*
X99345000Y-103421939D01*
X99345000Y-103218061D01*
X99305226Y-103018102D01*
X99227205Y-102829744D01*
X99113937Y-102660226D01*
X99080000Y-102626289D01*
X99080000Y-100633711D01*
X99123937Y-100589774D01*
X99237205Y-100420256D01*
X99315226Y-100231898D01*
X99355000Y-100031939D01*
X99355000Y-99828061D01*
X99315226Y-99628102D01*
X99237205Y-99439744D01*
X99123937Y-99270226D01*
X98979774Y-99126063D01*
X98810256Y-99012795D01*
X98621898Y-98934774D01*
X98421939Y-98895000D01*
X98218061Y-98895000D01*
X98018102Y-98934774D01*
X97829744Y-99012795D01*
X97660226Y-99126063D01*
X97516063Y-99270226D01*
X97402795Y-99439744D01*
X97324774Y-99628102D01*
X97285000Y-99828061D01*
X97285000Y-100031939D01*
X97324774Y-100231898D01*
X97402795Y-100420256D01*
X97516063Y-100589774D01*
X97560000Y-100633711D01*
X97560001Y-102606288D01*
X97506063Y-102660226D01*
X97392795Y-102829744D01*
X97314774Y-103018102D01*
X97275000Y-103218061D01*
X91710000Y-103218061D01*
X91710000Y-88990000D01*
X97817815Y-88990000D01*
X97846487Y-89281111D01*
X97931401Y-89561034D01*
X98069294Y-89819014D01*
X98254866Y-90045134D01*
X98480986Y-90230706D01*
X98535791Y-90260000D01*
X98480986Y-90289294D01*
X98254866Y-90474866D01*
X98069294Y-90700986D01*
X97931401Y-90958966D01*
X97846487Y-91238889D01*
X97817815Y-91530000D01*
X97846487Y-91821111D01*
X97931401Y-92101034D01*
X98069294Y-92359014D01*
X98254866Y-92585134D01*
X98480986Y-92770706D01*
X98535791Y-92800000D01*
X98480986Y-92829294D01*
X98254866Y-93014866D01*
X98069294Y-93240986D01*
X97931401Y-93498966D01*
X97846487Y-93778889D01*
X97817815Y-94070000D01*
X97846487Y-94361111D01*
X97931401Y-94641034D01*
X98069294Y-94899014D01*
X98254866Y-95125134D01*
X98480986Y-95310706D01*
X98738966Y-95448599D01*
X99018889Y-95533513D01*
X99237050Y-95555000D01*
X99382950Y-95555000D01*
X99601111Y-95533513D01*
X99881034Y-95448599D01*
X100139014Y-95310706D01*
X100365134Y-95125134D01*
X100550706Y-94899014D01*
X100587595Y-94830000D01*
X106785199Y-94830000D01*
X110340001Y-98384803D01*
X110340000Y-104622677D01*
X110336324Y-104660000D01*
X110340000Y-104697322D01*
X110340000Y-104697332D01*
X110350997Y-104808985D01*
X110378095Y-104898316D01*
X110348478Y-104868699D01*
X110215812Y-104780055D01*
X110068401Y-104718995D01*
X109911911Y-104687867D01*
X109752355Y-104687867D01*
X109595865Y-104718995D01*
X109448454Y-104780055D01*
X109315788Y-104868699D01*
X109202965Y-104981522D01*
X109114321Y-105114188D01*
X109087922Y-105177922D01*
X109024188Y-105204321D01*
X108891522Y-105292965D01*
X108778699Y-105405788D01*
X108690055Y-105538454D01*
X108628995Y-105685865D01*
X108597867Y-105842355D01*
X108597867Y-106001911D01*
X108628995Y-106158401D01*
X108690055Y-106305812D01*
X108778699Y-106438478D01*
X108891522Y-106551301D01*
X109024188Y-106639945D01*
X109171599Y-106701005D01*
X109264624Y-106719509D01*
X109118454Y-106780055D01*
X108985788Y-106868699D01*
X108872965Y-106981522D01*
X108784321Y-107114188D01*
X108757922Y-107177922D01*
X108694188Y-107204321D01*
X108561522Y-107292965D01*
X108471067Y-107383420D01*
X108370000Y-107282354D01*
X108370000Y-102072905D01*
X108373556Y-102036800D01*
X108359365Y-101892715D01*
X108317337Y-101754166D01*
X108249087Y-101626480D01*
X108180253Y-101542606D01*
X108180250Y-101542603D01*
X108157237Y-101514562D01*
X108129197Y-101491550D01*
X107593458Y-100955812D01*
X107570438Y-100927762D01*
X107458520Y-100835913D01*
X107330833Y-100767663D01*
X107192285Y-100725635D01*
X107084305Y-100715000D01*
X107048200Y-100711444D01*
X107012095Y-100715000D01*
X105289694Y-100715000D01*
X105253599Y-100711445D01*
X105217504Y-100715000D01*
X105217495Y-100715000D01*
X105109515Y-100725635D01*
X104970967Y-100767663D01*
X104843280Y-100835913D01*
X104731362Y-100927762D01*
X104708346Y-100955808D01*
X104230808Y-101433346D01*
X104202763Y-101456362D01*
X104110914Y-101568280D01*
X104079806Y-101626480D01*
X104042664Y-101695967D01*
X104000635Y-101834515D01*
X103986444Y-101978600D01*
X103990001Y-102014715D01*
X103990000Y-105082353D01*
X103583562Y-105488792D01*
X103573679Y-105482188D01*
X103426268Y-105421128D01*
X103269778Y-105390000D01*
X103110222Y-105390000D01*
X102953732Y-105421128D01*
X102806321Y-105482188D01*
X102673655Y-105570832D01*
X102560832Y-105683655D01*
X102472188Y-105816321D01*
X102411128Y-105963732D01*
X102380000Y-106120222D01*
X102380000Y-106279778D01*
X102411128Y-106436268D01*
X102437527Y-106500000D01*
X102411128Y-106563732D01*
X102380000Y-106720222D01*
X102380000Y-106879778D01*
X102411128Y-107036268D01*
X102464462Y-107165027D01*
X102445834Y-107183655D01*
X102357190Y-107316321D01*
X102296130Y-107463732D01*
X102265002Y-107620222D01*
X102265002Y-107779778D01*
X102296130Y-107936268D01*
X102322529Y-108000000D01*
X102296130Y-108063732D01*
X102265002Y-108220222D01*
X102265002Y-108379778D01*
X102296130Y-108536268D01*
X102357190Y-108683679D01*
X102445834Y-108816345D01*
X102558657Y-108929168D01*
X102691323Y-109017812D01*
X102838734Y-109078872D01*
X102995224Y-109110000D01*
X103154780Y-109110000D01*
X103311233Y-109078879D01*
X103460001Y-109227648D01*
X103460000Y-114607095D01*
X103456444Y-114643200D01*
X103460000Y-114679304D01*
X103470635Y-114787284D01*
X103512663Y-114925832D01*
X103580913Y-115053519D01*
X103672762Y-115165437D01*
X103700808Y-115188454D01*
X104059060Y-115546706D01*
X103970226Y-115606063D01*
X103826063Y-115750226D01*
X103712795Y-115919744D01*
X103634774Y-116108102D01*
X103595000Y-116308061D01*
X103595000Y-116511939D01*
X103634774Y-116711898D01*
X103712795Y-116900256D01*
X103742715Y-116945034D01*
X103692795Y-117019744D01*
X103614774Y-117208102D01*
X103575000Y-117408061D01*
X103575000Y-117611939D01*
X103614774Y-117811898D01*
X103692795Y-118000256D01*
X103806063Y-118169774D01*
X103950226Y-118313937D01*
X104119744Y-118427205D01*
X104308102Y-118505226D01*
X104508061Y-118545000D01*
X104711939Y-118545000D01*
X104911898Y-118505226D01*
X105100256Y-118427205D01*
X105269774Y-118313937D01*
X105405650Y-118178061D01*
X109205000Y-118178061D01*
X109205000Y-118381939D01*
X109244774Y-118581898D01*
X109322795Y-118770256D01*
X109436063Y-118939774D01*
X109580226Y-119083937D01*
X109749744Y-119197205D01*
X109938102Y-119275226D01*
X110138061Y-119315000D01*
X110341939Y-119315000D01*
X110541898Y-119275226D01*
X110730256Y-119197205D01*
X110899774Y-119083937D01*
X111043937Y-118939774D01*
X111157205Y-118770256D01*
X111235226Y-118581898D01*
X111275000Y-118381939D01*
X111275000Y-118178061D01*
X111235226Y-117978102D01*
X111157205Y-117789744D01*
X111043937Y-117620226D01*
X110899774Y-117476063D01*
X110730256Y-117362795D01*
X110541898Y-117284774D01*
X110341939Y-117245000D01*
X110138061Y-117245000D01*
X109938102Y-117284774D01*
X109749744Y-117362795D01*
X109580226Y-117476063D01*
X109436063Y-117620226D01*
X109322795Y-117789744D01*
X109244774Y-117978102D01*
X109205000Y-118178061D01*
X105405650Y-118178061D01*
X105413937Y-118169774D01*
X105527205Y-118000256D01*
X105605226Y-117811898D01*
X105645000Y-117611939D01*
X105645000Y-117408061D01*
X105605226Y-117208102D01*
X105527205Y-117019744D01*
X105497285Y-116974966D01*
X105547205Y-116900256D01*
X105625226Y-116711898D01*
X105665000Y-116511939D01*
X105665000Y-116308061D01*
X105625226Y-116108102D01*
X105617728Y-116090000D01*
X107137095Y-116090000D01*
X107173200Y-116093556D01*
X107209305Y-116090000D01*
X107317285Y-116079365D01*
X107455833Y-116037337D01*
X107583520Y-115969087D01*
X107695438Y-115877238D01*
X107718458Y-115849188D01*
X108349193Y-115218454D01*
X108377238Y-115195438D01*
X108469087Y-115083520D01*
X108537337Y-114955833D01*
X108579365Y-114817285D01*
X108590000Y-114709305D01*
X108593556Y-114673200D01*
X108590000Y-114637095D01*
X108590000Y-114161524D01*
X108633115Y-114152318D01*
X108675915Y-114133882D01*
X108723004Y-114117405D01*
X108767968Y-114105131D01*
X108823532Y-114077406D01*
X108879825Y-114051263D01*
X108917451Y-114023765D01*
X108939417Y-114009963D01*
X108986063Y-114079774D01*
X109130226Y-114223937D01*
X109299744Y-114337205D01*
X109488102Y-114415226D01*
X109688061Y-114455000D01*
X109891939Y-114455000D01*
X110091898Y-114415226D01*
X110280256Y-114337205D01*
X110449774Y-114223937D01*
X110593937Y-114079774D01*
X110707205Y-113910256D01*
X110761159Y-113780001D01*
X111928238Y-113780001D01*
X111942188Y-113813679D01*
X112019911Y-113930000D01*
X111942188Y-114046321D01*
X111881128Y-114193732D01*
X111850000Y-114350222D01*
X111850000Y-114509778D01*
X111881128Y-114666268D01*
X111942188Y-114813679D01*
X112030832Y-114946345D01*
X112143655Y-115059168D01*
X112276321Y-115147812D01*
X112423732Y-115208872D01*
X112580222Y-115240000D01*
X112739778Y-115240000D01*
X112896268Y-115208872D01*
X113043679Y-115147812D01*
X113176345Y-115059168D01*
X113289168Y-114946345D01*
X113377812Y-114813679D01*
X113438872Y-114666268D01*
X113470000Y-114509778D01*
X113470000Y-114350222D01*
X113850000Y-114350222D01*
X113850000Y-114509778D01*
X113881128Y-114666268D01*
X113942188Y-114813679D01*
X114030832Y-114946345D01*
X114143655Y-115059168D01*
X114276321Y-115147812D01*
X114423732Y-115208872D01*
X114560168Y-115236011D01*
X114500226Y-115276063D01*
X114356063Y-115420226D01*
X114242795Y-115589744D01*
X114164774Y-115778102D01*
X114125000Y-115978061D01*
X114125000Y-116181939D01*
X114164774Y-116381898D01*
X114242795Y-116570256D01*
X114356063Y-116739774D01*
X114500226Y-116883937D01*
X114669744Y-116997205D01*
X114858102Y-117075226D01*
X115058061Y-117115000D01*
X115261939Y-117115000D01*
X115461898Y-117075226D01*
X115650256Y-116997205D01*
X115819774Y-116883937D01*
X115963937Y-116739774D01*
X116077205Y-116570256D01*
X116115000Y-116479011D01*
X116115000Y-116611939D01*
X116154774Y-116811898D01*
X116232795Y-117000256D01*
X116346063Y-117169774D01*
X116490226Y-117313937D01*
X116659744Y-117427205D01*
X116848102Y-117505226D01*
X117048061Y-117545000D01*
X117251939Y-117545000D01*
X117451898Y-117505226D01*
X117640256Y-117427205D01*
X117809774Y-117313937D01*
X117949190Y-117174521D01*
X117966063Y-117199774D01*
X118110226Y-117343937D01*
X118279744Y-117457205D01*
X118468102Y-117535226D01*
X118668061Y-117575000D01*
X118871939Y-117575000D01*
X119071898Y-117535226D01*
X119260256Y-117457205D01*
X119429774Y-117343937D01*
X119573937Y-117199774D01*
X119687205Y-117030256D01*
X119765226Y-116841898D01*
X119805000Y-116641939D01*
X119805000Y-116438061D01*
X119765226Y-116238102D01*
X119687205Y-116049744D01*
X119573937Y-115880226D01*
X119429774Y-115736063D01*
X119260256Y-115622795D01*
X119071898Y-115544774D01*
X118871939Y-115505000D01*
X118668061Y-115505000D01*
X118468102Y-115544774D01*
X118279744Y-115622795D01*
X118110226Y-115736063D01*
X117970810Y-115875479D01*
X117953937Y-115850226D01*
X117809774Y-115706063D01*
X117640256Y-115592795D01*
X117451898Y-115514774D01*
X117251939Y-115475000D01*
X117048061Y-115475000D01*
X116848102Y-115514774D01*
X116659744Y-115592795D01*
X116490226Y-115706063D01*
X116346063Y-115850226D01*
X116232795Y-116019744D01*
X116195000Y-116110989D01*
X116195000Y-115978061D01*
X116155226Y-115778102D01*
X116077205Y-115589744D01*
X115963937Y-115420226D01*
X115819774Y-115276063D01*
X115650256Y-115162795D01*
X115461898Y-115084774D01*
X115261939Y-115045000D01*
X115190513Y-115045000D01*
X115289168Y-114946345D01*
X115377812Y-114813679D01*
X115438872Y-114666268D01*
X115470000Y-114509778D01*
X115470000Y-114350222D01*
X115850000Y-114350222D01*
X115850000Y-114509778D01*
X115881128Y-114666268D01*
X115942188Y-114813679D01*
X116030832Y-114946345D01*
X116143655Y-115059168D01*
X116276321Y-115147812D01*
X116423732Y-115208872D01*
X116580222Y-115240000D01*
X116739778Y-115240000D01*
X116896268Y-115208872D01*
X117043679Y-115147812D01*
X117176345Y-115059168D01*
X117289168Y-114946345D01*
X117377812Y-114813679D01*
X117438872Y-114666268D01*
X117470000Y-114509778D01*
X117470000Y-114350222D01*
X117438872Y-114193732D01*
X117377812Y-114046321D01*
X117289168Y-113913655D01*
X117176345Y-113800832D01*
X117043679Y-113712188D01*
X116896268Y-113651128D01*
X116739778Y-113620000D01*
X116580222Y-113620000D01*
X116423732Y-113651128D01*
X116276321Y-113712188D01*
X116143655Y-113800832D01*
X116030832Y-113913655D01*
X115942188Y-114046321D01*
X115881128Y-114193732D01*
X115850000Y-114350222D01*
X115470000Y-114350222D01*
X115438872Y-114193732D01*
X115377812Y-114046321D01*
X115289168Y-113913655D01*
X115176345Y-113800832D01*
X115043679Y-113712188D01*
X114896268Y-113651128D01*
X114739778Y-113620000D01*
X114580222Y-113620000D01*
X114423732Y-113651128D01*
X114276321Y-113712188D01*
X114143655Y-113800832D01*
X114030832Y-113913655D01*
X113942188Y-114046321D01*
X113881128Y-114193732D01*
X113850000Y-114350222D01*
X113470000Y-114350222D01*
X113438872Y-114193732D01*
X113377812Y-114046321D01*
X113300089Y-113930000D01*
X113377812Y-113813679D01*
X113438872Y-113666268D01*
X113470000Y-113509778D01*
X113470000Y-113350222D01*
X117850000Y-113350222D01*
X117850000Y-113509778D01*
X117881128Y-113666268D01*
X117942188Y-113813679D01*
X118030832Y-113946345D01*
X118143655Y-114059168D01*
X118276321Y-114147812D01*
X118423732Y-114208872D01*
X118580222Y-114240000D01*
X118739778Y-114240000D01*
X118896268Y-114208872D01*
X119043679Y-114147812D01*
X119176345Y-114059168D01*
X119289168Y-113946345D01*
X119377812Y-113813679D01*
X119438872Y-113666268D01*
X119470000Y-113509778D01*
X119470000Y-113350222D01*
X119850000Y-113350222D01*
X119850000Y-113509778D01*
X119881128Y-113666268D01*
X119942188Y-113813679D01*
X120030832Y-113946345D01*
X120143655Y-114059168D01*
X120276321Y-114147812D01*
X120423732Y-114208872D01*
X120580222Y-114240000D01*
X120739778Y-114240000D01*
X120896268Y-114208872D01*
X121043679Y-114147812D01*
X121160000Y-114070089D01*
X121276321Y-114147812D01*
X121423732Y-114208872D01*
X121580222Y-114240000D01*
X121739778Y-114240000D01*
X121896268Y-114208872D01*
X122043679Y-114147812D01*
X122176345Y-114059168D01*
X122289168Y-113946345D01*
X122377812Y-113813679D01*
X122438872Y-113666268D01*
X122470000Y-113509778D01*
X122470000Y-113350222D01*
X122438872Y-113193732D01*
X122377812Y-113046321D01*
X122300089Y-112930000D01*
X122369833Y-112825620D01*
X122426063Y-112909774D01*
X122570226Y-113053937D01*
X122739744Y-113167205D01*
X122928102Y-113245226D01*
X123128061Y-113285000D01*
X123331939Y-113285000D01*
X123480001Y-113255549D01*
X123480001Y-113907125D01*
X123401898Y-113874774D01*
X123201939Y-113835000D01*
X122998061Y-113835000D01*
X122798102Y-113874774D01*
X122609744Y-113952795D01*
X122440226Y-114066063D01*
X122296063Y-114210226D01*
X122182795Y-114379744D01*
X122104774Y-114568102D01*
X122065000Y-114768061D01*
X122065000Y-114971939D01*
X122104774Y-115171898D01*
X122182795Y-115360256D01*
X122296063Y-115529774D01*
X122440226Y-115673937D01*
X122609744Y-115787205D01*
X122798102Y-115865226D01*
X122998061Y-115905000D01*
X123201939Y-115905000D01*
X123401898Y-115865226D01*
X123590256Y-115787205D01*
X123759774Y-115673937D01*
X123899455Y-115534256D01*
X124126481Y-115761282D01*
X123958102Y-115794774D01*
X123769744Y-115872795D01*
X123600226Y-115986063D01*
X123456063Y-116130226D01*
X123342795Y-116299744D01*
X123264774Y-116488102D01*
X123225000Y-116688061D01*
X123225000Y-116891939D01*
X123264774Y-117091898D01*
X123342795Y-117280256D01*
X123456063Y-117449774D01*
X123600226Y-117593937D01*
X123769744Y-117707205D01*
X123958102Y-117785226D01*
X124158061Y-117825000D01*
X124361939Y-117825000D01*
X124561898Y-117785226D01*
X124750256Y-117707205D01*
X124919774Y-117593937D01*
X125063937Y-117449774D01*
X125177205Y-117280256D01*
X125255226Y-117091898D01*
X125288718Y-116923520D01*
X128479719Y-120114521D01*
X128459744Y-120122795D01*
X128290226Y-120236063D01*
X128146063Y-120380226D01*
X128061495Y-120506792D01*
X127951939Y-120485000D01*
X127748061Y-120485000D01*
X127548102Y-120524774D01*
X127359744Y-120602795D01*
X127190226Y-120716063D01*
X127046063Y-120860226D01*
X126932795Y-121029744D01*
X126854774Y-121218102D01*
X126815000Y-121418061D01*
X126815000Y-121621939D01*
X126854774Y-121821898D01*
X126932795Y-122010256D01*
X127046063Y-122179774D01*
X127190226Y-122323937D01*
X127359744Y-122437205D01*
X127548102Y-122515226D01*
X127748061Y-122555000D01*
X127951939Y-122555000D01*
X128151898Y-122515226D01*
X128340256Y-122437205D01*
X128509774Y-122323937D01*
X128558778Y-122274933D01*
X128618986Y-122269003D01*
X128762247Y-122225546D01*
X128894276Y-122154974D01*
X128991725Y-122075000D01*
X129051939Y-122075000D01*
X129251898Y-122035226D01*
X129440256Y-121957205D01*
X129609774Y-121843937D01*
X129640000Y-121813711D01*
X129640000Y-122311928D01*
X129550000Y-122311928D01*
X129425518Y-122324188D01*
X129305820Y-122360498D01*
X129195506Y-122419463D01*
X129098815Y-122498815D01*
X129019463Y-122595506D01*
X128960498Y-122705820D01*
X128924188Y-122825518D01*
X128911928Y-122950000D01*
X128911928Y-124650000D01*
X128924188Y-124774482D01*
X128960498Y-124894180D01*
X129019463Y-125004494D01*
X129098815Y-125101185D01*
X129195506Y-125180537D01*
X129305820Y-125239502D01*
X129425518Y-125275812D01*
X129550000Y-125288072D01*
X131250000Y-125288072D01*
X131374482Y-125275812D01*
X131494180Y-125239502D01*
X131604494Y-125180537D01*
X131701185Y-125101185D01*
X131780537Y-125004494D01*
X131839502Y-124894180D01*
X131875812Y-124774482D01*
X131888072Y-124650000D01*
X131888072Y-122950000D01*
X131875812Y-122825518D01*
X131839502Y-122705820D01*
X131780537Y-122595506D01*
X131701185Y-122498815D01*
X131604494Y-122419463D01*
X131494180Y-122360498D01*
X131374482Y-122324188D01*
X131250000Y-122311928D01*
X131160000Y-122311928D01*
X131160000Y-120997333D01*
X131163677Y-120960000D01*
X131149003Y-120811014D01*
X131105546Y-120667753D01*
X131034974Y-120535724D01*
X130963799Y-120448997D01*
X130940001Y-120419999D01*
X130911004Y-120396202D01*
X125149801Y-114635000D01*
X125241939Y-114635000D01*
X125441898Y-114595226D01*
X125630256Y-114517205D01*
X125799774Y-114403937D01*
X125943937Y-114259774D01*
X126057205Y-114090256D01*
X126135226Y-113901898D01*
X126175000Y-113701939D01*
X126175000Y-113498061D01*
X126135226Y-113298102D01*
X126057205Y-113109744D01*
X125943937Y-112940226D01*
X125799774Y-112796063D01*
X125734757Y-112752620D01*
X125820256Y-112717205D01*
X125989774Y-112603937D01*
X126133937Y-112459774D01*
X126247205Y-112290256D01*
X126325226Y-112101898D01*
X126365000Y-111901939D01*
X126365000Y-111698061D01*
X126325226Y-111498102D01*
X126247205Y-111309744D01*
X126133937Y-111140226D01*
X125989774Y-110996063D01*
X125827229Y-110887454D01*
X125900256Y-110857205D01*
X126069774Y-110743937D01*
X126213937Y-110599774D01*
X126327205Y-110430256D01*
X126405226Y-110241898D01*
X126445000Y-110041939D01*
X126445000Y-109838061D01*
X126405226Y-109638102D01*
X126327205Y-109449744D01*
X126213937Y-109280226D01*
X126069774Y-109136063D01*
X125900256Y-109022795D01*
X125851225Y-109002486D01*
X125993937Y-108859774D01*
X126107205Y-108690256D01*
X126185226Y-108501898D01*
X126225000Y-108301939D01*
X126225000Y-108098061D01*
X126185226Y-107898102D01*
X126107205Y-107709744D01*
X125993937Y-107540226D01*
X125849774Y-107396063D01*
X125680256Y-107282795D01*
X125656488Y-107272950D01*
X125759774Y-107203937D01*
X125903937Y-107059774D01*
X126017205Y-106890256D01*
X126095226Y-106701898D01*
X126135000Y-106501939D01*
X126135000Y-106298061D01*
X126095226Y-106098102D01*
X126017205Y-105909744D01*
X125903937Y-105740226D01*
X125759774Y-105596063D01*
X125590256Y-105482795D01*
X125401898Y-105404774D01*
X125201939Y-105365000D01*
X124998061Y-105365000D01*
X124798102Y-105404774D01*
X124609744Y-105482795D01*
X124440226Y-105596063D01*
X124296063Y-105740226D01*
X124182795Y-105909744D01*
X124104774Y-106098102D01*
X124065000Y-106298061D01*
X124065000Y-106501939D01*
X124104774Y-106701898D01*
X124182795Y-106890256D01*
X124296063Y-107059774D01*
X124440226Y-107203937D01*
X124609744Y-107317205D01*
X124633512Y-107327050D01*
X124530226Y-107396063D01*
X124386063Y-107540226D01*
X124272795Y-107709744D01*
X124197155Y-107892353D01*
X122396685Y-106091884D01*
X122377812Y-106046321D01*
X122289168Y-105913655D01*
X122176345Y-105800832D01*
X122043679Y-105712188D01*
X121896268Y-105651128D01*
X121739778Y-105620000D01*
X121580222Y-105620000D01*
X121423732Y-105651128D01*
X121276321Y-105712188D01*
X121143655Y-105800832D01*
X121030832Y-105913655D01*
X120942188Y-106046321D01*
X120881128Y-106193732D01*
X120850000Y-106350222D01*
X120850000Y-106509778D01*
X120881128Y-106666268D01*
X120942188Y-106813679D01*
X121030832Y-106946345D01*
X121143655Y-107059168D01*
X121276321Y-107147812D01*
X121321884Y-107166685D01*
X121783994Y-107628795D01*
X121739778Y-107620000D01*
X121580222Y-107620000D01*
X121423732Y-107651128D01*
X121276321Y-107712188D01*
X121143655Y-107800832D01*
X121030832Y-107913655D01*
X120942188Y-108046321D01*
X120881128Y-108193732D01*
X120850000Y-108350222D01*
X120850000Y-108509778D01*
X120881128Y-108666268D01*
X120942188Y-108813679D01*
X121019911Y-108930000D01*
X120942188Y-109046321D01*
X120881128Y-109193732D01*
X120850000Y-109350222D01*
X120850000Y-109509778D01*
X120881128Y-109666268D01*
X120942188Y-109813679D01*
X121030832Y-109946345D01*
X121143655Y-110059168D01*
X121276321Y-110147812D01*
X121423732Y-110208872D01*
X121580222Y-110240000D01*
X121739778Y-110240000D01*
X121896268Y-110208872D01*
X122043679Y-110147812D01*
X122144631Y-110080358D01*
X122174774Y-110231898D01*
X122252795Y-110420256D01*
X122366063Y-110589774D01*
X122510226Y-110733937D01*
X122679744Y-110847205D01*
X122868102Y-110925226D01*
X123068061Y-110965000D01*
X123271939Y-110965000D01*
X123471898Y-110925226D01*
X123480000Y-110921870D01*
X123480000Y-111244451D01*
X123331939Y-111215000D01*
X123128061Y-111215000D01*
X122928102Y-111254774D01*
X122739744Y-111332795D01*
X122570226Y-111446063D01*
X122460934Y-111555355D01*
X122470000Y-111509778D01*
X122470000Y-111350222D01*
X122438872Y-111193732D01*
X122377812Y-111046321D01*
X122289168Y-110913655D01*
X122176345Y-110800832D01*
X122043679Y-110712188D01*
X121896268Y-110651128D01*
X121739778Y-110620000D01*
X121580222Y-110620000D01*
X121423732Y-110651128D01*
X121276321Y-110712188D01*
X121143655Y-110800832D01*
X121030832Y-110913655D01*
X120942188Y-111046321D01*
X120881128Y-111193732D01*
X120850000Y-111350222D01*
X120850000Y-111509778D01*
X120881128Y-111666268D01*
X120942188Y-111813679D01*
X121019911Y-111930000D01*
X120942188Y-112046321D01*
X120881128Y-112193732D01*
X120850000Y-112350222D01*
X120850000Y-112509778D01*
X120877369Y-112647369D01*
X120739778Y-112620000D01*
X120580222Y-112620000D01*
X120423732Y-112651128D01*
X120276321Y-112712188D01*
X120143655Y-112800832D01*
X120030832Y-112913655D01*
X119942188Y-113046321D01*
X119881128Y-113193732D01*
X119850000Y-113350222D01*
X119470000Y-113350222D01*
X119438872Y-113193732D01*
X119377812Y-113046321D01*
X119289168Y-112913655D01*
X119176345Y-112800832D01*
X119043679Y-112712188D01*
X118896268Y-112651128D01*
X118739778Y-112620000D01*
X118580222Y-112620000D01*
X118423732Y-112651128D01*
X118276321Y-112712188D01*
X118143655Y-112800832D01*
X118030832Y-112913655D01*
X117942188Y-113046321D01*
X117881128Y-113193732D01*
X117850000Y-113350222D01*
X113470000Y-113350222D01*
X113438872Y-113193732D01*
X113377812Y-113046321D01*
X113289168Y-112913655D01*
X113176345Y-112800832D01*
X113043679Y-112712188D01*
X112998116Y-112693315D01*
X112813805Y-112509004D01*
X112790002Y-112480000D01*
X112674277Y-112385027D01*
X112542248Y-112314455D01*
X112398987Y-112270998D01*
X112287334Y-112260001D01*
X112287323Y-112260001D01*
X112250001Y-112256325D01*
X112212679Y-112260001D01*
X110227321Y-112260001D01*
X110189998Y-112256325D01*
X110152676Y-112260001D01*
X110152666Y-112260001D01*
X110041013Y-112270998D01*
X109897752Y-112314455D01*
X109765774Y-112385000D01*
X109688061Y-112385000D01*
X109488102Y-112424774D01*
X109407560Y-112458136D01*
X109406180Y-112453079D01*
X109378458Y-112397522D01*
X109352313Y-112341223D01*
X109324811Y-112303593D01*
X109307136Y-112275462D01*
X109380222Y-112290000D01*
X109539778Y-112290000D01*
X109696268Y-112258872D01*
X109843679Y-112197812D01*
X109930201Y-112140000D01*
X111221076Y-112140000D01*
X111268428Y-112154364D01*
X111299535Y-112157428D01*
X111423732Y-112208872D01*
X111580222Y-112240000D01*
X111739778Y-112240000D01*
X111896268Y-112208872D01*
X112043679Y-112147812D01*
X112176345Y-112059168D01*
X112289168Y-111946345D01*
X112377812Y-111813679D01*
X112438872Y-111666268D01*
X112470000Y-111509778D01*
X112470000Y-111350222D01*
X112438872Y-111193732D01*
X112377812Y-111046321D01*
X112300089Y-110930000D01*
X112377812Y-110813679D01*
X112438872Y-110666268D01*
X112470000Y-110509778D01*
X112470000Y-110350222D01*
X112438872Y-110193732D01*
X112377812Y-110046321D01*
X112300089Y-109930000D01*
X112377812Y-109813679D01*
X112438872Y-109666268D01*
X112470000Y-109509778D01*
X112470000Y-109350222D01*
X112438872Y-109193732D01*
X112377812Y-109046321D01*
X112305089Y-108937483D01*
X112387812Y-108813679D01*
X112448872Y-108666268D01*
X112480000Y-108509778D01*
X112480000Y-108350222D01*
X112448872Y-108193732D01*
X112387812Y-108046321D01*
X112305089Y-107922517D01*
X112377812Y-107813679D01*
X112438872Y-107666268D01*
X112470000Y-107509778D01*
X112470000Y-107350222D01*
X112438872Y-107193732D01*
X112377812Y-107046321D01*
X112289168Y-106913655D01*
X112176345Y-106800832D01*
X112043679Y-106712188D01*
X111896268Y-106651128D01*
X111739778Y-106620000D01*
X111580222Y-106620000D01*
X111442631Y-106647369D01*
X111470000Y-106509778D01*
X111470000Y-106350222D01*
X111438872Y-106193732D01*
X111377812Y-106046321D01*
X111289168Y-105913655D01*
X111176345Y-105800832D01*
X111043679Y-105712188D01*
X110934689Y-105667043D01*
X110631306Y-105363661D01*
X110611005Y-105261599D01*
X110599838Y-105234639D01*
X110946196Y-105580997D01*
X110969999Y-105610001D01*
X111085724Y-105704974D01*
X111175128Y-105752762D01*
X111217753Y-105775546D01*
X111361014Y-105819003D01*
X111510000Y-105833677D01*
X111547333Y-105830000D01*
X111953093Y-105830000D01*
X112030832Y-105946345D01*
X112143655Y-106059168D01*
X112276321Y-106147812D01*
X112423732Y-106208872D01*
X112580222Y-106240000D01*
X112739778Y-106240000D01*
X112896268Y-106208872D01*
X113043679Y-106147812D01*
X113176345Y-106059168D01*
X113289168Y-105946345D01*
X113377812Y-105813679D01*
X113438872Y-105666268D01*
X113470000Y-105509778D01*
X113470000Y-105350222D01*
X113442631Y-105212631D01*
X113580222Y-105240000D01*
X113739778Y-105240000D01*
X113835835Y-105220893D01*
X114163115Y-105739086D01*
X114250987Y-105849013D01*
X114347213Y-105927983D01*
X114456996Y-105986664D01*
X114576118Y-106022799D01*
X114700000Y-106035000D01*
X120600000Y-106035000D01*
X120717023Y-106024124D01*
X120836535Y-105989301D01*
X120946957Y-105931832D01*
X121044046Y-105853925D01*
X121124070Y-105758574D01*
X122424070Y-103858574D01*
X122486664Y-103743004D01*
X122522799Y-103623882D01*
X122524357Y-103608061D01*
X123915000Y-103608061D01*
X123915000Y-103811939D01*
X123954774Y-104011898D01*
X124032795Y-104200256D01*
X124146063Y-104369774D01*
X124290226Y-104513937D01*
X124459744Y-104627205D01*
X124648102Y-104705226D01*
X124848061Y-104745000D01*
X124910199Y-104745000D01*
X126226200Y-106061002D01*
X126249999Y-106090001D01*
X126278997Y-106113799D01*
X126365723Y-106184974D01*
X126468669Y-106240000D01*
X126497753Y-106255546D01*
X126641014Y-106299003D01*
X126752667Y-106310000D01*
X126752677Y-106310000D01*
X126790000Y-106313676D01*
X126827323Y-106310000D01*
X128965000Y-106310000D01*
X128965000Y-106501939D01*
X129004774Y-106701898D01*
X129082795Y-106890256D01*
X129196063Y-107059774D01*
X129340226Y-107203937D01*
X129509744Y-107317205D01*
X129698102Y-107395226D01*
X129733935Y-107402354D01*
X129596063Y-107540226D01*
X129482795Y-107709744D01*
X129404774Y-107898102D01*
X129365000Y-108098061D01*
X129365000Y-108301939D01*
X129404774Y-108501898D01*
X129482795Y-108690256D01*
X129596063Y-108859774D01*
X129740226Y-109003937D01*
X129883995Y-109100000D01*
X129740226Y-109196063D01*
X129596063Y-109340226D01*
X129482795Y-109509744D01*
X129404774Y-109698102D01*
X129365000Y-109898061D01*
X129365000Y-110101939D01*
X129404774Y-110301898D01*
X129482795Y-110490256D01*
X129596063Y-110659774D01*
X129740226Y-110803937D01*
X129883995Y-110900000D01*
X129740226Y-110996063D01*
X129596063Y-111140226D01*
X129482795Y-111309744D01*
X129404774Y-111498102D01*
X129365000Y-111698061D01*
X129365000Y-111901939D01*
X129404774Y-112101898D01*
X129482795Y-112290256D01*
X129596063Y-112459774D01*
X129740226Y-112603937D01*
X129883995Y-112700000D01*
X129740226Y-112796063D01*
X129596063Y-112940226D01*
X129482795Y-113109744D01*
X129404774Y-113298102D01*
X129365000Y-113498061D01*
X129365000Y-113701939D01*
X129404774Y-113901898D01*
X129482795Y-114090256D01*
X129596063Y-114259774D01*
X129740226Y-114403937D01*
X129883995Y-114500000D01*
X129740226Y-114596063D01*
X129596063Y-114740226D01*
X129482795Y-114909744D01*
X129404774Y-115098102D01*
X129365000Y-115298061D01*
X129365000Y-115501939D01*
X129404774Y-115701898D01*
X129482795Y-115890256D01*
X129596063Y-116059774D01*
X129740226Y-116203937D01*
X129909744Y-116317205D01*
X130098102Y-116395226D01*
X130298061Y-116435000D01*
X130501939Y-116435000D01*
X130701898Y-116395226D01*
X130890256Y-116317205D01*
X131059774Y-116203937D01*
X131203937Y-116059774D01*
X131317205Y-115890256D01*
X131395226Y-115701898D01*
X131435000Y-115501939D01*
X131435000Y-115298061D01*
X131395226Y-115098102D01*
X131317205Y-114909744D01*
X131203937Y-114740226D01*
X131059774Y-114596063D01*
X130916005Y-114500000D01*
X131059774Y-114403937D01*
X131203937Y-114259774D01*
X131317205Y-114090256D01*
X131395226Y-113901898D01*
X131435000Y-113701939D01*
X131435000Y-113498061D01*
X131395226Y-113298102D01*
X131317205Y-113109744D01*
X131203937Y-112940226D01*
X131059774Y-112796063D01*
X130916005Y-112700000D01*
X131059774Y-112603937D01*
X131203937Y-112459774D01*
X131317205Y-112290256D01*
X131395226Y-112101898D01*
X131435000Y-111901939D01*
X131435000Y-111698061D01*
X131395226Y-111498102D01*
X131317205Y-111309744D01*
X131203937Y-111140226D01*
X131059774Y-110996063D01*
X130916005Y-110900000D01*
X131059774Y-110803937D01*
X131203937Y-110659774D01*
X131317205Y-110490256D01*
X131395226Y-110301898D01*
X131435000Y-110101939D01*
X131435000Y-109898061D01*
X131395226Y-109698102D01*
X131317205Y-109509744D01*
X131203937Y-109340226D01*
X131059774Y-109196063D01*
X130916005Y-109100000D01*
X131059774Y-109003937D01*
X131203937Y-108859774D01*
X131317205Y-108690256D01*
X131395226Y-108501898D01*
X131435000Y-108301939D01*
X131435000Y-108098061D01*
X131395226Y-107898102D01*
X131350888Y-107791061D01*
X131509744Y-107897205D01*
X131698102Y-107975226D01*
X131898061Y-108015000D01*
X132101939Y-108015000D01*
X132301898Y-107975226D01*
X132490256Y-107897205D01*
X132659774Y-107783937D01*
X132803937Y-107639774D01*
X132917205Y-107470256D01*
X132995226Y-107281898D01*
X133035000Y-107081939D01*
X133035000Y-106878061D01*
X132995226Y-106678102D01*
X132951173Y-106571750D01*
X133068061Y-106595000D01*
X133271939Y-106595000D01*
X133471898Y-106555226D01*
X133660256Y-106477205D01*
X133829774Y-106363937D01*
X133973937Y-106219774D01*
X134087205Y-106050256D01*
X134165226Y-105861898D01*
X134205000Y-105661939D01*
X134205000Y-105458061D01*
X134165226Y-105258102D01*
X134087205Y-105069744D01*
X133973937Y-104900226D01*
X133829774Y-104756063D01*
X133660256Y-104642795D01*
X133635000Y-104632334D01*
X133635000Y-104498061D01*
X133595226Y-104298102D01*
X133517205Y-104109744D01*
X133403937Y-103940226D01*
X133259774Y-103796063D01*
X133090256Y-103682795D01*
X132901898Y-103604774D01*
X132701939Y-103565000D01*
X132498061Y-103565000D01*
X132298102Y-103604774D01*
X132109744Y-103682795D01*
X131940226Y-103796063D01*
X131796063Y-103940226D01*
X131682795Y-104109744D01*
X131644988Y-104201017D01*
X131578985Y-104180996D01*
X131467332Y-104169999D01*
X131467321Y-104169999D01*
X131429999Y-104166323D01*
X131392677Y-104169999D01*
X129211159Y-104169999D01*
X129157205Y-104039744D01*
X129043937Y-103870226D01*
X128899774Y-103726063D01*
X128730256Y-103612795D01*
X128541898Y-103534774D01*
X128341939Y-103495000D01*
X128138061Y-103495000D01*
X127938102Y-103534774D01*
X127749744Y-103612795D01*
X127580226Y-103726063D01*
X127436063Y-103870226D01*
X127322795Y-104039744D01*
X127244774Y-104228102D01*
X127205000Y-104428061D01*
X127205000Y-104631939D01*
X127236440Y-104790000D01*
X127104802Y-104790000D01*
X125985000Y-103670199D01*
X125985000Y-103608061D01*
X125945226Y-103408102D01*
X125867205Y-103219744D01*
X125753937Y-103050226D01*
X125609774Y-102906063D01*
X125440256Y-102792795D01*
X125251898Y-102714774D01*
X125051939Y-102675000D01*
X124848061Y-102675000D01*
X124648102Y-102714774D01*
X124459744Y-102792795D01*
X124290226Y-102906063D01*
X124146063Y-103050226D01*
X124032795Y-103219744D01*
X123954774Y-103408102D01*
X123915000Y-103608061D01*
X122524357Y-103608061D01*
X122535000Y-103500000D01*
X122535000Y-101560222D01*
X129500000Y-101560222D01*
X129500000Y-101719778D01*
X129531128Y-101876268D01*
X129553385Y-101930000D01*
X129531128Y-101983732D01*
X129500000Y-102140222D01*
X129500000Y-102299778D01*
X129531128Y-102456268D01*
X129592188Y-102603679D01*
X129680832Y-102736345D01*
X129793655Y-102849168D01*
X129926321Y-102937812D01*
X130073732Y-102998872D01*
X130230222Y-103030000D01*
X130389778Y-103030000D01*
X130546268Y-102998872D01*
X130693679Y-102937812D01*
X130826345Y-102849168D01*
X130939168Y-102736345D01*
X131027812Y-102603679D01*
X131088872Y-102456268D01*
X131120000Y-102299778D01*
X131120000Y-102140222D01*
X131088872Y-101983732D01*
X131066615Y-101930000D01*
X131088872Y-101876268D01*
X131120000Y-101719778D01*
X131120000Y-101560222D01*
X131088872Y-101403732D01*
X131027812Y-101256321D01*
X130939168Y-101123655D01*
X130826345Y-101010832D01*
X130693679Y-100922188D01*
X130546268Y-100861128D01*
X130389778Y-100830000D01*
X130230222Y-100830000D01*
X130073732Y-100861128D01*
X129926321Y-100922188D01*
X129793655Y-101010832D01*
X129680832Y-101123655D01*
X129592188Y-101256321D01*
X129531128Y-101403732D01*
X129500000Y-101560222D01*
X122535000Y-101560222D01*
X122535000Y-99828061D01*
X124745000Y-99828061D01*
X124745000Y-100031939D01*
X124784774Y-100231898D01*
X124862795Y-100420256D01*
X124976063Y-100589774D01*
X125120226Y-100733937D01*
X125289744Y-100847205D01*
X125478102Y-100925226D01*
X125678061Y-100965000D01*
X125881939Y-100965000D01*
X126081898Y-100925226D01*
X126270256Y-100847205D01*
X126439774Y-100733937D01*
X126583937Y-100589774D01*
X126697205Y-100420256D01*
X126775226Y-100231898D01*
X126815000Y-100031939D01*
X126815000Y-99828061D01*
X126775226Y-99628102D01*
X126697205Y-99439744D01*
X126583937Y-99270226D01*
X126439774Y-99126063D01*
X126270256Y-99012795D01*
X126081898Y-98934774D01*
X125881939Y-98895000D01*
X125678061Y-98895000D01*
X125478102Y-98934774D01*
X125289744Y-99012795D01*
X125120226Y-99126063D01*
X124976063Y-99270226D01*
X124862795Y-99439744D01*
X124784774Y-99628102D01*
X124745000Y-99828061D01*
X122535000Y-99828061D01*
X122535000Y-93978711D01*
X122660226Y-94103937D01*
X122829744Y-94217205D01*
X123018102Y-94295226D01*
X123218061Y-94335000D01*
X123421939Y-94335000D01*
X123621898Y-94295226D01*
X123810256Y-94217205D01*
X123979774Y-94103937D01*
X124123937Y-93959774D01*
X124237205Y-93790256D01*
X124315226Y-93601898D01*
X124355000Y-93401939D01*
X124355000Y-93198061D01*
X124315226Y-92998102D01*
X124237205Y-92809744D01*
X124123937Y-92640226D01*
X123979774Y-92496063D01*
X123810256Y-92382795D01*
X123621898Y-92304774D01*
X123421939Y-92265000D01*
X123349803Y-92265000D01*
X122524802Y-91440000D01*
X129587815Y-91440000D01*
X129616487Y-91731111D01*
X129701401Y-92011034D01*
X129839294Y-92269014D01*
X130024866Y-92495134D01*
X130250986Y-92680706D01*
X130305791Y-92710000D01*
X130250986Y-92739294D01*
X130024866Y-92924866D01*
X129839294Y-93150986D01*
X129701401Y-93408966D01*
X129616487Y-93688889D01*
X129587815Y-93980000D01*
X129616487Y-94271111D01*
X129701401Y-94551034D01*
X129839294Y-94809014D01*
X130024866Y-95035134D01*
X130250986Y-95220706D01*
X130305791Y-95250000D01*
X130250986Y-95279294D01*
X130024866Y-95464866D01*
X129839294Y-95690986D01*
X129701401Y-95948966D01*
X129616487Y-96228889D01*
X129587815Y-96520000D01*
X129616487Y-96811111D01*
X129701401Y-97091034D01*
X129839294Y-97349014D01*
X130024866Y-97575134D01*
X130250986Y-97760706D01*
X130508966Y-97898599D01*
X130788889Y-97983513D01*
X131007050Y-98005000D01*
X131152950Y-98005000D01*
X131371111Y-97983513D01*
X131651034Y-97898599D01*
X131909014Y-97760706D01*
X132135134Y-97575134D01*
X132320706Y-97349014D01*
X132458599Y-97091034D01*
X132543513Y-96811111D01*
X132572185Y-96520000D01*
X132543513Y-96228889D01*
X132458599Y-95948966D01*
X132320706Y-95690986D01*
X132135134Y-95464866D01*
X131909014Y-95279294D01*
X131854209Y-95250000D01*
X131909014Y-95220706D01*
X132135134Y-95035134D01*
X132320706Y-94809014D01*
X132458599Y-94551034D01*
X132543513Y-94271111D01*
X132572185Y-93980000D01*
X132543513Y-93688889D01*
X132458599Y-93408966D01*
X132320706Y-93150986D01*
X132135134Y-92924866D01*
X131909014Y-92739294D01*
X131854209Y-92710000D01*
X131909014Y-92680706D01*
X132135134Y-92495134D01*
X132320706Y-92269014D01*
X132458599Y-92011034D01*
X132543513Y-91731111D01*
X132572185Y-91440000D01*
X132543513Y-91148889D01*
X132458599Y-90868966D01*
X132320706Y-90610986D01*
X132135134Y-90384866D01*
X132105313Y-90360393D01*
X132174180Y-90339502D01*
X132284494Y-90280537D01*
X132381185Y-90201185D01*
X132460537Y-90104494D01*
X132519502Y-89994180D01*
X132555812Y-89874482D01*
X132568072Y-89750000D01*
X132568072Y-88050000D01*
X132555812Y-87925518D01*
X132519502Y-87805820D01*
X132460537Y-87695506D01*
X132381185Y-87598815D01*
X132284494Y-87519463D01*
X132174180Y-87460498D01*
X132054482Y-87424188D01*
X131930000Y-87411928D01*
X130230000Y-87411928D01*
X130105518Y-87424188D01*
X129985820Y-87460498D01*
X129875506Y-87519463D01*
X129778815Y-87598815D01*
X129699463Y-87695506D01*
X129640498Y-87805820D01*
X129604188Y-87925518D01*
X129591928Y-88050000D01*
X129591928Y-89750000D01*
X129604188Y-89874482D01*
X129640498Y-89994180D01*
X129699463Y-90104494D01*
X129778815Y-90201185D01*
X129875506Y-90280537D01*
X129985820Y-90339502D01*
X130054687Y-90360393D01*
X130024866Y-90384866D01*
X129839294Y-90610986D01*
X129701401Y-90868966D01*
X129616487Y-91148889D01*
X129587815Y-91440000D01*
X122524802Y-91440000D01*
X122423801Y-91339000D01*
X122399999Y-91309997D01*
X122284274Y-91215024D01*
X122152245Y-91144452D01*
X122008984Y-91100995D01*
X121897331Y-91089998D01*
X121897320Y-91089998D01*
X121859998Y-91086322D01*
X121822676Y-91089998D01*
X119563711Y-91089998D01*
X119519774Y-91046061D01*
X119350256Y-90932793D01*
X119161898Y-90854772D01*
X118961939Y-90814998D01*
X118758061Y-90814998D01*
X118558102Y-90854772D01*
X118369744Y-90932793D01*
X118200226Y-91046061D01*
X118056063Y-91190224D01*
X117942795Y-91359742D01*
X117864774Y-91548100D01*
X117825000Y-91748059D01*
X117825000Y-91951937D01*
X117864774Y-92151896D01*
X117942795Y-92340254D01*
X117959330Y-92365000D01*
X116607366Y-92365000D01*
X116620282Y-92345670D01*
X116698303Y-92157312D01*
X116738077Y-91957353D01*
X116738077Y-91753475D01*
X116698303Y-91553516D01*
X116620282Y-91365158D01*
X116507014Y-91195640D01*
X116362851Y-91051477D01*
X116193333Y-90938209D01*
X116004975Y-90860188D01*
X115805016Y-90820414D01*
X115601138Y-90820414D01*
X115401179Y-90860188D01*
X115212821Y-90938209D01*
X115043303Y-91051477D01*
X114899140Y-91195640D01*
X114785872Y-91365158D01*
X114707851Y-91553516D01*
X114668077Y-91753475D01*
X114668077Y-91815612D01*
X114118689Y-92365000D01*
X113500000Y-92365000D01*
X113376118Y-92377201D01*
X113256996Y-92413336D01*
X113147213Y-92472017D01*
X113050987Y-92550987D01*
X112972017Y-92647213D01*
X112913336Y-92756996D01*
X112877201Y-92876118D01*
X112865000Y-93000000D01*
X112865000Y-93618690D01*
X112853690Y-93630000D01*
X112553709Y-93630000D01*
X112509772Y-93586063D01*
X112340254Y-93472795D01*
X112151896Y-93394774D01*
X111951937Y-93355000D01*
X111748059Y-93355000D01*
X111548100Y-93394774D01*
X111359742Y-93472795D01*
X111190224Y-93586063D01*
X111046061Y-93730226D01*
X111034761Y-93747138D01*
X106836625Y-89549003D01*
X106812822Y-89519999D01*
X106780955Y-89493846D01*
X107839802Y-88435000D01*
X107901939Y-88435000D01*
X108101898Y-88395226D01*
X108290256Y-88317205D01*
X108459774Y-88203937D01*
X108603937Y-88059774D01*
X108717205Y-87890256D01*
X108795226Y-87701898D01*
X108835000Y-87501939D01*
X108835000Y-87298061D01*
X108795226Y-87098102D01*
X108717205Y-86909744D01*
X108603937Y-86740226D01*
X108459774Y-86596063D01*
X108290256Y-86482795D01*
X108101898Y-86404774D01*
X107901939Y-86365000D01*
X107698061Y-86365000D01*
X107498102Y-86404774D01*
X107309744Y-86482795D01*
X107140226Y-86596063D01*
X106996063Y-86740226D01*
X106882795Y-86909744D01*
X106804774Y-87098102D01*
X106765000Y-87298061D01*
X106765000Y-87360198D01*
X106114998Y-88010200D01*
X106101898Y-88004774D01*
X105901939Y-87965000D01*
X105698061Y-87965000D01*
X105498102Y-88004774D01*
X105309744Y-88082795D01*
X105140226Y-88196063D01*
X104996063Y-88340226D01*
X104882795Y-88509744D01*
X104804774Y-88698102D01*
X104765000Y-88898061D01*
X104765000Y-89101939D01*
X104804396Y-89300000D01*
X100767783Y-89300000D01*
X100773513Y-89281111D01*
X100802185Y-88990000D01*
X100773513Y-88698889D01*
X100688599Y-88418966D01*
X100550706Y-88160986D01*
X100365134Y-87934866D01*
X100335313Y-87910393D01*
X100404180Y-87889502D01*
X100514494Y-87830537D01*
X100611185Y-87751185D01*
X100690537Y-87654494D01*
X100749502Y-87544180D01*
X100785812Y-87424482D01*
X100798072Y-87300000D01*
X100798072Y-85600000D01*
X100785812Y-85475518D01*
X100749502Y-85355820D01*
X100690537Y-85245506D01*
X100611185Y-85148815D01*
X100514494Y-85069463D01*
X100404180Y-85010498D01*
X100284482Y-84974188D01*
X100160000Y-84961928D01*
X98460000Y-84961928D01*
X98335518Y-84974188D01*
X98215820Y-85010498D01*
X98105506Y-85069463D01*
X98008815Y-85148815D01*
X97929463Y-85245506D01*
X97870498Y-85355820D01*
X97834188Y-85475518D01*
X97821928Y-85600000D01*
X97821928Y-87300000D01*
X97834188Y-87424482D01*
X97870498Y-87544180D01*
X97929463Y-87654494D01*
X98008815Y-87751185D01*
X98105506Y-87830537D01*
X98215820Y-87889502D01*
X98284687Y-87910393D01*
X98254866Y-87934866D01*
X98069294Y-88160986D01*
X97931401Y-88418966D01*
X97846487Y-88698889D01*
X97817815Y-88990000D01*
X91710000Y-88990000D01*
X91710000Y-83804495D01*
X92015000Y-83804495D01*
X92015000Y-84195505D01*
X92091282Y-84579003D01*
X92240915Y-84940250D01*
X92458149Y-85265364D01*
X92734636Y-85541851D01*
X93059750Y-85759085D01*
X93420997Y-85908718D01*
X93804495Y-85985000D01*
X94195505Y-85985000D01*
X94579003Y-85908718D01*
X94940250Y-85759085D01*
X95265364Y-85541851D01*
X95541851Y-85265364D01*
X95759085Y-84940250D01*
X95908718Y-84579003D01*
X95985000Y-84195505D01*
X95985000Y-83804495D01*
X134015000Y-83804495D01*
X134015000Y-84195505D01*
X134091282Y-84579003D01*
X134240915Y-84940250D01*
X134458149Y-85265364D01*
X134734636Y-85541851D01*
X135059750Y-85759085D01*
X135420997Y-85908718D01*
X135804495Y-85985000D01*
X136195505Y-85985000D01*
X136579003Y-85908718D01*
X136940250Y-85759085D01*
X137265364Y-85541851D01*
X137541851Y-85265364D01*
X137759085Y-84940250D01*
X137908718Y-84579003D01*
X137985000Y-84195505D01*
X137985000Y-83804495D01*
X137908718Y-83420997D01*
X137759085Y-83059750D01*
X137541851Y-82734636D01*
X137265364Y-82458149D01*
X136940250Y-82240915D01*
X136579003Y-82091282D01*
X136195505Y-82015000D01*
X135804495Y-82015000D01*
X135420997Y-82091282D01*
X135059750Y-82240915D01*
X134734636Y-82458149D01*
X134458149Y-82734636D01*
X134240915Y-83059750D01*
X134091282Y-83420997D01*
X134015000Y-83804495D01*
X95985000Y-83804495D01*
X95908718Y-83420997D01*
X95759085Y-83059750D01*
X95541851Y-82734636D01*
X95265364Y-82458149D01*
X94940250Y-82240915D01*
X94579003Y-82091282D01*
X94195505Y-82015000D01*
X93804495Y-82015000D01*
X93420997Y-82091282D01*
X93059750Y-82240915D01*
X92734636Y-82458149D01*
X92458149Y-82734636D01*
X92240915Y-83059750D01*
X92091282Y-83420997D01*
X92015000Y-83804495D01*
X91710000Y-83804495D01*
X91710000Y-81710000D01*
X138290001Y-81710000D01*
X138290000Y-129290000D01*
X138290000Y-129290000D01*
G37*
X138290000Y-129290000D02*
X91710000Y-129290000D01*
X91710000Y-126804495D01*
X92015000Y-126804495D01*
X92015000Y-127195505D01*
X92091282Y-127579003D01*
X92240915Y-127940250D01*
X92458149Y-128265364D01*
X92734636Y-128541851D01*
X93059750Y-128759085D01*
X93420997Y-128908718D01*
X93804495Y-128985000D01*
X94195505Y-128985000D01*
X94579003Y-128908718D01*
X94940250Y-128759085D01*
X95265364Y-128541851D01*
X95541851Y-128265364D01*
X95759085Y-127940250D01*
X95908718Y-127579003D01*
X95985000Y-127195505D01*
X95985000Y-126804495D01*
X134015000Y-126804495D01*
X134015000Y-127195505D01*
X134091282Y-127579003D01*
X134240915Y-127940250D01*
X134458149Y-128265364D01*
X134734636Y-128541851D01*
X135059750Y-128759085D01*
X135420997Y-128908718D01*
X135804495Y-128985000D01*
X136195505Y-128985000D01*
X136579003Y-128908718D01*
X136940250Y-128759085D01*
X137265364Y-128541851D01*
X137541851Y-128265364D01*
X137759085Y-127940250D01*
X137908718Y-127579003D01*
X137985000Y-127195505D01*
X137985000Y-126804495D01*
X137908718Y-126420997D01*
X137759085Y-126059750D01*
X137541851Y-125734636D01*
X137265364Y-125458149D01*
X136940250Y-125240915D01*
X136579003Y-125091282D01*
X136195505Y-125015000D01*
X135804495Y-125015000D01*
X135420997Y-125091282D01*
X135059750Y-125240915D01*
X134734636Y-125458149D01*
X134458149Y-125734636D01*
X134240915Y-126059750D01*
X134091282Y-126420997D01*
X134015000Y-126804495D01*
X95985000Y-126804495D01*
X95908718Y-126420997D01*
X95759085Y-126059750D01*
X95541851Y-125734636D01*
X95265364Y-125458149D01*
X94940250Y-125240915D01*
X94579003Y-125091282D01*
X94195505Y-125015000D01*
X93804495Y-125015000D01*
X93420997Y-125091282D01*
X93059750Y-125240915D01*
X92734636Y-125458149D01*
X92458149Y-125734636D01*
X92240915Y-126059750D01*
X92091282Y-126420997D01*
X92015000Y-126804495D01*
X91710000Y-126804495D01*
X91710000Y-122950000D01*
X97111928Y-122950000D01*
X97111928Y-124650000D01*
X97124188Y-124774482D01*
X97160498Y-124894180D01*
X97219463Y-125004494D01*
X97298815Y-125101185D01*
X97395506Y-125180537D01*
X97505820Y-125239502D01*
X97625518Y-125275812D01*
X97750000Y-125288072D01*
X99450000Y-125288072D01*
X99574482Y-125275812D01*
X99694180Y-125239502D01*
X99804494Y-125180537D01*
X99901185Y-125101185D01*
X99980537Y-125004494D01*
X100039502Y-124894180D01*
X100075812Y-124774482D01*
X100088072Y-124650000D01*
X100088072Y-122950000D01*
X100075812Y-122825518D01*
X100039502Y-122705820D01*
X99980537Y-122595506D01*
X99901185Y-122498815D01*
X99804494Y-122419463D01*
X99694180Y-122360498D01*
X99574482Y-122324188D01*
X99450000Y-122311928D01*
X97750000Y-122311928D01*
X97625518Y-122324188D01*
X97505820Y-122360498D01*
X97395506Y-122419463D01*
X97298815Y-122498815D01*
X97219463Y-122595506D01*
X97160498Y-122705820D01*
X97124188Y-122825518D01*
X97111928Y-122950000D01*
X91710000Y-122950000D01*
X91710000Y-103218061D01*
X97275000Y-103218061D01*
X97275000Y-103421939D01*
X97314774Y-103621898D01*
X97392795Y-103810256D01*
X97506063Y-103979774D01*
X97650226Y-104123937D01*
X97819744Y-104237205D01*
X98008102Y-104315226D01*
X98208061Y-104355000D01*
X98411939Y-104355000D01*
X98611898Y-104315226D01*
X98800256Y-104237205D01*
X98969774Y-104123937D01*
X99113937Y-103979774D01*
X99227205Y-103810256D01*
X99305226Y-103621898D01*
X99345000Y-103421939D01*
X99345000Y-103218061D01*
X99305226Y-103018102D01*
X99227205Y-102829744D01*
X99113937Y-102660226D01*
X99080000Y-102626289D01*
X99080000Y-100633711D01*
X99123937Y-100589774D01*
X99237205Y-100420256D01*
X99315226Y-100231898D01*
X99355000Y-100031939D01*
X99355000Y-99828061D01*
X99315226Y-99628102D01*
X99237205Y-99439744D01*
X99123937Y-99270226D01*
X98979774Y-99126063D01*
X98810256Y-99012795D01*
X98621898Y-98934774D01*
X98421939Y-98895000D01*
X98218061Y-98895000D01*
X98018102Y-98934774D01*
X97829744Y-99012795D01*
X97660226Y-99126063D01*
X97516063Y-99270226D01*
X97402795Y-99439744D01*
X97324774Y-99628102D01*
X97285000Y-99828061D01*
X97285000Y-100031939D01*
X97324774Y-100231898D01*
X97402795Y-100420256D01*
X97516063Y-100589774D01*
X97560000Y-100633711D01*
X97560001Y-102606288D01*
X97506063Y-102660226D01*
X97392795Y-102829744D01*
X97314774Y-103018102D01*
X97275000Y-103218061D01*
X91710000Y-103218061D01*
X91710000Y-88990000D01*
X97817815Y-88990000D01*
X97846487Y-89281111D01*
X97931401Y-89561034D01*
X98069294Y-89819014D01*
X98254866Y-90045134D01*
X98480986Y-90230706D01*
X98535791Y-90260000D01*
X98480986Y-90289294D01*
X98254866Y-90474866D01*
X98069294Y-90700986D01*
X97931401Y-90958966D01*
X97846487Y-91238889D01*
X97817815Y-91530000D01*
X97846487Y-91821111D01*
X97931401Y-92101034D01*
X98069294Y-92359014D01*
X98254866Y-92585134D01*
X98480986Y-92770706D01*
X98535791Y-92800000D01*
X98480986Y-92829294D01*
X98254866Y-93014866D01*
X98069294Y-93240986D01*
X97931401Y-93498966D01*
X97846487Y-93778889D01*
X97817815Y-94070000D01*
X97846487Y-94361111D01*
X97931401Y-94641034D01*
X98069294Y-94899014D01*
X98254866Y-95125134D01*
X98480986Y-95310706D01*
X98738966Y-95448599D01*
X99018889Y-95533513D01*
X99237050Y-95555000D01*
X99382950Y-95555000D01*
X99601111Y-95533513D01*
X99881034Y-95448599D01*
X100139014Y-95310706D01*
X100365134Y-95125134D01*
X100550706Y-94899014D01*
X100587595Y-94830000D01*
X106785199Y-94830000D01*
X110340001Y-98384803D01*
X110340000Y-104622677D01*
X110336324Y-104660000D01*
X110340000Y-104697322D01*
X110340000Y-104697332D01*
X110350997Y-104808985D01*
X110378095Y-104898316D01*
X110348478Y-104868699D01*
X110215812Y-104780055D01*
X110068401Y-104718995D01*
X109911911Y-104687867D01*
X109752355Y-104687867D01*
X109595865Y-104718995D01*
X109448454Y-104780055D01*
X109315788Y-104868699D01*
X109202965Y-104981522D01*
X109114321Y-105114188D01*
X109087922Y-105177922D01*
X109024188Y-105204321D01*
X108891522Y-105292965D01*
X108778699Y-105405788D01*
X108690055Y-105538454D01*
X108628995Y-105685865D01*
X108597867Y-105842355D01*
X108597867Y-106001911D01*
X108628995Y-106158401D01*
X108690055Y-106305812D01*
X108778699Y-106438478D01*
X108891522Y-106551301D01*
X109024188Y-106639945D01*
X109171599Y-106701005D01*
X109264624Y-106719509D01*
X109118454Y-106780055D01*
X108985788Y-106868699D01*
X108872965Y-106981522D01*
X108784321Y-107114188D01*
X108757922Y-107177922D01*
X108694188Y-107204321D01*
X108561522Y-107292965D01*
X108471067Y-107383420D01*
X108370000Y-107282354D01*
X108370000Y-102072905D01*
X108373556Y-102036800D01*
X108359365Y-101892715D01*
X108317337Y-101754166D01*
X108249087Y-101626480D01*
X108180253Y-101542606D01*
X108180250Y-101542603D01*
X108157237Y-101514562D01*
X108129197Y-101491550D01*
X107593458Y-100955812D01*
X107570438Y-100927762D01*
X107458520Y-100835913D01*
X107330833Y-100767663D01*
X107192285Y-100725635D01*
X107084305Y-100715000D01*
X107048200Y-100711444D01*
X107012095Y-100715000D01*
X105289694Y-100715000D01*
X105253599Y-100711445D01*
X105217504Y-100715000D01*
X105217495Y-100715000D01*
X105109515Y-100725635D01*
X104970967Y-100767663D01*
X104843280Y-100835913D01*
X104731362Y-100927762D01*
X104708346Y-100955808D01*
X104230808Y-101433346D01*
X104202763Y-101456362D01*
X104110914Y-101568280D01*
X104079806Y-101626480D01*
X104042664Y-101695967D01*
X104000635Y-101834515D01*
X103986444Y-101978600D01*
X103990001Y-102014715D01*
X103990000Y-105082353D01*
X103583562Y-105488792D01*
X103573679Y-105482188D01*
X103426268Y-105421128D01*
X103269778Y-105390000D01*
X103110222Y-105390000D01*
X102953732Y-105421128D01*
X102806321Y-105482188D01*
X102673655Y-105570832D01*
X102560832Y-105683655D01*
X102472188Y-105816321D01*
X102411128Y-105963732D01*
X102380000Y-106120222D01*
X102380000Y-106279778D01*
X102411128Y-106436268D01*
X102437527Y-106500000D01*
X102411128Y-106563732D01*
X102380000Y-106720222D01*
X102380000Y-106879778D01*
X102411128Y-107036268D01*
X102464462Y-107165027D01*
X102445834Y-107183655D01*
X102357190Y-107316321D01*
X102296130Y-107463732D01*
X102265002Y-107620222D01*
X102265002Y-107779778D01*
X102296130Y-107936268D01*
X102322529Y-108000000D01*
X102296130Y-108063732D01*
X102265002Y-108220222D01*
X102265002Y-108379778D01*
X102296130Y-108536268D01*
X102357190Y-108683679D01*
X102445834Y-108816345D01*
X102558657Y-108929168D01*
X102691323Y-109017812D01*
X102838734Y-109078872D01*
X102995224Y-109110000D01*
X103154780Y-109110000D01*
X103311233Y-109078879D01*
X103460001Y-109227648D01*
X103460000Y-114607095D01*
X103456444Y-114643200D01*
X103460000Y-114679304D01*
X103470635Y-114787284D01*
X103512663Y-114925832D01*
X103580913Y-115053519D01*
X103672762Y-115165437D01*
X103700808Y-115188454D01*
X104059060Y-115546706D01*
X103970226Y-115606063D01*
X103826063Y-115750226D01*
X103712795Y-115919744D01*
X103634774Y-116108102D01*
X103595000Y-116308061D01*
X103595000Y-116511939D01*
X103634774Y-116711898D01*
X103712795Y-116900256D01*
X103742715Y-116945034D01*
X103692795Y-117019744D01*
X103614774Y-117208102D01*
X103575000Y-117408061D01*
X103575000Y-117611939D01*
X103614774Y-117811898D01*
X103692795Y-118000256D01*
X103806063Y-118169774D01*
X103950226Y-118313937D01*
X104119744Y-118427205D01*
X104308102Y-118505226D01*
X104508061Y-118545000D01*
X104711939Y-118545000D01*
X104911898Y-118505226D01*
X105100256Y-118427205D01*
X105269774Y-118313937D01*
X105405650Y-118178061D01*
X109205000Y-118178061D01*
X109205000Y-118381939D01*
X109244774Y-118581898D01*
X109322795Y-118770256D01*
X109436063Y-118939774D01*
X109580226Y-119083937D01*
X109749744Y-119197205D01*
X109938102Y-119275226D01*
X110138061Y-119315000D01*
X110341939Y-119315000D01*
X110541898Y-119275226D01*
X110730256Y-119197205D01*
X110899774Y-119083937D01*
X111043937Y-118939774D01*
X111157205Y-118770256D01*
X111235226Y-118581898D01*
X111275000Y-118381939D01*
X111275000Y-118178061D01*
X111235226Y-117978102D01*
X111157205Y-117789744D01*
X111043937Y-117620226D01*
X110899774Y-117476063D01*
X110730256Y-117362795D01*
X110541898Y-117284774D01*
X110341939Y-117245000D01*
X110138061Y-117245000D01*
X109938102Y-117284774D01*
X109749744Y-117362795D01*
X109580226Y-117476063D01*
X109436063Y-117620226D01*
X109322795Y-117789744D01*
X109244774Y-117978102D01*
X109205000Y-118178061D01*
X105405650Y-118178061D01*
X105413937Y-118169774D01*
X105527205Y-118000256D01*
X105605226Y-117811898D01*
X105645000Y-117611939D01*
X105645000Y-117408061D01*
X105605226Y-117208102D01*
X105527205Y-117019744D01*
X105497285Y-116974966D01*
X105547205Y-116900256D01*
X105625226Y-116711898D01*
X105665000Y-116511939D01*
X105665000Y-116308061D01*
X105625226Y-116108102D01*
X105617728Y-116090000D01*
X107137095Y-116090000D01*
X107173200Y-116093556D01*
X107209305Y-116090000D01*
X107317285Y-116079365D01*
X107455833Y-116037337D01*
X107583520Y-115969087D01*
X107695438Y-115877238D01*
X107718458Y-115849188D01*
X108349193Y-115218454D01*
X108377238Y-115195438D01*
X108469087Y-115083520D01*
X108537337Y-114955833D01*
X108579365Y-114817285D01*
X108590000Y-114709305D01*
X108593556Y-114673200D01*
X108590000Y-114637095D01*
X108590000Y-114161524D01*
X108633115Y-114152318D01*
X108675915Y-114133882D01*
X108723004Y-114117405D01*
X108767968Y-114105131D01*
X108823532Y-114077406D01*
X108879825Y-114051263D01*
X108917451Y-114023765D01*
X108939417Y-114009963D01*
X108986063Y-114079774D01*
X109130226Y-114223937D01*
X109299744Y-114337205D01*
X109488102Y-114415226D01*
X109688061Y-114455000D01*
X109891939Y-114455000D01*
X110091898Y-114415226D01*
X110280256Y-114337205D01*
X110449774Y-114223937D01*
X110593937Y-114079774D01*
X110707205Y-113910256D01*
X110761159Y-113780001D01*
X111928238Y-113780001D01*
X111942188Y-113813679D01*
X112019911Y-113930000D01*
X111942188Y-114046321D01*
X111881128Y-114193732D01*
X111850000Y-114350222D01*
X111850000Y-114509778D01*
X111881128Y-114666268D01*
X111942188Y-114813679D01*
X112030832Y-114946345D01*
X112143655Y-115059168D01*
X112276321Y-115147812D01*
X112423732Y-115208872D01*
X112580222Y-115240000D01*
X112739778Y-115240000D01*
X112896268Y-115208872D01*
X113043679Y-115147812D01*
X113176345Y-115059168D01*
X113289168Y-114946345D01*
X113377812Y-114813679D01*
X113438872Y-114666268D01*
X113470000Y-114509778D01*
X113470000Y-114350222D01*
X113850000Y-114350222D01*
X113850000Y-114509778D01*
X113881128Y-114666268D01*
X113942188Y-114813679D01*
X114030832Y-114946345D01*
X114143655Y-115059168D01*
X114276321Y-115147812D01*
X114423732Y-115208872D01*
X114560168Y-115236011D01*
X114500226Y-115276063D01*
X114356063Y-115420226D01*
X114242795Y-115589744D01*
X114164774Y-115778102D01*
X114125000Y-115978061D01*
X114125000Y-116181939D01*
X114164774Y-116381898D01*
X114242795Y-116570256D01*
X114356063Y-116739774D01*
X114500226Y-116883937D01*
X114669744Y-116997205D01*
X114858102Y-117075226D01*
X115058061Y-117115000D01*
X115261939Y-117115000D01*
X115461898Y-117075226D01*
X115650256Y-116997205D01*
X115819774Y-116883937D01*
X115963937Y-116739774D01*
X116077205Y-116570256D01*
X116115000Y-116479011D01*
X116115000Y-116611939D01*
X116154774Y-116811898D01*
X116232795Y-117000256D01*
X116346063Y-117169774D01*
X116490226Y-117313937D01*
X116659744Y-117427205D01*
X116848102Y-117505226D01*
X117048061Y-117545000D01*
X117251939Y-117545000D01*
X117451898Y-117505226D01*
X117640256Y-117427205D01*
X117809774Y-117313937D01*
X117949190Y-117174521D01*
X117966063Y-117199774D01*
X118110226Y-117343937D01*
X118279744Y-117457205D01*
X118468102Y-117535226D01*
X118668061Y-117575000D01*
X118871939Y-117575000D01*
X119071898Y-117535226D01*
X119260256Y-117457205D01*
X119429774Y-117343937D01*
X119573937Y-117199774D01*
X119687205Y-117030256D01*
X119765226Y-116841898D01*
X119805000Y-116641939D01*
X119805000Y-116438061D01*
X119765226Y-116238102D01*
X119687205Y-116049744D01*
X119573937Y-115880226D01*
X119429774Y-115736063D01*
X119260256Y-115622795D01*
X119071898Y-115544774D01*
X118871939Y-115505000D01*
X118668061Y-115505000D01*
X118468102Y-115544774D01*
X118279744Y-115622795D01*
X118110226Y-115736063D01*
X117970810Y-115875479D01*
X117953937Y-115850226D01*
X117809774Y-115706063D01*
X117640256Y-115592795D01*
X117451898Y-115514774D01*
X117251939Y-115475000D01*
X117048061Y-115475000D01*
X116848102Y-115514774D01*
X116659744Y-115592795D01*
X116490226Y-115706063D01*
X116346063Y-115850226D01*
X116232795Y-116019744D01*
X116195000Y-116110989D01*
X116195000Y-115978061D01*
X116155226Y-115778102D01*
X116077205Y-115589744D01*
X115963937Y-115420226D01*
X115819774Y-115276063D01*
X115650256Y-115162795D01*
X115461898Y-115084774D01*
X115261939Y-115045000D01*
X115190513Y-115045000D01*
X115289168Y-114946345D01*
X115377812Y-114813679D01*
X115438872Y-114666268D01*
X115470000Y-114509778D01*
X115470000Y-114350222D01*
X115850000Y-114350222D01*
X115850000Y-114509778D01*
X115881128Y-114666268D01*
X115942188Y-114813679D01*
X116030832Y-114946345D01*
X116143655Y-115059168D01*
X116276321Y-115147812D01*
X116423732Y-115208872D01*
X116580222Y-115240000D01*
X116739778Y-115240000D01*
X116896268Y-115208872D01*
X117043679Y-115147812D01*
X117176345Y-115059168D01*
X117289168Y-114946345D01*
X117377812Y-114813679D01*
X117438872Y-114666268D01*
X117470000Y-114509778D01*
X117470000Y-114350222D01*
X117438872Y-114193732D01*
X117377812Y-114046321D01*
X117289168Y-113913655D01*
X117176345Y-113800832D01*
X117043679Y-113712188D01*
X116896268Y-113651128D01*
X116739778Y-113620000D01*
X116580222Y-113620000D01*
X116423732Y-113651128D01*
X116276321Y-113712188D01*
X116143655Y-113800832D01*
X116030832Y-113913655D01*
X115942188Y-114046321D01*
X115881128Y-114193732D01*
X115850000Y-114350222D01*
X115470000Y-114350222D01*
X115438872Y-114193732D01*
X115377812Y-114046321D01*
X115289168Y-113913655D01*
X115176345Y-113800832D01*
X115043679Y-113712188D01*
X114896268Y-113651128D01*
X114739778Y-113620000D01*
X114580222Y-113620000D01*
X114423732Y-113651128D01*
X114276321Y-113712188D01*
X114143655Y-113800832D01*
X114030832Y-113913655D01*
X113942188Y-114046321D01*
X113881128Y-114193732D01*
X113850000Y-114350222D01*
X113470000Y-114350222D01*
X113438872Y-114193732D01*
X113377812Y-114046321D01*
X113300089Y-113930000D01*
X113377812Y-113813679D01*
X113438872Y-113666268D01*
X113470000Y-113509778D01*
X113470000Y-113350222D01*
X117850000Y-113350222D01*
X117850000Y-113509778D01*
X117881128Y-113666268D01*
X117942188Y-113813679D01*
X118030832Y-113946345D01*
X118143655Y-114059168D01*
X118276321Y-114147812D01*
X118423732Y-114208872D01*
X118580222Y-114240000D01*
X118739778Y-114240000D01*
X118896268Y-114208872D01*
X119043679Y-114147812D01*
X119176345Y-114059168D01*
X119289168Y-113946345D01*
X119377812Y-113813679D01*
X119438872Y-113666268D01*
X119470000Y-113509778D01*
X119470000Y-113350222D01*
X119850000Y-113350222D01*
X119850000Y-113509778D01*
X119881128Y-113666268D01*
X119942188Y-113813679D01*
X120030832Y-113946345D01*
X120143655Y-114059168D01*
X120276321Y-114147812D01*
X120423732Y-114208872D01*
X120580222Y-114240000D01*
X120739778Y-114240000D01*
X120896268Y-114208872D01*
X121043679Y-114147812D01*
X121160000Y-114070089D01*
X121276321Y-114147812D01*
X121423732Y-114208872D01*
X121580222Y-114240000D01*
X121739778Y-114240000D01*
X121896268Y-114208872D01*
X122043679Y-114147812D01*
X122176345Y-114059168D01*
X122289168Y-113946345D01*
X122377812Y-113813679D01*
X122438872Y-113666268D01*
X122470000Y-113509778D01*
X122470000Y-113350222D01*
X122438872Y-113193732D01*
X122377812Y-113046321D01*
X122300089Y-112930000D01*
X122369833Y-112825620D01*
X122426063Y-112909774D01*
X122570226Y-113053937D01*
X122739744Y-113167205D01*
X122928102Y-113245226D01*
X123128061Y-113285000D01*
X123331939Y-113285000D01*
X123480001Y-113255549D01*
X123480001Y-113907125D01*
X123401898Y-113874774D01*
X123201939Y-113835000D01*
X122998061Y-113835000D01*
X122798102Y-113874774D01*
X122609744Y-113952795D01*
X122440226Y-114066063D01*
X122296063Y-114210226D01*
X122182795Y-114379744D01*
X122104774Y-114568102D01*
X122065000Y-114768061D01*
X122065000Y-114971939D01*
X122104774Y-115171898D01*
X122182795Y-115360256D01*
X122296063Y-115529774D01*
X122440226Y-115673937D01*
X122609744Y-115787205D01*
X122798102Y-115865226D01*
X122998061Y-115905000D01*
X123201939Y-115905000D01*
X123401898Y-115865226D01*
X123590256Y-115787205D01*
X123759774Y-115673937D01*
X123899455Y-115534256D01*
X124126481Y-115761282D01*
X123958102Y-115794774D01*
X123769744Y-115872795D01*
X123600226Y-115986063D01*
X123456063Y-116130226D01*
X123342795Y-116299744D01*
X123264774Y-116488102D01*
X123225000Y-116688061D01*
X123225000Y-116891939D01*
X123264774Y-117091898D01*
X123342795Y-117280256D01*
X123456063Y-117449774D01*
X123600226Y-117593937D01*
X123769744Y-117707205D01*
X123958102Y-117785226D01*
X124158061Y-117825000D01*
X124361939Y-117825000D01*
X124561898Y-117785226D01*
X124750256Y-117707205D01*
X124919774Y-117593937D01*
X125063937Y-117449774D01*
X125177205Y-117280256D01*
X125255226Y-117091898D01*
X125288718Y-116923520D01*
X128479719Y-120114521D01*
X128459744Y-120122795D01*
X128290226Y-120236063D01*
X128146063Y-120380226D01*
X128061495Y-120506792D01*
X127951939Y-120485000D01*
X127748061Y-120485000D01*
X127548102Y-120524774D01*
X127359744Y-120602795D01*
X127190226Y-120716063D01*
X127046063Y-120860226D01*
X126932795Y-121029744D01*
X126854774Y-121218102D01*
X126815000Y-121418061D01*
X126815000Y-121621939D01*
X126854774Y-121821898D01*
X126932795Y-122010256D01*
X127046063Y-122179774D01*
X127190226Y-122323937D01*
X127359744Y-122437205D01*
X127548102Y-122515226D01*
X127748061Y-122555000D01*
X127951939Y-122555000D01*
X128151898Y-122515226D01*
X128340256Y-122437205D01*
X128509774Y-122323937D01*
X128558778Y-122274933D01*
X128618986Y-122269003D01*
X128762247Y-122225546D01*
X128894276Y-122154974D01*
X128991725Y-122075000D01*
X129051939Y-122075000D01*
X129251898Y-122035226D01*
X129440256Y-121957205D01*
X129609774Y-121843937D01*
X129640000Y-121813711D01*
X129640000Y-122311928D01*
X129550000Y-122311928D01*
X129425518Y-122324188D01*
X129305820Y-122360498D01*
X129195506Y-122419463D01*
X129098815Y-122498815D01*
X129019463Y-122595506D01*
X128960498Y-122705820D01*
X128924188Y-122825518D01*
X128911928Y-122950000D01*
X128911928Y-124650000D01*
X128924188Y-124774482D01*
X128960498Y-124894180D01*
X129019463Y-125004494D01*
X129098815Y-125101185D01*
X129195506Y-125180537D01*
X129305820Y-125239502D01*
X129425518Y-125275812D01*
X129550000Y-125288072D01*
X131250000Y-125288072D01*
X131374482Y-125275812D01*
X131494180Y-125239502D01*
X131604494Y-125180537D01*
X131701185Y-125101185D01*
X131780537Y-125004494D01*
X131839502Y-124894180D01*
X131875812Y-124774482D01*
X131888072Y-124650000D01*
X131888072Y-122950000D01*
X131875812Y-122825518D01*
X131839502Y-122705820D01*
X131780537Y-122595506D01*
X131701185Y-122498815D01*
X131604494Y-122419463D01*
X131494180Y-122360498D01*
X131374482Y-122324188D01*
X131250000Y-122311928D01*
X131160000Y-122311928D01*
X131160000Y-120997333D01*
X131163677Y-120960000D01*
X131149003Y-120811014D01*
X131105546Y-120667753D01*
X131034974Y-120535724D01*
X130963799Y-120448997D01*
X130940001Y-120419999D01*
X130911004Y-120396202D01*
X125149801Y-114635000D01*
X125241939Y-114635000D01*
X125441898Y-114595226D01*
X125630256Y-114517205D01*
X125799774Y-114403937D01*
X125943937Y-114259774D01*
X126057205Y-114090256D01*
X126135226Y-113901898D01*
X126175000Y-113701939D01*
X126175000Y-113498061D01*
X126135226Y-113298102D01*
X126057205Y-113109744D01*
X125943937Y-112940226D01*
X125799774Y-112796063D01*
X125734757Y-112752620D01*
X125820256Y-112717205D01*
X125989774Y-112603937D01*
X126133937Y-112459774D01*
X126247205Y-112290256D01*
X126325226Y-112101898D01*
X126365000Y-111901939D01*
X126365000Y-111698061D01*
X126325226Y-111498102D01*
X126247205Y-111309744D01*
X126133937Y-111140226D01*
X125989774Y-110996063D01*
X125827229Y-110887454D01*
X125900256Y-110857205D01*
X126069774Y-110743937D01*
X126213937Y-110599774D01*
X126327205Y-110430256D01*
X126405226Y-110241898D01*
X126445000Y-110041939D01*
X126445000Y-109838061D01*
X126405226Y-109638102D01*
X126327205Y-109449744D01*
X126213937Y-109280226D01*
X126069774Y-109136063D01*
X125900256Y-109022795D01*
X125851225Y-109002486D01*
X125993937Y-108859774D01*
X126107205Y-108690256D01*
X126185226Y-108501898D01*
X126225000Y-108301939D01*
X126225000Y-108098061D01*
X126185226Y-107898102D01*
X126107205Y-107709744D01*
X125993937Y-107540226D01*
X125849774Y-107396063D01*
X125680256Y-107282795D01*
X125656488Y-107272950D01*
X125759774Y-107203937D01*
X125903937Y-107059774D01*
X126017205Y-106890256D01*
X126095226Y-106701898D01*
X126135000Y-106501939D01*
X126135000Y-106298061D01*
X126095226Y-106098102D01*
X126017205Y-105909744D01*
X125903937Y-105740226D01*
X125759774Y-105596063D01*
X125590256Y-105482795D01*
X125401898Y-105404774D01*
X125201939Y-105365000D01*
X124998061Y-105365000D01*
X124798102Y-105404774D01*
X124609744Y-105482795D01*
X124440226Y-105596063D01*
X124296063Y-105740226D01*
X124182795Y-105909744D01*
X124104774Y-106098102D01*
X124065000Y-106298061D01*
X124065000Y-106501939D01*
X124104774Y-106701898D01*
X124182795Y-106890256D01*
X124296063Y-107059774D01*
X124440226Y-107203937D01*
X124609744Y-107317205D01*
X124633512Y-107327050D01*
X124530226Y-107396063D01*
X124386063Y-107540226D01*
X124272795Y-107709744D01*
X124197155Y-107892353D01*
X122396685Y-106091884D01*
X122377812Y-106046321D01*
X122289168Y-105913655D01*
X122176345Y-105800832D01*
X122043679Y-105712188D01*
X121896268Y-105651128D01*
X121739778Y-105620000D01*
X121580222Y-105620000D01*
X121423732Y-105651128D01*
X121276321Y-105712188D01*
X121143655Y-105800832D01*
X121030832Y-105913655D01*
X120942188Y-106046321D01*
X120881128Y-106193732D01*
X120850000Y-106350222D01*
X120850000Y-106509778D01*
X120881128Y-106666268D01*
X120942188Y-106813679D01*
X121030832Y-106946345D01*
X121143655Y-107059168D01*
X121276321Y-107147812D01*
X121321884Y-107166685D01*
X121783994Y-107628795D01*
X121739778Y-107620000D01*
X121580222Y-107620000D01*
X121423732Y-107651128D01*
X121276321Y-107712188D01*
X121143655Y-107800832D01*
X121030832Y-107913655D01*
X120942188Y-108046321D01*
X120881128Y-108193732D01*
X120850000Y-108350222D01*
X120850000Y-108509778D01*
X120881128Y-108666268D01*
X120942188Y-108813679D01*
X121019911Y-108930000D01*
X120942188Y-109046321D01*
X120881128Y-109193732D01*
X120850000Y-109350222D01*
X120850000Y-109509778D01*
X120881128Y-109666268D01*
X120942188Y-109813679D01*
X121030832Y-109946345D01*
X121143655Y-110059168D01*
X121276321Y-110147812D01*
X121423732Y-110208872D01*
X121580222Y-110240000D01*
X121739778Y-110240000D01*
X121896268Y-110208872D01*
X122043679Y-110147812D01*
X122144631Y-110080358D01*
X122174774Y-110231898D01*
X122252795Y-110420256D01*
X122366063Y-110589774D01*
X122510226Y-110733937D01*
X122679744Y-110847205D01*
X122868102Y-110925226D01*
X123068061Y-110965000D01*
X123271939Y-110965000D01*
X123471898Y-110925226D01*
X123480000Y-110921870D01*
X123480000Y-111244451D01*
X123331939Y-111215000D01*
X123128061Y-111215000D01*
X122928102Y-111254774D01*
X122739744Y-111332795D01*
X122570226Y-111446063D01*
X122460934Y-111555355D01*
X122470000Y-111509778D01*
X122470000Y-111350222D01*
X122438872Y-111193732D01*
X122377812Y-111046321D01*
X122289168Y-110913655D01*
X122176345Y-110800832D01*
X122043679Y-110712188D01*
X121896268Y-110651128D01*
X121739778Y-110620000D01*
X121580222Y-110620000D01*
X121423732Y-110651128D01*
X121276321Y-110712188D01*
X121143655Y-110800832D01*
X121030832Y-110913655D01*
X120942188Y-111046321D01*
X120881128Y-111193732D01*
X120850000Y-111350222D01*
X120850000Y-111509778D01*
X120881128Y-111666268D01*
X120942188Y-111813679D01*
X121019911Y-111930000D01*
X120942188Y-112046321D01*
X120881128Y-112193732D01*
X120850000Y-112350222D01*
X120850000Y-112509778D01*
X120877369Y-112647369D01*
X120739778Y-112620000D01*
X120580222Y-112620000D01*
X120423732Y-112651128D01*
X120276321Y-112712188D01*
X120143655Y-112800832D01*
X120030832Y-112913655D01*
X119942188Y-113046321D01*
X119881128Y-113193732D01*
X119850000Y-113350222D01*
X119470000Y-113350222D01*
X119438872Y-113193732D01*
X119377812Y-113046321D01*
X119289168Y-112913655D01*
X119176345Y-112800832D01*
X119043679Y-112712188D01*
X118896268Y-112651128D01*
X118739778Y-112620000D01*
X118580222Y-112620000D01*
X118423732Y-112651128D01*
X118276321Y-112712188D01*
X118143655Y-112800832D01*
X118030832Y-112913655D01*
X117942188Y-113046321D01*
X117881128Y-113193732D01*
X117850000Y-113350222D01*
X113470000Y-113350222D01*
X113438872Y-113193732D01*
X113377812Y-113046321D01*
X113289168Y-112913655D01*
X113176345Y-112800832D01*
X113043679Y-112712188D01*
X112998116Y-112693315D01*
X112813805Y-112509004D01*
X112790002Y-112480000D01*
X112674277Y-112385027D01*
X112542248Y-112314455D01*
X112398987Y-112270998D01*
X112287334Y-112260001D01*
X112287323Y-112260001D01*
X112250001Y-112256325D01*
X112212679Y-112260001D01*
X110227321Y-112260001D01*
X110189998Y-112256325D01*
X110152676Y-112260001D01*
X110152666Y-112260001D01*
X110041013Y-112270998D01*
X109897752Y-112314455D01*
X109765774Y-112385000D01*
X109688061Y-112385000D01*
X109488102Y-112424774D01*
X109407560Y-112458136D01*
X109406180Y-112453079D01*
X109378458Y-112397522D01*
X109352313Y-112341223D01*
X109324811Y-112303593D01*
X109307136Y-112275462D01*
X109380222Y-112290000D01*
X109539778Y-112290000D01*
X109696268Y-112258872D01*
X109843679Y-112197812D01*
X109930201Y-112140000D01*
X111221076Y-112140000D01*
X111268428Y-112154364D01*
X111299535Y-112157428D01*
X111423732Y-112208872D01*
X111580222Y-112240000D01*
X111739778Y-112240000D01*
X111896268Y-112208872D01*
X112043679Y-112147812D01*
X112176345Y-112059168D01*
X112289168Y-111946345D01*
X112377812Y-111813679D01*
X112438872Y-111666268D01*
X112470000Y-111509778D01*
X112470000Y-111350222D01*
X112438872Y-111193732D01*
X112377812Y-111046321D01*
X112300089Y-110930000D01*
X112377812Y-110813679D01*
X112438872Y-110666268D01*
X112470000Y-110509778D01*
X112470000Y-110350222D01*
X112438872Y-110193732D01*
X112377812Y-110046321D01*
X112300089Y-109930000D01*
X112377812Y-109813679D01*
X112438872Y-109666268D01*
X112470000Y-109509778D01*
X112470000Y-109350222D01*
X112438872Y-109193732D01*
X112377812Y-109046321D01*
X112305089Y-108937483D01*
X112387812Y-108813679D01*
X112448872Y-108666268D01*
X112480000Y-108509778D01*
X112480000Y-108350222D01*
X112448872Y-108193732D01*
X112387812Y-108046321D01*
X112305089Y-107922517D01*
X112377812Y-107813679D01*
X112438872Y-107666268D01*
X112470000Y-107509778D01*
X112470000Y-107350222D01*
X112438872Y-107193732D01*
X112377812Y-107046321D01*
X112289168Y-106913655D01*
X112176345Y-106800832D01*
X112043679Y-106712188D01*
X111896268Y-106651128D01*
X111739778Y-106620000D01*
X111580222Y-106620000D01*
X111442631Y-106647369D01*
X111470000Y-106509778D01*
X111470000Y-106350222D01*
X111438872Y-106193732D01*
X111377812Y-106046321D01*
X111289168Y-105913655D01*
X111176345Y-105800832D01*
X111043679Y-105712188D01*
X110934689Y-105667043D01*
X110631306Y-105363661D01*
X110611005Y-105261599D01*
X110599838Y-105234639D01*
X110946196Y-105580997D01*
X110969999Y-105610001D01*
X111085724Y-105704974D01*
X111175128Y-105752762D01*
X111217753Y-105775546D01*
X111361014Y-105819003D01*
X111510000Y-105833677D01*
X111547333Y-105830000D01*
X111953093Y-105830000D01*
X112030832Y-105946345D01*
X112143655Y-106059168D01*
X112276321Y-106147812D01*
X112423732Y-106208872D01*
X112580222Y-106240000D01*
X112739778Y-106240000D01*
X112896268Y-106208872D01*
X113043679Y-106147812D01*
X113176345Y-106059168D01*
X113289168Y-105946345D01*
X113377812Y-105813679D01*
X113438872Y-105666268D01*
X113470000Y-105509778D01*
X113470000Y-105350222D01*
X113442631Y-105212631D01*
X113580222Y-105240000D01*
X113739778Y-105240000D01*
X113835835Y-105220893D01*
X114163115Y-105739086D01*
X114250987Y-105849013D01*
X114347213Y-105927983D01*
X114456996Y-105986664D01*
X114576118Y-106022799D01*
X114700000Y-106035000D01*
X120600000Y-106035000D01*
X120717023Y-106024124D01*
X120836535Y-105989301D01*
X120946957Y-105931832D01*
X121044046Y-105853925D01*
X121124070Y-105758574D01*
X122424070Y-103858574D01*
X122486664Y-103743004D01*
X122522799Y-103623882D01*
X122524357Y-103608061D01*
X123915000Y-103608061D01*
X123915000Y-103811939D01*
X123954774Y-104011898D01*
X124032795Y-104200256D01*
X124146063Y-104369774D01*
X124290226Y-104513937D01*
X124459744Y-104627205D01*
X124648102Y-104705226D01*
X124848061Y-104745000D01*
X124910199Y-104745000D01*
X126226200Y-106061002D01*
X126249999Y-106090001D01*
X126278997Y-106113799D01*
X126365723Y-106184974D01*
X126468669Y-106240000D01*
X126497753Y-106255546D01*
X126641014Y-106299003D01*
X126752667Y-106310000D01*
X126752677Y-106310000D01*
X126790000Y-106313676D01*
X126827323Y-106310000D01*
X128965000Y-106310000D01*
X128965000Y-106501939D01*
X129004774Y-106701898D01*
X129082795Y-106890256D01*
X129196063Y-107059774D01*
X129340226Y-107203937D01*
X129509744Y-107317205D01*
X129698102Y-107395226D01*
X129733935Y-107402354D01*
X129596063Y-107540226D01*
X129482795Y-107709744D01*
X129404774Y-107898102D01*
X129365000Y-108098061D01*
X129365000Y-108301939D01*
X129404774Y-108501898D01*
X129482795Y-108690256D01*
X129596063Y-108859774D01*
X129740226Y-109003937D01*
X129883995Y-109100000D01*
X129740226Y-109196063D01*
X129596063Y-109340226D01*
X129482795Y-109509744D01*
X129404774Y-109698102D01*
X129365000Y-109898061D01*
X129365000Y-110101939D01*
X129404774Y-110301898D01*
X129482795Y-110490256D01*
X129596063Y-110659774D01*
X129740226Y-110803937D01*
X129883995Y-110900000D01*
X129740226Y-110996063D01*
X129596063Y-111140226D01*
X129482795Y-111309744D01*
X129404774Y-111498102D01*
X129365000Y-111698061D01*
X129365000Y-111901939D01*
X129404774Y-112101898D01*
X129482795Y-112290256D01*
X129596063Y-112459774D01*
X129740226Y-112603937D01*
X129883995Y-112700000D01*
X129740226Y-112796063D01*
X129596063Y-112940226D01*
X129482795Y-113109744D01*
X129404774Y-113298102D01*
X129365000Y-113498061D01*
X129365000Y-113701939D01*
X129404774Y-113901898D01*
X129482795Y-114090256D01*
X129596063Y-114259774D01*
X129740226Y-114403937D01*
X129883995Y-114500000D01*
X129740226Y-114596063D01*
X129596063Y-114740226D01*
X129482795Y-114909744D01*
X129404774Y-115098102D01*
X129365000Y-115298061D01*
X129365000Y-115501939D01*
X129404774Y-115701898D01*
X129482795Y-115890256D01*
X129596063Y-116059774D01*
X129740226Y-116203937D01*
X129909744Y-116317205D01*
X130098102Y-116395226D01*
X130298061Y-116435000D01*
X130501939Y-116435000D01*
X130701898Y-116395226D01*
X130890256Y-116317205D01*
X131059774Y-116203937D01*
X131203937Y-116059774D01*
X131317205Y-115890256D01*
X131395226Y-115701898D01*
X131435000Y-115501939D01*
X131435000Y-115298061D01*
X131395226Y-115098102D01*
X131317205Y-114909744D01*
X131203937Y-114740226D01*
X131059774Y-114596063D01*
X130916005Y-114500000D01*
X131059774Y-114403937D01*
X131203937Y-114259774D01*
X131317205Y-114090256D01*
X131395226Y-113901898D01*
X131435000Y-113701939D01*
X131435000Y-113498061D01*
X131395226Y-113298102D01*
X131317205Y-113109744D01*
X131203937Y-112940226D01*
X131059774Y-112796063D01*
X130916005Y-112700000D01*
X131059774Y-112603937D01*
X131203937Y-112459774D01*
X131317205Y-112290256D01*
X131395226Y-112101898D01*
X131435000Y-111901939D01*
X131435000Y-111698061D01*
X131395226Y-111498102D01*
X131317205Y-111309744D01*
X131203937Y-111140226D01*
X131059774Y-110996063D01*
X130916005Y-110900000D01*
X131059774Y-110803937D01*
X131203937Y-110659774D01*
X131317205Y-110490256D01*
X131395226Y-110301898D01*
X131435000Y-110101939D01*
X131435000Y-109898061D01*
X131395226Y-109698102D01*
X131317205Y-109509744D01*
X131203937Y-109340226D01*
X131059774Y-109196063D01*
X130916005Y-109100000D01*
X131059774Y-109003937D01*
X131203937Y-108859774D01*
X131317205Y-108690256D01*
X131395226Y-108501898D01*
X131435000Y-108301939D01*
X131435000Y-108098061D01*
X131395226Y-107898102D01*
X131350888Y-107791061D01*
X131509744Y-107897205D01*
X131698102Y-107975226D01*
X131898061Y-108015000D01*
X132101939Y-108015000D01*
X132301898Y-107975226D01*
X132490256Y-107897205D01*
X132659774Y-107783937D01*
X132803937Y-107639774D01*
X132917205Y-107470256D01*
X132995226Y-107281898D01*
X133035000Y-107081939D01*
X133035000Y-106878061D01*
X132995226Y-106678102D01*
X132951173Y-106571750D01*
X133068061Y-106595000D01*
X133271939Y-106595000D01*
X133471898Y-106555226D01*
X133660256Y-106477205D01*
X133829774Y-106363937D01*
X133973937Y-106219774D01*
X134087205Y-106050256D01*
X134165226Y-105861898D01*
X134205000Y-105661939D01*
X134205000Y-105458061D01*
X134165226Y-105258102D01*
X134087205Y-105069744D01*
X133973937Y-104900226D01*
X133829774Y-104756063D01*
X133660256Y-104642795D01*
X133635000Y-104632334D01*
X133635000Y-104498061D01*
X133595226Y-104298102D01*
X133517205Y-104109744D01*
X133403937Y-103940226D01*
X133259774Y-103796063D01*
X133090256Y-103682795D01*
X132901898Y-103604774D01*
X132701939Y-103565000D01*
X132498061Y-103565000D01*
X132298102Y-103604774D01*
X132109744Y-103682795D01*
X131940226Y-103796063D01*
X131796063Y-103940226D01*
X131682795Y-104109744D01*
X131644988Y-104201017D01*
X131578985Y-104180996D01*
X131467332Y-104169999D01*
X131467321Y-104169999D01*
X131429999Y-104166323D01*
X131392677Y-104169999D01*
X129211159Y-104169999D01*
X129157205Y-104039744D01*
X129043937Y-103870226D01*
X128899774Y-103726063D01*
X128730256Y-103612795D01*
X128541898Y-103534774D01*
X128341939Y-103495000D01*
X128138061Y-103495000D01*
X127938102Y-103534774D01*
X127749744Y-103612795D01*
X127580226Y-103726063D01*
X127436063Y-103870226D01*
X127322795Y-104039744D01*
X127244774Y-104228102D01*
X127205000Y-104428061D01*
X127205000Y-104631939D01*
X127236440Y-104790000D01*
X127104802Y-104790000D01*
X125985000Y-103670199D01*
X125985000Y-103608061D01*
X125945226Y-103408102D01*
X125867205Y-103219744D01*
X125753937Y-103050226D01*
X125609774Y-102906063D01*
X125440256Y-102792795D01*
X125251898Y-102714774D01*
X125051939Y-102675000D01*
X124848061Y-102675000D01*
X124648102Y-102714774D01*
X124459744Y-102792795D01*
X124290226Y-102906063D01*
X124146063Y-103050226D01*
X124032795Y-103219744D01*
X123954774Y-103408102D01*
X123915000Y-103608061D01*
X122524357Y-103608061D01*
X122535000Y-103500000D01*
X122535000Y-101560222D01*
X129500000Y-101560222D01*
X129500000Y-101719778D01*
X129531128Y-101876268D01*
X129553385Y-101930000D01*
X129531128Y-101983732D01*
X129500000Y-102140222D01*
X129500000Y-102299778D01*
X129531128Y-102456268D01*
X129592188Y-102603679D01*
X129680832Y-102736345D01*
X129793655Y-102849168D01*
X129926321Y-102937812D01*
X130073732Y-102998872D01*
X130230222Y-103030000D01*
X130389778Y-103030000D01*
X130546268Y-102998872D01*
X130693679Y-102937812D01*
X130826345Y-102849168D01*
X130939168Y-102736345D01*
X131027812Y-102603679D01*
X131088872Y-102456268D01*
X131120000Y-102299778D01*
X131120000Y-102140222D01*
X131088872Y-101983732D01*
X131066615Y-101930000D01*
X131088872Y-101876268D01*
X131120000Y-101719778D01*
X131120000Y-101560222D01*
X131088872Y-101403732D01*
X131027812Y-101256321D01*
X130939168Y-101123655D01*
X130826345Y-101010832D01*
X130693679Y-100922188D01*
X130546268Y-100861128D01*
X130389778Y-100830000D01*
X130230222Y-100830000D01*
X130073732Y-100861128D01*
X129926321Y-100922188D01*
X129793655Y-101010832D01*
X129680832Y-101123655D01*
X129592188Y-101256321D01*
X129531128Y-101403732D01*
X129500000Y-101560222D01*
X122535000Y-101560222D01*
X122535000Y-99828061D01*
X124745000Y-99828061D01*
X124745000Y-100031939D01*
X124784774Y-100231898D01*
X124862795Y-100420256D01*
X124976063Y-100589774D01*
X125120226Y-100733937D01*
X125289744Y-100847205D01*
X125478102Y-100925226D01*
X125678061Y-100965000D01*
X125881939Y-100965000D01*
X126081898Y-100925226D01*
X126270256Y-100847205D01*
X126439774Y-100733937D01*
X126583937Y-100589774D01*
X126697205Y-100420256D01*
X126775226Y-100231898D01*
X126815000Y-100031939D01*
X126815000Y-99828061D01*
X126775226Y-99628102D01*
X126697205Y-99439744D01*
X126583937Y-99270226D01*
X126439774Y-99126063D01*
X126270256Y-99012795D01*
X126081898Y-98934774D01*
X125881939Y-98895000D01*
X125678061Y-98895000D01*
X125478102Y-98934774D01*
X125289744Y-99012795D01*
X125120226Y-99126063D01*
X124976063Y-99270226D01*
X124862795Y-99439744D01*
X124784774Y-99628102D01*
X124745000Y-99828061D01*
X122535000Y-99828061D01*
X122535000Y-93978711D01*
X122660226Y-94103937D01*
X122829744Y-94217205D01*
X123018102Y-94295226D01*
X123218061Y-94335000D01*
X123421939Y-94335000D01*
X123621898Y-94295226D01*
X123810256Y-94217205D01*
X123979774Y-94103937D01*
X124123937Y-93959774D01*
X124237205Y-93790256D01*
X124315226Y-93601898D01*
X124355000Y-93401939D01*
X124355000Y-93198061D01*
X124315226Y-92998102D01*
X124237205Y-92809744D01*
X124123937Y-92640226D01*
X123979774Y-92496063D01*
X123810256Y-92382795D01*
X123621898Y-92304774D01*
X123421939Y-92265000D01*
X123349803Y-92265000D01*
X122524802Y-91440000D01*
X129587815Y-91440000D01*
X129616487Y-91731111D01*
X129701401Y-92011034D01*
X129839294Y-92269014D01*
X130024866Y-92495134D01*
X130250986Y-92680706D01*
X130305791Y-92710000D01*
X130250986Y-92739294D01*
X130024866Y-92924866D01*
X129839294Y-93150986D01*
X129701401Y-93408966D01*
X129616487Y-93688889D01*
X129587815Y-93980000D01*
X129616487Y-94271111D01*
X129701401Y-94551034D01*
X129839294Y-94809014D01*
X130024866Y-95035134D01*
X130250986Y-95220706D01*
X130305791Y-95250000D01*
X130250986Y-95279294D01*
X130024866Y-95464866D01*
X129839294Y-95690986D01*
X129701401Y-95948966D01*
X129616487Y-96228889D01*
X129587815Y-96520000D01*
X129616487Y-96811111D01*
X129701401Y-97091034D01*
X129839294Y-97349014D01*
X130024866Y-97575134D01*
X130250986Y-97760706D01*
X130508966Y-97898599D01*
X130788889Y-97983513D01*
X131007050Y-98005000D01*
X131152950Y-98005000D01*
X131371111Y-97983513D01*
X131651034Y-97898599D01*
X131909014Y-97760706D01*
X132135134Y-97575134D01*
X132320706Y-97349014D01*
X132458599Y-97091034D01*
X132543513Y-96811111D01*
X132572185Y-96520000D01*
X132543513Y-96228889D01*
X132458599Y-95948966D01*
X132320706Y-95690986D01*
X132135134Y-95464866D01*
X131909014Y-95279294D01*
X131854209Y-95250000D01*
X131909014Y-95220706D01*
X132135134Y-95035134D01*
X132320706Y-94809014D01*
X132458599Y-94551034D01*
X132543513Y-94271111D01*
X132572185Y-93980000D01*
X132543513Y-93688889D01*
X132458599Y-93408966D01*
X132320706Y-93150986D01*
X132135134Y-92924866D01*
X131909014Y-92739294D01*
X131854209Y-92710000D01*
X131909014Y-92680706D01*
X132135134Y-92495134D01*
X132320706Y-92269014D01*
X132458599Y-92011034D01*
X132543513Y-91731111D01*
X132572185Y-91440000D01*
X132543513Y-91148889D01*
X132458599Y-90868966D01*
X132320706Y-90610986D01*
X132135134Y-90384866D01*
X132105313Y-90360393D01*
X132174180Y-90339502D01*
X132284494Y-90280537D01*
X132381185Y-90201185D01*
X132460537Y-90104494D01*
X132519502Y-89994180D01*
X132555812Y-89874482D01*
X132568072Y-89750000D01*
X132568072Y-88050000D01*
X132555812Y-87925518D01*
X132519502Y-87805820D01*
X132460537Y-87695506D01*
X132381185Y-87598815D01*
X132284494Y-87519463D01*
X132174180Y-87460498D01*
X132054482Y-87424188D01*
X131930000Y-87411928D01*
X130230000Y-87411928D01*
X130105518Y-87424188D01*
X129985820Y-87460498D01*
X129875506Y-87519463D01*
X129778815Y-87598815D01*
X129699463Y-87695506D01*
X129640498Y-87805820D01*
X129604188Y-87925518D01*
X129591928Y-88050000D01*
X129591928Y-89750000D01*
X129604188Y-89874482D01*
X129640498Y-89994180D01*
X129699463Y-90104494D01*
X129778815Y-90201185D01*
X129875506Y-90280537D01*
X129985820Y-90339502D01*
X130054687Y-90360393D01*
X130024866Y-90384866D01*
X129839294Y-90610986D01*
X129701401Y-90868966D01*
X129616487Y-91148889D01*
X129587815Y-91440000D01*
X122524802Y-91440000D01*
X122423801Y-91339000D01*
X122399999Y-91309997D01*
X122284274Y-91215024D01*
X122152245Y-91144452D01*
X122008984Y-91100995D01*
X121897331Y-91089998D01*
X121897320Y-91089998D01*
X121859998Y-91086322D01*
X121822676Y-91089998D01*
X119563711Y-91089998D01*
X119519774Y-91046061D01*
X119350256Y-90932793D01*
X119161898Y-90854772D01*
X118961939Y-90814998D01*
X118758061Y-90814998D01*
X118558102Y-90854772D01*
X118369744Y-90932793D01*
X118200226Y-91046061D01*
X118056063Y-91190224D01*
X117942795Y-91359742D01*
X117864774Y-91548100D01*
X117825000Y-91748059D01*
X117825000Y-91951937D01*
X117864774Y-92151896D01*
X117942795Y-92340254D01*
X117959330Y-92365000D01*
X116607366Y-92365000D01*
X116620282Y-92345670D01*
X116698303Y-92157312D01*
X116738077Y-91957353D01*
X116738077Y-91753475D01*
X116698303Y-91553516D01*
X116620282Y-91365158D01*
X116507014Y-91195640D01*
X116362851Y-91051477D01*
X116193333Y-90938209D01*
X116004975Y-90860188D01*
X115805016Y-90820414D01*
X115601138Y-90820414D01*
X115401179Y-90860188D01*
X115212821Y-90938209D01*
X115043303Y-91051477D01*
X114899140Y-91195640D01*
X114785872Y-91365158D01*
X114707851Y-91553516D01*
X114668077Y-91753475D01*
X114668077Y-91815612D01*
X114118689Y-92365000D01*
X113500000Y-92365000D01*
X113376118Y-92377201D01*
X113256996Y-92413336D01*
X113147213Y-92472017D01*
X113050987Y-92550987D01*
X112972017Y-92647213D01*
X112913336Y-92756996D01*
X112877201Y-92876118D01*
X112865000Y-93000000D01*
X112865000Y-93618690D01*
X112853690Y-93630000D01*
X112553709Y-93630000D01*
X112509772Y-93586063D01*
X112340254Y-93472795D01*
X112151896Y-93394774D01*
X111951937Y-93355000D01*
X111748059Y-93355000D01*
X111548100Y-93394774D01*
X111359742Y-93472795D01*
X111190224Y-93586063D01*
X111046061Y-93730226D01*
X111034761Y-93747138D01*
X106836625Y-89549003D01*
X106812822Y-89519999D01*
X106780955Y-89493846D01*
X107839802Y-88435000D01*
X107901939Y-88435000D01*
X108101898Y-88395226D01*
X108290256Y-88317205D01*
X108459774Y-88203937D01*
X108603937Y-88059774D01*
X108717205Y-87890256D01*
X108795226Y-87701898D01*
X108835000Y-87501939D01*
X108835000Y-87298061D01*
X108795226Y-87098102D01*
X108717205Y-86909744D01*
X108603937Y-86740226D01*
X108459774Y-86596063D01*
X108290256Y-86482795D01*
X108101898Y-86404774D01*
X107901939Y-86365000D01*
X107698061Y-86365000D01*
X107498102Y-86404774D01*
X107309744Y-86482795D01*
X107140226Y-86596063D01*
X106996063Y-86740226D01*
X106882795Y-86909744D01*
X106804774Y-87098102D01*
X106765000Y-87298061D01*
X106765000Y-87360198D01*
X106114998Y-88010200D01*
X106101898Y-88004774D01*
X105901939Y-87965000D01*
X105698061Y-87965000D01*
X105498102Y-88004774D01*
X105309744Y-88082795D01*
X105140226Y-88196063D01*
X104996063Y-88340226D01*
X104882795Y-88509744D01*
X104804774Y-88698102D01*
X104765000Y-88898061D01*
X104765000Y-89101939D01*
X104804396Y-89300000D01*
X100767783Y-89300000D01*
X100773513Y-89281111D01*
X100802185Y-88990000D01*
X100773513Y-88698889D01*
X100688599Y-88418966D01*
X100550706Y-88160986D01*
X100365134Y-87934866D01*
X100335313Y-87910393D01*
X100404180Y-87889502D01*
X100514494Y-87830537D01*
X100611185Y-87751185D01*
X100690537Y-87654494D01*
X100749502Y-87544180D01*
X100785812Y-87424482D01*
X100798072Y-87300000D01*
X100798072Y-85600000D01*
X100785812Y-85475518D01*
X100749502Y-85355820D01*
X100690537Y-85245506D01*
X100611185Y-85148815D01*
X100514494Y-85069463D01*
X100404180Y-85010498D01*
X100284482Y-84974188D01*
X100160000Y-84961928D01*
X98460000Y-84961928D01*
X98335518Y-84974188D01*
X98215820Y-85010498D01*
X98105506Y-85069463D01*
X98008815Y-85148815D01*
X97929463Y-85245506D01*
X97870498Y-85355820D01*
X97834188Y-85475518D01*
X97821928Y-85600000D01*
X97821928Y-87300000D01*
X97834188Y-87424482D01*
X97870498Y-87544180D01*
X97929463Y-87654494D01*
X98008815Y-87751185D01*
X98105506Y-87830537D01*
X98215820Y-87889502D01*
X98284687Y-87910393D01*
X98254866Y-87934866D01*
X98069294Y-88160986D01*
X97931401Y-88418966D01*
X97846487Y-88698889D01*
X97817815Y-88990000D01*
X91710000Y-88990000D01*
X91710000Y-83804495D01*
X92015000Y-83804495D01*
X92015000Y-84195505D01*
X92091282Y-84579003D01*
X92240915Y-84940250D01*
X92458149Y-85265364D01*
X92734636Y-85541851D01*
X93059750Y-85759085D01*
X93420997Y-85908718D01*
X93804495Y-85985000D01*
X94195505Y-85985000D01*
X94579003Y-85908718D01*
X94940250Y-85759085D01*
X95265364Y-85541851D01*
X95541851Y-85265364D01*
X95759085Y-84940250D01*
X95908718Y-84579003D01*
X95985000Y-84195505D01*
X95985000Y-83804495D01*
X134015000Y-83804495D01*
X134015000Y-84195505D01*
X134091282Y-84579003D01*
X134240915Y-84940250D01*
X134458149Y-85265364D01*
X134734636Y-85541851D01*
X135059750Y-85759085D01*
X135420997Y-85908718D01*
X135804495Y-85985000D01*
X136195505Y-85985000D01*
X136579003Y-85908718D01*
X136940250Y-85759085D01*
X137265364Y-85541851D01*
X137541851Y-85265364D01*
X137759085Y-84940250D01*
X137908718Y-84579003D01*
X137985000Y-84195505D01*
X137985000Y-83804495D01*
X137908718Y-83420997D01*
X137759085Y-83059750D01*
X137541851Y-82734636D01*
X137265364Y-82458149D01*
X136940250Y-82240915D01*
X136579003Y-82091282D01*
X136195505Y-82015000D01*
X135804495Y-82015000D01*
X135420997Y-82091282D01*
X135059750Y-82240915D01*
X134734636Y-82458149D01*
X134458149Y-82734636D01*
X134240915Y-83059750D01*
X134091282Y-83420997D01*
X134015000Y-83804495D01*
X95985000Y-83804495D01*
X95908718Y-83420997D01*
X95759085Y-83059750D01*
X95541851Y-82734636D01*
X95265364Y-82458149D01*
X94940250Y-82240915D01*
X94579003Y-82091282D01*
X94195505Y-82015000D01*
X93804495Y-82015000D01*
X93420997Y-82091282D01*
X93059750Y-82240915D01*
X92734636Y-82458149D01*
X92458149Y-82734636D01*
X92240915Y-83059750D01*
X92091282Y-83420997D01*
X92015000Y-83804495D01*
X91710000Y-83804495D01*
X91710000Y-81710000D01*
X138290001Y-81710000D01*
X138290000Y-129290000D01*
G36*
X106450001Y-107768028D02*
G01*
X106449058Y-107835276D01*
X106456574Y-107876042D01*
X106457587Y-107886330D01*
X106438579Y-107910166D01*
X106401706Y-107955095D01*
X106378039Y-107980843D01*
X106345755Y-108033860D01*
X106311993Y-108085956D01*
X106294760Y-108129268D01*
X106287983Y-108143341D01*
X106264872Y-108183806D01*
X106245193Y-108242679D01*
X106223863Y-108301002D01*
X106216703Y-108347050D01*
X106213229Y-108362270D01*
X106199697Y-108406878D01*
X106193611Y-108468670D01*
X106185797Y-108530244D01*
X106189062Y-108576730D01*
X106189062Y-108592373D01*
X106185797Y-108638859D01*
X106193611Y-108700429D01*
X106199697Y-108762226D01*
X106213230Y-108806837D01*
X106216703Y-108822053D01*
X106223863Y-108868101D01*
X106245193Y-108926424D01*
X106264872Y-108985297D01*
X106287983Y-109025762D01*
X106294762Y-109039839D01*
X106311996Y-109083153D01*
X106345754Y-109135241D01*
X106378039Y-109188260D01*
X106409586Y-109222581D01*
X106419330Y-109234799D01*
X106445760Y-109273178D01*
X106490271Y-109316458D01*
X106533556Y-109360973D01*
X106571940Y-109387406D01*
X106584147Y-109397140D01*
X106618466Y-109428686D01*
X106671497Y-109460978D01*
X106723582Y-109494734D01*
X106766885Y-109511963D01*
X106780970Y-109518746D01*
X106821430Y-109541854D01*
X106880297Y-109561531D01*
X106938626Y-109582863D01*
X106984676Y-109590024D01*
X106999890Y-109593496D01*
X107044501Y-109607029D01*
X107106296Y-109613115D01*
X107167867Y-109620929D01*
X107214353Y-109617664D01*
X107229997Y-109617664D01*
X107276483Y-109620929D01*
X107338053Y-109613115D01*
X107399850Y-109607029D01*
X107444461Y-109593496D01*
X107459677Y-109590023D01*
X107505725Y-109582863D01*
X107564048Y-109561533D01*
X107622921Y-109541854D01*
X107663386Y-109518743D01*
X107677457Y-109511967D01*
X107720763Y-109494737D01*
X107772860Y-109460974D01*
X107810443Y-109438089D01*
X107862274Y-109489920D01*
X107861546Y-109490807D01*
X106910808Y-110441546D01*
X106882762Y-110464563D01*
X106790913Y-110576481D01*
X106722663Y-110704168D01*
X106705063Y-110762188D01*
X106680635Y-110842715D01*
X106666444Y-110986800D01*
X106670000Y-111022905D01*
X106670001Y-114170000D01*
X105397646Y-114170000D01*
X105380000Y-114152354D01*
X105380000Y-108772905D01*
X105383556Y-108736800D01*
X105369365Y-108592715D01*
X105327337Y-108454166D01*
X105259087Y-108326480D01*
X105212027Y-108269137D01*
X105167238Y-108214562D01*
X105139193Y-108191546D01*
X104337863Y-107390217D01*
X104433520Y-107339087D01*
X104545438Y-107247238D01*
X104568458Y-107219188D01*
X105669197Y-106118450D01*
X105697237Y-106095438D01*
X105720250Y-106067397D01*
X105720253Y-106067394D01*
X105783769Y-105990000D01*
X105789087Y-105983520D01*
X105857337Y-105855833D01*
X105894254Y-105734135D01*
X105899365Y-105717286D01*
X105902052Y-105689999D01*
X105910000Y-105609305D01*
X105910000Y-105609298D01*
X105913555Y-105573201D01*
X105910000Y-105537104D01*
X105910000Y-102635000D01*
X106450000Y-102635000D01*
X106450001Y-107768028D01*
X106450001Y-107768028D01*
G37*
X106450001Y-107768028D02*
X106449058Y-107835276D01*
X106456574Y-107876042D01*
X106457587Y-107886330D01*
X106438579Y-107910166D01*
X106401706Y-107955095D01*
X106378039Y-107980843D01*
X106345755Y-108033860D01*
X106311993Y-108085956D01*
X106294760Y-108129268D01*
X106287983Y-108143341D01*
X106264872Y-108183806D01*
X106245193Y-108242679D01*
X106223863Y-108301002D01*
X106216703Y-108347050D01*
X106213229Y-108362270D01*
X106199697Y-108406878D01*
X106193611Y-108468670D01*
X106185797Y-108530244D01*
X106189062Y-108576730D01*
X106189062Y-108592373D01*
X106185797Y-108638859D01*
X106193611Y-108700429D01*
X106199697Y-108762226D01*
X106213230Y-108806837D01*
X106216703Y-108822053D01*
X106223863Y-108868101D01*
X106245193Y-108926424D01*
X106264872Y-108985297D01*
X106287983Y-109025762D01*
X106294762Y-109039839D01*
X106311996Y-109083153D01*
X106345754Y-109135241D01*
X106378039Y-109188260D01*
X106409586Y-109222581D01*
X106419330Y-109234799D01*
X106445760Y-109273178D01*
X106490271Y-109316458D01*
X106533556Y-109360973D01*
X106571940Y-109387406D01*
X106584147Y-109397140D01*
X106618466Y-109428686D01*
X106671497Y-109460978D01*
X106723582Y-109494734D01*
X106766885Y-109511963D01*
X106780970Y-109518746D01*
X106821430Y-109541854D01*
X106880297Y-109561531D01*
X106938626Y-109582863D01*
X106984676Y-109590024D01*
X106999890Y-109593496D01*
X107044501Y-109607029D01*
X107106296Y-109613115D01*
X107167867Y-109620929D01*
X107214353Y-109617664D01*
X107229997Y-109617664D01*
X107276483Y-109620929D01*
X107338053Y-109613115D01*
X107399850Y-109607029D01*
X107444461Y-109593496D01*
X107459677Y-109590023D01*
X107505725Y-109582863D01*
X107564048Y-109561533D01*
X107622921Y-109541854D01*
X107663386Y-109518743D01*
X107677457Y-109511967D01*
X107720763Y-109494737D01*
X107772860Y-109460974D01*
X107810443Y-109438089D01*
X107862274Y-109489920D01*
X107861546Y-109490807D01*
X106910808Y-110441546D01*
X106882762Y-110464563D01*
X106790913Y-110576481D01*
X106722663Y-110704168D01*
X106705063Y-110762188D01*
X106680635Y-110842715D01*
X106666444Y-110986800D01*
X106670000Y-111022905D01*
X106670001Y-114170000D01*
X105397646Y-114170000D01*
X105380000Y-114152354D01*
X105380000Y-108772905D01*
X105383556Y-108736800D01*
X105369365Y-108592715D01*
X105327337Y-108454166D01*
X105259087Y-108326480D01*
X105212027Y-108269137D01*
X105167238Y-108214562D01*
X105139193Y-108191546D01*
X104337863Y-107390217D01*
X104433520Y-107339087D01*
X104545438Y-107247238D01*
X104568458Y-107219188D01*
X105669197Y-106118450D01*
X105697237Y-106095438D01*
X105720250Y-106067397D01*
X105720253Y-106067394D01*
X105783769Y-105990000D01*
X105789087Y-105983520D01*
X105857337Y-105855833D01*
X105894254Y-105734135D01*
X105899365Y-105717286D01*
X105902052Y-105689999D01*
X105910000Y-105609305D01*
X105910000Y-105609298D01*
X105913555Y-105573201D01*
X105910000Y-105537104D01*
X105910000Y-102635000D01*
X106450000Y-102635000D01*
X106450001Y-107768028D01*
M02*
