G04 #@! TF.GenerationSoftware,KiCad,Pcbnew,(5.1.4)-1*
G04 #@! TF.CreationDate,2019-08-25T20:49:14+02:00*
G04 #@! TF.ProjectId,ToF_camera_VGA,546f465f-6361-46d6-9572-615f5647412e,rev?*
G04 #@! TF.SameCoordinates,Original*
G04 #@! TF.FileFunction,Paste,Top*
G04 #@! TF.FilePolarity,Positive*
%FSLAX46Y46*%
G04 Gerber Fmt 4.6, Leading zero omitted, Abs format (unit mm)*
G04 Created by KiCad (PCBNEW (5.1.4)-1) date 2019-08-25 20:49:14*
%MOMM*%
%LPD*%
G04 APERTURE LIST*
%ADD10R,1.600000X0.300000*%
%ADD11R,0.700000X1.300000*%
%ADD12R,2.400000X2.000000*%
%ADD13R,3.000000X1.600000*%
%ADD14R,2.500000X2.500000*%
%ADD15R,1.000000X1.250000*%
%ADD16R,1.800000X1.300000*%
%ADD17R,0.450000X1.300000*%
%ADD18R,1.300000X0.450000*%
%ADD19R,3.600000X1.400000*%
%ADD20R,1.250000X1.000000*%
%ADD21R,1.300000X0.700000*%
%ADD22R,0.430000X0.280000*%
%ADD23R,1.300000X1.650000*%
%ADD24R,1.000000X0.300000*%
%ADD25C,0.650000*%
%ADD26R,0.800000X0.800000*%
%ADD27R,0.600000X0.400000*%
%ADD28R,0.400000X0.600000*%
%ADD29R,0.600000X1.750000*%
%ADD30R,1.200000X2.000000*%
%ADD31R,0.510000X0.410000*%
%ADD32R,0.410000X0.510000*%
%ADD33R,2.000000X1.200000*%
%ADD34R,2.750000X1.000000*%
G04 APERTURE END LIST*
D10*
X99710000Y-115560000D03*
X99710000Y-116210000D03*
X99710000Y-116860000D03*
X99710000Y-117510000D03*
X103110000Y-117510000D03*
X103110000Y-116860000D03*
X103110000Y-116210000D03*
X103110000Y-115560000D03*
D11*
X129230000Y-104570000D03*
X127330000Y-104570000D03*
X133160000Y-108100000D03*
X135060000Y-108100000D03*
D12*
X106550000Y-117500000D03*
X106550000Y-113800000D03*
D13*
X120600000Y-97500000D03*
X125000000Y-97500000D03*
D14*
X135750000Y-99250000D03*
X135750000Y-95750000D03*
D15*
X106200000Y-87400000D03*
X104200000Y-87400000D03*
D16*
X114700000Y-93100000D03*
D17*
X116125000Y-93100000D03*
X116775000Y-93100000D03*
X117425000Y-93100000D03*
X118075000Y-93100000D03*
X118725000Y-93100000D03*
X119375000Y-93100000D03*
D16*
X120800000Y-93100000D03*
D18*
X121050000Y-91875000D03*
X121050000Y-91225000D03*
D19*
X119900000Y-89950000D03*
X119900000Y-88200000D03*
D16*
X120800000Y-86500000D03*
D17*
X119375000Y-86500000D03*
X118725000Y-86500000D03*
X118075000Y-86500000D03*
X117425000Y-86500000D03*
X116775000Y-86500000D03*
X116125000Y-86500000D03*
D16*
X114700000Y-86500000D03*
D19*
X115600000Y-88200000D03*
X115600000Y-89950000D03*
D18*
X114450000Y-91225000D03*
X114450000Y-91875000D03*
D20*
X130600000Y-120600000D03*
X130600000Y-118600000D03*
D21*
X101400000Y-124500000D03*
X101400000Y-122600000D03*
D22*
X100600000Y-101860000D03*
X100600000Y-101340000D03*
D23*
X99300000Y-112700000D03*
X99300000Y-97300000D03*
D24*
X102000000Y-110250000D03*
X102000000Y-109750000D03*
X102000000Y-109250000D03*
X102000000Y-108750000D03*
X102000000Y-108250000D03*
X102000000Y-107750000D03*
X102000000Y-107250000D03*
X102000000Y-106750000D03*
X102000000Y-106250000D03*
X102000000Y-105750000D03*
X102000000Y-105250000D03*
X102000000Y-104750000D03*
X102000000Y-104250000D03*
X102000000Y-103750000D03*
X102000000Y-103250000D03*
X102000000Y-102750000D03*
X102000000Y-102250000D03*
X102000000Y-101750000D03*
X102000000Y-101250000D03*
X102000000Y-100750000D03*
X102000000Y-100250000D03*
X102000000Y-99750000D03*
D25*
X122160000Y-104930000D03*
X122160000Y-105930000D03*
X122160000Y-106930000D03*
X122160000Y-107930000D03*
X122160000Y-108930000D03*
X122160000Y-109930000D03*
X122160000Y-110930000D03*
X122160000Y-111930000D03*
X122160000Y-112930000D03*
X122160000Y-113930000D03*
X121160000Y-103930000D03*
X121160000Y-104930000D03*
X121160000Y-105930000D03*
X121160000Y-106930000D03*
X121160000Y-107930000D03*
X121160000Y-108930000D03*
X121160000Y-109930000D03*
X121160000Y-110930000D03*
X121160000Y-111930000D03*
X121160000Y-112930000D03*
X121160000Y-113930000D03*
X121160000Y-114930000D03*
X120160000Y-103930000D03*
X120160000Y-104930000D03*
X120160000Y-105930000D03*
X120160000Y-106930000D03*
X120160000Y-107930000D03*
X120160000Y-108930000D03*
X120160000Y-109930000D03*
X120160000Y-110930000D03*
X120160000Y-111930000D03*
X120160000Y-112930000D03*
X120160000Y-113930000D03*
X120160000Y-114930000D03*
X119160000Y-103930000D03*
X119160000Y-104930000D03*
X119160000Y-105930000D03*
X119160000Y-106930000D03*
X119160000Y-107930000D03*
X119160000Y-108930000D03*
X119160000Y-109930000D03*
X119160000Y-110930000D03*
X119160000Y-111930000D03*
X119160000Y-112930000D03*
X119160000Y-113930000D03*
X119160000Y-114930000D03*
X118160000Y-103930000D03*
X118160000Y-104930000D03*
X118160000Y-105930000D03*
X118160000Y-106930000D03*
X118160000Y-107930000D03*
X118160000Y-108930000D03*
X118160000Y-109930000D03*
X118160000Y-110930000D03*
X118160000Y-111930000D03*
X118160000Y-112930000D03*
X118160000Y-113930000D03*
X118160000Y-114930000D03*
X117160000Y-103930000D03*
X117160000Y-104930000D03*
X117160000Y-105930000D03*
X117160000Y-106930000D03*
X117160000Y-107930000D03*
X117160000Y-108930000D03*
X117160000Y-109930000D03*
X117160000Y-110930000D03*
X117160000Y-111930000D03*
X117160000Y-112930000D03*
X117160000Y-113930000D03*
X117160000Y-114930000D03*
X116160000Y-103930000D03*
X116160000Y-104930000D03*
X116160000Y-105930000D03*
X116160000Y-106930000D03*
X116160000Y-107930000D03*
X116160000Y-108930000D03*
X116160000Y-109930000D03*
X116160000Y-110930000D03*
X116160000Y-111930000D03*
X116160000Y-112930000D03*
X116160000Y-113930000D03*
X116160000Y-114930000D03*
X115160000Y-103930000D03*
X115160000Y-104930000D03*
X115160000Y-105930000D03*
X115160000Y-106930000D03*
X115160000Y-107930000D03*
X115160000Y-108930000D03*
X115160000Y-109930000D03*
X115160000Y-110930000D03*
X115160000Y-111930000D03*
X115160000Y-112930000D03*
X115160000Y-113930000D03*
X115160000Y-114930000D03*
X114160000Y-103930000D03*
X114160000Y-104930000D03*
X114160000Y-105930000D03*
X114160000Y-106930000D03*
X114160000Y-107930000D03*
X114160000Y-108930000D03*
X114160000Y-109930000D03*
X114160000Y-110930000D03*
X114160000Y-111930000D03*
X114160000Y-112930000D03*
X114160000Y-113930000D03*
X114160000Y-114930000D03*
X113160000Y-103930000D03*
X113160000Y-104930000D03*
X113160000Y-105930000D03*
X113160000Y-106930000D03*
X113160000Y-107930000D03*
X113160000Y-108930000D03*
X113160000Y-109930000D03*
X113160000Y-110930000D03*
X113160000Y-111930000D03*
X113160000Y-112930000D03*
X113160000Y-113930000D03*
X113160000Y-114930000D03*
X112160000Y-103930000D03*
X112160000Y-104930000D03*
X112160000Y-105930000D03*
X112160000Y-106930000D03*
X112160000Y-107930000D03*
X112160000Y-108930000D03*
X112160000Y-109930000D03*
X112160000Y-110930000D03*
X112160000Y-111930000D03*
X112160000Y-112930000D03*
X112160000Y-113930000D03*
X112160000Y-114930000D03*
X111160000Y-104930000D03*
X111160000Y-105930000D03*
X111160000Y-106930000D03*
X111160000Y-107930000D03*
X111160000Y-108930000D03*
X111160000Y-109930000D03*
X111160000Y-110930000D03*
X111160000Y-111930000D03*
X111160000Y-112930000D03*
X111160000Y-113930000D03*
D26*
X111160000Y-114930000D03*
D27*
X120600000Y-123200000D03*
X120600000Y-122300000D03*
D28*
X106000000Y-95800000D03*
X105100000Y-95800000D03*
X131100000Y-106000000D03*
X132000000Y-106000000D03*
D21*
X99600000Y-121400000D03*
X99600000Y-119500000D03*
D29*
X115400000Y-119650000D03*
X116400000Y-121400000D03*
X114400000Y-121400000D03*
D30*
X125400000Y-121200000D03*
D31*
X124350000Y-122175000D03*
X124350000Y-121525000D03*
X124350000Y-120875000D03*
X124350000Y-120225000D03*
X126450000Y-120225000D03*
X126450000Y-120875000D03*
X126450000Y-121525000D03*
X126450000Y-122175000D03*
D32*
X105965000Y-90260000D03*
X105315000Y-90260000D03*
X104665000Y-90260000D03*
X104015000Y-90260000D03*
X104015000Y-92360000D03*
X104665000Y-92360000D03*
X105315000Y-92360000D03*
X105965000Y-92360000D03*
D33*
X104990000Y-91310000D03*
D32*
X129575000Y-100950000D03*
X128925000Y-100950000D03*
X128275000Y-100950000D03*
X127625000Y-100950000D03*
X127625000Y-103050000D03*
X128275000Y-103050000D03*
X128925000Y-103050000D03*
X129575000Y-103050000D03*
D33*
X128600000Y-102000000D03*
D34*
X112080000Y-119800000D03*
X106320000Y-119800000D03*
X106320000Y-123800000D03*
X112080000Y-123800000D03*
D21*
X111880000Y-91000000D03*
X111880000Y-92900000D03*
X124500000Y-94220000D03*
X124500000Y-92320000D03*
X122200000Y-118900000D03*
X122200000Y-120800000D03*
X109550000Y-94420000D03*
X109550000Y-96320000D03*
D11*
X110900000Y-94400000D03*
X112800000Y-94400000D03*
D21*
X122200000Y-122000000D03*
X122200000Y-123900000D03*
D11*
X103940000Y-94230000D03*
X102040000Y-94230000D03*
X106990000Y-94230000D03*
X105090000Y-94230000D03*
D21*
X135120000Y-104540000D03*
X135120000Y-106440000D03*
X101400000Y-121400000D03*
X101400000Y-119500000D03*
X103200000Y-121400000D03*
X103200000Y-119500000D03*
D20*
X125800000Y-90000000D03*
X125800000Y-88000000D03*
X124000000Y-90000000D03*
X124000000Y-88000000D03*
D15*
X128600000Y-118600000D03*
X126600000Y-118600000D03*
X111000000Y-96200000D03*
X113000000Y-96200000D03*
X126200000Y-124000000D03*
X124200000Y-124000000D03*
X113000000Y-98000000D03*
X111000000Y-98000000D03*
D20*
X101990000Y-90310000D03*
X101990000Y-88310000D03*
X107990000Y-92310000D03*
X107990000Y-90310000D03*
D15*
X126600000Y-115400000D03*
X128600000Y-115400000D03*
X126600000Y-111800000D03*
X128600000Y-111800000D03*
X126600000Y-106400000D03*
X128600000Y-106400000D03*
X126600000Y-110000000D03*
X128600000Y-110000000D03*
X126600000Y-113600000D03*
X128600000Y-113600000D03*
D20*
X131800000Y-102400000D03*
X131800000Y-100400000D03*
D15*
X126600000Y-108200000D03*
X128600000Y-108200000D03*
D20*
X128000000Y-98000000D03*
X128000000Y-96000000D03*
M02*
