G04 #@! TF.GenerationSoftware,KiCad,Pcbnew,(5.1.4)-1*
G04 #@! TF.CreationDate,2019-08-25T20:49:14+02:00*
G04 #@! TF.ProjectId,ToF_camera_VGA,546f465f-6361-46d6-9572-615f5647412e,rev?*
G04 #@! TF.SameCoordinates,Original*
G04 #@! TF.FileFunction,Legend,Top*
G04 #@! TF.FilePolarity,Positive*
%FSLAX46Y46*%
G04 Gerber Fmt 4.6, Leading zero omitted, Abs format (unit mm)*
G04 Created by KiCad (PCBNEW (5.1.4)-1) date 2019-08-25 20:49:14*
%MOMM*%
%LPD*%
G04 APERTURE LIST*
%ADD10C,0.120000*%
%ADD11C,0.400000*%
%ADD12C,0.150000*%
%ADD13C,0.200000*%
%ADD14C,0.100000*%
%ADD15C,0.254000*%
G04 APERTURE END LIST*
D10*
X102910000Y-118035000D02*
X99910000Y-118035000D01*
X102910000Y-115035000D02*
X98910000Y-115035000D01*
D11*
X98541605Y-115138000D02*
G75*
G03X98541605Y-115138000I-179605J0D01*
G01*
D10*
X127680000Y-103690000D02*
X128880000Y-103690000D01*
X128880000Y-105450000D02*
X127680000Y-105450000D01*
X134710000Y-108980000D02*
X133510000Y-108980000D01*
X133510000Y-107220000D02*
X134710000Y-107220000D01*
X104750000Y-112950000D02*
X104750000Y-118700000D01*
X104750000Y-118700000D02*
X108350000Y-118700000D01*
X108350000Y-118700000D02*
X108350000Y-112950000D01*
X125470000Y-100170000D02*
X125470000Y-98620000D01*
X125470000Y-94830000D02*
X125470000Y-96380000D01*
X120130000Y-99410000D02*
X120130000Y-98620000D01*
X120130000Y-95590000D02*
X120130000Y-96380000D01*
X125470000Y-94830000D02*
X120890000Y-94830000D01*
X120890000Y-94830000D02*
X120130000Y-95590000D01*
X120130000Y-99410000D02*
X120890000Y-100170000D01*
X120890000Y-100170000D02*
X125470000Y-100170000D01*
D12*
X137350000Y-100850000D02*
X136700000Y-100850000D01*
X137350000Y-100100000D02*
X137350000Y-100850000D01*
X137350000Y-96000000D02*
X137350000Y-99000000D01*
X134150000Y-99000000D02*
X134150000Y-96000000D01*
D10*
X104700000Y-88250000D02*
X105700000Y-88250000D01*
X105700000Y-86550000D02*
X104700000Y-86550000D01*
D13*
X114650000Y-94200000D02*
X114650000Y-94200000D01*
X114850000Y-94200000D02*
X114850000Y-94200000D01*
X114850000Y-94200000D02*
G75*
G03X114650000Y-94200000I-100000J0D01*
G01*
X114650000Y-94200000D02*
G75*
G03X114850000Y-94200000I100000J0D01*
G01*
D10*
X129750000Y-119100000D02*
X129750000Y-120100000D01*
X131450000Y-120100000D02*
X131450000Y-119100000D01*
X132410000Y-87330000D02*
X132410000Y-84670000D01*
X124730000Y-87330000D02*
X132410000Y-87330000D01*
X124730000Y-84670000D02*
X132410000Y-84670000D01*
X124730000Y-87330000D02*
X124730000Y-84670000D01*
X123460000Y-87330000D02*
X122130000Y-87330000D01*
X122130000Y-87330000D02*
X122130000Y-86000000D01*
X129750000Y-97850000D02*
X132410000Y-97850000D01*
X129750000Y-90170000D02*
X129750000Y-97850000D01*
X132410000Y-90170000D02*
X132410000Y-97850000D01*
X129750000Y-90170000D02*
X132410000Y-90170000D01*
X129750000Y-88900000D02*
X129750000Y-87570000D01*
X129750000Y-87570000D02*
X131080000Y-87570000D01*
X102280000Y-122950000D02*
X102280000Y-124150000D01*
X100520000Y-124150000D02*
X100520000Y-122950000D01*
X97270000Y-125130000D02*
X99930000Y-125130000D01*
X97270000Y-125070000D02*
X97270000Y-125130000D01*
X99930000Y-125070000D02*
X99930000Y-125130000D01*
X97270000Y-125070000D02*
X99930000Y-125070000D01*
X97270000Y-123800000D02*
X97270000Y-122470000D01*
X97270000Y-122470000D02*
X98600000Y-122470000D01*
X97980000Y-95400000D02*
X100640000Y-95400000D01*
X97980000Y-87720000D02*
X97980000Y-95400000D01*
X100640000Y-87720000D02*
X100640000Y-95400000D01*
X97980000Y-87720000D02*
X100640000Y-87720000D01*
X97980000Y-86450000D02*
X97980000Y-85120000D01*
X97980000Y-85120000D02*
X99310000Y-85120000D01*
X129070000Y-125130000D02*
X131730000Y-125130000D01*
X129070000Y-125070000D02*
X129070000Y-125130000D01*
X131730000Y-125070000D02*
X131730000Y-125130000D01*
X129070000Y-125070000D02*
X131730000Y-125070000D01*
X129070000Y-123800000D02*
X129070000Y-122470000D01*
X129070000Y-122470000D02*
X130400000Y-122470000D01*
X100190000Y-110500000D02*
X102680000Y-110500000D01*
X100190000Y-99500000D02*
X102680000Y-99500000D01*
X100190000Y-113885000D02*
X100190000Y-110500000D01*
X100190000Y-96115000D02*
X100190000Y-99500000D01*
X98530000Y-113885000D02*
X100190000Y-113885000D01*
X98530000Y-96115000D02*
X100190000Y-96115000D01*
X98530000Y-110500000D02*
X98530000Y-113885000D01*
X98530000Y-99500000D02*
X98530000Y-96115000D01*
X101320000Y-110500000D02*
X98530000Y-110500000D01*
X101320000Y-99500000D02*
X98530000Y-99500000D01*
X101320000Y-99500000D02*
X101320000Y-110500000D01*
X102680000Y-99500000D02*
X102680000Y-110500000D01*
D13*
X109760000Y-116430000D02*
G75*
G03X109760000Y-116430000I-100000J0D01*
G01*
D10*
X109540000Y-115430000D02*
X109540000Y-113050000D01*
X110660000Y-116550000D02*
X109540000Y-115430000D01*
X113040000Y-116550000D02*
X110660000Y-116550000D01*
X109540000Y-102310000D02*
X109540000Y-105810000D01*
X113040000Y-102310000D02*
X109540000Y-102310000D01*
X123780000Y-116550000D02*
X123780000Y-113050000D01*
X120280000Y-116550000D02*
X123780000Y-116550000D01*
X123780000Y-102310000D02*
X123780000Y-105810000D01*
X120280000Y-102310000D02*
X123780000Y-102310000D01*
X123780000Y-116550000D02*
X123780000Y-113050000D01*
X120280000Y-116550000D02*
X123780000Y-116550000D01*
X123780000Y-116550000D02*
X123780000Y-113050000D01*
X120280000Y-116550000D02*
X123780000Y-116550000D01*
X120070000Y-122500000D02*
X120070000Y-123000000D01*
X121130000Y-123000000D02*
X121130000Y-122500000D01*
X105300000Y-96330000D02*
X105800000Y-96330000D01*
X105800000Y-95270000D02*
X105300000Y-95270000D01*
X131800000Y-105470000D02*
X131300000Y-105470000D01*
X131300000Y-106530000D02*
X131800000Y-106530000D01*
X100480000Y-119850000D02*
X100480000Y-121050000D01*
X98720000Y-121050000D02*
X98720000Y-119850000D01*
X116960000Y-119830000D02*
X116960000Y-121220000D01*
X113840000Y-119830000D02*
X113840000Y-121220000D01*
X115840000Y-121220000D02*
X114960000Y-121220000D01*
X116960000Y-121220000D02*
X116960000Y-122215000D01*
X116960000Y-121220000D02*
X116960000Y-121220000D01*
X113840000Y-119830000D02*
X113840000Y-119830000D01*
X116960000Y-119830000D02*
X115960000Y-119830000D01*
X116840000Y-119830000D02*
X115960000Y-119830000D01*
X114840000Y-119830000D02*
X113840000Y-119830000D01*
D13*
X127300000Y-122300000D02*
G75*
G03X127300000Y-122100000I0J100000D01*
G01*
X127300000Y-122100000D02*
G75*
G03X127300000Y-122300000I0J-100000D01*
G01*
X127300000Y-122100000D02*
X127300000Y-122100000D01*
X127300000Y-122300000D02*
X127300000Y-122300000D01*
D14*
X126800000Y-119700000D02*
X124000000Y-119700000D01*
X126800000Y-122700000D02*
X124000000Y-122700000D01*
X106490000Y-89910000D02*
X106490000Y-92710000D01*
X103490000Y-89910000D02*
X103490000Y-92710000D01*
D13*
X106090000Y-89410000D02*
X106090000Y-89410000D01*
X105890000Y-89410000D02*
X105890000Y-89410000D01*
X105890000Y-89410000D02*
G75*
G03X106090000Y-89410000I100000J0D01*
G01*
X106090000Y-89410000D02*
G75*
G03X105890000Y-89410000I-100000J0D01*
G01*
D14*
X130100000Y-100600000D02*
X130100000Y-103400000D01*
X127100000Y-100600000D02*
X127100000Y-103400000D01*
D13*
X129700000Y-100100000D02*
X129700000Y-100100000D01*
X129500000Y-100100000D02*
X129500000Y-100100000D01*
X129500000Y-100100000D02*
G75*
G03X129700000Y-100100000I100000J0D01*
G01*
X129700000Y-100100000D02*
G75*
G03X129500000Y-100100000I-100000J0D01*
G01*
D10*
X106050000Y-124450000D02*
X106050000Y-124900000D01*
X106050000Y-124900000D02*
X112350000Y-124900000D01*
X112350000Y-124900000D02*
X112350000Y-124500000D01*
X106050000Y-123150000D02*
X106050000Y-120450000D01*
X112350000Y-120450000D02*
X112350000Y-123150000D01*
X106050000Y-118700000D02*
X112350000Y-118700000D01*
X112350000Y-118700000D02*
X112350000Y-119150000D01*
X106050000Y-119150000D02*
X106050000Y-118700000D01*
X111000000Y-92550000D02*
X111000000Y-91350000D01*
X112760000Y-91350000D02*
X112760000Y-92550000D01*
X125380000Y-92670000D02*
X125380000Y-93870000D01*
X123620000Y-93870000D02*
X123620000Y-92670000D01*
X121320000Y-120450000D02*
X121320000Y-119250000D01*
X123080000Y-119250000D02*
X123080000Y-120450000D01*
X108670000Y-95970000D02*
X108670000Y-94770000D01*
X110430000Y-94770000D02*
X110430000Y-95970000D01*
X112450000Y-95280000D02*
X111250000Y-95280000D01*
X111250000Y-93520000D02*
X112450000Y-93520000D01*
X121320000Y-123550000D02*
X121320000Y-122350000D01*
X123080000Y-122350000D02*
X123080000Y-123550000D01*
X102390000Y-93350000D02*
X103590000Y-93350000D01*
X103590000Y-95110000D02*
X102390000Y-95110000D01*
X105440000Y-93350000D02*
X106640000Y-93350000D01*
X106640000Y-95110000D02*
X105440000Y-95110000D01*
X134240000Y-106090000D02*
X134240000Y-104890000D01*
X136000000Y-104890000D02*
X136000000Y-106090000D01*
X102280000Y-119850000D02*
X102280000Y-121050000D01*
X100520000Y-121050000D02*
X100520000Y-119850000D01*
X104080000Y-119850000D02*
X104080000Y-121050000D01*
X102320000Y-121050000D02*
X102320000Y-119850000D01*
X124950000Y-88500000D02*
X124950000Y-89500000D01*
X126650000Y-89500000D02*
X126650000Y-88500000D01*
X123150000Y-88500000D02*
X123150000Y-89500000D01*
X124850000Y-89500000D02*
X124850000Y-88500000D01*
X127100000Y-119450000D02*
X128100000Y-119450000D01*
X128100000Y-117750000D02*
X127100000Y-117750000D01*
X112500000Y-95350000D02*
X111500000Y-95350000D01*
X111500000Y-97050000D02*
X112500000Y-97050000D01*
X124700000Y-124850000D02*
X125700000Y-124850000D01*
X125700000Y-123150000D02*
X124700000Y-123150000D01*
X111500000Y-98850000D02*
X112500000Y-98850000D01*
X112500000Y-97150000D02*
X111500000Y-97150000D01*
X101140000Y-88810000D02*
X101140000Y-89810000D01*
X102840000Y-89810000D02*
X102840000Y-88810000D01*
X107140000Y-90810000D02*
X107140000Y-91810000D01*
X108840000Y-91810000D02*
X108840000Y-90810000D01*
X128100000Y-114550000D02*
X127100000Y-114550000D01*
X127100000Y-116250000D02*
X128100000Y-116250000D01*
X128100000Y-110950000D02*
X127100000Y-110950000D01*
X127100000Y-112650000D02*
X128100000Y-112650000D01*
X128100000Y-105550000D02*
X127100000Y-105550000D01*
X127100000Y-107250000D02*
X128100000Y-107250000D01*
X128100000Y-109150000D02*
X127100000Y-109150000D01*
X127100000Y-110850000D02*
X128100000Y-110850000D01*
X128100000Y-112750000D02*
X127100000Y-112750000D01*
X127100000Y-114450000D02*
X128100000Y-114450000D01*
X130950000Y-100900000D02*
X130950000Y-101900000D01*
X132650000Y-101900000D02*
X132650000Y-100900000D01*
X128100000Y-107350000D02*
X127100000Y-107350000D01*
X127100000Y-109050000D02*
X128100000Y-109050000D01*
X127150000Y-96500000D02*
X127150000Y-97500000D01*
X128850000Y-97500000D02*
X128850000Y-96500000D01*
D12*
X96738095Y-115702380D02*
X96738095Y-116511904D01*
X96785714Y-116607142D01*
X96833333Y-116654761D01*
X96928571Y-116702380D01*
X97119047Y-116702380D01*
X97214285Y-116654761D01*
X97261904Y-116607142D01*
X97309523Y-116511904D01*
X97309523Y-115702380D01*
X98214285Y-115702380D02*
X98023809Y-115702380D01*
X97928571Y-115750000D01*
X97880952Y-115797619D01*
X97785714Y-115940476D01*
X97738095Y-116130952D01*
X97738095Y-116511904D01*
X97785714Y-116607142D01*
X97833333Y-116654761D01*
X97928571Y-116702380D01*
X98119047Y-116702380D01*
X98214285Y-116654761D01*
X98261904Y-116607142D01*
X98309523Y-116511904D01*
X98309523Y-116273809D01*
X98261904Y-116178571D01*
X98214285Y-116130952D01*
X98119047Y-116083333D01*
X97928571Y-116083333D01*
X97833333Y-116130952D01*
X97785714Y-116178571D01*
X97738095Y-116273809D01*
X130663333Y-105022380D02*
X130330000Y-104546190D01*
X130091904Y-105022380D02*
X130091904Y-104022380D01*
X130472857Y-104022380D01*
X130568095Y-104070000D01*
X130615714Y-104117619D01*
X130663333Y-104212857D01*
X130663333Y-104355714D01*
X130615714Y-104450952D01*
X130568095Y-104498571D01*
X130472857Y-104546190D01*
X130091904Y-104546190D01*
X130996666Y-104022380D02*
X131615714Y-104022380D01*
X131282380Y-104403333D01*
X131425238Y-104403333D01*
X131520476Y-104450952D01*
X131568095Y-104498571D01*
X131615714Y-104593809D01*
X131615714Y-104831904D01*
X131568095Y-104927142D01*
X131520476Y-104974761D01*
X131425238Y-105022380D01*
X131139523Y-105022380D01*
X131044285Y-104974761D01*
X130996666Y-104927142D01*
X136337142Y-108672380D02*
X136003809Y-108196190D01*
X135765714Y-108672380D02*
X135765714Y-107672380D01*
X136146666Y-107672380D01*
X136241904Y-107720000D01*
X136289523Y-107767619D01*
X136337142Y-107862857D01*
X136337142Y-108005714D01*
X136289523Y-108100952D01*
X136241904Y-108148571D01*
X136146666Y-108196190D01*
X135765714Y-108196190D01*
X137289523Y-108672380D02*
X136718095Y-108672380D01*
X137003809Y-108672380D02*
X137003809Y-107672380D01*
X136908571Y-107815238D01*
X136813333Y-107910476D01*
X136718095Y-107958095D01*
X137860952Y-108100952D02*
X137765714Y-108053333D01*
X137718095Y-108005714D01*
X137670476Y-107910476D01*
X137670476Y-107862857D01*
X137718095Y-107767619D01*
X137765714Y-107720000D01*
X137860952Y-107672380D01*
X138051428Y-107672380D01*
X138146666Y-107720000D01*
X138194285Y-107767619D01*
X138241904Y-107862857D01*
X138241904Y-107910476D01*
X138194285Y-108005714D01*
X138146666Y-108053333D01*
X138051428Y-108100952D01*
X137860952Y-108100952D01*
X137765714Y-108148571D01*
X137718095Y-108196190D01*
X137670476Y-108291428D01*
X137670476Y-108481904D01*
X137718095Y-108577142D01*
X137765714Y-108624761D01*
X137860952Y-108672380D01*
X138051428Y-108672380D01*
X138146666Y-108624761D01*
X138194285Y-108577142D01*
X138241904Y-108481904D01*
X138241904Y-108291428D01*
X138194285Y-108196190D01*
X138146666Y-108148571D01*
X138051428Y-108100952D01*
X103403809Y-113776190D02*
X103403809Y-114252380D01*
X103070476Y-113252380D02*
X103403809Y-113776190D01*
X103737142Y-113252380D01*
X104594285Y-114252380D02*
X104022857Y-114252380D01*
X104308571Y-114252380D02*
X104308571Y-113252380D01*
X104213333Y-113395238D01*
X104118095Y-113490476D01*
X104022857Y-113538095D01*
X122157142Y-101777142D02*
X122109523Y-101824761D01*
X121966666Y-101872380D01*
X121871428Y-101872380D01*
X121728571Y-101824761D01*
X121633333Y-101729523D01*
X121585714Y-101634285D01*
X121538095Y-101443809D01*
X121538095Y-101300952D01*
X121585714Y-101110476D01*
X121633333Y-101015238D01*
X121728571Y-100920000D01*
X121871428Y-100872380D01*
X121966666Y-100872380D01*
X122109523Y-100920000D01*
X122157142Y-100967619D01*
X123109523Y-101872380D02*
X122538095Y-101872380D01*
X122823809Y-101872380D02*
X122823809Y-100872380D01*
X122728571Y-101015238D01*
X122633333Y-101110476D01*
X122538095Y-101158095D01*
X123966666Y-100872380D02*
X123776190Y-100872380D01*
X123680952Y-100920000D01*
X123633333Y-100967619D01*
X123538095Y-101110476D01*
X123490476Y-101300952D01*
X123490476Y-101681904D01*
X123538095Y-101777142D01*
X123585714Y-101824761D01*
X123680952Y-101872380D01*
X123871428Y-101872380D01*
X123966666Y-101824761D01*
X124014285Y-101777142D01*
X124061904Y-101681904D01*
X124061904Y-101443809D01*
X124014285Y-101348571D01*
X123966666Y-101300952D01*
X123871428Y-101253333D01*
X123680952Y-101253333D01*
X123585714Y-101300952D01*
X123538095Y-101348571D01*
X123490476Y-101443809D01*
X119039047Y-99921428D02*
X119800952Y-99921428D01*
X119420000Y-100302380D02*
X119420000Y-99540476D01*
X135613333Y-93932380D02*
X135137142Y-93932380D01*
X135137142Y-92932380D01*
X136470476Y-93932380D02*
X135899047Y-93932380D01*
X136184761Y-93932380D02*
X136184761Y-92932380D01*
X136089523Y-93075238D01*
X135994285Y-93170476D01*
X135899047Y-93218095D01*
X105033333Y-86257142D02*
X104985714Y-86304761D01*
X104842857Y-86352380D01*
X104747619Y-86352380D01*
X104604761Y-86304761D01*
X104509523Y-86209523D01*
X104461904Y-86114285D01*
X104414285Y-85923809D01*
X104414285Y-85780952D01*
X104461904Y-85590476D01*
X104509523Y-85495238D01*
X104604761Y-85400000D01*
X104747619Y-85352380D01*
X104842857Y-85352380D01*
X104985714Y-85400000D01*
X105033333Y-85447619D01*
X105509523Y-86352380D02*
X105700000Y-86352380D01*
X105795238Y-86304761D01*
X105842857Y-86257142D01*
X105938095Y-86114285D01*
X105985714Y-85923809D01*
X105985714Y-85542857D01*
X105938095Y-85447619D01*
X105890476Y-85400000D01*
X105795238Y-85352380D01*
X105604761Y-85352380D01*
X105509523Y-85400000D01*
X105461904Y-85447619D01*
X105414285Y-85542857D01*
X105414285Y-85780952D01*
X105461904Y-85876190D01*
X105509523Y-85923809D01*
X105604761Y-85971428D01*
X105795238Y-85971428D01*
X105890476Y-85923809D01*
X105938095Y-85876190D01*
X105985714Y-85780952D01*
D15*
X116782380Y-83304523D02*
X116782380Y-84332619D01*
X116842857Y-84453571D01*
X116903333Y-84514047D01*
X117024285Y-84574523D01*
X117266190Y-84574523D01*
X117387142Y-84514047D01*
X117447619Y-84453571D01*
X117508095Y-84332619D01*
X117508095Y-83304523D01*
X118717619Y-83304523D02*
X118112857Y-83304523D01*
X118052380Y-83909285D01*
X118112857Y-83848809D01*
X118233809Y-83788333D01*
X118536190Y-83788333D01*
X118657142Y-83848809D01*
X118717619Y-83909285D01*
X118778095Y-84030238D01*
X118778095Y-84332619D01*
X118717619Y-84453571D01*
X118657142Y-84514047D01*
X118536190Y-84574523D01*
X118233809Y-84574523D01*
X118112857Y-84514047D01*
X118052380Y-84453571D01*
D12*
X132357142Y-120857142D02*
X132309523Y-120904761D01*
X132166666Y-120952380D01*
X132071428Y-120952380D01*
X131928571Y-120904761D01*
X131833333Y-120809523D01*
X131785714Y-120714285D01*
X131738095Y-120523809D01*
X131738095Y-120380952D01*
X131785714Y-120190476D01*
X131833333Y-120095238D01*
X131928571Y-120000000D01*
X132071428Y-119952380D01*
X132166666Y-119952380D01*
X132309523Y-120000000D01*
X132357142Y-120047619D01*
X133309523Y-120952380D02*
X132738095Y-120952380D01*
X133023809Y-120952380D02*
X133023809Y-119952380D01*
X132928571Y-120095238D01*
X132833333Y-120190476D01*
X132738095Y-120238095D01*
X133690476Y-120047619D02*
X133738095Y-120000000D01*
X133833333Y-119952380D01*
X134071428Y-119952380D01*
X134166666Y-120000000D01*
X134214285Y-120047619D01*
X134261904Y-120142857D01*
X134261904Y-120238095D01*
X134214285Y-120380952D01*
X133642857Y-120952380D01*
X134261904Y-120952380D01*
X127016666Y-83092380D02*
X127016666Y-83806666D01*
X126969047Y-83949523D01*
X126873809Y-84044761D01*
X126730952Y-84092380D01*
X126635714Y-84092380D01*
X127921428Y-83092380D02*
X127730952Y-83092380D01*
X127635714Y-83140000D01*
X127588095Y-83187619D01*
X127492857Y-83330476D01*
X127445238Y-83520952D01*
X127445238Y-83901904D01*
X127492857Y-83997142D01*
X127540476Y-84044761D01*
X127635714Y-84092380D01*
X127826190Y-84092380D01*
X127921428Y-84044761D01*
X127969047Y-83997142D01*
X128016666Y-83901904D01*
X128016666Y-83663809D01*
X127969047Y-83568571D01*
X127921428Y-83520952D01*
X127826190Y-83473333D01*
X127635714Y-83473333D01*
X127540476Y-83520952D01*
X127492857Y-83568571D01*
X127445238Y-83663809D01*
X133666666Y-88952380D02*
X133666666Y-89666666D01*
X133619047Y-89809523D01*
X133523809Y-89904761D01*
X133380952Y-89952380D01*
X133285714Y-89952380D01*
X134619047Y-88952380D02*
X134142857Y-88952380D01*
X134095238Y-89428571D01*
X134142857Y-89380952D01*
X134238095Y-89333333D01*
X134476190Y-89333333D01*
X134571428Y-89380952D01*
X134619047Y-89428571D01*
X134666666Y-89523809D01*
X134666666Y-89761904D01*
X134619047Y-89857142D01*
X134571428Y-89904761D01*
X134476190Y-89952380D01*
X134238095Y-89952380D01*
X134142857Y-89904761D01*
X134095238Y-89857142D01*
X101607142Y-126202380D02*
X101273809Y-125726190D01*
X101035714Y-126202380D02*
X101035714Y-125202380D01*
X101416666Y-125202380D01*
X101511904Y-125250000D01*
X101559523Y-125297619D01*
X101607142Y-125392857D01*
X101607142Y-125535714D01*
X101559523Y-125630952D01*
X101511904Y-125678571D01*
X101416666Y-125726190D01*
X101035714Y-125726190D01*
X102559523Y-126202380D02*
X101988095Y-126202380D01*
X102273809Y-126202380D02*
X102273809Y-125202380D01*
X102178571Y-125345238D01*
X102083333Y-125440476D01*
X101988095Y-125488095D01*
X102892857Y-125202380D02*
X103559523Y-125202380D01*
X103130952Y-126202380D01*
X98266666Y-125702380D02*
X98266666Y-126416666D01*
X98219047Y-126559523D01*
X98123809Y-126654761D01*
X97980952Y-126702380D01*
X97885714Y-126702380D01*
X99171428Y-126035714D02*
X99171428Y-126702380D01*
X98933333Y-125654761D02*
X98695238Y-126369047D01*
X99314285Y-126369047D01*
X98976666Y-83572380D02*
X98976666Y-84286666D01*
X98929047Y-84429523D01*
X98833809Y-84524761D01*
X98690952Y-84572380D01*
X98595714Y-84572380D01*
X99357619Y-83572380D02*
X99976666Y-83572380D01*
X99643333Y-83953333D01*
X99786190Y-83953333D01*
X99881428Y-84000952D01*
X99929047Y-84048571D01*
X99976666Y-84143809D01*
X99976666Y-84381904D01*
X99929047Y-84477142D01*
X99881428Y-84524761D01*
X99786190Y-84572380D01*
X99500476Y-84572380D01*
X99405238Y-84524761D01*
X99357619Y-84477142D01*
X132166666Y-123452380D02*
X132166666Y-124166666D01*
X132119047Y-124309523D01*
X132023809Y-124404761D01*
X131880952Y-124452380D01*
X131785714Y-124452380D01*
X132595238Y-123547619D02*
X132642857Y-123500000D01*
X132738095Y-123452380D01*
X132976190Y-123452380D01*
X133071428Y-123500000D01*
X133119047Y-123547619D01*
X133166666Y-123642857D01*
X133166666Y-123738095D01*
X133119047Y-123880952D01*
X132547619Y-124452380D01*
X133166666Y-124452380D01*
X98952380Y-101933333D02*
X99666666Y-101933333D01*
X99809523Y-101980952D01*
X99904761Y-102076190D01*
X99952380Y-102219047D01*
X99952380Y-102314285D01*
X99380952Y-101314285D02*
X99333333Y-101409523D01*
X99285714Y-101457142D01*
X99190476Y-101504761D01*
X99142857Y-101504761D01*
X99047619Y-101457142D01*
X99000000Y-101409523D01*
X98952380Y-101314285D01*
X98952380Y-101123809D01*
X99000000Y-101028571D01*
X99047619Y-100980952D01*
X99142857Y-100933333D01*
X99190476Y-100933333D01*
X99285714Y-100980952D01*
X99333333Y-101028571D01*
X99380952Y-101123809D01*
X99380952Y-101314285D01*
X99428571Y-101409523D01*
X99476190Y-101457142D01*
X99571428Y-101504761D01*
X99761904Y-101504761D01*
X99857142Y-101457142D01*
X99904761Y-101409523D01*
X99952380Y-101314285D01*
X99952380Y-101123809D01*
X99904761Y-101028571D01*
X99857142Y-100980952D01*
X99761904Y-100933333D01*
X99571428Y-100933333D01*
X99476190Y-100980952D01*
X99428571Y-101028571D01*
X99380952Y-101123809D01*
X97136666Y-96862380D02*
X97136666Y-97576666D01*
X97089047Y-97719523D01*
X96993809Y-97814761D01*
X96850952Y-97862380D01*
X96755714Y-97862380D01*
X98136666Y-97862380D02*
X97565238Y-97862380D01*
X97850952Y-97862380D02*
X97850952Y-96862380D01*
X97755714Y-97005238D01*
X97660476Y-97100476D01*
X97565238Y-97148095D01*
X115898095Y-100882380D02*
X115898095Y-101691904D01*
X115945714Y-101787142D01*
X115993333Y-101834761D01*
X116088571Y-101882380D01*
X116279047Y-101882380D01*
X116374285Y-101834761D01*
X116421904Y-101787142D01*
X116469523Y-101691904D01*
X116469523Y-100882380D01*
X116898095Y-100977619D02*
X116945714Y-100930000D01*
X117040952Y-100882380D01*
X117279047Y-100882380D01*
X117374285Y-100930000D01*
X117421904Y-100977619D01*
X117469523Y-101072857D01*
X117469523Y-101168095D01*
X117421904Y-101310952D01*
X116850476Y-101882380D01*
X117469523Y-101882380D01*
X118107142Y-123202380D02*
X117773809Y-122726190D01*
X117535714Y-123202380D02*
X117535714Y-122202380D01*
X117916666Y-122202380D01*
X118011904Y-122250000D01*
X118059523Y-122297619D01*
X118107142Y-122392857D01*
X118107142Y-122535714D01*
X118059523Y-122630952D01*
X118011904Y-122678571D01*
X117916666Y-122726190D01*
X117535714Y-122726190D01*
X119059523Y-123202380D02*
X118488095Y-123202380D01*
X118773809Y-123202380D02*
X118773809Y-122202380D01*
X118678571Y-122345238D01*
X118583333Y-122440476D01*
X118488095Y-122488095D01*
X119392857Y-122202380D02*
X120011904Y-122202380D01*
X119678571Y-122583333D01*
X119821428Y-122583333D01*
X119916666Y-122630952D01*
X119964285Y-122678571D01*
X120011904Y-122773809D01*
X120011904Y-123011904D01*
X119964285Y-123107142D01*
X119916666Y-123154761D01*
X119821428Y-123202380D01*
X119535714Y-123202380D01*
X119440476Y-123154761D01*
X119392857Y-123107142D01*
X105383333Y-97602380D02*
X105050000Y-97126190D01*
X104811904Y-97602380D02*
X104811904Y-96602380D01*
X105192857Y-96602380D01*
X105288095Y-96650000D01*
X105335714Y-96697619D01*
X105383333Y-96792857D01*
X105383333Y-96935714D01*
X105335714Y-97030952D01*
X105288095Y-97078571D01*
X105192857Y-97126190D01*
X104811904Y-97126190D01*
X105954761Y-97030952D02*
X105859523Y-96983333D01*
X105811904Y-96935714D01*
X105764285Y-96840476D01*
X105764285Y-96792857D01*
X105811904Y-96697619D01*
X105859523Y-96650000D01*
X105954761Y-96602380D01*
X106145238Y-96602380D01*
X106240476Y-96650000D01*
X106288095Y-96697619D01*
X106335714Y-96792857D01*
X106335714Y-96840476D01*
X106288095Y-96935714D01*
X106240476Y-96983333D01*
X106145238Y-97030952D01*
X105954761Y-97030952D01*
X105859523Y-97078571D01*
X105811904Y-97126190D01*
X105764285Y-97221428D01*
X105764285Y-97411904D01*
X105811904Y-97507142D01*
X105859523Y-97554761D01*
X105954761Y-97602380D01*
X106145238Y-97602380D01*
X106240476Y-97554761D01*
X106288095Y-97507142D01*
X106335714Y-97411904D01*
X106335714Y-97221428D01*
X106288095Y-97126190D01*
X106240476Y-97078571D01*
X106145238Y-97030952D01*
X132963333Y-106852380D02*
X132630000Y-106376190D01*
X132391904Y-106852380D02*
X132391904Y-105852380D01*
X132772857Y-105852380D01*
X132868095Y-105900000D01*
X132915714Y-105947619D01*
X132963333Y-106042857D01*
X132963333Y-106185714D01*
X132915714Y-106280952D01*
X132868095Y-106328571D01*
X132772857Y-106376190D01*
X132391904Y-106376190D01*
X133868095Y-105852380D02*
X133391904Y-105852380D01*
X133344285Y-106328571D01*
X133391904Y-106280952D01*
X133487142Y-106233333D01*
X133725238Y-106233333D01*
X133820476Y-106280952D01*
X133868095Y-106328571D01*
X133915714Y-106423809D01*
X133915714Y-106661904D01*
X133868095Y-106757142D01*
X133820476Y-106804761D01*
X133725238Y-106852380D01*
X133487142Y-106852380D01*
X133391904Y-106804761D01*
X133344285Y-106757142D01*
X96607142Y-120702380D02*
X96273809Y-120226190D01*
X96035714Y-120702380D02*
X96035714Y-119702380D01*
X96416666Y-119702380D01*
X96511904Y-119750000D01*
X96559523Y-119797619D01*
X96607142Y-119892857D01*
X96607142Y-120035714D01*
X96559523Y-120130952D01*
X96511904Y-120178571D01*
X96416666Y-120226190D01*
X96035714Y-120226190D01*
X97559523Y-120702380D02*
X96988095Y-120702380D01*
X97273809Y-120702380D02*
X97273809Y-119702380D01*
X97178571Y-119845238D01*
X97083333Y-119940476D01*
X96988095Y-119988095D01*
X98416666Y-119702380D02*
X98226190Y-119702380D01*
X98130952Y-119750000D01*
X98083333Y-119797619D01*
X97988095Y-119940476D01*
X97940476Y-120130952D01*
X97940476Y-120511904D01*
X97988095Y-120607142D01*
X98035714Y-120654761D01*
X98130952Y-120702380D01*
X98321428Y-120702380D01*
X98416666Y-120654761D01*
X98464285Y-120607142D01*
X98511904Y-120511904D01*
X98511904Y-120273809D01*
X98464285Y-120178571D01*
X98416666Y-120130952D01*
X98321428Y-120083333D01*
X98130952Y-120083333D01*
X98035714Y-120130952D01*
X97988095Y-120178571D01*
X97940476Y-120273809D01*
X114666666Y-123202380D02*
X114666666Y-123916666D01*
X114619047Y-124059523D01*
X114523809Y-124154761D01*
X114380952Y-124202380D01*
X114285714Y-124202380D01*
X115142857Y-124202380D02*
X115142857Y-123202380D01*
X115523809Y-123202380D01*
X115619047Y-123250000D01*
X115666666Y-123297619D01*
X115714285Y-123392857D01*
X115714285Y-123535714D01*
X115666666Y-123630952D01*
X115619047Y-123678571D01*
X115523809Y-123726190D01*
X115142857Y-123726190D01*
X116666666Y-124202380D02*
X116095238Y-124202380D01*
X116380952Y-124202380D02*
X116380952Y-123202380D01*
X116285714Y-123345238D01*
X116190476Y-123440476D01*
X116095238Y-123488095D01*
D15*
X126782380Y-123804523D02*
X126782380Y-124832619D01*
X126842857Y-124953571D01*
X126903333Y-125014047D01*
X127024285Y-125074523D01*
X127266190Y-125074523D01*
X127387142Y-125014047D01*
X127447619Y-124953571D01*
X127508095Y-124832619D01*
X127508095Y-123804523D01*
X128657142Y-124227857D02*
X128657142Y-125074523D01*
X128354761Y-123744047D02*
X128052380Y-124651190D01*
X128838571Y-124651190D01*
X107282380Y-86554523D02*
X107282380Y-87582619D01*
X107342857Y-87703571D01*
X107403333Y-87764047D01*
X107524285Y-87824523D01*
X107766190Y-87824523D01*
X107887142Y-87764047D01*
X107947619Y-87703571D01*
X108008095Y-87582619D01*
X108008095Y-86554523D01*
X108491904Y-86554523D02*
X109278095Y-86554523D01*
X108854761Y-87038333D01*
X109036190Y-87038333D01*
X109157142Y-87098809D01*
X109217619Y-87159285D01*
X109278095Y-87280238D01*
X109278095Y-87582619D01*
X109217619Y-87703571D01*
X109157142Y-87764047D01*
X109036190Y-87824523D01*
X108673333Y-87824523D01*
X108552380Y-87764047D01*
X108491904Y-87703571D01*
X124282380Y-100804523D02*
X124282380Y-101832619D01*
X124342857Y-101953571D01*
X124403333Y-102014047D01*
X124524285Y-102074523D01*
X124766190Y-102074523D01*
X124887142Y-102014047D01*
X124947619Y-101953571D01*
X125008095Y-101832619D01*
X125008095Y-100804523D01*
X126278095Y-102074523D02*
X125552380Y-102074523D01*
X125915238Y-102074523D02*
X125915238Y-100804523D01*
X125794285Y-100985952D01*
X125673333Y-101106904D01*
X125552380Y-101167380D01*
D12*
X107866666Y-126154761D02*
X108009523Y-126202380D01*
X108247619Y-126202380D01*
X108342857Y-126154761D01*
X108390476Y-126107142D01*
X108438095Y-126011904D01*
X108438095Y-125916666D01*
X108390476Y-125821428D01*
X108342857Y-125773809D01*
X108247619Y-125726190D01*
X108057142Y-125678571D01*
X107961904Y-125630952D01*
X107914285Y-125583333D01*
X107866666Y-125488095D01*
X107866666Y-125392857D01*
X107914285Y-125297619D01*
X107961904Y-125250000D01*
X108057142Y-125202380D01*
X108295238Y-125202380D01*
X108438095Y-125250000D01*
X108771428Y-125202380D02*
X109009523Y-126202380D01*
X109200000Y-125488095D01*
X109390476Y-126202380D01*
X109628571Y-125202380D01*
X110533333Y-126202380D02*
X109961904Y-126202380D01*
X110247619Y-126202380D02*
X110247619Y-125202380D01*
X110152380Y-125345238D01*
X110057142Y-125440476D01*
X109961904Y-125488095D01*
X110857142Y-90202380D02*
X110523809Y-89726190D01*
X110285714Y-90202380D02*
X110285714Y-89202380D01*
X110666666Y-89202380D01*
X110761904Y-89250000D01*
X110809523Y-89297619D01*
X110857142Y-89392857D01*
X110857142Y-89535714D01*
X110809523Y-89630952D01*
X110761904Y-89678571D01*
X110666666Y-89726190D01*
X110285714Y-89726190D01*
X111809523Y-90202380D02*
X111238095Y-90202380D01*
X111523809Y-90202380D02*
X111523809Y-89202380D01*
X111428571Y-89345238D01*
X111333333Y-89440476D01*
X111238095Y-89488095D01*
X112714285Y-89202380D02*
X112238095Y-89202380D01*
X112190476Y-89678571D01*
X112238095Y-89630952D01*
X112333333Y-89583333D01*
X112571428Y-89583333D01*
X112666666Y-89630952D01*
X112714285Y-89678571D01*
X112761904Y-89773809D01*
X112761904Y-90011904D01*
X112714285Y-90107142D01*
X112666666Y-90154761D01*
X112571428Y-90202380D01*
X112333333Y-90202380D01*
X112238095Y-90154761D01*
X112190476Y-90107142D01*
X126107142Y-93452380D02*
X125773809Y-92976190D01*
X125535714Y-93452380D02*
X125535714Y-92452380D01*
X125916666Y-92452380D01*
X126011904Y-92500000D01*
X126059523Y-92547619D01*
X126107142Y-92642857D01*
X126107142Y-92785714D01*
X126059523Y-92880952D01*
X126011904Y-92928571D01*
X125916666Y-92976190D01*
X125535714Y-92976190D01*
X127059523Y-93452380D02*
X126488095Y-93452380D01*
X126773809Y-93452380D02*
X126773809Y-92452380D01*
X126678571Y-92595238D01*
X126583333Y-92690476D01*
X126488095Y-92738095D01*
X127916666Y-92785714D02*
X127916666Y-93452380D01*
X127678571Y-92404761D02*
X127440476Y-93119047D01*
X128059523Y-93119047D01*
X119107142Y-120452380D02*
X118773809Y-119976190D01*
X118535714Y-120452380D02*
X118535714Y-119452380D01*
X118916666Y-119452380D01*
X119011904Y-119500000D01*
X119059523Y-119547619D01*
X119107142Y-119642857D01*
X119107142Y-119785714D01*
X119059523Y-119880952D01*
X119011904Y-119928571D01*
X118916666Y-119976190D01*
X118535714Y-119976190D01*
X120059523Y-120452380D02*
X119488095Y-120452380D01*
X119773809Y-120452380D02*
X119773809Y-119452380D01*
X119678571Y-119595238D01*
X119583333Y-119690476D01*
X119488095Y-119738095D01*
X120440476Y-119547619D02*
X120488095Y-119500000D01*
X120583333Y-119452380D01*
X120821428Y-119452380D01*
X120916666Y-119500000D01*
X120964285Y-119547619D01*
X121011904Y-119642857D01*
X121011904Y-119738095D01*
X120964285Y-119880952D01*
X120392857Y-120452380D01*
X121011904Y-120452380D01*
X109107142Y-93702380D02*
X108773809Y-93226190D01*
X108535714Y-93702380D02*
X108535714Y-92702380D01*
X108916666Y-92702380D01*
X109011904Y-92750000D01*
X109059523Y-92797619D01*
X109107142Y-92892857D01*
X109107142Y-93035714D01*
X109059523Y-93130952D01*
X109011904Y-93178571D01*
X108916666Y-93226190D01*
X108535714Y-93226190D01*
X110059523Y-93702380D02*
X109488095Y-93702380D01*
X109773809Y-93702380D02*
X109773809Y-92702380D01*
X109678571Y-92845238D01*
X109583333Y-92940476D01*
X109488095Y-92988095D01*
X111011904Y-93702380D02*
X110440476Y-93702380D01*
X110726190Y-93702380D02*
X110726190Y-92702380D01*
X110630952Y-92845238D01*
X110535714Y-92940476D01*
X110440476Y-92988095D01*
X114107142Y-95452380D02*
X113773809Y-94976190D01*
X113535714Y-95452380D02*
X113535714Y-94452380D01*
X113916666Y-94452380D01*
X114011904Y-94500000D01*
X114059523Y-94547619D01*
X114107142Y-94642857D01*
X114107142Y-94785714D01*
X114059523Y-94880952D01*
X114011904Y-94928571D01*
X113916666Y-94976190D01*
X113535714Y-94976190D01*
X115059523Y-95452380D02*
X114488095Y-95452380D01*
X114773809Y-95452380D02*
X114773809Y-94452380D01*
X114678571Y-94595238D01*
X114583333Y-94690476D01*
X114488095Y-94738095D01*
X115678571Y-94452380D02*
X115773809Y-94452380D01*
X115869047Y-94500000D01*
X115916666Y-94547619D01*
X115964285Y-94642857D01*
X116011904Y-94833333D01*
X116011904Y-95071428D01*
X115964285Y-95261904D01*
X115916666Y-95357142D01*
X115869047Y-95404761D01*
X115773809Y-95452380D01*
X115678571Y-95452380D01*
X115583333Y-95404761D01*
X115535714Y-95357142D01*
X115488095Y-95261904D01*
X115440476Y-95071428D01*
X115440476Y-94833333D01*
X115488095Y-94642857D01*
X115535714Y-94547619D01*
X115583333Y-94500000D01*
X115678571Y-94452380D01*
X122083333Y-125702380D02*
X121750000Y-125226190D01*
X121511904Y-125702380D02*
X121511904Y-124702380D01*
X121892857Y-124702380D01*
X121988095Y-124750000D01*
X122035714Y-124797619D01*
X122083333Y-124892857D01*
X122083333Y-125035714D01*
X122035714Y-125130952D01*
X121988095Y-125178571D01*
X121892857Y-125226190D01*
X121511904Y-125226190D01*
X122559523Y-125702380D02*
X122750000Y-125702380D01*
X122845238Y-125654761D01*
X122892857Y-125607142D01*
X122988095Y-125464285D01*
X123035714Y-125273809D01*
X123035714Y-124892857D01*
X122988095Y-124797619D01*
X122940476Y-124750000D01*
X122845238Y-124702380D01*
X122654761Y-124702380D01*
X122559523Y-124750000D01*
X122511904Y-124797619D01*
X122464285Y-124892857D01*
X122464285Y-125130952D01*
X122511904Y-125226190D01*
X122559523Y-125273809D01*
X122654761Y-125321428D01*
X122845238Y-125321428D01*
X122940476Y-125273809D01*
X122988095Y-125226190D01*
X123035714Y-125130952D01*
X103083333Y-96202380D02*
X102750000Y-95726190D01*
X102511904Y-96202380D02*
X102511904Y-95202380D01*
X102892857Y-95202380D01*
X102988095Y-95250000D01*
X103035714Y-95297619D01*
X103083333Y-95392857D01*
X103083333Y-95535714D01*
X103035714Y-95630952D01*
X102988095Y-95678571D01*
X102892857Y-95726190D01*
X102511904Y-95726190D01*
X103416666Y-95202380D02*
X104083333Y-95202380D01*
X103654761Y-96202380D01*
X107333333Y-96202380D02*
X107000000Y-95726190D01*
X106761904Y-96202380D02*
X106761904Y-95202380D01*
X107142857Y-95202380D01*
X107238095Y-95250000D01*
X107285714Y-95297619D01*
X107333333Y-95392857D01*
X107333333Y-95535714D01*
X107285714Y-95630952D01*
X107238095Y-95678571D01*
X107142857Y-95726190D01*
X106761904Y-95726190D01*
X108190476Y-95202380D02*
X108000000Y-95202380D01*
X107904761Y-95250000D01*
X107857142Y-95297619D01*
X107761904Y-95440476D01*
X107714285Y-95630952D01*
X107714285Y-96011904D01*
X107761904Y-96107142D01*
X107809523Y-96154761D01*
X107904761Y-96202380D01*
X108095238Y-96202380D01*
X108190476Y-96154761D01*
X108238095Y-96107142D01*
X108285714Y-96011904D01*
X108285714Y-95773809D01*
X108238095Y-95678571D01*
X108190476Y-95630952D01*
X108095238Y-95583333D01*
X107904761Y-95583333D01*
X107809523Y-95630952D01*
X107761904Y-95678571D01*
X107714285Y-95773809D01*
X134963333Y-103832380D02*
X134630000Y-103356190D01*
X134391904Y-103832380D02*
X134391904Y-102832380D01*
X134772857Y-102832380D01*
X134868095Y-102880000D01*
X134915714Y-102927619D01*
X134963333Y-103022857D01*
X134963333Y-103165714D01*
X134915714Y-103260952D01*
X134868095Y-103308571D01*
X134772857Y-103356190D01*
X134391904Y-103356190D01*
X135820476Y-103165714D02*
X135820476Y-103832380D01*
X135582380Y-102784761D02*
X135344285Y-103499047D01*
X135963333Y-103499047D01*
X101333333Y-118952380D02*
X101000000Y-118476190D01*
X100761904Y-118952380D02*
X100761904Y-117952380D01*
X101142857Y-117952380D01*
X101238095Y-118000000D01*
X101285714Y-118047619D01*
X101333333Y-118142857D01*
X101333333Y-118285714D01*
X101285714Y-118380952D01*
X101238095Y-118428571D01*
X101142857Y-118476190D01*
X100761904Y-118476190D01*
X101714285Y-118047619D02*
X101761904Y-118000000D01*
X101857142Y-117952380D01*
X102095238Y-117952380D01*
X102190476Y-118000000D01*
X102238095Y-118047619D01*
X102285714Y-118142857D01*
X102285714Y-118238095D01*
X102238095Y-118380952D01*
X101666666Y-118952380D01*
X102285714Y-118952380D01*
X103583333Y-118952380D02*
X103250000Y-118476190D01*
X103011904Y-118952380D02*
X103011904Y-117952380D01*
X103392857Y-117952380D01*
X103488095Y-118000000D01*
X103535714Y-118047619D01*
X103583333Y-118142857D01*
X103583333Y-118285714D01*
X103535714Y-118380952D01*
X103488095Y-118428571D01*
X103392857Y-118476190D01*
X103011904Y-118476190D01*
X104535714Y-118952380D02*
X103964285Y-118952380D01*
X104250000Y-118952380D02*
X104250000Y-117952380D01*
X104154761Y-118095238D01*
X104059523Y-118190476D01*
X103964285Y-118238095D01*
X127357142Y-89357142D02*
X127309523Y-89404761D01*
X127166666Y-89452380D01*
X127071428Y-89452380D01*
X126928571Y-89404761D01*
X126833333Y-89309523D01*
X126785714Y-89214285D01*
X126738095Y-89023809D01*
X126738095Y-88880952D01*
X126785714Y-88690476D01*
X126833333Y-88595238D01*
X126928571Y-88500000D01*
X127071428Y-88452380D01*
X127166666Y-88452380D01*
X127309523Y-88500000D01*
X127357142Y-88547619D01*
X128309523Y-89452380D02*
X127738095Y-89452380D01*
X128023809Y-89452380D02*
X128023809Y-88452380D01*
X127928571Y-88595238D01*
X127833333Y-88690476D01*
X127738095Y-88738095D01*
X128785714Y-89452380D02*
X128976190Y-89452380D01*
X129071428Y-89404761D01*
X129119047Y-89357142D01*
X129214285Y-89214285D01*
X129261904Y-89023809D01*
X129261904Y-88642857D01*
X129214285Y-88547619D01*
X129166666Y-88500000D01*
X129071428Y-88452380D01*
X128880952Y-88452380D01*
X128785714Y-88500000D01*
X128738095Y-88547619D01*
X128690476Y-88642857D01*
X128690476Y-88880952D01*
X128738095Y-88976190D01*
X128785714Y-89023809D01*
X128880952Y-89071428D01*
X129071428Y-89071428D01*
X129166666Y-89023809D01*
X129214285Y-88976190D01*
X129261904Y-88880952D01*
X123357142Y-91607142D02*
X123309523Y-91654761D01*
X123166666Y-91702380D01*
X123071428Y-91702380D01*
X122928571Y-91654761D01*
X122833333Y-91559523D01*
X122785714Y-91464285D01*
X122738095Y-91273809D01*
X122738095Y-91130952D01*
X122785714Y-90940476D01*
X122833333Y-90845238D01*
X122928571Y-90750000D01*
X123071428Y-90702380D01*
X123166666Y-90702380D01*
X123309523Y-90750000D01*
X123357142Y-90797619D01*
X124309523Y-91702380D02*
X123738095Y-91702380D01*
X124023809Y-91702380D02*
X124023809Y-90702380D01*
X123928571Y-90845238D01*
X123833333Y-90940476D01*
X123738095Y-90988095D01*
X124880952Y-91130952D02*
X124785714Y-91083333D01*
X124738095Y-91035714D01*
X124690476Y-90940476D01*
X124690476Y-90892857D01*
X124738095Y-90797619D01*
X124785714Y-90750000D01*
X124880952Y-90702380D01*
X125071428Y-90702380D01*
X125166666Y-90750000D01*
X125214285Y-90797619D01*
X125261904Y-90892857D01*
X125261904Y-90940476D01*
X125214285Y-91035714D01*
X125166666Y-91083333D01*
X125071428Y-91130952D01*
X124880952Y-91130952D01*
X124785714Y-91178571D01*
X124738095Y-91226190D01*
X124690476Y-91321428D01*
X124690476Y-91511904D01*
X124738095Y-91607142D01*
X124785714Y-91654761D01*
X124880952Y-91702380D01*
X125071428Y-91702380D01*
X125166666Y-91654761D01*
X125214285Y-91607142D01*
X125261904Y-91511904D01*
X125261904Y-91321428D01*
X125214285Y-91226190D01*
X125166666Y-91178571D01*
X125071428Y-91130952D01*
X126857142Y-117607142D02*
X126809523Y-117654761D01*
X126666666Y-117702380D01*
X126571428Y-117702380D01*
X126428571Y-117654761D01*
X126333333Y-117559523D01*
X126285714Y-117464285D01*
X126238095Y-117273809D01*
X126238095Y-117130952D01*
X126285714Y-116940476D01*
X126333333Y-116845238D01*
X126428571Y-116750000D01*
X126571428Y-116702380D01*
X126666666Y-116702380D01*
X126809523Y-116750000D01*
X126857142Y-116797619D01*
X127809523Y-117702380D02*
X127238095Y-117702380D01*
X127523809Y-117702380D02*
X127523809Y-116702380D01*
X127428571Y-116845238D01*
X127333333Y-116940476D01*
X127238095Y-116988095D01*
X128142857Y-116702380D02*
X128809523Y-116702380D01*
X128380952Y-117702380D01*
X114357142Y-96857142D02*
X114309523Y-96904761D01*
X114166666Y-96952380D01*
X114071428Y-96952380D01*
X113928571Y-96904761D01*
X113833333Y-96809523D01*
X113785714Y-96714285D01*
X113738095Y-96523809D01*
X113738095Y-96380952D01*
X113785714Y-96190476D01*
X113833333Y-96095238D01*
X113928571Y-96000000D01*
X114071428Y-95952380D01*
X114166666Y-95952380D01*
X114309523Y-96000000D01*
X114357142Y-96047619D01*
X115309523Y-96952380D02*
X114738095Y-96952380D01*
X115023809Y-96952380D02*
X115023809Y-95952380D01*
X114928571Y-96095238D01*
X114833333Y-96190476D01*
X114738095Y-96238095D01*
X116214285Y-95952380D02*
X115738095Y-95952380D01*
X115690476Y-96428571D01*
X115738095Y-96380952D01*
X115833333Y-96333333D01*
X116071428Y-96333333D01*
X116166666Y-96380952D01*
X116214285Y-96428571D01*
X116261904Y-96523809D01*
X116261904Y-96761904D01*
X116214285Y-96857142D01*
X116166666Y-96904761D01*
X116071428Y-96952380D01*
X115833333Y-96952380D01*
X115738095Y-96904761D01*
X115690476Y-96857142D01*
X124357142Y-126107142D02*
X124309523Y-126154761D01*
X124166666Y-126202380D01*
X124071428Y-126202380D01*
X123928571Y-126154761D01*
X123833333Y-126059523D01*
X123785714Y-125964285D01*
X123738095Y-125773809D01*
X123738095Y-125630952D01*
X123785714Y-125440476D01*
X123833333Y-125345238D01*
X123928571Y-125250000D01*
X124071428Y-125202380D01*
X124166666Y-125202380D01*
X124309523Y-125250000D01*
X124357142Y-125297619D01*
X125309523Y-126202380D02*
X124738095Y-126202380D01*
X125023809Y-126202380D02*
X125023809Y-125202380D01*
X124928571Y-125345238D01*
X124833333Y-125440476D01*
X124738095Y-125488095D01*
X126166666Y-125535714D02*
X126166666Y-126202380D01*
X125928571Y-125154761D02*
X125690476Y-125869047D01*
X126309523Y-125869047D01*
X114357142Y-98607142D02*
X114309523Y-98654761D01*
X114166666Y-98702380D01*
X114071428Y-98702380D01*
X113928571Y-98654761D01*
X113833333Y-98559523D01*
X113785714Y-98464285D01*
X113738095Y-98273809D01*
X113738095Y-98130952D01*
X113785714Y-97940476D01*
X113833333Y-97845238D01*
X113928571Y-97750000D01*
X114071428Y-97702380D01*
X114166666Y-97702380D01*
X114309523Y-97750000D01*
X114357142Y-97797619D01*
X115309523Y-98702380D02*
X114738095Y-98702380D01*
X115023809Y-98702380D02*
X115023809Y-97702380D01*
X114928571Y-97845238D01*
X114833333Y-97940476D01*
X114738095Y-97988095D01*
X115642857Y-97702380D02*
X116261904Y-97702380D01*
X115928571Y-98083333D01*
X116071428Y-98083333D01*
X116166666Y-98130952D01*
X116214285Y-98178571D01*
X116261904Y-98273809D01*
X116261904Y-98511904D01*
X116214285Y-98607142D01*
X116166666Y-98654761D01*
X116071428Y-98702380D01*
X115785714Y-98702380D01*
X115690476Y-98654761D01*
X115642857Y-98607142D01*
X101107142Y-87357142D02*
X101059523Y-87404761D01*
X100916666Y-87452380D01*
X100821428Y-87452380D01*
X100678571Y-87404761D01*
X100583333Y-87309523D01*
X100535714Y-87214285D01*
X100488095Y-87023809D01*
X100488095Y-86880952D01*
X100535714Y-86690476D01*
X100583333Y-86595238D01*
X100678571Y-86500000D01*
X100821428Y-86452380D01*
X100916666Y-86452380D01*
X101059523Y-86500000D01*
X101107142Y-86547619D01*
X102059523Y-87452380D02*
X101488095Y-87452380D01*
X101773809Y-87452380D02*
X101773809Y-86452380D01*
X101678571Y-86595238D01*
X101583333Y-86690476D01*
X101488095Y-86738095D01*
X103011904Y-87452380D02*
X102440476Y-87452380D01*
X102726190Y-87452380D02*
X102726190Y-86452380D01*
X102630952Y-86595238D01*
X102535714Y-86690476D01*
X102440476Y-86738095D01*
X107857142Y-89357142D02*
X107809523Y-89404761D01*
X107666666Y-89452380D01*
X107571428Y-89452380D01*
X107428571Y-89404761D01*
X107333333Y-89309523D01*
X107285714Y-89214285D01*
X107238095Y-89023809D01*
X107238095Y-88880952D01*
X107285714Y-88690476D01*
X107333333Y-88595238D01*
X107428571Y-88500000D01*
X107571428Y-88452380D01*
X107666666Y-88452380D01*
X107809523Y-88500000D01*
X107857142Y-88547619D01*
X108809523Y-89452380D02*
X108238095Y-89452380D01*
X108523809Y-89452380D02*
X108523809Y-88452380D01*
X108428571Y-88595238D01*
X108333333Y-88690476D01*
X108238095Y-88738095D01*
X109428571Y-88452380D02*
X109523809Y-88452380D01*
X109619047Y-88500000D01*
X109666666Y-88547619D01*
X109714285Y-88642857D01*
X109761904Y-88833333D01*
X109761904Y-89071428D01*
X109714285Y-89261904D01*
X109666666Y-89357142D01*
X109619047Y-89404761D01*
X109523809Y-89452380D01*
X109428571Y-89452380D01*
X109333333Y-89404761D01*
X109285714Y-89357142D01*
X109238095Y-89261904D01*
X109190476Y-89071428D01*
X109190476Y-88833333D01*
X109238095Y-88642857D01*
X109285714Y-88547619D01*
X109333333Y-88500000D01*
X109428571Y-88452380D01*
X130083333Y-115857142D02*
X130035714Y-115904761D01*
X129892857Y-115952380D01*
X129797619Y-115952380D01*
X129654761Y-115904761D01*
X129559523Y-115809523D01*
X129511904Y-115714285D01*
X129464285Y-115523809D01*
X129464285Y-115380952D01*
X129511904Y-115190476D01*
X129559523Y-115095238D01*
X129654761Y-115000000D01*
X129797619Y-114952380D01*
X129892857Y-114952380D01*
X130035714Y-115000000D01*
X130083333Y-115047619D01*
X130654761Y-115380952D02*
X130559523Y-115333333D01*
X130511904Y-115285714D01*
X130464285Y-115190476D01*
X130464285Y-115142857D01*
X130511904Y-115047619D01*
X130559523Y-115000000D01*
X130654761Y-114952380D01*
X130845238Y-114952380D01*
X130940476Y-115000000D01*
X130988095Y-115047619D01*
X131035714Y-115142857D01*
X131035714Y-115190476D01*
X130988095Y-115285714D01*
X130940476Y-115333333D01*
X130845238Y-115380952D01*
X130654761Y-115380952D01*
X130559523Y-115428571D01*
X130511904Y-115476190D01*
X130464285Y-115571428D01*
X130464285Y-115761904D01*
X130511904Y-115857142D01*
X130559523Y-115904761D01*
X130654761Y-115952380D01*
X130845238Y-115952380D01*
X130940476Y-115904761D01*
X130988095Y-115857142D01*
X131035714Y-115761904D01*
X131035714Y-115571428D01*
X130988095Y-115476190D01*
X130940476Y-115428571D01*
X130845238Y-115380952D01*
X130083333Y-112357142D02*
X130035714Y-112404761D01*
X129892857Y-112452380D01*
X129797619Y-112452380D01*
X129654761Y-112404761D01*
X129559523Y-112309523D01*
X129511904Y-112214285D01*
X129464285Y-112023809D01*
X129464285Y-111880952D01*
X129511904Y-111690476D01*
X129559523Y-111595238D01*
X129654761Y-111500000D01*
X129797619Y-111452380D01*
X129892857Y-111452380D01*
X130035714Y-111500000D01*
X130083333Y-111547619D01*
X130416666Y-111452380D02*
X131083333Y-111452380D01*
X130654761Y-112452380D01*
X130083333Y-107357142D02*
X130035714Y-107404761D01*
X129892857Y-107452380D01*
X129797619Y-107452380D01*
X129654761Y-107404761D01*
X129559523Y-107309523D01*
X129511904Y-107214285D01*
X129464285Y-107023809D01*
X129464285Y-106880952D01*
X129511904Y-106690476D01*
X129559523Y-106595238D01*
X129654761Y-106500000D01*
X129797619Y-106452380D01*
X129892857Y-106452380D01*
X130035714Y-106500000D01*
X130083333Y-106547619D01*
X130940476Y-106452380D02*
X130750000Y-106452380D01*
X130654761Y-106500000D01*
X130607142Y-106547619D01*
X130511904Y-106690476D01*
X130464285Y-106880952D01*
X130464285Y-107261904D01*
X130511904Y-107357142D01*
X130559523Y-107404761D01*
X130654761Y-107452380D01*
X130845238Y-107452380D01*
X130940476Y-107404761D01*
X130988095Y-107357142D01*
X131035714Y-107261904D01*
X131035714Y-107023809D01*
X130988095Y-106928571D01*
X130940476Y-106880952D01*
X130845238Y-106833333D01*
X130654761Y-106833333D01*
X130559523Y-106880952D01*
X130511904Y-106928571D01*
X130464285Y-107023809D01*
X130083333Y-110607142D02*
X130035714Y-110654761D01*
X129892857Y-110702380D01*
X129797619Y-110702380D01*
X129654761Y-110654761D01*
X129559523Y-110559523D01*
X129511904Y-110464285D01*
X129464285Y-110273809D01*
X129464285Y-110130952D01*
X129511904Y-109940476D01*
X129559523Y-109845238D01*
X129654761Y-109750000D01*
X129797619Y-109702380D01*
X129892857Y-109702380D01*
X130035714Y-109750000D01*
X130083333Y-109797619D01*
X130988095Y-109702380D02*
X130511904Y-109702380D01*
X130464285Y-110178571D01*
X130511904Y-110130952D01*
X130607142Y-110083333D01*
X130845238Y-110083333D01*
X130940476Y-110130952D01*
X130988095Y-110178571D01*
X131035714Y-110273809D01*
X131035714Y-110511904D01*
X130988095Y-110607142D01*
X130940476Y-110654761D01*
X130845238Y-110702380D01*
X130607142Y-110702380D01*
X130511904Y-110654761D01*
X130464285Y-110607142D01*
X130083333Y-114107142D02*
X130035714Y-114154761D01*
X129892857Y-114202380D01*
X129797619Y-114202380D01*
X129654761Y-114154761D01*
X129559523Y-114059523D01*
X129511904Y-113964285D01*
X129464285Y-113773809D01*
X129464285Y-113630952D01*
X129511904Y-113440476D01*
X129559523Y-113345238D01*
X129654761Y-113250000D01*
X129797619Y-113202380D01*
X129892857Y-113202380D01*
X130035714Y-113250000D01*
X130083333Y-113297619D01*
X130940476Y-113535714D02*
X130940476Y-114202380D01*
X130702380Y-113154761D02*
X130464285Y-113869047D01*
X131083333Y-113869047D01*
X131593333Y-99417142D02*
X131545714Y-99464761D01*
X131402857Y-99512380D01*
X131307619Y-99512380D01*
X131164761Y-99464761D01*
X131069523Y-99369523D01*
X131021904Y-99274285D01*
X130974285Y-99083809D01*
X130974285Y-98940952D01*
X131021904Y-98750476D01*
X131069523Y-98655238D01*
X131164761Y-98560000D01*
X131307619Y-98512380D01*
X131402857Y-98512380D01*
X131545714Y-98560000D01*
X131593333Y-98607619D01*
X131926666Y-98512380D02*
X132545714Y-98512380D01*
X132212380Y-98893333D01*
X132355238Y-98893333D01*
X132450476Y-98940952D01*
X132498095Y-98988571D01*
X132545714Y-99083809D01*
X132545714Y-99321904D01*
X132498095Y-99417142D01*
X132450476Y-99464761D01*
X132355238Y-99512380D01*
X132069523Y-99512380D01*
X131974285Y-99464761D01*
X131926666Y-99417142D01*
X130083333Y-108857142D02*
X130035714Y-108904761D01*
X129892857Y-108952380D01*
X129797619Y-108952380D01*
X129654761Y-108904761D01*
X129559523Y-108809523D01*
X129511904Y-108714285D01*
X129464285Y-108523809D01*
X129464285Y-108380952D01*
X129511904Y-108190476D01*
X129559523Y-108095238D01*
X129654761Y-108000000D01*
X129797619Y-107952380D01*
X129892857Y-107952380D01*
X130035714Y-108000000D01*
X130083333Y-108047619D01*
X130464285Y-108047619D02*
X130511904Y-108000000D01*
X130607142Y-107952380D01*
X130845238Y-107952380D01*
X130940476Y-108000000D01*
X130988095Y-108047619D01*
X131035714Y-108142857D01*
X131035714Y-108238095D01*
X130988095Y-108380952D01*
X130416666Y-108952380D01*
X131035714Y-108952380D01*
X127893333Y-95107142D02*
X127845714Y-95154761D01*
X127702857Y-95202380D01*
X127607619Y-95202380D01*
X127464761Y-95154761D01*
X127369523Y-95059523D01*
X127321904Y-94964285D01*
X127274285Y-94773809D01*
X127274285Y-94630952D01*
X127321904Y-94440476D01*
X127369523Y-94345238D01*
X127464761Y-94250000D01*
X127607619Y-94202380D01*
X127702857Y-94202380D01*
X127845714Y-94250000D01*
X127893333Y-94297619D01*
X128845714Y-95202380D02*
X128274285Y-95202380D01*
X128560000Y-95202380D02*
X128560000Y-94202380D01*
X128464761Y-94345238D01*
X128369523Y-94440476D01*
X128274285Y-94488095D01*
M02*
