G04 #@! TF.GenerationSoftware,KiCad,Pcbnew,(5.1.4)-1*
G04 #@! TF.CreationDate,2019-08-27T06:48:35+02:00*
G04 #@! TF.ProjectId,ToF_camera_VGA,546f465f-6361-46d6-9572-615f5647412e,rev?*
G04 #@! TF.SameCoordinates,Original*
G04 #@! TF.FileFunction,Soldermask,Bot*
G04 #@! TF.FilePolarity,Negative*
%FSLAX46Y46*%
G04 Gerber Fmt 4.6, Leading zero omitted, Abs format (unit mm)*
G04 Created by KiCad (PCBNEW (5.1.4)-1) date 2019-08-27 06:48:35*
%MOMM*%
%LPD*%
G04 APERTURE LIST*
%ADD10C,0.100000*%
G04 APERTURE END LIST*
D10*
G36*
X136422948Y-125605722D02*
G01*
X136686831Y-125715026D01*
X136686833Y-125715027D01*
X136924321Y-125873711D01*
X137126289Y-126075679D01*
X137284973Y-126313167D01*
X137284974Y-126313169D01*
X137394278Y-126577052D01*
X137450000Y-126857186D01*
X137450000Y-127142814D01*
X137394278Y-127422948D01*
X137284974Y-127686831D01*
X137284973Y-127686833D01*
X137126289Y-127924321D01*
X136924321Y-128126289D01*
X136686833Y-128284973D01*
X136686832Y-128284974D01*
X136686831Y-128284974D01*
X136422948Y-128394278D01*
X136142814Y-128450000D01*
X135857186Y-128450000D01*
X135577052Y-128394278D01*
X135313169Y-128284974D01*
X135313168Y-128284974D01*
X135313167Y-128284973D01*
X135075679Y-128126289D01*
X134873711Y-127924321D01*
X134715027Y-127686833D01*
X134715026Y-127686831D01*
X134605722Y-127422948D01*
X134550000Y-127142814D01*
X134550000Y-126857186D01*
X134605722Y-126577052D01*
X134715026Y-126313169D01*
X134715027Y-126313167D01*
X134873711Y-126075679D01*
X135075679Y-125873711D01*
X135313167Y-125715027D01*
X135313169Y-125715026D01*
X135577052Y-125605722D01*
X135857186Y-125550000D01*
X136142814Y-125550000D01*
X136422948Y-125605722D01*
X136422948Y-125605722D01*
G37*
G36*
X94422948Y-125605722D02*
G01*
X94686831Y-125715026D01*
X94686833Y-125715027D01*
X94924321Y-125873711D01*
X95126289Y-126075679D01*
X95284973Y-126313167D01*
X95284974Y-126313169D01*
X95394278Y-126577052D01*
X95450000Y-126857186D01*
X95450000Y-127142814D01*
X95394278Y-127422948D01*
X95284974Y-127686831D01*
X95284973Y-127686833D01*
X95126289Y-127924321D01*
X94924321Y-128126289D01*
X94686833Y-128284973D01*
X94686832Y-128284974D01*
X94686831Y-128284974D01*
X94422948Y-128394278D01*
X94142814Y-128450000D01*
X93857186Y-128450000D01*
X93577052Y-128394278D01*
X93313169Y-128284974D01*
X93313168Y-128284974D01*
X93313167Y-128284973D01*
X93075679Y-128126289D01*
X92873711Y-127924321D01*
X92715027Y-127686833D01*
X92715026Y-127686831D01*
X92605722Y-127422948D01*
X92550000Y-127142814D01*
X92550000Y-126857186D01*
X92605722Y-126577052D01*
X92715026Y-126313169D01*
X92715027Y-126313167D01*
X92873711Y-126075679D01*
X93075679Y-125873711D01*
X93313167Y-125715027D01*
X93313169Y-125715026D01*
X93577052Y-125605722D01*
X93857186Y-125550000D01*
X94142814Y-125550000D01*
X94422948Y-125605722D01*
X94422948Y-125605722D01*
G37*
G36*
X99550000Y-124750000D02*
G01*
X97650000Y-124750000D01*
X97650000Y-122850000D01*
X99550000Y-122850000D01*
X99550000Y-124750000D01*
X99550000Y-124750000D01*
G37*
G36*
X131350000Y-124750000D02*
G01*
X129450000Y-124750000D01*
X129450000Y-122850000D01*
X131350000Y-122850000D01*
X131350000Y-124750000D01*
X131350000Y-124750000D01*
G37*
G36*
X131266232Y-95583746D02*
G01*
X131355770Y-95610907D01*
X131445309Y-95638068D01*
X131533523Y-95685220D01*
X131610345Y-95726282D01*
X131610347Y-95726283D01*
X131610346Y-95726283D01*
X131755002Y-95844998D01*
X131873717Y-95989654D01*
X131961932Y-96154691D01*
X132016254Y-96333769D01*
X132034596Y-96520000D01*
X132016254Y-96706231D01*
X131961932Y-96885309D01*
X131873717Y-97050346D01*
X131755002Y-97195002D01*
X131623315Y-97303073D01*
X131610345Y-97313718D01*
X131533523Y-97354780D01*
X131445309Y-97401932D01*
X131355770Y-97429093D01*
X131266232Y-97456254D01*
X131196448Y-97463127D01*
X131126666Y-97470000D01*
X131033334Y-97470000D01*
X130893768Y-97456254D01*
X130804230Y-97429093D01*
X130714691Y-97401932D01*
X130626477Y-97354780D01*
X130549655Y-97313718D01*
X130536685Y-97303073D01*
X130404998Y-97195002D01*
X130286283Y-97050346D01*
X130198068Y-96885309D01*
X130143746Y-96706231D01*
X130125404Y-96520000D01*
X130143746Y-96333769D01*
X130198068Y-96154691D01*
X130286283Y-95989654D01*
X130404998Y-95844998D01*
X130549654Y-95726283D01*
X130549653Y-95726283D01*
X130549655Y-95726282D01*
X130626477Y-95685220D01*
X130714691Y-95638068D01*
X130804230Y-95610907D01*
X130893768Y-95583746D01*
X130963552Y-95576873D01*
X131033334Y-95570000D01*
X131126666Y-95570000D01*
X131266232Y-95583746D01*
X131266232Y-95583746D01*
G37*
G36*
X99426448Y-93126873D02*
G01*
X99496232Y-93133746D01*
X99585770Y-93160907D01*
X99675309Y-93188068D01*
X99763523Y-93235220D01*
X99840345Y-93276282D01*
X99840347Y-93276283D01*
X99840346Y-93276283D01*
X99985002Y-93394998D01*
X100103717Y-93539654D01*
X100191932Y-93704691D01*
X100246254Y-93883769D01*
X100264596Y-94070000D01*
X100246254Y-94256231D01*
X100191932Y-94435309D01*
X100103717Y-94600346D01*
X99985002Y-94745002D01*
X99853315Y-94853073D01*
X99840345Y-94863718D01*
X99763523Y-94904780D01*
X99675309Y-94951932D01*
X99585770Y-94979093D01*
X99496232Y-95006254D01*
X99426448Y-95013127D01*
X99356666Y-95020000D01*
X99263334Y-95020000D01*
X99193552Y-95013127D01*
X99123768Y-95006254D01*
X99034230Y-94979093D01*
X98944691Y-94951932D01*
X98856477Y-94904780D01*
X98779655Y-94863718D01*
X98766685Y-94853073D01*
X98634998Y-94745002D01*
X98516283Y-94600346D01*
X98428068Y-94435309D01*
X98373746Y-94256231D01*
X98355404Y-94070000D01*
X98373746Y-93883769D01*
X98428068Y-93704691D01*
X98516283Y-93539654D01*
X98634998Y-93394998D01*
X98779654Y-93276283D01*
X98779653Y-93276283D01*
X98779655Y-93276282D01*
X98856477Y-93235220D01*
X98944691Y-93188068D01*
X99034230Y-93160907D01*
X99123768Y-93133746D01*
X99193552Y-93126873D01*
X99263334Y-93120000D01*
X99356666Y-93120000D01*
X99426448Y-93126873D01*
X99426448Y-93126873D01*
G37*
G36*
X131266232Y-93043746D02*
G01*
X131355770Y-93070907D01*
X131445309Y-93098068D01*
X131486340Y-93120000D01*
X131610345Y-93186282D01*
X131610347Y-93186283D01*
X131610346Y-93186283D01*
X131755002Y-93304998D01*
X131873717Y-93449654D01*
X131961932Y-93614691D01*
X132016254Y-93793769D01*
X132034596Y-93980000D01*
X132016254Y-94166231D01*
X131961932Y-94345309D01*
X131873717Y-94510346D01*
X131755002Y-94655002D01*
X131623316Y-94763073D01*
X131610345Y-94773718D01*
X131533523Y-94814780D01*
X131445309Y-94861932D01*
X131355770Y-94889093D01*
X131266232Y-94916254D01*
X131196448Y-94923127D01*
X131126666Y-94930000D01*
X131033334Y-94930000D01*
X130893768Y-94916254D01*
X130804230Y-94889093D01*
X130714691Y-94861932D01*
X130626477Y-94814780D01*
X130549655Y-94773718D01*
X130536684Y-94763073D01*
X130404998Y-94655002D01*
X130286283Y-94510346D01*
X130198068Y-94345309D01*
X130143746Y-94166231D01*
X130125404Y-93980000D01*
X130143746Y-93793769D01*
X130198068Y-93614691D01*
X130286283Y-93449654D01*
X130404998Y-93304998D01*
X130549654Y-93186283D01*
X130549653Y-93186283D01*
X130549655Y-93186282D01*
X130673660Y-93120000D01*
X130714691Y-93098068D01*
X130804230Y-93070907D01*
X130893768Y-93043746D01*
X131033334Y-93030000D01*
X131126666Y-93030000D01*
X131266232Y-93043746D01*
X131266232Y-93043746D01*
G37*
G36*
X99426448Y-90586873D02*
G01*
X99496232Y-90593746D01*
X99585770Y-90620907D01*
X99675309Y-90648068D01*
X99763523Y-90695220D01*
X99840345Y-90736282D01*
X99840347Y-90736283D01*
X99840346Y-90736283D01*
X99985002Y-90854998D01*
X100103717Y-90999654D01*
X100191932Y-91164691D01*
X100246254Y-91343769D01*
X100264596Y-91530000D01*
X100246254Y-91716231D01*
X100191932Y-91895309D01*
X100103717Y-92060346D01*
X99985002Y-92205002D01*
X99853316Y-92313073D01*
X99840345Y-92323718D01*
X99763523Y-92364780D01*
X99675309Y-92411932D01*
X99585770Y-92439093D01*
X99496232Y-92466254D01*
X99426448Y-92473127D01*
X99356666Y-92480000D01*
X99263334Y-92480000D01*
X99193552Y-92473127D01*
X99123768Y-92466254D01*
X99034230Y-92439093D01*
X98944691Y-92411932D01*
X98856477Y-92364780D01*
X98779655Y-92323718D01*
X98766684Y-92313073D01*
X98634998Y-92205002D01*
X98516283Y-92060346D01*
X98428068Y-91895309D01*
X98373746Y-91716231D01*
X98355404Y-91530000D01*
X98373746Y-91343769D01*
X98428068Y-91164691D01*
X98516283Y-90999654D01*
X98634998Y-90854998D01*
X98779654Y-90736283D01*
X98779653Y-90736283D01*
X98779655Y-90736282D01*
X98856477Y-90695220D01*
X98944691Y-90648068D01*
X99034230Y-90620907D01*
X99123768Y-90593746D01*
X99193552Y-90586873D01*
X99263334Y-90580000D01*
X99356666Y-90580000D01*
X99426448Y-90586873D01*
X99426448Y-90586873D01*
G37*
G36*
X131266232Y-90503746D02*
G01*
X131355770Y-90530907D01*
X131445309Y-90558068D01*
X131486340Y-90580000D01*
X131610345Y-90646282D01*
X131610347Y-90646283D01*
X131610346Y-90646283D01*
X131755002Y-90764998D01*
X131873717Y-90909654D01*
X131961932Y-91074691D01*
X132016254Y-91253769D01*
X132034596Y-91440000D01*
X132016254Y-91626231D01*
X131961932Y-91805309D01*
X131873717Y-91970346D01*
X131755002Y-92115002D01*
X131623316Y-92223073D01*
X131610345Y-92233718D01*
X131533523Y-92274780D01*
X131445309Y-92321932D01*
X131355770Y-92349093D01*
X131266232Y-92376254D01*
X131126666Y-92390000D01*
X131033334Y-92390000D01*
X130893768Y-92376254D01*
X130804230Y-92349093D01*
X130714691Y-92321932D01*
X130626477Y-92274780D01*
X130549655Y-92233718D01*
X130536684Y-92223073D01*
X130404998Y-92115002D01*
X130286283Y-91970346D01*
X130198068Y-91805309D01*
X130143746Y-91626231D01*
X130125404Y-91440000D01*
X130143746Y-91253769D01*
X130198068Y-91074691D01*
X130286283Y-90909654D01*
X130404998Y-90764998D01*
X130549654Y-90646283D01*
X130549653Y-90646283D01*
X130549655Y-90646282D01*
X130673660Y-90580000D01*
X130714691Y-90558068D01*
X130804230Y-90530907D01*
X130893768Y-90503746D01*
X131033334Y-90490000D01*
X131126666Y-90490000D01*
X131266232Y-90503746D01*
X131266232Y-90503746D01*
G37*
G36*
X99426448Y-88046873D02*
G01*
X99496232Y-88053746D01*
X99585770Y-88080907D01*
X99675309Y-88108068D01*
X99763523Y-88155220D01*
X99840345Y-88196282D01*
X99840347Y-88196283D01*
X99840346Y-88196283D01*
X99985002Y-88314998D01*
X100103717Y-88459654D01*
X100191932Y-88624691D01*
X100246254Y-88803769D01*
X100264596Y-88990000D01*
X100246254Y-89176231D01*
X100191932Y-89355309D01*
X100103717Y-89520346D01*
X99985002Y-89665002D01*
X99853315Y-89773073D01*
X99840345Y-89783718D01*
X99763523Y-89824780D01*
X99675309Y-89871932D01*
X99585770Y-89899093D01*
X99496232Y-89926254D01*
X99356666Y-89940000D01*
X99263334Y-89940000D01*
X99123768Y-89926254D01*
X99034230Y-89899093D01*
X98944691Y-89871932D01*
X98856477Y-89824780D01*
X98779655Y-89783718D01*
X98766685Y-89773073D01*
X98634998Y-89665002D01*
X98516283Y-89520346D01*
X98428068Y-89355309D01*
X98373746Y-89176231D01*
X98355404Y-88990000D01*
X98373746Y-88803769D01*
X98428068Y-88624691D01*
X98516283Y-88459654D01*
X98634998Y-88314998D01*
X98779654Y-88196283D01*
X98779653Y-88196283D01*
X98779655Y-88196282D01*
X98856477Y-88155220D01*
X98944691Y-88108068D01*
X99034230Y-88080907D01*
X99123768Y-88053746D01*
X99193552Y-88046873D01*
X99263334Y-88040000D01*
X99356666Y-88040000D01*
X99426448Y-88046873D01*
X99426448Y-88046873D01*
G37*
G36*
X132030000Y-89850000D02*
G01*
X130130000Y-89850000D01*
X130130000Y-87950000D01*
X132030000Y-87950000D01*
X132030000Y-89850000D01*
X132030000Y-89850000D01*
G37*
G36*
X100260000Y-87400000D02*
G01*
X98360000Y-87400000D01*
X98360000Y-85500000D01*
X100260000Y-85500000D01*
X100260000Y-87400000D01*
X100260000Y-87400000D01*
G37*
G36*
X124410000Y-86950000D02*
G01*
X122510000Y-86950000D01*
X122510000Y-85050000D01*
X124410000Y-85050000D01*
X124410000Y-86950000D01*
X124410000Y-86950000D01*
G37*
G36*
X131196448Y-85056873D02*
G01*
X131266232Y-85063746D01*
X131355770Y-85090907D01*
X131445309Y-85118068D01*
X131533523Y-85165220D01*
X131610345Y-85206282D01*
X131610347Y-85206283D01*
X131610346Y-85206283D01*
X131755002Y-85324998D01*
X131863073Y-85456685D01*
X131873718Y-85469655D01*
X131914780Y-85546477D01*
X131961932Y-85634691D01*
X132016254Y-85813769D01*
X132034596Y-86000000D01*
X132016254Y-86186231D01*
X131961932Y-86365309D01*
X131873717Y-86530346D01*
X131755002Y-86675002D01*
X131623316Y-86783073D01*
X131610345Y-86793718D01*
X131533523Y-86834780D01*
X131445309Y-86881932D01*
X131355770Y-86909093D01*
X131266232Y-86936254D01*
X131126666Y-86950000D01*
X131033334Y-86950000D01*
X130893768Y-86936254D01*
X130804230Y-86909093D01*
X130714691Y-86881932D01*
X130626477Y-86834780D01*
X130549655Y-86793718D01*
X130536684Y-86783073D01*
X130404998Y-86675002D01*
X130286283Y-86530346D01*
X130198068Y-86365309D01*
X130143746Y-86186231D01*
X130125404Y-86000000D01*
X130143746Y-85813769D01*
X130198068Y-85634691D01*
X130245220Y-85546477D01*
X130286282Y-85469655D01*
X130296927Y-85456684D01*
X130404998Y-85324998D01*
X130549654Y-85206283D01*
X130549653Y-85206283D01*
X130549655Y-85206282D01*
X130626477Y-85165220D01*
X130714691Y-85118068D01*
X130804230Y-85090907D01*
X130893768Y-85063746D01*
X130963552Y-85056873D01*
X131033334Y-85050000D01*
X131126666Y-85050000D01*
X131196448Y-85056873D01*
X131196448Y-85056873D01*
G37*
G36*
X128656448Y-85056873D02*
G01*
X128726232Y-85063746D01*
X128815770Y-85090907D01*
X128905309Y-85118068D01*
X128993523Y-85165220D01*
X129070345Y-85206282D01*
X129070347Y-85206283D01*
X129070346Y-85206283D01*
X129215002Y-85324998D01*
X129323073Y-85456685D01*
X129333718Y-85469655D01*
X129374780Y-85546477D01*
X129421932Y-85634691D01*
X129476254Y-85813769D01*
X129494596Y-86000000D01*
X129476254Y-86186231D01*
X129421932Y-86365309D01*
X129333717Y-86530346D01*
X129215002Y-86675002D01*
X129083316Y-86783073D01*
X129070345Y-86793718D01*
X128993523Y-86834780D01*
X128905309Y-86881932D01*
X128815770Y-86909093D01*
X128726232Y-86936254D01*
X128586666Y-86950000D01*
X128493334Y-86950000D01*
X128353768Y-86936254D01*
X128264230Y-86909093D01*
X128174691Y-86881932D01*
X128086477Y-86834780D01*
X128009655Y-86793718D01*
X127996684Y-86783073D01*
X127864998Y-86675002D01*
X127746283Y-86530346D01*
X127658068Y-86365309D01*
X127603746Y-86186231D01*
X127585404Y-86000000D01*
X127603746Y-85813769D01*
X127658068Y-85634691D01*
X127705220Y-85546477D01*
X127746282Y-85469655D01*
X127756927Y-85456684D01*
X127864998Y-85324998D01*
X128009654Y-85206283D01*
X128009653Y-85206283D01*
X128009655Y-85206282D01*
X128086477Y-85165220D01*
X128174691Y-85118068D01*
X128264230Y-85090907D01*
X128353768Y-85063746D01*
X128423552Y-85056873D01*
X128493334Y-85050000D01*
X128586666Y-85050000D01*
X128656448Y-85056873D01*
X128656448Y-85056873D01*
G37*
G36*
X126116448Y-85056873D02*
G01*
X126186232Y-85063746D01*
X126275770Y-85090907D01*
X126365309Y-85118068D01*
X126453523Y-85165220D01*
X126530345Y-85206282D01*
X126530347Y-85206283D01*
X126530346Y-85206283D01*
X126675002Y-85324998D01*
X126783073Y-85456685D01*
X126793718Y-85469655D01*
X126834780Y-85546477D01*
X126881932Y-85634691D01*
X126936254Y-85813769D01*
X126954596Y-86000000D01*
X126936254Y-86186231D01*
X126881932Y-86365309D01*
X126793717Y-86530346D01*
X126675002Y-86675002D01*
X126543316Y-86783073D01*
X126530345Y-86793718D01*
X126453523Y-86834780D01*
X126365309Y-86881932D01*
X126275770Y-86909093D01*
X126186232Y-86936254D01*
X126046666Y-86950000D01*
X125953334Y-86950000D01*
X125813768Y-86936254D01*
X125724230Y-86909093D01*
X125634691Y-86881932D01*
X125546477Y-86834780D01*
X125469655Y-86793718D01*
X125456684Y-86783073D01*
X125324998Y-86675002D01*
X125206283Y-86530346D01*
X125118068Y-86365309D01*
X125063746Y-86186231D01*
X125045404Y-86000000D01*
X125063746Y-85813769D01*
X125118068Y-85634691D01*
X125165220Y-85546477D01*
X125206282Y-85469655D01*
X125216927Y-85456684D01*
X125324998Y-85324998D01*
X125469654Y-85206283D01*
X125469653Y-85206283D01*
X125469655Y-85206282D01*
X125546477Y-85165220D01*
X125634691Y-85118068D01*
X125724230Y-85090907D01*
X125813768Y-85063746D01*
X125883552Y-85056873D01*
X125953334Y-85050000D01*
X126046666Y-85050000D01*
X126116448Y-85056873D01*
X126116448Y-85056873D01*
G37*
G36*
X94422948Y-82605722D02*
G01*
X94686831Y-82715026D01*
X94686833Y-82715027D01*
X94924321Y-82873711D01*
X95126289Y-83075679D01*
X95284973Y-83313167D01*
X95284974Y-83313169D01*
X95394278Y-83577052D01*
X95450000Y-83857186D01*
X95450000Y-84142814D01*
X95394278Y-84422948D01*
X95284974Y-84686831D01*
X95284973Y-84686833D01*
X95126289Y-84924321D01*
X94924321Y-85126289D01*
X94686833Y-85284973D01*
X94686832Y-85284974D01*
X94686831Y-85284974D01*
X94422948Y-85394278D01*
X94142814Y-85450000D01*
X93857186Y-85450000D01*
X93577052Y-85394278D01*
X93313169Y-85284974D01*
X93313168Y-85284974D01*
X93313167Y-85284973D01*
X93075679Y-85126289D01*
X92873711Y-84924321D01*
X92715027Y-84686833D01*
X92715026Y-84686831D01*
X92605722Y-84422948D01*
X92550000Y-84142814D01*
X92550000Y-83857186D01*
X92605722Y-83577052D01*
X92715026Y-83313169D01*
X92715027Y-83313167D01*
X92873711Y-83075679D01*
X93075679Y-82873711D01*
X93313167Y-82715027D01*
X93313169Y-82715026D01*
X93577052Y-82605722D01*
X93857186Y-82550000D01*
X94142814Y-82550000D01*
X94422948Y-82605722D01*
X94422948Y-82605722D01*
G37*
G36*
X136422948Y-82605722D02*
G01*
X136686831Y-82715026D01*
X136686833Y-82715027D01*
X136924321Y-82873711D01*
X137126289Y-83075679D01*
X137284973Y-83313167D01*
X137284974Y-83313169D01*
X137394278Y-83577052D01*
X137450000Y-83857186D01*
X137450000Y-84142814D01*
X137394278Y-84422948D01*
X137284974Y-84686831D01*
X137284973Y-84686833D01*
X137126289Y-84924321D01*
X136924321Y-85126289D01*
X136686833Y-85284973D01*
X136686832Y-85284974D01*
X136686831Y-85284974D01*
X136422948Y-85394278D01*
X136142814Y-85450000D01*
X135857186Y-85450000D01*
X135577052Y-85394278D01*
X135313169Y-85284974D01*
X135313168Y-85284974D01*
X135313167Y-85284973D01*
X135075679Y-85126289D01*
X134873711Y-84924321D01*
X134715027Y-84686833D01*
X134715026Y-84686831D01*
X134605722Y-84422948D01*
X134550000Y-84142814D01*
X134550000Y-83857186D01*
X134605722Y-83577052D01*
X134715026Y-83313169D01*
X134715027Y-83313167D01*
X134873711Y-83075679D01*
X135075679Y-82873711D01*
X135313167Y-82715027D01*
X135313169Y-82715026D01*
X135577052Y-82605722D01*
X135857186Y-82550000D01*
X136142814Y-82550000D01*
X136422948Y-82605722D01*
X136422948Y-82605722D01*
G37*
M02*
